<?xml version="1.0" encoding="utf-8"?>
<!-- Generator: Adobe Illustrator 24.3.0, SVG Export Plug-In . SVG Version: 6.00 Build 0)  -->
<svg version="1.1" id="Layer_1" xmlns="http://www.w3.org/2000/svg" xmlns:xlink="http://www.w3.org/1999/xlink" x="0px" y="0px"
	 viewBox="0 0 164 68" style="enable-background:new 0 0 164 68;" xml:space="preserve">
<style type="text/css">
	.st0{fill:none;}
	.st1{fill:#1E1F1C;}
	.st2{fill:#020203;}
	.st3{fill:#040404;}
	.st4{fill:#0C0809;}
	.st5{fill:#211E1F;}
	.st6{fill:#FCFEFF;}
	.st7{fill:#000102;}
	.st8{fill:none;stroke:#F9F9F9;stroke-width:0.25;stroke-miterlimit:10;}
	.st9{fill:#262626;}
	.st10{font-family:'ArialGEOBold';}
	.st11{font-size:15.9978px;}
	.st12{fill:#000002;}
</style>
<g>
	<g>
		<path d="M49.5,33.6h-1.2l-0.5-1.9h-2.3l-0.5,1.9h-1.2l2.2-8.5h1.2L49.5,33.6z M47.4,30.2l-0.8-3.1l-0.8,3.1H47.4z"/>
		<path d="M50.3,25.1h2.1c0.5,0,0.8,0.1,1.1,0.2c0.7,0.3,1.1,1,1.4,2.1c0.1,0.5,0.2,1.2,0.2,2c0,1.4-0.3,2.5-0.8,3.3
			c-0.2,0.3-0.5,0.5-0.8,0.7c-0.2,0.1-0.6,0.2-1,0.2h-2.2V25.1z M51.4,26.6v5.6h0.9c0.3,0,0.5,0,0.7-0.1c0.4-0.1,0.6-0.5,0.8-1.2
			c0.1-0.4,0.1-0.9,0.1-1.5c0-1.1-0.1-1.9-0.4-2.3c-0.1-0.2-0.3-0.3-0.5-0.4c-0.2-0.1-0.5-0.1-0.9-0.1H51.4z"/>
		<path d="M57.6,33.6l-2-8.5h1.2l1.4,6.3l1.4-6.3h1.2l-2,8.5H57.6z"/>
		<path d="M66.7,33.6h-1.2l-0.5-1.9h-2.3l-0.5,1.9H61l2.2-8.5h1.2L66.7,33.6z M64.6,30.2l-0.8-3.1L63,30.2H64.6z"/>
		<path d="M67.4,33.6v-8.5h1.1l2.3,5.6v-5.6h1.1v8.5h-1.2l-2.3-5.5v5.5H67.4z"/>
		<path d="M76.9,30.5L78,31c-0.3,1.8-1.1,2.7-2.4,2.7c-0.8,0-1.5-0.4-1.9-1.3c-0.4-0.8-0.7-1.8-0.7-3c0-1.3,0.2-2.4,0.7-3.2
			c0.5-0.9,1.1-1.3,2-1.3c0.7,0,1.3,0.3,1.7,0.9c0.3,0.4,0.5,0.9,0.6,1.6l-1.1,0.4c-0.1-0.4-0.2-0.8-0.4-1s-0.5-0.4-0.8-0.4
			c-0.9,0-1.4,1-1.4,2.9c0,2,0.5,3,1.4,3C76.3,32.3,76.7,31.7,76.9,30.5z"/>
		<path d="M79.1,33.6v-8.5h4.2v1.4h-3.1v1.9h2.9v1.4h-2.9v2.3h3.2v1.4H79.1z"/>
		<path d="M88.3,33.6l-2-8.5h1.2l1.4,6.3l1.4-6.3h1.2l-2,8.5H88.3z"/>
		<path d="M92.2,33.6v-8.5h1.1v8.5H92.2z"/>
		<path d="M94.3,30.8l1.1-0.2c0.1,1.1,0.5,1.6,1.2,1.6c0.3,0,0.5-0.1,0.7-0.3c0.2-0.2,0.4-0.5,0.4-0.9c0-0.4-0.2-0.7-0.5-0.9
			c-0.1-0.1-0.4-0.2-0.9-0.4c-0.6-0.2-1-0.5-1.3-0.8c-0.3-0.5-0.5-1-0.5-1.7c0-0.5,0.1-0.9,0.3-1.2c0.2-0.4,0.4-0.6,0.7-0.8
			c0.3-0.2,0.7-0.3,1.1-0.3c0.6,0,1.1,0.2,1.5,0.6c0.4,0.4,0.7,1.1,0.7,2l-1.1,0.1c-0.1-0.4-0.2-0.8-0.3-1c-0.2-0.2-0.4-0.3-0.7-0.3
			c-0.3,0-0.6,0.1-0.8,0.3c-0.1,0.1-0.2,0.3-0.2,0.5c0,0.2,0.1,0.4,0.2,0.5c0.1,0.2,0.5,0.4,1.1,0.6c0.6,0.2,1,0.4,1.2,0.6
			c0.6,0.5,0.9,1.2,0.9,2.2c0,0.5-0.1,1-0.3,1.4c-0.2,0.4-0.4,0.7-0.8,0.9c-0.3,0.2-0.7,0.3-1.2,0.3C95.2,33.7,94.5,32.8,94.3,30.8z
			"/>
		<path d="M100,33.6v-8.5h1.1v8.5H100z"/>
		<path d="M102.1,29.4c0-1.4,0.3-2.5,0.8-3.3c0.5-0.7,1.1-1.1,2-1.1c0.9,0,1.6,0.4,2.1,1.2c0.5,0.8,0.7,1.8,0.7,3.2
			c0,1.3-0.2,2.4-0.7,3.1c-0.5,0.8-1.2,1.2-2,1.2c-0.9,0-1.6-0.4-2-1.2C102.3,31.8,102.1,30.7,102.1,29.4z M103.3,29.4
			c0,0.8,0.1,1.5,0.4,2c0.3,0.6,0.7,0.9,1.2,0.9c0.5,0,0.9-0.3,1.2-0.9c0.2-0.5,0.4-1.2,0.4-2c0-0.8-0.1-1.5-0.3-2
			c-0.3-0.6-0.7-0.9-1.2-0.9s-1,0.3-1.2,0.9C103.4,27.8,103.3,28.5,103.3,29.4z"/>
		<path d="M108.7,33.6v-8.5h1.1l2.3,5.6v-5.6h1.1v8.5H112l-2.3-5.5v5.5H108.7z"/>
		<path d="M120.5,30.5l1.1,0.5c-0.3,1.8-1.1,2.7-2.4,2.7c-0.8,0-1.5-0.4-1.9-1.3c-0.4-0.8-0.7-1.8-0.7-3c0-1.3,0.2-2.4,0.7-3.2
			c0.5-0.9,1.1-1.3,2-1.3c0.7,0,1.3,0.3,1.7,0.9c0.3,0.4,0.5,0.9,0.6,1.6l-1.1,0.4c-0.1-0.4-0.2-0.8-0.4-1s-0.5-0.4-0.8-0.4
			c-0.9,0-1.4,1-1.4,2.9c0,2,0.5,3,1.4,3C119.9,32.3,120.3,31.7,120.5,30.5z"/>
		<path d="M122.4,29.4c0-1.4,0.3-2.5,0.8-3.3c0.5-0.7,1.1-1.1,2-1.1c0.9,0,1.6,0.4,2.1,1.2c0.5,0.8,0.7,1.8,0.7,3.2
			c0,1.3-0.2,2.4-0.7,3.1c-0.5,0.8-1.2,1.2-2,1.2c-0.9,0-1.6-0.4-2-1.2C122.7,31.8,122.4,30.7,122.4,29.4z M123.6,29.4
			c0,0.8,0.1,1.5,0.4,2c0.3,0.6,0.7,0.9,1.2,0.9c0.5,0,0.9-0.3,1.2-0.9c0.2-0.5,0.4-1.2,0.4-2c0-0.8-0.1-1.5-0.3-2
			c-0.3-0.6-0.7-0.9-1.2-0.9s-1,0.3-1.2,0.9C123.7,27.8,123.6,28.5,123.6,29.4z"/>
		<path d="M129,33.6v-8.5h1.7l1,5.8l1-5.8h1.7v8.5h-1.1v-6.7l-1.1,6.7h-1.1l-1.1-6.7v6.7H129z"/>
		<path d="M135.7,33.6v-8.5h1.8c0.7,0,1.1,0,1.4,0.1c0.4,0.1,0.7,0.5,0.9,0.9c0.2,0.4,0.3,1,0.3,1.5c0,1-0.2,1.7-0.7,2.1
			c-0.2,0.2-0.4,0.3-0.6,0.4c-0.3,0.1-0.7,0.1-1.2,0.1h-0.7v3.2H135.7z M136.8,26.6V29h0.6c0.3,0,0.6,0,0.7-0.1
			c0.3-0.1,0.5-0.2,0.6-0.5c0.1-0.2,0.1-0.4,0.1-0.7c0-0.3-0.1-0.5-0.2-0.8c-0.1-0.2-0.3-0.3-0.5-0.4c-0.1,0-0.4-0.1-0.8-0.1H136.8z
			"/>
		<path d="M146.2,33.6H145l-0.5-1.9h-2.3l-0.5,1.9h-1.2l2.2-8.5h1.2L146.2,33.6z M144.1,30.2l-0.8-3.1l-0.8,3.1H144.1z"/>
		<path d="M147,33.6v-8.5h1.1l2.3,5.6v-5.6h1.1v8.5h-1.2l-2.3-5.5v5.5H147z"/>
		<path d="M154.3,33.6V30l-2.1-4.9h1.3l1.3,3.3l1.3-3.3h1.3l-2.1,4.9v3.5H154.3z"/>
	</g>
	<path class="st9" d="M24.4,23c0,1.7,0,3.5,0,3.5c-0.9,0.3-1.8,0.7-2.7,1c-1.4,0.5-2.8,1.1-4.2,1.6c-1.3,0.5-2.6,1-3.8,1.5
		c1.2,0.5,2.4,1,3.6,1.5c0.6,1.4,1.2,2.8,1.8,4.2c-4.2-2-8.4-4-12.6-6c4.3-1.7,8.6-3.5,12.8-5.2h0c1.4-0.6,2.7-1.1,4.1-1.7
		C23.7,23.3,24.1,23.2,24.4,23z"/>
	<text transform="matrix(0.8329 0 0 1 29.1299 49.515)" class="st10 st11">C</text>
	<text transform="matrix(0.8329 0 0 1 11.544 49.515)" class="st10 st11">A</text>
	<path d="M30.9,26.1c-2.1-4.6-4.2-9.1-6.3-13.7c-2.5,6-5,11.9-7.5,17.9c1.7,0,3.5,0,3.5,0c1.4-3.5,2.9-7.1,4.3-10.6
		c1.4,3.6,2.8,7.1,4.2,10.7c1.2,0,2.5-0.1,3.7-0.1C32.2,28.9,31.6,27.5,30.9,26.1z"/>
	<path d="M32.9,31.6c-0.1,0.2-0.2,0.5-0.3,0.7c-0.5,1.2-1.1,2.3-1.6,3.5c-0.1,0.2-0.2,0.5-0.3,0.7c-2,4.3-4,8.7-6,13
		c-1.8-4.4-3.7-8.8-5.5-13.2c-0.6-1.4-1.2-2.8-1.8-4.2c-0.1-0.2-0.2-0.4-0.2-0.5c1.7,0,3.5,0,3.5,0c0.3,0.8,0.6,1.5,0.9,2.3
		c0.6,1.5,1.2,3,1.8,4.5c0.5,1.3,1,2.6,1.6,3.9c0.5-1.3,1-2.5,1.5-3.8c0.6-1.5,1.2-2.9,1.7-4.4c0.3-0.8,0.7-1.7,1-2.5
		C30.4,31.6,31.6,31.6,32.9,31.6z"/>
	<path class="st9" d="M32.5,32.4c1.2-0.5,2.4-0.9,3.7-1.4c-1.3-0.5-2.5-1.1-3.8-1.6c-1.5-0.6-3-1.2-4.5-1.9c-0.8-0.3-1.5-0.6-2.3-1
		c0,0,0-1.8,0-3.5c0.2,0.1,0.4,0.2,0.6,0.3h0c1.4,0.6,2.8,1.2,4.2,1.8h0c4.4,1.9,8.7,3.8,13.1,5.7c-4.3,1.9-8.6,3.9-12.9,5.8
		c0.1-0.2,0.2-0.5,0.3-0.7C31.5,34.7,32,33.5,32.5,32.4z"/>
</g>
</svg>
