<?xml version="1.0" encoding="utf-8"?>
<!-- Generator: Adobe Illustrator 24.3.0, SVG Export Plug-In . SVG Version: 6.00 Build 0)  -->
<svg version="1.1" id="Layer_1" xmlns="http://www.w3.org/2000/svg" xmlns:xlink="http://www.w3.org/1999/xlink" x="0px" y="0px"
	 viewBox="0 0 164 68" style="enable-background:new 0 0 164 68;" xml:space="preserve">
<style type="text/css">
	.st0{fill:none;}
	.st1{fill:#1E1F1C;}
	.st2{fill:#020203;}
	.st3{fill:#080808;}
	.st4{fill:none;stroke:#020100;stroke-width:0.5;stroke-miterlimit:10;}
	.st5{fill:#1D1D1B;}
	.st6{fill:#020101;}
	.st7{fill:#FFFFFF;stroke:#000000;stroke-width:0.25;stroke-miterlimit:10;}
	.st8{fill:none;stroke:#000000;stroke-width:0.5;stroke-miterlimit:10;}
</style>
<g>
	<g>
		<path d="M83,42.8c1.9-2.6-0.2-4.5-0.8-6.6c-0.9-3.2-2.8-4.1-5.9-3.8c-2.5,0.3-5,0.1-7.6,0c-1.1,0-1.7,0.3-2.1,1.3
			c-0.4,1.2-1,2.2-1.5,3.4c-0.8,1.8-2.1,3.5-0.3,5.6c-3.3,0-6.2,0-8.9,0c3.5-5.7,5.8-12,8.8-18c1.6-3.2,3-6.5,4.5-9.7
			c0.9-1.9,1.7-3.8-0.5-5.6c0.1-0.1,0.2-0.2,0.3-0.3c1.8,0,3.7,0.2,5.5-0.1c3.6-0.6,5.4,0.8,6.9,4.2c3.4,8.1,7.2,16,11,23.9
			c0.9,2,2.3,3.7,3.5,5.6C91.7,42.8,87.5,42.8,83,42.8z M69.2,28.1c3.1,0,6.1,0,9.1,0c-1.5-3.3-3-6.5-4.6-9.9
			C72.2,21.6,70.8,24.8,69.2,28.1z"/>
		<path d="M125,17.5c-1.6-2.4-3.7-4.1-6.5-4.8c-6.1-1.5-11.9,1.9-13.4,8c-1.2,4.6-0.9,9,1.4,13.2c3.7,6.5,12.4,7.4,17.5,1.9
			c0.4-0.4,0.7-0.8,1.3-1.5c0,2.3,0,4.2,0,6.2c0,0.2-0.5,0.5-0.7,0.6c-7.2,2.8-14.5,3.6-21.5-0.3c-6-3.3-8.7-8.7-8.5-15.4
			c0.3-7.1,3.7-12.5,10.3-15.3c6.4-2.7,12.9-2.3,19.4-0.2c0.9,0.3,1.2,0.8,1.1,1.7c-0.1,1.9,0,3.9,0,5.8
			C125.3,17.4,125.2,17.4,125,17.5z"/>
		<path d="M159.9,17.7c-0.1-0.2-0.1-0.5-0.3-0.6c-2.8-4-6.8-5.3-11.4-4.4c-4.6,0.9-7.2,4.1-8.3,8.5c-1.1,4.6-0.8,9.1,1.8,13.3
			c3.7,6.1,12.3,6.8,17.2,1.5c0.4-0.4,0.7-0.8,1.4-1.1c0,1.9,0,3.7,0,5.6c0,0.2-0.4,0.6-0.6,0.7c-6.7,3-16.9,4-23.9-1.7
			c-5.7-4.6-7.3-10.7-5.8-17.6c1.5-6.6,5.8-10.9,12.3-12.6c5.6-1.5,11.3-1.3,16.9,0.7c0.9,0.3,1.3,0.8,1.2,1.8c-0.1,1.9,0,3.9,0,5.8
			C160.2,17.5,160.1,17.6,159.9,17.7z"/>
		<path d="M3,42.8c0.9-1.4,1.6-2.7,2.3-3.9c4.1-6.8,8.3-13.6,12.4-20.4c0.6-1.1,1.4-1.5,2.6-1.5c4,0.1,4,0,6.1,3.4
			c0.5,0.8,0.9,1.6,1.6,2.8c-1.4,0-2.5,0-3.6,0c-1-0.1-1.5,0.3-2,1.1c-2.3,3.9-4.6,7.7-7,11.5c-0.2,0.3-0.3,0.6-0.6,1.1
			c2.2,0,4.3,0,6.3,0c4.7,0,9.3,0,14,0c0.9,0,1.5,0.3,2,1.1c0.8,1.5,1.8,3,2.8,4.7C27.4,42.8,15.4,42.8,3,42.8z"/>
		<path d="M22.5,32.4c0.9-1.4,1.7-2.9,2.6-4.2c0.2-0.3,0.9-0.5,1.4-0.5c1.9-0.1,3.8,0,5.7,0c0-0.1,0.1-0.2,0.1-0.3
			c-2.3-3.7-4.5-7.5-6.9-11.2c-0.2-0.3-0.8-0.6-1.3-0.6c-1.4-0.1-2.7,0-4.6,0c1.1-1.8,2-3.2,2.7-4.7c0.7-1.3,1.6-1.6,3-1.7
			c3-0.4,4.5,0.8,6,3.4c5.6,9.6,11.5,19.1,17.3,28.6c0.3,0.5,0.5,1,0.9,1.7c-2.7,0-5,0-7.4,0c-0.4,0-0.8-0.6-1.1-1
			c-1.5-2.5-3.1-4.9-4.5-7.5c-0.7-1.2-1.4-1.7-2.8-1.6c-3.1,0.1-6.3,0-9.4,0c-0.6,0-1.1,0-1.7,0C22.6,32.7,22.6,32.6,22.5,32.4z"/>
	</g>
	<g>
		<path d="M8.7,56.6c0,0.1,0.1,0.2,0.1,0.2c0,0.1,0,0.1,0,0.1S8.6,57,8.5,57c-0.1,0-0.2,0-0.3,0c-0.1,0-0.2,0-0.3,0
			c-0.1,0-0.1,0-0.2,0c0,0-0.1,0-0.1-0.1c0,0,0-0.1-0.1-0.1l-0.7-1.9H3.3l-0.7,1.9c0,0,0,0.1-0.1,0.1c0,0-0.1,0-0.1,0.1
			c0,0-0.1,0-0.2,0c-0.1,0-0.2,0-0.3,0c-0.1,0-0.2,0-0.3,0c-0.1,0-0.1,0-0.2-0.1s0-0.1,0-0.1c0-0.1,0-0.1,0.1-0.2l2.8-7.2
			c0,0,0-0.1,0.1-0.1s0.1,0,0.1-0.1c0.1,0,0.1,0,0.2,0s0.2,0,0.3,0c0.1,0,0.3,0,0.3,0s0.2,0,0.2,0c0.1,0,0.1,0,0.1,0.1
			s0.1,0.1,0.1,0.1L8.7,56.6z M5,50.2L5,50.2l-1.5,3.9h2.9L5,50.2z"/>
		<path d="M15.7,56.8C15.7,56.8,15.7,56.8,15.7,56.8c0,0.1-0.1,0.1-0.1,0.1c0,0-0.1,0-0.2,0c-0.1,0-0.2,0-0.3,0c-0.1,0-0.2,0-0.3,0
			c-0.1,0-0.1,0-0.2,0c0,0-0.1,0-0.1-0.1c0,0,0-0.1-0.1-0.1l-0.8-1.8c-0.1-0.2-0.2-0.4-0.3-0.6c-0.1-0.2-0.2-0.3-0.4-0.5
			c-0.1-0.1-0.3-0.2-0.5-0.3s-0.4-0.1-0.7-0.1h-0.8v3.3c0,0,0,0.1,0,0.1s-0.1,0-0.1,0.1c0,0-0.1,0-0.2,0c-0.1,0-0.2,0-0.3,0
			s-0.2,0-0.3,0c-0.1,0-0.1,0-0.2,0c0,0-0.1,0-0.1-0.1s0-0.1,0-0.1v-7.2c0-0.2,0-0.3,0.1-0.3c0.1-0.1,0.2-0.1,0.3-0.1h1.8
			c0.2,0,0.4,0,0.5,0c0.1,0,0.3,0,0.4,0c0.3,0.1,0.6,0.1,0.9,0.2c0.3,0.1,0.5,0.3,0.6,0.4c0.2,0.2,0.3,0.4,0.4,0.6
			c0.1,0.2,0.1,0.5,0.1,0.7c0,0.3,0,0.5-0.1,0.7c-0.1,0.2-0.2,0.4-0.3,0.5c-0.1,0.2-0.3,0.3-0.5,0.4c-0.2,0.1-0.4,0.2-0.7,0.3
			c0.1,0.1,0.3,0.1,0.4,0.2c0.1,0.1,0.2,0.2,0.3,0.3c0.1,0.1,0.2,0.3,0.3,0.4c0.1,0.2,0.2,0.3,0.3,0.5l0.8,1.7
			c0.1,0.1,0.1,0.2,0.1,0.3C15.7,56.7,15.7,56.8,15.7,56.8z M14,51.3c0-0.3-0.1-0.6-0.2-0.8c-0.1-0.2-0.4-0.4-0.7-0.5
			c-0.1,0-0.2,0-0.4-0.1c-0.1,0-0.3,0-0.5,0h-0.9v2.6h1.1c0.3,0,0.6,0,0.8-0.1c0.2-0.1,0.4-0.2,0.5-0.3c0.1-0.1,0.2-0.3,0.3-0.4
			C14,51.7,14,51.5,14,51.3z"/>
		<path d="M23.7,56.6c0,0.1,0.1,0.2,0.1,0.2c0,0.1,0,0.1,0,0.1s-0.1,0-0.2,0.1c-0.1,0-0.2,0-0.3,0c-0.1,0-0.2,0-0.3,0
			c-0.1,0-0.1,0-0.2,0c0,0-0.1,0-0.1-0.1c0,0,0-0.1-0.1-0.1l-0.7-1.9h-3.5l-0.7,1.9c0,0,0,0.1-0.1,0.1c0,0-0.1,0-0.1,0.1
			c0,0-0.1,0-0.2,0c-0.1,0-0.2,0-0.3,0c-0.1,0-0.2,0-0.3,0c-0.1,0-0.1,0-0.2-0.1s0-0.1,0-0.1c0-0.1,0-0.1,0.1-0.2l2.8-7.2
			c0,0,0-0.1,0.1-0.1s0.1,0,0.1-0.1c0.1,0,0.1,0,0.2,0s0.2,0,0.3,0c0.1,0,0.3,0,0.3,0s0.2,0,0.2,0c0.1,0,0.1,0,0.1,0.1
			s0.1,0.1,0.1,0.1L23.7,56.6z M20.1,50.2L20.1,50.2l-1.5,3.9h2.9L20.1,50.2z"/>
		<path d="M30.7,54.7c0,0.2,0,0.5-0.1,0.7c-0.1,0.2-0.2,0.4-0.3,0.6c-0.1,0.2-0.3,0.3-0.4,0.4c-0.2,0.1-0.4,0.2-0.6,0.3
			c-0.2,0.1-0.4,0.1-0.7,0.2c-0.2,0-0.5,0.1-0.8,0.1h-2.2c-0.1,0-0.2,0-0.3-0.1c-0.1-0.1-0.1-0.2-0.1-0.3v-7c0-0.2,0-0.3,0.1-0.3
			c0.1-0.1,0.2-0.1,0.3-0.1h1.9c0.5,0,0.9,0,1.2,0.1c0.3,0.1,0.6,0.2,0.8,0.4c0.2,0.2,0.4,0.4,0.5,0.6s0.2,0.5,0.2,0.8
			c0,0.2,0,0.4-0.1,0.5S30,52,29.9,52.1c-0.1,0.1-0.2,0.3-0.4,0.4c-0.1,0.1-0.3,0.2-0.5,0.3c0.2,0,0.4,0.1,0.6,0.2s0.4,0.2,0.5,0.4
			s0.3,0.4,0.4,0.6C30.7,54.2,30.7,54.4,30.7,54.7z M29,51.2c0-0.2,0-0.4-0.1-0.5c-0.1-0.2-0.1-0.3-0.3-0.4s-0.3-0.2-0.5-0.2
			C28,50,27.7,50,27.4,50h-1.2v2.5h1.3c0.3,0,0.5,0,0.7-0.1s0.3-0.2,0.4-0.3c0.1-0.1,0.2-0.3,0.3-0.4S29,51.4,29,51.2z M29.5,54.8
			c0-0.2,0-0.4-0.1-0.6c-0.1-0.2-0.2-0.3-0.4-0.4c-0.2-0.1-0.3-0.2-0.6-0.3c-0.2-0.1-0.5-0.1-0.9-0.1h-1.3v2.7h1.6
			c0.3,0,0.5,0,0.7-0.1c0.2-0.1,0.4-0.1,0.5-0.2c0.1-0.1,0.3-0.2,0.3-0.4C29.5,55.2,29.5,55,29.5,54.8z"/>
		<path d="M33.6,56.8C33.6,56.8,33.5,56.8,33.6,56.8c0,0.1-0.1,0.1-0.1,0.1c0,0-0.1,0-0.2,0c-0.1,0-0.2,0-0.3,0c-0.1,0-0.2,0-0.3,0
			c-0.1,0-0.1,0-0.2,0c0,0-0.1,0-0.1-0.1s0-0.1,0-0.1v-7.5c0,0,0-0.1,0-0.1c0,0,0.1,0,0.1-0.1c0,0,0.1,0,0.2,0c0.1,0,0.2,0,0.3,0
			c0.1,0,0.2,0,0.3,0c0.1,0,0.1,0,0.2,0c0,0,0.1,0,0.1,0.1s0,0.1,0,0.1V56.8z"/>
		<path d="M42.2,56.6c0,0.1,0.1,0.2,0.1,0.2c0,0.1,0,0.1,0,0.1S42.1,57,42,57c-0.1,0-0.2,0-0.3,0c-0.1,0-0.2,0-0.3,0
			c-0.1,0-0.1,0-0.2,0c0,0-0.1,0-0.1-0.1c0,0,0-0.1-0.1-0.1l-0.7-1.9h-3.5l-0.7,1.9c0,0,0,0.1-0.1,0.1c0,0-0.1,0-0.1,0.1
			c0,0-0.1,0-0.2,0c-0.1,0-0.2,0-0.3,0c-0.1,0-0.2,0-0.3,0c-0.1,0-0.1,0-0.2-0.1s0-0.1,0-0.1c0-0.1,0-0.1,0.1-0.2l2.8-7.2
			c0,0,0-0.1,0.1-0.1s0.1,0,0.1-0.1c0.1,0,0.1,0,0.2,0s0.2,0,0.3,0c0.1,0,0.3,0,0.3,0s0.2,0,0.2,0c0.1,0,0.1,0,0.1,0.1
			s0.1,0.1,0.1,0.1L42.2,56.6z M38.5,50.2L38.5,50.2L37,54.1H40L38.5,50.2z"/>
		<path d="M50,56.5c0,0.1,0,0.1,0,0.2c0,0.1-0.1,0.1-0.1,0.1c0,0-0.1,0.1-0.2,0.1c-0.1,0-0.1,0-0.2,0h-0.4c-0.1,0-0.2,0-0.3,0
			c-0.1,0-0.2-0.1-0.2-0.1c-0.1-0.1-0.2-0.1-0.2-0.2c-0.1-0.1-0.2-0.2-0.3-0.4l-2.6-4.4c-0.1-0.2-0.3-0.5-0.4-0.7
			c-0.1-0.3-0.3-0.5-0.4-0.7h0c0,0.3,0,0.6,0,0.9s0,0.6,0,0.9v4.7c0,0,0,0.1,0,0.1c0,0,0,0-0.1,0.1c0,0-0.1,0-0.2,0
			c-0.1,0-0.2,0-0.3,0c-0.1,0-0.2,0-0.3,0c-0.1,0-0.1,0-0.2,0c0,0-0.1,0-0.1-0.1s0-0.1,0-0.1v-7.2c0-0.2,0-0.3,0.1-0.3
			c0.1-0.1,0.2-0.1,0.3-0.1h0.6c0.1,0,0.2,0,0.3,0c0.1,0,0.2,0.1,0.2,0.1c0.1,0,0.1,0.1,0.2,0.2c0.1,0.1,0.1,0.2,0.2,0.3l2,3.4
			c0.1,0.2,0.2,0.4,0.4,0.6c0.1,0.2,0.2,0.4,0.3,0.6c0.1,0.2,0.2,0.4,0.3,0.6c0.1,0.2,0.2,0.4,0.3,0.6h0c0-0.3,0-0.6,0-1
			c0-0.3,0-0.7,0-1v-4.2c0,0,0-0.1,0-0.1c0,0,0,0,0.1-0.1c0,0,0.1,0,0.2,0s0.2,0,0.3,0c0.1,0,0.2,0,0.3,0c0.1,0,0.1,0,0.2,0
			c0,0,0.1,0,0.1,0.1c0,0,0,0,0,0.1V56.5z"/>
		<path d="M60.9,55.8c0,0.1,0,0.1,0,0.2c0,0,0,0.1,0,0.1s0,0.1,0,0.1c0,0,0,0.1-0.1,0.1c0,0-0.1,0.1-0.3,0.2s-0.3,0.2-0.5,0.2
			c-0.2,0.1-0.4,0.1-0.7,0.2C59,57,58.7,57,58.4,57c-0.5,0-1-0.1-1.5-0.3c-0.4-0.2-0.8-0.4-1.1-0.7c-0.3-0.3-0.6-0.7-0.7-1.2
			c-0.2-0.5-0.3-1-0.3-1.7c0-0.6,0.1-1.2,0.3-1.7c0.2-0.5,0.4-0.9,0.8-1.3s0.7-0.6,1.2-0.8c0.5-0.2,1-0.3,1.5-0.3
			c0.2,0,0.5,0,0.7,0.1s0.4,0.1,0.6,0.2c0.2,0.1,0.4,0.1,0.5,0.2c0.2,0.1,0.3,0.2,0.3,0.2c0.1,0.1,0.1,0.1,0.1,0.1c0,0,0,0.1,0,0.1
			s0,0.1,0,0.1c0,0.1,0,0.1,0,0.2c0,0.1,0,0.1,0,0.2c0,0.1,0,0.1,0,0.1s0,0.1-0.1,0.1c0,0-0.1,0-0.1,0c-0.1,0-0.1,0-0.3-0.1
			c-0.1-0.1-0.3-0.2-0.4-0.3c-0.2-0.1-0.4-0.2-0.6-0.3C59.1,50,58.8,50,58.5,50c-0.4,0-0.7,0.1-1,0.2s-0.6,0.3-0.8,0.6
			c-0.2,0.3-0.4,0.6-0.5,1C56,52.1,56,52.6,56,53.1c0,0.5,0.1,0.9,0.2,1.3c0.1,0.4,0.3,0.7,0.5,1c0.2,0.3,0.5,0.4,0.8,0.6
			s0.7,0.2,1.1,0.2c0.3,0,0.6,0,0.9-0.1c0.3-0.1,0.5-0.2,0.6-0.3s0.3-0.2,0.4-0.3c0.1-0.1,0.2-0.1,0.3-0.1c0,0,0.1,0,0.1,0
			c0,0,0,0,0.1,0.1c0,0,0,0.1,0,0.1S60.9,55.8,60.9,55.8z"/>
		<path d="M69.5,53c0,0.6-0.1,1.2-0.2,1.7c-0.2,0.5-0.4,0.9-0.7,1.3c-0.3,0.4-0.7,0.6-1.2,0.8s-1,0.3-1.7,0.3
			c-0.6,0-1.2-0.1-1.7-0.3s-0.8-0.4-1.2-0.8c-0.3-0.3-0.5-0.7-0.7-1.2s-0.2-1.1-0.2-1.7c0-0.6,0.1-1.2,0.2-1.7
			c0.2-0.5,0.4-0.9,0.7-1.3s0.7-0.6,1.2-0.8c0.5-0.2,1-0.3,1.7-0.3c0.6,0,1.2,0.1,1.6,0.3c0.5,0.2,0.8,0.4,1.2,0.8
			c0.3,0.3,0.5,0.7,0.7,1.2S69.5,52.3,69.5,53z M68.3,53c0-0.4,0-0.9-0.1-1.2c-0.1-0.4-0.2-0.7-0.4-1s-0.5-0.5-0.8-0.7
			c-0.3-0.2-0.7-0.2-1.2-0.2s-0.9,0.1-1.2,0.3s-0.6,0.4-0.8,0.7s-0.4,0.6-0.4,1c-0.1,0.4-0.1,0.8-0.1,1.2c0,0.5,0,0.9,0.1,1.3
			c0.1,0.4,0.2,0.7,0.4,1s0.5,0.5,0.8,0.7c0.3,0.2,0.7,0.2,1.2,0.2c0.5,0,0.9-0.1,1.2-0.3c0.3-0.2,0.6-0.4,0.8-0.7s0.4-0.6,0.4-1
			C68.3,53.9,68.3,53.4,68.3,53z"/>
		<path d="M77.7,56.5c0,0.1,0,0.1,0,0.2c0,0.1-0.1,0.1-0.1,0.1c0,0-0.1,0.1-0.2,0.1c-0.1,0-0.1,0-0.2,0h-0.4c-0.1,0-0.2,0-0.3,0
			c-0.1,0-0.2-0.1-0.2-0.1c-0.1-0.1-0.2-0.1-0.2-0.2c-0.1-0.1-0.2-0.2-0.3-0.4l-2.6-4.4c-0.1-0.2-0.3-0.5-0.4-0.7
			c-0.1-0.3-0.3-0.5-0.4-0.7h0c0,0.3,0,0.6,0,0.9s0,0.6,0,0.9v4.7c0,0,0,0.1,0,0.1c0,0,0,0-0.1,0.1c0,0-0.1,0-0.2,0
			c-0.1,0-0.2,0-0.3,0c-0.1,0-0.2,0-0.3,0c-0.1,0-0.1,0-0.2,0c0,0-0.1,0-0.1-0.1s0-0.1,0-0.1v-7.2c0-0.2,0-0.3,0.1-0.3
			c0.1-0.1,0.2-0.1,0.3-0.1h0.6c0.1,0,0.2,0,0.3,0c0.1,0,0.2,0.1,0.2,0.1c0.1,0,0.1,0.1,0.2,0.2c0.1,0.1,0.1,0.2,0.2,0.3l2,3.4
			c0.1,0.2,0.2,0.4,0.4,0.6c0.1,0.2,0.2,0.4,0.3,0.6c0.1,0.2,0.2,0.4,0.3,0.6c0.1,0.2,0.2,0.4,0.3,0.6h0c0-0.3,0-0.6,0-1
			c0-0.3,0-0.7,0-1v-4.2c0,0,0-0.1,0-0.1c0,0,0,0,0.1-0.1c0,0,0.1,0,0.2,0s0.2,0,0.3,0c0.1,0,0.2,0,0.3,0c0.1,0,0.1,0,0.2,0
			c0,0,0.1,0,0.1,0.1c0,0,0,0,0,0.1V56.5z"/>
		<path d="M84.5,54.8c0,0.4-0.1,0.7-0.2,1c-0.1,0.3-0.3,0.5-0.6,0.7c-0.3,0.2-0.6,0.3-0.9,0.4s-0.7,0.2-1.1,0.2
			c-0.3,0-0.5,0-0.8-0.1c-0.2,0-0.5-0.1-0.6-0.2c-0.2-0.1-0.3-0.1-0.5-0.2s-0.2-0.1-0.3-0.2s-0.1-0.1-0.1-0.2s0-0.2,0-0.3
			c0-0.1,0-0.2,0-0.2c0-0.1,0-0.1,0-0.1s0-0.1,0.1-0.1s0.1,0,0.1,0c0.1,0,0.1,0,0.3,0.1s0.3,0.1,0.4,0.2c0.2,0.1,0.4,0.2,0.6,0.2
			c0.2,0.1,0.5,0.1,0.9,0.1c0.2,0,0.5,0,0.7-0.1c0.2-0.1,0.4-0.1,0.5-0.3s0.3-0.2,0.3-0.4c0.1-0.2,0.1-0.3,0.1-0.5
			c0-0.2-0.1-0.4-0.2-0.6c-0.1-0.2-0.3-0.3-0.4-0.4c-0.2-0.1-0.4-0.2-0.6-0.3c-0.2-0.1-0.5-0.2-0.7-0.3s-0.5-0.2-0.7-0.3
			c-0.2-0.1-0.4-0.3-0.6-0.4c-0.2-0.2-0.3-0.4-0.4-0.6c-0.1-0.2-0.2-0.5-0.2-0.8c0-0.3,0.1-0.6,0.2-0.9c0.1-0.3,0.3-0.5,0.5-0.6
			c0.2-0.2,0.5-0.3,0.8-0.4c0.3-0.1,0.7-0.1,1-0.1c0.2,0,0.4,0,0.6,0c0.2,0,0.4,0.1,0.5,0.1c0.2,0.1,0.3,0.1,0.4,0.2
			s0.2,0.1,0.3,0.2c0,0,0.1,0.1,0.1,0.1c0,0,0,0.1,0,0.1c0,0,0,0.1,0,0.1c0,0,0,0.1,0,0.2c0,0.1,0,0.1,0,0.2c0,0.1,0,0.1,0,0.1
			c0,0,0,0.1-0.1,0.1c0,0-0.1,0-0.1,0c0,0-0.1,0-0.2-0.1c-0.1-0.1-0.2-0.1-0.4-0.2S82.9,50,82.7,50c-0.2-0.1-0.4-0.1-0.7-0.1
			c-0.2,0-0.4,0-0.6,0.1c-0.2,0.1-0.3,0.1-0.4,0.2c-0.1,0.1-0.2,0.2-0.3,0.3s-0.1,0.3-0.1,0.4c0,0.2,0.1,0.4,0.2,0.6
			c0.1,0.2,0.3,0.3,0.4,0.4c0.2,0.1,0.4,0.2,0.6,0.3c0.2,0.1,0.5,0.2,0.7,0.3s0.5,0.2,0.7,0.3c0.2,0.1,0.4,0.3,0.6,0.4
			c0.2,0.2,0.3,0.4,0.4,0.6C84.4,54.2,84.5,54.4,84.5,54.8z"/>
		<path d="M91.4,49.6c0,0.1,0,0.1,0,0.2c0,0.1,0,0.1,0,0.1s0,0.1-0.1,0.1c0,0-0.1,0-0.1,0h-2.4v6.8c0,0,0,0.1,0,0.1s0,0-0.1,0.1
			c0,0-0.1,0-0.2,0c-0.1,0-0.2,0-0.3,0c-0.1,0-0.2,0-0.3,0c-0.1,0-0.1,0-0.2,0c0,0-0.1,0-0.1-0.1s0-0.1,0-0.1V50h-2.4
			c0,0-0.1,0-0.1,0c0,0-0.1,0-0.1-0.1s0-0.1,0-0.1c0-0.1,0-0.1,0-0.2s0-0.1,0-0.2s0-0.1,0-0.1s0-0.1,0.1-0.1c0,0,0.1,0,0.1,0h5.9
			c0,0,0.1,0,0.1,0c0,0,0.1,0,0.1,0.1s0,0.1,0,0.1S91.4,49.5,91.4,49.6z"/>
		<path d="M98.3,56.8C98.3,56.8,98.3,56.8,98.3,56.8c0,0.1-0.1,0.1-0.1,0.1c0,0-0.1,0-0.2,0c-0.1,0-0.2,0-0.3,0c-0.1,0-0.2,0-0.3,0
			c-0.1,0-0.1,0-0.2,0c0,0-0.1,0-0.1-0.1c0,0,0-0.1-0.1-0.1l-0.8-1.8c-0.1-0.2-0.2-0.4-0.3-0.6c-0.1-0.2-0.2-0.3-0.4-0.5
			c-0.1-0.1-0.3-0.2-0.5-0.3s-0.4-0.1-0.7-0.1h-0.8v3.3c0,0,0,0.1,0,0.1s-0.1,0-0.1,0.1c0,0-0.1,0-0.2,0c-0.1,0-0.2,0-0.3,0
			s-0.2,0-0.3,0c-0.1,0-0.1,0-0.2,0c0,0-0.1,0-0.1-0.1s0-0.1,0-0.1v-7.2c0-0.2,0-0.3,0.1-0.3c0.1-0.1,0.2-0.1,0.3-0.1h1.8
			c0.2,0,0.4,0,0.5,0c0.1,0,0.3,0,0.4,0c0.3,0.1,0.6,0.1,0.9,0.2c0.3,0.1,0.5,0.3,0.6,0.4c0.2,0.2,0.3,0.4,0.4,0.6
			c0.1,0.2,0.1,0.5,0.1,0.7c0,0.3,0,0.5-0.1,0.7c-0.1,0.2-0.2,0.4-0.3,0.5c-0.1,0.2-0.3,0.3-0.5,0.4c-0.2,0.1-0.4,0.2-0.7,0.3
			c0.1,0.1,0.3,0.1,0.4,0.2c0.1,0.1,0.2,0.2,0.3,0.3c0.1,0.1,0.2,0.3,0.3,0.4c0.1,0.2,0.2,0.3,0.3,0.5l0.8,1.7
			c0.1,0.1,0.1,0.2,0.1,0.3C98.3,56.7,98.3,56.8,98.3,56.8z M96.6,51.3c0-0.3-0.1-0.6-0.2-0.8c-0.1-0.2-0.4-0.4-0.7-0.5
			c-0.1,0-0.2,0-0.4-0.1c-0.1,0-0.3,0-0.5,0h-0.9v2.6h1.1c0.3,0,0.6,0,0.8-0.1c0.2-0.1,0.4-0.2,0.5-0.3c0.1-0.1,0.2-0.3,0.3-0.4
			C96.6,51.7,96.6,51.5,96.6,51.3z"/>
		<path d="M106.3,54.1c0,0.5-0.1,0.9-0.2,1.3c-0.2,0.4-0.4,0.7-0.6,0.9s-0.6,0.5-1,0.6c-0.4,0.1-0.9,0.2-1.4,0.2
			c-0.5,0-0.9-0.1-1.3-0.2c-0.4-0.1-0.7-0.3-1-0.6c-0.3-0.2-0.5-0.5-0.6-0.9c-0.1-0.4-0.2-0.8-0.2-1.3v-4.8c0,0,0-0.1,0-0.1
			s0,0,0.1-0.1c0,0,0.1,0,0.2,0c0.1,0,0.2,0,0.3,0c0.1,0,0.2,0,0.3,0c0.1,0,0.1,0,0.2,0c0,0,0.1,0,0.1,0.1s0,0.1,0,0.1V54
			c0,0.4,0,0.7,0.1,0.9c0.1,0.3,0.2,0.5,0.4,0.7c0.2,0.2,0.4,0.3,0.7,0.4c0.3,0.1,0.5,0.1,0.9,0.1c0.3,0,0.6,0,0.9-0.1
			c0.3-0.1,0.5-0.2,0.6-0.4c0.2-0.2,0.3-0.4,0.4-0.7c0.1-0.3,0.1-0.6,0.1-0.9v-4.8c0,0,0-0.1,0-0.1s0,0,0.1-0.1c0,0,0.1,0,0.2,0
			c0.1,0,0.2,0,0.3,0c0.1,0,0.2,0,0.3,0c0.1,0,0.1,0,0.2,0c0,0,0.1,0,0.1,0.1s0,0.1,0,0.1V54.1z"/>
		<path d="M114.2,55.8c0,0.1,0,0.1,0,0.2c0,0,0,0.1,0,0.1s0,0.1,0,0.1c0,0,0,0.1-0.1,0.1c0,0-0.1,0.1-0.3,0.2s-0.3,0.2-0.5,0.2
			c-0.2,0.1-0.4,0.1-0.7,0.2c-0.3,0.1-0.6,0.1-0.9,0.1c-0.5,0-1-0.1-1.5-0.3c-0.4-0.2-0.8-0.4-1.1-0.7c-0.3-0.3-0.6-0.7-0.7-1.2
			c-0.2-0.5-0.3-1-0.3-1.7c0-0.6,0.1-1.2,0.3-1.7c0.2-0.5,0.4-0.9,0.8-1.3s0.7-0.6,1.2-0.8c0.5-0.2,1-0.3,1.5-0.3
			c0.2,0,0.5,0,0.7,0.1s0.4,0.1,0.6,0.2c0.2,0.1,0.4,0.1,0.5,0.2c0.2,0.1,0.3,0.2,0.3,0.2c0.1,0.1,0.1,0.1,0.1,0.1c0,0,0,0.1,0,0.1
			s0,0.1,0,0.1c0,0.1,0,0.1,0,0.2c0,0.1,0,0.1,0,0.2c0,0.1,0,0.1,0,0.1s0,0.1-0.1,0.1c0,0-0.1,0-0.1,0c-0.1,0-0.1,0-0.3-0.1
			c-0.1-0.1-0.3-0.2-0.4-0.3c-0.2-0.1-0.4-0.2-0.6-0.3c-0.2-0.1-0.5-0.1-0.9-0.1c-0.4,0-0.7,0.1-1,0.2s-0.6,0.3-0.8,0.6
			c-0.2,0.3-0.4,0.6-0.5,1c-0.1,0.4-0.2,0.8-0.2,1.3c0,0.5,0.1,0.9,0.2,1.3c0.1,0.4,0.3,0.7,0.5,1c0.2,0.3,0.5,0.4,0.8,0.6
			s0.7,0.2,1.1,0.2c0.3,0,0.6,0,0.9-0.1c0.3-0.1,0.5-0.2,0.6-0.3s0.3-0.2,0.4-0.3c0.1-0.1,0.2-0.1,0.3-0.1c0,0,0.1,0,0.1,0
			c0,0,0,0,0.1,0.1c0,0,0,0.1,0,0.1S114.2,55.8,114.2,55.8z"/>
		<path d="M121,49.6c0,0.1,0,0.1,0,0.2c0,0.1,0,0.1,0,0.1s0,0.1-0.1,0.1c0,0-0.1,0-0.1,0h-2.4v6.8c0,0,0,0.1,0,0.1s0,0-0.1,0.1
			c0,0-0.1,0-0.2,0c-0.1,0-0.2,0-0.3,0c-0.1,0-0.2,0-0.3,0c-0.1,0-0.1,0-0.2,0c0,0-0.1,0-0.1-0.1s0-0.1,0-0.1V50h-2.4
			c0,0-0.1,0-0.1,0c0,0-0.1,0-0.1-0.1s0-0.1,0-0.1c0-0.1,0-0.1,0-0.2s0-0.1,0-0.2s0-0.1,0-0.1s0-0.1,0.1-0.1c0,0,0.1,0,0.1,0h5.9
			c0,0,0.1,0,0.1,0c0,0,0.1,0,0.1,0.1s0,0.1,0,0.1S121,49.5,121,49.6z"/>
		<path d="M123.3,56.8C123.3,56.8,123.3,56.8,123.3,56.8c0,0.1-0.1,0.1-0.1,0.1c0,0-0.1,0-0.2,0c-0.1,0-0.2,0-0.3,0
			c-0.1,0-0.2,0-0.3,0c-0.1,0-0.1,0-0.2,0c0,0-0.1,0-0.1-0.1s0-0.1,0-0.1v-7.5c0,0,0-0.1,0-0.1c0,0,0.1,0,0.1-0.1c0,0,0.1,0,0.2,0
			c0.1,0,0.2,0,0.3,0c0.1,0,0.2,0,0.3,0c0.1,0,0.1,0,0.2,0c0,0,0.1,0,0.1,0.1s0,0.1,0,0.1V56.8z"/>
		<path d="M132.7,53c0,0.6-0.1,1.2-0.2,1.7c-0.2,0.5-0.4,0.9-0.7,1.3c-0.3,0.4-0.7,0.6-1.2,0.8s-1,0.3-1.7,0.3
			c-0.6,0-1.2-0.1-1.7-0.3s-0.8-0.4-1.2-0.8c-0.3-0.3-0.5-0.7-0.7-1.2s-0.2-1.1-0.2-1.7c0-0.6,0.1-1.2,0.2-1.7
			c0.2-0.5,0.4-0.9,0.7-1.3s0.7-0.6,1.2-0.8c0.5-0.2,1-0.3,1.7-0.3c0.6,0,1.2,0.1,1.6,0.3c0.5,0.2,0.8,0.4,1.2,0.8
			c0.3,0.3,0.5,0.7,0.7,1.2S132.7,52.3,132.7,53z M131.5,53c0-0.4,0-0.9-0.1-1.2c-0.1-0.4-0.2-0.7-0.4-1s-0.5-0.5-0.8-0.7
			c-0.3-0.2-0.7-0.2-1.2-0.2s-0.9,0.1-1.2,0.3s-0.6,0.4-0.8,0.7s-0.4,0.6-0.4,1c-0.1,0.4-0.1,0.8-0.1,1.2c0,0.5,0,0.9,0.1,1.3
			c0.1,0.4,0.2,0.7,0.4,1s0.5,0.5,0.8,0.7c0.3,0.2,0.7,0.2,1.2,0.2c0.5,0,0.9-0.1,1.2-0.3c0.3-0.2,0.6-0.4,0.8-0.7s0.4-0.6,0.4-1
			C131.5,53.9,131.5,53.4,131.5,53z"/>
		<path d="M140.9,56.5c0,0.1,0,0.1,0,0.2c0,0.1-0.1,0.1-0.1,0.1c0,0-0.1,0.1-0.2,0.1c-0.1,0-0.1,0-0.2,0H140c-0.1,0-0.2,0-0.3,0
			c-0.1,0-0.2-0.1-0.2-0.1c-0.1-0.1-0.2-0.1-0.2-0.2c-0.1-0.1-0.2-0.2-0.3-0.4l-2.6-4.4c-0.1-0.2-0.3-0.5-0.4-0.7
			c-0.1-0.3-0.3-0.5-0.4-0.7h0c0,0.3,0,0.6,0,0.9s0,0.6,0,0.9v4.7c0,0,0,0.1,0,0.1c0,0,0,0-0.1,0.1c0,0-0.1,0-0.2,0
			c-0.1,0-0.2,0-0.3,0c-0.1,0-0.2,0-0.3,0c-0.1,0-0.1,0-0.2,0c0,0-0.1,0-0.1-0.1s0-0.1,0-0.1v-7.2c0-0.2,0-0.3,0.1-0.3
			c0.1-0.1,0.2-0.1,0.3-0.1h0.6c0.1,0,0.2,0,0.3,0c0.1,0,0.2,0.1,0.2,0.1c0.1,0,0.1,0.1,0.2,0.2c0.1,0.1,0.1,0.2,0.2,0.3l2,3.4
			c0.1,0.2,0.2,0.4,0.4,0.6c0.1,0.2,0.2,0.4,0.3,0.6c0.1,0.2,0.2,0.4,0.3,0.6c0.1,0.2,0.2,0.4,0.3,0.6h0c0-0.3,0-0.6,0-1
			c0-0.3,0-0.7,0-1v-4.2c0,0,0-0.1,0-0.1c0,0,0,0,0.1-0.1c0,0,0.1,0,0.2,0s0.2,0,0.3,0c0.1,0,0.2,0,0.3,0c0.1,0,0.1,0,0.2,0
			c0,0,0.1,0,0.1,0.1c0,0,0,0,0,0.1V56.5z"/>
		<path d="M151.8,55.8c0,0.1,0,0.1,0,0.2c0,0,0,0.1,0,0.1s0,0.1,0,0.1c0,0,0,0.1-0.1,0.1c0,0-0.1,0.1-0.3,0.2s-0.3,0.2-0.5,0.2
			c-0.2,0.1-0.4,0.1-0.7,0.2c-0.3,0.1-0.6,0.1-0.9,0.1c-0.5,0-1-0.1-1.5-0.3c-0.4-0.2-0.8-0.4-1.1-0.7c-0.3-0.3-0.6-0.7-0.7-1.2
			c-0.2-0.5-0.3-1-0.3-1.7c0-0.6,0.1-1.2,0.3-1.7c0.2-0.5,0.4-0.9,0.8-1.3s0.7-0.6,1.2-0.8c0.5-0.2,1-0.3,1.5-0.3
			c0.2,0,0.5,0,0.7,0.1s0.4,0.1,0.6,0.2c0.2,0.1,0.4,0.1,0.5,0.2c0.2,0.1,0.3,0.2,0.3,0.2c0.1,0.1,0.1,0.1,0.1,0.1c0,0,0,0.1,0,0.1
			s0,0.1,0,0.1c0,0.1,0,0.1,0,0.2c0,0.1,0,0.1,0,0.2c0,0.1,0,0.1,0,0.1s0,0.1-0.1,0.1c0,0-0.1,0-0.1,0c-0.1,0-0.1,0-0.3-0.1
			c-0.1-0.1-0.3-0.2-0.4-0.3c-0.2-0.1-0.4-0.2-0.6-0.3c-0.2-0.1-0.5-0.1-0.9-0.1c-0.4,0-0.7,0.1-1,0.2s-0.6,0.3-0.8,0.6
			c-0.2,0.3-0.4,0.6-0.5,1c-0.1,0.4-0.2,0.8-0.2,1.3c0,0.5,0.1,0.9,0.2,1.3c0.1,0.4,0.3,0.7,0.5,1c0.2,0.3,0.5,0.4,0.8,0.6
			s0.7,0.2,1.1,0.2c0.3,0,0.6,0,0.9-0.1c0.3-0.1,0.5-0.2,0.6-0.3s0.3-0.2,0.4-0.3c0.1-0.1,0.2-0.1,0.3-0.1c0,0,0.1,0,0.1,0
			c0,0,0,0,0.1,0.1c0,0,0,0.1,0,0.1S151.8,55.8,151.8,55.8z"/>
		<path d="M160.4,53c0,0.6-0.1,1.2-0.2,1.7c-0.2,0.5-0.4,0.9-0.7,1.3c-0.3,0.4-0.7,0.6-1.2,0.8s-1,0.3-1.7,0.3
			c-0.6,0-1.2-0.1-1.7-0.3s-0.8-0.4-1.2-0.8c-0.3-0.3-0.5-0.7-0.7-1.2s-0.2-1.1-0.2-1.7c0-0.6,0.1-1.2,0.2-1.7
			c0.2-0.5,0.4-0.9,0.7-1.3s0.7-0.6,1.2-0.8c0.5-0.2,1-0.3,1.7-0.3c0.6,0,1.2,0.1,1.6,0.3c0.5,0.2,0.8,0.4,1.2,0.8
			c0.3,0.3,0.5,0.7,0.7,1.2S160.4,52.3,160.4,53z M159.2,53c0-0.4,0-0.9-0.1-1.2c-0.1-0.4-0.2-0.7-0.4-1s-0.5-0.5-0.8-0.7
			c-0.3-0.2-0.7-0.2-1.2-0.2s-0.9,0.1-1.2,0.3s-0.6,0.4-0.8,0.7s-0.4,0.6-0.4,1c-0.1,0.4-0.1,0.8-0.1,1.2c0,0.5,0,0.9,0.1,1.3
			c0.1,0.4,0.2,0.7,0.4,1s0.5,0.5,0.8,0.7c0.3,0.2,0.7,0.2,1.2,0.2c0.5,0,0.9-0.1,1.2-0.3c0.3-0.2,0.6-0.4,0.8-0.7s0.4-0.6,0.4-1
			C159.2,53.9,159.2,53.4,159.2,53z"/>
		<path d="M163.5,56.3c0,0.3-0.1,0.5-0.2,0.6c-0.1,0.1-0.3,0.1-0.6,0.1c-0.3,0-0.4,0-0.5-0.1c-0.1-0.1-0.2-0.3-0.2-0.6
			c0-0.3,0.1-0.5,0.2-0.6c0.1-0.1,0.3-0.1,0.6-0.1c0.3,0,0.4,0,0.5,0.1C163.4,55.8,163.5,56,163.5,56.3z"/>
	</g>
</g>
</svg>
