<?xml version="1.0" encoding="utf-8"?>
<!-- Generator: Adobe Illustrator 24.3.0, SVG Export Plug-In . SVG Version: 6.00 Build 0)  -->
<svg version="1.1" id="Layer_1" xmlns="http://www.w3.org/2000/svg" xmlns:xlink="http://www.w3.org/1999/xlink" x="0px" y="0px"
	 viewBox="0 0 164 68" style="enable-background:new 0 0 164 68;" xml:space="preserve">
<style type="text/css">
	.st0{fill:none;}
	.st1{fill:#1E1F1C;}
	.st2{fill:#020203;}
	.st3{fill:#080808;}
	.st4{fill:none;stroke:#020100;stroke-width:0.5;stroke-miterlimit:10;}
	.st5{fill:#1D1D1B;}
	.st6{fill:#020101;}
	.st7{fill:#FFFFFF;stroke:#000000;stroke-width:0.25;stroke-miterlimit:10;}
	.st8{fill:none;stroke:#000000;stroke-width:0.5;stroke-miterlimit:10;}
</style>
<g>
	<g>
		<path d="M63.7,55.9c-17.1,0-33.8,0-50.8,0c0.4-0.6,0.6-1.1,1-1.7c6.9-10.8,13.8-21.6,20.7-32.3c0.9-1.4,1-2.4-0.1-3.7
			c-1-1.1-1.7-2.5-2.7-4c-1.8,2.6-3.4,5-5,7.4C19.6,32.5,12.4,43.1,5.3,53.9c-1.3,2-2.7,2.6-5.1,1.9C10.7,40.1,21.1,24.4,31.7,8.6
			c2,2.9,3.8,5.6,5.9,8.5c1.7-2.6,3.2-4.9,4.6-7.3c0.6-1,1.3-1.4,2.6-1.4c4.7,0.1,9.4,0,14.1,0c0.6,0,1.2,0.1,1.8,0.1c0,1,0,1.8,0,3
			c-1.2,0-2.3,0-3.5,0c-3.4,0-6.8,0.1-10.2,0c-1.6-0.1-2.6,0.4-3.3,1.8c-0.5,1-1.2,2-2,3.3c4.6,0,8.7,0,13,0c0,1.1,0,2,0,3.1
			c-5,0-9.8,0-15.3,0C47.6,32,55.5,43.9,63.7,55.9z M57.8,53C51,42.9,44.4,33.1,37.6,23c-6.5,10.1-12.7,19.9-19.1,30
			C31.7,53,44.6,53,57.8,53z"/>
		<path d="M32.3,17.4c0.7,1.5,1.2,2.6,1.7,3.6c-0.2,0.1-0.4,0.2-0.6,0.3c-0.4-0.4-0.7-0.9-1.3-1.6C31,21.4,30,22.9,29,24.4
			C22.2,34.5,15.4,44.6,8.6,54.8c-0.4,0.6-1.1,1-1.6,1.6c-0.2-0.2-0.4-0.3-0.6-0.5C14.9,43.2,23.4,30.5,32.3,17.4z"/>
		<path d="M37.5,26.9c5.6,8.3,11.1,16.4,16.8,24.8c-11,0-21.7,0-32.7,0C26.9,43.4,32.1,35.3,37.5,26.9z M37.6,29.1
			c-4.6,7.3-9.1,14.3-13.7,21.5c9.6,0,18.8,0,28.2,0C47.2,43.4,42.5,36.4,37.6,29.1z"/>
	</g>
	<g>
		<path d="M85.9,36.9l-8.1-7.5c-0.1,0.1-0.2,0.2-0.2,0.3c-0.1,0.3-0.2,0.5-0.2,0.7c0,0.1,0,0.3,0.1,0.4c0.1,0.1,0.2,0.2,0.3,0.4
			l6.4,5.8H68.1c-0.1,0-0.1,0-0.2,0c-0.1,0-0.1-0.1-0.1-0.1c0,0,0-0.1,0.1-0.1c0.1,0,0.2-0.1,0.3-0.1s0.2,0,0.3-0.1
			c0.1,0,0.1,0,0.2-0.1c0.1-0.1,0.2-0.2,0.3-0.2c0.2-0.1,0.4-0.2,0.6-0.2c0.2,0,0.3,0,0.4,0s0.1,0,0.1-0.1c0-0.1,0-0.1,0-0.1
			c0-0.2,0-0.3,0.1-0.4c0.1-0.1,0.2-0.2,0.3-0.4c0.1-0.1,0.2-0.2,0.3-0.2c0,0,0,0.1,0.1,0.3c0,0.2,0.1,0.3,0.2,0.3
			c0.1,0,0.2,0.1,0.3,0.1c0.1,0,0.3,0,0.5,0h8.2l-3.4-3.3l-0.4-0.4c-0.2-0.2-0.4-0.4-0.5-0.6c-0.1-0.2-0.2-0.4-0.2-0.7
			c0-0.3,0.1-0.7,0.4-1c0,0,0.1-0.1,0.2-0.4s0.3-0.6,0.5-0.9c0.2-0.4,0.3-0.7,0.4-1c0,0,0-0.1,0-0.1s0-0.1,0-0.2c0-0.1,0-0.1,0-0.1
			l0.2,0.1l9.3,8.7v1.4L85.9,36.9z M76.7,38.7c0,0.2-0.1,0.4-0.3,0.6c-0.2,0.2-0.4,0.2-0.7,0.2c-0.3,0-0.5-0.1-0.7-0.2
			c-0.2-0.2-0.3-0.4-0.3-0.6c0-0.2,0.1-0.4,0.3-0.6c0.2-0.2,0.4-0.2,0.7-0.2s0.5,0.1,0.7,0.3C76.6,38.3,76.7,38.5,76.7,38.7z
			 M79.2,38.7c0,0.2-0.1,0.4-0.3,0.6c-0.2,0.2-0.4,0.2-0.7,0.2c-0.3,0-0.5-0.1-0.7-0.2c-0.2-0.2-0.3-0.4-0.3-0.6
			c0-0.2,0.1-0.4,0.3-0.6c0.2-0.2,0.4-0.2,0.7-0.2c0.3,0,0.5,0.1,0.7,0.3C79.1,38.3,79.2,38.5,79.2,38.7z"/>
		<path d="M86,35.5h3.6v1.4H86V35.5z"/>
		<path d="M89,35.5h3.6v1.4H89V35.5z"/>
		<path d="M91.9,35.5h3.6v1.4h-3.6V35.5z"/>
		<path d="M94.8,35.5h3.6v1.4h-3.6V35.5z"/>
		<path d="M97.7,35.5h3.6v1.4h-3.6V35.5z"/>
		<path d="M100.6,35.5h3.6v1.4h-3.6V35.5z"/>
		<path d="M103.5,35.5h3.6v1.4h-3.6V35.5z"/>
		<path d="M106.4,35.5h3.6v1.4h-3.6V35.5z"/>
		<path d="M113.8,32.8c-0.1,0-0.2,0-0.3,0.1c-0.1,0.1-0.2,0.1-0.3,0.1c0,0-0.1-0.1-0.1-0.2c0-0.1,0.1-0.3,0.2-0.4
			c0.2-0.2,0.4-0.3,0.7-0.4c0.2,0,0.3,0,0.4-0.1c0.1-0.1,0.1-0.1,0.1-0.2c0-0.1,0-0.1,0-0.1c0,0,0-0.1,0-0.1c0-0.1,0-0.2,0.1-0.3
			c0.1-0.1,0.2-0.3,0.3-0.4c0.1-0.2,0.2-0.3,0.3-0.5c0.1-0.1,0.1-0.3,0.2-0.5c0-0.1,0.1-0.2,0.2-0.2c0,0,0.1,0,0.1,0.1
			c0,0,0,0.1,0,0.1v7.2h-6v-1.4h4.6v-2.1c0,0,0-0.1,0-0.1c0-0.1,0-0.3-0.1-0.3C114,32.9,113.9,32.8,113.8,32.8z M114.2,27.7
			c0,0.2-0.1,0.4-0.3,0.6s-0.4,0.2-0.7,0.2c-0.1,0-0.1,0-0.1,0c-0.2,0-0.5-0.1-0.6-0.3c-0.2-0.1-0.2-0.3-0.2-0.5
			c0-0.2,0.1-0.4,0.3-0.6s0.4-0.2,0.6-0.2c0,0,0.1,0,0.1,0c0.3,0,0.5,0.1,0.7,0.2S114.2,27.5,114.2,27.7z"/>
		<path d="M118.5,27.5c0-0.1,0-0.1-0.1-0.2c-0.1-0.1-0.2-0.1-0.3-0.1c-0.1,0-0.2,0-0.3,0.1s-0.3,0.1-0.3,0c0,0-0.1-0.1-0.1-0.2
			c0-0.1,0.1-0.3,0.2-0.4c0.1-0.2,0.4-0.3,0.7-0.4c0.2,0,0.3,0,0.4-0.1c0.1-0.1,0.1-0.2,0.1-0.3c0,0,0-0.1,0-0.1c0,0,0-0.1,0-0.1
			c0-0.1,0-0.2,0.1-0.3c0.1-0.1,0.2-0.3,0.3-0.4c0.1-0.2,0.2-0.3,0.3-0.4c0-0.1,0.1-0.3,0.2-0.5c0-0.1,0-0.1,0.1-0.1
			c0,0,0.1-0.1,0.1-0.1c0.1,0,0.1,0.1,0.1,0.2v12.8h-1.4c0-0.4,0-0.9,0-1.6c0-0.6,0-1.5,0-2.4c0-1,0-1.9,0-3v-0.5V29v-0.3v-0.3v-0.2
			v-0.2v-0.1v-0.1C118.5,27.6,118.5,27.5,118.5,27.5z"/>
		<path d="M127.5,37c0,0.1,0,0.1,0,0.2c0,0.4-0.1,0.8-0.3,1.3c-0.1,0.3-0.3,0.6-0.5,0.8c-0.3,0.4-0.8,0.7-1.3,0.9
			c-0.6,0.2-1.2,0.3-1.8,0.3c-0.2,0-0.3,0-0.5,0c-0.2,0-0.3,0-0.5-0.1c-0.2,0-0.3,0-0.6-0.2s-0.3-0.2-0.3-0.3c0-0.1,0-0.1,0.1-0.1
			c0.1,0,0.2,0,0.5,0c0,0,0.1,0,0.1,0c0.1,0,0.1,0,0.2,0c0.3,0,0.6,0,0.9-0.1s0.5-0.1,0.7-0.1c0.9-0.2,1.4-0.7,1.7-1.4
			c0-0.1,0.1-0.2,0.1-0.4s0.1-0.4,0.1-0.5c0-0.1,0-0.2,0-0.3h-4.1c-0.1,0-0.2,0-0.2-0.1c0-0.1,0.1-0.2,0.3-0.4
			c0.2-0.2,0.4-0.3,0.4-0.4c0.1-0.2,0.3-0.5,0.4-0.8c0.2-0.5,0.3-0.8,0.4-1c0.2-0.2,0.5-0.4,0.8-0.6c0.1-0.1,0.2-0.1,0.3-0.2
			c0.1-0.1,0.2-0.3,0.3-0.5c0.1-0.1,0.2-0.2,0.3-0.4c0.3-0.3,0.4-0.4,0.4-0.4c0.3-0.2,0.7-0.5,1.3-0.8c0.1-0.1,0.2-0.2,0.3-0.3
			c0.1-0.2,0.2-0.4,0.3-0.5c0.1-0.1,0.2-0.1,0.2-0.1c0,0,0.1,0,0.1,0.1c0,0,0,0,0,0.1l0,6.3C127.5,36.9,127.5,37,127.5,37z
			 M126,33.6c-0.2,0.1-0.3,0.1-0.3,0.2c-0.1,0.1-0.2,0.3-0.4,0.7c-0.4,0.2-0.6,0.3-0.7,0.4c-0.1,0.2-0.2,0.4-0.2,0.5h1.6V33.6z"/>
		<path d="M126.9,35.5h3.6v1.4h-3.6V35.5z"/>
		<path d="M129.8,35.5h3.6v1.4h-3.6V35.5z"/>
		<path d="M132.7,35.5h3.6v1.4h-3.6V35.5z"/>
		<path d="M140,32.8c-0.1,0-0.2,0-0.3,0.1c-0.1,0.1-0.2,0.1-0.3,0.1c0,0-0.1-0.1-0.1-0.2c0-0.1,0.1-0.3,0.2-0.4
			c0.2-0.2,0.4-0.3,0.7-0.4c0.2,0,0.3,0,0.4-0.1c0.1-0.1,0.1-0.1,0.1-0.2c0-0.1,0-0.1,0-0.1c0,0,0-0.1,0-0.1c0-0.1,0-0.2,0.1-0.3
			s0.2-0.3,0.3-0.4c0.1-0.2,0.2-0.3,0.3-0.5s0.1-0.3,0.2-0.5c0-0.1,0.1-0.2,0.2-0.2c0,0,0.1,0,0.1,0.1c0,0,0,0.1,0,0.1v7.2h-6v-1.4
			h4.6v-2.1c0,0,0-0.1,0-0.1c0-0.1,0-0.3-0.1-0.3C140.3,32.9,140.2,32.8,140,32.8z M140.6,38.8c0,0.2-0.1,0.4-0.3,0.6
			s-0.4,0.2-0.7,0.2c-0.1,0-0.1,0-0.1,0c-0.2,0-0.4-0.1-0.6-0.3c-0.2-0.1-0.2-0.3-0.2-0.5c0-0.2,0.1-0.4,0.3-0.6
			c0.2-0.2,0.4-0.2,0.6-0.2c0,0,0.1,0,0.1,0c0.3,0,0.5,0.1,0.7,0.2S140.6,38.6,140.6,38.8z"/>
		<path d="M141.3,35.5h3.6v1.4h-3.6V35.5z"/>
		<path d="M144.3,35.5h3.6v1.4h-3.6V35.5z"/>
		<path d="M147.2,35.5h3.6v1.4h-3.6V35.5z"/>
		<path d="M150.1,35.5h3.6v1.4h-3.6V35.5z"/>
		<path d="M156.5,27.5c0-0.1,0-0.2-0.1-0.3s-0.2-0.1-0.3-0.1c-0.1,0-0.2,0-0.3,0.1c-0.2,0.1-0.3,0.1-0.4,0.1c0,0,0-0.1,0-0.1
			c0-0.1,0.1-0.3,0.2-0.4c0.2-0.2,0.4-0.3,0.7-0.5c0.3,0,0.5,0,0.6-0.1c0,0,0-0.1,0-0.1c0-0.1,0-0.2,0-0.3c0-0.1,0.1-0.3,0.2-0.4
			c0.2-0.3,0.4-0.4,0.4-0.5s0.1-0.2,0.1-0.4c0-0.2,0.1-0.3,0.1-0.3c0,0,0.1,0,0.2,0.1c0,0,0,0.1,0.1,0.1v12.5h-5v-1.4h3.5V27.5z"/>
		<path d="M161,27.5c0-0.1,0-0.1-0.1-0.2c-0.1-0.1-0.2-0.1-0.3-0.1c-0.1,0-0.2,0-0.3,0.1s-0.3,0.1-0.3,0c0,0-0.1-0.1-0.1-0.2
			c0-0.1,0.1-0.3,0.2-0.4c0.1-0.2,0.4-0.3,0.7-0.4c0.2,0,0.3,0,0.4-0.1c0.1-0.1,0.1-0.2,0.1-0.3c0,0,0-0.1,0-0.1c0,0,0-0.1,0-0.1
			c0-0.1,0-0.2,0.1-0.3c0.1-0.1,0.2-0.3,0.3-0.4c0.1-0.2,0.2-0.3,0.3-0.4c0-0.1,0.1-0.3,0.2-0.5c0-0.1,0-0.1,0.1-0.1
			c0,0,0.1-0.1,0.1-0.1c0.1,0,0.1,0.1,0.1,0.2v12.8H161c0-0.4,0-0.9,0-1.6c0-0.6,0-1.5,0-2.4c0-1,0-1.9,0-3v-0.5V29v-0.3v-0.3v-0.2
			v-0.2v-0.1v-0.1C161,27.6,161,27.5,161,27.5z"/>
	</g>
	<g>
		<path d="M79,45l-0.9,0.9l1.4,3.4l0.3-0.2l-1.2-3l0.9-0.9l0.2,0.1l-0.8,0.9l1.2,2.9c0.1,0,0.1-0.1,0.1-0.1l0.3-0.2
			c0.2-0.1,0.3-0.2,0.3-0.3c0.1,0.6,0.4,1.1,0.7,1.6c-0.2,0-0.3,0-0.4,0c-0.5,0-0.9,0.1-1.2,0.2l1.5,3.8l1.3,0.9h-4.2l1.2-0.9
			l-0.9-2.3c-0.6,0.6-1.1,1.1-1.4,1.6l-0.2,0c0.3-0.5,0.8-1.1,1.5-1.7l0.1-0.1l-0.2-0.3c-0.7,0.5-1.2,1.1-1.7,1.8l-0.2-0.2
			c-0.3-0.4-0.7-0.9-1.1-1.5l-0.1-0.1c-0.4,0.9-0.6,1.6-0.6,2.1c0,0.3,0.1,0.6,0.2,0.8s0.4,0.6,0.9,1.1c0,0,0.1,0.1,0.2,0.2h-4.5
			l-0.2-0.2h4.3l-0.1-0.2c-0.4-0.4-0.6-0.7-0.7-1c-0.1-0.2-0.2-0.5-0.2-0.8c0-0.5,0.2-1.3,0.7-2.3l-0.4-0.4
			c-0.1,0.2-0.2,0.4-0.3,0.7l-0.3,0.8c-0.2,0.4-0.2,0.8-0.2,1c0,0.3,0.1,0.5,0.2,0.7s0.3,0.5,0.7,0.8c0,0,0.1,0.1,0.2,0.1h-4.2
			c0.8-0.4,1.4-0.9,1.9-1.5c0.5-0.6,0.9-1.6,1.4-3l0-0.1c-0.3-0.2-0.7-0.4-1.3-0.4c0.3-0.4,0.5-0.9,0.7-1.3c0.1,0.1,0.1,0.1,0.1,0.1
			l0.4,0.3c0.1,0.1,0.3,0.2,0.5,0.3l0.2-0.3l-0.1-0.1c-0.3-0.2-0.5-0.4-0.7-0.5l-0.1-0.1l0.1-0.2c0.3,0.2,0.6,0.4,0.9,0.6l1.1-2.9
			L75.1,45H79z M76.5,46.5l-1.3,3.2c0.4,0.4,0.8,0.8,1.1,1.2l0.4,0.5c0,0,0,0,0.1,0.1c0,0,0.1-0.1,0.1-0.1l0.1-0.1
			c0,0,0-0.1,0.1-0.1c-0.4-0.6-0.8-1.1-1.4-1.5l1.1-2.6L76.5,46.5z M76.9,47.4L76,49.7c0.1,0.1,0.1,0.1,0.1,0.1l0.3,0.4
			c0.2,0.2,0.4,0.5,0.7,0.9l0.1,0.1c0.2-0.3,0.5-0.6,0.9-0.8L76.9,47.4z M81.5,48.8c0.1,0.5,0.4,1.1,0.9,1.9c-0.1,0-0.2,0-0.2,0
			l-0.7-0.1c-0.3,0-0.5,0-0.7,0c0,0-0.1,0-0.2,0l1.4,3.4l1.9,1.5h-4.9l-0.2-0.2h4.5l-1.5-1.2l-1.5-3.6c0.2,0,0.4-0.1,0.7-0.1
			c0.3,0,0.6,0,1,0.1l-0.1-0.2c-0.4-0.6-0.6-1.2-0.7-1.6L81.5,48.8z"/>
		<path d="M84.2,45h4L87,46v8.2h0.1l0.3,0h0.1v-8.2l0.9-0.8l0.1,0.2l-0.8,0.8v8.1c0.3,0,0.5,0,0.7,0c0.9,0,1.6-0.2,2-0.5
			c0.5-0.4,0.8-1,0.9-1.8c0.5,1.4,1.1,2.4,1.6,2.9h-8.8l1.2-0.9v-8L84.2,45z M93.8,54.8l-0.4,0.7h-8.8l-0.2-0.2h8.9l0.2-0.5
			c-0.6-0.7-1.1-1.5-1.5-2.3l0-0.1l0.3,0.1l0.1,0.1C92.8,53.4,93.2,54.1,93.8,54.8L93.8,54.8z"/>
		<path d="M98.1,46c1.3-0.8,2.8-1.2,4.5-1.2c1.2,0,2.2,0.2,2.9,0.7c0.8,0.5,1.1,1.1,1.1,1.9c0,1-0.7,1.8-2,2.1v0.1
			c0.1,0,0.3,0.1,0.5,0.1c0.6-0.1,1.1-0.4,1.5-0.8c0.4-0.4,0.5-0.9,0.5-1.5c0-0.7-0.3-1.4-1-1.9v0l0.1,0.1c0.7,0.5,1.1,1.2,1.1,2
			c0,1.1-0.6,1.9-1.9,2.3c0.5,0.2,1,0.6,1.3,1c0.3,0.4,0.5,0.9,0.5,1.4c0,0.8-0.3,1.4-0.9,1.8c-0.6,0.5-1.4,0.7-2.4,0.7h-6l1.2-0.9
			v-3.3c-0.3,0-0.7,0-1.2,0.1l-0.1-0.2c0.5,0,0.9-0.1,1.2-0.1V50h-0.2c-0.3,0-0.7,0-1.2,0.1l0.4-0.7l0.1,0c0.2,0,0.4,0,0.5,0
			c0.2,0,0.3,0,0.4,0v-2.9L98.1,46z M107,50.5c0.6,0.4,0.9,1.1,0.9,1.9c0,0.9-0.3,1.6-1,2.2c-0.6,0.6-1.6,0.8-2.9,0.8h-5.7l-0.1-0.2
			h5.3c1.2,0,2-0.1,2.5-0.3c1.1-0.5,1.7-1.3,1.7-2.5c0-0.7-0.3-1.3-0.8-1.8L107,50.5z M100.8,45.9v3.5c0.1,0,0.1,0,0.1,0l0.2,0
			c0,0,0.1,0,0.1,0v-3.2c0.5-0.2,1-0.3,1.4-0.3c0.5,0,0.9,0.1,1.2,0.3c0.3,0.2,0.6,0.5,0.8,0.9l-0.2-0.1c-0.4-0.6-1-0.9-1.8-0.9
			c-0.4,0-0.8,0.1-1.2,0.3v3h0.4c1.1,0,1.9-0.2,2.4-0.5c0.5-0.3,0.8-0.8,0.8-1.5c0-0.6-0.2-1.1-0.6-1.4c-0.4-0.4-1-0.5-1.7-0.5
			C102,45.4,101.3,45.6,100.8,45.9z M100.8,50v4.3h0.4v-3.8c0.4,0,0.7,0,0.9,0c0.9,0,1.6,0.1,2,0.2c0.4,0.2,0.7,0.5,1,0.9h-0.1
			c-0.3-0.4-0.6-0.6-1-0.7c-0.4-0.1-1-0.2-1.8-0.2l-0.7,0v3.6h0.3l1.2,0c1.6-0.1,2.4-0.8,2.4-2.1c0-0.8-0.3-1.4-0.8-1.7
			c-0.5-0.3-1.5-0.5-2.9-0.5C101.4,50,101.2,50,100.8,50z"/>
		<path d="M116.8,45l-0.9,0.9l1.4,3.4l0.3-0.2l-1.2-3l0.9-0.9l0.2,0.1l-0.8,0.9l1.2,2.9c0.1,0,0.1-0.1,0.1-0.1l0.3-0.2
			c0.2-0.1,0.3-0.2,0.3-0.3c0.1,0.6,0.4,1.1,0.7,1.6c-0.2,0-0.3,0-0.4,0c-0.5,0-0.9,0.1-1.2,0.2l1.5,3.8l1.3,0.9h-4.2l1.2-0.9
			l-0.9-2.3c-0.6,0.6-1.1,1.1-1.4,1.6l-0.2,0c0.3-0.5,0.8-1.1,1.5-1.7l0.1-0.1l-0.2-0.3c-0.7,0.5-1.2,1.1-1.7,1.8l-0.2-0.2
			c-0.3-0.4-0.7-0.9-1.1-1.5l-0.1-0.1c-0.4,0.9-0.6,1.6-0.6,2.1c0,0.3,0.1,0.6,0.2,0.8s0.4,0.6,0.9,1.1c0,0,0.1,0.1,0.2,0.2h-4.5
			l-0.2-0.2h4.3l-0.1-0.2c-0.4-0.4-0.6-0.7-0.7-1c-0.1-0.2-0.2-0.5-0.2-0.8c0-0.5,0.2-1.3,0.7-2.3l-0.4-0.4
			c-0.1,0.2-0.2,0.4-0.3,0.7l-0.3,0.8c-0.2,0.4-0.2,0.8-0.2,1c0,0.3,0.1,0.5,0.2,0.7s0.3,0.5,0.7,0.8c0,0,0.1,0.1,0.2,0.1h-4.2
			c0.8-0.4,1.4-0.9,1.9-1.5c0.5-0.6,0.9-1.6,1.4-3l0-0.1c-0.3-0.2-0.7-0.4-1.3-0.4c0.3-0.4,0.5-0.9,0.7-1.3c0.1,0.1,0.1,0.1,0.1,0.1
			l0.4,0.3c0.1,0.1,0.3,0.2,0.5,0.3l0.2-0.3l-0.1-0.1c-0.3-0.2-0.5-0.4-0.7-0.5l-0.1-0.1l0.1-0.2c0.3,0.2,0.6,0.4,0.9,0.6l1.1-2.9
			l-0.9-0.9H116.8z M114.3,46.5l-1.3,3.2c0.4,0.4,0.8,0.8,1.1,1.2l0.4,0.5c0,0,0,0,0.1,0.1c0,0,0.1-0.1,0.1-0.1l0.1-0.1
			c0,0,0-0.1,0.1-0.1c-0.4-0.6-0.8-1.1-1.4-1.5l1.1-2.6L114.3,46.5z M114.7,47.4l-0.9,2.2c0.1,0.1,0.1,0.1,0.1,0.1l0.3,0.4
			c0.2,0.2,0.4,0.5,0.7,0.9l0.1,0.1c0.2-0.3,0.5-0.6,0.9-0.8L114.7,47.4z M119.3,48.8c0.1,0.5,0.4,1.1,0.9,1.9c-0.1,0-0.2,0-0.2,0
			l-0.7-0.1c-0.3,0-0.5,0-0.7,0c0,0-0.1,0-0.2,0l1.4,3.4l1.9,1.5h-4.9l-0.2-0.2h4.5l-1.5-1.2l-1.5-3.6c0.2,0,0.4-0.1,0.7-0.1
			c0.3,0,0.6,0,1,0.1l-0.1-0.2c-0.4-0.6-0.6-1.2-0.7-1.6L119.3,48.8z"/>
		<path d="M136.2,42.3c-0.8,0.8-1.4,1.6-1.8,2.4c-0.4,0.8-0.9,2.1-1.4,3.9l-1.5,4.9l0.2,0.6l1,0.8H129l1.1-0.8l-1.5-4.9l-1.4,4.8
			l1.4,1.6h-4.3l-0.2-0.2h4l-1.3-1.3l1.6-5.3l-0.3-0.9l-1.7,5.8l0.1,0.5l1,0.8h-3.8l1.1-0.8l-2.4-8.1l-1.3-1h4.1l-1.1,1l1.9,6.4
			l0.3-0.9l-1.6-5.3l0.8-0.6l0.2,0.1l-0.7,0.6l1.5,4.9l1.8-6h0.8l2.2,7.3l0.3-0.9l-1.9-6.4h0.2l1.8,6l0.8-2.6
			c0.5-1.6,0.7-2.7,0.7-3.2c0-0.5-0.3-1-0.8-1.3c0.7-0.2,1.4-0.5,2.1-0.8c0.7-0.3,1.3-0.6,1.7-0.9L136.2,42.3z M136.7,42.9
			c-0.7,0.7-1.2,1.4-1.7,2.3c-0.4,0.9-0.9,2-1.3,3.6l-1.5,5l1.6,1.7h-4.3l-0.2-0.2h4l-1.4-1.4l1.5-5.2c0.5-1.5,0.9-2.7,1.3-3.5
			c0.4-0.8,1-1.6,1.7-2.4L136.7,42.9z"/>
		<path d="M143.4,45l-0.9,0.9l1.4,3.4l0.3-0.2l-1.2-3l0.9-0.9l0.2,0.1l-0.8,0.9l1.2,2.9c0.1,0,0.1-0.1,0.1-0.1l0.3-0.2
			c0.2-0.1,0.3-0.2,0.3-0.3c0.1,0.6,0.4,1.1,0.7,1.6c-0.2,0-0.3,0-0.4,0c-0.5,0-0.9,0.1-1.2,0.2l1.5,3.8l1.3,0.9h-4.2L144,54
			l-0.9-2.3c-0.6,0.6-1.1,1.1-1.4,1.6l-0.2,0c0.3-0.5,0.8-1.1,1.5-1.7l0.1-0.1l-0.2-0.3c-0.7,0.5-1.2,1.1-1.7,1.8l-0.2-0.2
			c-0.3-0.4-0.7-0.9-1.1-1.5l-0.1-0.1c-0.4,0.9-0.6,1.6-0.6,2.1c0,0.3,0.1,0.6,0.2,0.8s0.4,0.6,0.9,1.1c0,0,0.1,0.1,0.2,0.2h-4.5
			l-0.2-0.2h4.3l-0.1-0.2c-0.4-0.4-0.6-0.7-0.7-1c-0.1-0.2-0.2-0.5-0.2-0.8c0-0.5,0.2-1.3,0.7-2.3l-0.4-0.4
			c-0.1,0.2-0.2,0.4-0.3,0.7l-0.3,0.8c-0.2,0.4-0.2,0.8-0.2,1c0,0.3,0.1,0.5,0.2,0.7s0.3,0.5,0.7,0.8c0,0,0.1,0.1,0.2,0.1h-4.2
			c0.8-0.4,1.4-0.9,1.9-1.5c0.5-0.6,0.9-1.6,1.4-3l0-0.1c-0.3-0.2-0.7-0.4-1.3-0.4c0.3-0.4,0.5-0.9,0.7-1.3c0.1,0.1,0.1,0.1,0.1,0.1
			l0.4,0.3c0.1,0.1,0.3,0.2,0.5,0.3l0.2-0.3l-0.1-0.1c-0.3-0.2-0.5-0.4-0.7-0.5l-0.1-0.1l0.1-0.2c0.3,0.2,0.6,0.4,0.9,0.6l1.1-2.9
			l-0.9-0.9H143.4z M140.9,46.5l-1.3,3.2c0.4,0.4,0.8,0.8,1.1,1.2l0.4,0.5c0,0,0,0,0.1,0.1c0,0,0.1-0.1,0.1-0.1l0.1-0.1
			c0,0,0-0.1,0.1-0.1c-0.4-0.6-0.8-1.1-1.4-1.5l1.1-2.6L140.9,46.5z M141.3,47.4l-0.9,2.2c0.1,0.1,0.1,0.1,0.1,0.1l0.3,0.4
			c0.2,0.2,0.4,0.5,0.7,0.9l0.1,0.1c0.2-0.3,0.5-0.6,0.9-0.8L141.3,47.4z M145.8,48.8c0.1,0.5,0.4,1.1,0.9,1.9c-0.1,0-0.2,0-0.2,0
			l-0.7-0.1c-0.3,0-0.5,0-0.7,0c0,0-0.1,0-0.2,0l1.4,3.4l1.9,1.5h-4.9l-0.2-0.2h4.5l-1.5-1.2l-1.5-3.6c0.2,0,0.4-0.1,0.7-0.1
			c0.3,0,0.6,0,1,0.1l-0.1-0.2c-0.4-0.6-0.6-1.2-0.7-1.6L145.8,48.8z"/>
		<path d="M158.2,45c-0.6,0.3-1,0.6-1.2,0.8c-0.3,0.4-0.4,1-0.4,1.8v0.5v6.8h-1.4l-4-7.1V52l0,0.3l0.1,1.1c0.1,0.5,0.4,0.9,0.8,1.1
			l0.1,0.1c-0.8-0.2-1.2-1-1.2-2.3l0-0.7v-4.2l-0.5-0.8V51c0,1.4,0.1,2.3,0.3,2.8s0.7,0.8,1.4,1l0.7,0.7h-4.5l-0.1-0.2h4.2l-0.4-0.4
			h-3.9c0.7-0.2,1.1-0.5,1.4-0.9s0.3-1,0.3-2v-6.2l-1.1-0.9h4.2l-1.2,0.7l4.1,7.3v-0.9l-3.5-6.2l1.2-0.7l0.2,0.1l-1,0.6l3.2,5.8V48
			v-0.4c0-0.9-0.1-1.5-0.2-1.8s-0.6-0.6-1.2-0.9H158.2z M158.5,45.5l-0.2,0.2c-0.4,0.1-0.7,0.3-0.9,0.5c-0.2,0.2-0.2,0.7-0.2,1.3v8
			h-1.8l-0.1-0.2h1.7v-7.7c0-0.7,0.1-1.2,0.3-1.5C157.5,45.8,157.9,45.6,158.5,45.5z"/>
		<path d="M158.9,45h4l-1.1,1v8l1.1,0.8h-3.9l1.2-0.9v-8L158.9,45z M163.3,45.4l-0.9,0.8V54l1.4,1.5h-4.4l-0.2-0.2h4.1l-1.1-1.2v-8
			l0.9-0.9L163.3,45.4z"/>
	</g>
</g>
</svg>
