<?xml version="1.0" encoding="utf-8"?>
<!-- Generator: Adobe Illustrator 24.3.0, SVG Export Plug-In . SVG Version: 6.00 Build 0)  -->
<svg version="1.1" id="Layer_1" xmlns="http://www.w3.org/2000/svg" xmlns:xlink="http://www.w3.org/1999/xlink" x="0px" y="0px"
	 viewBox="0 0 164 68" style="enable-background:new 0 0 164 68;" xml:space="preserve">
<style type="text/css">
	.st0{fill:none;}
	.st1{fill:#1E1F1C;}
	.st2{fill:#020203;}
	.st3{fill:#080808;}
	.st4{fill:none;stroke:#020100;stroke-width:0.5;stroke-miterlimit:10;}
	.st5{fill:#1D1D1B;}
	.st6{fill:#020101;}
	.st7{fill:#FFFFFF;stroke:#000000;stroke-width:0.25;stroke-miterlimit:10;}
	.st8{fill:none;stroke:#000000;stroke-width:0.5;stroke-miterlimit:10;}
</style>
<g>
	<path d="M94,22.1l4.4-4.6l-13-12.4l-4-4L64.7,17.7l4.5,4.5l3.9-3.9l3.7,3.6l-4,4l4.5,4.5l4.1-4.1l4.2,4.1l4.4-4.6l-4.1-4l3.7-3.7
		L94,22.1z M81.4,17.3l-3.7-3.6l3.7-3.7l3.7,3.6L81.4,17.3z"/>
	<g>
		<path d="M33.7,64.2c-0.3-0.1-0.5-0.4-0.7-0.6c-0.2-0.3-0.2-0.6-0.2-0.9c0-0.4,0.1-0.7,0.2-0.9c0.2-0.3,0.4-0.5,0.7-0.6
			c0.3-0.1,0.6-0.2,1-0.2c0.4,0,0.7,0.1,1,0.2c0.3,0.1,0.5,0.3,0.6,0.6c0.1,0.3,0.2,0.6,0.2,0.9c0,0,0,0.1,0,0.1c0,0,0,0.1,0,0.1
			h-3.3v-0.6h2.5l-0.3,0.3c0,0,0-0.1,0.1-0.1c0-0.1,0-0.1,0-0.1c0-0.2,0-0.3-0.1-0.5c-0.1-0.1-0.2-0.2-0.3-0.3
			c-0.1-0.1-0.3-0.1-0.5-0.1c-0.2,0-0.4,0-0.6,0.1s-0.3,0.2-0.4,0.4c-0.1,0.2-0.1,0.4-0.1,0.6c0,0.2,0,0.5,0.1,0.6s0.2,0.3,0.4,0.4
			c0.2,0.1,0.4,0.1,0.6,0.1c0.2,0,0.4,0,0.6-0.1c0.2-0.1,0.3-0.2,0.4-0.4l0.8,0.3c-0.2,0.3-0.4,0.5-0.8,0.7s-0.7,0.2-1.1,0.2
			C34.3,64.5,34,64.4,33.7,64.2z"/>
		<path d="M39.6,61.7c-0.1-0.1-0.3-0.2-0.5-0.2c-0.2,0-0.3,0-0.4,0.1c-0.1,0.1-0.2,0.2-0.3,0.3s-0.1,0.3-0.1,0.4v2.1h-0.9v-3.4h0.9
			v0.5c0.1-0.2,0.3-0.4,0.5-0.5c0.2-0.1,0.4-0.1,0.7-0.1c0.4,0,0.7,0.1,1,0.4c0.2,0.2,0.3,0.6,0.3,1v2.2h-0.9v-2.1
			C39.8,62,39.8,61.8,39.6,61.7z"/>
		<path d="M41.8,61.7c0.2-0.3,0.4-0.5,0.7-0.6c0.3-0.1,0.6-0.2,0.9-0.2c0.3,0,0.6,0.1,0.8,0.2c0.2,0.1,0.4,0.3,0.6,0.6
			c0.1,0.3,0.2,0.6,0.2,1c0,0.4-0.1,0.7-0.2,0.9c-0.1,0.3-0.3,0.5-0.6,0.6c-0.2,0.1-0.5,0.2-0.8,0.2c-0.3,0-0.6-0.1-0.9-0.2
			c-0.3-0.1-0.5-0.3-0.7-0.6c-0.2-0.3-0.3-0.6-0.3-1C41.6,62.3,41.6,61.9,41.8,61.7z M42.5,64.6c0,0.2,0.1,0.3,0.1,0.4
			c0.1,0.1,0.2,0.2,0.4,0.3c0.2,0.1,0.3,0.1,0.5,0.1c0.2,0,0.4,0,0.5-0.1s0.3-0.2,0.4-0.4s0.2-0.4,0.2-0.6v-3.4h0.9v3.4
			c0,0.4-0.1,0.8-0.3,1c-0.2,0.3-0.4,0.5-0.7,0.6c-0.3,0.1-0.6,0.2-1,0.2c-0.4,0-0.8-0.1-1-0.2s-0.5-0.3-0.7-0.5
			c-0.2-0.2-0.2-0.5-0.2-0.8H42.5z M42.6,63.2c0.1,0.2,0.2,0.3,0.4,0.4c0.2,0.1,0.4,0.1,0.6,0.1c0.2,0,0.3,0,0.5-0.1
			c0.2-0.1,0.3-0.2,0.4-0.4s0.2-0.4,0.2-0.6c0-0.2,0-0.3-0.1-0.5c-0.1-0.1-0.1-0.2-0.2-0.3c-0.1-0.1-0.2-0.2-0.3-0.2
			c-0.1,0-0.3-0.1-0.4-0.1c-0.2,0-0.4,0-0.6,0.1c-0.2,0.1-0.3,0.2-0.4,0.4s-0.2,0.4-0.2,0.6C42.5,62.9,42.5,63.1,42.6,63.2z"/>
		<path d="M46.7,59.2c0.1-0.1,0.2-0.1,0.4-0.1c0.2,0,0.3,0,0.4,0.1s0.2,0.2,0.2,0.4c0,0.1-0.1,0.2-0.2,0.3c-0.1,0.1-0.2,0.1-0.4,0.1
			c-0.1,0-0.3,0-0.4-0.1c-0.1-0.1-0.2-0.2-0.2-0.3C46.6,59.4,46.6,59.3,46.7,59.2z M47.5,60.9v3.4h-0.9v-3.4H47.5z"/>
		<path d="M51,61.7c-0.1-0.1-0.3-0.2-0.5-0.2c-0.2,0-0.3,0-0.4,0.1c-0.1,0.1-0.2,0.2-0.3,0.3s-0.1,0.3-0.1,0.4v2.1h-0.9v-3.4h0.9
			v0.5c0.1-0.2,0.3-0.4,0.5-0.5c0.2-0.1,0.4-0.1,0.7-0.1c0.4,0,0.7,0.1,1,0.4c0.2,0.2,0.3,0.6,0.3,1v2.2h-0.9v-2.1
			C51.2,62,51.1,61.8,51,61.7z"/>
		<path d="M53.8,64.2c-0.3-0.1-0.5-0.4-0.7-0.6c-0.2-0.3-0.2-0.6-0.2-0.9c0-0.4,0.1-0.7,0.2-0.9c0.2-0.3,0.4-0.5,0.7-0.6
			c0.3-0.1,0.6-0.2,1-0.2c0.4,0,0.7,0.1,1,0.2c0.3,0.1,0.5,0.3,0.6,0.6c0.1,0.3,0.2,0.6,0.2,0.9c0,0,0,0.1,0,0.1c0,0,0,0.1,0,0.1
			h-3.3v-0.6H56l-0.3,0.3c0,0,0-0.1,0.1-0.1c0-0.1,0-0.1,0-0.1c0-0.2,0-0.3-0.1-0.5c-0.1-0.1-0.2-0.2-0.3-0.3
			c-0.1-0.1-0.3-0.1-0.5-0.1c-0.2,0-0.4,0-0.6,0.1S54,61.8,53.9,62c-0.1,0.2-0.1,0.4-0.1,0.6c0,0.2,0,0.5,0.1,0.6s0.2,0.3,0.4,0.4
			c0.2,0.1,0.4,0.1,0.6,0.1c0.2,0,0.4,0,0.6-0.1c0.2-0.1,0.3-0.2,0.4-0.4l0.8,0.3c-0.2,0.3-0.4,0.5-0.8,0.7s-0.7,0.2-1.1,0.2
			C54.4,64.5,54.1,64.4,53.8,64.2z"/>
		<path d="M58.2,64.2c-0.3-0.1-0.5-0.4-0.7-0.6c-0.2-0.3-0.2-0.6-0.2-0.9c0-0.4,0.1-0.7,0.2-0.9c0.2-0.3,0.4-0.5,0.7-0.6
			c0.3-0.1,0.6-0.2,1-0.2c0.4,0,0.7,0.1,1,0.2c0.3,0.1,0.5,0.3,0.6,0.6c0.1,0.3,0.2,0.6,0.2,0.9c0,0,0,0.1,0,0.1c0,0,0,0.1,0,0.1
			h-3.3v-0.6h2.5l-0.3,0.3c0,0,0-0.1,0.1-0.1c0-0.1,0-0.1,0-0.1c0-0.2,0-0.3-0.1-0.5c-0.1-0.1-0.2-0.2-0.3-0.3
			c-0.1-0.1-0.3-0.1-0.5-0.1c-0.2,0-0.4,0-0.6,0.1s-0.3,0.2-0.4,0.4c-0.1,0.2-0.1,0.4-0.1,0.6c0,0.2,0,0.5,0.1,0.6s0.2,0.3,0.4,0.4
			c0.2,0.1,0.4,0.1,0.6,0.1c0.2,0,0.4,0,0.6-0.1c0.2-0.1,0.3-0.2,0.4-0.4l0.8,0.3c-0.2,0.3-0.4,0.5-0.8,0.7s-0.7,0.2-1.1,0.2
			C58.8,64.5,58.5,64.4,58.2,64.2z"/>
		<path d="M62.8,64.4h-0.9v-3.4h0.9V64.4z M63.7,61.7c-0.1,0-0.2,0-0.3,0c-0.1,0-0.3,0-0.4,0.1c-0.1,0.1-0.2,0.2-0.2,0.3
			s-0.1,0.3-0.1,0.4l-0.3-0.2c0-0.3,0.1-0.5,0.2-0.7c0.1-0.2,0.3-0.4,0.4-0.5c0.2-0.1,0.4-0.2,0.5-0.2c0.1,0,0.3,0,0.4,0.1
			c0.1,0,0.2,0.1,0.3,0.2l-0.4,0.7C63.8,61.7,63.7,61.7,63.7,61.7z"/>
		<path d="M65.1,59.2c0.1-0.1,0.2-0.1,0.4-0.1c0.2,0,0.3,0,0.4,0.1s0.2,0.2,0.2,0.4c0,0.1-0.1,0.2-0.2,0.3c-0.1,0.1-0.2,0.1-0.4,0.1
			c-0.1,0-0.3,0-0.4-0.1c-0.1-0.1-0.2-0.2-0.2-0.3C64.9,59.4,64.9,59.3,65.1,59.2z M65.9,60.9v3.4H65v-3.4H65.9z"/>
		<path d="M69.3,61.7c-0.1-0.1-0.3-0.2-0.5-0.2c-0.2,0-0.3,0-0.4,0.1c-0.1,0.1-0.2,0.2-0.3,0.3S68,62.1,68,62.3v2.1h-0.9v-3.4H68
			v0.5c0.1-0.2,0.3-0.4,0.5-0.5c0.2-0.1,0.4-0.1,0.7-0.1c0.4,0,0.7,0.1,1,0.4c0.2,0.2,0.3,0.6,0.3,1v2.2h-0.9v-2.1
			C69.5,62,69.4,61.8,69.3,61.7z"/>
		<path d="M71.5,61.7c0.2-0.3,0.4-0.5,0.7-0.6c0.3-0.1,0.6-0.2,0.9-0.2c0.3,0,0.6,0.1,0.8,0.2c0.2,0.1,0.4,0.3,0.6,0.6
			c0.1,0.3,0.2,0.6,0.2,1c0,0.4-0.1,0.7-0.2,0.9c-0.1,0.3-0.3,0.5-0.6,0.6c-0.2,0.1-0.5,0.2-0.8,0.2c-0.3,0-0.6-0.1-0.9-0.2
			c-0.3-0.1-0.5-0.3-0.7-0.6c-0.2-0.3-0.3-0.6-0.3-1C71.2,62.3,71.3,61.9,71.5,61.7z M72.2,64.6c0,0.2,0.1,0.3,0.1,0.4
			c0.1,0.1,0.2,0.2,0.4,0.3c0.2,0.1,0.3,0.1,0.5,0.1c0.2,0,0.4,0,0.5-0.1s0.3-0.2,0.4-0.4s0.2-0.4,0.2-0.6v-3.4h0.9v3.4
			c0,0.4-0.1,0.8-0.3,1c-0.2,0.3-0.4,0.5-0.7,0.6c-0.3,0.1-0.6,0.2-1,0.2c-0.4,0-0.8-0.1-1-0.2s-0.5-0.3-0.7-0.5
			c-0.2-0.2-0.2-0.5-0.2-0.8H72.2z M72.3,63.2c0.1,0.2,0.2,0.3,0.4,0.4c0.2,0.1,0.4,0.1,0.6,0.1c0.2,0,0.3,0,0.5-0.1
			c0.2-0.1,0.3-0.2,0.4-0.4s0.2-0.4,0.2-0.6c0-0.2,0-0.3-0.1-0.5c-0.1-0.1-0.1-0.2-0.2-0.3c-0.1-0.1-0.2-0.2-0.3-0.2
			c-0.1,0-0.3-0.1-0.4-0.1c-0.2,0-0.4,0-0.6,0.1c-0.2,0.1-0.3,0.2-0.4,0.4s-0.2,0.4-0.2,0.6C72.1,62.9,72.2,63.1,72.3,63.2z"/>
		<path d="M79.6,61.2c-0.1-0.1-0.2-0.3-0.3-0.4c-0.1-0.2-0.1-0.3-0.1-0.5c0-0.2,0.1-0.4,0.2-0.6c0.1-0.2,0.3-0.3,0.5-0.4
			c0.2-0.1,0.5-0.2,0.8-0.2c0.3,0,0.6,0.1,0.8,0.2c0.2,0.1,0.4,0.3,0.5,0.4c0.1,0.2,0.2,0.4,0.2,0.6c0,0.1,0,0.3-0.1,0.4
			c-0.1,0.1-0.1,0.2-0.2,0.4s-0.2,0.2-0.4,0.3c-0.2,0.1-0.3,0.2-0.5,0.3c-0.1,0.1-0.3,0.2-0.5,0.2c-0.2,0.1-0.3,0.2-0.5,0.2
			c-0.2,0.1-0.3,0.2-0.4,0.3s-0.1,0.3-0.1,0.4c0,0.2,0,0.3,0.1,0.4c0.1,0.1,0.2,0.2,0.4,0.3c0.2,0.1,0.3,0.1,0.5,0.1
			c0.2,0,0.5,0,0.7-0.1c0.2-0.1,0.5-0.2,0.7-0.4s0.4-0.4,0.6-0.6s0.4-0.4,0.6-0.7l0.6,0.4c-0.2,0.3-0.4,0.5-0.6,0.8
			c-0.2,0.3-0.5,0.5-0.8,0.7c-0.3,0.2-0.6,0.4-0.9,0.5c-0.3,0.1-0.7,0.2-1,0.2c-0.3,0-0.6-0.1-0.9-0.2c-0.3-0.1-0.5-0.3-0.7-0.5
			c-0.2-0.2-0.3-0.5-0.3-0.8c0-0.2,0-0.4,0.1-0.6s0.2-0.3,0.4-0.4c0.1-0.1,0.3-0.2,0.5-0.3c0.2-0.1,0.3-0.2,0.5-0.2
			c0.2-0.1,0.3-0.1,0.4-0.2c0.3-0.1,0.5-0.3,0.7-0.5c0.2-0.2,0.3-0.3,0.3-0.5c0-0.1,0-0.2-0.1-0.3s-0.1-0.2-0.2-0.2
			c-0.1-0.1-0.2-0.1-0.3-0.1c-0.2,0-0.4,0.1-0.5,0.2C80.1,60,80,60.1,80,60.3c0,0.2,0.1,0.3,0.2,0.5s0.3,0.3,0.5,0.5l3,3.1h-1
			L80,61.5C79.9,61.4,79.7,61.3,79.6,61.2z"/>
		<path d="M88.5,60.9v0.7h-2.1v-0.7H88.5z M87.9,59.7v4.6H87v-4.6H87.9z"/>
		<path d="M89.7,64.2c-0.3-0.1-0.5-0.4-0.7-0.6c-0.2-0.3-0.2-0.6-0.2-0.9c0-0.4,0.1-0.7,0.2-0.9c0.2-0.3,0.4-0.5,0.7-0.6
			c0.3-0.1,0.6-0.2,1-0.2c0.4,0,0.7,0.1,1,0.2c0.3,0.1,0.5,0.3,0.6,0.6c0.1,0.3,0.2,0.6,0.2,0.9c0,0,0,0.1,0,0.1c0,0,0,0.1,0,0.1
			h-3.3v-0.6h2.5l-0.3,0.3c0,0,0-0.1,0.1-0.1c0-0.1,0-0.1,0-0.1c0-0.2,0-0.3-0.1-0.5c-0.1-0.1-0.2-0.2-0.3-0.3
			c-0.1-0.1-0.3-0.1-0.5-0.1c-0.2,0-0.4,0-0.6,0.1s-0.3,0.2-0.4,0.4c-0.1,0.2-0.1,0.4-0.1,0.6c0,0.2,0,0.5,0.1,0.6s0.2,0.3,0.4,0.4
			c0.2,0.1,0.4,0.1,0.6,0.1c0.2,0,0.4,0,0.6-0.1c0.2-0.1,0.3-0.2,0.4-0.4l0.8,0.3c-0.2,0.3-0.4,0.5-0.8,0.7s-0.7,0.2-1.1,0.2
			C90.3,64.5,90,64.4,89.7,64.2z"/>
		<path d="M94.2,63.2c0.1,0.2,0.2,0.3,0.4,0.4s0.4,0.1,0.6,0.1c0.2,0,0.3,0,0.5-0.1c0.2,0,0.3-0.1,0.4-0.2c0.1-0.1,0.2-0.2,0.3-0.3
			v0.9c-0.1,0.1-0.3,0.2-0.5,0.3c-0.2,0.1-0.5,0.1-0.7,0.1c-0.4,0-0.7-0.1-1-0.2c-0.3-0.2-0.5-0.4-0.7-0.6s-0.3-0.6-0.3-0.9
			c0-0.4,0.1-0.7,0.3-0.9c0.2-0.3,0.4-0.5,0.7-0.6c0.3-0.2,0.7-0.2,1-0.2c0.3,0,0.5,0,0.7,0.1c0.2,0.1,0.4,0.2,0.5,0.3v0.9
			c-0.1-0.1-0.2-0.2-0.3-0.3c-0.1-0.1-0.3-0.2-0.4-0.2c-0.2,0-0.3-0.1-0.5-0.1c-0.2,0-0.4,0-0.6,0.1s-0.3,0.2-0.4,0.4
			c-0.1,0.2-0.2,0.4-0.2,0.6C94,62.9,94.1,63.1,94.2,63.2z"/>
		<path d="M98.3,64.4h-0.9v-5.8h0.9V64.4z M99.6,61.7c-0.1-0.1-0.3-0.2-0.5-0.2c-0.2,0-0.3,0-0.4,0.1c-0.1,0.1-0.2,0.2-0.3,0.3
			c-0.1,0.1-0.1,0.2-0.1,0.4H98c0-0.3,0.1-0.5,0.2-0.7s0.3-0.4,0.5-0.5c0.2-0.1,0.4-0.2,0.7-0.2c0.3,0,0.5,0,0.7,0.1
			s0.3,0.2,0.4,0.4c0.1,0.2,0.1,0.4,0.1,0.7v2.2h-0.9v-2.1C99.8,62,99.7,61.8,99.6,61.7z"/>
		<path d="M104,61.7c-0.1-0.1-0.3-0.2-0.5-0.2c-0.2,0-0.3,0-0.4,0.1c-0.1,0.1-0.2,0.2-0.3,0.3s-0.1,0.3-0.1,0.4v2.1h-0.9v-3.4h0.9
			v0.5c0.1-0.2,0.3-0.4,0.5-0.5c0.2-0.1,0.4-0.1,0.7-0.1c0.4,0,0.7,0.1,1,0.4c0.2,0.2,0.3,0.6,0.3,1v2.2h-0.9v-2.1
			C104.2,62,104.1,61.8,104,61.7z"/>
		<path d="M106.2,61.7c0.2-0.3,0.4-0.5,0.7-0.6c0.3-0.2,0.6-0.2,1-0.2s0.7,0.1,1,0.2c0.3,0.2,0.5,0.4,0.7,0.6
			c0.2,0.3,0.3,0.6,0.3,0.9c0,0.3-0.1,0.7-0.3,0.9s-0.4,0.5-0.7,0.6c-0.3,0.2-0.6,0.2-1,0.2s-0.7-0.1-1-0.2
			c-0.3-0.2-0.5-0.4-0.7-0.6s-0.3-0.6-0.3-0.9C105.9,62.3,106,62,106.2,61.7z M107,63.2c0.1,0.2,0.2,0.3,0.4,0.4s0.4,0.1,0.6,0.1
			c0.2,0,0.4,0,0.6-0.1s0.3-0.2,0.4-0.4c0.1-0.2,0.1-0.4,0.1-0.6c0-0.2,0-0.4-0.1-0.6c-0.1-0.2-0.2-0.3-0.4-0.4s-0.4-0.1-0.6-0.1
			c-0.2,0-0.4,0-0.6,0.1s-0.3,0.2-0.4,0.4c-0.1,0.2-0.1,0.4-0.1,0.6C106.8,62.9,106.9,63.1,107,63.2z"/>
		<path d="M111.7,58.5v5.8h-0.9v-5.8H111.7z"/>
		<path d="M112.8,61.7c0.2-0.3,0.4-0.5,0.7-0.6c0.3-0.2,0.6-0.2,1-0.2s0.7,0.1,1,0.2c0.3,0.2,0.5,0.4,0.7,0.6
			c0.2,0.3,0.3,0.6,0.3,0.9c0,0.3-0.1,0.7-0.3,0.9s-0.4,0.5-0.7,0.6c-0.3,0.2-0.6,0.2-1,0.2s-0.7-0.1-1-0.2
			c-0.3-0.2-0.5-0.4-0.7-0.6s-0.3-0.6-0.3-0.9C112.5,62.3,112.6,62,112.8,61.7z M113.5,63.2c0.1,0.2,0.2,0.3,0.4,0.4
			s0.4,0.1,0.6,0.1c0.2,0,0.4,0,0.6-0.1s0.3-0.2,0.4-0.4c0.1-0.2,0.1-0.4,0.1-0.6c0-0.2,0-0.4-0.1-0.6c-0.1-0.2-0.2-0.3-0.4-0.4
			s-0.4-0.1-0.6-0.1c-0.2,0-0.4,0-0.6,0.1s-0.3,0.2-0.4,0.4c-0.1,0.2-0.1,0.4-0.1,0.6C113.4,62.9,113.4,63.1,113.5,63.2z"/>
		<path d="M117.3,61.7c0.2-0.3,0.4-0.5,0.7-0.6c0.3-0.1,0.6-0.2,0.9-0.2c0.3,0,0.6,0.1,0.8,0.2c0.2,0.1,0.4,0.3,0.6,0.6
			c0.1,0.3,0.2,0.6,0.2,1c0,0.4-0.1,0.7-0.2,0.9c-0.1,0.3-0.3,0.5-0.6,0.6c-0.2,0.1-0.5,0.2-0.8,0.2c-0.3,0-0.6-0.1-0.9-0.2
			c-0.3-0.1-0.5-0.3-0.7-0.6c-0.2-0.3-0.3-0.6-0.3-1C117.1,62.3,117.1,61.9,117.3,61.7z M118,64.6c0,0.2,0.1,0.3,0.1,0.4
			c0.1,0.1,0.2,0.2,0.4,0.3c0.2,0.1,0.3,0.1,0.5,0.1c0.2,0,0.4,0,0.5-0.1s0.3-0.2,0.4-0.4s0.2-0.4,0.2-0.6v-3.4h0.9v3.4
			c0,0.4-0.1,0.8-0.3,1c-0.2,0.3-0.4,0.5-0.7,0.6c-0.3,0.1-0.6,0.2-1,0.2c-0.4,0-0.8-0.1-1-0.2s-0.5-0.3-0.7-0.5
			c-0.2-0.2-0.2-0.5-0.2-0.8H118z M118.1,63.2c0.1,0.2,0.2,0.3,0.4,0.4c0.2,0.1,0.4,0.1,0.6,0.1c0.2,0,0.3,0,0.5-0.1
			c0.2-0.1,0.3-0.2,0.4-0.4s0.2-0.4,0.2-0.6c0-0.2,0-0.3-0.1-0.5c-0.1-0.1-0.1-0.2-0.2-0.3c-0.1-0.1-0.2-0.2-0.3-0.2
			c-0.1,0-0.3-0.1-0.4-0.1c-0.2,0-0.4,0-0.6,0.1c-0.2,0.1-0.3,0.2-0.4,0.4s-0.2,0.4-0.2,0.6C118,62.9,118,63.1,118.1,63.2z"/>
		<path d="M122.2,59.2c0.1-0.1,0.2-0.1,0.4-0.1c0.2,0,0.3,0,0.4,0.1s0.2,0.2,0.2,0.4c0,0.1-0.1,0.2-0.2,0.3
			c-0.1,0.1-0.2,0.1-0.4,0.1c-0.1,0-0.3,0-0.4-0.1c-0.1-0.1-0.2-0.2-0.2-0.3C122.1,59.4,122.1,59.3,122.2,59.2z M123.1,60.9v3.4
			h-0.9v-3.4H123.1z"/>
		<path d="M124.9,64.2c-0.3-0.1-0.5-0.4-0.7-0.6c-0.2-0.3-0.2-0.6-0.2-0.9c0-0.4,0.1-0.7,0.2-0.9c0.2-0.3,0.4-0.5,0.7-0.6
			c0.3-0.1,0.6-0.2,1-0.2c0.4,0,0.7,0.1,1,0.2c0.3,0.1,0.5,0.3,0.6,0.6c0.1,0.3,0.2,0.6,0.2,0.9c0,0,0,0.1,0,0.1c0,0,0,0.1,0,0.1
			h-3.3v-0.6h2.5l-0.3,0.3c0,0,0-0.1,0.1-0.1c0-0.1,0-0.1,0-0.1c0-0.2,0-0.3-0.1-0.5c-0.1-0.1-0.2-0.2-0.3-0.3
			c-0.1-0.1-0.3-0.1-0.5-0.1c-0.2,0-0.4,0-0.6,0.1s-0.3,0.2-0.4,0.4c-0.1,0.2-0.1,0.4-0.1,0.6c0,0.2,0,0.5,0.1,0.6s0.2,0.3,0.4,0.4
			c0.2,0.1,0.4,0.1,0.6,0.1c0.2,0,0.4,0,0.6-0.1c0.2-0.1,0.3-0.2,0.4-0.4l0.8,0.3c-0.2,0.3-0.4,0.5-0.8,0.7s-0.7,0.2-1.1,0.2
			C125.5,64.5,125.2,64.4,124.9,64.2z"/>
		<path d="M129.2,63.6c0.1,0.1,0.2,0.2,0.4,0.2c0.1,0,0.2,0.1,0.4,0.1c0.2,0,0.3,0,0.4-0.1c0.1-0.1,0.1-0.2,0.1-0.3
			c0-0.1,0-0.2-0.1-0.3s-0.2-0.1-0.3-0.2c-0.1-0.1-0.3-0.1-0.4-0.2c-0.2-0.1-0.3-0.1-0.5-0.2s-0.3-0.2-0.4-0.3s-0.2-0.3-0.2-0.5
			c0-0.2,0.1-0.4,0.2-0.5s0.3-0.2,0.5-0.3s0.4-0.1,0.6-0.1c0.2,0,0.4,0,0.6,0.1c0.2,0.1,0.3,0.1,0.5,0.2c0.1,0.1,0.3,0.2,0.4,0.3
			l-0.5,0.5c-0.1-0.1-0.3-0.2-0.4-0.3c-0.2-0.1-0.4-0.1-0.5-0.1c-0.1,0-0.2,0-0.3,0.1s-0.1,0.1-0.1,0.2c0,0.1,0,0.2,0.1,0.2
			c0.1,0.1,0.2,0.1,0.3,0.2s0.3,0.1,0.4,0.2c0.2,0.1,0.4,0.2,0.6,0.2c0.2,0.1,0.3,0.2,0.4,0.3c0.1,0.1,0.2,0.3,0.2,0.5
			c0,0.3-0.1,0.6-0.4,0.8c-0.2,0.2-0.6,0.3-1,0.3c-0.3,0-0.5,0-0.7-0.1s-0.4-0.2-0.6-0.3c-0.2-0.1-0.3-0.2-0.4-0.4l0.5-0.5
			C128.9,63.4,129,63.5,129.2,63.6z"/>
	</g>
	<g>
		<rect x="48.9" y="38.7" width="4.3" height="16.9"/>
		<path d="M90.6,41.3h-4.3v2.8h-1.9v-2.8h-4.3v2.8h-2.1h-4.3v3.1v5.2h-2.4v-8.3h-0.2h-4.3h-2.7v-2.5h7v-2.9h-7h-3h-1.3v16.9h4.3
			v-8.3h2.7v4.9c0,1.9,1.5,3.4,3.4,3.4h0.1h1h2.4h2.3h2v-8.3h2.1v8.3h4.3v-8.3h1.9v8.3h4.3v-8.3h1.9v-3.1h-1.9V41.3z"/>
		<rect x="105.7" y="44.1" width="4.3" height="11.4"/>
		<rect x="105.7" y="38.7" width="4.3" height="3.2"/>
		<path d="M100.3,44.1h-4.3v0h-0.3c-1.6,0-3,1.3-3,3v5.5c0,1.6,1.3,3,3,3h0.3v0h4.3v0h3.4V44.1L100.3,44.1L100.3,44.1z M99.4,47.2
			v5.1h-2.4v-5.1H99.4z"/>
		<path d="M42.5,38.7h-3.5l-5.1,16.7h4.4l1.6-5.5h2.7v5.6h4.1V38.7h-3.5H42.5z M40.7,47l1.4-4.9h0.4V47H40.7z"/>
		<rect x="54" y="47" width="4.8" height="2.9"/>
		<path d="M128.7,46.3c0-1.2-1-2.2-2.2-2.2h-1h-1h-1.9h-4.3H116h-4.3v3.1v8.3h4.3v-8.3h2.2v8.3h4.3v-8.3h1.9v8.3h4.3v-8.2
			c0,0,0-0.1,0-0.1h0V46.3z"/>
	</g>
</g>
</svg>
