<?xml version="1.0" encoding="utf-8"?>
<!-- Generator: Adobe Illustrator 24.3.0, SVG Export Plug-In . SVG Version: 6.00 Build 0)  -->
<svg version="1.1" id="Layer_1" xmlns="http://www.w3.org/2000/svg" xmlns:xlink="http://www.w3.org/1999/xlink" x="0px" y="0px"
	 viewBox="0 0 164 68" style="enable-background:new 0 0 164 68;" xml:space="preserve">
<style type="text/css">
	.st0{fill:none;}
	.st1{fill:#1E1F1C;}
	.st2{fill:#020203;}
	.st3{fill:#040404;}
	.st4{fill:#0C0809;}
	.st5{fill:#211E1F;}
	.st6{fill:#FCFEFF;}
	.st7{fill:#000102;}
	.st8{fill:none;stroke:#F9F9F9;stroke-width:0.25;stroke-miterlimit:10;}
	.st9{fill:#262626;}
	.st10{fill:#000002;}
</style>
<g>
	<polygon points="102,19.2 87.5,19.7 70,2.4 85.8,2.4 	"/>
	<polygon points="70.8,37.3 85.3,37.8 102.7,20.5 86.9,20.5 	"/>
	<polygon points="60.3,19.3 68.2,12.2 75.5,19.3 	"/>
	<polygon points="60.3,20.3 68.2,27.3 75.5,20.3 	"/>
	<g>
		<path d="M69,48.6v6.9c0,0.2,0.1,0.4,0.2,0.5c0.1,0.1,0.2,0.2,0.4,0.2h0.4v1.3h-0.8c-0.6,0-1-0.2-1.3-0.6c-0.8,0.6-1.7,0.8-2.6,0.8
			c-1.3,0-2.3-0.5-3.1-1.5c-0.6-0.8-0.9-1.8-0.9-2.9c0-1.3,0.4-2.4,1.3-3.3c0.8-0.8,1.7-1.2,2.9-1.2c0.6,0,1.3,0.1,2,0.4l0.8-0.6H69
			z M67.4,50.5c-0.5-0.3-1.1-0.4-1.6-0.4c-0.9,0-1.7,0.4-2.3,1.1c-0.5,0.6-0.7,1.3-0.7,2.1c0,1,0.2,1.8,0.7,2.3
			c0.5,0.5,1.1,0.8,1.8,0.8c0.7,0,1.4-0.2,2.1-0.5V50.5z M65.8,45c0.2,0,0.5,0.1,0.6,0.3c0.2,0.2,0.3,0.4,0.3,0.6
			c0,0.3-0.1,0.5-0.3,0.7c-0.2,0.2-0.4,0.3-0.6,0.3s-0.5-0.1-0.6-0.3c-0.2-0.2-0.3-0.4-0.3-0.7c0-0.2,0.1-0.5,0.3-0.6
			C65.4,45.1,65.6,45,65.8,45z M68,45c0.3,0,0.5,0.1,0.7,0.3s0.3,0.4,0.3,0.6c0,0.3-0.1,0.5-0.3,0.7s-0.4,0.3-0.7,0.3
			c-0.2,0-0.5-0.1-0.6-0.3c-0.2-0.2-0.3-0.4-0.3-0.7c0-0.2,0.1-0.5,0.3-0.6C67.6,45.1,67.8,45,68,45z"/>
		<path d="M74.6,49.1v6.7c0,0.1,0,0.3-0.1,0.4h1v1.3h-0.7l-0.5-0.6h-0.1c-0.3,0.4-0.8,0.6-1.3,0.6h-3.2v-1.3h2.6
			c0.2,0,0.4-0.1,0.5-0.2c0.1-0.1,0.2-0.3,0.2-0.5v-6.5H74.6z M71.5,59.4c0.2,0,0.5,0.1,0.6,0.3s0.3,0.4,0.3,0.6
			c0,0.3-0.1,0.5-0.3,0.7s-0.4,0.3-0.6,0.3S71,61.2,70.8,61s-0.3-0.4-0.3-0.7c0-0.2,0.1-0.5,0.3-0.6S71.2,59.4,71.5,59.4z
			 M73.7,59.4c0.3,0,0.5,0.1,0.7,0.3c0.2,0.2,0.3,0.4,0.3,0.6c0,0.3-0.1,0.5-0.3,0.7c-0.2,0.2-0.4,0.3-0.7,0.3
			c-0.2,0-0.5-0.1-0.6-0.3s-0.3-0.4-0.3-0.7c0-0.2,0.1-0.5,0.3-0.6S73.5,59.4,73.7,59.4z"/>
		<path d="M80.3,49.1v6.7c0,0.1,0,0.3-0.1,0.4h1v1.3h-0.7L80,56.9h-0.1c-0.3,0.4-0.8,0.6-1.3,0.6h-3.2v-1.3H78
			c0.2,0,0.4-0.1,0.5-0.2c0.1-0.1,0.2-0.3,0.2-0.5v-6.5H80.3z M79.5,45c0.3,0,0.5,0.1,0.7,0.3s0.3,0.4,0.3,0.6
			c0,0.3-0.1,0.5-0.3,0.7s-0.4,0.3-0.7,0.3c-0.2,0-0.5-0.1-0.6-0.3c-0.2-0.2-0.3-0.4-0.3-0.7c0-0.2,0.1-0.5,0.3-0.6
			C79,45.1,79.3,45,79.5,45z"/>
		<path d="M85.1,56.2c-0.8-0.8-1.2-1.9-1.2-3.1c0-1.2,0.3-2.2,1-2.9c0.7-0.9,1.7-1.3,3-1.3c1,0,1.8,0.3,2.5,0.9
			c1,0.8,1.4,1.9,1.4,3.4c0,1.2-0.4,2.3-1.2,3.1h1.6v1.3h-2.6h-0.2c-0.7,0-1.2,0-1.5-0.1h-0.1c-0.3,0.1-0.8,0.1-1.5,0.1h-0.2h-5
			v-1.3H85.1z M87.9,50.2c-0.7,0-1.3,0.3-1.8,0.8s-0.6,1.3-0.6,2.2c0,0.8,0.2,1.6,0.7,2.2c0.5,0.6,1,0.9,1.7,0.9
			c0.7,0,1.2-0.3,1.7-0.9s0.7-1.3,0.7-2.2c0-0.9-0.2-1.7-0.6-2.2S88.6,50.2,87.9,50.2z M88,45c0.2,0,0.5,0.1,0.6,0.3
			s0.3,0.4,0.3,0.6c0,0.3-0.1,0.5-0.3,0.7s-0.4,0.3-0.6,0.3c-0.3,0-0.5-0.1-0.6-0.3c-0.2-0.2-0.3-0.4-0.3-0.7c0-0.2,0.1-0.5,0.3-0.6
			C87.5,45.1,87.7,45,88,45z"/>
		<path d="M97,44.4v11.4c0,0.5-0.2,0.9-0.5,1.2c-0.3,0.4-0.7,0.5-1.2,0.5h-3.2v-1.3h2.6c0.2,0,0.4-0.1,0.5-0.2
			c0.1-0.1,0.2-0.3,0.2-0.5V44.4H97z"/>
		<path d="M102.9,44.4v13l-0.8,0.6h-0.8V44.4H102.9z"/>
	</g>
	<g>
		<path d="M79.3,62h-1.6l-0.5,1.3h-0.6l1.5-4.2h0.7l1.5,4.2h-0.6L79.3,62z M79.1,61.6l-0.7-1.9l-0.7,1.9H79.1z"/>
		<path d="M81.4,59v4.2h-0.5V59H81.4z"/>
		<path d="M83.4,60.2v0.4h-0.5v2.6h-0.5v-2.6H82v-0.4h0.4v-0.5c0-0.2,0.1-0.4,0.2-0.5c0.1-0.1,0.3-0.2,0.5-0.2c0.1,0,0.2,0,0.3,0
			v0.4h-0.1c0,0-0.1,0-0.1,0c-0.2,0-0.3,0.1-0.3,0.3v0.5H83.4z"/>
		<path d="M86.7,62.9v0.4c-0.1,0-0.2,0.1-0.3,0.1c-0.3,0-0.5-0.1-0.5-0.4c-0.2,0.3-0.6,0.4-1,0.4c-0.3,0-0.6-0.1-0.8-0.3
			c-0.2-0.2-0.2-0.4-0.2-0.6c0-0.3,0.1-0.5,0.3-0.7c0.1-0.1,0.4-0.2,0.7-0.3l1-0.2l0-0.3c0-0.3-0.2-0.5-0.7-0.5
			c-0.4,0-0.7,0.2-0.7,0.5H84c0-0.3,0.1-0.5,0.2-0.6c0.2-0.2,0.5-0.4,1-0.4c0.8,0,1.1,0.3,1.1,0.8v1.7c0,0.1,0.1,0.2,0.2,0.2
			C86.6,62.9,86.6,62.9,86.7,62.9C86.7,62.9,86.7,62.9,86.7,62.9z M85.9,61.7l-0.8,0.2c-0.3,0.1-0.5,0.1-0.6,0.2
			c-0.1,0.1-0.2,0.2-0.2,0.3c0,0.3,0.2,0.5,0.6,0.5c0.3,0,0.5-0.1,0.7-0.3c0.1-0.1,0.2-0.2,0.2-0.4V61.7z"/>
		<path d="M87.4,60.2h0.4v0.5c0.2-0.4,0.6-0.6,1-0.6c0.3,0,0.5,0.1,0.7,0.2s0.3,0.3,0.3,0.6v2.3h-0.5v-2.1c0-0.2-0.1-0.3-0.2-0.4
			c-0.1-0.1-0.3-0.2-0.5-0.2c-0.3,0-0.5,0.1-0.6,0.3c-0.2,0.2-0.2,0.4-0.2,0.7v1.7h-0.5V60.2z"/>
		<path d="M93.3,61.9H91c0,0.3,0.1,0.5,0.2,0.6c0.2,0.2,0.4,0.4,0.7,0.4c0.4,0,0.7-0.2,0.8-0.6h0.5c-0.1,0.3-0.2,0.6-0.4,0.7
			s-0.5,0.3-0.9,0.3c-0.5,0-0.8-0.2-1.1-0.5c-0.2-0.3-0.3-0.6-0.3-1.1c0-0.5,0.1-0.9,0.4-1.2c0.2-0.3,0.6-0.4,1-0.4
			c0.3,0,0.5,0.1,0.8,0.2s0.4,0.3,0.5,0.6C93.2,61.2,93.3,61.5,93.3,61.9L93.3,61.9z M92.7,61.5c0-0.3-0.1-0.5-0.2-0.6
			c-0.2-0.2-0.4-0.2-0.6-0.2c-0.2,0-0.5,0.1-0.6,0.2c-0.2,0.2-0.2,0.4-0.3,0.6H92.7z"/>
		<path d="M95.9,60.2h0.5l-1.4,3.7c-0.2,0.4-0.4,0.6-0.8,0.6c-0.2,0-0.3,0-0.5-0.1l0.1-0.4c0.1,0,0.2,0.1,0.3,0.1
			c0.2,0,0.3-0.1,0.4-0.3l0.2-0.5l-1-3h0.5l0.8,2.4L95.9,60.2z"/>
		<path d="M99.8,62.9v0.4c-0.1,0-0.2,0.1-0.3,0.1c-0.3,0-0.5-0.1-0.5-0.4c-0.2,0.3-0.6,0.4-1,0.4c-0.3,0-0.6-0.1-0.8-0.3
			c-0.2-0.2-0.2-0.4-0.2-0.6c0-0.3,0.1-0.5,0.3-0.7c0.1-0.1,0.4-0.2,0.7-0.3l1-0.2l0-0.3c0-0.3-0.2-0.5-0.7-0.5
			c-0.4,0-0.7,0.2-0.7,0.5H97c0-0.3,0.1-0.5,0.2-0.6c0.2-0.2,0.5-0.4,1-0.4c0.8,0,1.1,0.3,1.1,0.8v1.7c0,0.1,0.1,0.2,0.2,0.2
			C99.6,62.9,99.6,62.9,99.8,62.9C99.7,62.9,99.7,62.9,99.8,62.9z M98.9,61.7l-0.8,0.2c-0.3,0.1-0.5,0.1-0.6,0.2
			c-0.1,0.1-0.2,0.2-0.2,0.3c0,0.3,0.2,0.5,0.6,0.5c0.3,0,0.5-0.1,0.7-0.3c0.1-0.1,0.2-0.2,0.2-0.4V61.7z"/>
		<path d="M100.4,59h0.5v1.6c0.1-0.2,0.3-0.3,0.4-0.4c0.1-0.1,0.3-0.1,0.5-0.1c0.3,0,0.5,0.1,0.7,0.2s0.3,0.3,0.3,0.6v2.3h-0.5v-2.1
			c0-0.2-0.1-0.4-0.2-0.5c-0.1-0.1-0.3-0.1-0.4-0.1c-0.2,0-0.4,0.1-0.6,0.3c-0.2,0.2-0.2,0.4-0.2,0.7v1.7h-0.5V59z"/>
	</g>
</g>
</svg>
