<?xml version="1.0" encoding="utf-8"?>
<!-- Generator: Adobe Illustrator 24.3.0, SVG Export Plug-In . SVG Version: 6.00 Build 0)  -->
<svg version="1.1" id="Layer_1" xmlns="http://www.w3.org/2000/svg" xmlns:xlink="http://www.w3.org/1999/xlink" x="0px" y="0px"
	 viewBox="0 0 164 68" style="enable-background:new 0 0 164 68;" xml:space="preserve">
<style type="text/css">
	.st0{fill:none;}
	.st1{fill:#1E1F1C;}
	.st2{fill:#020203;}
	.st3{fill:#040404;}
	.st4{fill:#0C0809;}
	.st5{fill:#211E1F;}
	.st6{fill:#FCFEFF;}
	.st7{fill:#000102;}
	.st8{fill:none;stroke:#F9F9F9;stroke-width:0.25;stroke-miterlimit:10;}
	.st9{fill:#262626;}
	.st10{fill:#000002;}
</style>
<g>
	<g>
		<path d="M36.9,6.2v7.7H25.8V3.4c0.2,0,0.4,0,0.5,0C30.2,3.4,33.8,4.4,36.9,6.2z"/>
		<path d="M25.4,3.4v10.5H14.8V7C17.9,4.8,21.5,3.5,25.4,3.4z"/>
		<path d="M14.3,7v6.9H7.7C9.3,11.1,11.6,8.7,14.3,7z"/>
		<path d="M14.2,14.5v10.6H4.5c0-3.9,1.1-7.5,3.1-10.6H14.2z"/>
		<path d="M14.2,25.5v10.8H7.6c-2-3.1-3.1-6.8-3.1-10.8H14.2z"/>
		<path d="M14.2,36.7v6.8c-2.7-1.7-5-4-6.6-6.8H14.2z"/>
		<path d="M25.7,36.7v10.5c-4-0.1-7.7-1.4-10.9-3.6v-6.9H25.7z"/>
		<path d="M48.2,24.9H37.3V14.5h7.9C47.1,17.5,48.2,21.1,48.2,24.9z"/>
		<path d="M45.2,13.9h-7.9V6.5C40.5,8.3,43.3,10.8,45.2,13.9z"/>
		<path d="M48.2,25.5c0,3.9-1.1,7.6-3.1,10.8c-0.9,1.4-2,2.9-3.2,4.1l-4.7-4.1V25.5H48.2z"/>
		<path d="M36.8,14.5v10.6H35c-5.1,0-9.2-4-9.2-9v-1.6H36.8z"/>
		<path d="M25.5,14.5v2.7c0,4.4-3.5,7.9-7.8,7.9h-2.9V14.5H25.5z"/>
		<path d="M25.5,34.4V36H14.8V25.5h1.9C21.5,25.5,25.5,29.5,25.5,34.4z"/>
		<path d="M36.9,25.5v10.4l-8.1-8.3c1.5-1.3,3.5-2.1,5.6-2.1H36.9z"/>
		<path d="M46.8,47.5c-2,0-4,0-6,0c-4.8,0-9.6,0-14.3-0.1c0-0.9,0-1.8,0-2.7H44C45,45.6,45.9,46.6,46.8,47.5z"/>
		<path d="M43.1,43.8H26.5c0-0.9,0-1.8,0-2.8h14C41.3,41.9,42.2,42.8,43.1,43.8z"/>
		<path d="M39.1,39.7H26.4c0-0.9,0-1.8,0-2.7h10C37.3,37.9,38.2,38.8,39.1,39.7z"/>
		<path d="M35.5,36h-9.1c0-0.9,0-1.8,0-2.6h6.5C33.7,34.2,34.6,35.1,35.5,36z"/>
		<path d="M32.1,32.6h-5.7c0-0.8,0-1.7,0-2.5h3.2C30.4,30.9,31.2,31.7,32.1,32.6z"/>
		<path d="M28.1,28.5h-1.8c0-0.6,0-1.2,0-1.8C26.9,27.3,27.5,27.9,28.1,28.5z"/>
	</g>
	<g>
		<path d="M64.2,22.4c0,3.1-1.6,4.6-4.7,4.6c-0.5,0-1.1,0-1.7-0.1V28l1.3,1.6c0.4,0,0.7,0.1,0.9,0.1c0.7,0,1.4-0.1,2-0.2
			c1.4-0.3,2.5-0.9,3.4-1.7c1.4-1.2,2-2.9,2-5.1V11h-3.3V22.4z"/>
		<path d="M103.3,10.3c0.5,0,0.9-0.2,1.2-0.5c0.3-0.3,0.5-0.7,0.5-1.2c0-0.5-0.2-0.9-0.5-1.2c-0.3-0.3-0.7-0.5-1.2-0.5
			c-0.5,0-0.9,0.2-1.2,0.5c-0.3,0.3-0.5,0.7-0.5,1.2c0,0.5,0.2,0.9,0.5,1.2C102.5,10.2,102.9,10.3,103.3,10.3z"/>
		<path d="M133.5,8.7c0.5,0,0.9-0.2,1.2-0.5c0.3-0.3,0.5-0.7,0.5-1.2c0-0.5-0.2-0.9-0.5-1.2c-0.3-0.3-0.7-0.5-1.2-0.5
			c-0.5,0-0.9,0.2-1.2,0.5c-0.3,0.3-0.5,0.7-0.5,1.2c0,0.5,0.2,0.9,0.5,1.2C132.6,8.5,133,8.7,133.5,8.7z"/>
		<path d="M144.7,19.9c0,0.2-0.1,0.3-0.2,0.5c-0.1,0.1-0.3,0.2-0.5,0.2h-3.9h-0.2h-1.7c0.8-1.1,1.2-2.4,1.2-3.9
			c0-1.8-0.6-3.3-1.9-4.5c-1.1-1-2.4-1.5-4-1.5c-2.1,0-3.7,0.8-4.9,2.5c-0.7,1-1,2.2-1,3.5c0,1.5,0.4,2.8,1.2,3.9h-5.1h-0.2h-1.2
			v-0.4V11h-3.2v8.8c0,0.2-0.1,0.4-0.2,0.5c-0.1,0.1-0.3,0.2-0.5,0.2h-3.8h-0.2h-4.6h-0.2H105h-0.2h-4.6h-0.2h-4.6h-0.2h-4.6h-0.2
			H86h-0.2h-4.6h-0.2H81h-4.6h-0.1H76h-0.5c-0.2,0-0.4-0.1-0.5-0.2c-0.1-0.1-0.2-0.2-0.2-0.4V4.2h-3.3v16.2c0,0.9,0.3,1.6,1,2.2
			c0.6,0.5,1.2,0.8,1.9,0.8H76h0.2h0.1H81h0.1h0.2h4.6H86h4.6h0.2h4.6h0.2h4.6h0.2h4.6h0.2h4.6h0.2h4.6h0.2h5c0.9,0,1.7-0.4,2.3-1.1
			h0.1l1,1.1h0.7h0.2h7.2c1.2,0,2-0.1,2.5-0.3h0.1c0.5,0.2,1.4,0.3,2.5,0.3h3.8h0.2h5c0.9,0,1.6-0.3,2.2-1c0.5-0.5,0.7-1.2,0.7-1.9
			V4.2h-3.2V19.9z M135.4,19.5c-0.5,0.6-1.1,1-1.9,1.1c-0.8-0.1-1.4-0.5-1.9-1.1c-0.5-0.6-0.7-1.5-0.7-2.5c0-1.1,0.2-1.9,0.7-2.6
			c0.5-0.6,1.1-1,1.9-1c0.8,0,1.5,0.3,1.9,1c0.5,0.6,0.7,1.5,0.7,2.6C136.2,18,135.9,18.8,135.4,19.5z"/>
		<polygon points="152.1,4.2 152.1,24 153.7,24 155.3,22.6 155.3,4.2 		"/>
	</g>
	<g>
		<path d="M70.8,48.7v-2.6c-0.1,0.3-0.3,0.6-0.8,1.1c-0.4,0.5-1,0.9-1.7,1.3c-0.7,0.4-1.6,0.6-2.5,0.6c-1.2,0-2.4-0.3-3.4-0.9
			c-1-0.6-1.8-1.4-2.4-2.5c-0.6-1.1-0.9-2.3-0.9-3.7c0-1.4,0.3-2.7,0.9-3.7c0.6-1.1,1.4-1.9,2.4-2.5c1-0.6,2.1-0.9,3.4-0.9
			c1,0,1.8,0.2,2.5,0.5c0.7,0.3,1.3,0.7,1.7,1.2s0.7,0.8,0.8,1.2v-2.5h2.8v13.3H70.8z M62,42.1c0,1,0.2,1.8,0.6,2.5
			c0.4,0.7,1,1.2,1.6,1.6c0.7,0.4,1.4,0.6,2.2,0.6c0.8,0,1.6-0.2,2.2-0.6c0.7-0.4,1.2-0.9,1.5-1.6c0.4-0.7,0.6-1.5,0.6-2.5
			c0-0.9-0.2-1.8-0.6-2.5c-0.4-0.7-0.9-1.3-1.5-1.7c-0.7-0.4-1.4-0.6-2.2-0.6c-0.8,0-1.5,0.2-2.2,0.6c-0.7,0.4-1.2,0.9-1.6,1.6
			C62.2,40.3,62,41.1,62,42.1z"/>
		<path d="M80.9,48.7h-2.8V26.4h2.8V48.7z"/>
		<path d="M84.3,35.4h2.7v-3.8c0-1.4,0.2-2.4,0.7-3.3c0.5-0.8,1.1-1.4,1.8-1.8c0.7-0.4,1.5-0.6,2.3-0.6c0.9,0,1.7,0.1,2.2,0.4
			c0.5,0.3,0.8,0.4,0.9,0.5l-1.1,2.2c-0.1-0.1-0.2-0.2-0.5-0.4c-0.3-0.2-0.7-0.3-1.2-0.3c-0.4,0-0.7,0.1-1,0.3
			c-0.3,0.2-0.6,0.5-0.8,1c-0.2,0.5-0.3,1.2-0.3,2.2v3.5h3.8v2.4h-3.8v10.9h-2.8V37.8h-2.7V35.4z"/>
		<path d="M107.6,48.7v-2.6c-0.1,0.3-0.3,0.6-0.8,1.1c-0.4,0.5-1,0.9-1.7,1.3c-0.7,0.4-1.6,0.6-2.5,0.6c-1.2,0-2.4-0.3-3.4-0.9
			c-1-0.6-1.8-1.4-2.4-2.5c-0.6-1.1-0.9-2.3-0.9-3.7c0-1.4,0.3-2.7,0.9-3.7c0.6-1.1,1.4-1.9,2.4-2.5c1-0.6,2.1-0.9,3.4-0.9
			c1,0,1.8,0.2,2.5,0.5c0.7,0.3,1.3,0.7,1.7,1.2s0.7,0.8,0.8,1.2v-2.5h2.8v13.3H107.6z M98.7,42.1c0,1,0.2,1.8,0.6,2.5
			c0.4,0.7,1,1.2,1.6,1.6c0.7,0.4,1.4,0.6,2.2,0.6c0.8,0,1.6-0.2,2.2-0.6c0.7-0.4,1.2-0.9,1.5-1.6c0.4-0.7,0.6-1.5,0.6-2.5
			c0-0.9-0.2-1.8-0.6-2.5c-0.4-0.7-0.9-1.3-1.5-1.7c-0.7-0.4-1.4-0.6-2.2-0.6c-0.8,0-1.5,0.2-2.2,0.6c-0.7,0.4-1.2,0.9-1.6,1.6
			C98.9,40.3,98.7,41.1,98.7,42.1z"/>
		<path d="M122.2,35c0.9,0,1.7,0.2,2.6,0.6c0.8,0.4,1.5,1,2,1.7c0.5,0.8,0.8,1.8,0.8,3.1v8.3h-2.9V41c0-1.3-0.3-2.3-0.9-2.9
			c-0.6-0.6-1.4-0.9-2.4-0.9c-0.6,0-1.3,0.2-1.8,0.5s-1.1,0.9-1.5,1.5c-0.4,0.6-0.6,1.4-0.6,2.2v7.4h-2.8V35.4h2.8v2.4
			c0.1-0.4,0.4-0.8,0.8-1.2c0.4-0.4,1-0.8,1.7-1.1S121.4,35,122.2,35z"/>
		<path d="M142.7,48.7v-2.6c-0.1,0.3-0.3,0.6-0.8,1.1c-0.4,0.5-1,0.9-1.7,1.3c-0.7,0.4-1.6,0.6-2.5,0.6c-1.2,0-2.4-0.3-3.4-0.9
			c-1-0.6-1.8-1.4-2.4-2.5c-0.6-1.1-0.9-2.3-0.9-3.7c0-1.4,0.3-2.7,0.9-3.7c0.6-1.1,1.4-1.9,2.4-2.5c1-0.6,2.1-0.9,3.4-0.9
			c1,0,1.8,0.2,2.5,0.5c0.7,0.3,1.3,0.7,1.7,1.2s0.7,0.8,0.8,1.2v-2.5h2.8v13.3H142.7z M133.8,42.1c0,1,0.2,1.8,0.6,2.5
			c0.4,0.7,1,1.2,1.6,1.6c0.7,0.4,1.4,0.6,2.2,0.6c0.8,0,1.6-0.2,2.2-0.6c0.7-0.4,1.2-0.9,1.5-1.6c0.4-0.7,0.6-1.5,0.6-2.5
			c0-0.9-0.2-1.8-0.6-2.5c-0.4-0.7-0.9-1.3-1.5-1.7c-0.7-0.4-1.4-0.6-2.2-0.6c-0.8,0-1.5,0.2-2.2,0.6c-0.7,0.4-1.2,0.9-1.6,1.6
			C134,40.3,133.8,41.1,133.8,42.1z"/>
		<path d="M152.6,48.7h-2.8V35.4h2.8v2.3h-0.1c0.1-0.3,0.3-0.6,0.6-1.1c0.3-0.4,0.8-0.8,1.4-1.1c0.6-0.3,1.3-0.5,2.2-0.5
			c0.6,0,1.2,0.1,1.6,0.3c0.5,0.2,0.8,0.3,1,0.5l-1.2,2.3c-0.2-0.2-0.4-0.3-0.8-0.5c-0.4-0.2-0.9-0.2-1.4-0.2
			c-0.7,0-1.3,0.2-1.8,0.7c-0.5,0.4-0.9,1-1.2,1.6s-0.4,1.2-0.4,1.7V48.7z"/>
	</g>
	<g>
		<path d="M96.1,52.8h2.5c0.6,0,1.1,0.1,1.5,0.3c0.4,0.2,0.8,0.5,1.1,0.8c0.3,0.4,0.4,0.9,0.4,1.5c0,0.6-0.1,1.1-0.4,1.5
			c-0.3,0.4-0.6,0.7-1.1,0.9c-0.4,0.2-0.9,0.3-1.5,0.3h-1.4v3.5h-1.1V52.8z M97.3,57.2h1c0.4,0,0.7-0.1,1-0.2
			c0.3-0.1,0.6-0.3,0.7-0.6s0.3-0.6,0.3-1c0-0.4-0.1-0.8-0.3-1s-0.4-0.4-0.7-0.5c-0.3-0.1-0.7-0.2-1-0.2h-1V57.2z"/>
		<path d="M103.3,52.8h3.1c0.5,0,0.9,0.1,1.3,0.3c0.4,0.2,0.7,0.5,0.9,0.9c0.2,0.4,0.4,0.8,0.4,1.4c0,0.5-0.1,1-0.3,1.4
			c-0.2,0.4-0.5,0.6-0.8,0.8c-0.3,0.2-0.6,0.3-0.8,0.3l2.2,3.8h-1.3l-2.1-3.7h-1.4v3.7h-1.1V52.8z M104.4,57.1h1.5
			c0.5,0,1-0.1,1.3-0.4c0.3-0.3,0.5-0.7,0.5-1.3s-0.2-1-0.5-1.3s-0.8-0.4-1.3-0.4h-1.6V57.1z"/>
		<path d="M110.6,57.2c0-0.6,0.1-1.2,0.3-1.8c0.2-0.6,0.5-1,0.9-1.5c0.4-0.4,0.9-0.7,1.4-1c0.5-0.2,1.1-0.3,1.7-0.3
			c0.6,0,1.2,0.1,1.7,0.3c0.5,0.2,1,0.6,1.4,1c0.4,0.4,0.7,0.9,0.9,1.5c0.2,0.6,0.3,1.2,0.3,1.8c0,0.6-0.1,1.3-0.3,1.8
			c-0.2,0.6-0.5,1-0.9,1.5c-0.4,0.4-0.9,0.7-1.4,1c-0.5,0.2-1.1,0.3-1.8,0.3s-1.2-0.1-1.8-0.3c-0.5-0.2-1-0.6-1.4-1
			c-0.4-0.4-0.7-0.9-0.9-1.5S110.6,57.9,110.6,57.2z M111.8,57.2c0,0.7,0.1,1.3,0.4,1.8s0.7,0.9,1.1,1.3c0.5,0.3,1,0.5,1.7,0.5
			c0.6,0,1.2-0.2,1.7-0.5c0.5-0.3,0.9-0.7,1.1-1.3c0.3-0.5,0.4-1.1,0.4-1.8s-0.1-1.2-0.4-1.8c-0.3-0.5-0.7-0.9-1.1-1.3
			c-0.5-0.3-1-0.5-1.7-0.5c-0.6,0-1.2,0.2-1.7,0.5s-0.9,0.7-1.1,1.3C111.9,56,111.8,56.6,111.8,57.2z"/>
		<path d="M124.6,59c0,0.6-0.1,1.1-0.3,1.5c-0.2,0.4-0.5,0.8-0.8,1c-0.4,0.2-0.8,0.3-1.4,0.3c-0.4,0-0.8-0.1-1.1-0.2
			s-0.5-0.2-0.7-0.4c-0.2-0.1-0.3-0.2-0.3-0.3l0.5-1c0,0.1,0.1,0.2,0.2,0.3c0.1,0.1,0.3,0.2,0.4,0.3s0.4,0.1,0.7,0.1
			c0.3,0,0.6-0.1,0.8-0.2c0.2-0.2,0.4-0.4,0.5-0.7s0.1-0.6,0.1-1v-6h1.1V59z"/>
		<path d="M126.4,52.8h5.2v1h-4.1v2.9h4v1h-4v2.9h4.1v1h-5.2V52.8z"/>
		<path d="M138.1,60.7c0.6,0,1-0.1,1.4-0.2s0.7-0.3,0.9-0.4l0.5,1c-0.2,0.2-0.6,0.4-1.1,0.5s-1.1,0.3-1.8,0.3
			c-0.7,0-1.3-0.1-1.8-0.3c-0.6-0.2-1-0.6-1.5-1c-0.4-0.4-0.7-0.9-1-1.5c-0.2-0.6-0.4-1.2-0.4-1.8s0.1-1.2,0.3-1.8
			c0.2-0.6,0.6-1,1-1.5c0.4-0.4,0.9-0.7,1.5-1c0.6-0.2,1.2-0.4,1.8-0.4c0.7,0,1.3,0.1,1.8,0.3s0.8,0.4,1.1,0.5l-0.5,1
			c-0.2-0.1-0.5-0.3-0.9-0.4c-0.4-0.1-0.9-0.2-1.4-0.2c-0.5,0-1,0.1-1.4,0.3c-0.4,0.2-0.8,0.4-1.1,0.7c-0.3,0.3-0.5,0.7-0.7,1.1
			c-0.2,0.4-0.3,0.9-0.3,1.4c0,0.5,0.1,1,0.3,1.4s0.4,0.8,0.7,1.1c0.3,0.3,0.7,0.6,1.1,0.7C137.1,60.6,137.6,60.7,138.1,60.7z"/>
		<path d="M144.3,53.9h-2.4v-1h5.9v1h-2.4v7.8h-1.2V53.9z"/>
		<path d="M152.1,52.7c0.5,0,1,0.1,1.3,0.2c0.4,0.1,0.7,0.2,0.9,0.4c0.2,0.1,0.3,0.2,0.4,0.3l-0.6,0.9c-0.1-0.1-0.2-0.1-0.4-0.3
			c-0.2-0.1-0.4-0.2-0.6-0.3s-0.5-0.1-0.9-0.1c-0.5,0-0.9,0.1-1.2,0.3c-0.3,0.2-0.4,0.5-0.4,0.9c0,0.3,0.1,0.5,0.2,0.7
			s0.4,0.4,0.7,0.5c0.3,0.2,0.6,0.3,1,0.5c0.3,0.1,0.6,0.3,0.9,0.4c0.3,0.2,0.6,0.4,0.8,0.6c0.2,0.2,0.4,0.5,0.6,0.8
			c0.1,0.3,0.2,0.6,0.2,1c0,0.4-0.1,0.7-0.2,1c-0.2,0.3-0.4,0.6-0.7,0.8c-0.3,0.2-0.6,0.4-1,0.5c-0.4,0.1-0.8,0.2-1.2,0.2
			c-0.5,0-1-0.1-1.5-0.2c-0.4-0.1-0.8-0.3-1.1-0.4c-0.3-0.1-0.4-0.2-0.5-0.3l0.6-1c0.1,0,0.2,0.1,0.3,0.2c0.1,0.1,0.3,0.2,0.5,0.3
			c0.2,0.1,0.4,0.2,0.7,0.2c0.3,0.1,0.5,0.1,0.8,0.1c0.6,0,1.1-0.1,1.4-0.4s0.5-0.6,0.5-1c0-0.3-0.1-0.6-0.3-0.8s-0.5-0.4-0.8-0.6
			c-0.3-0.2-0.7-0.4-1.1-0.5c-0.4-0.2-0.8-0.4-1.1-0.6c-0.3-0.2-0.6-0.5-0.8-0.8c-0.2-0.3-0.3-0.7-0.3-1.1c0-0.4,0.1-0.8,0.4-1.1
			c0.2-0.3,0.6-0.6,1-0.8S151.6,52.7,152.1,52.7z"/>
	</g>
</g>
</svg>
