<?xml version="1.0" encoding="utf-8"?>
<!-- Generator: Adobe Illustrator 24.3.0, SVG Export Plug-In . SVG Version: 6.00 Build 0)  -->
<svg version="1.1" id="Layer_1" xmlns="http://www.w3.org/2000/svg" xmlns:xlink="http://www.w3.org/1999/xlink" x="0px" y="0px"
	 viewBox="0 0 164 68" style="enable-background:new 0 0 164 68;" xml:space="preserve">
<style type="text/css">
	.st0{fill:none;}
	.st1{fill:#1E1F1C;}
	.st2{fill:#020203;}
	.st3{fill:#040404;}
	.st4{fill:#0C0809;}
	.st5{fill:#211E1F;}
	.st6{fill:#FCFEFF;}
	.st7{fill:#000102;}
	.st8{fill:none;stroke:#F9F9F9;stroke-width:0.25;stroke-miterlimit:10;}
	.st9{fill:#262626;}
	.st10{fill:#000002;}
</style>
<g>
	<polygon class="st4" points="90,26.3 99.8,26.4 96.7,1.5 90,9.2 	"/>
	<polygon class="st4" points="99.8,26.4 97.1,23.9 97.1,17.1 107.7,19.9 	"/>
	<rect x="96.7" y="1.5" class="st5" width="11" height="18.4"/>
	<rect x="63.2" y="27.6" class="st5" width="11" height="18.4"/>
	<polygon class="st4" points="74.1,46 80.8,38 80.8,21 74.1,27.9 	"/>
	
		<rect x="92.8" y="31.3" transform="matrix(-1.836970e-16 1 -1 -1.836970e-16 138.7475 -57.7657)" class="st5" width="11" height="18.4"/>
	
		<rect x="66.5" y="-2.2" transform="matrix(-1.836970e-16 1 -1 -1.836970e-16 78.9869 -64.9625)" class="st5" width="11" height="18.4"/>
	<polygon class="st4" points="82.8,27.9 82.8,38.9 89.1,46 89.1,35 	"/>
	<polygon class="st4" points="81.2,1.5 81.2,12.5 87.4,19.6 87.4,8.6 	"/>
	<polygon class="st4" points="82.8,27.9 89.1,35 107.4,35 99.8,27.9 	"/>
	<polygon class="st4" points="62.8,12.5 69.1,19.6 87.4,19.6 81.2,12.5 	"/>
	<polygon class="st4" points="70.9,21 63.2,27.6 74.1,27.9 80.8,21 	"/>
	<g>
		<path d="M65.6,54h-1.4c-0.2,0-0.3,0-0.4,0.1s-0.2,0.2-0.2,0.2c0,0.1,0.2,0.1,0.5,0.2c0.4,0.1,0.7,0.2,0.8,0.3s0.2,0.2,0.2,0.3
			c0,0.1-0.1,0.3-0.2,0.6s-0.3,0.6-0.4,0.7s-0.3,0.3-0.6,0.4s-0.6,0.2-1,0.3s-0.7,0.1-0.9,0.1c-0.5,0-0.9-0.1-1.3-0.4
			s-0.5-0.7-0.5-1.4c0-0.4,0.1-0.9,0.3-1.3s0.4-0.6,0.5-0.6c0,0,0,0,0,0c0,0,0,0.1-0.1,0.3c-0.2,0.5-0.4,0.9-0.4,1.2
			c0,0.4,0.2,0.7,0.5,0.9c0.3,0.2,0.7,0.4,1.2,0.4c0.4,0,0.9-0.1,1.5-0.2s0.8-0.3,0.8-0.4c0-0.1-0.2-0.2-0.6-0.3
			c-0.6-0.2-0.9-0.3-0.9-0.5c0-0.3,0.1-0.7,0.3-1s0.4-0.6,0.6-0.7s0.6-0.2,1-0.2h0.5V54z M63.4,57.7l0.7,0.5l-0.5,0.7l-0.7-0.5
			L62.3,59l-0.6-0.5l0.5-0.7l0.7,0.5L63.4,57.7z"/>
		<path d="M64.6,53H68v1h-2.6c-0.1,0-0.3-0.1-0.4-0.3S64.7,53.3,64.6,53z"/>
		<path d="M65.3,53h3.4v1h-2.6c-0.1,0-0.3-0.1-0.4-0.3S65.4,53.3,65.3,53z"/>
		<path d="M67.8,53h3.4v1h-2.6c-0.1,0-0.3-0.1-0.4-0.3S67.9,53.3,67.8,53z"/>
		<path d="M70.3,53h3.4v1h-2.6c-0.1,0-0.3-0.1-0.4-0.3S70.4,53.3,70.3,53z"/>
		<path d="M74.6,53c0.6,0,0.9-0.1,0.9-0.2c0,0,0-0.1-0.1-0.3c-0.1-0.3-0.2-0.5-0.3-0.7l0.6-0.7c0.3,0.5,0.4,1,0.4,1.3
			c0,0.2-0.1,0.4-0.2,0.7s-0.3,0.4-0.4,0.5s-0.3,0.2-0.6,0.3S74.3,54,73.8,54c-0.1,0-0.3-0.1-0.5-0.2s-0.3-0.4-0.5-0.7H74.6z
			 M75.1,48.8l0.7,0.7l-0.7,0.7l-0.7-0.7L75.1,48.8z"/>
		<path d="M79,54c-0.5,0-0.9-0.1-1.1-0.4s-0.3-0.6-0.3-1.1c0-0.1,0-0.2,0-0.4c0-0.2,0-0.4,0-0.5c0-1.2-0.1-2.1-0.2-2.8l0.5-0.6
			c0.1,0.7,0.2,1.5,0.2,2.4c0,0.1,0,0.5,0,1.1c0,0.3,0,0.5,0,0.6c0,0.3,0,0.5,0.1,0.7s0.3,0.2,0.6,0.2H79V54z"/>
		<path d="M78,53h3.4v1h-2.6c-0.1,0-0.3-0.1-0.4-0.3S78.2,53.3,78,53z"/>
		<path d="M82.3,53c0.6,0,0.9-0.1,0.9-0.2c0,0,0-0.1-0.1-0.3c-0.1-0.3-0.2-0.5-0.3-0.7l0.6-0.7c0.3,0.5,0.4,1,0.4,1.3
			c0,0.2-0.1,0.4-0.2,0.7s-0.3,0.4-0.4,0.5s-0.3,0.2-0.6,0.3S82,54,81.5,54c-0.1,0-0.3-0.1-0.5-0.2s-0.3-0.4-0.5-0.7H82.3z
			 M82.5,54.5l0.8,0.4l-0.5,0.9L82,55.4L82.5,54.5z"/>
		<path d="M83.3,53h3.4v1h-2.6c-0.1,0-0.3-0.1-0.4-0.3S83.4,53.3,83.3,53z"/>
		<path d="M85.8,53h3.4v1h-2.6c-0.1,0-0.3-0.1-0.4-0.3S85.9,53.3,85.8,53z"/>
		<path d="M88.3,53h3.4v1h-2.6c-0.1,0-0.3-0.1-0.4-0.3S88.4,53.3,88.3,53z"/>
		<path d="M90.8,53h3.4v1h-2.6c-0.1,0-0.3-0.1-0.4-0.3S90.9,53.3,90.8,53z"/>
		<path d="M93.3,53h3.4v1h-2.6c-0.1,0-0.3-0.1-0.4-0.3S93.4,53.3,93.3,53z"/>
		<path d="M95.8,53h3.4v1h-2.6c-0.1,0-0.3-0.1-0.4-0.3S95.9,53.3,95.8,53z"/>
		<path d="M98.3,53h3.4v1h-2.6c-0.1,0-0.3-0.1-0.4-0.3S98.4,53.3,98.3,53z"/>
		<path d="M100.8,53h3.4v1h-2.6c-0.1,0-0.3-0.1-0.4-0.3S100.9,53.3,100.8,53z"/>
		<path d="M103.3,53h1.1c0.2,0,0.5,0,0.8-0.1s0.4-0.1,0.4-0.2s0.1-0.3,0.1-0.7v-0.8c0-0.3,0-1.1-0.1-2.3l-0.2-0.2l0.4-0.8
			c0.2,0.4,0.4,0.6,0.5,0.6c-0.2,0.3-0.3,0.6-0.3,1v1.1c0,0.7,0,1.4,0.1,2.1c0.4,0,0.7,0.2,0.9,0.5l-0.5,1c-0.2-0.3-0.4-0.5-0.7-0.6
			c-0.3,0.2-0.8,0.3-1.6,0.3C103.9,54,103.5,53.6,103.3,53z"/>
		<path d="M108.6,54.1c0-1.1-0.1-2.3-0.2-3.5c0-0.4,0-0.7,0-0.8c0-0.4,0.1-0.7,0.2-0.9l0.4-0.6c0,0.2,0,0.6,0,1c0,0.2,0,0.2,0,0.3
			c0,0.3,0,0.9,0,1.7c0,0.5,0,0.9,0,1C109,53.2,108.9,53.7,108.6,54.1z"/>
	</g>
	<g>
		<path d="M63.3,66.6c-0.4,0-0.7-0.1-1-0.2s-0.6-0.4-0.7-0.6c-0.2-0.3-0.3-0.6-0.3-1c0-0.3,0.1-0.6,0.2-0.8c0.1-0.2,0.3-0.4,0.5-0.5
			c0.2-0.1,0.5-0.2,0.8-0.3c0.3-0.1,0.6-0.1,1-0.2c0.3,0,0.6-0.1,0.9-0.1c0.2,0,0.4-0.1,0.6-0.2c0.1-0.1,0.2-0.2,0.2-0.3v-0.1
			c0-0.3-0.1-0.5-0.2-0.7c-0.1-0.2-0.3-0.4-0.5-0.5c-0.2-0.1-0.5-0.2-0.8-0.2c-0.3,0-0.6,0-0.8,0.1c-0.2,0.1-0.4,0.2-0.6,0.4
			s-0.3,0.3-0.3,0.5l-0.7-0.2c0.1-0.3,0.3-0.6,0.6-0.8c0.3-0.2,0.5-0.4,0.9-0.5s0.6-0.1,1-0.1c0.2,0,0.5,0,0.8,0.1s0.5,0.2,0.7,0.3
			c0.2,0.2,0.4,0.4,0.5,0.6c0.1,0.3,0.2,0.6,0.2,1v4.3h-0.7v-1h-0.1c-0.1,0.2-0.2,0.4-0.4,0.5c-0.2,0.2-0.4,0.3-0.7,0.4
			S63.6,66.6,63.3,66.6z M63.4,65.9c0.4,0,0.7-0.1,1-0.3c0.3-0.2,0.5-0.4,0.7-0.7c0.2-0.3,0.2-0.6,0.2-0.9v-0.9
			c-0.1,0.1-0.1,0.1-0.3,0.1c-0.1,0-0.3,0.1-0.4,0.1s-0.3,0.1-0.5,0.1c-0.2,0-0.3,0-0.4,0.1c-0.3,0-0.6,0.1-0.9,0.2
			c-0.2,0.1-0.4,0.2-0.6,0.4C62,64.3,62,64.5,62,64.7c0,0.3,0.1,0.5,0.2,0.6c0.1,0.2,0.3,0.3,0.5,0.4C62.9,65.9,63.1,65.9,63.4,65.9
			z"/>
		<path d="M68.9,58.1v8.4h-0.8v-8.4H68.9z"/>
		<path d="M71.1,66.5v-6.3h0.7l0,1.4h-0.1c0.1-0.4,0.2-0.6,0.4-0.9s0.4-0.4,0.7-0.5c0.3-0.1,0.5-0.2,0.8-0.2c0.5,0,0.8,0.1,1.1,0.4
			s0.5,0.7,0.6,1.1h-0.1c0.1-0.3,0.2-0.6,0.4-0.8c0.2-0.2,0.4-0.4,0.7-0.5c0.3-0.1,0.6-0.2,0.9-0.2c0.4,0,0.7,0.1,1,0.2
			s0.5,0.4,0.7,0.7c0.2,0.3,0.3,0.7,0.3,1.2v4.2h-0.8v-4.2c0-0.5-0.1-0.9-0.4-1.1s-0.6-0.4-1-0.4c-0.3,0-0.6,0.1-0.8,0.2
			c-0.2,0.1-0.4,0.3-0.5,0.5c-0.1,0.2-0.2,0.5-0.2,0.8v4.1h-0.8v-4.3c0-0.4-0.1-0.8-0.4-1c-0.3-0.3-0.6-0.4-1-0.4
			c-0.3,0-0.5,0.1-0.8,0.2c-0.2,0.1-0.4,0.3-0.6,0.6s-0.2,0.5-0.2,0.9v4H71.1z"/>
		<path d="M83,66.6c-0.4,0-0.7-0.1-1-0.2s-0.6-0.4-0.7-0.6c-0.2-0.3-0.3-0.6-0.3-1c0-0.3,0.1-0.6,0.2-0.8c0.1-0.2,0.3-0.4,0.5-0.5
			c0.2-0.1,0.5-0.2,0.8-0.3c0.3-0.1,0.6-0.1,1-0.2c0.3,0,0.6-0.1,0.9-0.1c0.2,0,0.4-0.1,0.6-0.2c0.1-0.1,0.2-0.2,0.2-0.3v-0.1
			c0-0.3-0.1-0.5-0.2-0.7c-0.1-0.2-0.3-0.4-0.5-0.5c-0.2-0.1-0.5-0.2-0.8-0.2c-0.3,0-0.6,0-0.8,0.1c-0.2,0.1-0.4,0.2-0.6,0.4
			s-0.3,0.3-0.3,0.5l-0.7-0.2c0.1-0.3,0.3-0.6,0.6-0.8c0.3-0.2,0.5-0.4,0.9-0.5s0.6-0.1,1-0.1c0.2,0,0.5,0,0.8,0.1s0.5,0.2,0.7,0.3
			c0.2,0.2,0.4,0.4,0.5,0.6c0.1,0.3,0.2,0.6,0.2,1v4.3H85v-1H85c-0.1,0.2-0.2,0.4-0.4,0.5c-0.2,0.2-0.4,0.3-0.7,0.4
			S83.4,66.6,83,66.6z M83.1,65.9c0.4,0,0.7-0.1,1-0.3c0.3-0.2,0.5-0.4,0.7-0.7c0.2-0.3,0.2-0.6,0.2-0.9v-0.9
			c-0.1,0.1-0.1,0.1-0.3,0.1c-0.1,0-0.3,0.1-0.4,0.1s-0.3,0.1-0.5,0.1c-0.2,0-0.3,0-0.4,0.1c-0.3,0-0.6,0.1-0.9,0.2
			c-0.2,0.1-0.4,0.2-0.6,0.4c-0.1,0.2-0.2,0.4-0.2,0.6c0,0.3,0.1,0.5,0.2,0.6c0.1,0.2,0.3,0.3,0.5,0.4
			C82.6,65.9,82.9,65.9,83.1,65.9z"/>
		<path d="M90.7,66.6c-0.4,0-0.7-0.1-0.9-0.2s-0.5-0.3-0.6-0.5c-0.2-0.2-0.3-0.4-0.4-0.6h-0.1v1.2h-0.7v-8.4h0.8v3.3h0.1
			c0.1-0.2,0.2-0.4,0.4-0.6c0.2-0.2,0.4-0.4,0.6-0.5c0.3-0.1,0.6-0.2,1-0.2c0.5,0,1,0.1,1.4,0.4c0.4,0.3,0.7,0.6,0.9,1.1
			s0.3,1.1,0.3,1.7c0,0.7-0.1,1.2-0.3,1.7c-0.2,0.5-0.5,0.9-0.9,1.1C91.7,66.5,91.2,66.6,90.7,66.6z M90.6,65.9c0.4,0,0.8-0.1,1-0.3
			c0.3-0.2,0.5-0.5,0.6-0.9c0.1-0.4,0.2-0.8,0.2-1.3s-0.1-0.9-0.2-1.3s-0.4-0.7-0.6-0.9c-0.3-0.2-0.6-0.3-1-0.3
			c-0.4,0-0.8,0.1-1,0.3S89,61.6,88.9,62s-0.2,0.8-0.2,1.3s0.1,0.9,0.2,1.3c0.2,0.4,0.4,0.7,0.7,0.9S90.2,65.9,90.6,65.9z"/>
		<path d="M96.7,66.6c-0.4,0-0.7-0.1-1-0.2s-0.6-0.4-0.7-0.6c-0.2-0.3-0.3-0.6-0.3-1c0-0.3,0.1-0.6,0.2-0.8c0.1-0.2,0.3-0.4,0.5-0.5
			c0.2-0.1,0.5-0.2,0.8-0.3c0.3-0.1,0.6-0.1,1-0.2c0.3,0,0.6-0.1,0.9-0.1c0.2,0,0.4-0.1,0.6-0.2c0.1-0.1,0.2-0.2,0.2-0.3v-0.1
			c0-0.3-0.1-0.5-0.2-0.7c-0.1-0.2-0.3-0.4-0.5-0.5c-0.2-0.1-0.5-0.2-0.8-0.2c-0.3,0-0.6,0-0.8,0.1c-0.2,0.1-0.4,0.2-0.6,0.4
			s-0.3,0.3-0.3,0.5l-0.7-0.2c0.1-0.3,0.3-0.6,0.6-0.8c0.3-0.2,0.5-0.4,0.9-0.5s0.6-0.1,1-0.1c0.2,0,0.5,0,0.8,0.1s0.5,0.2,0.7,0.3
			c0.2,0.2,0.4,0.4,0.5,0.6c0.1,0.3,0.2,0.6,0.2,1v4.3h-0.7v-1h-0.1c-0.1,0.2-0.2,0.4-0.4,0.5c-0.2,0.2-0.4,0.3-0.7,0.4
			S97.1,66.6,96.7,66.6z M96.9,65.9c0.4,0,0.7-0.1,1-0.3c0.3-0.2,0.5-0.4,0.7-0.7c0.2-0.3,0.2-0.6,0.2-0.9v-0.9
			c-0.1,0.1-0.1,0.1-0.3,0.1c-0.1,0-0.3,0.1-0.4,0.1s-0.3,0.1-0.5,0.1c-0.2,0-0.3,0-0.4,0.1c-0.3,0-0.6,0.1-0.9,0.2
			c-0.2,0.1-0.4,0.2-0.6,0.4c-0.1,0.2-0.2,0.4-0.2,0.6c0,0.3,0.1,0.5,0.2,0.6c0.1,0.2,0.3,0.3,0.5,0.4
			C96.3,65.9,96.6,65.9,96.9,65.9z"/>
		<path d="M102.4,62.6v3.9h-0.8v-6.3h0.7l0,1.5h-0.1c0.2-0.5,0.4-0.9,0.8-1.2c0.4-0.2,0.8-0.4,1.3-0.4c0.4,0,0.8,0.1,1.1,0.3
			c0.3,0.2,0.6,0.4,0.8,0.8c0.2,0.3,0.3,0.8,0.3,1.3v4.1h-0.8v-4c0-0.5-0.1-0.9-0.4-1.2c-0.3-0.3-0.7-0.4-1.2-0.4
			c-0.3,0-0.6,0.1-0.9,0.2s-0.5,0.3-0.6,0.6C102.5,61.9,102.4,62.2,102.4,62.6z"/>
		<path d="M109,59c-0.2,0-0.3-0.1-0.4-0.2s-0.2-0.2-0.2-0.4c0-0.2,0.1-0.3,0.2-0.4c0.1-0.1,0.2-0.2,0.4-0.2c0.2,0,0.3,0.1,0.4,0.2
			c0.1,0.1,0.2,0.2,0.2,0.4c0,0.1-0.1,0.3-0.2,0.4C109.3,59,109.2,59,109,59z M108.6,66.5v-6.3h0.8v6.3H108.6z"/>
	</g>
</g>
</svg>
