<?xml version="1.0" encoding="utf-8"?>
<!-- Generator: Adobe Illustrator 24.3.0, SVG Export Plug-In . SVG Version: 6.00 Build 0)  -->
<svg version="1.1" id="Layer_1" xmlns="http://www.w3.org/2000/svg" xmlns:xlink="http://www.w3.org/1999/xlink" x="0px" y="0px"
	 viewBox="0 0 164 68" style="enable-background:new 0 0 164 68;" xml:space="preserve">
<style type="text/css">
	.st0{fill:none;}
	.st1{fill:#1E1F1C;}
	.st2{fill:#020203;}
	.st3{fill:#040404;}
	.st4{fill:#0C0809;}
	.st5{fill:#211E1F;}
	.st6{fill:#FCFEFF;}
	.st7{fill:#000102;}
	.st8{fill:none;stroke:#F9F9F9;stroke-width:0.25;stroke-miterlimit:10;}
	.st9{fill:#262626;}
	.st10{fill:#000002;}
</style>
<g>
	<path d="M137.7,52.4l-2.4,0c-2.6,0-4.7-2.3-4.7-5.2v0c2.3,0,5.3-0.5,8.4-2.1c6.4-3.4,7.4-9.2,14.2-14.4c2.4-1.8,5.6-3.7,9.9-4.9
		c0,7.3-0.1,14.6-0.1,21.9c0,2.6-1.9,4.6-4.2,4.6C151.8,52.4,144.8,52.4,137.7,52.4z"/>
	<path d="M155.9,15.6l2,0c2.8,0,5,2.2,5,5v0.3c-2.3,0-5.3,0.5-8.4,2.2c-6.4,3.5-7.4,9.3-14.2,14.7c-2.4,1.8-5.6,3.8-9.9,5
		c0-7.4,0.1-14.9,0.1-22.3c0-2.7,2.2-4.8,4.8-4.8C142.3,15.6,149.1,15.6,155.9,15.6z"/>
	<g>
		<path d="M6,29.8c-0.6,0-1.1-0.1-1.5-0.2c-0.4-0.2-0.7-0.4-0.9-0.7c-0.2-0.3-0.3-0.7-0.3-1.2c0-0.1,0-0.3,0-0.4
			c0-0.2,0-0.3,0.1-0.4c0-0.1,0-0.3,0.1-0.4c0-0.1,0-0.2,0.1-0.2l1.1,0.2c0,0.1,0,0.2-0.1,0.4c0,0.1-0.1,0.3-0.1,0.4
			c0,0.2,0,0.3,0,0.4c0,0.2,0,0.4,0.1,0.6c0.1,0.1,0.2,0.3,0.3,0.4s0.3,0.1,0.5,0.2c0.2,0,0.5,0.1,0.8,0.1h2.3v-3.3h1.1v4.3H6z
			 M5,25.3v-1h1.1v1H5z M6.6,25.3v-1h1.1v1H6.6z"/>
		<path d="M10.5,29.8v-1h4.3l-0.5,0.6v-5.6h1.1v6H10.5z M11.7,28.8V25h1.1v3.9H11.7z"/>
		<path d="M18.3,31.9c-0.2,0-0.4,0-0.7,0c-0.2,0-0.5-0.1-0.7-0.1l0.2-0.9c0.3,0,0.5,0.1,0.7,0.1s0.4,0,0.5,0c0.4,0,0.7-0.1,0.9-0.2
			c0.2-0.1,0.3-0.4,0.3-0.7v-3.7l0.3,0.2h-1.1c-0.2,0-0.4,0-0.6,0.1c-0.1,0.1-0.2,0.2-0.3,0.3s-0.1,0.4-0.1,0.8c0,0.3,0,0.6,0.1,0.7
			c0.1,0.2,0.2,0.3,0.3,0.3s0.3,0.1,0.6,0.1h0.8v1h-0.8c-0.5,0-0.9-0.1-1.2-0.2c-0.3-0.2-0.5-0.4-0.7-0.7c-0.2-0.3-0.2-0.7-0.2-1.2
			c0-0.5,0.1-0.9,0.2-1.2c0.2-0.3,0.4-0.6,0.7-0.7c0.3-0.2,0.7-0.2,1.2-0.2h1.9V30c0,0.4-0.1,0.7-0.3,1c-0.2,0.3-0.5,0.5-0.8,0.6
			S18.8,31.9,18.3,31.9z"/>
		<path d="M22.2,29.8v-6h1.1v6H22.2z M23.3,29.8v-1h1v1H23.3z M24.3,29.8v-1c0,0,0.1,0,0.1,0c0,0,0,0.1,0.1,0.1c0,0,0,0.1,0,0.2
			c0,0.1,0,0.1,0,0.2c0,0.1,0,0.1,0,0.2c0,0.1,0,0.1,0,0.2C24.4,29.7,24.4,29.7,24.3,29.8C24.3,29.8,24.3,29.8,24.3,29.8z"/>
		<path d="M24.3,29.8C24.2,29.8,24.2,29.8,24.3,29.8c-0.1-0.1-0.1-0.1-0.1-0.1c0,0,0-0.1,0-0.2c0-0.1,0-0.1,0-0.2c0-0.1,0-0.2,0-0.3
			c0-0.1,0-0.1,0.1-0.2c0,0,0.1-0.1,0.1-0.1V29.8z M24.3,29.8v-1h2.1v1H24.3z M26.4,29.8v-1c0,0,0.1,0,0.1,0c0,0,0,0.1,0.1,0.1
			c0,0,0,0.1,0,0.2c0,0.1,0,0.1,0,0.2c0,0.1,0,0.1,0,0.2c0,0.1,0,0.1,0,0.2C26.5,29.7,26.5,29.7,26.4,29.8
			C26.5,29.8,26.4,29.8,26.4,29.8z"/>
		<path d="M26.4,29.8C26.4,29.8,26.3,29.8,26.4,29.8c-0.1-0.1-0.1-0.1-0.1-0.1c0,0,0-0.1,0-0.2c0-0.1,0-0.1,0-0.2c0-0.1,0-0.2,0-0.3
			c0-0.1,0-0.1,0.1-0.2c0,0,0.1-0.1,0.1-0.1V29.8z M26.4,29.8v-1h4L30,29.1v-2.9l0.3,0.2h-1.1c-0.3,0-0.4,0-0.6,0.1
			c-0.1,0.1-0.2,0.2-0.3,0.3c-0.1,0.2-0.1,0.4-0.1,0.7c0,0.3,0,0.6,0.1,0.7c0.1,0.2,0.2,0.3,0.3,0.3c0.1,0.1,0.3,0.1,0.6,0.1v0.9
			c-0.5,0-0.9-0.1-1.2-0.2c-0.3-0.1-0.5-0.4-0.7-0.7c-0.2-0.3-0.2-0.7-0.2-1.2c0-0.5,0.1-0.9,0.2-1.2c0.2-0.3,0.4-0.6,0.7-0.7
			c0.3-0.2,0.7-0.2,1.2-0.2h1.9v4.3H26.4z M28.1,24.7v-1h1.1v1H28.1z M29.6,24.7v-1h1.1v1H29.6z M31.2,29.8v-1h0.9v1H31.2z
			 M32.1,29.8v-1c0,0,0.1,0,0.1,0c0,0,0,0.1,0.1,0.1c0,0,0,0.1,0,0.2c0,0.1,0,0.1,0,0.2c0,0.1,0,0.1,0,0.2c0,0.1,0,0.1,0,0.2
			C32.2,29.7,32.2,29.7,32.1,29.8C32.2,29.8,32.1,29.8,32.1,29.8z"/>
		<path d="M32.1,29.8C32.1,29.8,32,29.8,32.1,29.8C32,29.7,32,29.7,32,29.7c0,0,0-0.1,0-0.2c0-0.1,0-0.1,0-0.2c0-0.1,0-0.2,0-0.3
			c0-0.1,0-0.1,0.1-0.2c0,0,0.1-0.1,0.1-0.1V29.8z M32.1,29.8v-1h4.4L36,29.2v-1.6c0-0.3,0-0.5-0.1-0.7c-0.1-0.2-0.2-0.3-0.4-0.4
			c-0.2-0.1-0.4-0.1-0.7-0.1c-0.2,0-0.5,0-0.7,0c-0.2,0-0.4,0.1-0.5,0.1l0.7-0.7c0,0.1-0.1,0.3-0.1,0.5c0,0.2-0.1,0.4-0.1,0.6
			c0,0.2,0,0.4,0,0.7c0,0.2,0,0.4,0,0.6c0,0.2,0,0.4,0.1,0.6s0,0.3,0.1,0.3l-1.1,0.3c0-0.1-0.1-0.2-0.1-0.4s-0.1-0.4-0.1-0.6
			c0-0.3,0-0.5,0-0.8c0-0.3,0-0.6,0-0.8s0.1-0.5,0.1-0.7s0.1-0.4,0.1-0.5c0.1-0.1,0.3-0.1,0.6-0.2c0.3-0.1,0.6-0.1,1-0.1
			c0.5,0,0.9,0.1,1.3,0.2s0.6,0.4,0.8,0.7c0.2,0.3,0.3,0.7,0.3,1.3v2.1H32.1z M37.1,29.8v-1H38v1H37.1z M38,29.8v-1c0,0,0.1,0,0.1,0
			c0,0,0,0.1,0.1,0.1c0,0,0,0.1,0,0.2c0,0.1,0,0.1,0,0.2c0,0.1,0,0.1,0,0.2c0,0.1,0,0.1,0,0.2C38.2,29.7,38.1,29.7,38,29.8
			C38.1,29.8,38.1,29.8,38,29.8z"/>
		<path d="M38,29.8C38,29.8,38,29.8,38,29.8c-0.1-0.1-0.1-0.1-0.1-0.1c0,0,0-0.1,0-0.2c0-0.1,0-0.1,0-0.2c0-0.1,0-0.2,0-0.3
			c0-0.1,0-0.1,0.1-0.2c0,0,0.1-0.1,0.1-0.1V29.8z M38,29.8v-1h1v1H38z M39,29.8v-6h1.1v6H39z"/>
		<path d="M41.7,29.8v-6h1.1v6H41.7z"/>
		<path d="M45.8,31.9c-0.2,0-0.4,0-0.7,0c-0.2,0-0.5-0.1-0.7-0.1l0.2-0.9c0.3,0,0.5,0.1,0.7,0.1s0.4,0,0.5,0c0.4,0,0.7-0.1,0.9-0.2
			c0.2-0.1,0.3-0.4,0.3-0.7v-3.7l0.3,0.2h-1.1c-0.2,0-0.4,0-0.6,0.1c-0.1,0.1-0.2,0.2-0.3,0.3s-0.1,0.4-0.1,0.8c0,0.3,0,0.6,0.1,0.7
			c0.1,0.2,0.2,0.3,0.3,0.3s0.3,0.1,0.6,0.1H47v1h-0.8c-0.5,0-0.9-0.1-1.2-0.2c-0.3-0.2-0.5-0.4-0.7-0.7c-0.2-0.3-0.2-0.7-0.2-1.2
			c0-0.5,0.1-0.9,0.2-1.2c0.2-0.3,0.4-0.6,0.7-0.7c0.3-0.2,0.7-0.2,1.2-0.2h1.9V30c0,0.4-0.1,0.7-0.3,1c-0.2,0.3-0.5,0.5-0.8,0.6
			S46.3,31.9,45.8,31.9z"/>
		<path d="M51.3,29.8v-1.9c0-0.6,0.1-1,0.3-1.4c0.2-0.3,0.4-0.6,0.8-0.8c0.3-0.2,0.8-0.2,1.3-0.2c0.5,0,0.9,0.1,1.3,0.2
			c0.3,0.2,0.6,0.4,0.8,0.8c0.2,0.3,0.3,0.8,0.3,1.4v1.9H51.3z M52.4,29.3l-0.5-0.5h3.5l-0.5,0.5v-1.4c0-0.3,0-0.6-0.1-0.8
			c-0.1-0.2-0.2-0.3-0.4-0.4s-0.4-0.1-0.7-0.1c-0.3,0-0.6,0-0.7,0.1c-0.2,0.1-0.3,0.2-0.4,0.4s-0.1,0.5-0.1,0.8V29.3z M52.3,24.7v-1
			h1.1v1H52.3z M53.8,24.7v-1h1.1v1H53.8z"/>
		<path d="M56.8,31.9c-0.1,0-0.2,0-0.2,0c-0.1,0-0.2,0-0.3,0l0-1c0.1,0,0.2,0,0.3,0c0.1,0,0.1,0,0.2,0c0.2,0,0.4-0.1,0.5-0.3
			s0.2-0.4,0.2-0.7v-4.4h1.1v4.4c0,0.4-0.1,0.7-0.2,1c-0.2,0.3-0.4,0.5-0.7,0.7C57.4,31.8,57.1,31.9,56.8,31.9z"/>
		<path d="M60.1,29.8v-6h1.1v6H60.1z M61.3,29.8v-1h1v1H61.3z M62.2,29.8v-1c0,0,0.1,0,0.1,0c0,0,0,0.1,0.1,0.1c0,0,0,0.1,0,0.2
			c0,0.1,0,0.1,0,0.2c0,0.1,0,0.1,0,0.2c0,0.1,0,0.1,0,0.2C62.3,29.7,62.3,29.7,62.2,29.8C62.3,29.8,62.3,29.8,62.2,29.8z"/>
		<path d="M62.2,29.8C62.2,29.8,62.2,29.8,62.2,29.8c-0.1-0.1-0.1-0.1-0.1-0.1c0,0,0-0.1,0-0.2c0-0.1,0-0.1,0-0.2c0-0.1,0-0.2,0-0.3
			c0-0.1,0-0.1,0.1-0.2c0,0,0.1-0.1,0.1-0.1V29.8z M62.2,29.8v-1h2.1v1H62.2z M64.4,29.8v-1c0,0,0.1,0,0.1,0c0,0,0,0.1,0.1,0.1
			c0,0,0,0.1,0,0.2c0,0.1,0,0.1,0,0.2c0,0.1,0,0.1,0,0.2c0,0.1,0,0.1,0,0.2C64.5,29.7,64.5,29.7,64.4,29.8
			C64.4,29.8,64.4,29.8,64.4,29.8z"/>
		<path d="M64.4,29.8C64.3,29.8,64.3,29.8,64.4,29.8c-0.1-0.1-0.1-0.1-0.1-0.1c0,0,0-0.1,0-0.2c0-0.1,0-0.1,0-0.2c0-0.1,0-0.2,0-0.3
			c0-0.1,0-0.1,0.1-0.2c0,0,0.1-0.1,0.1-0.1V29.8z M64.4,29.8v-1H68l-0.4,0.3v-1.6c0-0.3-0.1-0.6-0.3-0.8c-0.2-0.2-0.6-0.3-1-0.3
			c-0.1,0-0.3,0-0.5,0c-0.2,0-0.5,0-0.7,0.1l-0.1-0.9c0.2-0.1,0.5-0.1,0.7-0.1c0.3,0,0.5-0.1,0.7-0.1c0.5,0,0.9,0.1,1.2,0.2
			c0.4,0.2,0.6,0.4,0.8,0.7s0.3,0.7,0.3,1.1v2.3H64.4z M66,31.6v-1h1.1v1H66z M68.8,29.8v-1h0.9v1H68.8z M69.7,29.8v-1
			c0,0,0.1,0,0.1,0c0,0,0,0.1,0.1,0.1c0,0,0,0.1,0,0.2c0,0.1,0,0.1,0,0.2c0,0.1,0,0.1,0,0.2c0,0.1,0,0.1,0,0.2
			C69.8,29.7,69.8,29.7,69.7,29.8C69.7,29.8,69.7,29.8,69.7,29.8z"/>
		<path d="M69.7,29.8C69.7,29.8,69.6,29.8,69.7,29.8c-0.1-0.1-0.1-0.1-0.1-0.1c0,0,0-0.1,0-0.2c0-0.1,0-0.1,0-0.2c0-0.1,0-0.2,0-0.3
			c0-0.1,0-0.1,0.1-0.2c0,0,0.1-0.1,0.1-0.1V29.8z M69.7,29.8v-1h2L71,29.4v-3.9h1.1v4.3H69.7z M70.3,24.7v-1h1.1v1H70.3z
			 M71.9,24.7v-1H73v1H71.9z M72.2,29.8v-1h1.1v1H72.2z M73.3,29.8v-1c0,0,0.1,0,0.1,0c0,0,0,0.1,0.1,0.1s0,0.1,0,0.2
			c0,0.1,0,0.1,0,0.2c0,0.1,0,0.1,0,0.2c0,0.1,0,0.1,0,0.2C73.4,29.7,73.4,29.7,73.3,29.8C73.3,29.8,73.3,29.8,73.3,29.8z"/>
		<path d="M73.3,29.8C73.2,29.8,73.2,29.8,73.3,29.8c-0.1-0.1-0.1-0.1-0.1-0.1c0,0,0-0.1,0-0.2c0-0.1,0-0.1,0-0.2c0-0.1,0-0.2,0-0.3
			c0-0.1,0-0.1,0.1-0.2c0,0,0.1-0.1,0.1-0.1V29.8z M73.3,29.8v-1h2.1v1H73.3z M75.4,29.8v-1c0,0,0.1,0,0.1,0c0,0,0,0.1,0.1,0.1
			c0,0,0,0.1,0,0.2c0,0.1,0,0.1,0,0.2c0,0.1,0,0.1,0,0.2c0,0.1,0,0.1,0,0.2C75.5,29.7,75.5,29.7,75.4,29.8
			C75.4,29.8,75.4,29.8,75.4,29.8z"/>
		<path d="M75.4,29.8C75.4,29.8,75.3,29.8,75.4,29.8c-0.1-0.1-0.1-0.1-0.1-0.1c0,0,0-0.1,0-0.2c0-0.1,0-0.1,0-0.2c0-0.1,0-0.2,0-0.3
			c0-0.1,0-0.1,0.1-0.2c0,0,0.1-0.1,0.1-0.1V29.8z M75.4,29.8v-1h1v1H75.4z M76.4,29.8v-6h1.1v6H76.4z M77.5,29.8v-1h0.9v1H77.5z
			 M78.4,29.8v-1c0,0,0.1,0,0.1,0c0,0,0,0.1,0.1,0.1c0,0,0,0.1,0,0.2c0,0.1,0,0.1,0,0.2c0,0.1,0,0.1,0,0.2c0,0.1,0,0.1,0,0.2
			C78.5,29.7,78.5,29.7,78.4,29.8C78.5,29.8,78.4,29.8,78.4,29.8z"/>
		<path d="M78.4,29.8C78.4,29.8,78.3,29.8,78.4,29.8c-0.1-0.1-0.1-0.1-0.1-0.1c0,0,0-0.1,0-0.2c0-0.1,0-0.1,0-0.2c0-0.1,0-0.2,0-0.3
			c0-0.1,0-0.1,0.1-0.2c0,0,0.1-0.1,0.1-0.1V29.8z M78.4,29.8v-1h1v1H78.4z M79.4,29.8v-6h1.1v6H79.4z"/>
		<path d="M86.2,31.9c-0.4,0-0.7-0.1-1-0.2c-0.3-0.1-0.6-0.3-0.8-0.4s-0.4-0.4-0.6-0.7s-0.2-0.5-0.2-0.8c0-0.1,0-0.2,0-0.4
			c0-0.2,0-0.4,0.1-0.6c0-0.2,0.1-0.5,0.1-0.7l1.1,0.2c-0.1,0.4-0.1,0.7-0.1,1c0,0.3-0.1,0.5-0.1,0.6c0,0.2,0.1,0.4,0.2,0.6
			c0.1,0.2,0.3,0.3,0.5,0.4c0.2,0.1,0.5,0.1,0.8,0.1h2.4c0.4,0,0.6-0.1,0.8-0.3c0.2-0.2,0.3-0.5,0.3-0.8v-0.3h1.1v0.3
			c0,0.4-0.1,0.8-0.3,1.1c-0.2,0.3-0.4,0.6-0.8,0.7c-0.3,0.2-0.7,0.3-1.2,0.3H86.2z M85.9,33.7v-1H87v1H85.9z M87.5,33.7v-1h1.1v1
			H87.5z M89.4,29.8c-0.3,0-0.5,0-0.8-0.1c-0.2-0.1-0.5-0.2-0.7-0.3l0.6-0.8c0.1,0.1,0.2,0.1,0.2,0.1s0.2,0.1,0.2,0.1
			c0.1,0,0.2,0,0.3,0h1.9v1H89.4z M91.3,29.8v-1c0,0,0.1,0,0.1,0c0,0,0,0.1,0.1,0.1c0,0,0,0.1,0,0.2c0,0.1,0,0.1,0,0.2
			c0,0.1,0,0.1,0,0.2c0,0.1,0,0.1,0,0.2C91.4,29.7,91.4,29.7,91.3,29.8C91.3,29.8,91.3,29.8,91.3,29.8z"/>
		<path d="M91.3,29.8C91.2,29.8,91.2,29.8,91.3,29.8c-0.1-0.1-0.1-0.1-0.1-0.1c0,0,0-0.1,0-0.2c0-0.1,0-0.1,0-0.2c0-0.1,0-0.2,0-0.3
			c0-0.1,0-0.1,0.1-0.2c0,0,0.1-0.1,0.1-0.1V29.8z M91.3,29.8v-1h2.1v1H91.3z M93.4,29.8v-1c0,0,0.1,0,0.1,0c0,0,0,0.1,0.1,0.1
			c0,0,0,0.1,0,0.2c0,0.1,0,0.1,0,0.2c0,0.1,0,0.1,0,0.2c0,0.1,0,0.1,0,0.2C93.5,29.7,93.5,29.7,93.4,29.8
			C93.5,29.8,93.4,29.8,93.4,29.8z"/>
		<path d="M91.7,29.8C91.7,29.8,91.7,29.8,91.7,29.8c-0.1-0.1-0.1-0.1-0.1-0.1c0,0,0-0.1,0-0.2c0-0.1,0-0.1,0-0.2c0-0.1,0-0.2,0-0.3
			c0-0.1,0-0.1,0.1-0.2c0,0,0.1-0.1,0.1-0.1V29.8z M91.7,29.8v-1h2.1v1H91.7z M93.9,29.8v-1c0,0,0.1,0,0.1,0c0,0,0,0.1,0.1,0.1
			c0,0,0,0.1,0,0.2c0,0.1,0,0.1,0,0.2c0,0.1,0,0.1,0,0.2c0,0.1,0,0.1,0,0.2C94,29.7,94,29.7,93.9,29.8
			C93.9,29.8,93.9,29.8,93.9,29.8z"/>
		<path d="M93.9,29.8C93.8,29.8,93.8,29.8,93.9,29.8c-0.1-0.1-0.1-0.1-0.1-0.1c0,0,0-0.1,0-0.2c0-0.1,0-0.1,0-0.2c0-0.1,0-0.2,0-0.3
			c0-0.1,0-0.1,0.1-0.2c0,0,0.1-0.1,0.1-0.1V29.8z M93.9,29.8v-1H96v1H93.9z M96,29.8v-1c0,0,0.1,0,0.1,0c0,0,0,0.1,0.1,0.1
			c0,0,0,0.1,0,0.2c0,0.1,0,0.1,0,0.2c0,0.1,0,0.1,0,0.2c0,0.1,0,0.1,0,0.2C96.1,29.7,96.1,29.7,96,29.8C96.1,29.8,96,29.8,96,29.8z
			"/>
		<path d="M96,29.8C96,29.8,95.9,29.8,96,29.8c-0.1-0.1-0.1-0.1-0.1-0.1c0,0,0-0.1,0-0.2c0-0.1,0-0.1,0-0.2c0-0.1,0-0.2,0-0.3
			c0-0.1,0-0.1,0.1-0.2c0,0,0.1-0.1,0.1-0.1V29.8z M96,29.8v-1h2.1v1H96z M98.1,29.8v-1c0,0,0.1,0,0.1,0c0,0,0,0.1,0.1,0.1
			c0,0,0,0.1,0,0.2c0,0.1,0,0.1,0,0.2c0,0.1,0,0.1,0,0.2c0,0.1,0,0.1,0,0.2C98.2,29.7,98.2,29.7,98.1,29.8
			C98.2,29.8,98.2,29.8,98.1,29.8z"/>
		<path d="M98.1,29.8C98.1,29.8,98.1,29.8,98.1,29.8C98,29.7,98,29.7,98,29.7c0,0,0-0.1,0-0.2c0-0.1,0-0.1,0-0.2c0-0.1,0-0.2,0-0.3
			c0-0.1,0-0.1,0.1-0.2c0,0,0.1-0.1,0.1-0.1V29.8z M98.1,29.8v-1h1.6L99,29.4v-3.9h1.1v4.3H98.1z M99,24.7v-1h1.1v1H99z"/>
		<path d="M101.7,29.8v-6h1.1v6H101.7z"/>
		<path d="M104.1,31.9c-0.1,0-0.2,0-0.2,0c-0.1,0-0.2,0-0.3,0l0-1c0.1,0,0.2,0,0.3,0c0.1,0,0.1,0,0.2,0c0.2,0,0.4-0.1,0.5-0.3
			s0.2-0.4,0.2-0.7v-4.4h1.1v4.4c0,0.4-0.1,0.7-0.2,1c-0.2,0.3-0.4,0.5-0.7,0.7C104.8,31.8,104.5,31.9,104.1,31.9z M105.8,29.8v-1
			h1.1v1H105.8z M106.9,29.8v-1c0,0,0.1,0,0.1,0c0,0,0,0.1,0.1,0.1c0,0,0,0.1,0,0.2c0,0.1,0,0.1,0,0.2c0,0.1,0,0.1,0,0.2
			c0,0.1,0,0.1,0,0.2C107,29.7,107,29.7,106.9,29.8C106.9,29.8,106.9,29.8,106.9,29.8z"/>
		<path d="M106.9,29.8C106.8,29.8,106.8,29.8,106.9,29.8c-0.1-0.1-0.1-0.1-0.1-0.1c0,0,0-0.1,0-0.2c0-0.1,0-0.1,0-0.2
			c0-0.1,0-0.2,0-0.3c0-0.1,0-0.1,0.1-0.2c0,0,0.1-0.1,0.1-0.1V29.8z M106.9,29.8v-1h2.1v1H106.9z M109,29.8v-1c0,0,0.1,0,0.1,0
			c0,0,0,0.1,0.1,0.1c0,0,0,0.1,0,0.2c0,0.1,0,0.1,0,0.2c0,0.1,0,0.1,0,0.2c0,0.1,0,0.1,0,0.2C109.1,29.7,109.1,29.7,109,29.8
			C109.1,29.8,109,29.8,109,29.8z"/>
		<path d="M109,29.8C109,29.8,108.9,29.8,109,29.8c-0.1-0.1-0.1-0.1-0.1-0.1c0,0,0-0.1,0-0.2c0-0.1,0-0.1,0-0.2c0-0.1,0-0.2,0-0.3
			c0-0.1,0-0.1,0.1-0.2c0,0,0.1-0.1,0.1-0.1V29.8z M109,29.8v-1h5.9l-0.8,0.6V28c0-0.5-0.1-0.9-0.2-1.2c-0.1-0.3-0.3-0.5-0.6-0.6
			s-0.6-0.2-1.1-0.2c-0.2,0-0.4,0-0.7,0c-0.2,0-0.5,0-0.7,0.1c-0.2,0-0.5,0-0.7,0.1l-0.1-0.8c0.2-0.1,0.4-0.1,0.7-0.2
			s0.5-0.1,0.8-0.1c0.3,0,0.6-0.1,0.8-0.1c0.4,0,0.7,0,1.1,0.1c0.3,0.1,0.7,0.3,0.9,0.5c0.3,0.2,0.5,0.5,0.7,0.9
			c0.2,0.4,0.2,0.9,0.2,1.5v1.8H109z M109.9,28.8v-0.4c0-0.3,0.1-0.5,0.2-0.8s0.3-0.4,0.6-0.6c0.2-0.1,0.5-0.2,0.8-0.2
			s0.6,0.1,0.8,0.2s0.4,0.3,0.6,0.6c0.1,0.2,0.2,0.5,0.2,0.8v0.4h-0.9v-0.4c0-0.1,0-0.3-0.1-0.4c-0.1-0.1-0.1-0.2-0.2-0.3
			s-0.2-0.1-0.3-0.1s-0.2,0-0.3,0.1s-0.2,0.2-0.3,0.3c-0.1,0.1-0.1,0.2-0.1,0.4v0.4H109.9z"/>
		<path d="M116.4,31.9c-0.1,0-0.2,0-0.2,0c-0.1,0-0.2,0-0.3,0l0-1c0.1,0,0.2,0,0.3,0c0.1,0,0.1,0,0.2,0c0.2,0,0.4-0.1,0.5-0.3
			s0.2-0.4,0.2-0.7v-4.4h1.1v4.4c0,0.4-0.1,0.7-0.2,1c-0.2,0.3-0.4,0.5-0.7,0.7C117.1,31.8,116.7,31.9,116.4,31.9z M117.1,24.7v-1
			h1.1v1H117.1z M118,29.8v-1h1.1v1H118z M119.1,29.8v-1c0,0,0.1,0,0.1,0c0,0,0,0.1,0.1,0.1c0,0,0,0.1,0,0.2c0,0.1,0,0.1,0,0.2
			c0,0.1,0,0.1,0,0.2c0,0.1,0,0.1,0,0.2C119.2,29.7,119.2,29.7,119.1,29.8C119.2,29.8,119.2,29.8,119.1,29.8z"/>
		<path d="M119.1,29.8C119.1,29.8,119.1,29.8,119.1,29.8c-0.1-0.1-0.1-0.1-0.1-0.1c0,0,0-0.1,0-0.2c0-0.1,0-0.1,0-0.2
			c0-0.1,0-0.2,0-0.3c0-0.1,0-0.1,0.1-0.2c0,0,0.1-0.1,0.1-0.1V29.8z M119.1,29.8v-1h1v1H119.1z M120.1,29.8v-6h1.1v6H120.1z"/>
		<path d="M122.8,29.8v-6h1.1v6H122.8z"/>
	</g>
	<g>
		<path d="M34.2,49.4c-0.4,0-0.7-0.1-0.9-0.2s-0.4-0.3-0.4-0.6c-0.1-0.3-0.1-0.6-0.1-1c0-0.4,0-0.8,0.1-1c0.1-0.3,0.2-0.5,0.4-0.6
			s0.5-0.2,0.9-0.2h1.2v3.5h-0.3v-3.3l0.2,0.2h-1.1c-0.3,0-0.5,0-0.7,0.1c-0.2,0.1-0.3,0.2-0.3,0.5c-0.1,0.2-0.1,0.5-0.1,0.9
			c0,0.4,0,0.7,0.1,0.9c0.1,0.2,0.2,0.4,0.3,0.5c0.2,0.1,0.4,0.1,0.7,0.1h1.9v0.3H34.2z M33.7,45.1v-0.5H34v0.5H33.7z M34.4,45.1
			v-0.5h0.3v0.5H34.4z M36.1,49.4v-0.3c0,0,0.1,0,0.1,0c0,0,0,0,0,0c0,0,0,0,0,0.1s0,0,0,0.1c0,0,0,0,0,0.1c0,0,0,0,0,0.1
			C36.2,49.4,36.2,49.4,36.1,49.4C36.2,49.4,36.1,49.4,36.1,49.4z"/>
		<path d="M36.1,49.4C36.1,49.4,36.1,49.4,36.1,49.4c-0.1,0-0.1,0-0.1,0c0,0,0,0,0-0.1c0,0,0,0,0-0.1c0,0,0-0.1,0-0.1c0,0,0,0,0-0.1
			c0,0,0,0,0.1,0V49.4z M36.1,49.4v-0.3h4.5l-0.3,0.3v-1.7c0-0.3,0-0.6-0.1-0.9c-0.1-0.2-0.2-0.4-0.4-0.5S39.4,46,39.1,46
			c-0.2,0-0.4,0-0.5,0.1c-0.2,0.1-0.3,0.1-0.4,0.2s-0.3,0.2-0.4,0.3c-0.1,0.1-0.2,0.3-0.3,0.4c-0.1,0.1-0.2,0.3-0.3,0.4L37,47.3
			c0.1-0.2,0.2-0.3,0.3-0.5c0.1-0.2,0.2-0.3,0.3-0.4c0.1-0.1,0.3-0.3,0.4-0.4s0.3-0.2,0.5-0.2c0.2-0.1,0.4-0.1,0.6-0.1
			c0.3,0,0.6,0.1,0.8,0.2s0.4,0.3,0.5,0.5s0.2,0.4,0.2,0.6c0,0.2,0.1,0.4,0.1,0.6v1.8H36.1z M36.9,49.1v-3.4h0.3v3.4H36.9z
			 M38.6,45.1v-0.5H39v0.5H38.6z M40.6,49.4v-0.3h0.7v0.3H40.6z M41.3,49.4v-0.3c0,0,0.1,0,0.1,0s0,0,0,0s0,0,0,0.1s0,0,0,0.1
			c0,0,0,0,0,0.1c0,0,0,0,0,0.1C41.4,49.4,41.4,49.4,41.3,49.4C41.4,49.4,41.3,49.4,41.3,49.4z"/>
		<path d="M41.3,49.4C41.3,49.4,41.3,49.4,41.3,49.4c-0.1,0-0.1,0-0.1,0c0,0,0,0,0-0.1c0,0,0,0,0-0.1c0,0,0-0.1,0-0.1c0,0,0,0,0-0.1
			c0,0,0,0,0.1,0V49.4z M41.3,49.4v-0.3h0.8L42,49.2v-3.5h0.3v3.7H41.3z M42,50.5V50h0.3v0.5H42z"/>
		<path d="M43.6,49.4V44H44v5.4H43.6z M44,49.4v-0.3h0.7v0.3H44z M44.7,49.4v-0.3c0,0,0.1,0,0.1,0c0,0,0,0,0,0s0,0,0,0.1
			c0,0,0,0,0,0.1c0,0,0,0,0,0.1c0,0,0,0,0,0.1C44.8,49.4,44.7,49.4,44.7,49.4C44.7,49.4,44.7,49.4,44.7,49.4z"/>
		<path d="M44.7,49.4C44.6,49.4,44.6,49.4,44.7,49.4c-0.1,0-0.1,0-0.1,0c0,0,0,0,0-0.1c0,0,0,0,0-0.1c0,0,0-0.1,0-0.1c0,0,0,0,0-0.1
			c0,0,0,0,0.1,0V49.4z M44.7,49.4v-0.3h3.3l-0.2,0.2v-3.4l0.2,0.2h-1.1c-0.3,0-0.5,0-0.7,0.1c-0.2,0.1-0.3,0.2-0.3,0.5
			c-0.1,0.2-0.1,0.5-0.1,0.9c0,0.4,0,0.7,0.1,0.9c0.1,0.2,0.2,0.4,0.3,0.5c0.2,0.1,0.4,0.1,0.7,0.1v0.3c-0.4,0-0.7-0.1-0.9-0.2
			c-0.2-0.1-0.4-0.3-0.4-0.6c-0.1-0.3-0.1-0.6-0.1-1c0-0.4,0-0.8,0.1-1c0.1-0.3,0.2-0.5,0.4-0.6c0.2-0.1,0.5-0.2,0.9-0.2H48v3.7
			H44.7z M46.3,45.1v-0.5h0.3v0.5H46.3z M47,45.1v-0.5h0.3v0.5H47z M48,49.4v-0.3h0.7v0.3H48z M48.7,49.4v-0.3c0,0,0.1,0,0.1,0
			s0,0,0,0s0,0,0,0.1c0,0,0,0,0,0.1c0,0,0,0,0,0.1c0,0,0,0,0,0.1C48.8,49.4,48.8,49.4,48.7,49.4C48.8,49.4,48.7,49.4,48.7,49.4z"/>
		<path d="M48.7,49.4C48.7,49.4,48.6,49.4,48.7,49.4c-0.1,0-0.1,0-0.1,0c0,0,0,0,0-0.1c0,0,0,0,0-0.1c0,0,0-0.1,0-0.1c0,0,0,0,0-0.1
			c0,0,0,0,0.1,0V49.4z M48.7,49.4v-0.3h0.7v0.3H48.7z M49.4,49.4V44h0.3v5.4H49.4z"/>
		<path d="M51,49.4V44h0.3v5.4H51z"/>
		<path d="M55.4,51.2c-0.2,0-0.5,0-0.7-0.1c-0.2-0.1-0.4-0.2-0.6-0.3s-0.3-0.3-0.4-0.5c-0.1-0.2-0.1-0.4-0.1-0.6c0-0.1,0-0.2,0-0.4
			c0-0.2,0-0.4,0.1-0.6c0-0.2,0.1-0.4,0.1-0.6l0.3,0.1C54.1,48.4,54,48.7,54,49c0,0.3,0,0.5,0,0.6c0,0.2,0.1,0.5,0.2,0.6
			c0.1,0.2,0.3,0.3,0.5,0.4c0.2,0.1,0.5,0.2,0.7,0.2h1.8c0.4,0,0.7-0.1,0.9-0.4c0.2-0.2,0.3-0.6,0.3-1.1v-0.2h0.3v0.2
			c0,0.3-0.1,0.6-0.2,0.9c-0.1,0.3-0.3,0.5-0.5,0.6s-0.5,0.2-0.8,0.2H55.4z M55.7,52.4v-0.5H56v0.5H55.7z M56.4,52.4v-0.5h0.3v0.5
			H56.4z M57.9,49.4c-0.1,0-0.3,0-0.4,0c-0.1,0-0.3-0.1-0.4-0.2l0.2-0.3c0.1,0,0.1,0.1,0.2,0.1s0.1,0,0.2,0.1c0.1,0,0.2,0,0.3,0h1.2
			v0.3H57.9z M59.1,49.4v-0.3c0,0,0,0,0.1,0c0,0,0,0,0,0c0,0,0,0,0,0.1c0,0,0,0,0,0.1c0,0,0,0,0,0.1c0,0,0,0,0,0.1
			C59.2,49.4,59.2,49.4,59.1,49.4C59.1,49.4,59.1,49.4,59.1,49.4z"/>
		<path d="M59.1,49.4C59,49.4,59,49.4,59.1,49.4c-0.1,0-0.1,0-0.1,0c0,0,0,0,0-0.1c0,0,0,0,0-0.1c0,0,0-0.1,0-0.1c0,0,0,0,0-0.1
			c0,0,0,0,0.1,0V49.4z M59.1,49.4v-0.3h0.8l-0.1,0.1v-3.5h0.3v3.7H59.1z M59.7,45.1v-0.5h0.3v0.5H59.7z"/>
		<path d="M61.4,49.4V44h0.3v5.4H61.4z"/>
		<path d="M62.5,51c-0.1,0-0.1,0-0.2,0c-0.1,0-0.1,0-0.2,0l0-0.3c0.1,0,0.1,0,0.2,0s0.1,0,0.2,0c0.3,0,0.5-0.1,0.6-0.3
			s0.2-0.5,0.2-0.9v-3.8h0.3v3.8c0,0.3,0,0.6-0.2,0.8c-0.1,0.2-0.2,0.4-0.4,0.5S62.7,51,62.5,51z M63.5,49.4v-0.3h0.8v0.3H63.5z
			 M64.3,49.4v-0.3c0,0,0,0,0.1,0s0,0,0,0s0,0,0,0.1c0,0,0,0,0,0.1c0,0,0,0,0,0.1c0,0,0,0,0,0.1C64.4,49.4,64.4,49.4,64.3,49.4
			C64.4,49.4,64.4,49.4,64.3,49.4z"/>
		<path d="M64.3,49.4C64.3,49.4,64.3,49.4,64.3,49.4c-0.1,0-0.1,0-0.1,0c0,0,0,0,0-0.1c0,0,0,0,0-0.1c0,0,0-0.1,0-0.1c0,0,0,0,0-0.1
			c0,0,0,0,0.1,0V49.4z M64.3,49.4v-0.3h4.5l-0.2,0.2V48c0-0.5-0.1-0.9-0.2-1.2c-0.1-0.3-0.3-0.6-0.6-0.7c-0.3-0.2-0.6-0.2-1-0.2
			c-0.2,0-0.3,0-0.5,0c-0.2,0-0.3,0-0.5,0.1S65.5,46,65.3,46l0-0.3c0.1,0,0.2-0.1,0.3-0.1c0.2,0,0.4-0.1,0.6-0.1
			c0.2,0,0.4-0.1,0.6-0.1c0.3,0,0.5,0,0.8,0.1c0.3,0.1,0.5,0.2,0.7,0.4c0.2,0.2,0.4,0.4,0.5,0.8S69,47.5,69,48v1.4H64.3z M65.2,49.1
			v-0.8c0-0.2,0-0.4,0.1-0.6s0.2-0.3,0.4-0.4c0.2-0.1,0.4-0.2,0.6-0.2s0.4,0.1,0.6,0.2c0.2,0.1,0.3,0.3,0.4,0.4
			c0.1,0.2,0.1,0.4,0.1,0.6v0.8h-0.3v-0.8c0-0.2,0-0.3-0.1-0.5c-0.1-0.1-0.2-0.2-0.3-0.3c-0.1-0.1-0.3-0.1-0.4-0.1
			c-0.1,0-0.3,0-0.4,0.1c-0.1,0.1-0.2,0.2-0.3,0.3s-0.1,0.3-0.1,0.5v0.8H65.2z"/>
		<path d="M69.6,51c-0.1,0-0.1,0-0.2,0c-0.1,0-0.1,0-0.2,0l0-0.3c0.1,0,0.1,0,0.2,0s0.1,0,0.2,0c0.3,0,0.5-0.1,0.6-0.3
			s0.2-0.5,0.2-0.9v-3.8h0.3v3.8c0,0.3,0,0.6-0.2,0.8c-0.1,0.2-0.2,0.4-0.4,0.5S69.8,51,69.6,51z M70.5,45.1v-0.5h0.3v0.5H70.5z
			 M70.7,49.4v-0.3h0.8v0.3H70.7z M71.5,49.4v-0.3c0,0,0,0,0.1,0s0,0,0,0s0,0,0,0.1c0,0,0,0,0,0.1c0,0,0,0,0,0.1c0,0,0,0,0,0.1
			C71.6,49.4,71.6,49.4,71.5,49.4C71.5,49.4,71.5,49.4,71.5,49.4z"/>
		<path d="M71.5,49.4C71.4,49.4,71.4,49.4,71.5,49.4c-0.1,0-0.1,0-0.1,0c0,0,0,0,0-0.1c0,0,0,0,0-0.1c0,0,0-0.1,0-0.1c0,0,0,0,0-0.1
			c0,0,0,0,0.1,0V49.4z M71.5,49.4v-0.3h0.7v0.3H71.5z M72.2,49.4V44h0.3v5.4H72.2z"/>
		<path d="M73.8,49.4V44h0.3v5.4H73.8z"/>
		<path d="M77.7,51c-0.2,0-0.3,0-0.5,0s-0.3-0.1-0.5-0.1l0.1-0.3c0.2,0,0.4,0.1,0.6,0.1c0.2,0,0.3,0,0.4,0c0.4,0,0.7-0.1,0.8-0.3
			c0.2-0.2,0.3-0.4,0.3-0.7v-3.8l0.2,0.1h-1.1c-0.3,0-0.5,0-0.7,0.1c-0.2,0.1-0.3,0.2-0.3,0.5c-0.1,0.2-0.1,0.5-0.1,0.9
			c0,0.4,0,0.7,0.1,0.9c0.1,0.2,0.2,0.4,0.3,0.5c0.2,0.1,0.4,0.1,0.7,0.1h0.9v0.3h-0.9c-0.4,0-0.7-0.1-0.9-0.2s-0.4-0.3-0.4-0.6
			c-0.1-0.3-0.1-0.6-0.1-1c0-0.4,0-0.8,0.1-1c0.1-0.3,0.2-0.5,0.4-0.6s0.5-0.2,0.9-0.2h1.2v4c0,0.3-0.1,0.5-0.2,0.7
			c-0.1,0.2-0.3,0.3-0.5,0.4C78.2,50.9,78,51,77.7,51z M79.1,49.4v-0.3h0.7v0.3H79.1z M79.8,49.4v-0.3c0,0,0.1,0,0.1,0c0,0,0,0,0,0
			c0,0,0,0,0,0.1s0,0,0,0.1c0,0,0,0,0,0.1c0,0,0,0,0,0.1C79.9,49.4,79.9,49.4,79.8,49.4C79.8,49.4,79.8,49.4,79.8,49.4z"/>
		<path d="M79.8,49.4C79.7,49.4,79.7,49.4,79.8,49.4c-0.1,0-0.1,0-0.1,0c0,0,0,0,0-0.1c0,0,0,0,0-0.1c0,0,0-0.1,0-0.1c0,0,0,0,0-0.1
			c0,0,0,0,0.1,0V49.4z M79.8,49.4v-0.3h1.6v0.3H79.8z M81.4,49.4v-0.3c0,0,0.1,0,0.1,0s0,0,0,0s0,0,0,0.1c0,0,0,0,0,0.1
			c0,0,0,0,0,0.1c0,0,0,0,0,0.1C81.5,49.4,81.5,49.4,81.4,49.4C81.5,49.4,81.4,49.4,81.4,49.4z"/>
		<path d="M79.8,49.4C79.7,49.4,79.7,49.4,79.8,49.4c-0.1,0-0.1,0-0.1,0c0,0,0,0,0-0.1c0,0,0,0,0-0.1c0,0,0-0.1,0-0.1c0,0,0,0,0-0.1
			c0,0,0,0,0.1,0V49.4z M79.8,49.4v-0.3h1.6v0.3H79.8z M81.4,49.4v-0.3c0,0,0.1,0,0.1,0s0,0,0,0s0,0,0,0.1c0,0,0,0,0,0.1
			c0,0,0,0,0,0.1c0,0,0,0,0,0.1C81.5,49.4,81.5,49.4,81.4,49.4C81.5,49.4,81.4,49.4,81.4,49.4z"/>
		<path d="M81.4,49.4C81.4,49.4,81.4,49.4,81.4,49.4c-0.1,0-0.1,0-0.1,0c0,0,0,0,0-0.1c0,0,0,0,0-0.1c0,0,0-0.1,0-0.1c0,0,0,0,0-0.1
			c0,0,0,0,0.1,0V49.4z M81.4,49.4v-0.3h4.5l-0.3,0.3v-1.7c0-0.3,0-0.6-0.1-0.9c-0.1-0.2-0.2-0.4-0.4-0.5S84.7,46,84.4,46
			c-0.2,0-0.4,0-0.5,0.1c-0.2,0.1-0.3,0.1-0.4,0.2s-0.3,0.2-0.4,0.3c-0.1,0.1-0.2,0.3-0.3,0.4c-0.1,0.1-0.2,0.3-0.3,0.4l-0.2-0.3
			c0.1-0.2,0.2-0.3,0.3-0.5c0.1-0.2,0.2-0.3,0.3-0.4c0.1-0.1,0.3-0.3,0.4-0.4s0.3-0.2,0.5-0.2c0.2-0.1,0.4-0.1,0.6-0.1
			c0.3,0,0.6,0.1,0.8,0.2s0.4,0.3,0.5,0.5s0.2,0.4,0.2,0.6c0,0.2,0.1,0.4,0.1,0.6v1.8H81.4z M82.1,49.1v-3.4h0.3v3.4H82.1z
			 M83.9,45.1v-0.5h0.3v0.5H83.9z M85.9,49.4v-0.3h0.7v0.3H85.9z M86.6,49.4v-0.3c0,0,0.1,0,0.1,0s0,0,0,0s0,0,0,0.1s0,0,0,0.1
			c0,0,0,0,0,0.1c0,0,0,0,0,0.1C86.7,49.4,86.7,49.4,86.6,49.4C86.7,49.4,86.6,49.4,86.6,49.4z"/>
		<path d="M86.6,49.4C86.6,49.4,86.6,49.4,86.6,49.4c-0.1,0-0.1,0-0.1,0c0,0,0,0,0-0.1c0,0,0,0,0-0.1c0,0,0-0.1,0-0.1c0,0,0,0,0-0.1
			c0,0,0,0,0.1,0V49.4z M86.6,49.4v-0.3h3.3v0.3H86.6z M88,49.4c-0.2-0.2-0.4-0.5-0.5-0.8c-0.1-0.3-0.2-0.6-0.2-0.9
			c0-0.3,0-0.5,0.1-0.8c0.1-0.2,0.2-0.4,0.4-0.6s0.3-0.3,0.5-0.4c0.2-0.1,0.4-0.1,0.7-0.1c0.1,0,0.3,0,0.4,0c0.1,0,0.3,0.1,0.4,0.1
			l-0.1,0.3c-0.1,0-0.2-0.1-0.4-0.1s-0.2,0-0.4,0c-0.3,0-0.5,0.1-0.7,0.2s-0.4,0.3-0.5,0.6c-0.1,0.2-0.2,0.5-0.2,0.8
			c0,0.3,0.1,0.5,0.2,0.8c0.1,0.2,0.3,0.5,0.5,0.7L88,49.4z"/>
	</g>
	<g>
		<path d="M2.1,41.3l1.2-4.7H5l1.2,4.7H5.2L5,40.3H3.3l-0.2,0.9H2.1z M3.5,39.5h1.4l-0.5-2.2H4L3.5,39.5z"/>
		<path d="M6.8,41.3v-4.7h0.9v3.9h1.9v0.8H6.8z"/>
		<path d="M10.1,41.3v-0.9l2.1-2.9v-0.1h-2.1v-0.8h3.3v0.9l-2.1,2.9v0.1h2.1v0.8H10.1z"/>
		<path d="M13.8,41.3l1.2-4.7h1.7l1.2,4.7h-0.9l-0.3-0.9H15l-0.2,0.9H13.8z M15.2,39.5h1.4L16,37.3h-0.3L15.2,39.5z"/>
		<path d="M18.5,41.3v-4.7h0.9v2h1.8v-2h0.9v4.7h-0.9v-1.9h-1.8v1.9H18.5z"/>
		<path d="M22.9,41.3l1.2-4.7h1.7l1.2,4.7H26l-0.3-0.9h-1.6l-0.2,0.9H22.9z M24.2,39.5h1.4L25,37.3h-0.3L24.2,39.5z"/>
		<path d="M27.6,41.3v-4.7h1.8c0.4,0,0.7,0,0.9,0.1c0.3,0.1,0.4,0.3,0.6,0.5s0.2,0.5,0.2,0.9c0,0.3-0.1,0.6-0.2,0.9
			c-0.1,0.2-0.3,0.4-0.6,0.5l0.7,1.8h-1l-0.6-1.6h-1v1.6H27.6z M28.5,38.9h0.9c0.2,0,0.3,0,0.4-0.1s0.2-0.2,0.2-0.3
			c0-0.1,0.1-0.3,0.1-0.4c0-0.3-0.1-0.4-0.2-0.6c-0.1-0.1-0.3-0.2-0.6-0.2h-0.9V38.9z"/>
		<path d="M31.6,41.3l1.2-4.7h1.7l1.2,4.7h-0.9l-0.3-0.9h-1.6l-0.2,0.9H31.6z M32.9,39.5h1.4l-0.5-2.2h-0.3L32.9,39.5z"/>
		<path d="M36.3,41.3v-4.7h1.2l1.5,3.3h0.1v-3.3h0.9v4.7h-1.2l-1.5-3.4h-0.1v3.4H36.3z"/>
		<path d="M41.1,41.3v-4.7H42v4.7H41.1z"/>
		<path d="M45.6,41.3v-3.9h-1.3v-0.8h3.4v0.8h-1.2v3.9H45.6z"/>
		<path d="M48.4,41.3v-4.7h1.8c0.4,0,0.7,0,0.9,0.1c0.3,0.1,0.4,0.3,0.6,0.5s0.2,0.5,0.2,0.9c0,0.3-0.1,0.6-0.2,0.9
			c-0.1,0.2-0.3,0.4-0.6,0.5l0.7,1.8h-1l-0.6-1.6h-1v1.6H48.4z M49.3,38.9h0.9c0.2,0,0.3,0,0.4-0.1s0.2-0.2,0.2-0.3
			c0-0.1,0.1-0.3,0.1-0.4c0-0.3-0.1-0.4-0.2-0.6c-0.1-0.1-0.3-0.2-0.6-0.2h-0.9V38.9z"/>
		<path d="M52.4,41.3l1.2-4.7h1.7l1.2,4.7h-0.9l-0.3-0.9h-1.6l-0.2,0.9H52.4z M53.7,39.5h1.4l-0.5-2.2h-0.3L53.7,39.5z"/>
		<path d="M57.1,41.3v-4.7h1.8c0.4,0,0.7,0.1,0.9,0.2c0.2,0.1,0.5,0.3,0.6,0.5c0.2,0.2,0.3,0.4,0.3,0.7c0.1,0.3,0.1,0.6,0.1,1
			c0,0.4,0,0.7-0.1,1s-0.2,0.5-0.3,0.8c-0.1,0.2-0.3,0.4-0.6,0.5c-0.2,0.1-0.6,0.2-0.9,0.2H57.1z M58,40.5h0.8c0.2,0,0.4,0,0.5-0.1
			c0.1-0.1,0.2-0.2,0.3-0.3c0.1-0.1,0.1-0.3,0.1-0.5c0-0.2,0-0.4,0-0.6c0-0.2,0-0.4,0-0.6c0-0.2-0.1-0.3-0.1-0.5
			c-0.1-0.1-0.2-0.2-0.3-0.3c-0.1-0.1-0.3-0.1-0.5-0.1H58V40.5z"/>
		<path d="M61.7,41.3v-4.7h0.9v4.7H61.7z"/>
		<path d="M63.6,41.3v-4.7h1.2l1.5,3.3h0.1v-3.3h0.9v4.7h-1.2l-1.5-3.4h-0.1v3.4H63.6z"/>
		<path d="M70.3,41.3c-0.4,0-0.7-0.1-1-0.2s-0.5-0.3-0.6-0.5c-0.1-0.2-0.2-0.5-0.3-0.8c-0.1-0.3-0.1-0.6-0.1-1c0-0.4,0-0.8,0.1-1.1
			s0.2-0.6,0.3-0.8c0.2-0.2,0.4-0.3,0.6-0.4c0.2-0.1,0.6-0.1,0.9-0.1c0.2,0,0.4,0,0.6,0s0.4,0,0.6,0.1c0.2,0,0.3,0.1,0.5,0.1l0,0.7
			c-0.1,0-0.3,0-0.5-0.1c-0.2,0-0.4,0-0.6,0c-0.2,0-0.4,0-0.5,0c-0.2,0-0.4,0-0.6,0.1s-0.3,0.2-0.3,0.3c-0.1,0.1-0.1,0.3-0.2,0.5
			c0,0.2,0,0.4,0,0.7c0,0.4,0,0.7,0.1,0.9c0.1,0.2,0.2,0.4,0.3,0.5c0.2,0.1,0.4,0.2,0.7,0.2c0.1,0,0.2,0,0.2,0c0.1,0,0.2,0,0.2,0
			c0.1,0,0.1,0,0.2,0v-1h-0.6v-0.7h1.5v2.4c-0.1,0-0.2,0-0.4,0.1c-0.1,0-0.3,0-0.4,0.1c-0.2,0-0.3,0-0.4,0S70.4,41.3,70.3,41.3z"/>
		<path d="M76,41.3c-0.4,0-0.8-0.1-1-0.2c-0.3-0.1-0.5-0.3-0.6-0.5c-0.1-0.2-0.2-0.5-0.2-0.8c0-0.3,0-0.5,0.1-0.7s0.2-0.3,0.3-0.4
			s0.3-0.2,0.5-0.3c-0.1-0.1-0.2-0.2-0.2-0.3s-0.1-0.2-0.1-0.3c0-0.1,0-0.2,0-0.4c0-0.2,0-0.4,0.2-0.6c0.1-0.2,0.3-0.3,0.5-0.4
			c0.2-0.1,0.5-0.1,0.8-0.1c0.3,0,0.5,0,0.7,0.1c0.2,0.1,0.4,0.2,0.5,0.4c0.1,0.2,0.2,0.4,0.2,0.6c0,0.2,0,0.3-0.1,0.4
			s-0.1,0.2-0.2,0.3c-0.1,0.1-0.2,0.2-0.3,0.3c-0.1,0.1-0.3,0.2-0.5,0.2l0.8,0.8c0-0.1,0-0.1,0.1-0.2c0-0.1,0-0.2,0.1-0.3
			c0-0.1,0-0.2,0-0.3l0.8,0c0,0.2-0.1,0.3-0.1,0.5c0,0.2-0.1,0.3-0.1,0.5c0,0.1-0.1,0.3-0.1,0.4l0.7,0.7l-0.3,0.5l-0.9-0.6
			c-0.2,0.2-0.4,0.4-0.6,0.5C76.6,41.3,76.3,41.3,76,41.3z M76,40.6c0.2,0,0.3,0,0.5-0.1c0.1-0.1,0.2-0.2,0.3-0.3l-1.2-1.1
			c-0.1,0-0.2,0.1-0.3,0.2c-0.1,0.1-0.1,0.1-0.2,0.2c0,0.1-0.1,0.2-0.1,0.3c0,0.3,0.1,0.5,0.2,0.6C75.5,40.5,75.7,40.6,76,40.6z
			 M76.1,38.4c0.1-0.1,0.2-0.1,0.3-0.2c0.1-0.1,0.2-0.1,0.2-0.2s0.1-0.2,0.1-0.3c0-0.2,0-0.3-0.1-0.4c-0.1-0.1-0.2-0.1-0.4-0.1
			c-0.2,0-0.3,0-0.4,0.1c-0.1,0.1-0.1,0.2-0.1,0.4c0,0.1,0,0.1,0,0.2c0,0.1,0,0.1,0.1,0.2c0,0.1,0.1,0.1,0.1,0.2
			C76,38.2,76,38.3,76.1,38.4z"/>
		<path d="M82.7,41.3c-0.4,0-0.7,0-0.9-0.1c-0.2-0.1-0.4-0.2-0.6-0.4c-0.1-0.2-0.2-0.4-0.3-0.8c-0.1-0.3-0.1-0.7-0.1-1.1
			c0-0.4,0-0.8,0.1-1.1c0.1-0.3,0.1-0.6,0.3-0.8c0.1-0.2,0.3-0.3,0.6-0.4c0.2-0.1,0.5-0.1,0.9-0.1c0.2,0,0.3,0,0.5,0
			c0.2,0,0.3,0,0.5,0.1c0.2,0,0.3,0.1,0.4,0.1l0,0.8c-0.1,0-0.2,0-0.3-0.1s-0.3,0-0.4,0c-0.1,0-0.3,0-0.4,0c-0.2,0-0.4,0-0.5,0.1
			c-0.1,0.1-0.2,0.1-0.3,0.3c-0.1,0.1-0.1,0.3-0.2,0.5c0,0.2,0,0.5,0,0.8c0,0.3,0,0.5,0,0.7s0.1,0.4,0.2,0.5
			c0.1,0.1,0.2,0.2,0.3,0.3s0.3,0.1,0.5,0.1c0.2,0,0.4,0,0.6,0c0.2,0,0.4,0,0.6-0.1l0,0.8c-0.1,0-0.2,0-0.4,0.1
			c-0.2,0-0.3,0-0.5,0.1C83,41.3,82.8,41.3,82.7,41.3z"/>
		<path d="M86.7,41.3c-0.5,0-0.9-0.1-1.2-0.3c-0.3-0.2-0.5-0.4-0.6-0.8s-0.2-0.8-0.2-1.3c0-0.5,0.1-1,0.2-1.4
			c0.1-0.4,0.3-0.6,0.6-0.8c0.3-0.2,0.7-0.3,1.2-0.3c0.5,0,0.9,0.1,1.2,0.3c0.3,0.2,0.5,0.5,0.6,0.8c0.1,0.4,0.2,0.8,0.2,1.4
			c0,0.5-0.1,1-0.2,1.4s-0.3,0.6-0.6,0.8C87.5,41.2,87.2,41.3,86.7,41.3z M86.7,40.5c0.3,0,0.5-0.1,0.7-0.2c0.1-0.1,0.2-0.3,0.3-0.5
			c0-0.2,0.1-0.5,0.1-0.9s0-0.7-0.1-0.9s-0.2-0.4-0.3-0.6s-0.4-0.2-0.7-0.2c-0.3,0-0.5,0.1-0.7,0.2c-0.1,0.1-0.2,0.3-0.3,0.6
			c-0.1,0.2-0.1,0.5-0.1,0.9c0,0.4,0,0.6,0.1,0.9s0.2,0.4,0.3,0.5C86.1,40.5,86.4,40.5,86.7,40.5z"/>
		<path d="M89.5,41.3v-4.7h1.2l1.5,3.3h0.1v-3.3h0.9v4.7h-1.2l-1.5-3.4h-0.1v3.4H89.5z"/>
		<path d="M95.2,41.3v-3.9H94v-0.8h3.4v0.8h-1.2v3.9H95.2z"/>
		<path d="M98,41.3v-4.7h1.8c0.4,0,0.7,0,0.9,0.1c0.3,0.1,0.4,0.3,0.6,0.5s0.2,0.5,0.2,0.9c0,0.3-0.1,0.6-0.2,0.9
			c-0.1,0.2-0.3,0.4-0.6,0.5l0.7,1.8h-1l-0.6-1.6h-1v1.6H98z M99,38.9h0.9c0.2,0,0.3,0,0.4-0.1s0.2-0.2,0.2-0.3
			c0-0.1,0.1-0.3,0.1-0.4c0-0.3-0.1-0.4-0.2-0.6c-0.1-0.1-0.3-0.2-0.6-0.2H99V38.9z"/>
		<path d="M102,41.3l1.2-4.7h1.7l1.2,4.7h-0.9l-0.3-0.9h-1.6l-0.2,0.9H102z M103.4,39.5h1.4l-0.5-2.2h-0.3L103.4,39.5z"/>
		<path d="M108.4,41.3c-0.4,0-0.7,0-0.9-0.1c-0.2-0.1-0.4-0.2-0.6-0.4c-0.1-0.2-0.2-0.4-0.3-0.8c-0.1-0.3-0.1-0.7-0.1-1.1
			c0-0.4,0-0.8,0.1-1.1c0.1-0.3,0.1-0.6,0.3-0.8c0.1-0.2,0.3-0.3,0.6-0.4c0.2-0.1,0.5-0.1,0.9-0.1c0.2,0,0.3,0,0.5,0
			c0.2,0,0.3,0,0.5,0.1c0.2,0,0.3,0.1,0.4,0.1l0,0.8c-0.1,0-0.2,0-0.3-0.1s-0.3,0-0.4,0c-0.1,0-0.3,0-0.4,0c-0.2,0-0.4,0-0.5,0.1
			c-0.1,0.1-0.2,0.1-0.3,0.3c-0.1,0.1-0.1,0.3-0.2,0.5c0,0.2,0,0.5,0,0.8c0,0.3,0,0.5,0,0.7s0.1,0.4,0.2,0.5
			c0.1,0.1,0.2,0.2,0.3,0.3s0.3,0.1,0.5,0.1c0.2,0,0.4,0,0.6,0c0.2,0,0.4,0,0.6-0.1l0,0.8c-0.1,0-0.2,0-0.4,0.1
			c-0.2,0-0.3,0-0.5,0.1C108.8,41.3,108.6,41.3,108.4,41.3z"/>
		<path d="M111.5,41.3v-3.9h-1.3v-0.8h3.4v0.8h-1.2v3.9H111.5z"/>
		<path d="M114.3,41.3v-4.7h0.9v4.7H114.3z"/>
		<path d="M116.3,41.3v-4.7h1.2l1.5,3.3h0.1v-3.3h0.9v4.7h-1.2l-1.5-3.4h-0.1v3.4H116.3z"/>
		<path d="M122.9,41.3c-0.4,0-0.7-0.1-1-0.2s-0.5-0.3-0.6-0.5c-0.1-0.2-0.2-0.5-0.3-0.8c-0.1-0.3-0.1-0.6-0.1-1c0-0.4,0-0.8,0.1-1.1
			s0.2-0.6,0.3-0.8c0.2-0.2,0.4-0.3,0.6-0.4c0.2-0.1,0.6-0.1,0.9-0.1c0.2,0,0.4,0,0.6,0s0.4,0,0.6,0.1c0.2,0,0.3,0.1,0.5,0.1l0,0.7
			c-0.1,0-0.3,0-0.5-0.1c-0.2,0-0.4,0-0.6,0c-0.2,0-0.4,0-0.5,0c-0.2,0-0.4,0-0.6,0.1s-0.3,0.2-0.3,0.3c-0.1,0.1-0.1,0.3-0.2,0.5
			c0,0.2,0,0.4,0,0.7c0,0.4,0,0.7,0.1,0.9c0.1,0.2,0.2,0.4,0.3,0.5c0.2,0.1,0.4,0.2,0.7,0.2c0.1,0,0.2,0,0.2,0c0.1,0,0.2,0,0.2,0
			c0.1,0,0.1,0,0.2,0v-1h-0.6v-0.7h1.5v2.4c-0.1,0-0.2,0-0.4,0.1c-0.1,0-0.3,0-0.4,0.1c-0.2,0-0.3,0-0.4,0S123,41.3,122.9,41.3z"/>
	</g>
</g>
</svg>
