<?xml version="1.0" encoding="utf-8"?>
<!-- Generator: Adobe Illustrator 24.3.0, SVG Export Plug-In . SVG Version: 6.00 Build 0)  -->
<svg version="1.1" id="Layer_1" xmlns="http://www.w3.org/2000/svg" xmlns:xlink="http://www.w3.org/1999/xlink" x="0px" y="0px"
	 viewBox="0 0 164 68" style="enable-background:new 0 0 164 68;" xml:space="preserve">
<style type="text/css">
	.st0{fill:none;}
	.st1{fill:#1E1F1C;}
	.st2{fill:#020203;}
	.st3{fill:#040404;}
	.st4{fill:#0C0809;}
	.st5{fill:#211E1F;}
	.st6{fill:#FCFEFF;}
	.st7{fill:#000102;}
	.st8{fill:none;stroke:#F9F9F9;stroke-width:0.25;stroke-miterlimit:10;}
	.st9{fill:#262626;}
	.st10{fill:#000002;}
</style>
<g>
	<path d="M7.4,19.3L1.8,31.7h1.9L5,28.6h6.2l1.3,3.1h4.6l-5.3-12.4H7.4z M8.2,21.2l2.5,5.9h-5L8.2,21.2z"/>
	<path d="M44.1,19.3l-5.7,12.4h1.9l1.3-3.1h6.2l1.3,3.1h4.6l-5.3-12.4H44.1z M44.9,21.2l2.5,5.9h-5L44.9,21.2z"/>
	<path d="M76.4,19.3l-5.7,12.4h1.9l1.3-3.1h6.2l1.3,3.1h4.6l-5.3-12.4H76.4z M77.1,21.2l2.5,5.9h-5L77.1,21.2z"/>
	<path d="M90.3,27.3c-1.2,0-2.2,1-2.2,2.2c0,1.2,1,2.2,2.2,2.2c1.2,0,2.2-1,2.2-2.2C92.4,28.3,91.5,27.3,90.3,27.3"/>
	<polygon points="28,29.1 23.7,19.3 19.1,19.3 19.1,31.7 20.7,31.7 20.7,22.9 24.4,31.7 28.5,31.7 32.1,22.9 32.1,31.7 36.5,31.7 
		36.5,19.3 32.1,19.3 	"/>
	<polygon points="67.2,28.7 60.4,19.3 55.8,19.3 55.8,31.7 57.4,31.7 57.4,22.3 64.2,31.7 68.8,31.7 68.8,19.3 67.2,19.3 	"/>
	<path d="M31.2,45.3v-5.5c0-1.9-1.5-3.4-3.4-3.4h-7.6c-1.9,0-3.4,1.5-3.4,3.4v5.5c0,1.9,1.5,3.4,3.4,3.4h7.6
		C29.6,48.7,31.2,47.1,31.2,45.3 M26.8,46c0,0.7-0.5,1.3-1.1,1.3h-3.4c-0.6,0-1.1-0.6-1.1-1.3V39c0-0.7,0.5-1.3,1.1-1.3h3.4
		c0.6,0,1.1,0.6,1.1,1.3V46z"/>
	<polygon points="33.2,48.7 33.2,36.3 37.8,36.3 44.5,45.7 44.5,36.3 46.1,36.3 46.1,48.7 41.5,48.7 34.8,39.3 34.8,48.7 	"/>
	<polygon points="133.7,48.7 133.7,36.3 138.3,36.3 145,45.7 145,36.3 146.6,36.3 146.6,48.7 142,48.7 135.2,39.3 135.2,48.7 	"/>
	<path d="M90.4,48.7H95l-5.3-12.3h-4.4l-5.6,12.3h1.9l1.3-3.1h6.2L90.4,48.7z M86.1,38.2l2.4,5.9h-5L86.1,38.2z"/>
	<path d="M156.7,47.2l-2.6,0c-0.6,0-1.1-0.5-1.1-1.1v-7.2c0-0.6,0.5-1.1,1.1-1.1h7.4v-1.4H152c-1.9,0-3.4,1.5-3.4,3.4v5.5
		c0,1.9,1.5,3.4,3.4,3.4h4.3c0,0,1.5,0,2.1-1l0.9,1h2.9v-7.1h-6V43h1.6v3C157.8,46.4,157.6,47.2,156.7,47.2"/>
	<path d="M14.7,47.2l-7.4,0c-0.6,0-1.1-0.5-1.1-1.1v-7.2c0-0.6,0.5-1.1,1.1-1.1h7.4v-1.4H5.2c-1.9,0-3.4,1.5-3.4,3.4v5.5
		c0,1.9,1.5,3.4,3.4,3.4h9.5V47.2z"/>
	<path d="M109.9,47.2l-7.4,0c-0.6,0-1.1-0.5-1.1-1.1v-7.2c0-0.6,0.5-1.1,1.1-1.1h7.4v-1.4h-9.5c-1.9,0-3.4,1.5-3.4,3.4v5.5
		c0,1.9,1.5,3.4,3.4,3.4h9.5V47.2z"/>
	<rect x="127.3" y="36.3" width="4.4" height="12.3"/>
	<polygon points="61.5,37.8 61.5,36.3 48.1,36.3 48.1,37.8 52.6,37.8 52.6,48.7 57,48.7 57,37.8 	"/>
	<polygon points="125.3,37.8 125.3,36.3 111.9,36.3 111.9,37.8 116.4,37.8 116.4,48.7 120.8,48.7 120.8,37.8 	"/>
	<path d="M67.9,42.8h1.7l3.4,5.9h4.8l-3.5-5.9h1c1,0,1.9-0.8,1.9-1.9V39c0-1.5-1.2-2.7-2.7-2.7h-11v12.3h4.4V42.8z M67.9,37.8h3.6
		c0.6,0,1.1,0.5,1.1,1.1v1.3c0,0.6-0.5,1.1-1.1,1.1h-3.6V37.8z"/>
</g>
</svg>
