<?xml version="1.0" encoding="utf-8"?>
<!-- Generator: Adobe Illustrator 24.3.0, SVG Export Plug-In . SVG Version: 6.00 Build 0)  -->
<svg version="1.1" id="Layer_1" xmlns="http://www.w3.org/2000/svg" xmlns:xlink="http://www.w3.org/1999/xlink" x="0px" y="0px"
	 viewBox="0 0 164 68" style="enable-background:new 0 0 164 68;" xml:space="preserve">
<style type="text/css">
	.st0{fill:#020203;}
	.st1{fill:#1E1E1C;}
	.st2{fill:#020304;}
	.st3{fill:none;stroke:#FAFAFA;stroke-width:0.25;stroke-miterlimit:10;}
	.st4{fill:#040505;}
	.st5{fill:#FDFEFF;}
	.st6{fill:none;}
	.st7{fill:#1F201D;}
	.st8{fill:#030304;}
	.st9{fill:#FFFFFF;stroke:#020203;stroke-width:0.25;stroke-miterlimit:10.0001;}
	.st10{fill:none;stroke:#020203;stroke-width:0.5;stroke-miterlimit:10;}
	.st11{fill:#080809;}
	.st12{fill:none;stroke:#020303;stroke-width:0.5;stroke-miterlimit:10;}
	.st13{fill:#262626;}
	.st14{fill:#0B090A;}
	.st15{fill:#221F20;}
	.st16{fill:#E02120;}
	.st17{clip-path:url(#SVGID_2_);}
	.st18{fill:#050606;}
	.st19{fill:#FFFFFF;}
</style>
<g>
	<g>
		<g>
			<defs>
				<rect id="SVGID_1_" x="113.5" y="17.7" width="36.2" height="36.2"/>
			</defs>
			<clipPath id="SVGID_2_">
				<use xlink:href="#SVGID_1_"  style="overflow:visible;"/>
			</clipPath>
			<g class="st17">
				<polygon class="st18" points="95.5,33.4 134,-0.3 167.7,38.1 129.3,71.9 				"/>
			</g>
		</g>
		<path class="st19" d="M133.5,32.8c0.4,0.2,0.7,0.6,0.7,1c-0.1,0.4-0.5,0.5-0.9,0.3c-0.4-0.2-0.7-0.6-0.7-1
			C132.7,32.7,133.1,32.6,133.5,32.8"/>
		<path class="st19" d="M134.8,25.9c0.3,0.2,0.6,0.5,0.6,0.7c0,0.2-0.3,0.3-0.7,0.1c-0.4-0.2-0.6-0.5-0.6-0.7
			C134.1,25.8,134.4,25.7,134.8,25.9"/>
		<path class="st19" d="M134.9,25.2c0.3,0.2,0.5,0.4,0.5,0.6c0,0.2-0.3,0.2-0.6,0c-0.3-0.2-0.5-0.4-0.5-0.6
			C134.3,25.1,134.6,25.1,134.9,25.2"/>
		<path class="st19" d="M135,24.5c0.3,0.1,0.5,0.4,0.4,0.5c0,0.2-0.3,0.2-0.5,0c-0.3-0.2-0.5-0.4-0.4-0.5S134.7,24.4,135,24.5"/>
		<path class="st19" d="M135.1,23.9c0.3,0.1,0.4,0.3,0.4,0.5c0,0.1-0.2,0.1-0.5,0c-0.3-0.1-0.4-0.4-0.4-0.5
			C134.6,23.7,134.9,23.7,135.1,23.9"/>
		<path class="st19" d="M135.2,23.2c0.2,0.1,0.4,0.3,0.4,0.5c0,0.1-0.2,0.1-0.5,0c-0.2-0.1-0.4-0.3-0.4-0.5
			C134.7,23.1,135,23.1,135.2,23.2"/>
		<path class="st19" d="M135.3,22.7c0.2,0.1,0.4,0.3,0.4,0.4c0,0.1-0.2,0.1-0.4,0s-0.4-0.3-0.4-0.4
			C134.9,22.6,135.1,22.6,135.3,22.7"/>
		<path class="st19" d="M135.4,22.1c0.2,0.1,0.3,0.3,0.3,0.4c0,0.1-0.2,0.1-0.4,0c-0.2-0.1-0.3-0.3-0.3-0.4
			C135,22,135.2,22,135.4,22.1"/>
		<path class="st19" d="M135.5,21.6c0.2,0.1,0.3,0.2,0.3,0.3s-0.2,0.1-0.3,0s-0.3-0.2-0.3-0.3C135.1,21.5,135.3,21.5,135.5,21.6"/>
		<path class="st19" d="M135.5,21.1c0.2,0.1,0.3,0.2,0.3,0.3s-0.1,0.1-0.3,0c-0.2-0.1-0.3-0.2-0.3-0.3C135.3,21,135.4,21,135.5,21.1
			"/>
		<path class="st19" d="M135.6,20.6c0.1,0.1,0.2,0.2,0.2,0.3s-0.1,0-0.3,0c-0.1,0-0.2-0.2-0.2-0.3C135.4,20.5,135.5,20.5,135.6,20.6
			"/>
		<path class="st19" d="M135.7,20.1c0.1,0.1,0.2,0.2,0.2,0.2c0,0.1-0.1,0-0.2,0s-0.2-0.1-0.2-0.2C135.5,20,135.6,20,135.7,20.1"/>
		<path class="st19" d="M133,35.3c-0.3-0.1-0.6-0.5-0.5-0.9c0.1-0.3,0.4-0.4,0.7-0.2c0.3,0.1,0.6,0.5,0.5,0.9
			C133.7,35.4,133.4,35.5,133,35.3"/>
		<path class="st19" d="M132.8,36.8c-0.3-0.2-0.6-0.5-0.5-0.9c0.1-0.3,0.4-0.4,0.7-0.3c0.3,0.1,0.5,0.5,0.5,0.9
			C133.4,36.9,133.1,37,132.8,36.8"/>
		<path class="st19" d="M132.5,38.4c-0.3-0.1-0.5-0.5-0.5-0.9c0.1-0.3,0.4-0.4,0.7-0.3c0.3,0.2,0.5,0.5,0.5,0.9
			C133.1,38.4,132.8,38.5,132.5,38.4"/>
		<path class="st19" d="M132.1,40.1c-0.3-0.2-0.5-0.5-0.5-0.9c0.1-0.3,0.3-0.4,0.6-0.4c0.1,0,0.1,0,0.2,0.1c0.3,0.2,0.5,0.5,0.5,0.9
			c0,0.3-0.3,0.4-0.6,0.4C132.2,40.1,132.2,40.1,132.1,40.1"/>
		<path class="st19" d="M131.8,41.8c-0.3-0.1-0.5-0.5-0.4-0.8c0-0.2,0.3-0.4,0.5-0.3c0.1,0,0.1,0,0.1,0.1c0.3,0.1,0.5,0.4,0.4,0.7
			c0,0.2-0.3,0.4-0.5,0.4C131.9,41.8,131.8,41.8,131.8,41.8"/>
		<path class="st19" d="M131.4,43.8c-0.3-0.1-0.5-0.5-0.4-0.8c0-0.2,0.3-0.4,0.5-0.4c0.1,0,0.1,0,0.1,0c0.3,0.1,0.4,0.4,0.4,0.7
			c0,0.2-0.3,0.4-0.5,0.4C131.4,43.8,131.4,43.8,131.4,43.8"/>
		<path class="st19" d="M130.9,46c-0.3-0.1-0.4-0.4-0.3-0.7c0-0.2,0.2-0.4,0.4-0.3c0,0,0.1,0,0.1,0c0.3,0.1,0.4,0.4,0.3,0.7
			c0,0.2-0.2,0.4-0.4,0.4C131,46.1,130.9,46.1,130.9,46"/>
		<path class="st19" d="M130.4,48.3c-0.2-0.1-0.3-0.4-0.3-0.6c0-0.2,0.2-0.3,0.4-0.3c0,0,0.1,0,0.1,0c0.2,0.1,0.3,0.4,0.3,0.6
			C130.9,48.2,130.7,48.4,130.4,48.3"/>
		<path class="st19" d="M135,33.7c0.3,0.1,0.5,0.5,0.5,0.8c0,0.3-0.3,0.4-0.7,0.2c-0.3-0.1-0.5-0.5-0.5-0.8
			C134.4,33.6,134.7,33.6,135,33.7"/>
		<path class="st19" d="M136.5,34.3c0.4,0.2,0.7,0.6,0.7,1c0,0.4-0.4,0.5-0.8,0.3c-0.4-0.2-0.7-0.6-0.7-1
			C135.7,34.2,136.1,34.1,136.5,34.3"/>
		<path class="st19" d="M146.9,33.8c-0.2-0.1-0.3-0.1-0.3,0.1c0.1,0.2,0.2,0.4,0.3,0.5c0.2,0.1,0.3,0.1,0.3-0.1
			C147.2,34.1,147.1,33.9,146.9,33.8"/>
		<path class="st19" d="M145.7,33c-0.2-0.1-0.4-0.1-0.4,0.1c0.1,0.3,0.2,0.5,0.5,0.6c0.2,0.1,0.4,0.1,0.4-0.1
			C146.1,33.3,145.9,33.1,145.7,33"/>
		<path class="st19" d="M142.3,44.3c-0.3-0.2-0.5-0.1-0.5,0.3c0,0.4,0.2,0.7,0.5,1c0.3,0.2,0.5,0.1,0.5-0.3
			C142.8,44.8,142.6,44.5,142.3,44.3"/>
		<path class="st19" d="M140.9,41.4c-0.3-0.2-0.6-0.1-0.6,0.3c0,0.4,0.2,0.8,0.6,1c0.3,0.2,0.6,0.1,0.6-0.3
			C141.5,42,141.2,41.6,140.9,41.4"/>
		<path class="st19" d="M139.4,38.9c-0.3-0.2-0.6-0.1-0.6,0.3c0,0.4,0.2,0.7,0.6,0.9c0.3,0.2,0.6,0.1,0.6-0.3
			C139.9,39.5,139.7,39.1,139.4,38.9"/>
		<path class="st19" d="M138.4,28.8c-0.3-0.2-0.5-0.1-0.6,0.1c0.1,0.3,0.3,0.6,0.5,0.7c0.3,0.2,0.6,0.1,0.6-0.1
			C138.9,29.2,138.7,28.9,138.4,28.8"/>
		<path class="st19" d="M144.6,33.3c-0.2-0.1-0.4-0.1-0.4,0.1c0.1,0.3,0.2,0.5,0.5,0.6c0.2,0.1,0.4,0.1,0.4-0.1
			C145,33.6,144.9,33.4,144.6,33.3"/>
		<path class="st19" d="M143.4,32.6c-0.3-0.1-0.4-0.1-0.4,0.1c0.1,0.3,0.2,0.5,0.5,0.6c0.3,0.1,0.4,0.1,0.4-0.1
			C143.8,32.9,143.7,32.7,143.4,32.6"/>
		<path class="st19" d="M141,32.1c-0.3-0.2-0.5-0.1-0.5,0.1c0.1,0.3,0.3,0.6,0.5,0.7c0.3,0.2,0.5,0.1,0.5-0.1
			C141.5,32.5,141.3,32.3,141,32.1"/>
		<path class="st19" d="M142.2,31.8c-0.3-0.2-0.5-0.1-0.5,0.1c0.1,0.3,0.3,0.5,0.5,0.7c0.3,0.2,0.5,0.1,0.5-0.1
			C142.7,32.2,142.5,31.9,142.2,31.8"/>
		<path class="st19" d="M140.9,31.1c-0.3-0.2-0.6-0.1-0.6,0.1c0.1,0.3,0.3,0.6,0.6,0.7c0.3,0.2,0.6,0.1,0.6-0.1
			C141.4,31.5,141.2,31.2,140.9,31.1"/>
		<path class="st19" d="M139.7,31.4c-0.3-0.2-0.6-0.1-0.6,0.1c0.1,0.3,0.3,0.6,0.6,0.8c0.3,0.2,0.6,0.1,0.6-0.1
			C140.2,31.8,140,31.5,139.7,31.4"/>
		<path class="st19" d="M137.9,36.5c-0.3-0.2-0.6-0.1-0.7,0.2c0,0.4,0.2,0.7,0.6,0.9c0.4,0.2,0.6,0.1,0.7-0.3
			C138.5,37.1,138.3,36.7,137.9,36.5"/>
		<path class="st19" d="M138,35.2c-0.4-0.2-0.7-0.1-0.7,0.2c0,0.4,0.3,0.8,0.6,1c0.4,0.2,0.7,0.1,0.7-0.3
			C138.6,35.7,138.4,35.4,138,35.2"/>
		<path class="st19" d="M138.1,33.9c-0.4-0.2-0.7-0.1-0.7,0.2c0,0.4,0.3,0.8,0.7,1c0.4,0.2,0.7,0.1,0.7-0.2
			C138.8,34.5,138.5,34.1,138.1,33.9"/>
		<path class="st19" d="M138.2,32.7c-0.4-0.2-0.7-0.1-0.7,0.2c0,0.4,0.3,0.8,0.7,1c0.4,0.2,0.7,0.1,0.7-0.2
			C138.8,33.2,138.6,32.9,138.2,32.7"/>
		<path class="st19" d="M138.3,31.7c-0.3-0.2-0.6-0.1-0.7,0.1c0,0.4,0.3,0.7,0.6,0.8c0.3,0.2,0.6,0.1,0.6-0.2
			C138.8,32.1,138.6,31.8,138.3,31.7"/>
		<path class="st19" d="M138.3,30.6c-0.4-0.2-0.7-0.1-0.7,0.1c0,0.4,0.3,0.7,0.6,0.9c0.4,0.2,0.7,0.1,0.7-0.2
			C138.9,31.1,138.7,30.8,138.3,30.6"/>
		<path class="st19" d="M138.4,29.7c-0.4-0.2-0.7-0.1-0.7,0.1c0.1,0.4,0.3,0.7,0.6,0.8c0.4,0.2,0.7,0.1,0.7-0.1
			C139,30.1,138.7,29.8,138.4,29.7"/>
		<path class="st19" d="M136.1,26.7c-0.3-0.1-0.5-0.1-0.5,0.1s0.2,0.4,0.4,0.5c0.3,0.1,0.5,0.1,0.5-0.1
			C136.5,27.1,136.3,26.8,136.1,26.7"/>
		<path class="st19" d="M136.1,25.9c-0.2-0.1-0.4-0.1-0.5,0c0,0.1,0.1,0.3,0.4,0.5c0.2,0.1,0.4,0.1,0.4,0
			C136.5,26.3,136.3,26.1,136.1,25.9"/>
		<path class="st19" d="M136.1,25.2c-0.2-0.1-0.4-0.1-0.4,0c0,0.1,0.1,0.3,0.3,0.4s0.4,0.1,0.4,0C136.5,25.6,136.3,25.4,136.1,25.2"
			/>
		<path class="st19" d="M136.2,24.5c-0.2-0.1-0.3-0.1-0.3,0c0,0.1,0.1,0.3,0.3,0.4c0.2,0.1,0.3,0.1,0.4,0
			C136.5,24.8,136.4,24.6,136.2,24.5"/>
		<path class="st19" d="M136.2,23.9c-0.2-0.1-0.3-0.1-0.3,0s0.1,0.2,0.3,0.3c0.2,0.1,0.3,0.1,0.3,0C136.5,24.1,136.4,24,136.2,23.9"
			/>
		<path class="st19" d="M136.2,23.2c-0.2-0.1-0.3-0.1-0.3,0c0,0.1,0.1,0.2,0.3,0.3c0.1,0.1,0.3,0.1,0.3,0
			C136.5,23.4,136.4,23.3,136.2,23.2"/>
		<path class="st19" d="M136.3,22.7c-0.1-0.1-0.2-0.1-0.3,0c0,0.1,0.1,0.2,0.2,0.3s0.3,0.1,0.3,0C136.5,22.9,136.4,22.8,136.3,22.7"
			/>
		<path class="st19" d="M136.3,22.1c-0.1-0.1-0.2-0.1-0.2,0c0,0.1,0.1,0.2,0.2,0.2c0.1,0.1,0.2,0.1,0.2,0S136.4,22.2,136.3,22.1"/>
		<path class="st19" d="M134.7,36c0.3,0.1,0.5,0,0.5-0.2c0-0.3-0.2-0.5-0.4-0.7c-0.3-0.1-0.5-0.1-0.5,0.2
			C134.3,35.6,134.5,35.8,134.7,36"/>
		<path class="st19" d="M134.5,37.5c0.3,0.1,0.5,0,0.5-0.2c0-0.3-0.1-0.5-0.4-0.6c-0.3-0.1-0.5,0-0.5,0.2
			C134.1,37.1,134.2,37.3,134.5,37.5"/>
		<path class="st19" d="M134.1,39c0.3,0.1,0.5,0,0.5-0.2c0-0.3-0.1-0.5-0.4-0.6c-0.3-0.1-0.5,0-0.5,0.2
			C133.7,38.6,133.9,38.9,134.1,39"/>
		<path class="st19" d="M133.8,40.7c0.2,0.1,0.4,0,0.4-0.1c0,0,0-0.1,0-0.1c0-0.3-0.1-0.5-0.4-0.6c-0.1-0.1-0.3-0.1-0.4,0.1
			c0,0,0,0.1,0,0.1C133.4,40.3,133.5,40.5,133.8,40.7"/>
		<path class="st19" d="M133.4,42.3c0.1,0.1,0.3,0,0.4-0.1c0,0,0-0.1,0-0.1c0-0.2-0.1-0.5-0.3-0.6c-0.1-0.1-0.3,0-0.4,0.1
			c0,0,0,0.1,0,0.1C133,42,133.2,42.2,133.4,42.3"/>
		<path class="st19" d="M132.9,44.3c0.1,0.1,0.3,0,0.4-0.1c0,0,0-0.1,0-0.1c0-0.2-0.1-0.5-0.3-0.6c-0.1-0.1-0.3,0-0.4,0.1
			c0,0,0,0.1,0,0.1C132.6,44,132.7,44.2,132.9,44.3"/>
		<path class="st19" d="M139.6,30.4c-0.3-0.2-0.5-0.1-0.6,0.1c0,0.3,0.2,0.6,0.5,0.7c0.3,0.2,0.5,0.1,0.6-0.1
			C140.1,30.8,139.9,30.5,139.6,30.4"/>
		<path class="st19" d="M139.6,32.5c-0.3-0.1-0.5-0.1-0.5,0.1c0,0.3,0.2,0.5,0.5,0.7c0.3,0.1,0.5,0.1,0.5-0.1
			C140,32.9,139.8,32.6,139.6,32.5"/>
		<path class="st19" d="M139.6,33.6c-0.3-0.2-0.6-0.1-0.6,0.2c0,0.3,0.2,0.6,0.5,0.8c0.3,0.2,0.6,0.1,0.6-0.2
			C140,34,139.8,33.8,139.6,33.6"/>
		<path class="st19" d="M139.4,37.4c-0.3-0.2-0.5-0.1-0.6,0.2c0,0.3,0.2,0.7,0.5,0.8c0.3,0.2,0.6,0.1,0.6-0.2
			C139.9,37.9,139.7,37.6,139.4,37.4"/>
		<path class="st19" d="M144.5,32.2c-0.3-0.1-0.4-0.1-0.4,0.1c0.1,0.3,0.2,0.5,0.5,0.7c0.3,0.1,0.4,0.1,0.4-0.1
			C145,32.6,144.8,32.4,144.5,32.2"/>
		<path class="st19" d="M140.8,43.3c-0.3-0.2-0.5,0-0.5,0.3c0,0.4,0.2,0.7,0.5,0.9c0.3,0.2,0.5,0,0.5-0.3
			C141.3,43.8,141.1,43.5,140.8,43.3"/>
		<path class="st19" d="M142.4,46.2c-0.3-0.2-0.5,0-0.5,0.3c0,0.4,0.2,0.7,0.5,0.9c0.3,0.2,0.5,0,0.5-0.3
			C142.8,46.7,142.6,46.4,142.4,46.2"/>
		<path class="st19" d="M139.2,40.5c-0.3-0.2-0.6-0.1-0.6,0.3c0,0.4,0.2,0.7,0.5,0.9c0.3,0.2,0.6,0,0.6-0.3
			C139.7,41.1,139.5,40.7,139.2,40.5"/>
		<path class="st19" d="M137.8,38.1c-0.3-0.2-0.6-0.1-0.6,0.2c0,0.3,0.2,0.7,0.5,0.8c0.3,0.2,0.6,0.1,0.6-0.3
			C138.3,38.6,138.1,38.3,137.8,38.1"/>
		<path class="st19" d="M136.4,35.8c-0.3-0.2-0.6-0.1-0.7,0.2c0,0.4,0.2,0.7,0.5,0.9c0.3,0.2,0.6,0.1,0.7-0.2
			C136.9,36.3,136.7,36,136.4,35.8"/>
		<path class="st19" d="M139.5,36.1c-0.3-0.2-0.5-0.1-0.5,0.2c0,0.3,0.2,0.6,0.5,0.7c0.3,0.2,0.5,0.1,0.5-0.2
			C139.9,36.5,139.7,36.2,139.5,36.1"/>
		<path class="st19" d="M138.5,28c-0.3-0.1-0.5-0.1-0.5,0.1c0.1,0.3,0.2,0.5,0.5,0.6c0.3,0.1,0.5,0.1,0.5-0.1
			C138.9,28.3,138.7,28.1,138.5,28"/>
		<path class="st19" d="M143.3,31.6c-0.2-0.1-0.4-0.1-0.4,0.1c0.1,0.2,0.2,0.4,0.4,0.5c0.2,0.1,0.4,0.1,0.4-0.1
			C143.7,31.9,143.5,31.7,143.3,31.6"/>
		<path class="st19" d="M141,34.4c-0.2-0.1-0.4-0.1-0.4,0.1c0,0.3,0.2,0.5,0.4,0.6c0.2,0.1,0.4,0.1,0.4-0.1
			C141.4,34.8,141.2,34.6,141,34.4"/>
		<path class="st19" d="M140.9,39.8c-0.3-0.2-0.5-0.1-0.5,0.2c0,0.4,0.2,0.7,0.5,0.9c0.3,0.2,0.5,0.1,0.5-0.3
			C141.4,40.3,141.2,40,140.9,39.8"/>
		<path class="st19" d="M139.5,34.9c-0.3-0.1-0.5-0.1-0.5,0.2c0,0.3,0.2,0.6,0.5,0.7c0.3,0.1,0.5,0.1,0.5-0.2
			C140,35.3,139.8,35,139.5,34.9"/>
		<path class="st19" d="M142.4,36.5c-0.3-0.2-0.5-0.1-0.5,0.2c0,0.3,0.2,0.6,0.5,0.7c0.3,0.2,0.5,0.1,0.5-0.2
			C142.8,36.9,142.6,36.6,142.4,36.5"/>
		<path class="st19" d="M143.5,49.5c-0.2-0.2-0.4,0-0.4,0.3c0,0.3,0.2,0.6,0.4,0.8c0.2,0.2,0.4,0,0.4-0.3
			C143.9,50,143.8,49.7,143.5,49.5"/>
		<path class="st19" d="M142.2,32.9c-0.3-0.1-0.4-0.1-0.4,0.1c0,0.3,0.2,0.5,0.5,0.6c0.3,0.1,0.4,0.1,0.4-0.1
			C142.6,33.2,142.5,33,142.2,32.9"/>
		<path class="st19" d="M137.2,27.3c-0.2-0.1-0.4-0.1-0.5,0.1s0.2,0.4,0.4,0.5c0.2,0.1,0.4,0.1,0.5-0.1S137.5,27.5,137.2,27.3"/>
		<path class="st19" d="M139.7,27.8c-0.2-0.1-0.4-0.1-0.4,0.1c0.1,0.2,0.2,0.4,0.4,0.5c0.2,0.1,0.4,0.1,0.4-0.1
			C140,28.1,139.9,27.9,139.7,27.8"/>
		<path class="st19" d="M142.2,30.9c-0.2-0.1-0.3-0.1-0.3,0.1c0,0.2,0.2,0.4,0.4,0.5c0.2,0.1,0.3,0.1,0.3-0.1
			C142.5,31.2,142.3,31,142.2,30.9"/>
		<path class="st19" d="M140.9,35.7c-0.2-0.1-0.4-0.1-0.4,0.2c0,0.3,0.2,0.5,0.4,0.7c0.3,0.1,0.4,0.1,0.4-0.2
			C141.3,36,141.2,35.8,140.9,35.7"/>
		<path class="st19" d="M142.3,35.2c-0.2-0.1-0.4-0.1-0.4,0.1c0,0.2,0.2,0.4,0.4,0.6c0.2,0.1,0.4,0.1,0.4-0.1
			C142.6,35.5,142.5,35.3,142.3,35.2"/>
		<path class="st19" d="M143.7,37.3c-0.2-0.1-0.4-0.1-0.4,0.2c0,0.3,0.2,0.5,0.4,0.7c0.2,0.1,0.4,0.1,0.4-0.2
			C144.1,37.7,143.9,37.4,143.7,37.3"/>
		<path class="st19" d="M145.8,34.1c-0.2-0.1-0.3-0.1-0.3,0.1c0,0.2,0.2,0.4,0.3,0.5c0.2,0.1,0.3,0.1,0.3-0.1
			C146.1,34.4,146,34.2,145.8,34.1"/>
		<path class="st19" d="M139.7,27.1c-0.2-0.1-0.4-0.1-0.4,0c0,0.2,0.2,0.4,0.4,0.4c0.2,0.1,0.4,0.1,0.4,0S139.9,27.2,139.7,27.1"/>
		<path class="st19" d="M139.7,28.7c-0.2-0.1-0.4-0.1-0.4,0.1c0.1,0.2,0.2,0.4,0.4,0.5c0.2,0.1,0.4,0.1,0.4-0.1
			C140,28.9,139.9,28.8,139.7,28.7"/>
		<path class="st19" d="M143.7,47.5c-0.2-0.2-0.4-0.1-0.4,0.3c0,0.4,0.2,0.7,0.5,0.9c0.3,0.2,0.4,0.1,0.4-0.3
			C144.2,48,144,47.7,143.7,47.5"/>
		<path class="st19" d="M138.5,27.2c-0.2-0.1-0.4-0.1-0.4,0c0,0.2,0.2,0.4,0.4,0.5c0.2,0.1,0.4,0.1,0.4,0
			C138.8,27.5,138.7,27.3,138.5,27.2"/>
		<path class="st19" d="M140.9,33.3c-0.2-0.1-0.4-0.1-0.4,0.1c0,0.2,0.2,0.4,0.4,0.5c0.2,0.1,0.4,0.1,0.4-0.1
			C141.3,33.6,141.1,33.4,140.9,33.3"/>
		<path class="st19" d="M140.9,30.3c-0.2-0.1-0.3-0.1-0.3,0.1c0,0.2,0.2,0.3,0.3,0.4c0.2,0.1,0.3,0.1,0.3-0.1
			C141.2,30.5,141.1,30.4,140.9,30.3"/>
		<path class="st19" d="M140.9,38.4c-0.2-0.1-0.4-0.1-0.4,0.2c0,0.2,0.2,0.5,0.4,0.6c0.2,0.1,0.4,0.1,0.4-0.2
			C141.2,38.8,141.1,38.5,140.9,38.4"/>
		<path class="st19" d="M142.4,42.5c-0.2-0.1-0.4-0.1-0.4,0.2c0,0.3,0.2,0.6,0.4,0.7c0.2,0.1,0.4,0.1,0.4-0.2
			C142.8,42.9,142.6,42.7,142.4,42.5"/>
		<path class="st19" d="M139.7,29.6c-0.2-0.1-0.3-0.1-0.3,0.1c0,0.2,0.1,0.3,0.3,0.4c0.2,0.1,0.3,0.1,0.3-0.1
			C139.9,29.8,139.8,29.7,139.7,29.6"/>
		<path class="st19" d="M142.2,48.2c-0.2-0.1-0.3,0-0.3,0.2c0,0.3,0.1,0.5,0.3,0.7c0.2,0.1,0.3,0,0.3-0.2
			C142.6,48.6,142.5,48.3,142.2,48.2"/>
		<path class="st19" d="M143.5,33.7c-0.2-0.1-0.3-0.1-0.3,0.1c0,0.2,0.2,0.4,0.4,0.5c0.2,0.1,0.3,0.1,0.3-0.1
			C143.8,34,143.7,33.8,143.5,33.7"/>
		<path class="st19" d="M140.9,27.8c-0.2-0.1-0.3-0.1-0.3,0s0.1,0.3,0.3,0.4c0.2,0.1,0.3,0.1,0.3,0C141.2,28,141.1,27.8,140.9,27.8"
			/>
		<path class="st19" d="M148.1,34.6c-0.1-0.1-0.2-0.1-0.2,0.1c0,0.2,0.1,0.3,0.3,0.4c0.1,0.1,0.2,0.1,0.2-0.1
			C148.4,34.9,148.3,34.7,148.1,34.6"/>
		<path class="st19" d="M145,38.2c-0.2-0.1-0.4-0.1-0.3,0.1c0,0.3,0.2,0.5,0.4,0.6c0.2,0.1,0.4,0.1,0.3-0.1
			C145.4,38.5,145.2,38.3,145,38.2"/>
		<path class="st19" d="M144.4,51.6c-0.2-0.1-0.3,0-0.3,0.2c0,0.3,0.1,0.6,0.3,0.8c0.2,0.1,0.3,0,0.3-0.2
			C144.7,52.1,144.6,51.8,144.4,51.6"/>
		<path class="st19" d="M140.7,45.2c-0.2-0.1-0.4,0-0.4,0.2c0,0.3,0.1,0.5,0.4,0.7c0.2,0.1,0.4,0,0.4-0.2
			C141.1,45.6,140.9,45.4,140.7,45.2"/>
		<path class="st19" d="M143.6,36.1c-0.1-0.1-0.3-0.1-0.3,0.1c0,0.2,0.1,0.3,0.3,0.4c0.1,0.1,0.3,0,0.3-0.1
			C143.9,36.3,143.7,36.2,143.6,36.1"/>
		<path class="st19" d="M140.8,27.1c-0.2-0.1-0.3-0.1-0.3,0c0,0.1,0.1,0.3,0.3,0.3c0.2,0.1,0.3,0.1,0.3,0
			C141.1,27.2,141,27.1,140.8,27.1"/>
		<path class="st19" d="M141.9,27.7c-0.1-0.1-0.2-0.1-0.2,0c0,0.1,0.1,0.2,0.2,0.3c0.1,0.1,0.2,0.1,0.2,0
			C142.1,27.9,142,27.8,141.9,27.7"/>
		<path class="st19" d="M139.2,42.5c-0.2-0.1-0.3,0-0.4,0.2c0,0.2,0.1,0.4,0.3,0.6c0.2,0.1,0.3,0,0.4-0.2
			C139.5,42.9,139.4,42.7,139.2,42.5"/>
		<path class="st19" d="M137.6,39.9c-0.2-0.1-0.3,0-0.4,0.2c0,0.2,0.1,0.4,0.3,0.5c0.2,0.1,0.3,0,0.4-0.2
			C137.9,40.2,137.8,40,137.6,39.9"/>
		<path class="st19" d="M136.2,37.5c-0.2-0.1-0.3,0-0.4,0.1c0,0.2,0.1,0.4,0.3,0.5c0.2,0.1,0.3,0,0.4-0.1
			C136.5,37.8,136.4,37.6,136.2,37.5"/>
		<path class="st19" d="M141.9,27c-0.1-0.1-0.2-0.1-0.2,0c0,0.1,0.1,0.2,0.3,0.3c0.1,0.1,0.2,0.1,0.2,0
			C142.1,27.2,142,27.1,141.9,27"/>
		<path class="st19" d="M142.7,27c-0.1-0.1-0.2-0.1-0.2,0c0,0.1,0.1,0.2,0.2,0.3c0.1,0.1,0.2,0.1,0.2,0
			C142.9,27.2,142.8,27.1,142.7,27"/>
		<path class="st19" d="M146.3,39.2c-0.1-0.1-0.2-0.1-0.2,0.1c0,0.2,0.1,0.3,0.3,0.4c0.1,0.1,0.2,0,0.2-0.1
			C146.6,39.4,146.5,39.3,146.3,39.2"/>
		<path class="st19" d="M145.1,39.5c-0.2-0.1-0.3-0.1-0.3,0.1c0,0.2,0.1,0.4,0.3,0.5c0.2,0.1,0.3,0.1,0.3-0.1
			C145.4,39.8,145.3,39.6,145.1,39.5"/>
		<path class="st19" d="M143.7,38.7c-0.2-0.1-0.3-0.1-0.3,0.1c0,0.2,0.1,0.4,0.3,0.5c0.2,0.1,0.3,0,0.3-0.1
			C144,38.9,143.9,38.8,143.7,38.7"/>
		<path class="st19" d="M142.3,37.8c-0.1-0.1-0.3,0-0.3,0.1c0,0.2,0.1,0.3,0.3,0.4c0.1,0.1,0.3,0,0.3-0.1
			C142.6,38.1,142.5,37.9,142.3,37.8"/>
		<path class="st19" d="M140.9,37c-0.1-0.1-0.3,0-0.3,0.1c0,0.2,0.1,0.3,0.3,0.4c0.1,0.1,0.3,0,0.3-0.1
			C141.2,37.2,141.1,37.1,140.9,37"/>
		<path class="st19" d="M146.4,40.5c-0.1-0.1-0.2-0.1-0.2,0.1c0,0.2,0.1,0.3,0.3,0.5c0.1,0.1,0.2,0.1,0.2-0.1
			C146.6,40.7,146.5,40.6,146.4,40.5"/>
		<path class="st19" d="M147.8,41.5c-0.1-0.1-0.2,0-0.2,0.1c0,0.2,0.1,0.3,0.2,0.4c0.1,0.1,0.2,0.1,0.2-0.1
			C148,41.7,147.9,41.6,147.8,41.5"/>
		<path class="st19" d="M140.9,28.6c-0.1-0.1-0.3-0.1-0.3,0c0,0.1,0.1,0.3,0.3,0.3c0.1,0.1,0.3,0.1,0.3,0
			C141.1,28.8,141,28.6,140.9,28.6"/>
		<path class="st19" d="M131.9,32.2c-0.4-0.2-0.7-0.1-0.7,0.2c0,0.4,0.2,0.7,0.5,0.8c0.4,0.2,0.7,0.1,0.7-0.2
			C132.4,32.6,132.2,32.3,131.9,32.2"/>
		<path class="st19" d="M130.4,31.3c-0.4-0.2-0.9-0.1-1,0.2c0,0.4,0.2,0.8,0.6,1c0.5,0.2,0.9,0.1,1-0.3
			C131,31.9,130.8,31.5,130.4,31.3"/>
		<path class="st19" d="M120.2,20.5c0.2,0.1,0.4,0.2,0.3,0.3c-0.2,0.1-0.4,0.1-0.6,0.1c-0.3-0.1-0.4-0.2-0.3-0.3
			C119.7,20.5,120,20.4,120.2,20.5"/>
		<path class="st19" d="M121.8,21c0.3,0.1,0.4,0.3,0.3,0.4c-0.1,0.1-0.4,0.2-0.7,0.1s-0.4-0.3-0.3-0.5
			C121.3,20.9,121.6,20.9,121.8,21"/>
		<path class="st19" d="M121.2,34.4c0.2,0.1,0.4,0.3,0.3,0.5c0,0,0,0,0,0c-0.1,0.2-0.4,0.3-0.7,0.2c-0.2-0.1-0.4-0.3-0.3-0.5
			c0,0,0,0,0-0.1C120.7,34.4,121,34.3,121.2,34.4"/>
		<path class="st19" d="M123.6,33.2c0.3,0.1,0.5,0.4,0.4,0.8c-0.2,0.3-0.6,0.4-0.9,0.3c-0.3-0.1-0.5-0.5-0.5-0.8c0,0,0,0,0,0
			C122.9,33.1,123.3,33,123.6,33.2"/>
		<path class="st19" d="M126,32.5c0.3,0.1,0.6,0.5,0.5,0.8c-0.2,0.3-0.5,0.4-0.9,0.3c0,0,0,0,0,0c-0.4-0.1-0.6-0.5-0.5-0.9
			C125.3,32.4,125.7,32.3,126,32.5L126,32.5"/>
		<path class="st19" d="M130.6,24.7c0.3,0.2,0.5,0.4,0.5,0.6c-0.1,0.2-0.4,0.2-0.7,0.1c-0.3-0.2-0.5-0.4-0.5-0.6
			C129.9,24.6,130.3,24.6,130.6,24.7"/>
		<path class="st19" d="M122.9,22.4c0.3,0.1,0.5,0.3,0.4,0.5c-0.1,0.2-0.4,0.2-0.7,0.1s-0.5-0.3-0.4-0.5
			C122.3,22.3,122.6,22.3,122.9,22.4"/>
		<path class="st19" d="M124.5,23c0.3,0.1,0.5,0.4,0.4,0.5c-0.1,0.2-0.4,0.2-0.7,0.1c-0.3-0.1-0.5-0.4-0.4-0.5
			C123.8,22.9,124.1,22.9,124.5,23"/>
		<path class="st19" d="M127.1,25.1c0.3,0.2,0.5,0.4,0.5,0.6c-0.1,0.2-0.4,0.2-0.7,0.1c-0.3-0.1-0.5-0.4-0.5-0.6
			C126.4,25,126.7,25,127.1,25.1"/>
		<path class="st19" d="M126,23.6c0.3,0.1,0.5,0.4,0.4,0.6c-0.1,0.2-0.4,0.2-0.7,0.1s-0.5-0.4-0.4-0.6
			C125.3,23.5,125.7,23.5,126,23.6"/>
		<path class="st19" d="M127.5,24.3c0.4,0.2,0.6,0.4,0.5,0.7c-0.1,0.2-0.4,0.2-0.8,0.1c-0.4-0.2-0.6-0.5-0.5-0.7
			C126.8,24.1,127.1,24.1,127.5,24.3"/>
		<path class="st19" d="M128.6,25.7c0.4,0.2,0.6,0.5,0.5,0.7c-0.1,0.3-0.4,0.3-0.8,0.1c-0.4-0.2-0.6-0.5-0.5-0.7
			C127.8,25.6,128.2,25.6,128.6,25.7"/>
		<path class="st19" d="M128.3,31.9c0.3,0.1,0.6,0.5,0.5,0.8c-0.1,0.3-0.5,0.4-0.9,0.2c-0.4-0.1-0.6-0.5-0.5-0.8
			C127.5,31.8,127.9,31.7,128.3,31.9"/>
		<path class="st19" d="M128.7,30.6c0.4,0.1,0.6,0.5,0.6,0.9c-0.1,0.3-0.5,0.4-0.9,0.2c-0.4-0.1-0.6-0.5-0.6-0.9
			C127.9,30.5,128.3,30.5,128.7,30.6"/>
		<path class="st19" d="M129,29.4c0.4,0.2,0.7,0.6,0.6,0.9c-0.1,0.3-0.5,0.4-1,0.2c-0.5-0.2-0.7-0.6-0.6-0.9
			C128.2,29.3,128.6,29.2,129,29.4"/>
		<path class="st19" d="M129.4,28.3c0.4,0.2,0.7,0.6,0.6,0.9c-0.1,0.3-0.5,0.4-0.9,0.2c-0.4-0.2-0.7-0.6-0.6-0.9
			C128.5,28.2,129,28.1,129.4,28.3"/>
		<path class="st19" d="M129.7,27.4c0.4,0.2,0.6,0.5,0.5,0.7s-0.4,0.3-0.8,0.1c-0.4-0.2-0.6-0.5-0.5-0.7
			C129,27.3,129.3,27.2,129.7,27.4"/>
		<path class="st19" d="M130,26.4c0.4,0.2,0.6,0.5,0.6,0.8c-0.1,0.3-0.5,0.3-0.9,0.1s-0.7-0.6-0.6-0.8
			C129.3,26.3,129.6,26.2,130,26.4"/>
		<path class="st19" d="M130.3,25.5c0.4,0.2,0.6,0.5,0.6,0.7c-0.1,0.2-0.4,0.3-0.8,0.1c-0.4-0.2-0.7-0.5-0.6-0.7
			S129.9,25.3,130.3,25.5"/>
		<path class="st19" d="M133.4,25.3c0.3,0.1,0.4,0.4,0.4,0.5s-0.3,0.2-0.5,0s-0.4-0.4-0.4-0.5C132.9,25.2,133.2,25.2,133.4,25.3"/>
		<path class="st19" d="M133.6,24.6c0.2,0.1,0.4,0.3,0.4,0.5s-0.2,0.2-0.5,0c-0.2-0.2-0.4-0.3-0.4-0.5
			C133.2,24.5,133.4,24.5,133.6,24.6"/>
		<path class="st19" d="M133.8,24c0.2,0.1,0.3,0.3,0.3,0.4c0,0.1-0.2,0.1-0.4,0c-0.2-0.1-0.3-0.3-0.3-0.4S133.6,23.9,133.8,24"/>
		<path class="st19" d="M134,23.3c0.2,0.1,0.3,0.2,0.3,0.4c0,0.1-0.2,0.1-0.4,0c-0.2-0.1-0.3-0.2-0.3-0.4
			C133.6,23.2,133.8,23.2,134,23.3"/>
		<path class="st19" d="M134.2,22.7c0.2,0.1,0.3,0.2,0.3,0.3s-0.2,0.1-0.3,0s-0.3-0.2-0.3-0.3C133.9,22.6,134,22.6,134.2,22.7"/>
		<path class="st19" d="M134.4,22.2c0.1,0.1,0.3,0.2,0.2,0.3c0,0.1-0.1,0.1-0.3,0c-0.2-0.1-0.3-0.2-0.2-0.3
			C134.1,22.1,134.2,22.1,134.4,22.2"/>
		<path class="st19" d="M134.5,21.7c0.1,0.1,0.2,0.2,0.2,0.3s-0.1,0.1-0.3,0c-0.1-0.1-0.2-0.2-0.2-0.3S134.4,21.7,134.5,21.7"/>
		<path class="st19" d="M134.6,21.3c0.1,0.1,0.2,0.2,0.2,0.2s-0.1,0.1-0.2,0c-0.1-0.1-0.2-0.2-0.2-0.2
			C134.4,21.2,134.5,21.2,134.6,21.3"/>
		<path class="st19" d="M131.4,34.3c-0.3-0.1-0.4-0.4-0.4-0.6c0.1-0.2,0.3-0.3,0.6-0.2c0.3,0.1,0.4,0.4,0.4,0.6
			C131.9,34.4,131.7,34.5,131.4,34.3"/>
		<path class="st19" d="M131.1,35.8c-0.3-0.1-0.4-0.4-0.4-0.6c0.1-0.2,0.3-0.3,0.6-0.2c0.3,0.1,0.4,0.4,0.4,0.6
			C131.6,35.8,131.4,35.9,131.1,35.8"/>
		<path class="st19" d="M130.8,37.3c-0.3-0.1-0.4-0.4-0.4-0.6c0.1-0.2,0.3-0.3,0.6-0.2c0.2,0.1,0.4,0.4,0.4,0.6
			C131.3,37.3,131.1,37.4,130.8,37.3C130.9,37.4,130.8,37.4,130.8,37.3"/>
		<path class="st19" d="M130.6,39c-0.2-0.1-0.4-0.4-0.3-0.6c0.1-0.2,0.3-0.3,0.4-0.3c0,0,0.1,0,0.1,0c0.2,0.1,0.4,0.4,0.3,0.6
			c0,0.2-0.2,0.3-0.4,0.3C130.6,39,130.6,39,130.6,39"/>
		<path class="st19" d="M130.2,40.8c-0.2-0.1-0.4-0.3-0.3-0.6c0.1-0.2,0.2-0.3,0.4-0.2c0,0,0.1,0,0.1,0c0.2,0.1,0.4,0.3,0.3,0.6
			C130.7,40.8,130.5,40.9,130.2,40.8C130.3,40.9,130.3,40.8,130.2,40.8"/>
		<path class="st19" d="M129.9,42.9c-0.2-0.1-0.3-0.3-0.3-0.6c0-0.2,0.2-0.3,0.4-0.3c0,0,0.1,0,0.1,0c0.2,0.1,0.3,0.3,0.3,0.6
			C130.3,42.8,130.1,43,129.9,42.9C129.9,42.9,129.9,42.9,129.9,42.9"/>
		<path class="st19" d="M128.9,24.9c0.3,0.2,0.5,0.4,0.5,0.6c-0.1,0.2-0.4,0.2-0.7,0.1c-0.3-0.2-0.6-0.5-0.5-0.7
			S128.6,24.8,128.9,24.9"/>
		<path class="st19" d="M128.2,26.7c0.3,0.1,0.5,0.4,0.4,0.6c-0.1,0.2-0.4,0.2-0.7,0.1s-0.5-0.4-0.4-0.6
			C127.5,26.6,127.9,26.6,128.2,26.7"/>
		<path class="st19" d="M127.8,27.7c0.3,0.2,0.6,0.5,0.5,0.7s-0.4,0.3-0.8,0.1c-0.4-0.2-0.6-0.5-0.5-0.7
			C127.1,27.6,127.5,27.5,127.8,27.7"/>
		<path class="st19" d="M126.5,31.2c0.3,0.1,0.5,0.4,0.5,0.7c-0.1,0.3-0.5,0.3-0.8,0.2c-0.3-0.1-0.5-0.4-0.5-0.7
			C125.9,31.1,126.2,31,126.5,31.2C126.5,31.2,126.5,31.2,126.5,31.2"/>
		<path class="st19" d="M123.4,21.6c0.3,0.1,0.5,0.4,0.4,0.5s-0.4,0.2-0.8,0.1c-0.3-0.1-0.5-0.4-0.4-0.5
			C122.7,21.5,123.1,21.5,123.4,21.6"/>
		<path class="st19" d="M123,34.8c0.3,0.1,0.5,0.4,0.4,0.7c-0.2,0.3-0.5,0.4-0.8,0.3c-0.3-0.1-0.5-0.4-0.4-0.7
			C122.3,34.8,122.7,34.7,123,34.8"/>
		<path class="st19" d="M120.6,35.8c0.3,0.1,0.5,0.4,0.4,0.7c0,0,0,0,0,0c-0.2,0.3-0.6,0.4-0.9,0.3c-0.3-0.1-0.5-0.4-0.4-0.7
			c0,0,0,0,0-0.1C119.9,35.8,120.2,35.7,120.6,35.8"/>
		<path class="st19" d="M125.5,34c0.3,0.1,0.5,0.5,0.5,0.8c-0.1,0.3-0.5,0.4-0.8,0.3c0,0,0,0,0,0c-0.3-0.1-0.5-0.5-0.5-0.8
			C124.8,34,125.2,33.8,125.5,34C125.5,34,125.5,34,125.5,34"/>
		<path class="st19" d="M127.8,33.3c0.3,0.1,0.5,0.4,0.5,0.7c-0.1,0.3-0.4,0.4-0.7,0.2c-0.3-0.1-0.5-0.4-0.5-0.7
			C127.2,33.3,127.5,33.2,127.8,33.3"/>
		<path class="st19" d="M130,32.7c0.3,0.1,0.5,0.5,0.5,0.8c-0.1,0.3-0.4,0.4-0.8,0.2c-0.3-0.1-0.6-0.5-0.5-0.8
			C129.3,32.6,129.6,32.5,130,32.7"/>
		<path class="st19" d="M127,29.9c0.3,0.1,0.5,0.4,0.4,0.7c-0.1,0.2-0.4,0.3-0.7,0.2s-0.5-0.5-0.4-0.7
			C126.3,29.9,126.6,29.8,127,29.9"/>
		<path class="st19" d="M130.8,24c0.3,0.1,0.5,0.4,0.4,0.5c0,0.2-0.3,0.2-0.6,0s-0.5-0.4-0.4-0.6C130.3,23.9,130.5,23.8,130.8,24"/>
		<path class="st19" d="M124.9,22.3c0.3,0.1,0.4,0.3,0.3,0.4s-0.3,0.2-0.6,0c-0.3-0.1-0.4-0.3-0.3-0.4
			C124.4,22.2,124.7,22.2,124.9,22.3"/>
		<path class="st19" d="M126.2,27.1c0.3,0.1,0.4,0.4,0.4,0.5s-0.4,0.2-0.6,0.1c-0.3-0.1-0.4-0.4-0.4-0.5S125.9,27,126.2,27.1"/>
		<path class="st19" d="M124.2,31.7c0.3,0,0.5,0.3,0.5,0.6c0,0.3-0.3,0.5-0.6,0.5c-0.1,0-0.2-0.1-0.3-0.1c-0.4-0.2-0.6-0.5-0.4-0.7
			C123.5,31.7,123.9,31.6,124.2,31.7"/>
		<path class="st19" d="M127.3,28.9c0.3,0.1,0.5,0.4,0.4,0.6c-0.1,0.2-0.4,0.3-0.7,0.1c-0.3-0.1-0.5-0.4-0.4-0.6
			C126.7,28.8,127,28.7,127.3,28.9"/>
		<path class="st19" d="M124.1,27.4c0.3,0.1,0.5,0.4,0.4,0.6s-0.4,0.3-0.8,0.1c-0.3-0.1-0.5-0.4-0.4-0.6
			C123.4,27.4,123.8,27.3,124.1,27.4"/>
		<path class="st19" d="M118.5,36.8c0.2,0.1,0.3,0.3,0.3,0.5c0,0,0,0.1,0,0.1c-0.1,0.2-0.4,0.3-0.6,0.2c-0.2-0.1-0.3-0.3-0.3-0.5
			c0,0,0-0.1,0-0.1C118,36.8,118.2,36.7,118.5,36.8"/>
		<path class="st19" d="M125.5,24.5c0.3,0.1,0.5,0.4,0.4,0.5c-0.1,0.2-0.4,0.2-0.7,0.1c-0.3-0.1-0.5-0.4-0.4-0.5
			C124.9,24.4,125.2,24.4,125.5,24.5"/>
		<path class="st19" d="M132.2,24.7c0.3,0.1,0.4,0.3,0.4,0.5c0,0.2-0.3,0.2-0.5,0c-0.3-0.2-0.4-0.3-0.4-0.5S131.9,24.5,132.2,24.7"
			/>
		<path class="st19" d="M128.4,22.2c0.2,0.1,0.3,0.2,0.3,0.3c0,0.1-0.2,0.1-0.4,0.1c-0.2-0.1-0.3-0.2-0.3-0.3S128.2,22.1,128.4,22.2
			"/>
		<path class="st19" d="M126.3,22.9c0.2,0.1,0.4,0.3,0.3,0.4c-0.1,0.1-0.3,0.1-0.5,0c-0.2-0.1-0.4-0.3-0.3-0.4
			C125.9,22.8,126.1,22.8,126.3,22.9"/>
		<path class="st19" d="M125.7,28.2c0.3,0.1,0.4,0.4,0.4,0.6c-0.1,0.2-0.4,0.3-0.7,0.1c-0.3-0.1-0.5-0.4-0.4-0.6
			C125.1,28.1,125.4,28.1,125.7,28.2"/>
		<path class="st19" d="M124.6,26.5c0.3,0.1,0.4,0.3,0.3,0.5s-0.3,0.2-0.6,0.1c-0.3-0.1-0.4-0.3-0.3-0.5S124.3,26.4,124.6,26.5"/>
		<path class="st19" d="M122.4,26.8c0.3,0.1,0.5,0.3,0.4,0.5c-0.2,0.2-0.5,0.3-0.7,0.1c-0.3-0.1-0.5-0.4-0.4-0.6
			C121.8,26.8,122.1,26.7,122.4,26.8"/>
		<path class="st19" d="M121.3,21.9c0.2,0.1,0.4,0.2,0.3,0.4c-0.2,0.1-0.4,0.2-0.6,0.1c-0.3-0.1-0.4-0.2-0.3-0.4
			C120.9,21.9,121.1,21.8,121.3,21.9"/>
		<path class="st19" d="M128.8,21.5c0.2,0.1,0.3,0.2,0.3,0.3c0,0.1-0.2,0.1-0.4,0.1s-0.4-0.2-0.3-0.3S128.6,21.4,128.8,21.5"/>
		<path class="st19" d="M129.5,23.4c0.3,0.1,0.4,0.3,0.4,0.5c0,0.1-0.3,0.2-0.6,0c-0.3-0.1-0.4-0.3-0.4-0.5
			C129,23.3,129.2,23.3,129.5,23.4"/>
		<path class="st19" d="M129.8,22.7c0.2,0.1,0.4,0.3,0.3,0.4s-0.3,0.1-0.5,0c-0.2-0.1-0.4-0.3-0.3-0.4
			C129.4,22.5,129.6,22.5,129.8,22.7"/>
		<path class="st19" d="M126.6,26.2c0.2,0.1,0.4,0.3,0.3,0.5c-0.1,0.2-0.3,0.2-0.6,0.1c-0.3-0.1-0.4-0.3-0.3-0.5
			C126.1,26.1,126.4,26.1,126.6,26.2"/>
		<path class="st19" d="M127.8,23.6c0.2,0.1,0.3,0.3,0.3,0.4s-0.2,0.1-0.5,0c-0.2-0.1-0.3-0.3-0.3-0.4
			C127.4,23.4,127.6,23.4,127.8,23.6"/>
		<path class="st19" d="M124.7,30.5c0.3,0.1,0.4,0.3,0.3,0.5c-0.1,0.2-0.3,0.2-0.6,0.1s-0.4-0.3-0.3-0.5
			C124.3,30.5,124.5,30.4,124.7,30.5"/>
		<path class="st19" d="M129.2,24.2c0.2,0.1,0.3,0.2,0.3,0.3c0,0.1-0.2,0.1-0.4,0c-0.2-0.1-0.3-0.2-0.3-0.3
			C128.8,24.1,129,24.1,129.2,24.2"/>
		<path class="st19" d="M131,23.3c0.2,0.1,0.3,0.3,0.3,0.4c0,0.1-0.2,0.1-0.4,0c-0.2-0.1-0.3-0.3-0.3-0.4
			C130.7,23.2,130.8,23.2,131,23.3"/>
		<path class="st19" d="M123.9,23.9c0.3,0.1,0.4,0.3,0.3,0.4s-0.3,0.2-0.6,0.1c-0.3-0.1-0.4-0.3-0.3-0.4S123.7,23.8,123.9,23.9"/>
		<path class="st19" d="M118.5,20c0.2,0.1,0.3,0.2,0.2,0.3c-0.2,0.1-0.3,0.1-0.5,0.1c-0.2-0.1-0.3-0.2-0.2-0.3
			C118.1,19.9,118.3,19.9,118.5,20"/>
		<path class="st19" d="M120.6,26.2c0.3,0.1,0.4,0.3,0.3,0.5c-0.2,0.2-0.5,0.2-0.7,0.1c-0.3-0.1-0.4-0.3-0.3-0.5
			C120.1,26.1,120.4,26.1,120.6,26.2"/>
		<path class="st19" d="M117.9,38.4c0.2,0.1,0.3,0.2,0.2,0.4c0,0,0,0.1,0,0.1c-0.1,0.2-0.4,0.3-0.6,0.2c-0.2-0.1-0.3-0.3-0.2-0.4
			c0,0,0-0.1,0-0.1C117.4,38.4,117.6,38.3,117.9,38.4"/>
		<path class="st19" d="M116.1,39.3c0.2,0,0.3,0.2,0.2,0.4c0,0,0,0,0,0.1c-0.1,0.2-0.3,0.3-0.5,0.2c-0.2,0-0.3-0.2-0.2-0.3
			c0,0,0-0.1,0-0.1C115.6,39.3,115.9,39.2,116.1,39.3"/>
		<path class="st19" d="M122.4,36.4c0.2,0.1,0.4,0.3,0.3,0.6l0,0c-0.1,0.2-0.4,0.3-0.6,0.2c-0.2-0.1-0.4-0.3-0.3-0.6c0,0,0,0,0,0
			C121.8,36.4,122.1,36.3,122.4,36.4"/>
		<path class="st19" d="M120,37.4c0.2,0.1,0.4,0.3,0.3,0.6l0,0c-0.1,0.2-0.4,0.3-0.6,0.2c-0.2-0.1-0.4-0.3-0.3-0.6v0
			C119.4,37.4,119.7,37.3,120,37.4"/>
		<path class="st19" d="M122.9,25.9c0.2,0.1,0.3,0.2,0.2,0.3c-0.1,0.1-0.3,0.1-0.5,0.1c-0.2-0.1-0.3-0.2-0.2-0.3
			C122.5,25.8,122.7,25.8,122.9,25.9"/>
		<path class="st19" d="M127.9,20.5c0.2,0.1,0.3,0.2,0.2,0.3c0,0.1-0.2,0.1-0.3,0s-0.3-0.2-0.2-0.3
			C127.6,20.4,127.7,20.4,127.9,20.5"/>
		<path class="st19" d="M124.9,35.6c0.2,0.1,0.3,0.3,0.3,0.5c-0.1,0.2-0.3,0.3-0.5,0.2c0,0,0,0,0,0c-0.2-0.1-0.3-0.3-0.3-0.5
			C124.5,35.6,124.7,35.5,124.9,35.6C124.9,35.6,124.9,35.6,124.9,35.6"/>
		<path class="st19" d="M127.3,34.8c0.2,0.1,0.3,0.3,0.3,0.5c-0.1,0.2-0.3,0.3-0.4,0.2c0,0,0,0,0,0c-0.2-0.1-0.3-0.3-0.3-0.5
			C126.9,34.7,127.1,34.7,127.3,34.8C127.3,34.8,127.3,34.8,127.3,34.8"/>
		<path class="st19" d="M129.6,34.3c0.2,0.1,0.3,0.3,0.3,0.5c0,0.2-0.2,0.2-0.4,0.1c-0.2-0.1-0.3-0.3-0.3-0.5
			C129.2,34.2,129.4,34.2,129.6,34.3"/>
		<path class="st19" d="M118.7,25.7c0.2,0.1,0.3,0.2,0.2,0.3c-0.1,0.1-0.3,0.2-0.5,0.1c-0.2-0.1-0.3-0.2-0.2-0.3
			C118.3,25.7,118.5,25.7,118.7,25.7"/>
		<path class="st19" d="M120,27.1c0.2,0.1,0.3,0.2,0.3,0.4c-0.1,0.2-0.4,0.2-0.6,0.1c-0.2-0.1-0.3-0.3-0.3-0.4
			C119.5,27.1,119.8,27,120,27.1"/>
		<path class="st19" d="M121.8,27.9c0.2,0.1,0.3,0.2,0.2,0.4c-0.1,0.1-0.3,0.2-0.5,0.1c-0.2-0.1-0.3-0.2-0.2-0.4
			C121.4,27.9,121.6,27.8,121.8,27.9"/>
		<path class="st19" d="M123.5,28.6c0.2,0.1,0.3,0.2,0.2,0.3c-0.1,0.1-0.3,0.2-0.4,0.1c-0.2-0.1-0.3-0.2-0.2-0.3
			C123.2,28.6,123.4,28.5,123.5,28.6"/>
		<path class="st19" d="M125.2,29.3c0.2,0.1,0.3,0.2,0.2,0.4c0,0.1-0.2,0.2-0.4,0.1c-0.2-0.1-0.3-0.2-0.2-0.4
			C124.9,29.3,125.1,29.3,125.2,29.3"/>
		<path class="st19" d="M129.1,20.9c0.2,0.1,0.3,0.2,0.2,0.3c0,0.1-0.2,0.1-0.3,0s-0.3-0.2-0.2-0.3
			C128.8,20.9,128.9,20.9,129.1,20.9"/>
		<path class="st19" d="M128.2,20c0.1,0.1,0.2,0.2,0.2,0.2c0,0.1-0.1,0.1-0.3,0c-0.1-0.1-0.2-0.2-0.2-0.2S128.1,19.9,128.2,20"/>
		<path class="st19" d="M127.3,19.1c0.1,0.1,0.2,0.1,0.2,0.2s-0.1,0.1-0.3,0s-0.2-0.1-0.2-0.2C127.1,19.1,127.2,19.1,127.3,19.1"/>
		<path class="st19" d="M130,22.1c0.2,0.1,0.3,0.2,0.3,0.3c0,0.1-0.2,0.1-0.4,0c-0.2-0.1-0.3-0.2-0.3-0.3
			C129.7,22,129.9,22,130,22.1"/>
		<path class="st19" d="M118.1,26.6c0.2,0.1,0.3,0.2,0.2,0.3c-0.1,0.1-0.3,0.2-0.5,0.1c-0.2-0.1-0.3-0.2-0.2-0.3
			C117.7,26.6,117.9,26.5,118.1,26.6"/>
		<path class="st19" d="M116.3,26.1c0.2,0,0.3,0.2,0.2,0.3c-0.1,0.1-0.3,0.2-0.5,0.1c-0.2-0.1-0.3-0.2-0.2-0.3
			C116,26.1,116.2,26,116.3,26.1"/>
		<path class="st19" d="M131.2,25.5c-0.1,0.2,0.1,0.5,0.4,0.7c-0.4-0.1-0.7-0.1-0.7,0.2c0,0.3,0.1,0.5,0.3,0.7
			c-0.3-0.1-0.5,0-0.6,0.2c-0.1,0.2,0.1,0.6,0.5,0.8c-0.4-0.1-0.7,0-0.7,0.2c-0.1,0.3,0.1,0.6,0.3,0.7c-0.3-0.1-0.5,0.1-0.6,0.3
			c0,0.3,0.1,0.6,0.4,0.8c-0.3-0.1-0.6,0.1-0.7,0.3c0,0.5,0.3,0.9,0.7,1c0.3,0.2,0.7,0.2,0.9-0.1c0.1,0.4,0.4,0.7,0.7,0.8
			c0.3,0.2,0.6,0.2,0.8,0c0.1,0.3,0.4,0.6,0.7,0.7c0.2,0.2,0.6,0.2,0.8,0c0.1,0.3,0.4,0.6,0.7,0.7c0.2,0.2,0.6,0.2,0.8,0
			c0.1,0.3,0.4,0.6,0.7,0.7c0.5,0.2,0.8,0.1,0.9-0.3c0-0.3-0.2-0.7-0.4-0.9c0.3,0.1,0.5-0.1,0.5-0.3c0-0.3-0.2-0.6-0.4-0.7
			c0.3,0,0.4-0.1,0.5-0.3c0-0.4-0.2-0.7-0.5-0.9c0.3,0.1,0.6,0,0.6-0.2c0-0.3-0.2-0.6-0.4-0.7c0.3,0.1,0.5,0,0.5-0.3
			c0-0.3-0.2-0.6-0.5-0.8c0.3,0.1,0.5,0,0.5-0.2c-0.1-0.3-0.3-0.6-0.6-0.7c-0.3-0.2-0.6-0.2-0.7,0c-0.1-0.3-0.3-0.5-0.6-0.7
			c-0.3-0.2-0.5-0.2-0.7,0c-0.1-0.3-0.3-0.6-0.6-0.7c-0.3-0.2-0.6-0.2-0.7,0c-0.1-0.3-0.3-0.5-0.6-0.6c-0.4-0.2-0.7-0.2-0.7,0.1l0,0
			c0-0.2-0.2-0.5-0.6-0.7S131.3,25.3,131.2,25.5 M136,32.5c0.2,0.1,0.3,0.2,0.3,0.4c0,0.1-0.2,0.2-0.4,0.1c-0.2-0.1-0.3-0.2-0.3-0.4
			C135.7,32.5,135.8,32.4,136,32.5 M134.6,31.8c0.1,0.1,0.3,0.2,0.3,0.4c0,0.1-0.2,0.2-0.3,0.1c-0.2-0.1-0.3-0.2-0.3-0.4
			C134.3,31.8,134.4,31.8,134.6,31.8 M133.2,31.1c0.1,0.1,0.2,0.2,0.2,0.4c0,0.1-0.2,0.2-0.3,0.1c-0.1-0.1-0.2-0.2-0.2-0.4
			C132.8,31.1,133,31,133.2,31.1 M131.8,30.6c0,0.1-0.2,0.2-0.4,0.1s-0.3-0.3-0.3-0.4c0-0.1,0.2-0.2,0.4-0.1
			C131.7,30.3,131.8,30.5,131.8,30.6 M136.1,31.4c0.1,0.1,0.2,0.2,0.3,0.4c0,0.1-0.1,0.1-0.3,0.1c-0.1-0.1-0.2-0.2-0.3-0.4
			C135.8,31.4,136,31.3,136.1,31.4 M131.8,29.2c0.1,0.1,0.2,0.2,0.2,0.3c0,0.1-0.2,0.1-0.3,0.1s-0.3-0.2-0.2-0.4
			C131.5,29.1,131.6,29.1,131.8,29.2 M136.3,30.3c0.1,0.1,0.2,0.2,0.3,0.3c0,0.1-0.1,0.1-0.3,0.1c-0.2-0.1-0.3-0.2-0.3-0.3
			C136,30.3,136.1,30.3,136.3,30.3 M132,28.2c0.2,0.1,0.3,0.2,0.2,0.3c0,0.1-0.2,0.1-0.3,0.1c-0.2-0.1-0.3-0.2-0.2-0.3
			C131.7,28.1,131.9,28.1,132,28.2 M136.4,29.3c0.1,0.1,0.2,0.2,0.2,0.3c0,0.1-0.1,0.1-0.3,0.1c-0.1-0.1-0.2-0.2-0.2-0.3
			C136.1,29.3,136.2,29.3,136.4,29.3 M132.3,27.2c0.2,0.1,0.3,0.2,0.2,0.3c0,0.1-0.2,0.1-0.3,0c-0.2-0.1-0.3-0.2-0.2-0.3
			C132,27.2,132.1,27.2,132.3,27.2 M136.4,28.3c0.1,0.1,0.2,0.2,0.3,0.3c0,0.1-0.1,0.1-0.3,0.1c-0.1-0.1-0.2-0.2-0.3-0.3
			C136.1,28.3,136.3,28.2,136.4,28.3 M135.2,27.7c0.1,0.1,0.3,0.2,0.2,0.3c0,0.1-0.1,0.1-0.3,0s-0.2-0.2-0.2-0.3
			C134.9,27.6,135,27.6,135.2,27.7 M133.9,27.1c0.1,0.1,0.2,0.2,0.2,0.3c0,0.1-0.1,0.1-0.3,0c-0.1-0.1-0.3-0.2-0.2-0.3
			C133.6,27,133.8,27,133.9,27.1 M132.5,26.3c0.2,0.1,0.3,0.2,0.3,0.3c0,0.1-0.2,0.1-0.3,0c-0.2-0.1-0.3-0.2-0.3-0.3
			C132.2,26.2,132.3,26.2,132.5,26.3"/>
	</g>
	<path id="XMLID_303_" class="st18" d="M21.5,32.9c0.5,0,0.9-0.4,0.9-1c0-0.5-0.4-0.9-0.9-0.9c-0.5,0-1,0.4-1,0.9
		C20.5,32.5,20.9,32.9,21.5,32.9"/>
	<path id="XMLID_302_" class="st18" d="M24.2,42.3c-0.6,0-1,0.4-1,0.9c0,0.5,0.4,0.9,1,0.9c0.5,0,0.9-0.4,0.9-0.9
		C25.2,42.7,24.7,42.3,24.2,42.3"/>
	<path class="st18" d="M25.7,38.1c0,0.8-0.3,1.1-1.2,1.1h-1v-2.1c0-2.2-1.1-3.3-3.2-3.3c-2.5,0-3.7,1.8-3.7,3.5
		c0,1.3,0.4,2.2,1.2,2.7c0.9,0.6,1.6,0.7,3.3,0.7h3.5c1.9,0,2.9-0.7,2.9-2.6v-4.3h-1.8V38.1z M21.6,39.2h-1c-1.5,0-2.1-0.6-2.1-2
		c0-1.2,0.7-1.9,1.7-1.9c1,0,1.5,0.6,1.5,2V39.2z"/>
	<path id="XMLID_299_" class="st18" d="M19.2,32.9c0.5,0,0.9-0.4,0.9-1c0-0.5-0.4-0.9-0.9-0.9c-0.5,0-0.9,0.4-0.9,0.9
		C18.3,32.5,18.7,32.9,19.2,32.9"/>
	<path id="XMLID_298_" class="st18" d="M34.7,37.3c0-1.7-1.1-3.5-3.7-3.5h-1.4v1.5h1.6c1,0,1.7,0.8,1.7,1.9v2h-4.7v1.5h6.6V37.3z"/>
	<path id="XMLID_297_" class="st18" d="M26.4,42.3c-0.5,0-0.9,0.4-0.9,0.9c0,0.5,0.4,0.9,0.9,0.9c0.5,0,1-0.4,1-0.9
		C27.4,42.7,27,42.3,26.4,42.3"/>
	<rect id="XMLID_296_" x="95.9" y="30.4" class="st18" width="1.8" height="10.3"/>
	<path id="XMLID_295_" class="st18" d="M96.5,42.3V44c0.6,0.1,1,0.1,1.4,0.1c2.5,0,3.7-1.1,3.7-3.5v-6.2h-1.9v6.2
		c0,1.2-0.7,1.9-1.7,1.9c-0.7,0-1.1-0.2-1.3-0.2L96.5,42.3z"/>
	<rect id="XMLID_294_" x="102.7" y="31.5" class="st18" width="1.8" height="9.2"/>
	<path class="st18" d="M74.1,40.1c0.9,0.6,1.6,0.7,3.3,0.7H78c0,1.2-0.7,1.8-2,1.8c-0.6,0-1.3-0.1-2-0.3l-0.1,0v1.7
		c0.9,0.2,1.6,0.2,2.2,0.2c2.4,0,3.7-1.1,3.7-3.4h10.5c2.9,0,4.4-0.8,4.4-3.4c0-1.7-1.1-3.5-3.7-3.5c-2.1,0-3.2,1.1-3.2,3.3v2.1
		h-1.6c0.2-0.5,0.4-1,0.4-1.7c0-1.5-1-3.3-3.7-3.3h-0.2l3.5-3.8h-2.2c-1.3,1.5-3.3,3.6-3.5,3.8v1.5h2.5c0.8,0,1.7,0.3,1.7,1.7
		c0,1.3-0.6,1.8-2.1,1.8h-2.9v-2.1c0-2.2-1.1-3.3-3.2-3.3c-2.5,0-3.7,1.8-3.7,3.5C73,38.6,73.4,39.5,74.1,40.1 M89.7,37.3
		c0-1.3,0.5-2,1.5-2c1,0,1.7,0.8,1.7,1.9c0,1.4-0.6,2-2.1,2h-1.1V37.3z M76.5,35.3c1,0,1.5,0.6,1.5,2v1.9h-1c-1.5,0-2.1-0.6-2.1-2
		C74.8,36.1,75.5,35.3,76.5,35.3"/>
	<path class="st18" d="M63.6,40.8c0.8,0,1.6-0.2,2-0.4c0.6-0.3,0.8-0.9,0.9-1.2c0.1-0.2,0.1-0.5,0.1-1v-7.7h-1.8v7.6
		c0,0.9-0.3,1.1-1.2,1.1h-0.4c-0.3,0-0.6-0.1-0.9-0.2c0-0.2,0.1-0.5,0.1-0.8v-3.8h-1.8v3.6c0,0.8-0.4,1.1-1.2,1.1
		c-0.3,0-0.6,0-0.9-0.1c0-0.3,0.1-0.5,0.1-0.9v-3.7h-1.8v3.6c0,0.7-0.2,1-0.7,1.1H55c-0.1,0-0.5,0-0.5-0.2v-4.6h-1.8v4.7h-3
		c1-1,1.6-2.2,1.6-3c0-1.6-2-2.5-3.9-2.5c-1.9,0-3.9,0.8-3.9,2.5c0,1.1,1,2.4,1.6,3h-2.8v-2.1c0-2.2-1.1-3.3-3.2-3.3
		c-2.5,0-3.7,1.8-3.7,3.5c0,1.3,0.4,2.2,1.1,2.7c0.9,0.6,1.6,0.7,3.3,0.7h0.6c0,1.2-0.7,1.8-2,1.8c-0.6,0-1.3-0.1-2-0.3l-0.1,0v1.7
		c0.9,0.2,1.6,0.2,2.2,0.2c2.4,0,3.7-1.1,3.7-3.4h12.3c0.4,0,0.7,0.1,1.1,0.1c0.7,0,1.2-0.1,1.7-0.4c0.7,0.3,1.4,0.4,2.2,0.4
		c0.7,0,1.3-0.1,1.7-0.4c0.6,0.3,1.3,0.4,2.2,0.4H63.6z M40.5,39.2h-1c-1.5,0-2.1-0.6-2.1-2c0-1.2,0.7-1.9,1.7-1.9
		c1,0,1.5,0.6,1.5,2V39.2z M47.4,39.1c-0.3,0-2.2-1.8-2.2-2.9c0-0.6,1.1-0.9,2.2-0.9c1,0,2.1,0.3,2.1,0.9
		C49.6,37.3,47.7,39.1,47.4,39.1"/>
	<rect id="XMLID_287_" x="68" y="30.4" class="st18" width="1.8" height="10.3"/>
	<path id="XMLID_286_" class="st18" d="M105,29.9h-1c-0.4,0-0.5-0.1-0.5-0.4c0-0.4,0.1-0.4,0.6-0.4c0.3,0,0.5,0.1,0.8,0.3v-0.9
		l-0.1-0.1c-0.2-0.1-0.4-0.1-0.7-0.1c-0.9,0-1.4,0.4-1.4,1.2c0,0.2,0,0.3,0.1,0.4h-0.3v0.8h2.6V29.9z"/>
	<path class="st18" d="M102.3,47c-1.9,0-3.5,1.6-3.5,3.5c0,1.9,1.6,3.5,3.5,3.5c1.9,0,3.5-1.6,3.5-3.5C105.8,48.6,104.2,47,102.3,47
		 M102.3,52.4c-1.1,0-1.9-0.9-1.9-1.9c0-1,0.9-1.9,1.9-1.9c1,0,1.9,0.9,1.9,1.9C104.2,51.6,103.3,52.4,102.3,52.4"/>
	<path id="XMLID_283_" class="st18" d="M89.4,46.9c-0.8,0-1.6,0.2-2.2,0.4c-0.5-0.3-1-0.4-1.7-0.4c-0.9,0-1.8,0.1-2.8,0.5l-0.2,0.1
		v6.5h1.8v-5.3c0.4-0.1,0.6-0.2,1-0.2c0.9,0,1.1,0.3,1.1,1.2v4.3h1.8v-4.4c0-0.4,0-0.7-0.1-0.9c0.4-0.1,0.6-0.2,0.9-0.2
		c0.8,0,1.2,0.4,1.2,1.2v4.3H92v-4.4c0-0.9-0.1-1.4-0.5-1.8C91.1,47.2,90.3,46.9,89.4,46.9"/>
	<path id="XMLID_282_" class="st18" d="M96.5,52.5c-1.2,0-1.8-0.7-1.8-2c0-1.3,0.7-2,1.9-2c0.2,0,0.5,0,0.7,0.1c0,0,0.4,0.1,0.7,0.4
		l0.7-1.3c-0.4-0.3-0.9-0.5-1-0.5c-0.5-0.1-1.1-0.2-1.1-0.2c-2.1,0-3.5,1.5-3.5,3.6c0,2.1,1.3,3.5,3.4,3.5c0,0,1.4,0.1,2.3-0.8
		l-0.9-1.1C97.3,52.4,96.9,52.5,96.5,52.5"/>
	<path id="XMLID_281_" class="st18" d="M73.5,47c-2.5,0-3.7,1.1-3.7,3.5v3.5h1.8v-3.3v-0.2c0-1.2,0.7-1.9,1.7-1.9
		c0.4,0,0.8,0.1,1,0.1l0.4-1.6C74.1,47,73.5,47,73.5,47"/>
	<path class="st18" d="M81.5,50.2v3.7h-2.4c-1.7,0-2.4-0.1-3.3-0.7c-0.8-0.5-1.2-1.5-1.2-2.7c0-1.7,1.1-3.5,3.7-3.5
		C80.4,47,81.5,48.1,81.5,50.2 M79.7,50.4c0-1.3-0.5-2-1.5-2c-1,0-1.7,0.8-1.7,1.9c0,1.4,0.7,2,2.2,2h1.1V50.4z"/>
	<path class="st18" d="M68.9,50.2v3.7h-2.4c-1.7,0-2.4-0.1-3.3-0.7c-0.8-0.5-1.2-1.5-1.2-2.7c0-1.7,1.1-3.5,3.7-3.5
		C67.8,47,68.9,48.1,68.9,50.2 M67.1,50.4c0-1.3-0.5-2-1.5-2c-1,0-1.7,0.8-1.7,1.9c0,1.4,0.7,2,2.2,2h1.1V50.4z"/>
	<path id="XMLID_276_" class="st18" d="M31.2,49.7c-1.1-0.3-1.5-0.5-1.5-0.8c0-0.4,0.5-0.6,1.2-0.6c0.7,0,1.3,0.1,1.8,0.3l0.4-1.5
		c-0.7-0.2-1.6-0.3-2.2-0.3C29,46.8,28,47.7,28,49c0,0.6,0.2,1.5,2.2,2.1c1.2,0.3,1.6,0.4,1.6,0.8c0,0.4-0.7,0.7-1.6,0.7
		c-0.9,0-1.8-0.4-2.3-0.6v1.7c0.6,0.3,1.5,0.5,2.3,0.5c2.1,0,3.3-0.9,3.3-2.2C33.5,50.8,32.8,50.2,31.2,49.7"/>
	<path id="XMLID_275_" class="st18" d="M46.2,51.3c0,0.9-0.3,1.2-1.2,1.2h-0.1c-0.9,0-1.2-0.3-1.2-1.2v-4.3h-1.8v4.4
		c0,2,1.1,2.6,2.9,2.6h0.3c1.9,0,3-0.5,3-2.6v-4.4h-1.8V51.3z"/>
	<path id="XMLID_274_" class="st18" d="M57.6,44.6c-0.5,0-0.9,0.4-0.9,0.9c0,0.5,0.4,0.9,0.9,0.9c0.5,0,0.9-0.4,0.9-0.9
		C58.5,45,58.1,44.6,57.6,44.6"/>
	<rect id="XMLID_273_" x="56.7" y="47.3" class="st18" width="1.7" height="6.6"/>
	<path class="st18" d="M40.9,50.2v3.7h-2.4c-1.7,0-2.4-0.1-3.3-0.7c-0.8-0.5-1.2-1.5-1.2-2.7c0-1.7,1.1-3.5,3.7-3.5
		C39.8,47,40.9,48.1,40.9,50.2 M39.1,50.4c0-1.3-0.5-2-1.5-2c-1,0-1.7,0.8-1.7,1.9c0,1.4,0.7,2,2.2,2h1.1V50.4z"/>
	<path class="st18" d="M55.6,44.4v9.5h-2.2c-1.7,0-2.4-0.1-3.3-0.7c-0.8-0.5-1.2-1.5-1.2-2.7c0-2.1,1.4-3.5,3.5-3.5h0.2
		c0.5,0,0.9,0.1,1.3,0.4v-2.9H55.6z M53.9,50.5c0-1.4-0.4-2-1.4-2c-1,0-1.7,0.8-1.7,1.9c0,1.4,0.7,2,2.2,2h0.9V50.5z"/>
</g>
</svg>
