<?xml version="1.0" encoding="utf-8"?>
<!-- Generator: Adobe Illustrator 24.3.0, SVG Export Plug-In . SVG Version: 6.00 Build 0)  -->
<svg version="1.1" id="Layer_1" xmlns="http://www.w3.org/2000/svg" xmlns:xlink="http://www.w3.org/1999/xlink" x="0px" y="0px"
	 viewBox="0 0 164 68" style="enable-background:new 0 0 164 68;" xml:space="preserve">
<style type="text/css">
	.st0{fill:none;}
	.st1{fill:#1E1F1C;}
	.st2{fill:#020203;}
	.st3{fill:#040404;}
	.st4{fill:#0C0809;}
	.st5{fill:#211E1F;}
	.st6{fill:#FCFEFF;}
	.st7{fill:#000102;}
	.st8{fill:none;stroke:#F9F9F9;stroke-width:0.25;stroke-miterlimit:10;}
	.st9{fill:#262626;}
	.st10{fill:#000002;}
</style>
<g>
	<rect x="21.5" y="5.6" width="121" height="56.8"/>
	<g>
		<path class="st6" d="M31.7,52V31.6h5.8c1.8,0,3.2,0.4,4.2,1.3c1,0.9,1.5,2,1.5,3.4c0,1.2-0.3,2.2-0.9,3c-0.6,0.9-1.5,1.5-2.6,1.8
			v0.1c1.4,0.2,2.5,0.7,3.3,1.6c0.8,0.9,1.2,2,1.2,3.4c0,1.7-0.6,3.2-1.9,4.2S39.5,52,37.6,52H31.7z M34,33.7v6.6h2.4
			c1.3,0,2.3-0.3,3.1-0.9c0.7-0.6,1.1-1.5,1.1-2.7c0-2-1.3-3-3.9-3H34z M34,42.5v7.3h3.2c1.4,0,2.5-0.3,3.3-1
			c0.8-0.7,1.2-1.6,1.2-2.7c0-2.4-1.6-3.6-4.9-3.6H34z"/>
		<path class="st6" d="M64.6,52H62l-2.2-5.7h-8.6l-2,5.7h-2.7l7.8-20.4h2.5L64.6,52z M59,44.1l-3.2-8.7c-0.1-0.3-0.2-0.7-0.3-1.4
			h-0.1c-0.1,0.6-0.2,1-0.3,1.4l-3.2,8.7H59z"/>
		<path class="st6" d="M81.3,31.6l-6.7,12.9V52h-2.4v-7.5l-6.6-12.9h2.7l4.6,9.2c0.1,0.1,0.2,0.5,0.5,1.3h0c0.1-0.3,0.3-0.7,0.5-1.3
			l4.8-9.2H81.3z"/>
		<path class="st6" d="M96.7,33.7h-5.9V52h-2.4V33.7h-5.9v-2.2h14.2V33.7z"/>
		<path class="st6" d="M115.3,43.7c0,5.7-2.6,8.6-7.8,8.6c-5,0-7.4-2.8-7.4-8.3V31.6h2.4v12.3c0,4.2,1.8,6.3,5.3,6.3
			c3.4,0,5.1-2,5.1-6.1V31.6h2.4V43.7z"/>
		<path class="st6" d="M135.5,52h-2.8l-3.4-5.7c-0.3-0.5-0.6-1-0.9-1.4c-0.3-0.4-0.6-0.7-0.9-0.9c-0.3-0.2-0.6-0.4-1-0.5
			c-0.4-0.1-0.8-0.2-1.2-0.2h-2V52h-2.4V31.6h6.1c0.9,0,1.7,0.1,2.5,0.3s1.4,0.6,2,1c0.6,0.5,1,1,1.3,1.7c0.3,0.7,0.5,1.5,0.5,2.4
			c0,0.7-0.1,1.4-0.3,2c-0.2,0.6-0.5,1.1-0.9,1.6s-0.9,0.9-1.4,1.2s-1.2,0.6-1.9,0.8v0.1c0.3,0.2,0.6,0.3,0.9,0.5
			c0.3,0.2,0.5,0.4,0.7,0.7c0.2,0.3,0.5,0.6,0.7,0.9c0.2,0.3,0.5,0.7,0.7,1.2L135.5,52z M123.2,33.7v7.4h3.2c0.6,0,1.1-0.1,1.7-0.3
			c0.5-0.2,0.9-0.4,1.3-0.8c0.4-0.3,0.7-0.7,0.9-1.2c0.2-0.5,0.3-1,0.3-1.6c0-1.1-0.4-1.9-1.1-2.6c-0.7-0.6-1.7-0.9-3.1-0.9H123.2z"
			/>
	</g>
	<g>
		<path class="st6" d="M42.4,22.7v-1c0.1,0.1,0.3,0.2,0.4,0.3c0.2,0.1,0.3,0.2,0.5,0.2c0.2,0.1,0.4,0.1,0.6,0.1s0.4,0,0.5,0
			c0.5,0,0.9-0.1,1.2-0.3s0.4-0.5,0.4-0.9c0-0.2,0-0.4-0.1-0.5c-0.1-0.1-0.2-0.3-0.4-0.4c-0.2-0.1-0.3-0.2-0.6-0.4
			c-0.2-0.1-0.4-0.2-0.7-0.4c-0.3-0.1-0.5-0.3-0.7-0.4s-0.4-0.3-0.6-0.4s-0.3-0.3-0.4-0.6c-0.1-0.2-0.1-0.4-0.1-0.7
			c0-0.3,0.1-0.6,0.2-0.9c0.1-0.3,0.3-0.5,0.6-0.6c0.2-0.2,0.5-0.3,0.8-0.4s0.6-0.1,1-0.1c0.7,0,1.3,0.1,1.6,0.3v1
			c-0.4-0.3-1-0.5-1.7-0.5c-0.2,0-0.4,0-0.6,0.1s-0.4,0.1-0.5,0.2c-0.2,0.1-0.3,0.2-0.4,0.3c-0.1,0.1-0.1,0.3-0.1,0.5
			c0,0.2,0,0.4,0.1,0.5c0.1,0.1,0.2,0.3,0.3,0.4c0.1,0.1,0.3,0.2,0.5,0.3s0.4,0.2,0.7,0.4c0.3,0.1,0.5,0.3,0.8,0.4s0.5,0.3,0.6,0.5
			c0.2,0.2,0.3,0.4,0.4,0.6c0.1,0.2,0.2,0.5,0.2,0.7c0,0.4-0.1,0.7-0.2,0.9s-0.3,0.5-0.6,0.6c-0.2,0.2-0.5,0.3-0.8,0.3
			c-0.3,0.1-0.7,0.1-1,0.1c-0.1,0-0.3,0-0.4,0c-0.2,0-0.4,0-0.5-0.1c-0.2,0-0.4-0.1-0.5-0.1C42.6,22.8,42.5,22.8,42.4,22.7z"/>
		<path class="st6" d="M54.4,23h-1l-0.8-2.1h-3.2L48.7,23h-1l2.9-7.5h0.9L54.4,23z M52.3,20.1l-1.2-3.2c0-0.1-0.1-0.3-0.1-0.5h0
			c0,0.2-0.1,0.4-0.1,0.5l-1.2,3.2H52.3z"/>
		<path class="st6" d="M61.1,20c0,2.1-0.9,3.2-2.8,3.2c-1.8,0-2.7-1-2.7-3v-4.6h0.9V20c0,1.5,0.6,2.3,1.9,2.3c1.2,0,1.9-0.7,1.9-2.2
			v-4.6h0.9V20z"/>
		<path class="st6" d="M63.2,23v-7.5h2.1c2.6,0,4,1.2,4,3.6c0,1.2-0.4,2.1-1.1,2.8S66.4,23,65.2,23H63.2z M64.1,16.3v5.9h1.1
			c1,0,1.7-0.3,2.3-0.8s0.8-1.3,0.8-2.2c0-1.9-1-2.9-3.1-2.9H64.1z"/>
		<path class="st6" d="M71.7,23h-0.9v-7.5h0.9V23z"/>
		<path class="st6" d="M82.8,23h-1L81,20.9h-3.2L77.1,23h-1l2.9-7.5h0.9L82.8,23z M80.7,20.1l-1.2-3.2c0-0.1-0.1-0.3-0.1-0.5h0
			c0,0.2-0.1,0.4-0.1,0.5l-1.2,3.2H80.7z"/>
		<path class="st6" d="M89.4,23h-1l-1.3-2.1c-0.1-0.2-0.2-0.4-0.3-0.5c-0.1-0.1-0.2-0.2-0.3-0.3s-0.2-0.2-0.4-0.2s-0.3-0.1-0.4-0.1
			h-0.7V23H84v-7.5h2.2c0.3,0,0.6,0,0.9,0.1c0.3,0.1,0.5,0.2,0.7,0.4c0.2,0.2,0.4,0.4,0.5,0.6c0.1,0.2,0.2,0.5,0.2,0.9
			c0,0.3,0,0.5-0.1,0.7s-0.2,0.4-0.3,0.6c-0.1,0.2-0.3,0.3-0.5,0.4c-0.2,0.1-0.4,0.2-0.7,0.3v0c0.1,0.1,0.2,0.1,0.3,0.2
			c0.1,0.1,0.2,0.2,0.3,0.3c0.1,0.1,0.2,0.2,0.2,0.3s0.2,0.3,0.3,0.4L89.4,23z M84.9,16.3V19h1.2c0.2,0,0.4,0,0.6-0.1
			c0.2-0.1,0.3-0.2,0.5-0.3c0.1-0.1,0.2-0.3,0.3-0.5c0.1-0.2,0.1-0.4,0.1-0.6c0-0.4-0.1-0.7-0.4-0.9s-0.6-0.3-1.1-0.3H84.9z"/>
		<path class="st6" d="M96.4,23h-1l-0.8-2.1h-3.2L90.7,23h-1l2.9-7.5h0.9L96.4,23z M94.3,20.1l-1.2-3.2c0-0.1-0.1-0.3-0.1-0.5h0
			c0,0.2-0.1,0.4-0.1,0.5l-1.2,3.2H94.3z"/>
		<path class="st6" d="M97.7,23v-7.5h2.1c0.6,0,1.2,0.2,1.5,0.5c0.4,0.3,0.6,0.7,0.6,1.2c0,0.4-0.1,0.8-0.3,1.1
			c-0.2,0.3-0.5,0.5-1,0.7v0c0.5,0.1,0.9,0.2,1.2,0.6s0.5,0.7,0.5,1.3c0,0.6-0.2,1.2-0.7,1.6c-0.5,0.4-1,0.6-1.7,0.6H97.7z
			 M98.5,16.3v2.4h0.9c0.5,0,0.9-0.1,1.1-0.3c0.3-0.2,0.4-0.6,0.4-1c0-0.7-0.5-1.1-1.4-1.1H98.5z M98.5,19.5v2.7h1.2
			c0.5,0,0.9-0.1,1.2-0.4c0.3-0.2,0.4-0.6,0.4-1c0-0.9-0.6-1.3-1.8-1.3H98.5z"/>
		<path class="st6" d="M104.8,23H104v-7.5h0.9V23z"/>
		<path class="st6" d="M112.8,23h-1l-0.8-2.1h-3.2l-0.7,2.1h-1l2.9-7.5h0.9L112.8,23z M110.7,20.1l-1.2-3.2c0-0.1-0.1-0.3-0.1-0.5h0
			c0,0.2-0.1,0.4-0.1,0.5l-1.2,3.2H110.7z"/>
		<path class="st6" d="M120.1,23H119l-3.9-6c-0.1-0.1-0.2-0.3-0.2-0.5h0c0,0.2,0,0.5,0,1V23H114v-7.5h1.1l3.7,5.9
			c0.2,0.2,0.3,0.4,0.3,0.5h0c0-0.2-0.1-0.6-0.1-1.1v-5.3h0.9V23z"/>
	</g>
</g>
</svg>
