<?xml version="1.0" encoding="utf-8"?>
<!-- Generator: Adobe Illustrator 24.3.0, SVG Export Plug-In . SVG Version: 6.00 Build 0)  -->
<svg version="1.1" id="Layer_1" xmlns="http://www.w3.org/2000/svg" xmlns:xlink="http://www.w3.org/1999/xlink" x="0px" y="0px"
	 viewBox="0 0 164 68" style="enable-background:new 0 0 164 68;" xml:space="preserve">
<style type="text/css">
	.st0{fill:#020203;}
	.st1{fill:#1E1E1C;}
	.st2{fill:#020304;}
	.st3{fill:none;stroke:#FAFAFA;stroke-width:0.25;stroke-miterlimit:10;}
	.st4{fill:#040505;}
	.st5{fill:#FDFEFF;}
	.st6{fill:none;}
	.st7{fill:#1F201D;}
	.st8{fill:#030304;}
	.st9{fill:#FFFFFF;stroke:#020203;stroke-width:0.25;stroke-miterlimit:10.0001;}
	.st10{fill:none;stroke:#020203;stroke-width:0.5;stroke-miterlimit:10;}
	.st11{fill:#080809;}
	.st12{fill:none;stroke:#020303;stroke-width:0.5;stroke-miterlimit:10;}
	.st13{fill:#262626;}
	.st14{fill:#0B090A;}
	.st15{fill:#221F20;}
	.st16{fill:#E02120;}
	.st17{clip-path:url(#SVGID_2_);}
	.st18{fill:#050606;}
	.st19{fill:#FFFFFF;}
</style>
<g>
	<path class="st0" d="M102.2,46.3c-0.1,0-0.2,0-0.3-0.1c-0.1-0.1-0.1-0.2-0.1-0.3c0-0.1,0-0.2,0.1-0.3c0.1-0.1,0.2-0.1,0.3-0.1
		c0.1,0,0.2,0,0.3,0.1s0.1,0.2,0.1,0.3c0,0.1,0,0.2-0.1,0.3S102.3,46.3,102.2,46.3z M103.3,46.3c-0.1,0-0.2,0-0.3-0.1
		S103,46.1,103,46c0-0.1,0-0.2,0.1-0.3s0.2-0.1,0.3-0.1c0.1,0,0.2,0,0.3,0.1c0.1,0.1,0.1,0.2,0.1,0.3c0,0.1,0,0.2-0.1,0.3
		C103.5,46.3,103.5,46.3,103.3,46.3z"/>
	<path class="st0" d="M103,50.6c-0.3,0-0.6-0.1-0.9-0.2s-0.4-0.3-0.6-0.5c-0.1-0.2-0.2-0.5-0.2-0.8c0-0.3,0.1-0.6,0.2-0.9
		c0.1-0.2,0.4-0.4,0.6-0.6c0.3-0.1,0.6-0.2,0.9-0.2h0.4v-0.4h0.6v3.1h0.7c0,0,0,0,0,0v0.4c0,0,0,0,0,0H103z M103.5,50.1V48h-0.4
		c-0.4,0-0.7,0.1-0.9,0.3c-0.2,0.2-0.3,0.5-0.3,0.8c0,0.3,0.1,0.6,0.3,0.7c0.2,0.2,0.4,0.3,0.8,0.3H103.5z"/>
	<path class="st0" d="M105.9,50.1C105.9,50.1,106,50.1,105.9,50.1l0,0.5c0,0,0,0,0,0h-1.2c0,0,0,0,0,0v-0.4c0,0,0,0,0,0H105.9z"/>
	<path class="st0" d="M107,50.1C107.1,50.1,107.1,50.1,107,50.1l0,0.5c0,0,0,0,0,0h-1.2c0,0,0,0,0,0v-0.4c0,0,0,0,0,0H107z"/>
	<path class="st0" d="M108.1,50.1C108.2,50.1,108.2,50.1,108.1,50.1l0,0.5c0,0,0,0,0,0H107c0,0,0,0,0,0v-0.4c0,0,0,0,0,0H108.1z"/>
	<path class="st0" d="M109.1,46.9c-0.1,0-0.2,0-0.3-0.1s-0.1-0.2-0.1-0.3c0-0.1,0-0.2,0.1-0.3s0.2-0.1,0.3-0.1c0.1,0,0.2,0,0.3,0.1
		c0.1,0.1,0.1,0.2,0.1,0.3c0,0.1,0,0.2-0.1,0.3C109.3,46.9,109.2,46.9,109.1,46.9z"/>
	<path class="st0" d="M108.1,50.6C108.1,50.6,108,50.6,108.1,50.6l0-0.5c0,0,0,0,0,0h0.9v-2.6h0.6v3.2H108.1z"/>
	<path class="st0" d="M112.2,50.1C112.2,50.1,112.2,50.1,112.2,50.1l0,0.5c0,0,0,0,0,0h-1.4v-4.9h0.6v4.4H112.2z"/>
	<path class="st0" d="M113.3,50.1C113.3,50.1,113.3,50.1,113.3,50.1l0,0.5c0,0,0,0,0,0h-1.2c0,0,0,0,0,0v-0.4c0,0,0,0,0,0H113.3z"/>
	<path class="st0" d="M113.9,52c-0.1,0-0.2,0-0.3-0.1c-0.1-0.1-0.1-0.2-0.1-0.3s0-0.2,0.1-0.3c0.1-0.1,0.2-0.1,0.3-0.1
		c0.1,0,0.2,0,0.3,0.1c0.1,0.1,0.1,0.2,0.1,0.3s0,0.2-0.1,0.3C114.1,51.9,114,52,113.9,52z M115,52c-0.1,0-0.2,0-0.3-0.1
		c-0.1-0.1-0.1-0.2-0.1-0.3s0-0.2,0.1-0.3c0.1-0.1,0.2-0.1,0.3-0.1c0.1,0,0.2,0,0.3,0.1c0.1,0.1,0.1,0.2,0.1,0.3s0,0.2-0.1,0.3
		C115.3,51.9,115.2,52,115,52z"/>
	<path class="st0" d="M113.2,50.6C113.2,50.6,113.2,50.6,113.2,50.6l0-0.5c0,0,0,0,0,0h1.1v-2.6h0.6v2.6h1c0,0,0,0,0,0v0.4
		c0,0,0,0,0,0H113.2z"/>
	<path class="st0" d="M116.9,50.1C116.9,50.1,117,50.1,116.9,50.1l0,0.5c0,0,0,0,0,0h-1.2c0,0,0,0,0,0v-0.4c0,0,0,0,0,0H116.9z"/>
	<path class="st0" d="M118,50.1C118.1,50.1,118.1,50.1,118,50.1l0,0.5c0,0,0,0,0,0h-1.2c0,0,0,0,0,0v-0.4c0,0,0,0,0,0H118z"/>
	<path class="st0" d="M118,50.6C117.9,50.6,117.9,50.6,118,50.6l0-0.5c0,0,0,0,0,0h0.8v-2.5h0.6v1.2c0.1-0.3,0.3-0.6,0.5-0.8
		s0.4-0.4,0.6-0.5s0.5-0.2,0.7-0.2c0.5,0,0.9,0.1,1.1,0.4s0.4,0.7,0.4,1.3v1.1h0.9c0,0,0,0,0,0v0.4c0,0,0,0,0,0H118z M122,50.1v-1
		c0-0.4-0.1-0.7-0.3-0.9c-0.2-0.2-0.4-0.3-0.8-0.3c-0.2,0-0.4,0.1-0.6,0.2c-0.2,0.1-0.4,0.3-0.6,0.6c-0.2,0.2-0.3,0.6-0.5,0.9v0.5
		H122z"/>
	<path class="st0" d="M123.4,50.6C123.4,50.6,123.4,50.6,123.4,50.6l0-0.5c0,0,0,0,0,0h0.9v-4.4h0.6v4.9H123.4z"/>
	<path class="st0" d="M126.1,45.7h0.6v4.9h-0.6V45.7z"/>
	<path class="st0" d="M129,52.2c-0.2,0-0.4,0-0.6-0.1c-0.2-0.1-0.4-0.1-0.5-0.2l0.3-0.4c0.1,0.1,0.3,0.1,0.4,0.2
		c0.1,0,0.3,0.1,0.5,0.1c0.3,0,0.5-0.1,0.7-0.2c0.2-0.2,0.3-0.4,0.3-0.6v-0.2h-0.6c-0.5,0-0.8-0.1-1.1-0.4c-0.3-0.3-0.4-0.6-0.4-1.1
		c0-0.3,0.1-0.6,0.2-0.9c0.1-0.2,0.4-0.4,0.6-0.6c0.3-0.1,0.6-0.2,0.9-0.2h0.9v3.3c0,0.4-0.1,0.8-0.4,1S129.4,52.2,129,52.2z
		 M129.9,50.1V48h-0.3c-0.4,0-0.7,0.1-0.9,0.3c-0.2,0.2-0.3,0.5-0.3,0.9c0,0.3,0.1,0.6,0.2,0.7c0.1,0.2,0.4,0.2,0.7,0.2H129.9z"/>
	<path class="st0" d="M137,50.6c0,0.5-0.1,0.9-0.4,1.2c-0.3,0.3-0.7,0.4-1.2,0.4h-0.5c-0.1,0-0.3,0-0.4-0.1s-0.2-0.1-0.3-0.2
		c-0.2-0.1-0.3-0.3-0.4-0.6s-0.1-0.5-0.1-0.9c0-0.2,0-0.4,0-0.5c0-0.2,0-0.4,0.1-0.5c0-0.2,0.1-0.3,0.1-0.5h0.5
		c-0.1,0.2-0.1,0.4-0.2,0.7c0,0.3-0.1,0.5-0.1,0.9c0,0.4,0.1,0.7,0.2,0.9c0.1,0.2,0.4,0.3,0.6,0.3h0.3c0.3,0,0.5,0,0.6-0.1
		s0.3-0.2,0.4-0.3c0.1-0.2,0.1-0.4,0.1-0.6v-4.9h0.6v4.4h0.7c0,0,0,0,0,0v0.4c0,0,0,0,0,0H137z"/>
	<path class="st0" d="M138.9,50.1C138.9,50.1,138.9,50.1,138.9,50.1l0,0.5c0,0,0,0,0,0h-1.2c0,0,0,0,0,0v-0.4c0,0,0,0,0,0H138.9z"/>
	<path class="st0" d="M140,50.1C140,50.1,140,50.1,140,50.1l0,0.5c0,0,0,0,0,0h-1.2c0,0,0,0,0,0v-0.4c0,0,0,0,0,0H140z"/>
	<path class="st0" d="M140.6,52c-0.1,0-0.2,0-0.3-0.1c-0.1-0.1-0.1-0.2-0.1-0.3s0-0.2,0.1-0.3c0.1-0.1,0.2-0.1,0.3-0.1
		c0.1,0,0.2,0,0.3,0.1c0.1,0.1,0.1,0.2,0.1,0.3s0,0.2-0.1,0.3C140.8,51.9,140.7,52,140.6,52z M141.8,52c-0.1,0-0.2,0-0.3-0.1
		c-0.1-0.1-0.1-0.2-0.1-0.3s0-0.2,0.1-0.3c0.1-0.1,0.2-0.1,0.3-0.1c0.1,0,0.2,0,0.3,0.1c0.1,0.1,0.1,0.2,0.1,0.3s0,0.2-0.1,0.3
		C142,51.9,141.9,52,141.8,52z"/>
	<path class="st0" d="M139.9,50.6C139.9,50.6,139.9,50.6,139.9,50.6l0-0.5c0,0,0,0,0,0h1.1v-2.6h0.6v2.6h1c0,0,0,0,0,0v0.4
		c0,0,0,0,0,0H139.9z"/>
	<path class="st0" d="M143.6,50.1C143.6,50.1,143.7,50.1,143.6,50.1l0,0.5c0,0,0,0,0,0h-1.2c0,0,0,0,0,0v-0.4c0,0,0,0,0,0H143.6z"/>
	<path class="st0" d="M144.7,50.1C144.8,50.1,144.8,50.1,144.7,50.1l0,0.5c0,0,0,0,0,0h-1.2c0,0,0,0,0,0v-0.4c0,0,0,0,0,0H144.7z"/>
	<path class="st0" d="M146.7,46.8c-0.1,0-0.2,0-0.3-0.1s-0.1-0.2-0.1-0.3c0-0.1,0-0.2,0.1-0.3s0.2-0.1,0.3-0.1c0.1,0,0.2,0,0.3,0.1
		c0.1,0.1,0.1,0.2,0.1,0.3c0,0.1,0,0.2-0.1,0.3C146.9,46.8,146.9,46.8,146.7,46.8z"/>
	<path class="st0" d="M147.8,50.6c-0.2,0-0.4,0-0.6-0.1c-0.2-0.1-0.4-0.1-0.6-0.2c-0.2,0.1-0.4,0.2-0.6,0.2
		c-0.2,0.1-0.4,0.1-0.6,0.1h-0.8c0,0,0,0,0,0v-0.4c0,0,0,0,0,0h0.7c0.2,0,0.3,0,0.4,0c0.1,0,0.2-0.1,0.3-0.1
		c-0.1-0.1-0.2-0.1-0.3-0.2c-0.1-0.1-0.2-0.2-0.3-0.3c-0.2-0.2-0.3-0.5-0.4-0.7c-0.1-0.3-0.2-0.5-0.2-0.7c0.2-0.1,0.3-0.3,0.5-0.4
		c0.2-0.1,0.4-0.2,0.6-0.2c0.2-0.1,0.4-0.1,0.6-0.1c0.3,0,0.5,0,0.8,0.1c0.3,0.1,0.5,0.2,0.7,0.3c0,0.3,0,0.6-0.1,0.9
		c-0.1,0.3-0.2,0.5-0.4,0.8c-0.2,0.2-0.4,0.4-0.6,0.6c0.1,0,0.2,0.1,0.4,0.1c0.1,0,0.2,0,0.4,0h0.8c0,0,0,0,0,0v0.4c0,0,0,0,0,0
		H147.8z M146.6,49.7c0.3-0.2,0.6-0.5,0.7-0.7c0.2-0.3,0.3-0.6,0.3-0.9c-0.2-0.1-0.3-0.1-0.5-0.2c-0.2,0-0.3-0.1-0.5-0.1
		c-0.1,0-0.2,0-0.4,0c-0.1,0-0.2,0.1-0.4,0.1c-0.1,0.1-0.2,0.1-0.4,0.2c0,0.2,0.1,0.4,0.2,0.6c0.1,0.2,0.2,0.4,0.4,0.5
		C146.3,49.4,146.5,49.6,146.6,49.7z"/>
	<path class="st0" d="M149.7,50.1C149.7,50.1,149.7,50.1,149.7,50.1l0,0.5c0,0,0,0,0,0h-1.2c0,0,0,0,0,0v-0.4c0,0,0,0,0,0H149.7z"/>
	<path class="st0" d="M152.1,47.4c-0.1,0-0.2,0-0.3-0.1c-0.1-0.1-0.1-0.2-0.1-0.3c0-0.1,0-0.2,0.1-0.3c0.1-0.1,0.2-0.1,0.3-0.1
		c0.1,0,0.2,0,0.3,0.1c0.1,0.1,0.1,0.2,0.1,0.3c0,0.1,0,0.2-0.1,0.3C152.3,47.4,152.2,47.4,152.1,47.4z M152.7,46.5
		c-0.1,0-0.2,0-0.2-0.1c-0.1-0.1-0.1-0.1-0.1-0.3c0-0.1,0-0.2,0.1-0.3c0.1-0.1,0.1-0.1,0.2-0.1c0.1,0,0.2,0,0.2,0.1s0.1,0.1,0.1,0.3
		c0,0.1,0,0.2-0.1,0.3C152.8,46.5,152.8,46.5,152.7,46.5z M153.2,47.4c-0.1,0-0.2,0-0.3-0.1c-0.1-0.1-0.1-0.2-0.1-0.3
		c0-0.1,0-0.2,0.1-0.3c0.1-0.1,0.2-0.1,0.3-0.1c0.1,0,0.2,0,0.3,0.1c0.1,0.1,0.1,0.2,0.1,0.3c0,0.1,0,0.2-0.1,0.3
		C153.4,47.4,153.4,47.4,153.2,47.4z"/>
	<path class="st0" d="M153.9,50.6c-0.2,0-0.4,0-0.5-0.1c-0.2-0.1-0.3-0.2-0.5-0.4c-0.1,0.1-0.2,0.2-0.4,0.3s-0.3,0.1-0.6,0.1h-2.2
		c0,0,0,0,0,0v-0.4c0,0,0,0,0,0h0.9V48h0.6v2.1h0.7c0.2,0,0.4-0.1,0.5-0.2c0.1-0.1,0.2-0.3,0.2-0.5V48h0.6v1.4c0,0,0,0.1,0,0.1
		c0,0,0,0.1,0,0.1c0.1,0.2,0.2,0.3,0.4,0.4c0.1,0.1,0.3,0.1,0.5,0.1h0.4v-2.6h0.6v2.6h0.9c0,0,0,0,0,0v0.4c0,0,0,0,0,0H153.9z"/>
	<path class="st0" d="M156.2,46.7c-0.1,0-0.2,0-0.3-0.1c-0.1-0.1-0.1-0.2-0.1-0.3c0-0.1,0-0.2,0.1-0.3c0.1-0.1,0.2-0.1,0.3-0.1
		c0.1,0,0.2,0,0.3,0.1s0.1,0.2,0.1,0.3c0,0.1,0,0.2-0.1,0.3S156.3,46.7,156.2,46.7z M157.4,46.7c-0.1,0-0.2,0-0.3-0.1
		s-0.1-0.2-0.1-0.3c0-0.1,0-0.2,0.1-0.3s0.2-0.1,0.3-0.1c0.1,0,0.2,0,0.3,0.1c0.1,0.1,0.1,0.2,0.1,0.3c0,0.1,0,0.2-0.1,0.3
		C157.6,46.7,157.5,46.7,157.4,46.7z"/>
	<path class="st0" d="M155.6,50.6C155.6,50.6,155.6,50.6,155.6,50.6l0-0.5c0,0,0,0,0,0h1.1v-2.6h0.6v2.6h1c0,0,0,0,0,0v0.4
		c0,0,0,0,0,0H155.6z"/>
	<path class="st0" d="M158.2,50.6C158.2,50.6,158.2,50.6,158.2,50.6l0-0.5c0,0,0,0,0,0h0.9v-4.4h0.6v4.9H158.2z"/>
	<path class="st0" d="M160.9,45.7h0.6v4.9h-0.6V45.7z"/>
</g>
<g>
	<path class="st0" d="M11.4,47.7c0,1.1-0.6,2.1-1.9,2.1c-1.2,0-1.8-0.9-1.8-2c0-1.1,0.7-2,1.9-2C10.7,45.7,11.4,46.5,11.4,47.7z
		 M8.2,47.7c0,0.9,0.4,1.6,1.3,1.6c0.9,0,1.3-0.8,1.3-1.6c0-0.9-0.4-1.6-1.3-1.6C8.6,46.2,8.2,46.9,8.2,47.7z"/>
	<path class="st0" d="M12.2,45.8h1.5c0.8,0,1.3,0.4,1.3,1.2c0,0.8-0.6,1.2-1.3,1.2h-0.9v1.6h-0.5V45.8z M12.7,47.7h0.9
		c0.5,0,0.8-0.3,0.8-0.7c0-0.5-0.3-0.7-0.8-0.7h-0.9V47.7z"/>
	<path class="st0" d="M18.3,47.9h-2v1.4h2.2l-0.1,0.4h-2.6v-4h2.6v0.4h-2.1v1.2h2V47.9z"/>
	<path class="st0" d="M19.7,48v1.7h-0.5v-4h1.5c0.8,0,1.2,0.4,1.2,1.1c0,0.5-0.3,0.8-0.7,0.9c0.3,0.1,0.6,0.3,0.6,1v0.2
		c0,0.3,0,0.6,0.1,0.8h-0.5c-0.1-0.2-0.1-0.5-0.1-0.9v-0.1c0-0.6-0.2-0.8-0.9-0.8H19.7z M19.7,47.5h0.9c0.6,0,0.9-0.2,0.9-0.7
		c0-0.4-0.3-0.7-0.8-0.7h-0.9V47.5z"/>
	<path class="st0" d="M23.4,48.5l-0.4,1.2h-0.5l1.4-4h0.6l1.5,4h-0.6l-0.4-1.2H23.4z M24.8,48.1c-0.4-1-0.6-1.6-0.7-1.9h0
		c-0.1,0.3-0.3,1-0.6,1.9H24.8z"/>
	<path class="st0" d="M27.4,46.2h-1.3v-0.4h3.1v0.4h-1.3v3.5h-0.5V46.2z"/>
	<path class="st0" d="M30.3,45.8v4h-0.5v-4H30.3z"/>
	<path class="st0" d="M34.8,47.7c0,1.1-0.6,2.1-1.9,2.1c-1.2,0-1.8-0.9-1.8-2c0-1.1,0.7-2,1.9-2C34.1,45.7,34.8,46.5,34.8,47.7z
		 M31.6,47.7c0,0.9,0.4,1.6,1.3,1.6c0.9,0,1.3-0.8,1.3-1.6c0-0.9-0.4-1.6-1.3-1.6C32,46.2,31.6,46.9,31.6,47.7z"/>
	<path class="st0" d="M35.6,49.7v-4h0.7c0.6,0.9,1.8,2.9,2,3.3h0c0-0.5,0-1.1,0-1.8v-1.5h0.5v4h-0.7c-0.5-0.9-1.8-3-2.1-3.4h0
		c0,0.5,0,1.1,0,1.8v1.6H35.6z"/>
	<path class="st0" d="M44.7,47.2l-1,1.5c-0.5,0.7-0.8,1.1-1.5,1.1c-0.7,0-1.1-0.5-1.1-1c0-0.5,0.3-0.9,1.1-1.3
		c0.5-0.3,0.8-0.5,0.8-0.8c0-0.3-0.2-0.5-0.5-0.5c-0.3,0-0.5,0.2-0.5,0.6c0,0.2,0.2,0.5,0.5,0.7l2.4,2.3h-0.7l-2.1-2.1
		c-0.3-0.3-0.5-0.6-0.5-1c0-0.5,0.4-1,1-1c0.6,0,1,0.4,1,0.9c0,0.4-0.3,0.7-1,1.1c-0.7,0.4-0.8,0.6-0.8,1c0,0.3,0.3,0.7,0.6,0.7
		c0.4,0,0.7-0.2,1.2-0.9l0.8-1.2H44.7z"/>
	<path class="st0" d="M50.3,48c0-0.7,0-1.5,0-1.9h0c-0.2,0.6-0.8,2.3-1.3,3.6h-0.5c-0.3-1-1-2.9-1.2-3.6h0c0,0.5,0,1.3,0,2v1.6h-0.5
		v-4h0.8c0.4,1.2,1,2.8,1.1,3.3h0c0.1-0.4,0.7-2.1,1.2-3.3h0.8v4h-0.5V48z"/>
	<path class="st0" d="M52.4,48.5L52,49.7h-0.5l1.4-4h0.6l1.5,4h-0.6L54,48.5H52.4z M53.9,48.1c-0.4-1-0.6-1.6-0.7-1.9h0
		c-0.1,0.3-0.3,1-0.6,1.9H53.9z"/>
	<path class="st0" d="M56.2,45.8v4h-0.5v-4H56.2z"/>
	<path class="st0" d="M57.2,49.7v-4h0.7c0.6,0.9,1.8,2.9,2,3.3h0c0-0.5,0-1.1,0-1.8v-1.5h0.5v4h-0.7c-0.5-0.9-1.8-3-2.1-3.4h0
		c0,0.5,0,1.1,0,1.8v1.6H57.2z"/>
	<path class="st0" d="M62.2,46.2H61v-0.4H64v0.4h-1.3v3.5h-0.5V46.2z"/>
	<path class="st0" d="M67.1,47.9h-2v1.4h2.2l-0.1,0.4h-2.6v-4h2.6v0.4h-2.1v1.2h2V47.9z"/>
	<path class="st0" d="M68,49.7v-4h0.7c0.6,0.9,1.8,2.9,2,3.3h0c0-0.5,0-1.1,0-1.8v-1.5h0.5v4h-0.7c-0.5-0.9-1.8-3-2.1-3.4h0
		c0,0.5,0,1.1,0,1.8v1.6H68z"/>
	<path class="st0" d="M72.8,48.5l-0.4,1.2h-0.5l1.4-4h0.6l1.5,4h-0.6l-0.4-1.2H72.8z M74.2,48.1c-0.4-1-0.6-1.6-0.7-1.9h0
		c-0.1,0.3-0.3,1-0.6,1.9H74.2z"/>
	<path class="st0" d="M76,49.7v-4h0.7c0.6,0.9,1.8,2.9,2,3.3h0c0-0.5,0-1.1,0-1.8v-1.5h0.5v4h-0.7c-0.5-0.9-1.8-3-2.1-3.4h0
		c0,0.5,0,1.1,0,1.8v1.6H76z"/>
	<path class="st0" d="M83.4,48.6c-0.2,0.7-0.7,1.2-1.6,1.2c-1.2,0-1.8-0.9-1.8-2c0-1.1,0.6-2,1.8-2c0.9,0,1.4,0.5,1.6,1.2h-0.5
		c-0.1-0.4-0.4-0.8-1.1-0.8c-0.9,0-1.2,0.8-1.2,1.6c0,0.8,0.3,1.6,1.3,1.6c0.6,0,0.9-0.4,1-0.7H83.4z"/>
	<path class="st0" d="M86.6,47.9h-2v1.4h2.2l-0.1,0.4h-2.6v-4h2.6v0.4h-2.1v1.2h2V47.9z"/>
</g>
<rect x="7.2" y="42.3" width="155" height="0.9"/>
<g>
	<path class="st0" d="M10.4,28.2c0-1-0.9-1.3-1.6-1.3c-0.6,0-1.5,0.1-1.5,1.2c0,0.6,0.4,0.7,0.8,0.8l1.9,0.4
		c0.9,0.2,1.5,0.7,1.5,1.8c0,1.6-1.5,2-2.6,2c-1.2,0-1.7-0.4-2-0.6c-0.6-0.5-0.7-1.1-0.7-1.7H7c0,1.2,1,1.6,1.8,1.6
		c0.7,0,1.7-0.2,1.7-1.1c0-0.7-0.3-0.9-1.4-1.2l-1.4-0.3c-0.4-0.1-1.4-0.4-1.4-1.6c0-1,0.7-2.1,2.3-2.1c2.3,0,2.6,1.4,2.6,2.1
		L10.4,28.2L10.4,28.2z"/>
	<path class="st0" d="M16.3,30.9l0.7,1.9h1l-2.4-6.7h-1L12,32.9h0.9l0.7-1.9H16.3L16.3,30.9z M13.9,30.1l1.1-2.9h0l1,2.9H13.9
		L13.9,30.1z"/>
	<path class="st0" d="M24,26.2v4.3c0,1.4-0.9,2.5-2.7,2.5c-1.8,0-2.6-1.2-2.6-2.4v-4.4h0.9v4.2c0,1.4,0.9,1.8,1.7,1.8
		c0.8,0,1.8-0.4,1.8-1.8v-4.2L24,26.2L24,26.2z"/>
	<path class="st0" d="M25.5,32.9h2.7c2.2,0,2.8-1.9,2.8-3.4c0-1.9-1.1-3.2-2.8-3.2h-2.7L25.5,32.9L25.5,32.9z M26.4,27h1.7
		c1.2,0,2,0.8,2,2.5c0,1.7-0.8,2.6-1.9,2.6h-1.7L26.4,27L26.4,27z"/>
	<polygon class="st0" points="33.2,32.9 32.3,32.9 32.3,26.2 33.2,26.2 	"/>
	<path class="st0" d="M38.2,29.8H40c0.7,0,1.6,0.2,1.6,1.1c0,0.7-0.5,1.2-1.4,1.2h-1.9V29.8L38.2,29.8z M37.3,32.9h2.9
		c1.5,0,2.3-0.9,2.3-2c0-1.1-0.8-1.4-1.2-1.6c0.7-0.3,0.9-1,0.9-1.4c0-0.9-0.6-1.7-1.9-1.7h-2.9L37.3,32.9L37.3,32.9z M38.2,27h1.6
		c1,0,1.4,0.4,1.4,1c0,0.8-0.5,1.1-1.4,1.1h-1.6V27L38.2,27z"/>
	<polygon class="st0" points="44.5,32.9 43.6,32.9 43.6,26.2 44.5,26.2 	"/>
	<polygon class="st0" points="50.5,26.2 51.4,26.2 51.4,32.9 50.3,32.9 47,27.5 46.9,27.5 46.9,32.9 46.1,32.9 46.1,26.2 47.1,26.2 
		50.5,31.6 50.5,31.6 	"/>
	<polygon class="st0" points="53.7,32.1 57,32.1 57,32.9 52.8,32.9 52.8,26.2 53.7,26.2 	"/>
	<path class="st0" d="M61.7,30.9l0.7,1.9h1l-2.4-6.7h-1l-2.5,6.7h0.9l0.7-1.9H61.7L61.7,30.9z M59.3,30.1l1.1-2.9h0l1,2.9H59.3
		L59.3,30.1z"/>
	<path class="st0" d="M64.2,32.9h2.7c2.2,0,2.8-1.9,2.8-3.4c0-1.9-1.1-3.2-2.8-3.2h-2.7L64.2,32.9L64.2,32.9z M65.1,27h1.7
		c1.2,0,2,0.8,2,2.5c0,1.7-0.8,2.6-1.9,2.6H65L65.1,27L65.1,27z"/>
	<polygon class="st0" points="71.8,32.9 70.9,32.9 70.9,26.2 71.8,26.2 	"/>
	<polygon class="st0" points="77.8,26.2 78.7,26.2 78.7,32.9 77.7,32.9 74.3,27.5 74.3,27.5 74.3,32.9 73.4,32.9 73.4,26.2 
		74.4,26.2 77.8,31.6 77.8,31.6 	"/>
	<path class="st0" d="M85.6,29.3h2.9v3.6h-0.6L87.7,32c-0.4,0.6-1.3,1-2.2,1c-1.1,0-1.7-0.4-2-0.7c-1-1-1-2.1-1-2.8
		c0-1.6,1-3.4,3.2-3.4c1.2,0,2.6,0.7,2.8,2.2h-0.9c-0.3-1.2-1.3-1.4-2-1.4c-1.2,0-2.2,1-2.2,2.7c0,1.3,0.4,2.7,2.2,2.7
		c0.3,0,0.9,0,1.4-0.4c0.6-0.5,0.7-1.1,0.7-1.8h-2.1L85.6,29.3L85.6,29.3z"/>
	<path class="st0" d="M90.9,30h2.2c1.1,0,1.2,0.6,1.2,1.2c0,0.2,0,1.3,0.2,1.7h1.1v-0.1c-0.3-0.2-0.3-0.3-0.3-0.7l-0.1-1.2
		c0-0.9-0.4-1.1-0.8-1.3c0.4-0.2,0.9-0.6,0.9-1.6c0-1.4-1.1-1.8-2.2-1.8H90v6.7h0.9V30L90.9,30z M90.9,27h2.2c0.4,0,1.2,0.1,1.2,1.1
		c0,1-0.7,1.1-1.3,1.1h-2.1V27L90.9,27z"/>
	<path class="st0" d="M102.7,29.5c0-1.4-0.8-3.5-3.2-3.5c-2.5,0-3.2,2.1-3.2,3.5c0,1.4,0.8,3.5,3.2,3.5
		C101.9,33,102.7,31,102.7,29.5L102.7,29.5z M101.8,29.5c0,1.6-0.9,2.7-2.3,2.7s-2.3-1.1-2.3-2.7s0.9-2.7,2.3-2.7
		S101.8,28,101.8,29.5L101.8,29.5z"/>
	<path class="st0" d="M109,26.2v4.3c0,1.4-0.8,2.5-2.7,2.5c-1.8,0-2.6-1.2-2.6-2.4v-4.4h0.9v4.2c0,1.4,0.9,1.8,1.7,1.8
		c0.8,0,1.8-0.4,1.8-1.8v-4.2L109,26.2L109,26.2z"/>
	<path class="st0" d="M111.5,30.1h2.1c1.4,0,2-1,2-2c0-1.1-0.7-1.9-2-1.9h-3v6.7h0.9V30.1L111.5,30.1z M111.5,27h1.8
		c0.7,0,1.3,0.3,1.3,1.1c0,0.9-0.5,1.2-1.3,1.2h-1.8L111.5,27L111.5,27z"/>
	<path class="st0" d="M58.8,19.4c-0.6,0-2.9,0-2.9,0l-0.6,1H60v-2.6c0-1.5-1.2-1.6-1.2-1.6s-0.6,0-1.3,0c-0.7,0-0.9-0.3-0.9-0.3
		L56,17.3h2.3c0,0,0.5,0,0.5,0.9L58.8,19.4L58.8,19.4z"/>
	<path class="st0" d="M83,17.3c-0.7,0-0.7,0.9-0.7,0.9v1.2h1.4v-2.1C83.7,17.3,83.7,17.3,83,17.3L83,17.3z M86.5,19.4
		c0,0-0.5,0-0.5-1.5s1.2-1.6,1.2-1.6s0.9,0,1.6,0s0.9-0.3,0.9-0.3l0.6,1.3H88c0,0-0.8,0-0.8,0.9s0.3,1.2,0.9,1.2c0.6,0,2.2,0,2.2,0
		l0.6,1h-9.8v-1.8c0,0-0.2-2.4,1.8-2.4c2,0,2,0,2,0v3.1L86.5,19.4L86.5,19.4z"/>
	<path class="st0" d="M19.3,18.2c0-0.9-0.5-0.9-0.5-0.9h-2.3l0.6-1.3c0,0,0.3,0.3,0.9,0.3c0.7,0,1.3,0,1.3,0s1.2,0.1,1.2,1.6v2.6
		h-4.6l0.6-1c0,0,2.2,0,2.9,0L19.3,18.2L19.3,18.2z"/>
	<path class="st0" d="M8.9,17.3c-0.7,0-0.7,0.9-0.7,0.9v1.2h1.4v-2.1C9.6,17.3,9.6,17.3,8.9,17.3L8.9,17.3z M7,20.4v-1.8
		c0,0-0.2-2.4,1.8-2.4s2,0,2,0v3.1h3v-3.1H15v4.2L7,20.4L7,20.4z"/>
	<path class="st0" d="M24.2,19.4h-1.4v-1.3c0,0-0.2-0.8,1.4-0.8V19.4L24.2,19.4z M40.2,15.2v4.2h-1.3v-3.1l-1.2,0.5v2.6h-1.2v-2.6
		l-1.2,0.5v2.1h-1.3v-2.5l-1.2,0.5v2h-3.5c-0.6,0-0.9-0.2-0.9-1.2c0-0.9,0.8-0.9,0.8-0.9h2.3l-0.6-1.3c0,0-0.3,0.3-0.9,0.3
		c-0.7,0-1.6,0-1.6,0s-1.2,0.1-1.2,1.6c0,1.5,0.5,1.5,0.5,1.5h-2.2v-3.1h-2.6c0,0-1.2-0.1-1.2,1.4c0,1.5,0,2.8,0,2.8h2.6v1.1
		c0,0,0.1,0.9-0.8,1.3c1.8,0.1,2-1.2,2-1.2v-1.2h15.3c0,0,0.7,0,0.7-0.5s0-4.7,0-4.7L40.2,15.2L40.2,15.2z"/>
	<path class="st0" d="M113.7,19.4h-1.3c-0.6-0.1-1.1-0.4-1.1-1.1c0-1,0.7-1,0.7-1h1.6L113.7,19.4L113.7,19.4z M101.2,20.1
		c-0.6,0-1-0.5-1-1c0-0.6,0.5-1,1-1c0.6,0,1,0.5,1,1C102.2,19.7,101.8,20.1,101.2,20.1L101.2,20.1z M95.2,19.4h-1.4v-1.3
		c0,0-0.2-0.8,1.4-0.8V19.4L95.2,19.4z M114.9,19.4v-3.1h-3.1c0,0-1.8,0-1.8,1.6c0,0-0.1,1.4,0.7,1.6h-1.9c0.4-0.1,0.6-0.8,0.5-1.4
		c0-1-1.2-1.2-1.2-1.2s-2,0.1-2.3,0c-0.3-0.1-0.3-0.2-0.3-0.2l-0.5,1h2.4c0,0,0.8-0.1,0.8,0.9c0,0.4,0.1,0.8-0.9,0.8h-4
		c0-0.1,0-0.2,0-0.3c0-1.2-0.9-2.1-2.1-2.1s-2.1,0.9-2.1,2.1c0,0.1,0,0.2,0,0.3h-2.8v-3.1h-2.6c0,0-1.2-0.1-1.2,1.4
		c0,1.5,0,2.8,0,2.8h2.6v1.1c0,0,0.1,0.9-0.8,1.3c1.8,0.1,2-1.2,2-1.2v-1.2h3.2c0.4,0.5,1,0.8,1.6,0.8c0.7,0,1.2-0.3,1.6-0.8h11.3
		C115.2,20.4,114.9,19.4,114.9,19.4L114.9,19.4z"/>
	<path class="st0" d="M68.4,16.2l-1.2,0.4v3.1c0,0,0.1,0.6,1.2,0.6c1.1,0,6.7,0,6.7,0s0.9-0.1,0.9-0.9s0-1.1,0-1.1h2.2
		c0,0,0.8,0,0.8-0.7c0-0.8,0-0.8,0-0.8l-1.2-0.7v1.3H76v-1.3l-1.2,0.4v2.7h-6.4L68.4,16.2L68.4,16.2z"/>
	<path class="st0" d="M53.9,16.2l-1.2,0.4v2.7h-6.4v-3.1l-1.2,0.4v3.1c0,0,0.1,0.6,1.2,0.6c1.1,0,6.7,0,6.7,0s0.9-0.1,0.9-0.9
		L53.9,16.2L53.9,16.2z"/>
	<path class="st0" d="M63,19.4l-0.4,0.4h0.8L63,19.4 M61.7,20.4l-0.2-0.8l0.7-0.4l-0.9-1v-3.6l1,0.8v2.9l0.6,0.6l0.6-0.6v-2.9l1-0.8
		v3.6l-0.9,1l0.7,0.4l-0.2,0.9H61.7L61.7,20.4z"/>
	<polygon class="st0" points="42.6,15.1 43.8,15.2 43.8,20.4 42.6,20.4 	"/>
	<path class="st0" d="M7.5,15.5c0.4,0,0.6-0.3,0.6-0.6c0-0.4-0.3-0.6-0.6-0.6c-0.4,0-0.6,0.3-0.6,0.6C6.9,15.2,7.2,15.5,7.5,15.5
		L7.5,15.5z"/>
	<path class="st0" d="M9.3,15.5c0.4,0,0.6-0.3,0.6-0.6c0-0.4-0.3-0.6-0.6-0.6s-0.6,0.3-0.6,0.6C8.7,15.2,8.9,15.5,9.3,15.5L9.3,15.5
		z"/>
	<path class="st0" d="M81.9,15.5c0.4,0,0.6-0.3,0.6-0.6c0-0.4-0.3-0.6-0.6-0.6c-0.4,0-0.6,0.3-0.6,0.6
		C81.3,15.2,81.6,15.5,81.9,15.5L81.9,15.5z"/>
	<path class="st0" d="M83.7,15.5c0.4,0,0.6-0.3,0.6-0.6c0-0.4-0.3-0.6-0.6-0.6c-0.4,0-0.6,0.3-0.6,0.6
		C83.1,15.2,83.3,15.5,83.7,15.5L83.7,15.5z"/>
	<path class="st0" d="M12.1,22.5c0.4,0,0.6-0.3,0.6-0.6c0-0.4-0.3-0.6-0.6-0.6c-0.4,0-0.6,0.3-0.6,0.6
		C11.5,22.2,11.8,22.5,12.1,22.5L12.1,22.5z"/>
	<path class="st0" d="M13.9,22.5c0.4,0,0.6-0.3,0.6-0.6c0-0.4-0.3-0.6-0.6-0.6c-0.4,0-0.6,0.3-0.6,0.6
		C13.2,22.2,13.5,22.5,13.9,22.5L13.9,22.5z"/>
	<path class="st0" d="M49.3,15.5c0.4,0,0.6-0.3,0.6-0.6c0-0.4-0.3-0.6-0.6-0.6s-0.6,0.3-0.6,0.6C48.7,15.2,49,15.5,49.3,15.5
		L49.3,15.5z"/>
	<path class="st0" d="M71.5,17.3c0.4,0,0.6-0.3,0.6-0.6c0-0.4-0.3-0.6-0.6-0.6c-0.4,0-0.6,0.3-0.6,0.6C70.9,17,71.2,17.3,71.5,17.3
		L71.5,17.3z"/>
	<path class="st0" d="M77.7,20.4c0.4,0,0.6-0.3,0.6-0.6c0-0.4-0.3-0.6-0.6-0.6s-0.6,0.3-0.6,0.6C77.1,20.1,77.3,20.4,77.7,20.4
		L77.7,20.4z"/>
	<path class="st0" d="M107.2,22.3c0.4,0,0.6-0.3,0.6-0.6c0-0.4-0.3-0.6-0.6-0.6s-0.6,0.3-0.6,0.6S106.9,22.3,107.2,22.3L107.2,22.3z
		"/>
</g>
<g>
	<path class="st0" d="M153.9,27l8.9-8.9l-11.2-8v6.2l-0.5,0.5h-22l-0.5-0.5V10l-11.2,8l8.9,8.9L153.9,27L153.9,27z M126.2,27.5
		l-9.6-9.6L129.1,9v7.2h22V9l12.5,8.9l-9.6,9.6H126.2L126.2,27.5z"/>
	<polygon class="st0" points="151.8,18.6 153.4,17 153.4,12.3 152.3,11.5 152.3,16.9 151.6,17.6 128.7,17.6 128,16.9 128,11.5 
		126.9,12.3 126.9,17 128.4,18.6 	"/>
	<polygon class="st0" points="152.3,20.5 155.4,17.4 155.4,13.8 154.4,13 154.4,17.2 152.1,19.5 128.2,19.5 125.9,17.2 125.9,13 
		124.8,13.8 124.8,17.4 128,20.5 	"/>
	<polygon class="st0" points="152.8,22.4 157.5,17.7 157.5,15.2 156.5,14.5 156.5,17.5 152.5,21.4 127.7,21.4 123.8,17.5 
		123.8,14.5 122.7,15.2 122.7,17.7 127.5,22.4 	"/>
	<polygon class="st0" points="153.2,24.4 159.6,18 159.6,16.7 158.5,16 158.5,17.8 153,23.3 127.3,23.3 121.7,17.8 121.7,16 
		120.7,16.7 120.7,18 127,24.4 	"/>
	<polygon class="st0" points="153.7,26.3 161.7,18.3 160.6,17.4 160.6,18.1 153.5,25.3 126.8,25.3 119.7,18.1 119.7,17.4 
		118.5,18.3 126.5,26.3 	"/>
	<path class="st0" d="M129.9,30.5l10.2,10.2l10.2-10.2H129.9L129.9,30.5z M151.6,30l-11.4,11.4L128.7,30H151.6L151.6,30z"/>
	<polygon class="st0" points="140.1,40 149,31.1 147.8,31.1 140.1,38.8 132.4,31.1 131.2,31.1 	"/>
	<polygon class="st0" points="140.1,37.9 146.9,31.1 145.7,31.1 140.1,36.7 134.5,31.1 133.3,31.1 	"/>
	<polygon class="st0" points="140.1,35.9 144.9,31.1 143.7,31.1 140.1,34.7 136.5,31.1 135.4,31.1 	"/>
	<polygon class="st0" points="140.1,33.9 142.9,31.1 141.7,31.1 140.1,32.7 138.5,31.1 137.4,31.1 	"/>
	<polygon class="st0" points="140.1,32 141,31.1 140.4,31.1 140.1,31.3 139.9,31.1 139.2,31.1 	"/>
</g>
</svg>
