<?xml version="1.0" encoding="utf-8"?>
<!-- Generator: Adobe Illustrator 24.3.0, SVG Export Plug-In . SVG Version: 6.00 Build 0)  -->
<svg version="1.1" id="Layer_1" xmlns="http://www.w3.org/2000/svg" xmlns:xlink="http://www.w3.org/1999/xlink" x="0px" y="0px"
	 viewBox="0 0 164 68" style="enable-background:new 0 0 164 68;" xml:space="preserve">
<style type="text/css">
	.st0{fill:none;}
	.st1{fill:#1E1F1C;}
	.st2{fill:#020203;}
	.st3{fill:#040404;}
	.st4{fill:#0C0809;}
	.st5{fill:#211E1F;}
	.st6{fill:#FCFEFF;}
	.st7{fill:#000102;}
	.st8{fill:none;stroke:#F9F9F9;stroke-width:0.25;stroke-miterlimit:10;}
	.st9{fill:#262626;}
	.st10{fill:#000002;}
</style>
<g>
	<path d="M99.1,9.8c-6-4.1-13.9-6.4-22.3-6.4S60.5,5.7,54.6,9.8c-6,4.1-9.3,9.6-9.3,15.5s3.3,11.4,9.3,15.5c6,4.1,13.9,6.4,22.3,6.4
		s16.3-2.3,22.3-6.4c6-4.1,9.3-9.6,9.3-15.5S105.1,14,99.1,9.8z M99.8,11.3c-1.5,0.6-3,1.1-4.6,1.6c-1.6-2.3-3.6-4.2-5.9-5.7
		c0.5-0.3,0.9-0.5,1.3-0.7C94.2,7.7,97.3,9.3,99.8,11.3z M76.5,4.3v5.4c-2.4,0-4.6-0.4-6.5-1c0.5-0.8,1.1-1.5,1.8-2.2
		c1.4-1.2,3-2,4.6-2.3C76.4,4.3,76.5,4.3,76.5,4.3z M77.7,4.3c0.4,0,0.7,0,1.1,0c2.2,0.4,4.2,2,5.6,4.4c-1.9,0.6-4.2,1-6.6,1
		c0,0,0,0,0,0V4.3z M81.1,4.6c2.5,0.5,4.8,1.4,6.9,2.6c-1,0.5-2,0.9-3.2,1.3C83.9,6.8,82.6,5.4,81.1,4.6z M85,5
		c1.7,0.3,3.3,0.7,4.9,1.2c-0.4,0.2-0.7,0.4-1.1,0.6C87.6,6.1,86.3,5.5,85,5z M73.7,4.5c-0.8,0.4-1.6,1-2.3,1.6
		c-0.8,0.7-1.5,1.5-2,2.4c-1.2-0.4-2.3-0.8-3.2-1.3C68.4,5.9,71,4.9,73.7,4.5z M65.4,6.9c-0.5-0.3-1-0.5-1.4-0.8
		c1.9-0.6,3.8-1,5.9-1.4C68.3,5.3,66.8,6.1,65.4,6.9z M69,9.1c-0.9,1.7-1.4,3.7-1.3,5.7c-2.7-0.5-5.3-1.1-7.9-1.9
		c1.6-2.1,3.5-3.8,5.6-5.2C66.5,8.1,67.7,8.6,69,9.1z M69.7,9.3c2,0.6,4.3,1,6.9,1.1v5.3c0,0-0.1,0-0.1,0c-2.7-0.1-5.4-0.3-8-0.7
		l0.1,0C68.3,12.9,68.7,10.9,69.7,9.3z M77.7,10.3C77.7,10.3,77.7,10.3,77.7,10.3c2.6-0.1,4.9-0.5,6.9-1.1c0.8,1.7,1.2,3.7,1,5.9
		c-2.6,0.4-5.3,0.5-7.9,0.5V10.3z M85.2,9c1.3-0.4,2.5-0.9,3.5-1.5C91,9,93,10.9,94.6,13.1c-2.8,0.8-5.6,1.4-8.4,1.8
		C86.4,12.8,86,10.8,85.2,9z M63.2,6.4c0.5,0.3,1,0.6,1.6,0.9c-2.1,1.4-4,3.2-5.6,5.3c-1.6-0.5-3.2-1.1-4.8-1.8
		C57,9,59.9,7.5,63.2,6.4z M53.5,39.1c1.6-0.7,3.4-1.4,5.5-2.1c1.6,2.4,3.6,4.5,5.8,6.1c-0.6,0.3-1.1,0.7-1.6,1l0.2,0.2
		C59.6,43,56.2,41.2,53.5,39.1z M77.7,40.3c2.4,0.1,4.5,0.5,6.4,1.1c-1.8,2.5-4,4.1-6.4,4.5V40.3z M76.5,45.9c-0.2,0-0.5,0-0.7-0.1
		c-2.3-0.4-4.4-2-5.9-4.4c1.9-0.6,4.1-1,6.5-1.1c0,0,0,0,0.1,0V45.9z M69.5,41.9c1.5,2.3,3.5,3.9,5.5,4.5c-3.2-0.3-6.3-1.4-9-3.2
		c1-0.5,2.1-1,3.3-1.5C69.4,41.7,69.4,41.8,69.5,41.9z M70.2,45.9c-2.2-0.3-4.4-0.8-6.4-1.5c0.5-0.3,1-0.6,1.6-1
		C66.9,44.5,68.5,45.3,70.2,45.9z M78.6,46.4c-0.1,0-0.2,0-0.3,0c2.3-0.5,4.6-2.3,6.3-4.8C85.9,42,87,42.5,88,43
		C85.2,44.9,82,46.1,78.6,46.4z M88.7,43.4c0.6,0.3,1.1,0.6,1.6,0.9c-2,0.7-4.2,1.2-6.4,1.5C85.5,45.2,87.2,44.4,88.7,43.4z M85,41
		c1.1-1.6,2-3.6,2.6-5.7c2.2,0.5,4.3,1.1,6.5,1.8c-1.5,2.2-3.4,4-5.4,5.5C87.6,42.1,86.4,41.5,85,41z M84.4,40.8
		c-2-0.6-4.2-1.1-6.7-1.2v-5.6c3.1,0.1,6.2,0.4,9.3,1C86.3,37.3,85.5,39.2,84.4,40.8z M76.5,39.7C76.5,39.7,76.5,39.7,76.5,39.7
		c-2.6,0.1-4.9,0.5-6.9,1.2c-1-1.7-1.7-3.8-2.1-6c2.8-0.5,5.8-0.7,9-0.7V39.7z M69,41.1c-1.3,0.5-2.5,1-3.6,1.6
		c-2.2-1.6-4.2-3.6-5.8-5.9c2.2-0.7,4.6-1.3,7.3-1.8C67.3,37.2,68,39.3,69,41.1z M91,44c-0.5-0.3-1.1-0.7-1.7-1.1
		c2.1-1.5,3.9-3.4,5.4-5.6c1.7,0.6,3.4,1.3,5,2.1C97.2,41.3,94.3,42.9,91,44z M100.3,39c-1.7-0.8-3.5-1.6-5.2-2.2
		c0.8-1.2,1.5-2.5,2.1-3.9l-0.6-0.3c-0.6,1.4-1.3,2.7-2.1,4c-2.2-0.8-4.4-1.4-6.7-1.9c0.2-0.7,0.3-1.4,0.5-2.1l-0.6-0.1
		c-0.1,0.7-0.3,1.4-0.4,2.1c-3.1-0.6-6.3-1-9.5-1.1v-1.3h-1.1v1.3c-3.2,0-6.3,0.3-9.1,0.7c-0.1-0.7-0.2-1.4-0.2-2.1l-0.6,0
		c0,0.7,0.1,1.5,0.2,2.2c-2.7,0.5-5.3,1.2-7.5,1.9c-0.6-1-1.2-2-1.7-3.1L57,33.4c0.5,1,1,2,1.6,3c-2.1,0.7-4,1.5-5.7,2.2
		C48.6,35,46,30.4,46,25.3c0-0.2,0-0.4,0-0.6H49v-1.1h-2.8c0.6-4.7,3.4-9,7.7-12.3c1.6,0.7,3.3,1.3,5,1.9c-0.7,1-1.4,2.1-1.9,3.3
		l0.6,0.3c0.6-1.2,1.2-2.3,2-3.4c5.5,1.7,11.1,2.7,16.9,2.8c0.4,0,0.9,0,1.3,0c5.8,0,11.7-0.9,17.3-2.6c0.6,0.8,1.1,1.7,1.5,2.6
		l0.6-0.3c-0.4-0.9-0.9-1.7-1.4-2.5c1.6-0.5,3.2-1.1,4.8-1.7c4,3.2,6.6,7.3,7.1,11.8h-2.7v1.1h2.8c0,0.2,0,0.4,0,0.6
		C107.6,30.5,104.9,35.3,100.3,39z"/>
	<g>
		<path d="M93,31.1c-14.1,0-28.2,0-42.3,0c-0.7-0.1-1.1-0.4-1.4-0.7c-1-1.1-0.6-3.7,1.2-6.2c1-1.5,2.8-3.5,5.5-5.2
			c0.7-0.4,1.5-0.8,2.1-1.1c0.6-0.2,1.2-0.4,1.8-0.4l5.2-0.1c-0.3,1.4-0.7,2.8-1,4.1l-3.7,0.1c-0.6,2.4-1.3,4.9-1.9,7.3
			c14.1,0,28.3,0,42.4,0c-0.2,0.7-0.5,1.3-0.7,2C97.8,31.1,95.4,31.1,93,31.1z"/>
		<path d="M77.3,17.3c-3.4,0-6.9-0.1-10.3-0.1c-0.1,0-0.3,0.1-0.3,0.2c-0.4,1.4-0.9,2.8-1.3,4.2c-0.6,2.1-1.3,4.1-1.9,6.2
			c1.3,0,2.7,0,4,0.1c0.3-1,0.7-2.2,1-3.2c0-0.1,0.1-0.2,0.3-0.2c0.2,0,0.3,0,0.4,0c0.1,0,0.2,0,0.2,0.1c0.7,1.1,1.3,2.2,2,3.3
			c1.3,0,2.5,0,3.8,0c-0.7-1.1-1.4-2.3-2.1-3.4c0.8,0,1.5,0,2.3,0c0.5,0,1-0.4,1.1-0.9c0.4-1.9,0.8-3.7,1.3-5.6
			C77.9,17.6,77.7,17.3,77.3,17.3z M74.4,19.7l-0.6,2.4c0,0.2-0.2,0.3-0.4,0.3l-3.4,0c-0.3,0-0.5-0.3-0.4-0.5l0.8-2.5
			c0-0.1,0.2-0.2,0.3-0.2l3.3,0C74.2,19.2,74.4,19.5,74.4,19.7z"/>
		<path d="M86.3,24c1,0,2.1,0,3.1,0c-0.4,1.1-0.7,2.3-1.1,3.4c-3.9,0-7.9,0-11.8,0c1.2-3.3,2.4-6.5,3.5-9.8c5.8,0,11.6,0,11.6,0
			c-0.4,1.2-0.7,2.3-1.1,3.5c-2.3,0-4.6,0-6.9,0c-0.3,1-0.6,1.9-0.8,2.9C84,24,85.1,24,86.3,24z"/>
		<path d="M98.8,24c1,0,2.1,0,3.1,0c-0.4,1.1-0.7,2.3-1.1,3.4c-3.9,0-7.9,0-11.8,0c1.2-3.3,2.4-6.5,3.5-9.8c5.8,0,11.6,0,11.6,0
			c-0.4,1.2-0.7,2.3-1.1,3.5c-2.3,0-4.6,0-6.9,0c-0.3,1-0.6,1.9-0.8,2.9C96.5,24,97.7,24,98.8,24z"/>
	</g>
	<g>
		<path d="M84.5,66.5c-0.3-0.4-0.7-0.8-1.1-1.4c2.3-0.9,4.2-2.1,4.5-5c-1.2,0-2.3,0-3.6,0c0.1-0.8,0.3-1.3,0.4-2.1
			c-0.1-0.1-0.4-0.3-0.5-0.4c0.5-1.5,0.9-2.8,1.4-4.2c0.5,0.1,1.1,0.2,1.7,0.3c0,0.4-0.1,0.8-0.1,1.1c1,0.1,1,0.1,1-2.4
			c0.3,0,0.6,0,0.9,0c0.3,0,0.6,0.1,1,0.1c0,0.7,0,1.5,0,2.4c1,0,1.9,0,2.9,0c0,0.6,0.1,1,0.1,1.6c-1,0-1.9,0-2.9,0c0,0.7,0,1.3,0,2
			c1.2,0,2.4,0,3.7,0c0,0.6,0,1,0,1.5c-1.2,0-2.4,0-3.6,0c0.1,1.7,2.1,4.5,3.7,4.7c0.7,0.1,1.5-0.6,2.2-0.9
			c-0.7-1.4-1.3-2.7-1.8-3.8c2.1-1.1,2,0.9,2.9,1.8c0.1-1.1,0.1-1.9,0.2-2.8c-1,0-1.8,0-3.1,0c0.9-1.5,1.6-2.7,2.4-4.1
			c-0.8,0-1.4,0-2.2,0c0-0.5-0.1-1-0.1-1.6c1.5,0,2.9,0,4.3,0.1c0.2,0,0.5,0.9,0.3,1.2c-0.4,0.9-1,1.8-1.6,2.8
			c0.7,0.1,1.2,0.1,1.9,0.2c-0.2,1.9-0.3,3.8-0.5,5.9c3.6,1.7,7.6,1,11.7,0.9c-0.1,0.6-0.2,1.1-0.4,1.7c-4.2,0.1-8.4,0.6-12.5-1.3
			c-0.6,0.4-1.3,0.9-2,1.4c-0.5-0.4-0.9-0.8-1.4-1.2c-0.4,0.4-0.8,0.8-1.4,1.3c-1.2-1.1-2.4-2.2-3.5-3.2c-1.5,1.1-3,2.2-4.6,3.3
			C84.6,66.5,84.6,66.5,84.5,66.5z M88.1,58.5c0-0.7,0-1.3,0-1.8c-1.7-0.6-1.9,0.7-2.5,1.8C86.5,58.5,87.2,58.5,88.1,58.5z"/>
		<path d="M44.8,61.4c0.1-1.4,0.1-2.9,0.2-4.3c0-0.5,0-1.1,0-1.7c2,0,3.9,0,5.9,0c0-0.9,0-1.7,0-2.6c0.9,0,1.6,0,2.4,0
			c0,0.8,0,1.6,0,2.5c2.1,0,4.1,0,6.2,0c0,2.2,0,4.3,0,6.5c-2-0.1-4-0.2-6.1-0.3c0,1.6,0,3.1,0,4.7c-0.9,0-1.6,0-2.4,0
			c0-1.5,0-3,0-4.5c-2.2,0-4.2,0-6.2,0C44.8,61.6,44.8,61.5,44.8,61.4z M53.4,59.7c1.4,0,2.6,0,3.9,0c0-0.9,0-1.7,0-2.4
			c-1.3,0-2.6,0-3.9,0C53.4,58.1,53.4,58.8,53.4,59.7z M51,57.2c-1.3,0-2.5,0-3.7,0c0,0.9,0,1.7,0,2.5c1.3,0,2.5,0,3.7,0
			C51,58.9,51,58.1,51,57.2z"/>
		<path d="M61.7,65.9c0-4.2,0-8.4,0-12.6c4.9,0,9.7,0,14.6,0c0,4.2,0,8.4,0,12.6C71.5,65.9,66.7,65.9,61.7,65.9z M74.2,54.8
			c-3.5,0-6.9,0-10.4,0c0,3.2,0,6.3,0,9.4c3.5,0,6.9,0,10.4,0C74.2,61.1,74.2,58.1,74.2,54.8z"/>
		<path d="M100,59.1c0-0.7,0-1.1,0-1.7c1.1,0,2.1,0,3.2,0c0-0.1,0-0.3,0-0.4c-1.2,0-2.4,0-3.7,0c-0.1-0.6-0.1-1-0.1-1.6
			c1.3,0,2.6,0,3.9,0c0-0.2,0-0.3,0-0.5c-1.1,0-2.1,0-3.2,0c0-0.6,0-1,0-1.4c0.3,0,0.5,0,0.8-0.1c0.9-0.2,2,0.5,2.8-0.6
			c0.2-0.2,1.2-0.3,1.4,0c1.1,1.2,2.4,0.5,3.6,0.7c0.2,0,0.3,0.1,0.6,0.1c0,0.6,0,1.2,0,1.7c0.1,0,0.2-0.1,0.2-0.1
			c0.3,0.4,0.8,0.7,0.8,1.1c0,0.3-0.5,0.7-1,1.2c0,0.3-0.1,0.8-0.1,1.6c-1.2,0-2.4,0-3.6,0c0,0.2,0,0.3,0,0.5
			c1.2,0.1,2.3,0.1,3.6,0.2c0,0.4,0,0.8,0,1.5c-1.2,0-2.4,0-3.6,0c0,0.1,0,0.3,0,0.4c1.4,0,2.9,0,4.4,0c0,0.6,0,1,0.1,1.3
			c-1.6,0.8-3.6-0.8-4.9,1.3c-0.6-0.1-1.7,0.6-1.8-1.1c-1.2,0-2.4,0-3.7,0c0-0.5,0-0.9,0-1.5c1.3,0,2.5,0,3.7,0c0-0.2,0-0.3,0-0.5
			c-1,0-2.1,0-3.2,0c0-0.6,0-1,0-1.6c1.1,0,2.1,0,3.1,0c0-0.1,0-0.3,0-0.4C102.2,59.1,101.2,59.1,100,59.1z"/>
		<path d="M80,66.3c0-1.8,0-3.2,0-4.8c-0.9,0-1.6,0-2.4,0c0-0.6,0-1,0-1.6c0.7,0,1.4,0,2.2,0c0.2-1.5,0.1-1.5-2-1.4
			c-0.2-0.5-0.5-0.9-0.5-1.1c0.9-1.7,1.7-3.2,2.5-4.8c0.4,0.1,1,0.2,1.7,0.4c-0.1,0.4-0.1,0.8-0.2,1.3c0.9,0,1.7,0.1,2.6,0.1
			c0,0.4,0,0.8,0.1,1.4c-0.9,0-1.7,0.1-2.6,0c-0.9-0.1-1.5,0.2-1.7,1.3c1.3,0,2.6,0,3.9,0c0,0.5,0,0.9,0,1.3
			C83,58.8,81.5,58,82,59.8c0.6,0,1.2,0.1,2,0.1c0,0.5,0,0.9,0.1,1.5c-0.7,0.1-1.4,0.1-2.1,0.2c0,0.7,0,1.3,0,2.1
			c0.8-0.3,1.4-0.5,2.1-0.8c0.4,1.1,0.2,1.7-0.9,2C82.2,65.1,81.4,65.6,80,66.3z"/>
		<path d="M64.4,55.7c3.1,0,6.2,0,9.3,0c0,0.5,0,0.9,0,1.4c-1.2,0-2.3,0-3.6,0c0,0.5-0.1,0.8-0.1,1.4c1.1,0,2.1,0,3.5,0
			c-0.3,0.8-0.5,1.3-0.7,1.9c-0.1-0.1-0.2-0.1-0.3-0.2c0.3,0.5,0.5,1,0.8,1.4c-0.1,0.1-0.2,0.2-0.3,0.3c0.3,0.1,0.7,0.1,1,0.2
			c0,0.4,0,0.8,0,1.3c-3.2,0-6.4,0-9.8,0c0-0.4,0-0.8-0.1-1.3c1.3,0,2.6,0,3.9,0c0-0.7,0-1.2,0-1.9c-1,0-1.9,0-3,0c0-0.5,0-1,0-1.5
			c1,0,1.9,0,3,0c0-0.5,0.1-0.8,0.1-1.4c-1.3,0-2.5,0-3.7,0C64.4,56.6,64.4,56.2,64.4,55.7z M71.5,61.9c-0.3-0.6-0.6-1.1-1-1.9
			c-0.9,0.2-0.3,1.1-0.3,1.9C70.6,61.9,71,61.9,71.5,61.9z"/>
	</g>
</g>
</svg>
