<?xml version="1.0" encoding="utf-8"?>
<!-- Generator: Adobe Illustrator 24.3.0, SVG Export Plug-In . SVG Version: 6.00 Build 0)  -->
<svg version="1.1" id="Layer_1" xmlns="http://www.w3.org/2000/svg" xmlns:xlink="http://www.w3.org/1999/xlink" x="0px" y="0px"
	 viewBox="0 0 164 68" style="enable-background:new 0 0 164 68;" xml:space="preserve">
<style type="text/css">
	.st0{fill:none;}
	.st1{fill:#1E1F1C;}
	.st2{fill:#020203;}
	.st3{fill:#080808;}
	.st4{fill:none;stroke:#020100;stroke-width:0.5;stroke-miterlimit:10;}
	.st5{fill:#1D1D1B;}
	.st6{fill:#020101;}
	.st7{fill:#FFFFFF;stroke:#000000;stroke-width:0.25;stroke-miterlimit:10;}
	.st8{fill:none;stroke:#000000;stroke-width:0.5;stroke-miterlimit:10;}
</style>
<g>
	<path d="M161.4,51.4c-8.7,0-17.5,0-26.2,0c-2-0.9-2.6-2.5-2.5-4.6c0.1-8,0-16.1,0-24.1c0-3.2,1.1-4.3,4.3-4.3
		c7.6,0,15.3,0,22.9,0.1c2.9,0,4,1.1,4,4.1c0,8.1-0.1,16.2,0,24.2C164,49,163.4,50.5,161.4,51.4z M137.4,23.7
		c-0.1,0.3-0.2,0.4-0.2,0.5c0,1.4-0.1,2.7-0.1,4.1c0,3.8,0,3.7,3.8,4c0.6,0,1.6,0.7,1.7,1.3c0.9,2.9,0,4-3,4.1c-0.3,0-0.6-0.1-0.8,0
		c-0.6,0.5-1.5,1-1.6,1.5c-0.2,2.3-0.1,4.6-0.1,7.1c2.4,0,4.6,0,6.8,0c1.8,0,2.3-0.5,2.4-2.3c0-1.5,0-3.1,0-4.6
		c0-1.3,0.3-2.2,1.9-2.2c1.6,0,2.1,0.7,2.1,2.2c0,1.6,0,3.3,0,4.9c0,1.1,0.5,2,1.8,2c2.1,0,4.3,0,6.4,0c0.9,0,1.2-0.3,1.1-1.2
		c0-1.4,0-2.8,0-4.3c0-2.8-0.3-3.1-3-3.1c-2.4,0-2.6-0.3-2.7-2.6c-0.1-2.5,0.2-2.8,2.8-2.8c0.4,0,0.8,0.1,1.1,0
		c0.6-0.3,1.6-0.8,1.6-1.2c0.1-2.8,0.1-5.6,0.1-8c-1.2,0.3-2.4,0.6-3.6,0.7c-1,0.1-2.1,0-3.1,0c-1.9,0-2.4,0.5-2.5,2.4
		c0,1.5,0,3.1,0,4.6c0,1.3-0.5,2-1.9,2c-1.5,0-2.1-0.7-2.1-2.1c0-1.6,0.2-3.2-0.1-4.7c-0.1-0.8-0.8-2-1.4-2
		C142.4,23.5,139.8,23.7,137.4,23.7z"/>
	<g>
		<path d="M12.6,22.4c0-0.2,0.1-0.4,0.4-0.4h0.7v4.8c0.2,0.1,0.3,0.3,0.5,0.4c0.2,0.1,0.5,0.2,0.8,0.3s0.7,0.1,1.1,0.1h0.2v1h-0.2
			c-0.2,0-0.3,0-0.6,0c-0.2,0-0.5-0.1-0.7-0.1c-0.2-0.1-0.5-0.2-0.7-0.3c-0.2-0.1-0.5-0.3-0.6-0.5c-0.2,0.3-0.4,0.5-0.8,0.7
			c-0.3,0.2-0.8,0.2-1.3,0.2H5c-0.7,0-1.3-0.1-1.9-0.3s-0.9-0.4-1.2-0.7c-0.3-0.3-0.6-0.6-0.7-1c-0.2-0.4-0.2-0.8-0.2-1.2
			c0-0.5,0-1,0.1-1.4c0.1-0.4,0.2-0.6,0.2-0.8c0.2,0.1,0.5,0.1,0.8,0.2c0.2,0,0.2,0.2,0.1,0.4c-0.1,0.3-0.1,0.5-0.2,0.7
			c0,0.2,0,0.4,0,0.7c0,0.5,0.1,0.8,0.3,1.1c0.2,0.3,0.5,0.6,0.8,0.7c0.3,0.2,0.7,0.3,1.1,0.4c0.4,0.1,0.9,0.1,1.3,0.1H11
			c0.7,0,1.1-0.1,1.3-0.4s0.3-0.7,0.3-1.1V22.4z M6.7,30.6c0-0.2,0.1-0.4,0.2-0.5C7,30,7.2,29.9,7.4,29.9S7.8,30,8,30.1
			c0.1,0.1,0.2,0.3,0.2,0.5c0,0.2-0.1,0.4-0.2,0.5c-0.1,0.1-0.3,0.2-0.5,0.2S7,31.2,6.9,31.1C6.7,31,6.7,30.8,6.7,30.6z"/>
		<path d="M18.4,22.4c0-0.2,0.1-0.4,0.4-0.4h0.7v4.8c0.2,0.1,0.3,0.2,0.5,0.3c0.2,0.1,0.5,0.2,0.8,0.3c0.3,0.1,0.6,0.1,1,0.1H22v1
			h-0.2c-0.2,0-0.3,0-0.5,0c-0.2,0-0.4-0.1-0.7-0.1c-0.2-0.1-0.5-0.1-0.7-0.3c-0.2-0.1-0.4-0.3-0.6-0.5c-0.4,0.6-1.1,0.9-2.2,0.9
			h-1.4v-1h0.9c0.7,0,1.1-0.1,1.4-0.4c0.3-0.2,0.4-0.6,0.4-1.1V22.4z M17.1,30.5c0-0.2,0.1-0.4,0.2-0.5c0.1-0.1,0.3-0.2,0.5-0.2
			s0.4,0.1,0.5,0.2c0.1,0.1,0.2,0.3,0.2,0.5c0,0.2-0.1,0.4-0.2,0.5c-0.1,0.1-0.3,0.2-0.5,0.2s-0.4-0.1-0.5-0.2
			C17.2,30.8,17.1,30.7,17.1,30.5z M19.2,30.5c0-0.2,0.1-0.4,0.2-0.5c0.1-0.1,0.3-0.2,0.5-0.2s0.4,0.1,0.5,0.2
			c0.1,0.1,0.2,0.3,0.2,0.5c0,0.2-0.1,0.4-0.2,0.5c-0.1,0.1-0.3,0.2-0.5,0.2s-0.4-0.1-0.5-0.2C19.2,30.8,19.2,30.7,19.2,30.5z"/>
		<path d="M24.1,22.4c0-0.2,0.1-0.4,0.4-0.4h0.7v4.8c0.2,0.1,0.3,0.2,0.5,0.3c0.2,0.1,0.5,0.2,0.8,0.3c0.3,0.1,0.6,0.1,1,0.1h0.2v1
			h-0.2c-0.2,0-0.3,0-0.5,0c-0.2,0-0.4-0.1-0.7-0.1c-0.2-0.1-0.5-0.1-0.7-0.3c-0.2-0.1-0.4-0.3-0.6-0.5c-0.4,0.6-1.1,0.9-2.2,0.9
			h-1.4v-1h0.9c0.7,0,1.1-0.1,1.4-0.4c0.3-0.2,0.4-0.6,0.4-1.1V22.4z M23.6,30.6c0-0.2,0.1-0.4,0.2-0.5c0.1-0.1,0.3-0.2,0.5-0.2
			s0.4,0.1,0.5,0.2c0.1,0.1,0.2,0.3,0.2,0.5c0,0.2-0.1,0.4-0.2,0.5c-0.1,0.1-0.3,0.2-0.5,0.2s-0.4-0.1-0.5-0.2
			C23.7,31,23.6,30.8,23.6,30.6z"/>
		<path d="M36.9,27.8c-0.1,0.3-0.3,0.5-0.5,0.6s-0.5,0.2-0.9,0.2h-8.4v-1h8.8v-1.8c0-0.5,0-0.9,0-1.3c0-0.4-0.1-0.7-0.3-1
			c-0.2-0.3-0.5-0.5-0.9-0.6c-0.4-0.1-1-0.2-1.8-0.2c-0.6,0-1.2,0-1.7,0.1c-0.5,0.1-1,0.1-1.4,0.2c-0.2,0.1-0.4,0-0.4-0.2l-0.2-0.6
			c0.4-0.1,0.9-0.2,1.3-0.3s0.8-0.1,1.3-0.2c0.4,0,0.8,0,1.2,0c0.8,0,1.4,0.1,1.9,0.2c0.5,0.1,1,0.4,1.3,0.7
			c0.3,0.3,0.6,0.7,0.7,1.1c0.1,0.5,0.2,1,0.2,1.7v1.4c0.2,0.1,0.4,0.3,0.6,0.4c0.2,0.1,0.5,0.2,0.7,0.2s0.6,0.1,1.1,0.1h0.2v1h-0.2
			c-0.2,0-0.4,0-0.6,0c-0.2,0-0.5-0.1-0.7-0.1c-0.2-0.1-0.5-0.1-0.7-0.2C37.2,28.1,37.1,28,36.9,27.8z"/>
		<path d="M43.4,25c0,0.6-0.1,1-0.2,1.5c-0.1,0.4-0.3,0.8-0.6,1.1c-0.3,0.3-0.6,0.5-1.1,0.7c-0.5,0.2-1.1,0.2-1.8,0.2H39v-1h0.7
			c0.9,0,1.5-0.2,1.9-0.5s0.6-0.8,0.6-1.5v-7.4c0-0.2,0.1-0.4,0.4-0.4h0.7V25z"/>
		<path d="M47.3,28.2c0,0.2-0.1,0.4-0.4,0.4h-0.7V18.1c0-0.2,0.1-0.4,0.4-0.4h0.7V28.2z"/>
		<path d="M64.4,28.8c0,0.4,0,0.9-0.1,1.3s-0.3,0.8-0.6,1.2c-0.3,0.4-0.8,0.7-1.4,0.9c-0.6,0.2-1.5,0.3-2.5,0.3
			c-0.6,0-1.2,0-1.9-0.1s-1.2-0.3-1.7-0.6c-0.5-0.3-0.9-0.8-1.2-1.3S54.4,29,54.4,28c0-0.3,0-0.6,0-0.9c0-0.3,0.1-0.6,0.1-1
			s0.1-0.6,0.2-1c0.1-0.3,0.2-0.6,0.2-0.8c0.3,0.1,0.5,0.1,0.8,0.2C56,24.7,56,24.8,56,25c-0.1,0.3-0.2,0.7-0.3,1.3
			c-0.1,0.6-0.2,1.1-0.2,1.8c0,0.8,0.1,1.5,0.4,2c0.3,0.5,0.6,0.8,1,1c0.4,0.2,0.9,0.3,1.4,0.4c0.5,0,1,0.1,1.5,0.1
			c0.8,0,1.4-0.1,1.9-0.2c0.5-0.1,0.8-0.3,1-0.6c0.2-0.2,0.4-0.5,0.4-0.9c0.1-0.3,0.1-0.7,0.1-1.1v-6.2c0-0.2,0.1-0.4,0.4-0.4h0.7
			V28.8z M59,22.1c0-0.2,0.1-0.4,0.2-0.5c0.1-0.1,0.3-0.2,0.5-0.2s0.4,0.1,0.5,0.2c0.1,0.1,0.2,0.3,0.2,0.5c0,0.2-0.1,0.4-0.2,0.5
			c-0.1,0.1-0.3,0.2-0.5,0.2s-0.4-0.1-0.5-0.2C59.1,22.5,59,22.3,59,22.1z"/>
		<path d="M66.9,17.8h0.7c0.3,0,0.4,0.1,0.4,0.4v7.5c0,0.6,0.2,1.1,0.6,1.5c0.4,0.3,1,0.5,1.9,0.5h0.2v1h-0.2
			c-0.7,0-1.3-0.1-1.7-0.2s-0.8-0.4-1.1-0.7c-0.3-0.3-0.5-0.7-0.6-1.1c-0.1-0.4-0.2-0.9-0.2-1.5V17.8z"/>
		<path d="M78.7,27.8c-0.1,0.2-0.2,0.4-0.3,0.5c-0.1,0.1-0.3,0.3-0.4,0.4c-0.2,0.1-0.4,0.2-0.7,0.3c-0.3,0.1-0.6,0.1-0.9,0.1
			c-0.2,0-0.4,0-0.8-0.1c-0.3-0.1-0.6-0.1-1-0.2s-0.7-0.2-1.1-0.3h-3.4v-1h2.2c-0.1-0.2-0.2-0.5-0.3-1S72,25.7,72,25.2
			c0-0.5,0.1-1,0.3-1.4c0.2-0.4,0.5-0.8,0.9-1.1c0.4-0.3,0.8-0.5,1.3-0.7c0.5-0.2,1.1-0.2,1.8-0.2c0.6,0,1.1,0.1,1.6,0.2
			s0.8,0.2,1,0.3v4.7c0,0,0.1,0.1,0.2,0.2c0.1,0.1,0.3,0.2,0.5,0.3s0.4,0.2,0.7,0.2c0.3,0.1,0.6,0.1,1,0.1h0.1v1h-0.1
			c-0.1,0-0.3,0-0.5,0c-0.2,0-0.4-0.1-0.7-0.1c-0.2-0.1-0.5-0.1-0.7-0.2C79.1,28.1,78.9,27.9,78.7,27.8z M77.8,22.8
			c-0.2,0-0.4-0.1-0.7-0.1c-0.3,0-0.6-0.1-0.8-0.1c-0.5,0-1,0.1-1.4,0.2c-0.4,0.1-0.7,0.3-1,0.6c-0.3,0.2-0.5,0.5-0.6,0.8
			c-0.1,0.3-0.2,0.6-0.2,1c0,0.4,0.1,0.8,0.2,1.2c0.1,0.5,0.2,0.8,0.3,1c0.5,0.1,0.9,0.3,1.4,0.4c0.4,0.1,0.9,0.2,1.4,0.2
			c0.4,0,0.8-0.1,1.1-0.3c0.3-0.2,0.4-0.6,0.4-1.1V22.8z"/>
		<path d="M83.5,22.4c0-0.2,0.1-0.4,0.4-0.4h0.7v4.8c0.2,0.1,0.3,0.2,0.5,0.3c0.2,0.1,0.5,0.2,0.8,0.3c0.3,0.1,0.6,0.1,1,0.1h0.2v1
			h-0.2c-0.2,0-0.3,0-0.5,0c-0.2,0-0.4-0.1-0.7-0.1c-0.2-0.1-0.5-0.1-0.7-0.3c-0.2-0.1-0.4-0.3-0.6-0.5c-0.4,0.6-1.1,0.9-2.2,0.9
			h-1.4v-1h0.9c0.7,0,1.1-0.1,1.4-0.4c0.3-0.2,0.4-0.6,0.4-1.1V22.4z M82.2,30.5c0-0.2,0.1-0.4,0.2-0.5c0.1-0.1,0.3-0.2,0.5-0.2
			s0.4,0.1,0.5,0.2c0.1,0.1,0.2,0.3,0.2,0.5c0,0.2-0.1,0.4-0.2,0.5c-0.1,0.1-0.3,0.2-0.5,0.2s-0.4-0.1-0.5-0.2
			C82.3,30.8,82.2,30.7,82.2,30.5z M84.3,30.5c0-0.2,0.1-0.4,0.2-0.5c0.1-0.1,0.3-0.2,0.5-0.2s0.4,0.1,0.5,0.2
			c0.1,0.1,0.2,0.3,0.2,0.5c0,0.2-0.1,0.4-0.2,0.5c-0.1,0.1-0.3,0.2-0.5,0.2s-0.4-0.1-0.5-0.2C84.4,30.8,84.3,30.7,84.3,30.5z"/>
		<path d="M89.6,17.8h0.7v9.1c0.1,0.1,0.3,0.3,0.5,0.4c0.2,0.1,0.5,0.2,0.8,0.3s0.7,0.1,1.1,0.1h0.1v1h-0.1c-0.2,0-0.3,0-0.6,0
			s-0.5-0.1-0.7-0.1c-0.2-0.1-0.5-0.2-0.7-0.3c-0.2-0.1-0.4-0.3-0.6-0.5c-0.2,0.3-0.5,0.5-0.8,0.7s-0.8,0.2-1.3,0.2h-1.3v-1h0.8
			c0.7,0,1.2-0.1,1.4-0.4c0.2-0.3,0.4-0.7,0.4-1.2v-7.8C89.2,17.9,89.3,17.8,89.6,17.8z"/>
		<path d="M103.7,28.5c-0.3,0-0.7,0-1-0.1s-0.6-0.2-0.8-0.3s-0.4-0.2-0.6-0.3c-0.2-0.1-0.3-0.2-0.3-0.3c0,0.1-0.1,0.1-0.2,0.3
			c-0.1,0.1-0.3,0.2-0.5,0.3c-0.2,0.1-0.4,0.2-0.7,0.3c-0.3,0.1-0.6,0.1-1,0.1h-0.4c-0.2,0-0.3,0-0.6,0c-0.2,0-0.5-0.1-0.7-0.1
			c-0.2-0.1-0.5-0.2-0.7-0.3c-0.2-0.1-0.5-0.3-0.7-0.5c-0.2,0.3-0.5,0.5-0.8,0.7s-0.8,0.2-1.3,0.2h-1.1v-1h0.7c0.3,0,0.6,0,0.8-0.1
			c0.2-0.1,0.4-0.2,0.5-0.3s0.2-0.3,0.3-0.5c0.1-0.2,0.1-0.4,0.1-0.6v-2.4c0-0.2,0.1-0.4,0.4-0.4h0.7v3.6c0.2,0.1,0.3,0.2,0.5,0.3
			c0.2,0.1,0.5,0.2,0.8,0.3s0.7,0.1,1.1,0.1c0.2,0,0.4,0,0.7,0c0.2,0,0.5-0.1,0.7-0.2c0.2-0.1,0.4-0.2,0.5-0.4s0.2-0.4,0.2-0.8v-2.5
			c0-0.2,0.1-0.4,0.4-0.4h0.7v3.4c0.4,0.4,0.7,0.7,1.2,0.8c0.4,0.1,0.8,0.2,1.1,0.2c0.5,0,0.8,0,1.1-0.1c0.3-0.1,0.5-0.2,0.7-0.4
			s0.3-0.4,0.4-0.7c0.1-0.3,0.1-0.6,0.1-1v-3c0-0.2,0.1-0.4,0.4-0.4h0.7v3.3c0,0.5-0.1,0.9-0.2,1.3c-0.1,0.4-0.3,0.7-0.5,1
			c-0.3,0.3-0.6,0.5-1,0.7C104.9,28.5,104.4,28.5,103.7,28.5z"/>
		<path d="M108.9,27.8c0-0.2,0.1-0.4,0.2-0.5c0.1-0.1,0.3-0.2,0.5-0.2s0.4,0.1,0.6,0.2c0.2,0.1,0.2,0.3,0.2,0.5s-0.1,0.4-0.2,0.5
			c-0.2,0.1-0.3,0.2-0.6,0.2s-0.4-0.1-0.5-0.2C109,28.2,108.9,28,108.9,27.8z"/>
		<path d="M120.1,25.6v1.2c0,0.3,0,0.5,0,0.7c0,0.2-0.1,0.4-0.2,0.5c-0.1,0.1-0.3,0.3-0.5,0.3s-0.6,0.1-1,0.1h-6v-0.7
			c0-0.2,0.1-0.3,0.3-0.3h6.4V26c0-0.5-0.1-1-0.2-1.3c-0.1-0.3-0.3-0.6-0.5-0.8c-0.2-0.2-0.6-0.4-1-0.6c-0.4-0.2-0.9-0.3-1.4-0.4
			c-0.5-0.1-0.9-0.2-1.1-0.2c-0.2,0-0.6-0.1-0.9-0.1c-0.3-0.1-0.5-0.2-0.4-0.5c0-0.2,0.1-0.4,0.1-0.5c0.6,0.1,1.1,0.2,1.4,0.2
			c0.3,0.1,0.8,0.1,1.3,0.2c0.5,0.1,1,0.3,1.6,0.5c0.6,0.3,1,0.6,1.3,0.9c0.3,0.3,0.5,0.7,0.7,1.1C120,24.8,120.1,25.2,120.1,25.6z"
			/>
	</g>
	<g>
		<path d="M14.6,44.8h0.5v0.5c0.3-0.4,0.6-0.5,1.1-0.5c0.6,0,0.9,0.2,1.1,0.6c0.3-0.4,0.7-0.6,1.2-0.6c0.4,0,0.7,0.1,1,0.3
			c0.2,0.2,0.3,0.5,0.3,0.9v2.4h-0.5v-2.4c0-0.3-0.1-0.5-0.2-0.6c-0.1-0.2-0.4-0.2-0.7-0.2c-0.4,0-0.6,0.1-0.8,0.4
			c-0.1,0.2-0.2,0.5-0.2,0.8v2.1H17v-2.4c0-0.3-0.1-0.5-0.2-0.6c-0.1-0.2-0.4-0.2-0.6-0.2c-0.3,0-0.6,0.1-0.8,0.3s-0.3,0.5-0.3,0.8
			v2.2h-0.5V44.8z"/>
		<path d="M24.1,46.6h-2.9c0,0.5,0.1,0.8,0.4,1.1c0.2,0.2,0.5,0.3,0.9,0.3c0.6,0,0.9-0.3,1.1-0.8h0.5c-0.3,0.8-0.8,1.2-1.6,1.2
			c-0.6,0-1-0.2-1.3-0.6c-0.3-0.3-0.4-0.8-0.4-1.3c0-0.6,0.2-1.1,0.5-1.4c0.3-0.3,0.7-0.5,1.2-0.5c0.5,0,1,0.2,1.3,0.5
			c0.3,0.3,0.4,0.7,0.4,1.2C24.1,46.5,24.1,46.5,24.1,46.6z M23.6,46.3c0-0.4-0.1-0.7-0.3-0.9c-0.2-0.2-0.5-0.3-0.8-0.3
			s-0.6,0.1-0.8,0.3c-0.2,0.2-0.3,0.5-0.4,0.9H23.6z"/>
		<path d="M28.2,43.4v4.9h-0.5v-0.5c-0.3,0.4-0.7,0.6-1.2,0.6c-0.5,0-1-0.2-1.3-0.6c-0.3-0.3-0.4-0.8-0.4-1.3c0-0.6,0.2-1.1,0.5-1.4
			c0.3-0.3,0.7-0.5,1.2-0.5c0.5,0,0.9,0.2,1.2,0.6v-1.9H28.2z M26.5,45.1c-0.4,0-0.7,0.1-0.9,0.5c-0.2,0.3-0.3,0.6-0.3,1
			c0,0.5,0.1,0.9,0.4,1.1c0.2,0.2,0.5,0.3,0.9,0.3c0.4,0,0.7-0.1,0.9-0.4s0.3-0.6,0.3-1.1c0-0.5-0.1-0.9-0.4-1.1
			C27.2,45.2,26.9,45.1,26.5,45.1z"/>
		<path d="M29.7,43.5c0.1,0,0.1,0,0.2,0.1s0.1,0.1,0.1,0.2c0,0.1,0,0.1-0.1,0.2C29.8,44,29.7,44,29.7,44c-0.1,0-0.1,0-0.2-0.1
			c-0.1-0.1-0.1-0.1-0.1-0.2c0-0.1,0-0.1,0.1-0.2C29.5,43.5,29.6,43.5,29.7,43.5z M29.9,44.8v3.5h-0.5v-3.5H29.9z"/>
		<path d="M34.1,45.9h-0.5c0-0.3-0.2-0.5-0.4-0.6c-0.2-0.1-0.4-0.2-0.7-0.2c-0.4,0-0.7,0.1-1,0.4c-0.2,0.3-0.3,0.6-0.3,1
			c0,0.5,0.1,0.9,0.4,1.1c0.2,0.2,0.5,0.4,0.9,0.4c0.6,0,1-0.3,1.1-0.9h0.5c-0.1,0.5-0.3,0.8-0.6,1c-0.3,0.2-0.6,0.3-1,0.3
			c-0.6,0-1-0.2-1.3-0.6c-0.3-0.3-0.4-0.8-0.4-1.3c0-0.6,0.2-1.1,0.5-1.4c0.3-0.3,0.7-0.5,1.2-0.5c0.4,0,0.8,0.1,1.1,0.4
			C33.9,45.3,34.1,45.5,34.1,45.9z"/>
		<path d="M35.5,45.9h-0.5c0-0.8,0.5-1.2,1.5-1.2c0.9,0,1.4,0.4,1.4,1.1v2c0,0.2,0.1,0.3,0.2,0.3c0,0,0.1,0,0.2-0.1v0.4
			c-0.2,0-0.3,0.1-0.4,0.1c-0.3,0-0.5-0.2-0.5-0.5v-0.1c-0.3,0.4-0.8,0.6-1.4,0.6c-0.4,0-0.7-0.1-1-0.3c-0.2-0.2-0.3-0.4-0.3-0.7
			c0-0.3,0.1-0.6,0.3-0.8c0.2-0.1,0.5-0.2,0.9-0.3l1.4-0.2c0,0,0-0.1,0-0.1c0-0.4-0.1-0.6-0.2-0.8s-0.4-0.2-0.8-0.2
			c-0.3,0-0.6,0.1-0.7,0.2C35.6,45.4,35.5,45.6,35.5,45.9z M37.4,46.5l-1.4,0.2c-0.5,0.1-0.8,0.3-0.8,0.7c0,0.2,0.1,0.4,0.2,0.5
			c0.2,0.1,0.4,0.2,0.6,0.2c0.5,0,0.9-0.2,1.1-0.5c0.1-0.2,0.2-0.4,0.2-0.7V46.5z"/>
		<path d="M39.6,43.4v4.9h-0.5v-4.9H39.6z"/>
		<path d="M44.9,44.8h0.5v3.1c0,0.5-0.1,0.9-0.4,1.2c-0.3,0.3-0.8,0.4-1.3,0.4c-0.5,0-0.8-0.1-1.1-0.3c-0.2-0.2-0.4-0.4-0.4-0.7h0.5
			c0,0.4,0.4,0.6,1,0.6c0.8,0,1.2-0.4,1.2-1.2v-0.3c-0.4,0.4-0.8,0.6-1.3,0.6c-0.5,0-1-0.2-1.3-0.6c-0.3-0.3-0.4-0.7-0.4-1.2
			c0-0.6,0.2-1,0.5-1.4c0.3-0.3,0.7-0.4,1.2-0.4c0.5,0,0.9,0.2,1.3,0.6V44.8z M43.6,45.1c-0.4,0-0.7,0.1-0.9,0.4
			c-0.2,0.2-0.3,0.6-0.3,1c0,0.5,0.1,0.8,0.4,1.1c0.2,0.2,0.5,0.3,0.9,0.3c0.4,0,0.7-0.1,0.9-0.4c0.2-0.3,0.3-0.6,0.3-1
			c0-0.4-0.1-0.8-0.3-1C44.3,45.2,44,45.1,43.6,45.1z"/>
		<path d="M46.5,44.8H47l0,0.6c0.2-0.5,0.6-0.7,1.1-0.7c0,0,0.1,0,0.2,0l0,0.5c-0.1,0-0.1,0-0.2,0c-0.4,0-0.7,0.1-0.9,0.4
			c-0.2,0.2-0.2,0.5-0.2,0.9v1.9h-0.5V44.8z"/>
		<path d="M50.5,44.7c0.6,0,1,0.2,1.3,0.6c0.3,0.3,0.4,0.8,0.4,1.3c0,0.6-0.2,1.1-0.5,1.4c-0.3,0.3-0.7,0.5-1.2,0.5
			c-0.6,0-1-0.2-1.3-0.6c-0.3-0.3-0.4-0.8-0.4-1.3c0-0.6,0.2-1.1,0.5-1.4C49.6,44.8,50,44.7,50.5,44.7z M50.5,45.1
			c-0.4,0-0.7,0.2-1,0.5c-0.2,0.3-0.3,0.6-0.3,1c0,0.5,0.1,0.9,0.4,1.1c0.2,0.2,0.5,0.3,0.9,0.3c0.4,0,0.7-0.2,1-0.5
			c0.2-0.3,0.3-0.6,0.3-1c0-0.5-0.1-0.9-0.4-1.1C51.2,45.2,50.9,45.1,50.5,45.1z"/>
		<path d="M56.2,48.3h-0.5v-0.5c-0.3,0.4-0.7,0.6-1.2,0.6c-0.4,0-0.8-0.1-1-0.4c-0.2-0.2-0.3-0.5-0.3-0.9v-2.4h0.5v2.3
			c0,0.3,0.1,0.6,0.2,0.7c0.1,0.2,0.4,0.2,0.7,0.2c0.3,0,0.6-0.1,0.8-0.3c0.2-0.2,0.3-0.5,0.3-0.9v-2.1h0.5V48.3z"/>
		<path d="M57.4,44.8h0.5v0.5c0.3-0.4,0.7-0.6,1.3-0.6c0.5,0,1,0.2,1.3,0.6c0.3,0.3,0.4,0.7,0.4,1.3c0,0.6-0.2,1.1-0.5,1.4
			c-0.3,0.3-0.7,0.5-1.2,0.5c-0.5,0-0.9-0.2-1.2-0.6v1.6h-0.5V44.8z M59.1,45.1c-0.4,0-0.7,0.1-0.9,0.5c-0.2,0.3-0.3,0.6-0.3,1
			c0,0.5,0.1,0.9,0.4,1.1c0.2,0.2,0.5,0.3,0.9,0.3c0.4,0,0.7-0.1,0.9-0.4c0.2-0.3,0.3-0.6,0.3-1c0-0.5-0.1-0.9-0.4-1.1
			C59.7,45.2,59.4,45.1,59.1,45.1z"/>
		<path d="M70,47.9v0.4h-0.4c-0.1,0-0.2,0-0.3,0c-0.1,0-0.2-0.1-0.2-0.1c-0.1,0-0.1-0.1-0.1-0.2c0-0.1-0.1-0.1-0.1-0.1
			c0,0-0.1,0.1-0.2,0.1c-0.1,0.1-0.2,0.1-0.3,0.2c-0.1,0.1-0.2,0.1-0.4,0.1s-0.3,0.1-0.5,0.1c-0.2,0-0.4,0-0.6-0.1
			c-0.2,0-0.3-0.1-0.5-0.2c-0.1-0.1-0.3-0.3-0.4-0.5c-0.1-0.2-0.1-0.5-0.1-0.9c0-0.2,0-0.4,0.1-0.6s0.1-0.4,0.3-0.5
			c0.1-0.1,0.3-0.3,0.5-0.3c0.2-0.1,0.5-0.1,0.8-0.1c0.2,0,0.3,0,0.5,0s0.3,0,0.5,0.1s0.3,0.1,0.6,0.1v2.2c0,0.2,0,0.3,0.2,0.3
			c0.1,0.1,0.2,0.1,0.4,0.1H70z M68.8,45.6c-0.2,0-0.4-0.1-0.5-0.1c-0.2,0-0.3,0-0.4,0c-0.2,0-0.3,0-0.5,0c-0.1,0-0.3,0.1-0.4,0.2
			c-0.1,0.1-0.2,0.2-0.3,0.4c-0.1,0.2-0.1,0.3-0.1,0.6c0,0.5,0.1,0.8,0.3,1c0.2,0.2,0.5,0.3,0.8,0.3c0.2,0,0.3,0,0.5-0.1
			s0.2-0.1,0.3-0.2c0.1-0.1,0.2-0.1,0.2-0.2V45.6z M66.9,44.3c0-0.1,0-0.2,0.1-0.2C67,44,67.1,44,67.2,44c0.1,0,0.2,0,0.3,0.1
			c0.1,0.1,0.1,0.1,0.1,0.2c0,0.1,0,0.2-0.1,0.2c-0.1,0.1-0.2,0.1-0.3,0.1c-0.1,0-0.2,0-0.3-0.1C66.9,44.5,66.9,44.4,66.9,44.3z
			 M67.8,44.3c0-0.1,0-0.2,0.1-0.2s0.2-0.1,0.3-0.1c0.1,0,0.2,0,0.3,0.1c0.1,0.1,0.1,0.1,0.1,0.2c0,0.1,0,0.2-0.1,0.2
			c-0.1,0.1-0.2,0.1-0.3,0.1c-0.1,0-0.2,0-0.3-0.1S67.8,44.4,67.8,44.3z"/>
		<path d="M70.9,45.5c0-0.1,0.1-0.2,0.2-0.2h0.3v2.2c0.1,0.1,0.2,0.1,0.3,0.2c0.1,0,0.2,0.1,0.4,0.1s0.3,0,0.5,0h0.1v0.4h-0.1
			c-0.1,0-0.2,0-0.2,0c-0.1,0-0.2,0-0.3-0.1c-0.1,0-0.2-0.1-0.3-0.1c-0.1-0.1-0.2-0.1-0.3-0.2c-0.2,0.3-0.5,0.4-1,0.4h-0.6v-0.4h0.4
			c0.3,0,0.5-0.1,0.6-0.2c0.1-0.1,0.2-0.3,0.2-0.5V45.5z M70.3,49.2c0-0.1,0-0.2,0.1-0.2c0.1-0.1,0.2-0.1,0.3-0.1
			c0.1,0,0.2,0,0.3,0.1C71,49,71,49.1,71,49.2c0,0.1,0,0.2-0.1,0.2c-0.1,0.1-0.2,0.1-0.3,0.1c-0.1,0-0.2,0-0.3-0.1
			C70.4,49.4,70.3,49.3,70.3,49.2z M71.3,49.2c0-0.1,0-0.2,0.1-0.2c0.1-0.1,0.2-0.1,0.3-0.1c0.1,0,0.2,0,0.3,0.1
			C72,49,72,49.1,72,49.2c0,0.1,0,0.2-0.1,0.2c-0.1,0.1-0.2,0.1-0.3,0.1c-0.1,0-0.2,0-0.3-0.1C71.3,49.4,71.3,49.3,71.3,49.2z"/>
		<path d="M73.5,45.5c0-0.1,0.1-0.2,0.2-0.2h0.3v2.2c0.1,0.1,0.2,0.1,0.3,0.2c0.1,0,0.2,0.1,0.4,0.1s0.3,0,0.5,0h0.1v0.4h-0.1
			c-0.1,0-0.2,0-0.2,0c-0.1,0-0.2,0-0.3-0.1c-0.1,0-0.2-0.1-0.3-0.1c-0.1-0.1-0.2-0.1-0.3-0.2c-0.2,0.3-0.5,0.4-1,0.4h-0.6v-0.4h0.4
			c0.3,0,0.5-0.1,0.6-0.2c0.1-0.1,0.2-0.3,0.2-0.5V45.5z M73.3,49.3c0-0.1,0-0.2,0.1-0.2s0.2-0.1,0.3-0.1s0.2,0,0.3,0.1
			s0.1,0.1,0.1,0.2c0,0.1,0,0.2-0.1,0.2s-0.2,0.1-0.3,0.1s-0.2,0-0.3-0.1S73.3,49.4,73.3,49.3z"/>
		<path d="M75.8,44c0-0.1,0.1-0.2,0.2-0.2h0.3v1.8l3.3-0.5c0.1,0,0.3,0,0.4,0c0.1,0,0.3,0.1,0.4,0.2s0.2,0.2,0.4,0.3
			c0.1,0.1,0.2,0.3,0.3,0.4c0.1,0.2,0.1,0.4,0.1,0.6c0,0.2,0,0.3-0.1,0.5s-0.1,0.3-0.2,0.5c0.1,0,0.2,0.1,0.4,0.1s0.3,0,0.5,0h0.1
			v0.4h-0.1c-0.1,0-0.2,0-0.2,0c-0.1,0-0.2,0-0.3,0s-0.2-0.1-0.3-0.1c-0.1,0-0.2-0.1-0.3-0.2c-0.1,0.1-0.3,0.2-0.5,0.2
			s-0.4,0.1-0.6,0.1h-4.7v-0.4h0.8V44z M79.7,47.9c0.2,0,0.3,0,0.4,0c0.1,0,0.2-0.1,0.3-0.2s0.2-0.2,0.2-0.4
			c0.1-0.2,0.1-0.3,0.1-0.5c0-0.3,0-0.5-0.1-0.6c-0.1-0.2-0.2-0.3-0.3-0.4c-0.1-0.1-0.2-0.1-0.4-0.2s-0.2,0-0.3,0l-3.3,0.5v1.7H79.7
			z"/>
		<path d="M83.6,46.7c0,0.3,0,0.5-0.1,0.7c0,0.2-0.1,0.4-0.3,0.5c-0.1,0.1-0.3,0.2-0.5,0.3c-0.2,0.1-0.5,0.1-0.8,0.1h-0.3v-0.4h0.3
			c0.4,0,0.7-0.1,0.9-0.2C83,47.5,83,47.3,83,47v-3.4c0-0.1,0.1-0.2,0.2-0.2h0.3V46.7z"/>
		<path d="M85.4,48.2c0,0.1-0.1,0.2-0.2,0.2h-0.3v-4.8c0-0.1,0.1-0.2,0.2-0.2h0.3V48.2z"/>
		<path d="M92.5,47.9v0.4h-0.4c-0.1,0-0.2,0-0.3,0c-0.1,0-0.2-0.1-0.2-0.1c-0.1,0-0.1-0.1-0.1-0.2c0-0.1-0.1-0.1-0.1-0.1
			c0,0-0.1,0.1-0.2,0.1c-0.1,0.1-0.2,0.1-0.3,0.2c-0.1,0.1-0.2,0.1-0.4,0.1s-0.3,0.1-0.5,0.1c-0.2,0-0.4,0-0.6-0.1
			c-0.2,0-0.3-0.1-0.5-0.2c-0.1-0.1-0.3-0.3-0.4-0.5c-0.1-0.2-0.1-0.5-0.1-0.9c0-0.2,0-0.4,0.1-0.6s0.1-0.4,0.3-0.5
			c0.1-0.1,0.3-0.3,0.5-0.3c0.2-0.1,0.5-0.1,0.8-0.1c0.2,0,0.3,0,0.5,0s0.3,0,0.5,0.1s0.3,0.1,0.6,0.1v2.2c0,0.2,0,0.3,0.2,0.3
			c0.1,0.1,0.2,0.1,0.4,0.1H92.5z M91.3,45.6c-0.2,0-0.4-0.1-0.5-0.1c-0.2,0-0.3,0-0.4,0c-0.2,0-0.3,0-0.5,0c-0.1,0-0.3,0.1-0.4,0.2
			c-0.1,0.1-0.2,0.2-0.3,0.4c-0.1,0.2-0.1,0.3-0.1,0.6c0,0.5,0.1,0.8,0.3,1c0.2,0.2,0.5,0.3,0.8,0.3c0.2,0,0.3,0,0.5-0.1
			s0.2-0.1,0.3-0.2c0.1-0.1,0.2-0.1,0.2-0.2V45.6z M89.4,44.3c0-0.1,0-0.2,0.1-0.2c0.1-0.1,0.2-0.1,0.3-0.1c0.1,0,0.2,0,0.3,0.1
			c0.1,0.1,0.1,0.1,0.1,0.2c0,0.1,0,0.2-0.1,0.2c-0.1,0.1-0.2,0.1-0.3,0.1c-0.1,0-0.2,0-0.3-0.1C89.4,44.5,89.4,44.4,89.4,44.3z
			 M90.4,44.3c0-0.1,0-0.2,0.1-0.2s0.2-0.1,0.3-0.1c0.1,0,0.2,0,0.3,0.1c0.1,0.1,0.1,0.1,0.1,0.2c0,0.1,0,0.2-0.1,0.2
			c-0.1,0.1-0.2,0.1-0.3,0.1c-0.1,0-0.2,0-0.3-0.1S90.4,44.4,90.4,44.3z"/>
		<path d="M95.7,47.9c0.1,0,0.2,0.1,0.2,0.2v0.3h-3.7v-0.4h1.1c0,0-0.1-0.1-0.1-0.1c0-0.1-0.1-0.1-0.1-0.2c0-0.1-0.1-0.2-0.1-0.3
			c0-0.1,0-0.3,0-0.5c0-0.2,0-0.5,0.1-0.6c0.1-0.2,0.2-0.3,0.3-0.5c0.1-0.1,0.3-0.2,0.5-0.3c0.2-0.1,0.5-0.1,0.8-0.1
			c0.3,0,0.5,0,0.8,0.1c0.2,0,0.4,0.1,0.5,0.1c0,0.1,0,0.2-0.1,0.3c0,0.1-0.1,0.2-0.3,0.1c-0.2,0-0.4-0.1-0.5-0.1
			c-0.1,0-0.3,0-0.5,0c-0.2,0-0.4,0-0.6,0.1s-0.3,0.1-0.4,0.2c-0.1,0.1-0.1,0.2-0.2,0.3s0,0.3,0,0.4c0,0.2,0,0.5,0.1,0.6
			c0.1,0.2,0.2,0.3,0.3,0.4c0.1,0.1,0.2,0.1,0.3,0.2c0.1,0,0.2,0,0.2,0H95.7z"/>
		<path d="M100.8,48.3h-0.7v0.1c0,0.4,0,0.6-0.1,0.9c-0.1,0.2-0.2,0.4-0.3,0.5s-0.3,0.2-0.5,0.3c-0.2,0.1-0.5,0.1-0.7,0.1
			c-0.1,0-0.2,0-0.4,0c-0.1,0-0.3,0-0.4-0.1c-0.1,0-0.2-0.1-0.1-0.2c0-0.1,0-0.2,0.1-0.3c0.1,0,0.2,0.1,0.4,0.1s0.3,0,0.5,0
			c0.3,0,0.5,0,0.7-0.1c0.2-0.1,0.3-0.2,0.3-0.3c0.1-0.1,0.1-0.3,0.1-0.4s0-0.3,0-0.5v-0.1h-0.9c-0.2,0-0.3,0-0.5-0.1
			c-0.2,0-0.4-0.1-0.5-0.2s-0.3-0.2-0.4-0.5S97,47.1,97,46.8c0-0.3,0-0.5,0.1-0.7c0.1-0.2,0.2-0.4,0.4-0.5s0.4-0.2,0.6-0.3
			c0.2-0.1,0.5-0.1,0.7-0.1c0.2,0,0.4,0,0.7,0.1c0.2,0,0.4,0.1,0.6,0.1v2.5h0.7V48.3z M99.5,45.7c-0.3-0.1-0.5-0.1-0.7-0.1
			c-0.2,0-0.3,0-0.5,0c-0.2,0-0.3,0.1-0.4,0.2s-0.2,0.2-0.3,0.3c-0.1,0.1-0.1,0.4-0.1,0.6c0,0.3,0.1,0.6,0.3,0.8
			c0.2,0.2,0.5,0.3,0.8,0.3h1V45.7z"/>
		<path d="M104.4,48c0,0.1-0.1,0.2-0.1,0.2s-0.1,0.1-0.2,0.2c-0.1,0.1-0.2,0.1-0.3,0.1c-0.1,0-0.3,0-0.4,0c-0.1,0-0.2,0-0.3,0
			c-0.1,0-0.3-0.1-0.4-0.1c-0.1,0-0.3-0.1-0.5-0.1h-1.6v-0.4h1c0-0.1-0.1-0.2-0.1-0.5c0-0.2-0.1-0.4-0.1-0.7c0-0.2,0-0.5,0.1-0.7
			c0.1-0.2,0.2-0.4,0.4-0.5c0.2-0.1,0.4-0.2,0.6-0.3c0.2-0.1,0.5-0.1,0.8-0.1c0.3,0,0.5,0,0.7,0.1c0.2,0.1,0.4,0.1,0.5,0.1v2.2
			c0,0,0,0,0.1,0.1s0.1,0.1,0.2,0.1c0.1,0,0.2,0.1,0.3,0.1s0.3,0,0.5,0h0.1v0.4h-0.1c-0.1,0-0.1,0-0.2,0c-0.1,0-0.2,0-0.3,0
			s-0.2-0.1-0.3-0.1S104.5,48,104.4,48z M104,45.7c-0.1,0-0.2,0-0.3,0c-0.1,0-0.3,0-0.4,0c-0.3,0-0.5,0-0.7,0.1
			c-0.2,0.1-0.3,0.2-0.5,0.3c-0.1,0.1-0.2,0.2-0.3,0.4c-0.1,0.1-0.1,0.3-0.1,0.4c0,0.2,0,0.4,0.1,0.6c0,0.2,0.1,0.4,0.1,0.5
			c0.2,0.1,0.4,0.1,0.6,0.2c0.2,0.1,0.4,0.1,0.6,0.1c0.2,0,0.4-0.1,0.5-0.2c0.1-0.1,0.2-0.3,0.2-0.5V45.7z"/>
		<path d="M109.9,48c0,0.1-0.1,0.2-0.2,0.3c-0.1,0-0.2,0.1-0.4,0.1h-3.8v-0.4h4v-0.8c0-0.2,0-0.4,0-0.6s-0.1-0.3-0.2-0.4
			c-0.1-0.1-0.2-0.2-0.4-0.3c-0.2-0.1-0.5-0.1-0.8-0.1c-0.3,0-0.5,0-0.8,0c-0.2,0-0.5,0.1-0.6,0.1c-0.1,0-0.2,0-0.2-0.1l-0.1-0.3
			c0.2-0.1,0.4-0.1,0.6-0.1c0.2,0,0.4-0.1,0.6-0.1s0.4,0,0.6,0c0.3,0,0.6,0,0.9,0.1c0.2,0.1,0.4,0.2,0.6,0.3
			c0.2,0.1,0.3,0.3,0.3,0.5c0.1,0.2,0.1,0.5,0.1,0.8v0.7c0.1,0.1,0.2,0.1,0.3,0.2c0.1,0,0.2,0.1,0.3,0.1s0.3,0,0.5,0h0.1v0.4h-0.1
			c-0.1,0-0.2,0-0.3,0c-0.1,0-0.2,0-0.3,0c-0.1,0-0.2-0.1-0.3-0.1C110.1,48.1,110,48.1,109.9,48z M107.8,49.3c0-0.1,0-0.2,0.1-0.2
			c0.1-0.1,0.2-0.1,0.3-0.1c0.1,0,0.2,0,0.3,0.1c0.1,0.1,0.1,0.1,0.1,0.2c0,0.1,0,0.2-0.1,0.2c-0.1,0.1-0.2,0.1-0.3,0.1
			c-0.1,0-0.2,0-0.3-0.1C107.8,49.4,107.8,49.4,107.8,49.3z"/>
		<path d="M117.5,46.7c0,0.3,0,0.5-0.1,0.7c-0.1,0.2-0.1,0.4-0.3,0.5c-0.1,0.1-0.3,0.2-0.5,0.3c-0.2,0.1-0.5,0.1-0.8,0.1
			c-0.1,0-0.1,0-0.2,0c-0.1,0-0.2,0-0.3,0s-0.2-0.1-0.3-0.1s-0.2-0.1-0.3-0.2c0,0.1-0.1,0.2-0.1,0.2c-0.1,0.1-0.1,0.1-0.2,0.2
			c-0.1,0.1-0.2,0.1-0.3,0.1c-0.1,0-0.3,0-0.4,0c-0.1,0-0.2,0-0.3,0c-0.1,0-0.3-0.1-0.4-0.1c-0.1,0-0.3-0.1-0.5-0.1h-1.6v-0.4h1
			c0-0.1-0.1-0.2-0.1-0.5c0-0.2-0.1-0.4-0.1-0.7c0-0.2,0-0.5,0.1-0.7c0.1-0.2,0.2-0.4,0.4-0.5c0.2-0.1,0.4-0.2,0.6-0.3
			c0.2-0.1,0.5-0.1,0.8-0.1c0.3,0,0.5,0,0.7,0.1c0.2,0.1,0.4,0.1,0.5,0.1v2.2c0,0,0,0,0.1,0.1s0.1,0.1,0.2,0.1
			c0.1,0,0.2,0.1,0.3,0.1s0.3,0,0.5,0c0.4,0,0.6-0.1,0.8-0.2c0.2-0.2,0.3-0.4,0.3-0.7v-3.4c0-0.1,0.1-0.2,0.2-0.2h0.3V46.7z
			 M114.3,45.7c-0.1,0-0.2,0-0.3,0c-0.1,0-0.3,0-0.4,0c-0.3,0-0.5,0-0.7,0.1c-0.2,0.1-0.3,0.2-0.5,0.3c-0.1,0.1-0.2,0.2-0.3,0.4
			c-0.1,0.1-0.1,0.3-0.1,0.4c0,0.2,0,0.4,0.1,0.6c0,0.2,0.1,0.4,0.1,0.5c0.2,0.1,0.4,0.1,0.6,0.2c0.2,0.1,0.4,0.1,0.6,0.1
			c0.2,0,0.4-0.1,0.5-0.2c0.1-0.1,0.2-0.3,0.2-0.5V45.7z"/>
		<path d="M119.3,48.2c0,0.1-0.1,0.2-0.2,0.2h-0.3v-4.8c0-0.1,0.1-0.2,0.2-0.2h0.3V48.2z"/>
	</g>
	<g>
		<path d="M0.9,39.8v-7.2h2.8c1.3,0,2.2,0.4,2.7,1.1c0.5,0.6,0.7,1.5,0.7,2.5c0,1.1-0.3,1.9-0.8,2.6c-0.3,0.4-0.6,0.6-1.1,0.8
			s-1,0.2-1.7,0.2H0.9z M1.7,39.2h1.7c0.6,0,1.1-0.1,1.4-0.2c0.3-0.1,0.6-0.3,0.9-0.6c0.4-0.5,0.6-1.3,0.6-2.2c0-1-0.2-1.8-0.7-2.3
			c-0.4-0.4-1.1-0.7-2-0.7h-2V39.2z"/>
		<path d="M9.5,36.5v3.3H8.7v-7.2H12c0.8,0,1.4,0.2,1.8,0.5c0.4,0.3,0.6,0.8,0.6,1.4c0,0.8-0.4,1.4-1.2,1.7c0.3,0.1,0.6,0.3,0.7,0.6
			c0.1,0.2,0.2,0.6,0.3,1l0.1,0.9c0,0.3,0.1,0.5,0.1,0.6s0.2,0.3,0.4,0.4h-1c-0.1-0.2-0.2-0.5-0.2-0.8l-0.1-0.8
			c-0.1-0.6-0.2-1-0.4-1.3c-0.2-0.2-0.6-0.3-1.1-0.3H9.5z M9.5,36h2.4c0.7,0,1.1-0.1,1.4-0.3c0.3-0.2,0.4-0.6,0.4-1s-0.1-0.8-0.4-1
			c-0.3-0.2-0.7-0.3-1.4-0.3H9.5V36z"/>
		<path d="M23.4,34.6h-0.8c0-0.4-0.2-0.8-0.4-1c-0.4-0.3-0.9-0.5-1.6-0.5c-0.6,0-1.1,0.1-1.5,0.4c-0.3,0.2-0.4,0.6-0.4,1
			c0,0.6,0.4,1,1.3,1.2l1.5,0.3c0.7,0.1,1.2,0.4,1.5,0.6c0.4,0.3,0.5,0.8,0.5,1.3c0,0.7-0.3,1.3-0.9,1.6c-0.5,0.3-1.2,0.5-2,0.5
			c-1.1,0-1.9-0.3-2.4-0.9c-0.3-0.4-0.5-0.9-0.5-1.6h0.8c0,1.3,0.8,1.9,2.2,1.9c0.7,0,1.2-0.2,1.5-0.5c0.3-0.3,0.5-0.6,0.5-1
			c0-0.4-0.1-0.6-0.4-0.8c-0.3-0.2-0.7-0.4-1.2-0.5l-1.4-0.3C18.6,36,18,35.4,18,34.4c0-0.7,0.3-1.2,0.8-1.5
			c0.5-0.3,1.1-0.5,1.9-0.5c1.1,0,1.8,0.3,2.3,0.9C23.2,33.6,23.4,34.1,23.4,34.6z"/>
		<path d="M30.1,32.6h0.8v4.7c0,0.9-0.2,1.5-0.7,1.9c-0.5,0.5-1.3,0.7-2.2,0.7c-0.9,0-1.7-0.2-2.2-0.7c-0.5-0.4-0.7-1.1-0.7-1.9
			v-4.7h0.8v4.7c0,0.6,0.1,1.1,0.4,1.4c0.4,0.4,0.9,0.6,1.7,0.6c0.7,0,1.3-0.2,1.7-0.6c0.3-0.3,0.4-0.8,0.4-1.4V32.6z"/>
		<path d="M33.5,32.6v6.6h3.8v0.6h-4.6v-7.2H33.5z"/>
		<path d="M42.8,37.5h-3.4l-0.9,2.3h-0.8l3-7.2h0.8l3.1,7.2h-0.8L42.8,37.5z M42.5,37L41,33.4L39.6,37H42.5z"/>
		<path d="M46.4,32.6v7.2h-0.8v-7.2H46.4z"/>
		<path d="M52.2,39.8h-0.7L49,33.6c0,1.3,0.1,2.5,0.1,3.9v2.4h-0.7v-7.2h1l2.6,6.4l2.6-6.4h0.9v7.2h-0.7v-1.9c0-1.9,0-3.3,0.1-4.3
			L52.2,39.8z"/>
		<path d="M61.7,37.5h-3.4l-0.9,2.3h-0.8l3-7.2h0.8l3.1,7.2h-0.8L61.7,37.5z M61.5,37L60,33.4L58.5,37H61.5z"/>
		<path d="M70.6,39.8h-0.8l-4.6-6.3c0,0.5,0,1.4,0.1,2.9v3.4h-0.7v-7.2h0.8l4.5,6.3c0-0.8-0.1-1.8-0.1-3v-3.3h0.7V39.8z"/>
		<path d="M78.8,37.5h-3.4l-0.9,2.3h-0.8l3-7.2h0.8l3.1,7.2h-0.8L78.8,37.5z M78.6,37l-1.5-3.6L75.6,37H78.6z"/>
		<path d="M82.5,32.6v6.6h3.8v0.6h-4.6v-7.2H82.5z"/>
		<path d="M94.5,36.3h-4.3v3.5h-0.8v-7.2h0.8v3.1h4.3v-3.1h0.8v7.2h-0.8V36.3z"/>
		<path d="M101.5,37.5H98l-0.9,2.3h-0.8l3-7.2h0.8l3.1,7.2h-0.8L101.5,37.5z M101.2,37l-1.5-3.6L98.3,37H101.2z"/>
		<path d="M104.3,39.8v-7.2h3.2c0.8,0,1.4,0.2,1.7,0.5c0.4,0.3,0.6,0.8,0.6,1.3c0,0.8-0.4,1.3-1.1,1.6c1,0.3,1.5,0.9,1.5,1.8
			c0,0.7-0.2,1.2-0.7,1.5c-0.4,0.3-1.1,0.5-2,0.5H104.3z M105.1,35.8h2.3c0.6,0,1.1-0.1,1.3-0.4c0.2-0.2,0.3-0.5,0.3-0.9
			c0-0.4-0.1-0.6-0.3-0.9c-0.3-0.3-0.7-0.4-1.3-0.4h-2.3V35.8z M105.1,39.2h2.6c1.2,0,1.8-0.5,1.8-1.4s-0.6-1.4-1.8-1.4h-2.6V39.2z"
			/>
		<path d="M112.5,32.6v7.2h-0.8v-7.2H112.5z"/>
		<path d="M114.3,39.8v-7.2h3.2c0.8,0,1.4,0.2,1.7,0.5c0.4,0.3,0.6,0.8,0.6,1.3c0,0.8-0.4,1.3-1.1,1.6c1,0.3,1.5,0.9,1.5,1.8
			c0,0.7-0.2,1.2-0.7,1.5c-0.4,0.3-1.1,0.5-2,0.5H114.3z M115.1,35.8h2.3c0.6,0,1.1-0.1,1.3-0.4c0.2-0.2,0.3-0.5,0.3-0.9
			c0-0.4-0.1-0.6-0.3-0.9c-0.3-0.3-0.7-0.4-1.3-0.4h-2.3V35.8z M115.1,39.2h2.6c1.2,0,1.8-0.5,1.8-1.4s-0.6-1.4-1.8-1.4h-2.6V39.2z"
			/>
	</g>
</g>
</svg>
