<?xml version="1.0" encoding="utf-8"?>
<!-- Generator: Adobe Illustrator 24.3.0, SVG Export Plug-In . SVG Version: 6.00 Build 0)  -->
<svg version="1.1" id="Layer_1" xmlns="http://www.w3.org/2000/svg" xmlns:xlink="http://www.w3.org/1999/xlink" x="0px" y="0px"
	 viewBox="0 0 164 68" style="enable-background:new 0 0 164 68;" xml:space="preserve">
<style type="text/css">
	.st0{fill:none;}
	.st1{fill:#1E1F1C;}
	.st2{fill:#020203;}
	.st3{fill:#080808;}
	.st4{fill:none;stroke:#020100;stroke-width:0.5;stroke-miterlimit:10;}
	.st5{fill:#1D1D1B;}
	.st6{fill:#020101;}
	.st7{fill:#FFFFFF;stroke:#000000;stroke-width:0.25;stroke-miterlimit:10;}
	.st8{fill:none;stroke:#000000;stroke-width:0.5;stroke-miterlimit:10;}
</style>
<g>
	<g>
		<polygon points="71.4,34.3 68.1,39.8 66.1,43.2 63,48.3 60.2,43.7 63.3,38.6 65.4,35.1 68.7,29.6 		"/>
		<polygon points="86.8,8.5 83.9,13.4 76.3,26.1 73.2,31.3 70.4,26.7 73.5,21.5 78.3,13.4 68.7,13.4 69.7,15.1 71.3,17.8 68.2,23 
			66.6,20.3 62.5,13.4 59.5,8.5 		"/>
		<polygon points="86.4,0 83.1,5.4 54.2,5.4 56,8.5 64.8,23.3 66.4,25.9 63.1,31.4 61.1,34.9 58,40 56.4,37.3 42.1,13.4 39.2,8.5 
			45.3,8.5 48.2,13.4 59.5,32.2 61.6,28.8 52.4,13.4 49.4,8.5 47.6,5.4 44.3,0 		"/>
	</g>
	<g>
		<path d="M125,32c0,0.9-0.8,1.6-1.8,1.6h-1.7c-1,0-1.7-0.7-1.7-1.6v-3h-2.1v2.7c0,1-0.9,1.8-2,1.8h-1.3c-1.1,0-2-0.8-2-1.8V29
			l-2.1,0v3.8c0,0.4-0.4,0.7-0.8,0.7H106c0.2-0.4,0.2-0.8,0.2-1.3v-1.5c0-0.6-0.2-1.1-0.5-1.5c-0.4-0.5-1-0.9-1.8-1.1H91.8
			c-0.4,0-0.7-0.1-1-0.4c-0.2-0.2-0.3-0.4-0.3-0.7V26c0-0.6,0.6-1.1,1.3-1.1l2.1,0h2.8l1.7,0l-0.1-2l-1.8,0l-0.7,0l-4.6,0
			c-1.6,0-2.9,1.2-2.9,2.6l0,2.5c0,1.2,1,2.1,2.2,2.1h12.4c0.6,0.1,1,0.6,1,1.1v1.2c0,0.7-0.6,1.1-1.3,1.1H88.3v-1.8
			c0-2-1.8-3.6-4-3.6h-3c-2.2,0-4.1,1.6-4.1,3.7c0,2,1.8,3.6,4.1,3.6h4.8l0,0.3c-0.1,0.3-0.3,0.6-0.5,0.8c-1.4,1-4.9,0.5-5.8,0.3
			l-0.5,1.8c0.2,0,1.7,0.3,3.5,0.3c1.4,0,3-0.2,4.1-1c0.8-0.6,1.3-1.4,1.4-2.3v-0.2h21.2c0.9,0,1.7-0.4,2.2-1c0.7,0.6,1.7,1,2.8,1
			h1.4c1.1,0,2.2-0.5,2.8-1.3c0.6,0.8,1.7,1.3,2.9,1.3h1.7c2.1,0,3.8-1.5,3.8-3.4v-3.8H125V32z M86.2,33.6h-4.9c-1.1,0-2-0.8-2-1.8
			c0-1,0.9-1.8,2-1.8h3c1,0,1.9,0.8,1.9,1.7V33.6z"/>
		<path d="M136.6,28.2h-5v1.9h5c0.7,0,1.2,0.5,1.2,1.1v1.5c0,0.5-0.5,0.9-1.1,0.9h-8v1.9h8.1c1.7,0,3-1.2,3-2.7v-1.5
			C140,29.5,138.5,28.2,136.6,28.2z"/>
		<rect x="142" y="23.5" width="2.1" height="12"/>
		<path d="M141.8,37.9c0.1-0.5,0.6-0.6,1.1-0.6c0.8,0,1.5,0.1,2.3,0.4l0.5-0.9c-0.9-0.4-1.8-0.5-2.7-0.5c-1.2,0-2.1,0.5-2.3,1.4
			c-0.1,0.3,0,0.7,0.2,1H140v1h5.6v-1h-3.1C142.1,38.7,141.7,38.3,141.8,37.9z"/>
	</g>
	<g>
		<path d="M90.3,53.3v1.7h-9.7V44.8h9.8v1.7h-7.8V49h7.3v1.6h-7.3v2.7H90.3z"/>
		<path d="M91.9,55.1V44.8h6.5c3.4,0,5.7,1,5.7,5.1c0,3.1-1.1,5.2-5.7,5.2H91.9z M98.2,53.3c2.2,0,3.8-0.7,3.8-3.4
			c0-2-0.8-3.4-3.8-3.4h-4.3v6.8H98.2z"/>
		<path d="M116.4,51.8v0.3c0,1.9-1.9,3-5.6,3c-3.4,0-5.6-1.1-5.6-3.5v-0.4h2.3v0.4c0,1.2,1.2,1.8,3.3,1.8c1.9,0,3.1-0.4,3.1-1.4
			v-0.2c0-0.8-1.1-1.2-3.5-1.4c-3.2-0.3-5.1-1.1-5.1-2.6v-0.3c0-1.8,1.8-2.9,5.4-2.9c3.4,0,5.6,1.1,5.6,3.4v0.3h-2.2v-0.3
			c0-1.2-1.2-1.8-3.4-1.8c-1.8,0-3,0.3-3,1.3v0.1c0,0.6,1.1,1,3.4,1.2C114.4,49.3,116.4,50.3,116.4,51.8z"/>
		<path d="M124.4,53.5c2,0,3.3-0.6,3.5-1.6l2.1,0c-0.2,1.9-1.6,3.4-5.6,3.4c-4,0-6.7-1.2-6.7-5.3c0-3.2,1.5-5.3,6.6-5.3
			c3.4,0,5.6,1.2,5.7,4H128c-0.1-1.1-0.9-2.2-3.6-2.2c-2.8,0-4.6,0.8-4.6,3.6C119.8,52.1,120.8,53.5,124.4,53.5z"/>
		<path d="M131.2,49.9c0-3.2,2-5.3,6.9-5.3c4.1,0,6.9,1.5,6.9,5.3c0,3.2-2,5.3-6.9,5.3C133.9,55.2,131.2,53.7,131.2,49.9z
			 M133.2,49.9c0,2.2,1.4,3.6,4.9,3.6c2.9,0,4.9-1,4.9-3.6c0-2.2-1.4-3.6-4.9-3.6C135.2,46.4,133.2,47.4,133.2,49.9z"/>
	</g>
	<g>
		<g>
			<path d="M82.4,60c0,0.4-0.3,0.7-0.8,0.7h-0.5c-0.4,0-0.8-0.3-0.8-0.8c0-0.4,0.4-0.7,0.8-0.7h0.5C82.1,59.3,82.4,59.6,82.4,60z
				 M81.6,59.4h-0.5c-0.3,0-0.6,0.2-0.6,0.5s0.3,0.6,0.6,0.6h0.5c0.3,0,0.6-0.2,0.6-0.6S82,59.4,81.6,59.4z M81.1,58.9
				c0-0.1,0.1-0.1,0.1-0.1s0.1,0.1,0.1,0.1c0,0.1,0,0.1-0.1,0.1S81.1,58.9,81.1,58.9z M81.5,58.9c0-0.1,0.1-0.1,0.1-0.1
				c0.1,0,0.1,0.1,0.1,0.1c0,0.1-0.1,0.1-0.1,0.1C81.6,59,81.5,58.9,81.5,58.9z"/>
			<path d="M82.9,60.7v-0.2h1.6c0.2,0,0.4-0.2,0.4-0.3v-0.3c0-0.3-0.2-0.5-0.5-0.5h-0.8v-0.2h0.8c0.4,0,0.7,0.3,0.7,0.6v0.3
				c0,0.3-0.3,0.5-0.6,0.5H82.9z"/>
			<path d="M87.6,59.9v0.9c0,0.2-0.1,0.3-0.2,0.4c-0.2,0.1-0.5,0.2-0.8,0.2c-0.4,0-0.7-0.1-0.7-0.1l0-0.2c0.1,0,1,0.2,1.4-0.1
				c0.1-0.1,0.1-0.2,0.1-0.3v-0.1h-1.1c-0.4,0-0.8-0.3-0.8-0.7c0-0.4,0.4-0.7,0.8-0.7h0.5C87.2,59.2,87.6,59.5,87.6,59.9z
				 M87.4,59.9c0-0.3-0.3-0.5-0.6-0.5h-0.5c-0.3,0-0.6,0.3-0.6,0.6c0,0.3,0.3,0.6,0.6,0.6h1.1V59.9z"/>
			<path d="M90.5,60.5v0.2H88v-0.2h2v-0.7c0-0.3-0.2-0.5-0.5-0.5h-0.8v-0.2h0.8c0.4,0,0.7,0.3,0.7,0.6v0.7H90.5z"/>
			<path d="M93.5,60.7h-3.1v-0.2h2.4c-0.1-0.1-0.2-0.2-0.3-0.4c-0.1-0.1-0.2-0.3-0.3-0.4c-0.5-0.6-1.4-0.3-1.4-0.3l0-0.2
				c0,0,1.1-0.3,1.6,0.4c0.1,0.1,0.2,0.3,0.3,0.4c0.1,0.1,0.1,0.2,0.1,0.3c0.1,0.1,0.2,0.2,0.3,0.2h0.3V60.7z"/>
			<path d="M96.5,60.5v0.2h-0.1c-0.2,0-0.3-0.1-0.4-0.3c-0.1,0.2-0.4,0.3-0.6,0.3h-0.7c-0.3,0-0.5-0.1-0.7-0.3
				c-0.1,0.2-0.2,0.3-0.4,0.3h-0.2v-0.2h0.2c0.2,0,0.3-0.1,0.3-0.3V60c0-0.4,0.4-0.7,0.8-0.7h0.7c0.4,0,0.8,0.3,0.8,0.7v0.3
				c0,0.1,0.1,0.2,0.3,0.2H96.5z M95.9,60c0-0.3-0.3-0.6-0.6-0.6h-0.7c-0.3,0-0.6,0.2-0.6,0.6v0.2c0.1,0.2,0.3,0.3,0.6,0.3l0.7,0
				C95.7,60.5,95.9,60.3,95.9,60z"/>
			<path d="M97,60.4c0,0.2-0.1,0.3-0.3,0.3h-0.3v-0.2h0.2c0.1,0,0.2-0.1,0.2-0.1v-1.8H97V60.4z"/>
			<path d="M97.7,60.7v-2.2h0.2v2.2H97.7z"/>
			<path d="M101.4,60.5v0.2h-0.3c-0.2,0-0.3-0.1-0.4-0.3l0,0c-0.1,0.2-0.3,0.3-0.6,0.3h-0.5c-0.4,0-0.7-0.3-0.7-0.7
				c0-0.4,0.3-0.7,0.7-0.7h1.3v1c0,0.1,0.1,0.2,0.2,0.2H101.4z M100.7,60v-0.5h-1.1c-0.3,0-0.6,0.2-0.6,0.5c0,0.3,0.2,0.5,0.6,0.5
				h0.5C100.4,60.5,100.7,60.3,100.7,60z M99.7,58.8c0-0.1,0.1-0.1,0.1-0.1s0.1,0.1,0.1,0.1c0,0.1,0,0.1-0.1,0.1
				S99.7,58.9,99.7,58.8z M100.1,58.8c0-0.1,0.1-0.1,0.1-0.1c0.1,0,0.1,0.1,0.1,0.1c0,0.1-0.1,0.1-0.1,0.1
				C100.1,58.9,100.1,58.9,100.1,58.8z"/>
			<path d="M101.9,59.1v1.2c0,0.2-0.2,0.3-0.4,0.3h-0.3v-0.2h0.3c0.1,0,0.2-0.1,0.2-0.2v-1.2H101.9z M101.3,61
				c0-0.1,0.1-0.1,0.1-0.1c0.1,0,0.1,0.1,0.1,0.1c0,0.1-0.1,0.1-0.1,0.1C101.4,61.1,101.3,61,101.3,61z M101.8,61
				c0-0.1,0.1-0.1,0.1-0.1s0.1,0.1,0.1,0.1c0,0.1-0.1,0.1-0.1,0.1S101.8,61,101.8,61z"/>
			<path d="M102.3,60.7v-0.2h1.6c0.2,0,0.4-0.2,0.4-0.3v-0.3c0-0.3-0.2-0.5-0.5-0.5h-0.8v-0.2h0.8c0.4,0,0.7,0.3,0.7,0.6v0.3
				c0,0.3-0.3,0.5-0.6,0.5H102.3z"/>
			<path d="M107.3,60.7H107v0.1c0,0.2-0.1,0.3-0.2,0.4c-0.2,0.1-0.5,0.2-0.8,0.2c-0.4,0-0.7-0.1-0.7-0.1l0-0.2c0.1,0,1,0.2,1.4-0.1
				c0.1-0.1,0.1-0.2,0.1-0.3v-0.1h-1.1c-0.4,0-0.8-0.3-0.8-0.7c0-0.4,0.4-0.7,0.8-0.7h0.5c0.4,0,0.8,0.3,0.8,0.7v0.6h0.4V60.7z
				 M106.8,59.9c0-0.3-0.3-0.5-0.6-0.5h-0.5c-0.3,0-0.6,0.3-0.6,0.6c0,0.3,0.3,0.6,0.6,0.6h1.1V59.9z"/>
			<path d="M107.2,60.7v-0.2h0.3c0.2,0,0.5,0,0.7-0.1c-0.4-0.2-0.7-0.6-0.7-0.9l0.1-0.1c0.3-0.1,0.6-0.2,1-0.2
				c0.4,0,0.8,0.1,0.9,0.3c0.1,0.1,0.1,0.2,0,0.4c-0.1,0.3-0.4,0.4-0.8,0.6c0.1,0,0.3,0.1,0.5,0.1h0.5v0.2h-0.6
				c-0.3,0-0.5-0.1-0.7-0.1c-0.3,0.1-0.6,0.1-0.9,0.1H107.2z M108.5,60.4c0.3-0.1,0.7-0.3,0.9-0.5c0.1-0.1,0.1-0.2,0-0.3
				c-0.1-0.1-0.4-0.2-0.8-0.2c-0.4,0-0.6,0.1-0.9,0.2C107.8,59.7,108,60.2,108.5,60.4z"/>
			<path d="M114,60.5v0.2h-0.2c-0.2,0-0.4-0.1-0.5-0.3c-0.1,0.2-0.4,0.3-0.6,0.3h-0.2c-0.3,0-0.5-0.2-0.6-0.4
				c-0.1,0.2-0.4,0.4-0.6,0.4H111c-0.3,0-0.5-0.1-0.6-0.3c0,0.2-0.2,0.3-0.4,0.3h-0.2v-0.2h0.2c0.2,0,0.3-0.1,0.3-0.3v-0.8h0.2V60
				c0,0.3,0.2,0.5,0.5,0.5h0.2c0.3,0,0.6-0.2,0.6-0.5v-0.5h0.2V60c0,0.3,0.2,0.5,0.5,0.5h0.2c0.3,0,0.5-0.2,0.5-0.5v-0.8h0.2v0.9
				c0,0.2,0.2,0.4,0.4,0.4H114z"/>
			<path d="M114.5,60.4c0,0.2-0.1,0.3-0.3,0.3h-0.3v-0.2h0.2c0.1,0,0.2-0.1,0.2-0.1v-1.8h0.2V60.4z"/>
			<path d="M115.2,60.7v-2.2h0.2v2.2H115.2z"/>
			<path d="M116.7,58.5v1.8c0,0.1,0.1,0.1,0.2,0.1h0.2v0.2h-0.3c-0.2,0-0.3-0.1-0.3-0.3v-1.9H116.7z"/>
			<path d="M117.9,60.5v0.2h-0.2c-0.1,0-0.2-0.1-0.3-0.1c-0.1,0.1-0.2,0.1-0.3,0.1h-0.2v-0.2h0.2c0.1,0,0.2-0.1,0.2-0.2v-1.1h0.2v1
				c0,0.1,0.1,0.2,0.2,0.2H117.9z M117.1,58.8c0-0.1,0.1-0.1,0.1-0.1c0.1,0,0.1,0.1,0.1,0.1c0,0.1-0.1,0.1-0.1,0.1
				C117.2,58.9,117.1,58.9,117.1,58.8z M117.6,58.8c0-0.1,0.1-0.1,0.1-0.1c0.1,0,0.1,0.1,0.1,0.1c0,0.1,0,0.1-0.1,0.1
				C117.6,58.9,117.6,58.9,117.6,58.8z"/>
			<path d="M118.5,60.4c0,0.2-0.1,0.3-0.3,0.3h-0.3v-0.2h0.2c0.1,0,0.2-0.1,0.2-0.1v-1.8h0.2V60.4z"/>
			<path d="M121.4,60.5v0.2H119v-0.2h2v-0.7c0-0.3-0.2-0.5-0.5-0.5h-0.8v-0.2h0.8c0.4,0,0.7,0.3,0.7,0.6v0.7H121.4z"/>
			<path d="M122,60.4c0,0.2-0.1,0.3-0.3,0.3h-0.3v-0.2h0.2c0.1,0,0.2-0.1,0.2-0.1v-1.8h0.2V60.4z"/>
			<path d="M122.7,60.7v-2.2h0.2v2.2H122.7z"/>
			<path d="M127,60l0,1c0,0.3-0.2,0.5-0.5,0.5h-2.2c-0.3,0-0.5-0.2-0.5-0.5v-0.8h0.2V61c0,0.2,0.1,0.3,0.3,0.3h2.2
				c0.2,0,0.3-0.1,0.3-0.3v-0.3h-1.1c-0.4,0-0.8-0.3-0.8-0.7c0-0.4,0.4-0.7,0.8-0.7h0.5C126.7,59.2,127,59.6,127,60z M126.8,60
				c0-0.3-0.3-0.6-0.6-0.6h-0.5c-0.3,0-0.6,0.3-0.6,0.6s0.3,0.6,0.6,0.6h1.1V60z M125.7,58.8c0-0.1,0.1-0.1,0.1-0.1s0.1,0.1,0.1,0.1
				c0,0.1,0,0.1-0.1,0.1S125.7,58.9,125.7,58.8z M126.1,58.8c0-0.1,0.1-0.1,0.1-0.1c0.1,0,0.1,0.1,0.1,0.1c0,0.1-0.1,0.1-0.1,0.1
				C126.2,58.9,126.1,58.9,126.1,58.8z"/>
			<path d="M128.7,60.7h-0.4v0.1c0,0.2-0.1,0.4-0.2,0.5c-0.1,0.1-0.3,0.1-0.5,0.1c-0.2,0-0.4,0-0.4-0.1l0.1-0.2c0,0,0.5,0.1,0.8-0.1
				c0.1-0.1,0.2-0.2,0.2-0.3v-1.6h0.2v1.3h0.4V60.7z"/>
			<path d="M132.3,59.2V60c0,0.4-0.3,0.7-0.7,0.7h-0.2c-0.3,0-0.5-0.2-0.6-0.4c-0.1,0.2-0.4,0.4-0.6,0.4h-0.2
				c-0.3,0-0.5-0.1-0.6-0.3c0,0.2-0.2,0.3-0.4,0.3h-0.2v-0.2h0.2c0.2,0,0.3-0.1,0.3-0.3v-0.8h0.2V60c0,0.3,0.2,0.5,0.5,0.5h0.2
				c0.3,0,0.6-0.2,0.6-0.5v-0.5h0.2V60c0,0.3,0.2,0.5,0.5,0.5h0.2c0.3,0,0.5-0.2,0.5-0.5v-0.8H132.3z M130.4,58.8
				c0-0.1,0.1-0.1,0.1-0.1c0.1,0,0.1,0.1,0.1,0.1c0,0.1-0.1,0.1-0.1,0.1C130.5,59,130.4,58.9,130.4,58.8z M130.6,58.5
				c0-0.1,0.1-0.1,0.1-0.1c0.1,0,0.1,0,0.1,0.1s-0.1,0.1-0.1,0.1C130.7,58.7,130.6,58.6,130.6,58.5z M130.8,58.8
				c0-0.1,0.1-0.1,0.1-0.1c0.1,0,0.1,0.1,0.1,0.1c0,0.1-0.1,0.1-0.1,0.1C130.9,59,130.8,58.9,130.8,58.8z"/>
			<path d="M135.7,60.5v0.2h-0.3c-0.2,0-0.3-0.1-0.4-0.3l0,0c-0.1,0.2-0.3,0.3-0.6,0.3h-0.5c-0.4,0-0.7-0.3-0.7-0.7
				c0-0.4,0.3-0.7,0.7-0.7h1.3v1c0,0.1,0.1,0.2,0.2,0.2H135.7z M135,60v-0.5h-1.1c-0.3,0-0.6,0.2-0.6,0.5c0,0.3,0.2,0.5,0.6,0.5h0.5
				C134.7,60.5,135,60.3,135,60z M134,58.8c0-0.1,0.1-0.1,0.1-0.1s0.1,0.1,0.1,0.1c0,0.1,0,0.1-0.1,0.1S134,58.9,134,58.8z
				 M134.4,58.8c0-0.1,0.1-0.1,0.1-0.1c0.1,0,0.1,0.1,0.1,0.1c0,0.1-0.1,0.1-0.1,0.1C134.5,58.9,134.4,58.9,134.4,58.8z"/>
			<path d="M135.6,60.7v-0.2h2.5c0.3,0,0.5-0.2,0.5-0.4v-0.2c0-0.2-0.2-0.4-0.5-0.4l-2.2,0l-0.1-0.2l1-1.1l0.1,0.1l-0.9,1l2.1,0
				c0.3,0,0.6,0.3,0.6,0.6v0.3c0,0.3-0.3,0.6-0.6,0.6H135.6z"/>
			<path d="M140.3,60.7h-0.4v0.1c0,0.2-0.1,0.4-0.2,0.5c-0.1,0.1-0.3,0.1-0.5,0.1c-0.2,0-0.4,0-0.4-0.1l0.1-0.2c0,0,0.5,0.1,0.8-0.1
				c0.1-0.1,0.2-0.2,0.2-0.3v-1.6h0.2v1.3h0.4V60.7z"/>
			<path d="M143.9,59.2V60c0,0.4-0.3,0.7-0.7,0.7h-0.2c-0.3,0-0.5-0.2-0.6-0.4c-0.1,0.2-0.4,0.4-0.6,0.4h-0.2
				c-0.3,0-0.5-0.1-0.6-0.3c0,0.2-0.2,0.3-0.4,0.3h-0.2v-0.2h0.2c0.2,0,0.3-0.1,0.3-0.3v-0.8h0.2V60c0,0.3,0.2,0.5,0.5,0.5h0.2
				c0.3,0,0.6-0.2,0.6-0.5v-0.5h0.2V60c0,0.3,0.2,0.5,0.5,0.5h0.2c0.3,0,0.5-0.2,0.5-0.5v-0.8H143.9z M142,58.8
				c0-0.1,0.1-0.1,0.1-0.1c0.1,0,0.1,0.1,0.1,0.1c0,0.1-0.1,0.1-0.1,0.1C142,59,142,58.9,142,58.8z M142.2,58.5
				c0-0.1,0.1-0.1,0.1-0.1c0.1,0,0.1,0,0.1,0.1s-0.1,0.1-0.1,0.1C142.3,58.7,142.2,58.6,142.2,58.5z M142.4,58.8
				c0-0.1,0.1-0.1,0.1-0.1c0.1,0,0.1,0.1,0.1,0.1c0,0.1-0.1,0.1-0.1,0.1C142.5,59,142.4,58.9,142.4,58.8z"/>
		</g>
	</g>
	<g>
		<path d="M83.4,66.1v0.2h-2.5v-2.7h2.6v0.2h-2.4v1h2.2V65h-2.2v1.1H83.4z"/>
		<path d="M86.4,65.5h-1.9L84,66.3h-0.3l1.6-2.7h0.3l1.5,2.7h-0.3L86.4,65.5z M86.3,65.3l-0.8-1.5l-0.9,1.5H86.3z"/>
		<path d="M90.3,65.4L90.3,65.4c0,0.6-0.6,0.8-1.5,0.8c-0.9,0-1.5-0.3-1.5-0.9v-0.1h0.3v0.1c0,0.5,0.5,0.7,1.2,0.7
			c0.7,0,1.2-0.1,1.2-0.6v0c0-0.4-0.4-0.5-1.3-0.5c-0.9-0.1-1.4-0.2-1.4-0.6v0c0-0.5,0.5-0.7,1.4-0.7c0.9,0,1.5,0.3,1.5,0.9v0.1
			h-0.2v-0.1c0-0.5-0.5-0.7-1.2-0.7c-0.7,0-1.2,0.1-1.2,0.5v0c0,0.3,0.4,0.4,1.2,0.4C89.8,64.8,90.3,65,90.3,65.4z"/>
		<path d="M93.6,63.8h-1.4v2.5H92v-2.5h-1.3v-0.2h2.9V63.8z"/>
		<path d="M94.4,66.3v-2.7h1.7c0.9,0,1.5,0.3,1.5,1.4c0,0.8-0.3,1.4-1.5,1.4H94.4z M96.1,66.1c0.8,0,1.3-0.2,1.3-1.2
			c0-0.7-0.3-1.1-1.3-1.1h-1.5v2.3H96.1z"/>
		<path d="M100.6,66.1v0.2h-2.5v-2.7h2.6v0.2h-2.4v1h2.2V65h-2.2v1.1H100.6z"/>
		<path d="M101.1,66.3v-2.8h0.2v2.5h2.3v0.2H101.1z"/>
		<path d="M106.7,63.8h-1.4v2.5h-0.2v-2.5h-1.3v-0.2h2.9V63.8z"/>
		<path d="M109.5,65.5h-1.9l-0.5,0.8h-0.3l1.6-2.7h0.3l1.5,2.7H110L109.5,65.5z M109.4,65.3l-0.8-1.5l-0.9,1.5H109.4z"/>
		<path d="M114,65.4L114,65.4c0,0.6-0.6,0.8-1.5,0.8c-0.9,0-1.5-0.3-1.5-0.9v-0.1h0.3v0.1c0,0.5,0.5,0.7,1.2,0.7
			c0.7,0,1.2-0.1,1.2-0.6v0c0-0.4-0.4-0.5-1.3-0.5c-0.9-0.1-1.4-0.2-1.4-0.6v0c0-0.5,0.5-0.7,1.4-0.7c0.9,0,1.5,0.3,1.5,0.9v0.1
			h-0.2v-0.1c0-0.5-0.5-0.7-1.2-0.7c-0.7,0-1.2,0.1-1.2,0.5v0c0,0.3,0.4,0.4,1.2,0.4C113.4,64.8,114,65,114,65.4z"/>
		<path d="M116.9,65.5H115l-0.5,0.8h-0.3l1.6-2.7h0.3l1.5,2.7h-0.3L116.9,65.5z M116.8,65.3l-0.8-1.5l-0.9,1.5H116.8z"/>
		<path d="M117.9,65.1v-1.6h0.2v1.5c0,0.6,0.4,1,1.2,1c0.7,0,1.1-0.3,1.1-1v-1.5h0.2v1.6c0,0.7-0.4,1.2-1.4,1.2
			C118.5,66.3,117.9,66,117.9,65.1z"/>
		<path d="M121.2,66.3v-2.7h1.7c0.9,0,1.5,0.3,1.5,1.4c0,0.8-0.3,1.4-1.5,1.4H121.2z M122.9,66.1c0.8,0,1.3-0.2,1.3-1.2
			c0-0.7-0.3-1.1-1.3-1.1h-1.5v2.3H122.9z"/>
		<path d="M124.9,66.3v-2.7h0.2v2.7H124.9z"/>
		<path d="M127.8,66.1c0.6,0,1-0.1,1.2-0.5l0.2,0c-0.1,0.4-0.5,0.7-1.4,0.7c-1,0-1.7-0.3-1.7-1.4c0-0.8,0.3-1.4,1.6-1.4
			c0.9,0,1.5,0.2,1.5,1h-0.2c-0.1-0.4-0.4-0.8-1.3-0.8c-0.8,0-1.4,0.2-1.4,1.2C126.4,65.6,126.7,66.1,127.8,66.1z"/>
		<path d="M129.6,64.9c0-0.8,0.4-1.4,1.8-1.4c1.1,0,1.8,0.3,1.8,1.4c0,0.8-0.4,1.4-1.8,1.4C130.4,66.3,129.6,66,129.6,64.9z
			 M129.9,64.9c0,0.7,0.4,1.2,1.6,1.2c1,0,1.6-0.3,1.6-1.2c0-0.7-0.4-1.2-1.6-1.2C130.5,63.7,129.9,64,129.9,64.9z"/>
		<path d="M133.9,66.1c0-0.1,0.1-0.1,0.2-0.1c0.1,0,0.2,0.1,0.2,0.1c0,0.1-0.1,0.1-0.2,0.1C133.9,66.3,133.9,66.2,133.9,66.1z"/>
		<path d="M134.8,66.3v-2.8h0.2v2.5h2.3v0.2H134.8z"/>
		<path d="M140.3,63.8H139v2.5h-0.2v-2.5h-1.3v-0.2h2.9V63.8z"/>
		<path d="M140.7,66.3v-2.7h1.7c0.9,0,1.5,0.3,1.5,1.4c0,0.8-0.3,1.4-1.5,1.4H140.7z M142.4,66.1c0.8,0,1.3-0.2,1.3-1.2
			c0-0.7-0.3-1.1-1.3-1.1h-1.5v2.3H142.4z"/>
	</g>
</g>
</svg>
