<?xml version="1.0" encoding="utf-8"?>
<!-- Generator: Adobe Illustrator 24.3.0, SVG Export Plug-In . SVG Version: 6.00 Build 0)  -->
<svg version="1.1" id="Layer_1" xmlns="http://www.w3.org/2000/svg" xmlns:xlink="http://www.w3.org/1999/xlink" x="0px" y="0px"
	 viewBox="0 0 164 68" style="enable-background:new 0 0 164 68;" xml:space="preserve">
<style type="text/css">
	.st0{fill:none;}
	.st1{fill:#1E1F1C;}
	.st2{fill:#020203;}
	.st3{fill:#080808;}
	.st4{fill:none;stroke:#020100;stroke-width:0.5;stroke-miterlimit:10;}
	.st5{fill:#1D1D1B;}
	.st6{fill:#020101;}
	.st7{fill:#FFFFFF;stroke:#000000;stroke-width:0.25;stroke-miterlimit:10;}
	.st8{fill:none;stroke:#000000;stroke-width:0.5;stroke-miterlimit:10;}
</style>
<g>
	<rect x="-0.9" y="12.3" class="st0" width="165.8" height="43.4"/>
	<g>
		<path class="st1" d="M46.4,52.8L2.5,52.7L24.2,15L46.4,52.8z M3.1,52.5l42.6,0.1L24.2,15.7L3.1,52.5z"/>
		<path class="st1" d="M20.2,49.5c-0.7,0-1.5,0-2.2,0c0-1.7,0-3.5,0-5.1c1,0,2.1,0,3.1,0c0-1.2,0-2.4,0-3.6c-1-1-2-2-3.1-3.1
			c0-1.8,0-3.7-0.1-5.4c2-3.6,4-7.1,6-10.7c0.1,3.7,0.1,7.2,0.2,10.9c-1.1,0-2.2,0.4-2.4,1.1c-0.4,1,0.6,2.8,2.9,3.6
			c0,4.1,0,8.3-0.1,12.4C23.1,49.6,21.7,49.6,20.2,49.5z"/>
		<path class="st1" d="M11.6,49.3c-1.2,0-2.4,0-3.6,0.1c1.3-2.3,2.7-4.5,3.9-6.9c0,0.8,0.1,1.6,0.1,2.5c-0.3,0-0.6,0-0.9,0
			c-0.2,0.6-0.4,1.1-0.5,1.7c0.4,0,0.8,0.1,1.2,0.1c0,0.2,0,0.5,0,0.7c-0.5,0-0.9,0-1.4,0c0,0.5,0,1,0,1.5c0.5,0,0.9,0,1.4,0
			c0,0.1,0,0.3,0,0.4C11.8,49.3,11.7,49.3,11.6,49.3z"/>
		<path class="st1" d="M15.8,49.4c-0.8,0-1.6,0-2.4-0.1c0-3.2,0-6.2,0-9.4c0.6-1.1,1.2-2.2,1.8-3.3c0,3.8,0,7.8-0.1,11.6
			c0.4,0,0.9,0,1.3,0c0,0.3,0,0.7,0,1C16.3,49.4,16,49.4,15.8,49.4z"/>
		<path class="st1" d="M30,47.3c0,0.7,0,1.4,0,2.1c-1.5,0-3,0-4.4,0c0-9,0-18-0.1-26.8c1.5,2.4,3,4.8,4.4,7.2c0,2.2,0,4.3,0,6.5
			c-0.6,0-1.2,0-1.7,0c0,0.7,0,1.4,0,2.1c0.6,0,1.2,0,1.7,0c0,1.3,0,2.5,0,3.7c-0.5,0-1.1,0-1.6,0c0,0.9,0,1.8,0,2.7
			c0.6,0,1.2,0,1.8,0C30,45.5,30,46.4,30,47.3z"/>
		<path class="st1" d="M31.9,49.5c-0.2,0-0.5,0-0.7,0c0,0,0-8.3,0-16.8c0.7,1.2,1.4,2.3,2.1,3.5c0,4.4,0,9-0.1,13.4
			C32.8,49.5,32.4,49.5,31.9,49.5z"/>
		<path class="st1" d="M36.6,47.4c-0.1,0-0.2,0-0.3,0c0,0.8,0,1.5,0,2.3c-0.6,0-1.2,0-1.9,0c0-3.9,0-7.8,0-11.7
			c1.2,2.1,2.4,4,3.7,6.1c-0.7,0-1.4,0-2,0c0,0.6,0,1.3,0,1.9c0.4,0,0.9,0,1.3,0c0.2,0.2,0.3,0.3,0.5,0.5c0,0.4,0,0.8,0.1,1.1
			C37.4,47.4,37,47.4,36.6,47.4z"/>
	</g>
	<g>
		<path class="st2" d="M59.6,29.8v4c0,0.8-0.2,1.4-0.7,1.8c-0.5,0.4-1.1,0.7-1.9,0.7h-0.9c-0.9,0-1.5-0.2-2-0.7
			c-0.4-0.4-0.6-1-0.6-1.8v-1.7l0.6-0.5h0.6v2.1c0,0.6,0.2,1,0.5,1.3c0.3,0.2,0.8,0.4,1.5,0.4c0.7,0,1.2-0.1,1.5-0.3
			c0.3-0.3,0.5-0.7,0.5-1.3v-3.9L59.6,29.8L59.6,29.8z M56.4,29.7c0.2,0,0.3,0.1,0.4,0.2c0.1,0.1,0.2,0.3,0.2,0.4s-0.1,0.3-0.2,0.4
			c-0.1,0.1-0.3,0.2-0.4,0.2c-0.2,0-0.3-0.1-0.4-0.2c-0.1-0.1-0.2-0.3-0.2-0.4s0.1-0.3,0.2-0.4C56.1,29.8,56.3,29.7,56.4,29.7z"/>
		<path class="st2" d="M62.9,34c-0.7,0-1.2-0.2-1.6-0.7c-0.3-0.4-0.5-0.9-0.5-1.5c0-0.7,0.2-1.3,0.6-1.6c0.4-0.4,0.9-0.6,1.6-0.6
			c0.5,0,0.9,0.1,1.2,0.3c0.5,0.3,0.7,0.8,0.7,1.4V33h0.3v1h-0.3c0,0.7-0.3,1.2-0.7,1.6c-0.3,0.3-0.7,0.5-1.1,0.6
			c-0.3,0.1-0.6,0.1-0.9,0.1c-0.1,0-0.2,0-0.4,0l0,0l-0.5-0.6v-0.4c0.3,0,0.5,0.1,0.7,0.1c1,0,1.6-0.4,1.7-1.3L62.9,34L62.9,34z
			 M63.7,31.3c0-0.3-0.1-0.4-0.2-0.6c-0.1-0.1-0.3-0.2-0.5-0.2c-0.3,0-0.6,0.1-0.8,0.3C62.1,31,62,31.3,62,31.7s0.1,0.7,0.3,0.9
			c0.2,0.2,0.5,0.3,0.8,0.3h0.6L63.7,31.3L63.7,31.3z"/>
		<path class="st2" d="M67.9,27.4V33c0,0.3-0.1,0.5-0.3,0.7c-0.2,0.2-0.4,0.4-0.8,0.4H65v-1h1.4c0.1,0,0.1,0,0.2-0.1
			c0,0,0.1-0.1,0.1-0.2v-5.4C66.7,27.4,67.9,27.4,67.9,27.4z"/>
		<path class="st2" d="M71.9,34c-0.3,0.1-0.5,0.1-0.8,0.1c-0.7,0-1.2-0.3-1.6-0.8c-0.3-0.4-0.5-0.9-0.5-1.5s0.2-1.2,0.6-1.6
			c0.4-0.4,0.9-0.6,1.6-0.6c0.5,0,0.9,0.1,1.3,0.4c0.4,0.3,0.6,0.8,0.6,1.4v2.5c0,0.8-0.3,1.4-0.8,1.9c-0.3,0.3-0.7,0.4-1.1,0.5
			c-0.2,0.1-0.5,0.1-0.7,0.1c-0.1,0-0.2,0-0.3,0l-0.5-0.6v-0.4c0.2,0,0.4,0,0.6,0C71.2,35.3,71.8,34.9,71.9,34z M71.9,31.3
			c0-0.3-0.1-0.5-0.3-0.6c-0.1-0.1-0.3-0.2-0.5-0.2c-0.3,0-0.6,0.1-0.8,0.3c-0.2,0.2-0.3,0.5-0.3,0.9s0.1,0.7,0.3,1
			c0.2,0.3,0.5,0.4,0.9,0.4c0.2,0,0.4,0,0.6-0.1L71.9,31.3C71.8,31.3,71.9,31.3,71.9,31.3z"/>
		<path class="st2" d="M75.3,27.4v5.4c0,0.1,0,0.1,0.1,0.2c0,0.1,0.1,0.1,0.2,0.1h0.2v1h-0.6c-0.3,0-0.5-0.1-0.7-0.3
			c-0.2-0.2-0.3-0.5-0.3-0.8v-5.6H75.3z"/>
		<path class="st2" d="M77.6,33.1c-0.3-0.4-0.4-0.8-0.4-1.4c0-0.5,0.1-0.9,0.4-1.3c0.4-0.6,1-0.9,1.7-0.9c0.6,0,1,0.2,1.4,0.5
			c0.4,0.4,0.7,0.9,0.7,1.6c0,0.5-0.1,1-0.4,1.4h0.6v1h-1.4c-0.4,0-0.7,0-0.9-0.1l0,0C79,34,78.7,34,78.3,34h-2.6v-1L77.6,33.1
			C77.6,33,77.6,33.1,77.6,33.1z M78.5,27.7c0.2,0,0.3,0.1,0.4,0.2c0.1,0.1,0.2,0.3,0.2,0.4c0,0.2-0.1,0.3-0.2,0.4
			c-0.1,0.1-0.3,0.2-0.4,0.2c-0.2,0-0.3-0.1-0.4-0.2c-0.1-0.1-0.2-0.3-0.2-0.4c0-0.2,0.1-0.3,0.2-0.4C78.3,27.8,78.3,27.7,78.5,27.7
			z M79.2,33.1c0.3,0,0.5-0.2,0.7-0.4c0.2-0.2,0.3-0.5,0.3-0.9s-0.1-0.7-0.3-0.9c-0.2-0.2-0.4-0.3-0.7-0.3c-0.3,0-0.5,0.1-0.7,0.3
			c-0.2,0.2-0.3,0.5-0.3,0.9s0.1,0.7,0.3,0.9C78.7,32.9,78.9,33,79.2,33.1z M79.9,27.7c0.2,0,0.3,0.1,0.4,0.2
			c0.1,0.1,0.2,0.3,0.2,0.4c0,0.2-0.1,0.3-0.2,0.4c-0.1,0.1-0.3,0.2-0.4,0.2c-0.1,0-0.3-0.1-0.4-0.2c-0.1-0.1-0.2-0.3-0.2-0.4
			s0.1-0.3,0.2-0.4C79.6,27.8,79.7,27.7,79.9,27.7z"/>
		<path class="st2" d="M83.1,31.3c0-0.6,0.2-1,0.6-1.4c0.3-0.3,0.8-0.4,1.3-0.4c0.6,0,1,0.2,1.4,0.5c0.5,0.4,0.7,1,0.7,1.8
			c0,0.7-0.2,1.3-0.6,1.8c-0.4,0.5-0.9,0.7-1.4,0.7s-0.9-0.2-1.2-0.6c-0.2,0.2-0.4,0.3-0.7,0.3h-1.8v-1h1.4c0.1,0,0.1,0,0.2-0.1
			c0,0,0.1-0.1,0.1-0.2V31.3z M84.3,33c0.2,0.3,0.5,0.4,0.8,0.4s0.5-0.1,0.7-0.4c0.2-0.3,0.3-0.6,0.3-1c0-0.5-0.1-0.8-0.3-1.1
			c-0.2-0.2-0.4-0.3-0.7-0.3c-0.2,0-0.4,0.1-0.5,0.2c-0.2,0.1-0.2,0.3-0.2,0.6L84.3,33C84.4,33,84.3,33,84.3,33z"/>
		<path class="st2" d="M96.1,29.8v4c0,0.8-0.2,1.4-0.7,1.8s-1.1,0.7-1.9,0.7h-0.9c-0.9,0-1.5-0.2-2-0.7c-0.4-0.4-0.6-1-0.6-1.8v-1.7
			l0.6-0.5h0.6v2.1c0,0.6,0.2,1,0.5,1.3c0.3,0.2,0.8,0.4,1.5,0.4c0.7,0,1.2-0.1,1.5-0.3c0.3-0.3,0.5-0.7,0.5-1.3v-3.9L96.1,29.8
			L96.1,29.8z M93,29.7c0.2,0,0.3,0.1,0.4,0.2c0.1,0.1,0.2,0.3,0.2,0.4s-0.1,0.3-0.2,0.4c-0.1,0.1-0.3,0.2-0.4,0.2
			c-0.2,0-0.3-0.1-0.4-0.2c-0.1-0.1-0.2-0.3-0.2-0.4s0.1-0.3,0.2-0.4C92.7,29.8,92.8,29.7,93,29.7z"/>
		<path class="st2" d="M99.4,34c-0.7,0-1.2-0.2-1.6-0.7c-0.3-0.4-0.5-0.9-0.5-1.5c0-0.7,0.2-1.3,0.6-1.6c0.4-0.4,0.9-0.6,1.6-0.6
			c0.5,0,0.9,0.1,1.2,0.3c0.5,0.3,0.7,0.8,0.7,1.4V33h0.3v1h-0.3c0,0.7-0.3,1.2-0.7,1.6c-0.3,0.3-0.7,0.5-1.1,0.6
			c-0.3,0.1-0.6,0.1-0.9,0.1c-0.1,0-0.2,0-0.4,0l0,0l-0.5-0.6v-0.4c0.3,0,0.5,0.1,0.7,0.1c1,0,1.6-0.4,1.7-1.3L99.4,34L99.4,34z
			 M100.2,31.3c0-0.3-0.1-0.4-0.2-0.6c-0.1-0.1-0.3-0.2-0.5-0.2c-0.3,0-0.6,0.1-0.8,0.3c-0.2,0.2-0.3,0.5-0.3,0.9s0.1,0.7,0.3,0.9
			c0.2,0.2,0.5,0.3,0.8,0.3h0.6L100.2,31.3L100.2,31.3z"/>
		<path class="st2" d="M111.4,29.8V33c0,0.3-0.1,0.5-0.3,0.7c-0.2,0.2-0.4,0.3-0.7,0.3h-2l-0.3-0.4l0,0c-0.2,0.3-0.5,0.4-0.8,0.4h-2
			l-0.4-0.4l0,0c-0.2,0.3-0.5,0.4-0.8,0.4h-2.7v-1h2.3c0.2,0,0.2-0.1,0.2-0.2v-2.1h1.1v1.9c0,0.2,0,0.3,0,0.4h1.8
			c0.2,0,0.2-0.1,0.2-0.2v-2.6h1.1v2.5c0,0,0,0.1,0,0.2s0,0.1,0,0.2h1.8c0.2,0,0.2-0.1,0.2-0.2v-3.1L111.4,29.8L111.4,29.8z"/>
		<path class="st2" d="M113.3,29.8c0.2,0,0.5-0.1,0.7-0.1c0.7,0,1.3,0.2,1.8,0.7c0.4,0.4,0.6,0.9,0.6,1.6v0.9c0,0.1,0,0.3,0,0.3h0.2
			v1h-0.1l-0.3-0.4l0,0c-0.1,0.1-0.1,0.1-0.2,0.2c-0.2,0.2-0.4,0.2-0.6,0.2h-3v-1h2.7c0.2,0,0.2-0.1,0.2-0.2V32c0-0.4-0.1-0.8-0.4-1
			c-0.2-0.2-0.6-0.4-1.1-0.4c-0.2,0-0.4,0-0.5,0C113.3,30.6,113.3,29.8,113.3,29.8z"/>
		<path class="st2" d="M119.3,29.8v3.2V33h0.5v1h-0.3l-0.3-0.4l0,0c-0.2,0.3-0.5,0.4-0.8,0.4h-1.8v-1h1.4c0.1,0,0.2,0,0.2-0.1
			c0.1,0,0.1-0.1,0.1-0.2v-3.1L119.3,29.8L119.3,29.8L119.3,29.8z M118.8,27.7c0.2,0,0.3,0.1,0.4,0.2c0.1,0.1,0.2,0.3,0.2,0.4
			c0,0.2-0.1,0.3-0.2,0.4c-0.1,0.1-0.3,0.2-0.4,0.2c-0.2,0-0.3-0.1-0.4-0.2c-0.1-0.1-0.2-0.3-0.2-0.4c0-0.2,0.1-0.3,0.2-0.4
			C118.5,27.8,118.6,27.7,118.8,27.7z"/>
		<path class="st2" d="M122,29.9c0.7-0.3,1.4-0.5,2.1-0.5c0.9,0,1.6,0.3,2,0.8c0.4,0.5,0.6,1.1,0.6,1.9v0.8v0.1c0,0.1,0,0.1,0,0.1
			h0.3v1h-0.2l-0.3-0.4l0,0c-0.1,0.1-0.1,0.1-0.2,0.2c-0.2,0.1-0.3,0.2-0.6,0.2h-2.4c-0.3,0-0.5,0-0.6-0.1l0,0
			c-0.1,0.1-0.4,0.1-0.7,0.1h-2.3v-1h1.7c-0.1-0.1-0.2-0.3-0.2-0.5c-0.1-0.2-0.1-0.4-0.1-0.6c0-0.4,0.1-0.7,0.3-1
			c0.2-0.2,0.4-0.4,0.6-0.5V29.9z M122.7,33c0.2,0,0.4-0.1,0.5-0.3c0.1-0.2,0.2-0.4,0.2-0.7c0-0.3-0.1-0.5-0.2-0.7
			c-0.1-0.1-0.3-0.2-0.5-0.2s-0.3,0.1-0.5,0.2c-0.2,0.2-0.2,0.4-0.2,0.7c0,0.3,0.1,0.5,0.2,0.7C122.3,32.9,122.5,33,122.7,33z
			 M125.5,32.2c0-0.7-0.2-1.2-0.5-1.5c-0.3-0.3-0.7-0.4-1.3-0.4c-0.3,0-0.5,0-0.8,0.1c0.5,0.1,0.8,0.3,1.1,0.6
			c0.2,0.3,0.3,0.6,0.3,1c0,0.2,0,0.4-0.1,0.6c-0.1,0.2-0.1,0.4-0.2,0.5h1.3c0.1,0,0.1,0,0.2-0.1c0,0,0.1-0.1,0.1-0.2L125.5,32.2
			L125.5,32.2z"/>
		<path class="st2" d="M128.5,31.3c0-0.6,0.2-1,0.6-1.4c0.3-0.3,0.8-0.4,1.3-0.4c0.6,0,1,0.2,1.4,0.5c0.5,0.4,0.7,1,0.7,1.8
			c0,0.7-0.2,1.3-0.6,1.8s-0.9,0.7-1.4,0.7c-0.5,0-0.9-0.2-1.2-0.6c-0.2,0.2-0.4,0.3-0.7,0.3h-1.8v-1h1.4c0.1,0,0.1,0,0.2-0.1
			c0,0,0.1-0.1,0.1-0.2V31.3z M129.7,33c0.2,0.3,0.5,0.4,0.8,0.4s0.5-0.1,0.7-0.4c0.2-0.3,0.3-0.6,0.3-1c0-0.5-0.1-0.8-0.3-1.1
			c-0.2-0.2-0.4-0.3-0.7-0.3c-0.2,0-0.4,0.1-0.5,0.2c-0.2,0.1-0.2,0.3-0.2,0.6L129.7,33C129.8,33,129.7,33,129.7,33z"/>
		<path class="st2" d="M140.1,33.1c-0.3-0.4-0.4-0.9-0.4-1.4c0-0.6,0.2-1.1,0.6-1.5s0.9-0.6,1.5-0.6c0.6,0,1.1,0.2,1.5,0.6
			c0.4,0.4,0.6,0.9,0.6,1.5c0,0.5-0.1,1-0.4,1.4h0.6v1h-1.4c-0.4,0-0.7,0-0.9-0.1l0,0c-0.2,0.1-0.5,0.1-0.9,0.1h-3.7
			c-0.5,0-0.8-0.2-1.1-0.5c-0.3-0.3-0.5-0.7-0.5-1.2v-1.5l0.6-0.5h0.6v2c0,0.2,0.1,0.4,0.2,0.5c0.1,0.2,0.3,0.2,0.5,0.2
			C137.5,33.1,140.1,33.1,140.1,33.1z M141.8,33.1c0.3,0,0.5-0.2,0.7-0.4c0.2-0.2,0.3-0.5,0.3-0.9s-0.1-0.7-0.3-0.9
			c-0.2-0.2-0.4-0.3-0.6-0.3c-0.3,0-0.5,0.1-0.7,0.3c-0.2,0.2-0.3,0.5-0.3,0.9s0.1,0.6,0.3,0.9C141.3,32.9,141.5,33,141.8,33.1z
			 M141.8,27.7c0.2,0,0.3,0.1,0.4,0.2c0.1,0.1,0.2,0.3,0.2,0.4c0,0.2-0.1,0.3-0.2,0.4c-0.1,0.1-0.3,0.2-0.4,0.2
			c-0.2,0-0.3-0.1-0.4-0.2c-0.1-0.1-0.2-0.3-0.2-0.4c0-0.2,0.1-0.3,0.2-0.4C141.5,27.8,141.6,27.7,141.8,27.7z"/>
		<path class="st2" d="M146.7,29.8v3.2V33h0.5v1h-0.3l-0.3-0.4l0,0c-0.2,0.3-0.5,0.4-0.8,0.4H144v-1h1.4c0.1,0,0.2,0,0.2-0.1
			c0.1,0,0.1-0.1,0.1-0.2v-3.1L146.7,29.8L146.7,29.8z M144.8,34.7c0.2,0,0.3,0.1,0.4,0.2c0.1,0.1,0.2,0.3,0.2,0.4
			c0,0.1-0.1,0.3-0.2,0.4c-0.1,0.1-0.3,0.2-0.4,0.2c-0.1,0-0.3-0.1-0.4-0.2c-0.1-0.1-0.2-0.3-0.2-0.4c0-0.1,0.1-0.3,0.2-0.4
			C144.5,34.8,144.6,34.7,144.8,34.7z M146.1,34.7c0.2,0,0.3,0.1,0.4,0.2c0.1,0.1,0.2,0.3,0.2,0.4c0,0.1-0.1,0.3-0.2,0.4
			c-0.1,0.1-0.3,0.2-0.4,0.2c-0.2,0-0.3-0.1-0.4-0.2c-0.1-0.1-0.2-0.3-0.2-0.4c0-0.1,0.1-0.3,0.2-0.4
			C145.8,34.8,145.9,34.7,146.1,34.7z"/>
		<path class="st2" d="M157,29.8v3.1v0.3h0.5v1h-0.4l-0.3-0.4l0,0c-0.2,0.3-0.5,0.4-0.8,0.4h-2l-0.3-0.4l0,0
			c-0.2,0.3-0.5,0.4-0.8,0.4h-2l-0.3-0.4l0,0c-0.2,0.3-0.5,0.4-0.8,0.4h-2.7v-1h2.3c0.2,0,0.2-0.1,0.2-0.2v-2.1h1.1v2
			c0,0.1,0,0.2,0,0.3h1.8c0.2,0,0.2-0.1,0.2-0.2v-2.6h1.1v2.5c0,0,0,0.1,0,0.2s0,0.1,0,0.2h1.8c0.2,0,0.2-0.1,0.2-0.2V30h1.2
			C157,30,157,29.8,157,29.8z"/>
		<path class="st2" d="M160.2,27.4V33c0,0.3-0.1,0.5-0.3,0.7c-0.2,0.2-0.4,0.4-0.8,0.4h-1.8v-1h1.4c0.1,0,0.1,0,0.2-0.1
			c0,0,0.1-0.1,0.1-0.2v-5.4C159,27.4,160.2,27.4,160.2,27.4z"/>
		<path class="st2" d="M162.6,27.4v6.4l-0.6,0.5h-0.6v-6.9H162.6z"/>
	</g>
	<g>
		<path class="st2" d="M55,43.2v1.3h2.8v0.9h-3.8v-5.1h3.7v0.9H55v1.2h2.5v0.9C57.4,43.2,55,43.2,55,43.2z"/>
		<path class="st2" d="M59.7,40.3v4.2h2.5v0.9h-3.6v-5.1H59.7z"/>
		<path class="st2" d="M67.9,41.8h-1c0-0.5-0.4-0.8-1.1-0.8c-0.3,0-0.5,0.1-0.7,0.2c-0.2,0.1-0.2,0.3-0.2,0.5c0,0.2,0.1,0.3,0.2,0.4
			s0.4,0.2,0.8,0.2l0.8,0.2c0.5,0.1,0.8,0.2,1,0.5c0.2,0.2,0.3,0.5,0.3,0.9c0,0.6-0.2,1-0.6,1.3c-0.4,0.3-0.9,0.4-1.5,0.4
			c-0.7,0-1.3-0.2-1.6-0.5s-0.5-0.7-0.5-1.2h1c0,0.6,0.4,0.8,1.2,0.8c0.3,0,0.6-0.1,0.8-0.2c0.2-0.1,0.3-0.3,0.3-0.5
			c0-0.2-0.1-0.4-0.2-0.5c-0.2-0.1-0.5-0.1-0.9-0.2l-0.7-0.1c-0.5-0.1-0.9-0.3-1.1-0.5c-0.2-0.2-0.3-0.5-0.3-0.9
			c0-0.5,0.2-0.9,0.6-1.2c0.3-0.2,0.8-0.4,1.4-0.4c0.7,0,1.2,0.2,1.6,0.5C67.7,41,67.9,41.3,67.9,41.8z"/>
		<path class="st2" d="M69.9,43.2v1.3h2.8v0.9h-3.8v-5.1h3.7v0.9h-2.7v1.2h2.5v0.9C72.3,43.2,69.9,43.2,69.9,43.2z"/>
		<path class="st2" d="M74.6,40.3v5.1h-1.1v-5.1H74.6z"/>
		<path class="st2" d="M76.7,43.2v2.2h-1.1v-5.1h3.7v0.9h-2.6v1.2h2.3v0.9C78.9,43.2,76.7,43.2,76.7,43.2z"/>
		<path class="st2" d="M82.3,43.2v1.3h2.8v0.9h-3.8v-5.1H85v0.9h-2.7v1.2h2.5v0.9C84.8,43.2,82.3,43.2,82.3,43.2z"/>
		<path class="st2" d="M85.8,41.6h1v0.5c0.3-0.4,0.7-0.6,1.2-0.6c0.4,0,0.8,0.1,1,0.4c0.2,0.2,0.3,0.5,0.3,0.9v2.6h-1V43
			c0-0.5-0.2-0.7-0.6-0.7c-0.2,0-0.4,0.1-0.6,0.2c-0.2,0.1-0.2,0.3-0.2,0.5v2.3h-1L85.8,41.6C85.9,41.6,85.8,41.6,85.8,41.6z"/>
		<path class="st2" d="M92.6,41.6h1v3.7c0,0.6-0.2,1-0.6,1.3c-0.3,0.2-0.7,0.3-1.3,0.3c-0.6,0-1-0.1-1.3-0.4
			c-0.2-0.2-0.4-0.4-0.4-0.7h1c0.1,0.3,0.3,0.5,0.7,0.5c0.2,0,0.5-0.1,0.6-0.2c0.2-0.1,0.2-0.3,0.2-0.6V45c-0.2,0.2-0.4,0.4-0.5,0.5
			c-0.1,0.1-0.4,0.1-0.6,0.1c-0.5,0-0.9-0.2-1.2-0.6c-0.3-0.3-0.4-0.8-0.4-1.3c0-0.6,0.2-1.2,0.5-1.6c0.3-0.3,0.7-0.5,1.1-0.5
			c0.4,0,0.8,0.2,1.1,0.6L92.6,41.6L92.6,41.6z M91.8,42.4c-0.2,0-0.4,0.1-0.6,0.3c-0.1,0.2-0.2,0.5-0.2,0.9c0,0.3,0.1,0.6,0.2,0.8
			c0.1,0.2,0.3,0.3,0.6,0.3c0.3,0,0.5-0.1,0.6-0.3c0.2-0.2,0.2-0.5,0.2-0.8c0-0.4-0.1-0.7-0.3-0.9C92.2,42.5,92,42.4,91.8,42.4z"/>
		<path class="st2" d="M95.5,41.6v3.8h-1v-3.8H95.5z M95,40.3c0.1,0,0.2,0,0.3,0.1s0.1,0.2,0.1,0.3c0,0.1,0,0.2-0.1,0.3
			c-0.1,0.1-0.2,0.1-0.3,0.1s-0.2,0-0.3-0.1c-0.1-0.1-0.1-0.2-0.1-0.3c0-0.1,0-0.2,0.1-0.3C94.7,40.3,94.8,40.3,95,40.3z"/>
		<path class="st2" d="M96.4,41.6h1v0.5c0.3-0.4,0.7-0.6,1.2-0.6c0.4,0,0.8,0.1,1,0.4c0.2,0.2,0.3,0.5,0.3,0.9v2.6h-1V43
			c0-0.5-0.2-0.7-0.6-0.7c-0.2,0-0.4,0.1-0.6,0.2c-0.2,0.1-0.2,0.3-0.2,0.5v2.3h-1L96.4,41.6C96.5,41.6,96.4,41.6,96.4,41.6z"/>
		<path class="st2" d="M104.1,43.8h-2.6c0,0.3,0.1,0.5,0.1,0.7c0.1,0.2,0.4,0.3,0.7,0.3c0.4,0,0.6-0.2,0.8-0.5h1
			c-0.1,0.4-0.3,0.7-0.7,0.9c-0.3,0.2-0.7,0.3-1.1,0.3c-0.6,0-1-0.2-1.4-0.6c-0.3-0.3-0.4-0.8-0.4-1.4c0-0.7,0.2-1.2,0.5-1.6
			c0.3-0.3,0.7-0.5,1.2-0.5c0.4,0,0.7,0.1,1,0.3c0.3,0.2,0.5,0.5,0.6,0.8s0.2,0.6,0.2,1C104.1,43.7,104.1,43.7,104.1,43.8z
			 M103,43.2c0-0.6-0.3-0.8-0.8-0.8c-0.4,0-0.7,0.3-0.8,0.8H103z"/>
		<path class="st2" d="M108.1,43.8h-2.6c0,0.3,0.1,0.5,0.1,0.7c0.1,0.2,0.4,0.3,0.7,0.3c0.4,0,0.6-0.2,0.8-0.5h1
			c-0.1,0.4-0.3,0.7-0.7,0.9c-0.3,0.2-0.7,0.3-1.1,0.3c-0.6,0-1-0.2-1.4-0.6c-0.3-0.3-0.4-0.8-0.4-1.4c0-0.7,0.2-1.2,0.5-1.6
			c0.3-0.3,0.7-0.5,1.2-0.5c0.4,0,0.7,0.1,1,0.3c0.3,0.2,0.5,0.5,0.6,0.8c0.1,0.3,0.2,0.6,0.2,1C108.1,43.7,108.1,43.7,108.1,43.8z
			 M107.1,43.2c0-0.6-0.3-0.8-0.8-0.8c-0.4,0-0.7,0.3-0.8,0.8H107.1z"/>
		<path class="st2" d="M108.7,41.6h1v0.8c0.1-0.5,0.5-0.8,1.1-0.8c0.1,0,0.2,0,0.2,0v1c-0.1,0-0.2,0-0.4,0c-0.3,0-0.6,0.1-0.7,0.2
			c-0.1,0.1-0.2,0.4-0.2,0.7v2.1h-1V41.6z"/>
		<path class="st2" d="M112.5,41.6v3.8h-1v-3.8H112.5z M112,40.3c0.1,0,0.2,0,0.3,0.1c0.1,0.1,0.1,0.2,0.1,0.3c0,0.1,0,0.2-0.1,0.3
			c-0.1,0.1-0.2,0.1-0.3,0.1c-0.1,0-0.2,0-0.3-0.1c-0.1-0.1-0.1-0.2-0.1-0.3c0-0.1,0-0.2,0.1-0.3C111.8,40.3,111.9,40.3,112,40.3z"
			/>
		<path class="st2" d="M113.5,41.6h1v0.5c0.3-0.4,0.7-0.6,1.2-0.6c0.4,0,0.8,0.1,1,0.4c0.2,0.2,0.3,0.5,0.3,0.9v2.6h-1V43
			c0-0.5-0.2-0.7-0.6-0.7c-0.2,0-0.4,0.1-0.6,0.2c-0.2,0.1-0.2,0.3-0.2,0.5v2.3h-1L113.5,41.6C113.6,41.6,113.5,41.6,113.5,41.6z"/>
		<path class="st2" d="M120.2,41.6h1v3.7c0,0.6-0.2,1-0.6,1.3c-0.3,0.2-0.7,0.3-1.3,0.3c-0.6,0-1-0.1-1.3-0.4
			c-0.2-0.2-0.4-0.4-0.4-0.7h1c0.1,0.3,0.3,0.5,0.7,0.5c0.2,0,0.5-0.1,0.6-0.2c0.2-0.1,0.2-0.3,0.2-0.6V45c-0.2,0.2-0.4,0.4-0.5,0.5
			s-0.4,0.1-0.6,0.1c-0.5,0-0.9-0.2-1.2-0.6c-0.3-0.3-0.4-0.8-0.4-1.3c0-0.6,0.2-1.2,0.5-1.6c0.3-0.3,0.7-0.5,1.1-0.5
			c0.4,0,0.8,0.2,1.1,0.6L120.2,41.6L120.2,41.6z M119.4,42.4c-0.2,0-0.4,0.1-0.6,0.3c-0.1,0.2-0.2,0.5-0.2,0.9
			c0,0.3,0.1,0.6,0.2,0.8s0.3,0.3,0.6,0.3c0.3,0,0.5-0.1,0.6-0.3c0.2-0.2,0.2-0.5,0.2-0.8c0-0.4-0.1-0.7-0.3-0.9
			C119.8,42.5,119.6,42.4,119.4,42.4z"/>
		<path class="st2" d="M127.8,42h-1c-0.1-0.6-0.5-0.9-1.1-0.9c-0.5,0-0.8,0.2-1,0.5s-0.3,0.7-0.3,1.3c0,0.6,0.1,1,0.4,1.4
			c0.2,0.3,0.5,0.4,0.9,0.4c0.3,0,0.6-0.1,0.8-0.3c0.2-0.2,0.3-0.4,0.3-0.8h1c0,0.6-0.3,1.1-0.7,1.5c-0.4,0.3-0.9,0.5-1.5,0.5
			c-0.8,0-1.4-0.3-1.8-0.8s-0.6-1.1-0.6-1.9c0-0.9,0.2-1.6,0.7-2.1c0.4-0.4,1-0.6,1.7-0.6c0.8,0,1.4,0.3,1.8,0.8
			C127.7,41.3,127.8,41.6,127.8,42z"/>
		<path class="st2" d="M130.3,41.5c0.6,0,1.1,0.2,1.5,0.6c0.3,0.3,0.4,0.8,0.4,1.4c0,0.7-0.2,1.2-0.6,1.5c-0.3,0.3-0.8,0.5-1.3,0.5
			c-0.6,0-1.1-0.2-1.5-0.6c-0.3-0.4-0.4-0.8-0.4-1.4c0-0.7,0.2-1.2,0.6-1.5C129.3,41.7,129.7,41.5,130.3,41.5z M130.3,42.4
			c-0.3,0-0.5,0.1-0.7,0.3c-0.2,0.2-0.2,0.5-0.2,0.9s0.1,0.7,0.3,0.9c0.2,0.2,0.4,0.3,0.6,0.3c0.3,0,0.5-0.1,0.7-0.3
			c0.2-0.2,0.3-0.5,0.3-0.9s-0.1-0.7-0.3-0.9C130.7,42.4,130.5,42.4,130.3,42.4z"/>
		<path class="st2" d="M132.8,41.6h1v0.5c0.3-0.4,0.7-0.6,1.2-0.6c0.4,0,0.8,0.1,1,0.4c0.2,0.2,0.3,0.5,0.3,0.9v2.6h-1V43
			c0-0.5-0.2-0.7-0.6-0.7c-0.2,0-0.4,0.1-0.6,0.2c-0.2,0.1-0.2,0.3-0.2,0.5v2.3h-1L132.8,41.6L132.8,41.6z"/>
		<path class="st2" d="M138.9,41.6v0.7h-0.7v2.1c0,0.1,0,0.2,0.1,0.3c0.1,0.1,0.1,0.1,0.3,0.1c0.1,0,0.3,0,0.4-0.1l0,0l0.1,0.7
			c-0.3,0.2-0.6,0.2-1,0.2c-0.7,0-1-0.3-1-0.9v-2.4h-0.5v-0.7h0.5V41l1-0.6v1.2H138.9z"/>
		<path class="st2" d="M139.8,41.6h1v0.8c0.1-0.5,0.5-0.8,1.1-0.8c0.1,0,0.2,0,0.2,0v1c-0.1,0-0.2,0-0.4,0c-0.3,0-0.6,0.1-0.7,0.2
			s-0.2,0.4-0.2,0.7v2.1h-1V41.6L139.8,41.6z"/>
		<path class="st2" d="M145.8,45.2v0.3h-1.1c-0.1-0.1-0.1-0.2-0.1-0.4c-0.3,0.3-0.7,0.5-1.2,0.5c-0.4,0-0.7-0.1-0.9-0.3
			c-0.2-0.2-0.3-0.4-0.3-0.8c0-0.5,0.2-0.8,0.6-1c0.2-0.1,0.5-0.2,1-0.3l0.8-0.1v-0.3c0-0.3-0.2-0.4-0.6-0.4c-0.2,0-0.4,0-0.5,0.1
			c-0.1,0.1-0.2,0.2-0.2,0.4h-1c0.1-0.9,0.6-1.3,1.6-1.3c0.6,0,1,0.1,1.2,0.3c0.2,0.2,0.3,0.5,0.3,0.9V45
			C145.7,45.1,145.7,45.2,145.8,45.2z M144.7,43.6l-0.7,0.2c-0.2,0-0.4,0.1-0.5,0.2c-0.1,0.1-0.1,0.2-0.1,0.3c0,0.3,0.2,0.4,0.5,0.4
			c0.5,0,0.8-0.3,0.8-0.9V43.6z"/>
		<path class="st2" d="M149.7,43h-1c-0.1-0.3-0.1-0.4-0.3-0.5c-0.1-0.1-0.3-0.2-0.5-0.2c-0.3,0-0.5,0.1-0.6,0.3
			c-0.1,0.2-0.2,0.6-0.2,0.9c0,0.4,0.1,0.7,0.2,0.9c0.1,0.2,0.3,0.3,0.6,0.3c0.2,0,0.4-0.1,0.5-0.2c0.1-0.1,0.2-0.3,0.3-0.5h1
			c0,0.5-0.2,0.9-0.6,1.1c-0.3,0.2-0.7,0.4-1.1,0.4c-0.6,0-1.1-0.2-1.4-0.6c-0.3-0.3-0.4-0.8-0.4-1.4c0-0.7,0.2-1.2,0.5-1.6
			c0.3-0.3,0.7-0.5,1.3-0.5c0.5,0,0.9,0.1,1.2,0.4C149.6,42.3,149.7,42.6,149.7,43z"/>
		<path class="st2" d="M152.3,41.6v0.7h-0.7v2.1c0,0.1,0,0.2,0.1,0.3c0.1,0.1,0.1,0.1,0.3,0.1c0.1,0,0.3,0,0.4-0.1l0,0l0.1,0.7
			c-0.3,0.2-0.6,0.2-1,0.2c-0.7,0-1-0.3-1-0.9v-2.4H150v-0.7h0.5V41l1-0.6v1.2H152.3z"/>
		<path class="st2" d="M154.1,41.6v3.8h-1v-3.8H154.1z M153.6,40.3c0.1,0,0.2,0,0.3,0.1s0.1,0.2,0.1,0.3c0,0.1,0,0.2-0.1,0.3
			c-0.1,0.1-0.2,0.1-0.3,0.1s-0.2,0-0.3-0.1c-0.1-0.1-0.1-0.2-0.1-0.3c0-0.1,0-0.2,0.1-0.3C153.3,40.3,153.5,40.3,153.6,40.3z"/>
		<path class="st2" d="M155.1,41.6h1v0.5c0.3-0.4,0.7-0.6,1.2-0.6c0.4,0,0.8,0.1,1,0.4c0.2,0.2,0.3,0.5,0.3,0.9v2.6h-1V43
			c0-0.5-0.2-0.7-0.6-0.7c-0.2,0-0.4,0.1-0.6,0.2c-0.2,0.1-0.2,0.3-0.2,0.5v2.3h-1L155.1,41.6L155.1,41.6z"/>
		<path class="st2" d="M161.8,41.6h1v3.7c0,0.6-0.2,1-0.6,1.3c-0.3,0.2-0.7,0.3-1.3,0.3c-0.6,0-1-0.1-1.3-0.4
			c-0.2-0.2-0.4-0.4-0.4-0.7h1c0.1,0.3,0.3,0.5,0.7,0.5c0.2,0,0.5-0.1,0.6-0.2c0.2-0.1,0.2-0.3,0.2-0.6V45c-0.2,0.2-0.4,0.4-0.5,0.5
			s-0.4,0.1-0.6,0.1c-0.5,0-0.9-0.2-1.2-0.6c-0.3-0.3-0.4-0.8-0.4-1.3c0-0.6,0.2-1.2,0.5-1.6c0.3-0.3,0.7-0.5,1.1-0.5
			c0.4,0,0.8,0.2,1.1,0.6L161.8,41.6L161.8,41.6z M160.9,42.4c-0.2,0-0.4,0.1-0.6,0.3c-0.1,0.2-0.2,0.5-0.2,0.9
			c0,0.3,0.1,0.6,0.2,0.8c0.1,0.2,0.3,0.3,0.6,0.3s0.5-0.1,0.6-0.3c0.2-0.2,0.2-0.5,0.2-0.8c0-0.4-0.1-0.7-0.3-0.9
			C161.4,42.5,161.2,42.4,160.9,42.4z"/>
	</g>
</g>
</svg>
