<?xml version="1.0" encoding="utf-8"?>
<!-- Generator: Adobe Illustrator 24.3.0, SVG Export Plug-In . SVG Version: 6.00 Build 0)  -->
<svg version="1.1" id="Layer_1" xmlns="http://www.w3.org/2000/svg" xmlns:xlink="http://www.w3.org/1999/xlink" x="0px" y="0px"
	 viewBox="0 0 164 68" style="enable-background:new 0 0 164 68;" xml:space="preserve">
<style type="text/css">
	.st0{fill:none;}
	.st1{fill:#1E1F1C;}
	.st2{fill:#020203;}
	.st3{fill:#080808;}
	.st4{fill:none;stroke:#020100;stroke-width:0.5;stroke-miterlimit:10;}
	.st5{fill:#1D1D1B;}
	.st6{fill:#020101;}
	.st7{fill:#FFFFFF;stroke:#000000;stroke-width:0.25;stroke-miterlimit:10;}
	.st8{fill:none;stroke:#000000;stroke-width:0.5;stroke-miterlimit:10;}
</style>
<g>
	<path class="st3" d="M67.6,27.6v-5.9H56.4h-0.2H54c-1.9,0-3.4,1.5-3.4,3.4v22.1h5.8v-9.8h11.2v-5.9H56.4v-3.9
		C56.4,27.6,67.6,27.6,67.6,27.6z"/>
	<path class="st3" d="M137.2,27.6v-5.9H126h-0.2h-2.1c-1.9,0-3.4,1.5-3.4,3.4v22.1h5.8v-9.8h11.2v-5.9H126v-3.9
		C126,27.6,137.2,27.6,137.2,27.6z"/>
	<rect x="69.9" y="28.1" class="st3" width="5.2" height="19"/>
	<path class="st3" d="M86.3,28.1h-4.9c-1.7,0-3,1.3-3.1,2.9l0,0v0.3v1.3v14.5H83V32.6h3.3V28.1z"/>
	<circle class="st3" cx="72.3" cy="23.1" r="3.2"/>
	<rect x="139.3" y="28.1" class="st3" width="5.2" height="19"/>
	<circle class="st3" cx="141.7" cy="23.1" r="3.2"/>
	<polygon class="st3" points="113.4,28.1 110.4,28.1 110.4,20.9 105.5,20.9 105.5,47.1 110.4,47.1 110.4,32.8 113.4,32.8 	"/>
	<polygon class="st3" points="163.2,47.1 157.3,36.9 162.2,28.1 156.8,28.1 154.5,32.1 152.2,28.1 146.8,28.1 151.7,36.9 
		145.8,47.1 151.7,47.1 154.5,42 157.4,47.1 	"/>
	<path class="st3" d="M102.3,38.8c0-1.9-1.6-3.5-3.5-3.5h-0.7h-0.6h-4.2c-0.5,0-0.9-0.4-0.9-0.9v-0.7c0-0.5,0.4-0.9,0.9-0.9h8.8
		v-4.7h-9.7h-1.1l0,0c-1.9,0-3.4,1.5-3.4,3.4l0,0V33v3.4c0,2,1.6,3.7,3.7,3.7l0,0h0.8h5v2.4h-9.5V47h10.8c1.7,0,3.1-1.2,3.5-2.7l0,0
		l0,0C102.4,44,102.3,38.8,102.3,38.8z"/>
	<circle class="st4" cx="22.2" cy="34" r="21.4"/>
	<path class="st3" d="M22.2,20.1c7.7,0,13.9,6.2,13.9,13.9c0,2.8-0.8,5.4-2.2,7.5l3.2,3.2c2.2-3,3.5-6.8,3.5-10.8
		c0-10.2-8.2-18.4-18.4-18.4c-4,0-7.7,1.3-10.7,3.5l3.2,3.3C16.9,20.9,19.5,20.1,22.2,20.1z"/>
	<path class="st3" d="M29.6,45.7c-2.1,1.4-4.7,2.2-7.4,2.2c-7.7,0-13.9-6.2-13.9-13.9c0-2.8,0.9-5.4,2.3-7.6l-3.2-3.3
		c-2.2,3-3.6,6.8-3.6,10.8c0,10.2,8.2,18.4,18.4,18.4c4,0,7.6-1.3,10.6-3.4L29.6,45.7z"/>
	<path class="st3" d="M22.2,22.2c-6.5,0-11.8,5.3-11.8,11.8c0,2,1.2,4.5,1.1,4.4c0.7-0.4,2.7-1.4,2.7-1.4c-1-2.7-0.6-5.8,1.3-8
		c2-2.4,5.4-3.4,8.6-2.4c-1.5,1.3-3,2.7-4.5,4c1.5,1.5,3,3.1,4.5,4.6c1.7-1.4,3.4-2.9,5.1-4.3c1.4,3,0.7,6.5-1.6,8.7
		c-2.6,2.4-6.8,2.6-9.8,0.3c-1,1-2,2-3,3c-0.2-0.3,3.8,3,7.3,3C28.7,45.8,34,40.5,34,34S28.7,22.2,22.2,22.2z"/>
</g>
</svg>
