<?xml version="1.0" encoding="utf-8"?>
<!-- Generator: Adobe Illustrator 24.3.0, SVG Export Plug-In . SVG Version: 6.00 Build 0)  -->
<svg version="1.1" id="Layer_1" xmlns="http://www.w3.org/2000/svg" xmlns:xlink="http://www.w3.org/1999/xlink" x="0px" y="0px"
	 viewBox="0 0 164 68" style="enable-background:new 0 0 164 68;" xml:space="preserve">
<style type="text/css">
	.st0{fill:none;}
	.st1{fill:#1E1F1C;}
	.st2{fill:#020203;}
	.st3{fill:#040404;}
	.st4{fill:#0C0809;}
	.st5{fill:#211E1F;}
	.st6{fill:#FCFEFF;}
	.st7{fill:#000102;}
	.st8{fill:none;stroke:#F9F9F9;stroke-width:0.25;stroke-miterlimit:10;}
	.st9{fill:#262626;}
	.st10{fill:#000002;}
</style>
<g>
	<path d="M146.7,40c-10.2,8.2-20.5,11.7-26.7,13.2c3.2,0,6.5,0,9.7-0.1c10.5-0.1,21.1-0.1,31.6-0.2c0.1-9.9,0.2-19.8,0.3-29.7
		C158.7,27.5,153.5,34.5,146.7,40z M160.3,45.9c-0.5,0.4-1,0.7-1.4,1.1c0.4,0.4,0.9,0.9,1.3,1.3c0,1,0,2.1,0.1,3.1
		c-1.8,0-3.6,0-5.4,0c0-0.6,0-1.3,0-1.9c-0.6-0.3-1.1-0.6-1.7-0.9c-0.6,0.3-1.2,0.6-1.8,0.8c0,0.7,0,1.4,0,2v0c-1.8,0-3.6,0-5.4,0
		c0-1.1,0-2.2,0-3.3c0.4-0.4,0.8-0.7,1.3-1.1c-0.4-0.5-0.9-0.9-1.3-1.4c0-1,0-2.1,0-3.1c1.8,0,3.6,0,5.5,0v2
		c0.5,0.4,1.1,0.8,1.6,1.3c0.6-0.4,1.1-0.7,1.7-1.1v-2.4c2.9,0,5.8,0,5.8,0C160.3,43.6,160.3,44.7,160.3,45.9z"/>
	<path d="M129.6,19.9c6.4-6.4,12.7-9.3,16.2-10.4c3.8-1.2,9-2.5,11.7,0c3.2,2.8,2.4,10.4-2.4,18.7c0,0-0.3,0.5-1.5,2.5
		c1.1-2.6,1.5-3.7,1.5-3.7c2.1-4.6,2-9.2-0.4-11.7c-2.6-2.8-6.6-2.3-10.4-1.5c-8.8,1.8-15.2,6.9-18.7,10.8
		C126.9,22.8,128.3,21.3,129.6,19.9z"/>
	<path d="M152.9,22.3c-0.4-2.3-1.8-4.3-4-5.2c0,0,0,0,0,0c-6.1-2.6-15.2,2.2-23.2,11.6c0,0-0.3,0.3-0.6,0.7c1.4-1.2,2.7-2.4,2.7-2.4
		c0.3-0.2,0.7-0.6,1.2-1c3.7-2.8,10.5-6.1,13.6-3.7c1.3,1,1.6,2.7,1.6,3c0.3,1.5-0.2,2.9-1.2,4.7c-2.2,3.8-5.4,6.6-7.7,8.3
		c0.7-2.6,0.1-5.2-1.6-6.8c-2.5-2.2-6.2-0.9-7.4-0.5c-5,1.8-9.2,7.9-7.4,11.4c1.3,2.6,6,2.7,6.6,2.7c-7.4,3.7-10.4,5.4-11.4,6.2
		c-0.3,0.2-0.4,0.4-0.4,0.4c0.2,0.5,9-2.6,17.5-7.1c4.9-2.6,8.4-5.4,15.3-10.9c3.2-2.6,5.6-4.7,6.3-8.1
		C153.2,24.4,153.1,23.3,152.9,22.3z M127.7,42.7c-3.4,1.6-7,1.1-8-1.1c-1-2.2,0.9-5.3,4.3-6.9c3.4-1.6,7-1.1,8,1.1
		C133,38,131.1,41.1,127.7,42.7z"/>
	<g>
		<path d="M7.8,33.7c-1.4,0-2.5-0.3-3.2-1c-0.8-0.7-1.1-1.6-1.1-2.9c0-1.1,0.3-2,0.9-2.7C5,26.4,5.9,26,7,25.9l0.2,1.3
			c-0.8,0.1-1.3,0.3-1.7,0.7c-0.4,0.4-0.6,1-0.6,1.8c0,0.8,0.3,1.5,0.8,1.9c0.5,0.4,1.2,0.7,2.2,0.7h6.5V26h1.5v7.7H7.8z M8.6,22.8
			H10v1.6H8.6V22.8z M10.9,22.8h1.4v1.6h-1.4V22.8z"/>
		<path d="M17.5,32.4h2.1V26h1.5v6.4h3.3V21.2h1.5v12.5h-8.3V32.4z"/>
		<path d="M35.1,33.7c0,1.2-0.3,2.2-0.8,2.7c-0.6,0.6-1.4,0.9-2.6,0.9c-1.1,0-1.9-0.2-2.5-0.7c-0.6-0.5-1-1.2-1.1-2.1h1.4
			c0.2,1,0.9,1.5,2.2,1.5c0.7,0,1.3-0.2,1.6-0.5c0.3-0.3,0.5-0.9,0.5-1.7v-0.2h-0.9c-1.5,0-2.7-0.4-3.6-1.1s-1.3-1.8-1.3-3.1
			c0-1.2,0.3-2.1,1-2.7c0.7-0.7,1.6-1,2.7-1c1.1,0,2,0.3,2.6,1c0.6,0.6,0.9,1.6,0.9,2.8V33.7z M29.4,29.4c0,0.9,0.3,1.7,0.8,2.2
			c0.5,0.5,1.3,0.8,2.3,0.8h1.1v-2.9c0-0.9-0.2-1.5-0.5-1.9s-0.9-0.6-1.6-0.6c-0.7,0-1.3,0.2-1.6,0.6C29.6,28,29.4,28.6,29.4,29.4z"
			/>
		<path d="M41.4,33.7h-3.9V21.2h1.5v11.1h2.5V33.7z"/>
		<path d="M51.8,33.7H40.9v-1.3h3.3c-0.5-0.3-0.9-0.7-1.2-1.2c-0.3-0.5-0.4-1.1-0.4-1.8c0-1.1,0.3-2,1-2.6c0.7-0.7,1.6-1,2.7-1
			c1.1,0,2,0.3,2.6,1c0.6,0.7,0.9,1.6,0.9,2.8v2.8h2V33.7z M48.3,32.4v-2.8c0-0.9-0.2-1.5-0.5-1.9s-0.9-0.6-1.6-0.6
			c-0.7,0-1.2,0.2-1.6,0.6c-0.4,0.4-0.6,1-0.6,1.8c0,0.9,0.3,1.6,0.8,2.2c0.5,0.5,1.3,0.8,2.3,0.8H48.3z M44.3,22.8h1.4v1.6h-1.4
			V22.8z M46.7,22.8h1.4v1.6h-1.4V22.8z"/>
		<path d="M51.3,32.4h2v-2.9c0-1.2,0.3-2.1,1-2.8c0.6-0.7,1.5-1,2.6-1c1.1,0,2,0.3,2.6,1c0.7,0.7,1,1.5,1,2.6c0,0.6-0.1,1.2-0.4,1.8
			s-0.7,1-1.2,1.3h3.2v1.3H51.3V32.4z M55.9,32.4c1,0,1.7-0.3,2.3-0.8c0.5-0.5,0.8-1.2,0.8-2.2c0-0.8-0.2-1.4-0.6-1.8
			c-0.4-0.4-0.9-0.6-1.6-0.6c-1.4,0-2.1,0.9-2.1,2.6v2.9H55.9z"/>
		<path d="M61.6,32.4h2.5V21.2h1.5v11.1H68v1.3h-6.4V32.4z"/>
		<path d="M67.5,32.4H70V21.2h1.5v12.5h-3.9V32.4z"/>
		<path d="M85,32.4c-0.5-0.3-0.9-0.7-1.1-1.2c-0.3-0.5-0.4-1.1-0.4-1.8c0-1.1,0.3-2,1-2.7c0.7-0.7,1.6-1,2.7-1c1.1,0,2,0.3,2.6,1
			c0.6,0.7,0.9,1.6,0.9,2.8v2.8h2v1.3H81.7c-1.4,0-2.5-0.3-3.2-1c-0.7-0.7-1.1-1.6-1.1-2.9c0-1.1,0.3-2,0.9-2.7
			c0.6-0.7,1.5-1.1,2.6-1.2l0.2,1.3c-0.8,0.1-1.3,0.4-1.7,0.8s-0.5,1-0.5,1.8c0,0.9,0.2,1.5,0.7,1.9s1.2,0.6,2.2,0.6H85z M89.1,32.4
			v-2.8c0-0.9-0.2-1.5-0.5-1.9c-0.3-0.4-0.9-0.6-1.6-0.6c-0.7,0-1.2,0.2-1.6,0.6c-0.4,0.4-0.6,1-0.6,1.8c0,0.9,0.3,1.7,0.8,2.2
			s1.3,0.8,2.2,0.8H89.1z M86.3,22.8h1.5v1.6h-1.5V22.8z"/>
		<path d="M92.1,32.4h2.5V26H96v6.4h2.5v1.3h-6.4V32.4z M92.3,35h1.4v1.6h-1.4V35z M94.6,35H96v1.6h-1.4V35z"/>
		<path d="M98,32.4h3.2c-0.5-0.3-0.9-0.7-1.1-1.2c-0.3-0.5-0.4-1.1-0.4-1.8c0-1.1,0.3-2,0.9-2.6c0.6-0.7,1.4-1,2.4-1
			c0.3,0,0.6,0,1,0.1c0.6-0.7,1.6-1.1,2.9-1.1c1.2,0,2.1,0.3,2.7,0.9c0.6,0.6,0.9,1.5,0.9,2.7v5.3H98V32.4z M104.7,29.5
			c0-0.9-0.1-1.6-0.4-2s-0.7-0.6-1.3-0.6c-0.6,0-1,0.2-1.4,0.6c-0.3,0.4-0.5,1-0.5,1.8c0,1,0.3,1.8,0.9,2.3c0.6,0.5,1.5,0.7,2.7,0.7
			V29.5z M106.8,26c-0.4,0-0.7,0-1,0.1c-0.3,0.1-0.5,0.2-0.6,0.4c0.7,0.6,1,1.6,1,3v2.9h2.8v-3.8c0-0.9-0.2-1.6-0.5-2
			S107.6,26,106.8,26z"/>
	</g>
	<g>
		<g>
			<path d="M3.1,52.6l2.2-10.5h1.4l-0.9,4.3h5.4l0.9-4.3h1.4l-2.2,10.5H10l1-4.9H5.6l-1,4.9H3.1z"/>
			<path d="M18.9,51.6c-0.9,0.7-1.7,1.1-2.6,1.1c-0.7,0-1.2-0.2-1.7-0.6c-0.4-0.4-0.7-0.9-0.7-1.6c0-0.8,0.4-1.5,1.1-1.9
				c0.3-0.2,0.7-0.3,1.2-0.4c0.2,0,0.8-0.1,1.7-0.1c0.8,0,1.3-0.1,1.7-0.3c0.1-0.4,0.1-0.6,0.1-0.9c0-0.7-0.5-1.1-1.6-1.1
				c-1.1,0-1.8,0.5-2.1,1.4l-1.3-0.1c0.6-1.6,1.7-2.3,3.5-2.3c0.9,0,1.7,0.2,2.2,0.7c0.4,0.3,0.6,0.8,0.6,1.3c0,0.4-0.1,0.9-0.2,1.4
				l-0.4,1.9c-0.1,0.6-0.2,1.1-0.2,1.5c0,0.2,0.1,0.6,0.2,1h-1.3C19,52.3,18.9,52,18.9,51.6z M19.4,48.7c-0.3,0.1-0.8,0.2-1.6,0.3
				c-0.6,0.1-1,0.1-1.2,0.2c-0.5,0.1-0.9,0.3-1.1,0.6c-0.2,0.2-0.2,0.5-0.2,0.7c0,0.4,0.1,0.7,0.4,0.9c0.3,0.2,0.6,0.3,1,0.3
				c0.4,0,0.9-0.1,1.3-0.3c0.4-0.2,0.7-0.5,0.9-0.9S19.3,49.5,19.4,48.7z"/>
			<path d="M22.1,52.6l1.6-7.6H25l-1.6,7.6H22.1z M24,43.6l0.3-1.5h1.3l-0.3,1.5H24z"/>
			<path d="M25.8,52.6l1.4-6.6h-1.2l0.2-1h1.2l0.2-1.1c0.1-0.5,0.2-0.8,0.3-1c0.1-0.3,0.4-0.6,0.7-0.8c0.3-0.2,0.6-0.2,1.1-0.2
				c0.3,0,0.8,0.1,1.4,0.2l-0.2,1.1c-0.4-0.1-0.8-0.2-1.1-0.2c-0.3,0-0.5,0.1-0.7,0.3c-0.1,0.1-0.2,0.4-0.2,0.8L28.7,45h1.4l-0.2,1
				h-1.4l-1.4,6.6H25.8z"/>
			<path d="M42.6,48.9l1.4,0.2c-0.4,1.1-1,2-1.8,2.6c-0.8,0.7-1.8,1-3,1c-1.3,0-2.4-0.4-3.1-1.3c-0.7-0.8-1-1.9-1-3.2
				c0-1.9,0.6-3.4,1.7-4.7c1-1.1,2.3-1.6,3.8-1.6c1.1,0,2,0.3,2.6,0.8c0.7,0.6,1.1,1.4,1.2,2.4l-1.3,0.1c-0.3-1.5-1.1-2.3-2.5-2.3
				c-1.3,0-2.3,0.6-3.1,1.7c-0.7,1-1,2.1-1,3.5c0,1,0.2,1.8,0.7,2.3c0.5,0.6,1.2,1,2.2,1c0.8,0,1.5-0.3,2.1-0.8
				C41.9,50.3,42.3,49.7,42.6,48.9z"/>
			<path d="M45.3,49.7c0-1.5,0.4-2.7,1.3-3.7c0.7-0.8,1.7-1.2,2.8-1.2c0.9,0,1.7,0.3,2.2,0.9c0.5,0.6,0.8,1.3,0.8,2.3
				c0,0.8-0.2,1.6-0.5,2.3c-0.4,0.8-0.9,1.4-1.5,1.8s-1.3,0.6-2.1,0.6c-1.3,0-2.2-0.5-2.7-1.4C45.4,50.8,45.3,50.3,45.3,49.7z
				 M46.6,49.6c0,0.6,0.1,1.1,0.4,1.5c0.3,0.4,0.8,0.7,1.4,0.7c0.6,0,1.1-0.2,1.6-0.7c0.4-0.4,0.8-1,1-1.7c0.1-0.5,0.2-0.9,0.2-1.4
				c0-0.6-0.1-1.1-0.4-1.5c-0.3-0.4-0.8-0.7-1.4-0.7c-0.8,0-1.5,0.4-2,1.1C46.8,47.7,46.6,48.5,46.6,49.6z"/>
			<path d="M53.4,52.6L55,45h1.2l-0.3,1.3c1-1,1.9-1.5,2.8-1.5c0.6,0,1.1,0.2,1.4,0.5c0.4,0.3,0.6,0.8,0.6,1.4
				c0,0.3-0.1,0.7-0.2,1.3l-1,4.6h-1.3l1-4.8c0.1-0.5,0.1-0.8,0.1-1c0-0.6-0.3-0.8-1-0.8c-1.5,0-2.5,1.1-2.9,3.2l-0.7,3.5H53.4z"/>
			<path d="M64.8,51.5l-0.2,1.1c-0.3,0.1-0.6,0.1-0.9,0.1c-0.5,0-0.9-0.1-1.2-0.4c-0.2-0.2-0.3-0.4-0.3-0.8c0-0.2,0.1-0.6,0.2-1.1
				l0.9-4.4h-1l0.2-1h1l0.4-1.9l1.5-0.9L64.7,45H66l-0.2,1h-1.3l-0.9,4.2c-0.1,0.5-0.2,0.8-0.2,1c0,0.3,0.2,0.5,0.6,0.5
				C64.3,51.6,64.6,51.6,64.8,51.5z"/>
			<path d="M66.1,52.6l1.6-7.6h1.1l-0.3,1.5c0.8-1.1,1.5-1.7,2.3-1.7c0.3,0,0.6,0.1,1,0.3l-0.5,1.2c-0.2-0.2-0.5-0.2-0.7-0.2
				c-1.2,0-2,1.2-2.5,3.5l-0.6,3H66.1z"/>
			<path d="M76.3,51.6c-0.9,0.7-1.7,1.1-2.6,1.1c-0.7,0-1.2-0.2-1.7-0.6c-0.4-0.4-0.7-0.9-0.7-1.6c0-0.8,0.4-1.5,1.1-1.9
				c0.3-0.2,0.7-0.3,1.2-0.4c0.2,0,0.8-0.1,1.7-0.1c0.8,0,1.3-0.1,1.7-0.3c0.1-0.4,0.1-0.6,0.1-0.9c0-0.7-0.5-1.1-1.6-1.1
				c-1.1,0-1.8,0.5-2.1,1.4l-1.3-0.1c0.6-1.6,1.7-2.3,3.5-2.3c0.9,0,1.7,0.2,2.2,0.7c0.4,0.3,0.6,0.8,0.6,1.3c0,0.4-0.1,0.9-0.2,1.4
				l-0.4,1.9c-0.1,0.6-0.2,1.1-0.2,1.5c0,0.2,0.1,0.6,0.2,1h-1.3C76.4,52.3,76.3,52,76.3,51.6z M76.8,48.7c-0.3,0.1-0.8,0.2-1.6,0.3
				c-0.6,0.1-1,0.1-1.2,0.2c-0.5,0.1-0.9,0.3-1.1,0.6c-0.2,0.2-0.2,0.5-0.2,0.7c0,0.4,0.1,0.7,0.4,0.9c0.3,0.2,0.6,0.3,1,0.3
				c0.4,0,0.9-0.1,1.3-0.3c0.4-0.2,0.7-0.5,0.9-0.9S76.6,49.5,76.8,48.7z"/>
			<path d="M84.8,49.8l1.3,0.1c-0.6,1.9-1.8,2.8-3.4,2.8c-0.9,0-1.6-0.3-2.1-0.9c-0.5-0.5-0.7-1.3-0.7-2.2c0-0.8,0.2-1.6,0.5-2.4
				c0.3-0.8,0.8-1.5,1.4-1.9c0.6-0.4,1.3-0.6,2.1-0.6c0.8,0,1.4,0.2,1.9,0.7c0.5,0.5,0.7,1.1,0.7,1.9l-1.3,0.1
				c0-0.5-0.1-0.8-0.4-1.1c-0.3-0.3-0.6-0.4-1.1-0.4c-1.1,0-1.8,0.7-2.2,2c-0.2,0.7-0.3,1.3-0.3,1.9c0,0.5,0.1,1,0.3,1.3
				c0.3,0.4,0.7,0.6,1.2,0.6s1-0.2,1.4-0.6C84.3,50.8,84.6,50.3,84.8,49.8z"/>
			<path d="M90.1,51.5l-0.2,1.1c-0.3,0.1-0.6,0.1-0.9,0.1c-0.5,0-0.9-0.1-1.2-0.4c-0.2-0.2-0.3-0.4-0.3-0.8c0-0.2,0.1-0.6,0.2-1.1
				l0.9-4.4h-1l0.2-1h1l0.4-1.9l1.5-0.9L90,45h1.3l-0.2,1h-1.3l-0.9,4.2c-0.1,0.5-0.2,0.8-0.2,1c0,0.3,0.2,0.5,0.6,0.5
				C89.6,51.6,89.9,51.6,90.1,51.5z"/>
			<path d="M91.3,52.6l1.6-7.6h1.3l-1.6,7.6H91.3z M93.2,43.6l0.3-1.5h1.3l-0.3,1.5H93.2z"/>
			<path d="M94.9,52.6l1.6-7.6h1.2l-0.3,1.3c1-1,1.9-1.5,2.8-1.5c0.6,0,1.1,0.2,1.4,0.5c0.4,0.3,0.6,0.8,0.6,1.4
				c0,0.3-0.1,0.7-0.2,1.3l-1,4.6h-1.3l1-4.8c0.1-0.5,0.1-0.8,0.1-1c0-0.6-0.3-0.8-1-0.8c-1.5,0-2.5,1.1-2.9,3.2l-0.7,3.5H94.9z"/>
			<path d="M106.6,56c-0.8,0-1.4-0.1-1.8-0.2c-0.5-0.1-0.8-0.4-1-0.7c-0.2-0.3-0.3-0.8-0.3-1.3c0-0.3,0-0.5,0.1-0.7
				c0.1-0.2,0.2-0.4,0.4-0.6c0.2-0.2,0.4-0.3,0.6-0.5c-0.1-0.1-0.2-0.2-0.3-0.4c-0.1-0.2-0.1-0.4-0.1-0.6c0-0.1,0-0.2,0.1-0.3
				c0.1-0.1,0.1-0.3,0.2-0.4c0.1-0.2,0.2-0.3,0.2-0.4c-0.2-0.1-0.4-0.2-0.6-0.4c-0.2-0.2-0.3-0.4-0.4-0.7c-0.1-0.3-0.2-0.7-0.2-1.1
				c0-0.6,0.1-1.1,0.3-1.5c0.2-0.4,0.6-0.6,1-0.8c0.4-0.2,0.9-0.2,1.4-0.2c0.3,0,0.5,0,0.8,0.1c0.3,0,0.5,0.1,0.7,0.1l2.2-0.1v1
				l-1.4,0c0.1,0.1,0.3,0.3,0.3,0.5c0.1,0.2,0.1,0.5,0.1,0.9c0,0.6-0.1,1.1-0.3,1.5c-0.2,0.4-0.5,0.6-1,0.8s-0.9,0.2-1.6,0.2
				c-0.1,0-0.2,0-0.3,0c-0.2,0-0.3,0-0.4,0c-0.1,0.1-0.1,0.3-0.2,0.5s-0.1,0.3-0.1,0.4c0,0.1,0,0.3,0.1,0.3c0,0.1,0.1,0.1,0.2,0.2
				s0.3,0.1,0.5,0.1c0.2,0,0.6,0,1,0c0.7,0,1.3,0.1,1.7,0.2c0.4,0.1,0.7,0.3,0.9,0.6c0.2,0.3,0.3,0.8,0.3,1.3c0,0.8-0.3,1.4-0.9,1.8
				S107.6,56,106.6,56z M106.6,55c0.7,0,1.3-0.1,1.6-0.3c0.3-0.2,0.5-0.5,0.5-1c0-0.4-0.1-0.6-0.2-0.8c-0.1-0.2-0.3-0.3-0.6-0.3
				c-0.3-0.1-0.6-0.1-1.1-0.1c-0.1,0-0.2,0-0.4,0c-0.2,0-0.3,0-0.5,0c-0.2,0-0.3,0-0.4,0s-0.2,0-0.3,0c-0.2,0.1-0.4,0.3-0.5,0.4
				s-0.2,0.2-0.3,0.4s-0.1,0.3-0.1,0.5c0,0.3,0.1,0.6,0.2,0.8c0.1,0.2,0.3,0.3,0.6,0.4C105.7,55,106.1,55,106.6,55z M106.3,49.2
				c0.6,0,1-0.1,1.3-0.4c0.3-0.2,0.4-0.6,0.4-1.2c0-0.6-0.1-1-0.4-1.2c-0.3-0.2-0.7-0.4-1.3-0.4c-0.6,0-1,0.1-1.2,0.4
				c-0.2,0.2-0.4,0.6-0.4,1.2c0,0.6,0.1,1,0.4,1.2C105.3,49.1,105.7,49.2,106.3,49.2z"/>
		</g>
	</g>
</g>
</svg>
