<?xml version="1.0" encoding="utf-8"?>
<!-- Generator: Adobe Illustrator 24.3.0, SVG Export Plug-In . SVG Version: 6.00 Build 0)  -->
<svg version="1.1" id="Layer_1" xmlns="http://www.w3.org/2000/svg" xmlns:xlink="http://www.w3.org/1999/xlink" x="0px" y="0px"
	 viewBox="0 0 164 68" style="enable-background:new 0 0 164 68;" xml:space="preserve">
<style type="text/css">
	.st0{fill:none;}
	.st1{fill:#1E1F1C;}
	.st2{fill:#020203;}
	.st3{fill:#080808;}
	.st4{fill:none;stroke:#020100;stroke-width:0.5;stroke-miterlimit:10;}
	.st5{fill:#1D1D1B;}
	.st6{fill:#020101;}
	.st7{fill:#FFFFFF;stroke:#000000;stroke-width:0.25;stroke-miterlimit:10;}
	.st8{fill:none;stroke:#000000;stroke-width:0.5;stroke-miterlimit:10;}
</style>
<g>
	<path d="M109.2,63H54.4c-1.4,0-2.5-1.1-2.5-2.5V7.5c0-1.4,1.1-2.5,2.5-2.5h54.8c1.4,0,2.5,1.1,2.5,2.5v53.1
		C111.7,61.9,110.6,63,109.2,63z"/>
	
		<rect x="58.3" y="10.6" transform="matrix(0.7835 -0.6214 0.6214 0.7835 -3.3736 58.3178)" class="st7" width="47.3" height="46.8"/>
	<g>
		<path d="M79.8,30.6c0.1,0,0.2,0,0.3,0.1c0.1,0.1,0.1,0.1,0.1,0.3c0,0.1,0,0.2-0.1,0.3s-0.2,0.1-0.3,0.1h-0.6
			c0,0.7-0.2,1.3-0.4,1.7c-0.3,0.4-0.7,0.6-1.3,0.6h-1.3v-0.7h1.1c0.3,0,0.6-0.1,0.8-0.2c0.2-0.1,0.3-0.3,0.4-0.5s0.1-0.5,0.1-0.9
			h-3v-2.5c0-0.7,0.2-1.3,0.5-1.6c0.3-0.4,0.8-0.6,1.4-0.6h1.8v4H79.8z M76.5,27.7c-0.2,0.3-0.3,0.6-0.3,1.2v1.8h2.3v-3.3h-1
			C77.1,27.3,76.7,27.5,76.5,27.7z"/>
		<path d="M79.5,31.3c-0.1,0-0.1-0.1-0.1-0.3c0-0.1,0-0.2,0.1-0.3c0.1-0.1,0.2-0.1,0.3-0.1h2.1c0.1,0,0.2,0,0.3,0.1
			c0.1,0.1,0.1,0.1,0.1,0.3c0,0.1,0,0.2-0.1,0.3s-0.2,0.1-0.3,0.1h-2.1C79.7,31.4,79.6,31.3,79.5,31.3z"/>
		<path d="M84,26.6h2.6c0.6,0,1.1,0.2,1.4,0.5c0.3,0.4,0.4,0.9,0.4,1.5v1.9H89c0.1,0,0.2,0,0.3,0.1c0.1,0.1,0.1,0.1,0.1,0.3
			c0,0.1,0,0.2-0.1,0.3c-0.1,0.1-0.2,0.1-0.3,0.1h-7c-0.1,0-0.2,0-0.3-0.1c-0.1-0.1-0.1-0.1-0.1-0.3c0-0.1,0-0.2,0.1-0.3
			c0.1-0.1,0.2-0.1,0.3-0.1h5.7v-1.9c0-0.9-0.4-1.4-1.3-1.4h-3.3v-0.3c0-0.2,0-0.3,0.1-0.4c0.1-0.1,0.2-0.3,0.3-0.4s0.3-0.3,0.6-0.5
			l2.6-1.9v0.8L84,26.6z"/>
		<path d="M89,31.4c-0.1,0-0.2,0-0.3-0.1c-0.1-0.1-0.1-0.1-0.1-0.3c0-0.1,0-0.2,0.1-0.3c0.1-0.1,0.2-0.1,0.3-0.1h1.5v-4h0.7v4.7H89z
			 M90.7,32.2c0.1,0.1,0.1,0.2,0.1,0.3c0,0.1,0,0.2-0.1,0.3c-0.1,0.1-0.2,0.1-0.3,0.1c-0.1,0-0.2,0-0.3-0.1
			c-0.1-0.1-0.1-0.2-0.1-0.3c0-0.1,0-0.2,0.1-0.3c0.1-0.1,0.2-0.1,0.3-0.1C90.6,32,90.7,32.1,90.7,32.2z"/>
		<path d="M93.3,30.5c0.1,0.1,0.3,0.2,0.5,0.2h0.1c0.1,0,0.2,0,0.3,0.1c0.1,0.1,0.1,0.1,0.1,0.3c0,0.1,0,0.2-0.1,0.3
			s-0.2,0.1-0.3,0.1h0c-0.4,0-0.7-0.1-0.9-0.2c-0.2-0.1-0.3-0.3-0.4-0.5c-0.1-0.2-0.1-0.5-0.1-0.9v-5.4h0.7v5.5
			C93.2,30.1,93.2,30.3,93.3,30.5z"/>
		<path d="M93.6,31.3c-0.1,0-0.1-0.1-0.1-0.3c0-0.1,0-0.2,0.1-0.3c0.1-0.1,0.2-0.1,0.3-0.1H96c0.1,0,0.2,0,0.3,0.1
			c0.1,0.1,0.1,0.1,0.1,0.3c0,0.1,0,0.2-0.1,0.3s-0.2,0.1-0.3,0.1h-2.1C93.8,31.4,93.7,31.3,93.6,31.3z"/>
		<path d="M102.1,27.2c0.4,0.3,0.6,0.8,0.8,1.4c0.2,0.6,0.2,1.3,0.2,2v0.7H96c-0.1,0-0.2,0-0.3-0.1c-0.1-0.1-0.1-0.1-0.1-0.3
			c0-0.1,0-0.2,0.1-0.3c0.1-0.1,0.2-0.1,0.3-0.1h1.2c0-1.2,0.2-2.1,0.6-2.8s1.1-1.1,2-1.2v-0.5h0.7v0.5
			C101.2,26.7,101.7,26.9,102.1,27.2z M99.8,27.3c-0.4,0-0.8,0.2-1.1,0.4c-0.3,0.2-0.5,0.6-0.6,1.1c-0.1,0.5-0.2,1.1-0.2,1.8h1.9
			V27.3z M102.2,28.8c-0.1-0.5-0.3-0.8-0.6-1.1c-0.3-0.2-0.6-0.4-1.1-0.4v3.3h1.9C102.4,29.9,102.4,29.3,102.2,28.8z"/>
	</g>
	<line class="st8" x1="74.1" y1="30.8" x2="50.8" y2="30.8"/>
	<line class="st8" x1="108.3" y1="42.6" x2="99" y2="42.6"/>
	<g>
		<path d="M65.1,38.8h-4.7v4.1h-0.8v-8.5h0.8v3.6h4.7v-3.6H66v8.5h-0.8V38.8z"/>
		<path d="M72.8,40.3H69l-1,2.7h-0.9l3.3-8.5h0.9l3.3,8.5h-0.9L72.8,40.3z M72.5,39.6l-1.6-4.3l-1.6,4.3H72.5z"/>
		<path d="M76.7,39.2v3.7h-0.8v-8.5h3.2c0.9,0,1.5,0.2,2,0.6c0.5,0.4,0.7,1,0.7,1.8c0,0.8-0.2,1.4-0.7,1.8c-0.4,0.4-1.1,0.6-2,0.6
			H76.7z M76.7,38.5h2.1c0.8,0,1.3-0.1,1.6-0.4c0.3-0.3,0.5-0.7,0.5-1.3c0-0.6-0.2-1-0.5-1.3c-0.3-0.3-0.9-0.4-1.6-0.4h-2.1V38.5z"
			/>
		<path d="M90.1,36.9h-0.9c-0.1-0.6-0.4-1-0.9-1.4c-0.5-0.3-1-0.5-1.6-0.5c-1,0-1.7,0.4-2.3,1.1c-0.5,0.7-0.7,1.5-0.7,2.6
			c0,1.2,0.3,2.1,0.9,2.8c0.5,0.6,1.2,0.9,2,0.9c0.8,0,1.4-0.3,1.9-0.8c0.4-0.4,0.7-1,0.8-1.8h0.8c-0.1,0.7-0.3,1.3-0.7,1.8
			c-0.7,1-1.6,1.4-2.9,1.4c-1.2,0-2.2-0.5-2.9-1.4c-0.6-0.8-0.9-1.8-0.9-3.1c0-1.5,0.4-2.6,1.2-3.4c0.7-0.7,1.6-1,2.7-1
			c0.9,0,1.7,0.3,2.3,0.8C89.6,35.5,89.9,36.1,90.1,36.9z"/>
		<path d="M95.3,34.3c1.3,0,2.3,0.5,3,1.4c0.6,0.8,0.9,1.8,0.9,3.1c0,1.4-0.4,2.5-1.2,3.4c-0.7,0.7-1.6,1.1-2.7,1.1
			c-1.3,0-2.2-0.5-3-1.4c-0.6-0.8-0.9-1.8-0.9-3.1c0-1.4,0.4-2.5,1.2-3.4C93.3,34.6,94.2,34.3,95.3,34.3z M95.3,35
			c-1,0-1.7,0.4-2.3,1.1c-0.5,0.6-0.8,1.5-0.8,2.6c0,1.2,0.3,2.1,1,2.8c0.6,0.6,1.3,0.9,2.1,0.9c1,0,1.8-0.4,2.3-1.2
			c0.5-0.7,0.7-1.5,0.7-2.6c0-1.1-0.3-1.9-0.8-2.6C97,35.4,96.2,35,95.3,35z"/>
	</g>
</g>
</svg>
