<?xml version="1.0" encoding="utf-8"?>
<!-- Generator: Adobe Illustrator 24.3.0, SVG Export Plug-In . SVG Version: 6.00 Build 0)  -->
<svg version="1.1" id="Layer_1" xmlns="http://www.w3.org/2000/svg" xmlns:xlink="http://www.w3.org/1999/xlink" x="0px" y="0px"
	 viewBox="0 0 164 68" style="enable-background:new 0 0 164 68;" xml:space="preserve">
<style type="text/css">
	.st0{fill:none;}
	.st1{fill:#1E1F1C;}
	.st2{fill:#020203;}
	.st3{fill:#080808;}
	.st4{fill:none;stroke:#020100;stroke-width:0.5;stroke-miterlimit:10;}
	.st5{fill:#1D1D1B;}
	.st6{fill:#020101;}
	.st7{fill:#FFFFFF;stroke:#000000;stroke-width:0.25;stroke-miterlimit:10;}
	.st8{fill:none;stroke:#000000;stroke-width:0.5;stroke-miterlimit:10;}
</style>
<g>
	<g>
		<g>
			<g>
				<path d="M27.8,31.3c-2.6,1.1-5.1,1.8-7.2,2.5c0,0-5.5,1.8-11.3,1.6c-0.9,0-2.5-0.2-2.8-1.1c-0.3-0.9,0.3-1.8,0.3-1.9
					c0.9-1.3,4.7-4.8,7.5-5.3c-1.6,1.5-5.5,4.1-5,5.7c0,0.2,0.4,0.6,2.3,0.8c1.9,0,3.9,0,6.1-0.3c5.7-0.6,11.8-3.4,15.4-4.6
					C31.8,29.5,29,30.8,27.8,31.3z"/>
			</g>
			<path d="M15.5,26.9c0.3,1,0.2,2.2,0.4,3.3c0.6-1.1,3.1-4.9,3.7-5.7c-0.6,0-5.7,0-6.4,0C14.1,25.2,14.8,26,15.5,26.9z"/>
		</g>
		<polygon points="28.2,38.9 30.8,38.9 30.8,0.2 28.2,2.4 		"/>
		<polygon points="22.4,38.9 24.9,38.9 24.9,5.7 22.4,7.6 		"/>
		<polygon points="16.4,38.9 19,38.9 19,10.8 16.4,12.4 		"/>
		<polygon points="36.5,14 33.9,14 33.9,52.6 36.5,50.4 		"/>
		<polygon points="42.3,14 39.7,14 39.7,47.2 42.3,45.3 		"/>
		<polygon points="48.3,14 45.7,14 45.7,42.1 48.3,40.5 		"/>
		<g>
			<g>
				<path d="M36.3,21.3c2.6-1.1,5.1-1.8,7.2-2.5c0,0,5.5-1.8,11.3-1.6c0.9,0,2.5,0.2,2.8,1.1c0.3,0.9-0.3,1.8-0.3,1.9
					c-0.9,1.3-4.7,4.8-7.5,5.3c1.6-1.5,5.5-4.1,5-5.7c0-0.2-0.4-0.6-2.3-0.8c-1.9,0-3.9,0-6.1,0.3c-5.7,0.6-11,3.1-14.7,4.1
					C32.9,22.6,35,21.8,36.3,21.3z"/>
			</g>
			<path d="M49.2,26c-0.3-1-0.5-2.1-0.7-3.3c-0.6,1.1-2.9,4.5-3.5,5.4c0.6,0,5.7,0,6.4,0C50.5,27.4,49.9,26.9,49.2,26z"/>
		</g>
	</g>
	<g>
		<path d="M14,64.4c0,0,0,0.1-0.1,0.1s-0.1,0-0.1,0.1c-0.1,0-0.1,0-0.2,0c-0.1,0-0.2,0-0.3,0c-0.1,0-0.2,0-0.3,0c-0.1,0-0.1,0-0.2,0
			c-0.1,0-0.1,0-0.1-0.1s0-0.1-0.1-0.1l-1.5-4.9h0l-1.4,4.9c0,0,0,0.1-0.1,0.1c0,0-0.1,0-0.1,0.1c0,0-0.1,0-0.2,0
			c-0.1,0-0.2,0-0.3,0c-0.1,0-0.2,0-0.3,0c-0.1,0-0.1,0-0.2,0c-0.1,0-0.1,0-0.1-0.1s0-0.1-0.1-0.1l-1.9-6c0-0.1,0-0.1,0-0.2
			c0,0,0-0.1,0-0.1s0.1,0,0.1,0c0.1,0,0.2,0,0.3,0c0.1,0,0.2,0,0.3,0c0.1,0,0.1,0,0.1,0s0.1,0,0.1,0.1s0,0.1,0,0.1l1.6,5.4h0
			l1.5-5.4c0,0,0-0.1,0-0.1c0,0,0,0,0.1-0.1s0.1,0,0.2,0c0.1,0,0.2,0,0.3,0c0.1,0,0.2,0,0.2,0c0.1,0,0.1,0,0.1,0s0.1,0,0.1,0.1
			c0,0,0,0.1,0,0.1l1.6,5.4h0l1.5-5.4c0,0,0-0.1,0-0.1c0,0,0,0,0.1-0.1s0.1,0,0.1,0c0.1,0,0.1,0,0.3,0c0.1,0,0.2,0,0.3,0
			c0.1,0,0.1,0,0.1,0c0,0,0,0.1,0,0.1c0,0,0,0.1,0,0.2L14,64.4z"/>
		<path d="M21.1,64.2c0,0.1,0,0.1,0,0.2c0,0,0,0.1,0,0.1c0,0,0,0.1-0.1,0.1c0,0,0,0-0.1,0h-3.4c-0.1,0-0.2,0-0.2-0.1
			s-0.1-0.1-0.1-0.3v-5.8c0-0.1,0-0.2,0.1-0.3s0.2-0.1,0.2-0.1h3.3c0,0,0.1,0,0.1,0c0,0,0,0,0.1,0.1c0,0,0,0.1,0,0.1
			c0,0,0,0.1,0,0.2c0,0.1,0,0.1,0,0.2c0,0,0,0.1,0,0.1c0,0,0,0-0.1,0.1c0,0,0,0-0.1,0h-2.7v2h2.4c0,0,0.1,0,0.1,0c0,0,0,0,0.1,0.1
			c0,0,0,0.1,0,0.1c0,0,0,0.1,0,0.2c0,0.1,0,0.1,0,0.2c0,0,0,0.1,0,0.1c0,0,0,0-0.1,0.1s0,0-0.1,0h-2.4v2.3h2.8c0,0,0.1,0,0.1,0
			c0,0,0,0,0.1,0.1c0,0,0,0.1,0,0.1C21.1,64.1,21.1,64.1,21.1,64.2z"/>
		<path d="M30.5,61.2c0,0.6-0.1,1-0.2,1.5c-0.2,0.4-0.4,0.8-0.7,1c-0.3,0.3-0.7,0.5-1.1,0.6c-0.4,0.1-1,0.2-1.6,0.2h-1.5
			c-0.1,0-0.2,0-0.2-0.1s-0.1-0.1-0.1-0.3v-5.8c0-0.1,0-0.2,0.1-0.3s0.2-0.1,0.2-0.1h1.6c0.6,0,1.1,0.1,1.5,0.2s0.8,0.4,1.1,0.6
			c0.3,0.3,0.5,0.6,0.6,1S30.5,60.7,30.5,61.2z M29.5,61.3c0-0.3,0-0.7-0.1-1c-0.1-0.3-0.2-0.6-0.4-0.8c-0.2-0.2-0.5-0.4-0.8-0.5
			c-0.3-0.1-0.7-0.2-1.2-0.2H26v5h1c0.4,0,0.8-0.1,1.1-0.2c0.3-0.1,0.6-0.3,0.8-0.5s0.4-0.5,0.5-0.8C29.5,62.1,29.5,61.7,29.5,61.3z
			"/>
		<path d="M35.9,64.2c0,0.1,0,0.1,0,0.2c0,0,0,0.1,0,0.1c0,0,0,0.1-0.1,0.1c0,0,0,0-0.1,0h-3.4c-0.1,0-0.2,0-0.2-0.1
			s-0.1-0.1-0.1-0.3v-5.8c0-0.1,0-0.2,0.1-0.3s0.2-0.1,0.2-0.1h3.3c0,0,0.1,0,0.1,0c0,0,0,0,0.1,0.1c0,0,0,0.1,0,0.1
			c0,0,0,0.1,0,0.2c0,0.1,0,0.1,0,0.2c0,0,0,0.1,0,0.1c0,0,0,0-0.1,0.1c0,0,0,0-0.1,0h-2.7v2h2.4c0,0,0.1,0,0.1,0c0,0,0,0,0.1,0.1
			c0,0,0,0.1,0,0.1c0,0,0,0.1,0,0.2c0,0.1,0,0.1,0,0.2c0,0,0,0.1,0,0.1c0,0,0,0-0.1,0.1s0,0-0.1,0h-2.4v2.3h2.8c0,0,0.1,0,0.1,0
			c0,0,0,0,0.1,0.1c0,0,0,0.1,0,0.1C35.9,64.1,35.9,64.1,35.9,64.2z"/>
		<path d="M41.1,62.7c0,0.3-0.1,0.6-0.2,0.8s-0.3,0.4-0.5,0.6c-0.2,0.2-0.5,0.3-0.8,0.4s-0.6,0.1-0.9,0.1c-0.2,0-0.5,0-0.7-0.1
			c-0.2,0-0.4-0.1-0.5-0.1c-0.2-0.1-0.3-0.1-0.4-0.2s-0.2-0.1-0.2-0.1c0,0-0.1-0.1-0.1-0.2c0-0.1,0-0.1,0-0.2c0-0.1,0-0.1,0-0.2
			c0,0,0-0.1,0-0.1c0,0,0-0.1,0.1-0.1c0,0,0,0,0.1,0c0.1,0,0.1,0,0.2,0.1c0.1,0.1,0.2,0.1,0.4,0.2c0.1,0.1,0.3,0.1,0.5,0.2
			c0.2,0.1,0.4,0.1,0.7,0.1c0.2,0,0.4,0,0.6-0.1c0.2,0,0.3-0.1,0.4-0.2c0.1-0.1,0.2-0.2,0.3-0.3c0.1-0.1,0.1-0.3,0.1-0.5
			c0-0.2,0-0.3-0.1-0.5c-0.1-0.1-0.2-0.2-0.4-0.3c-0.1-0.1-0.3-0.2-0.5-0.3c-0.2-0.1-0.4-0.2-0.6-0.2s-0.4-0.2-0.6-0.3
			c-0.2-0.1-0.4-0.2-0.5-0.4s-0.3-0.3-0.4-0.5C37,60.2,37,60,37,59.7c0-0.3,0.1-0.5,0.2-0.7s0.3-0.4,0.4-0.5
			c0.2-0.1,0.4-0.3,0.7-0.3c0.3-0.1,0.5-0.1,0.8-0.1c0.2,0,0.3,0,0.5,0s0.3,0.1,0.4,0.1c0.1,0,0.3,0.1,0.4,0.1
			c0.1,0.1,0.2,0.1,0.2,0.1c0,0,0.1,0.1,0.1,0.1c0,0,0,0,0,0.1c0,0,0,0.1,0,0.1s0,0.1,0,0.2c0,0.1,0,0.1,0,0.2c0,0,0,0.1,0,0.1
			c0,0,0,0.1,0,0.1s0,0-0.1,0c0,0-0.1,0-0.2-0.1c-0.1,0-0.2-0.1-0.3-0.2c-0.1-0.1-0.3-0.1-0.4-0.2c-0.2,0-0.4-0.1-0.6-0.1
			c-0.2,0-0.4,0-0.5,0.1c-0.1,0-0.3,0.1-0.4,0.2c-0.1,0.1-0.2,0.2-0.2,0.3c0,0.1-0.1,0.2-0.1,0.3c0,0.2,0,0.3,0.1,0.5
			s0.2,0.2,0.4,0.3c0.2,0.1,0.3,0.2,0.5,0.3c0.2,0.1,0.4,0.2,0.6,0.3c0.2,0.1,0.4,0.2,0.6,0.3s0.4,0.2,0.5,0.4
			c0.2,0.1,0.3,0.3,0.4,0.5C41.1,62.3,41.1,62.5,41.1,62.7z"/>
		<path d="M43.4,64.4C43.4,64.5,43.4,64.5,43.4,64.4c0,0.1-0.1,0.1-0.1,0.1s-0.1,0-0.1,0c-0.1,0-0.1,0-0.2,0c-0.1,0-0.2,0-0.2,0
			c-0.1,0-0.1,0-0.1,0s-0.1,0-0.1,0c0,0,0,0,0-0.1v-6.2c0,0,0,0,0-0.1c0,0,0,0,0.1,0s0.1,0,0.1,0c0.1,0,0.1,0,0.2,0
			c0.1,0,0.2,0,0.2,0c0.1,0,0.1,0,0.1,0s0.1,0,0.1,0c0,0,0,0,0,0.1V64.4z"/>
		<path d="M50.6,59c0,0.1,0,0.1,0,0.2c0,0,0,0.1,0,0.1c0,0,0,0.1-0.1,0.1c0,0,0,0-0.1,0c0,0-0.1,0-0.2-0.1c-0.1-0.1-0.2-0.1-0.4-0.2
			c-0.2-0.1-0.4-0.1-0.6-0.2c-0.2-0.1-0.5-0.1-0.8-0.1c-0.4,0-0.7,0.1-1,0.2c-0.3,0.1-0.6,0.3-0.8,0.5c-0.2,0.2-0.4,0.5-0.5,0.8
			s-0.2,0.7-0.2,1c0,0.4,0.1,0.8,0.2,1.1c0.1,0.3,0.3,0.6,0.5,0.8s0.5,0.4,0.8,0.5c0.3,0.1,0.6,0.2,1,0.2c0.2,0,0.4,0,0.7-0.1
			c0.2,0,0.4-0.1,0.6-0.2v-1.9H48c-0.1,0-0.1,0-0.1-0.1c0-0.1,0-0.1,0-0.3c0-0.1,0-0.1,0-0.2c0,0,0-0.1,0-0.1c0,0,0,0,0.1-0.1
			s0,0,0.1,0h2.2c0,0,0.1,0,0.1,0c0,0,0.1,0,0.1,0.1c0,0,0.1,0.1,0.1,0.1c0,0,0,0.1,0,0.2v2.5c0,0.1,0,0.2,0,0.2
			c0,0.1-0.1,0.1-0.2,0.2c-0.1,0-0.2,0.1-0.4,0.2c-0.2,0.1-0.3,0.1-0.5,0.1c-0.2,0-0.4,0.1-0.5,0.1c-0.2,0-0.4,0-0.5,0
			c-0.5,0-1-0.1-1.5-0.2c-0.4-0.2-0.8-0.4-1.1-0.7c-0.3-0.3-0.5-0.6-0.7-1c-0.2-0.4-0.2-0.8-0.2-1.3c0-0.5,0.1-1,0.3-1.4
			s0.4-0.8,0.7-1.1c0.3-0.3,0.7-0.5,1.1-0.7c0.4-0.2,0.9-0.2,1.4-0.2c0.3,0,0.5,0,0.8,0.1c0.2,0,0.4,0.1,0.6,0.2
			c0.2,0.1,0.3,0.1,0.5,0.2c0.1,0.1,0.2,0.1,0.3,0.2c0,0,0.1,0.1,0.1,0.1C50.5,58.8,50.6,58.9,50.6,59z"/>
		<path d="M57.6,64.2c0,0.1,0,0.1,0,0.2c0,0-0.1,0.1-0.1,0.1c0,0-0.1,0.1-0.1,0.1c0,0-0.1,0-0.1,0h-0.3c-0.1,0-0.2,0-0.3,0
			c-0.1,0-0.1-0.1-0.2-0.1s-0.1-0.1-0.2-0.2s-0.1-0.2-0.2-0.3l-2.1-3.7c-0.1-0.2-0.2-0.4-0.3-0.6c-0.1-0.2-0.2-0.4-0.3-0.6h0
			c0,0.2,0,0.5,0,0.7c0,0.2,0,0.5,0,0.7v3.9c0,0,0,0,0,0.1c0,0,0,0-0.1,0s-0.1,0-0.1,0c-0.1,0-0.1,0-0.2,0s-0.2,0-0.2,0
			c-0.1,0-0.1,0-0.1,0s-0.1,0-0.1,0c0,0,0,0,0-0.1v-6c0-0.1,0-0.2,0.1-0.3c0.1-0.1,0.2-0.1,0.3-0.1h0.5c0.1,0,0.2,0,0.3,0
			c0.1,0,0.1,0,0.2,0.1c0.1,0,0.1,0.1,0.2,0.2c0.1,0.1,0.1,0.2,0.2,0.3l1.6,2.8c0.1,0.2,0.2,0.3,0.3,0.5c0.1,0.2,0.2,0.3,0.3,0.5
			c0.1,0.2,0.2,0.3,0.3,0.5c0.1,0.2,0.2,0.3,0.3,0.5h0c0-0.3,0-0.5,0-0.8c0-0.3,0-0.6,0-0.8v-3.5c0,0,0,0,0-0.1c0,0,0,0,0.1-0.1
			s0.1,0,0.1,0c0.1,0,0.1,0,0.2,0c0.1,0,0.2,0,0.2,0c0.1,0,0.1,0,0.1,0s0.1,0,0.1,0.1c0,0,0,0,0,0.1V64.2z"/>
		<path d="M61.6,62.9c0-0.2,0-0.4,0.1-0.5c0.1-0.2,0.1-0.3,0.3-0.5c0.1-0.2,0.3-0.3,0.5-0.4c0.2-0.1,0.4-0.3,0.7-0.4
			c-0.1-0.2-0.3-0.3-0.4-0.5c-0.1-0.1-0.2-0.3-0.3-0.4c-0.1-0.1-0.1-0.2-0.1-0.4c0-0.1,0-0.2,0-0.3c0-0.2,0-0.4,0.1-0.6
			c0.1-0.2,0.2-0.4,0.4-0.5s0.4-0.3,0.6-0.3s0.6-0.1,1-0.1c0.3,0,0.6,0,0.8,0.1s0.4,0.2,0.6,0.3c0.2,0.1,0.3,0.3,0.3,0.4
			s0.1,0.3,0.1,0.6c0,0.2,0,0.4-0.1,0.5S66,60,65.8,60.2c-0.2,0.2-0.3,0.3-0.6,0.5c-0.2,0.2-0.5,0.3-0.9,0.5
			c0.1,0.1,0.3,0.3,0.4,0.4c0.1,0.1,0.3,0.3,0.5,0.4c0.2,0.1,0.3,0.3,0.5,0.4c0.2,0.1,0.3,0.3,0.5,0.4c0.1-0.1,0.1-0.2,0.2-0.3
			c0.1-0.1,0.1-0.2,0.2-0.4c0-0.1,0.1-0.3,0.1-0.4c0-0.1,0-0.3,0-0.4v-0.2c0,0,0-0.1,0-0.1c0,0,0,0,0.1-0.1c0,0,0.1,0,0.1,0
			c0.1,0,0.1,0,0.2,0c0.1,0,0.1,0,0.2,0c0.1,0,0.1,0,0.1,0c0,0,0.1,0,0.1,0.1c0,0,0,0.1,0,0.1v0.1c0,0.2,0,0.4-0.1,0.5
			s-0.1,0.4-0.1,0.5c-0.1,0.2-0.1,0.3-0.2,0.5s-0.2,0.3-0.3,0.4c0.2,0.1,0.3,0.2,0.4,0.3c0.1,0.1,0.2,0.1,0.3,0.2s0.2,0.1,0.2,0.1
			c0.1,0,0.1,0,0.1,0s0.1,0,0.1,0c0,0,0.1,0,0.1,0c0,0,0,0,0,0.1c0,0,0,0.1,0,0.2s0,0.1,0,0.2c0,0,0,0.1,0,0.1c0,0,0,0,0,0.1
			s-0.1,0-0.1,0c-0.1,0-0.1,0-0.2,0c-0.1,0-0.2,0-0.2,0s-0.2-0.1-0.3-0.1c-0.1-0.1-0.2-0.1-0.4-0.2c-0.2-0.1-0.3-0.2-0.5-0.4
			c-0.2,0.1-0.3,0.2-0.5,0.3c-0.2,0.1-0.3,0.2-0.5,0.2s-0.4,0.1-0.6,0.2s-0.4,0.1-0.7,0.1c-0.2,0-0.4,0-0.6-0.1
			c-0.2,0-0.4-0.1-0.6-0.2s-0.3-0.2-0.5-0.3c-0.1-0.1-0.3-0.2-0.3-0.4s-0.2-0.3-0.2-0.4C61.6,63.2,61.6,63,61.6,62.9z M62.6,62.8
			c0,0.2,0,0.3,0.1,0.5c0.1,0.1,0.2,0.3,0.3,0.4c0.1,0.1,0.3,0.2,0.5,0.2s0.4,0.1,0.6,0.1c0.1,0,0.3,0,0.4,0c0.1,0,0.3-0.1,0.4-0.1
			c0.1,0,0.3-0.1,0.4-0.2c0.1-0.1,0.2-0.1,0.3-0.2c-0.2-0.1-0.4-0.3-0.6-0.5s-0.4-0.3-0.5-0.5c-0.2-0.2-0.3-0.3-0.5-0.5
			c-0.2-0.2-0.3-0.3-0.4-0.5c-0.2,0.1-0.3,0.2-0.5,0.3c-0.1,0.1-0.2,0.2-0.3,0.3c-0.1,0.1-0.1,0.2-0.2,0.3
			C62.6,62.5,62.6,62.7,62.6,62.8z M63.2,59.3c0,0.1,0,0.2,0,0.3c0,0.1,0.1,0.2,0.1,0.3s0.1,0.2,0.2,0.3s0.2,0.2,0.3,0.4
			c0.3-0.1,0.5-0.3,0.7-0.4c0.2-0.1,0.3-0.2,0.4-0.3s0.2-0.2,0.2-0.3c0-0.1,0.1-0.2,0.1-0.3c0-0.1,0-0.2-0.1-0.3
			c0-0.1-0.1-0.2-0.2-0.2c-0.1-0.1-0.2-0.1-0.3-0.2c-0.1,0-0.3-0.1-0.5-0.1c-0.2,0-0.4,0-0.5,0.1c-0.1,0-0.2,0.1-0.3,0.2
			c-0.1,0.1-0.1,0.2-0.2,0.3C63.2,59.1,63.2,59.2,63.2,59.3z"/>
		<path d="M76.7,62.7c0,0.2,0,0.4-0.1,0.6c-0.1,0.2-0.1,0.3-0.2,0.5c-0.1,0.1-0.2,0.3-0.4,0.4c-0.1,0.1-0.3,0.2-0.5,0.3
			c-0.2,0.1-0.4,0.1-0.6,0.2c-0.2,0-0.4,0.1-0.7,0.1h-1.8c-0.1,0-0.2,0-0.2-0.1s-0.1-0.1-0.1-0.3v-5.8c0-0.1,0-0.2,0.1-0.3
			s0.2-0.1,0.2-0.1H74c0.4,0,0.8,0,1,0.1s0.5,0.2,0.7,0.3c0.2,0.1,0.3,0.3,0.4,0.5c0.1,0.2,0.1,0.4,0.1,0.7c0,0.2,0,0.3-0.1,0.4
			s-0.1,0.3-0.2,0.4c-0.1,0.1-0.2,0.2-0.3,0.3c-0.1,0.1-0.3,0.2-0.4,0.2c0.2,0,0.4,0.1,0.5,0.2c0.2,0.1,0.3,0.2,0.4,0.3
			s0.2,0.3,0.3,0.5C76.7,62.3,76.7,62.5,76.7,62.7z M75.3,59.8c0-0.2,0-0.3-0.1-0.4c0-0.1-0.1-0.2-0.2-0.3c-0.1-0.1-0.2-0.2-0.4-0.2
			s-0.4-0.1-0.6-0.1h-1v2.1H74c0.2,0,0.4,0,0.6-0.1c0.1-0.1,0.3-0.1,0.4-0.2c0.1-0.1,0.2-0.2,0.2-0.3S75.3,60,75.3,59.8z M75.7,62.8
			c0-0.2,0-0.4-0.1-0.5c-0.1-0.1-0.2-0.3-0.3-0.4c-0.1-0.1-0.3-0.2-0.5-0.2s-0.4-0.1-0.7-0.1H73v2.3h1.4c0.2,0,0.4,0,0.6-0.1
			c0.2,0,0.3-0.1,0.4-0.2c0.1-0.1,0.2-0.2,0.3-0.3S75.7,62.9,75.7,62.8z"/>
		<path d="M83.4,62.2c0,0.4-0.1,0.7-0.2,1.1c-0.1,0.3-0.3,0.6-0.5,0.8c-0.2,0.2-0.5,0.4-0.8,0.5c-0.3,0.1-0.7,0.2-1.1,0.2
			c-0.4,0-0.7-0.1-1.1-0.2c-0.3-0.1-0.6-0.3-0.8-0.5c-0.2-0.2-0.4-0.5-0.5-0.8c-0.1-0.3-0.2-0.7-0.2-1v-4c0,0,0,0,0-0.1
			c0,0,0,0,0.1,0s0.1,0,0.1,0c0.1,0,0.1,0,0.2,0c0.1,0,0.2,0,0.2,0c0.1,0,0.1,0,0.1,0s0.1,0,0.1,0c0,0,0,0,0,0.1v3.9
			c0,0.3,0,0.6,0.1,0.8c0.1,0.2,0.2,0.4,0.3,0.6s0.3,0.3,0.5,0.3c0.2,0.1,0.4,0.1,0.7,0.1c0.3,0,0.5,0,0.7-0.1
			c0.2-0.1,0.4-0.2,0.5-0.3c0.1-0.1,0.3-0.3,0.3-0.5c0.1-0.2,0.1-0.5,0.1-0.8v-3.9c0,0,0,0,0-0.1c0,0,0,0,0.1,0s0.1,0,0.1,0
			c0.1,0,0.1,0,0.2,0c0.1,0,0.2,0,0.2,0c0.1,0,0.1,0,0.1,0c0,0,0.1,0,0.1,0c0,0,0,0,0,0.1V62.2z"/>
		<path d="M86.2,64.4C86.2,64.5,86.2,64.5,86.2,64.4c0,0.1-0.1,0.1-0.1,0.1s-0.1,0-0.1,0c-0.1,0-0.1,0-0.2,0c-0.1,0-0.2,0-0.2,0
			c-0.1,0-0.1,0-0.1,0s-0.1,0-0.1,0c0,0,0,0,0-0.1v-6.2c0,0,0,0,0-0.1c0,0,0,0,0.1,0s0.1,0,0.1,0c0.1,0,0.1,0,0.2,0
			c0.1,0,0.2,0,0.2,0c0.1,0,0.1,0,0.1,0s0.1,0,0.1,0c0,0,0,0,0,0.1V64.4z"/>
		<path d="M91.7,64.2c0,0.1,0,0.1,0,0.2c0,0,0,0.1,0,0.1c0,0,0,0.1-0.1,0.1s-0.1,0-0.1,0h-3.1c-0.1,0-0.2,0-0.2-0.1S88,64.3,88,64.2
			v-6c0,0,0,0,0-0.1c0,0,0,0,0.1,0s0.1,0,0.1,0c0.1,0,0.1,0,0.2,0c0.1,0,0.2,0,0.2,0c0.1,0,0.1,0,0.1,0s0.1,0,0.1,0c0,0,0,0,0,0.1
			v5.6h2.5c0,0,0.1,0,0.1,0c0,0,0,0,0.1,0.1c0,0,0,0.1,0,0.1C91.7,64.1,91.7,64.1,91.7,64.2z"/>
		<path d="M98.1,61.2c0,0.6-0.1,1-0.2,1.5c-0.2,0.4-0.4,0.8-0.7,1c-0.3,0.3-0.7,0.5-1.1,0.6c-0.4,0.1-1,0.2-1.6,0.2H93
			c-0.1,0-0.2,0-0.2-0.1s-0.1-0.1-0.1-0.3v-5.8c0-0.1,0-0.2,0.1-0.3s0.2-0.1,0.2-0.1h1.6c0.6,0,1.1,0.1,1.5,0.2s0.8,0.4,1.1,0.6
			c0.3,0.3,0.5,0.6,0.6,1S98.1,60.7,98.1,61.2z M97.1,61.3c0-0.3,0-0.7-0.1-1c-0.1-0.3-0.2-0.6-0.4-0.8c-0.2-0.2-0.5-0.4-0.8-0.5
			c-0.3-0.1-0.7-0.2-1.2-0.2h-0.9v5h1c0.4,0,0.8-0.1,1.1-0.2c0.3-0.1,0.6-0.3,0.8-0.5s0.4-0.5,0.5-0.8
			C97.1,62.1,97.1,61.7,97.1,61.3z"/>
		<path d="M106.4,58.5c0,0.1,0,0.1,0,0.2c0,0,0,0.1,0,0.1s0,0-0.1,0.1c0,0,0,0-0.1,0h-2v5.6c0,0,0,0,0,0.1c0,0,0,0-0.1,0
			c0,0-0.1,0-0.1,0c-0.1,0-0.1,0-0.2,0c-0.1,0-0.2,0-0.2,0c-0.1,0-0.1,0-0.1,0s-0.1,0-0.1,0c0,0,0,0,0-0.1v-5.6h-2c0,0-0.1,0-0.1,0
			c0,0,0,0-0.1-0.1s0-0.1,0-0.1s0-0.1,0-0.2s0-0.1,0-0.2c0,0,0-0.1,0-0.1c0,0,0-0.1,0.1-0.1c0,0,0,0,0.1,0h4.9c0,0,0.1,0,0.1,0
			c0,0,0,0,0.1,0.1c0,0,0,0.1,0,0.1C106.4,58.4,106.4,58.4,106.4,58.5z"/>
		<path d="M112.5,64.4C112.5,64.5,112.5,64.5,112.5,64.4c0,0.1-0.1,0.1-0.1,0.1s-0.1,0-0.1,0c-0.1,0-0.1,0-0.2,0c-0.1,0-0.2,0-0.2,0
			c-0.1,0-0.1,0-0.1,0s-0.1,0-0.1,0c0,0,0,0,0-0.1v-2.9h-3.2v2.9c0,0,0,0,0,0.1c0,0,0,0-0.1,0s-0.1,0-0.1,0c-0.1,0-0.1,0-0.2,0
			c-0.1,0-0.2,0-0.2,0c-0.1,0-0.1,0-0.1,0s-0.1,0-0.1,0c0,0,0,0,0-0.1v-6.2c0,0,0,0,0-0.1c0,0,0,0,0.1,0s0.1,0,0.1,0
			c0.1,0,0.1,0,0.2,0c0.1,0,0.2,0,0.2,0c0.1,0,0.1,0,0.1,0s0.1,0,0.1,0c0,0,0,0,0,0.1v2.6h3.2v-2.6c0,0,0,0,0-0.1c0,0,0,0,0.1,0
			s0.1,0,0.1,0c0.1,0,0.1,0,0.2,0c0.1,0,0.2,0,0.2,0c0.1,0,0.1,0,0.1,0s0.1,0,0.1,0c0,0,0,0,0,0.1V64.4z"/>
		<path d="M118.3,64.2c0,0.1,0,0.1,0,0.2c0,0,0,0.1,0,0.1c0,0,0,0.1-0.1,0.1c0,0,0,0-0.1,0h-3.4c-0.1,0-0.2,0-0.2-0.1
			s-0.1-0.1-0.1-0.3v-5.8c0-0.1,0-0.2,0.1-0.3s0.2-0.1,0.2-0.1h3.3c0,0,0.1,0,0.1,0c0,0,0,0,0.1,0.1c0,0,0,0.1,0,0.1
			c0,0,0,0.1,0,0.2c0,0.1,0,0.1,0,0.2c0,0,0,0.1,0,0.1c0,0,0,0-0.1,0.1c0,0,0,0-0.1,0h-2.7v2h2.4c0,0,0.1,0,0.1,0c0,0,0,0,0.1,0.1
			c0,0,0,0.1,0,0.1c0,0,0,0.1,0,0.2c0,0.1,0,0.1,0,0.2c0,0,0,0.1,0,0.1c0,0,0,0-0.1,0.1s0,0-0.1,0h-2.4v2.3h2.8c0,0,0.1,0,0.1,0
			c0,0,0,0,0.1,0.1c0,0,0,0.1,0,0.1C118.3,64.1,118.3,64.1,118.3,64.2z"/>
		<path d="M126,58.5c0,0.1,0,0.1,0,0.2c0,0,0,0.1,0,0.1c0,0,0,0-0.1,0.1c0,0,0,0-0.1,0h-2.6V61h2.4c0,0,0,0,0.1,0c0,0,0,0,0.1,0.1
			c0,0,0,0.1,0,0.1c0,0,0,0.1,0,0.2c0,0.1,0,0.1,0,0.2c0,0,0,0.1,0,0.1c0,0,0,0-0.1,0.1c0,0,0,0-0.1,0h-2.4v2.7c0,0,0,0,0,0.1
			c0,0,0,0-0.1,0s-0.1,0-0.1,0c-0.1,0-0.1,0-0.2,0c-0.1,0-0.2,0-0.2,0c-0.1,0-0.1,0-0.1,0s-0.1,0-0.1,0c0,0,0,0,0-0.1v-6
			c0-0.1,0-0.2,0.1-0.3s0.2-0.1,0.2-0.1h3.2c0,0,0,0,0.1,0c0,0,0,0,0.1,0.1c0,0,0,0.1,0,0.1C126,58.4,126,58.4,126,58.5z"/>
		<path d="M132.7,62.2c0,0.4-0.1,0.7-0.2,1.1c-0.1,0.3-0.3,0.6-0.5,0.8c-0.2,0.2-0.5,0.4-0.8,0.5c-0.3,0.1-0.7,0.2-1.1,0.2
			c-0.4,0-0.7-0.1-1.1-0.2c-0.3-0.1-0.6-0.3-0.8-0.5c-0.2-0.2-0.4-0.5-0.5-0.8c-0.1-0.3-0.2-0.7-0.2-1v-4c0,0,0,0,0-0.1
			c0,0,0,0,0.1,0s0.1,0,0.1,0c0.1,0,0.1,0,0.2,0c0.1,0,0.2,0,0.2,0c0.1,0,0.1,0,0.1,0s0.1,0,0.1,0c0,0,0,0,0,0.1v3.9
			c0,0.3,0,0.6,0.1,0.8c0.1,0.2,0.2,0.4,0.3,0.6s0.3,0.3,0.5,0.3c0.2,0.1,0.4,0.1,0.7,0.1c0.3,0,0.5,0,0.7-0.1
			c0.2-0.1,0.4-0.2,0.5-0.3c0.1-0.1,0.3-0.3,0.3-0.5c0.1-0.2,0.1-0.5,0.1-0.8v-3.9c0,0,0,0,0-0.1c0,0,0,0,0.1,0s0.1,0,0.1,0
			c0.1,0,0.1,0,0.2,0c0.1,0,0.2,0,0.2,0c0.1,0,0.1,0,0.1,0c0,0,0.1,0,0.1,0c0,0,0,0,0,0.1V62.2z"/>
		<path d="M138.9,58.5c0,0.1,0,0.1,0,0.2c0,0,0,0.1,0,0.1s0,0-0.1,0.1c0,0,0,0-0.1,0h-2v5.6c0,0,0,0,0,0.1c0,0,0,0-0.1,0
			c0,0-0.1,0-0.1,0c-0.1,0-0.1,0-0.2,0c-0.1,0-0.2,0-0.2,0c-0.1,0-0.1,0-0.1,0s-0.1,0-0.1,0c0,0,0,0,0-0.1v-5.6h-2c0,0-0.1,0-0.1,0
			c0,0,0,0-0.1-0.1s0-0.1,0-0.1s0-0.1,0-0.2s0-0.1,0-0.2c0,0,0-0.1,0-0.1c0,0,0-0.1,0.1-0.1c0,0,0,0,0.1,0h4.9c0,0,0.1,0,0.1,0
			c0,0,0,0,0.1,0.1c0,0,0,0.1,0,0.1C138.9,58.4,138.9,58.4,138.9,58.5z"/>
		<path d="M145.2,62.2c0,0.4-0.1,0.7-0.2,1.1c-0.1,0.3-0.3,0.6-0.5,0.8c-0.2,0.2-0.5,0.4-0.8,0.5c-0.3,0.1-0.7,0.2-1.1,0.2
			c-0.4,0-0.7-0.1-1.1-0.2c-0.3-0.1-0.6-0.3-0.8-0.5c-0.2-0.2-0.4-0.5-0.5-0.8c-0.1-0.3-0.2-0.7-0.2-1v-4c0,0,0,0,0-0.1
			c0,0,0,0,0.1,0s0.1,0,0.1,0c0.1,0,0.1,0,0.2,0c0.1,0,0.2,0,0.2,0c0.1,0,0.1,0,0.1,0s0.1,0,0.1,0c0,0,0,0,0,0.1v3.9
			c0,0.3,0,0.6,0.1,0.8c0.1,0.2,0.2,0.4,0.3,0.6s0.3,0.3,0.5,0.3c0.2,0.1,0.4,0.1,0.7,0.1c0.3,0,0.5,0,0.7-0.1
			c0.2-0.1,0.4-0.2,0.5-0.3c0.1-0.1,0.3-0.3,0.3-0.5c0.1-0.2,0.1-0.5,0.1-0.8v-3.9c0,0,0,0,0-0.1c0,0,0,0,0.1,0s0.1,0,0.1,0
			c0.1,0,0.1,0,0.2,0c0.1,0,0.2,0,0.2,0c0.1,0,0.1,0,0.1,0c0,0,0.1,0,0.1,0c0,0,0,0,0,0.1V62.2z"/>
		<path d="M151.8,64.4C151.8,64.5,151.8,64.5,151.8,64.4c0,0.1-0.1,0.1-0.1,0.1c0,0-0.1,0-0.2,0c-0.1,0-0.2,0-0.3,0
			c-0.1,0-0.2,0-0.2,0c-0.1,0-0.1,0-0.1,0c0,0-0.1,0-0.1-0.1c0,0,0-0.1-0.1-0.1l-0.6-1.5c-0.1-0.2-0.2-0.3-0.2-0.5
			c-0.1-0.1-0.2-0.3-0.3-0.4c-0.1-0.1-0.2-0.2-0.4-0.2c-0.2-0.1-0.3-0.1-0.5-0.1H148v2.8c0,0,0,0,0,0.1c0,0,0,0-0.1,0s-0.1,0-0.1,0
			c-0.1,0-0.1,0-0.2,0c-0.1,0-0.2,0-0.2,0c-0.1,0-0.1,0-0.1,0s-0.1,0-0.1,0c0,0,0,0,0-0.1v-6c0-0.1,0-0.2,0.1-0.3s0.2-0.1,0.2-0.1
			h1.5c0.2,0,0.3,0,0.4,0c0.1,0,0.2,0,0.3,0c0.3,0,0.5,0.1,0.7,0.2c0.2,0.1,0.4,0.2,0.5,0.4c0.1,0.1,0.2,0.3,0.3,0.5
			s0.1,0.4,0.1,0.6c0,0.2,0,0.4-0.1,0.6c-0.1,0.2-0.2,0.3-0.3,0.5c-0.1,0.1-0.3,0.2-0.4,0.3s-0.4,0.2-0.6,0.2c0.1,0,0.2,0.1,0.3,0.2
			s0.2,0.2,0.3,0.3c0.1,0.1,0.2,0.2,0.2,0.3s0.1,0.3,0.2,0.4l0.6,1.4c0.1,0.1,0.1,0.2,0.1,0.3C151.8,64.4,151.8,64.4,151.8,64.4z
			 M150.4,59.9c0-0.3-0.1-0.5-0.2-0.6c-0.1-0.2-0.3-0.3-0.6-0.4c-0.1,0-0.2,0-0.3,0c-0.1,0-0.3,0-0.4,0H148V61h0.9
			c0.2,0,0.5,0,0.6-0.1c0.2-0.1,0.3-0.1,0.4-0.2c0.1-0.1,0.2-0.2,0.3-0.3C150.3,60.2,150.4,60,150.4,59.9z"/>
		<path d="M157,64.2c0,0.1,0,0.1,0,0.2c0,0,0,0.1,0,0.1c0,0,0,0.1-0.1,0.1c0,0,0,0-0.1,0h-3.4c-0.1,0-0.2,0-0.2-0.1
			s-0.1-0.1-0.1-0.3v-5.8c0-0.1,0-0.2,0.1-0.3s0.2-0.1,0.2-0.1h3.3c0,0,0.1,0,0.1,0c0,0,0,0,0.1,0.1c0,0,0,0.1,0,0.1
			c0,0,0,0.1,0,0.2c0,0.1,0,0.1,0,0.2c0,0,0,0.1,0,0.1c0,0,0,0-0.1,0.1c0,0,0,0-0.1,0h-2.7v2h2.4c0,0,0.1,0,0.1,0c0,0,0,0,0.1,0.1
			c0,0,0,0.1,0,0.1c0,0,0,0.1,0,0.2c0,0.1,0,0.1,0,0.2c0,0,0,0.1,0,0.1c0,0,0,0-0.1,0.1s0,0-0.1,0h-2.4v2.3h2.8c0,0,0.1,0,0.1,0
			c0,0,0,0,0.1,0.1c0,0,0,0.1,0,0.1C157,64.1,157,64.1,157,64.2z"/>
	</g>
	<g>
		<path d="M70.4,12.3v25.5H67V12.3H70.4z"/>
		<path d="M80.1,12.3v25.5h-3.4V12.3H80.1z M78.6,22.5h19v2.9h-19V22.5z M98.7,12.3v25.5h-3.4V12.3H98.7z"/>
		<path d="M108.5,30.3c1,1.5,2.2,2.7,3.8,3.5c1.6,0.9,3.3,1.3,5.1,1.3c1.3,0,2.5-0.2,3.6-0.5c1.1-0.3,2.1-0.8,3-1.3
			c0.9-0.6,1.7-1.2,2.3-2v4.1c-1.2,0.9-2.4,1.7-3.8,2.1s-3.1,0.7-5.1,0.7c-1.9,0-3.7-0.3-5.4-1c-1.7-0.6-3.2-1.6-4.4-2.7
			c-1.3-1.2-2.3-2.6-3-4.2s-1.1-3.4-1.1-5.3s0.4-3.6,1.1-5.3s1.7-3,3-4.2c1.3-1.2,2.7-2.1,4.4-2.7c1.7-0.6,3.5-1,5.4-1
			c2,0,3.7,0.2,5.1,0.7c1.4,0.5,2.6,1.2,3.8,2.1v4.1c-0.6-0.8-1.4-1.4-2.3-2c-0.9-0.6-1.9-1-3-1.3c-1.1-0.3-2.3-0.5-3.6-0.5
			c-1.8,0-3.5,0.4-5.1,1.3c-1.6,0.9-2.8,2-3.8,3.5s-1.4,3.2-1.4,5.2C107.1,27,107.6,28.7,108.5,30.3z"/>
		<path d="M135.7,30.3c1,1.5,2.2,2.7,3.8,3.5c1.6,0.9,3.3,1.3,5.1,1.3c1.3,0,2.5-0.2,3.6-0.5c1.1-0.3,2.1-0.8,3-1.3
			c0.9-0.6,1.7-1.2,2.3-2v4.1c-1.2,0.9-2.4,1.7-3.8,2.1s-3.1,0.7-5.1,0.7c-1.9,0-3.7-0.3-5.4-1c-1.7-0.6-3.2-1.6-4.4-2.7
			c-1.3-1.2-2.3-2.6-3-4.2s-1.1-3.4-1.1-5.3s0.4-3.6,1.1-5.3s1.7-3,3-4.2c1.3-1.2,2.7-2.1,4.4-2.7c1.7-0.6,3.5-1,5.4-1
			c2,0,3.7,0.2,5.1,0.7c1.4,0.5,2.6,1.2,3.8,2.1v4.1c-0.6-0.8-1.4-1.4-2.3-2c-0.9-0.6-1.9-1-3-1.3c-1.1-0.3-2.3-0.5-3.6-0.5
			c-1.8,0-3.5,0.4-5.1,1.3c-1.6,0.9-2.8,2-3.8,3.5s-1.4,3.2-1.4,5.2C134.2,27,134.7,28.7,135.7,30.3z"/>
	</g>
</g>
</svg>
