<?xml version="1.0" encoding="utf-8"?>
<!-- Generator: Adobe Illustrator 24.3.0, SVG Export Plug-In . SVG Version: 6.00 Build 0)  -->
<svg version="1.1" id="Layer_1" xmlns="http://www.w3.org/2000/svg" xmlns:xlink="http://www.w3.org/1999/xlink" x="0px" y="0px"
	 viewBox="0 0 164 68" style="enable-background:new 0 0 164 68;" xml:space="preserve">
<style type="text/css">
	.st0{fill:none;}
	.st1{fill:#1E1F1C;}
	.st2{fill:#020203;}
	.st3{fill:#080808;}
	.st4{fill:none;stroke:#020100;stroke-width:0.5;stroke-miterlimit:10;}
	.st5{fill:#1D1D1B;}
	.st6{fill:#020101;}
	.st7{fill:#FFFFFF;stroke:#000000;stroke-width:0.25;stroke-miterlimit:10;}
	.st8{fill:none;stroke:#000000;stroke-width:0.5;stroke-miterlimit:10;}
</style>
<g>
	<path class="st5" d="M5.5,46.5c0,0.5,0,1-0.1,1.5c-0.1,0.5-0.3,0.8-0.5,1.2c-0.2,0.3-0.6,0.6-0.9,0.7c-0.4,0.2-0.9,0.3-1.5,0.3
		c-0.2,0-0.4,0-0.6,0c-0.2,0-0.4-0.1-0.5-0.1c-0.2-0.1-0.3-0.1-0.4-0.2c-0.1-0.1-0.2-0.1-0.2-0.2c0,0-0.1-0.1-0.1-0.1
		c0,0,0-0.1-0.1-0.2c0-0.1,0-0.1,0-0.2c0-0.1,0-0.2,0-0.3c0-0.2,0-0.3,0-0.4c0-0.1,0-0.2,0.1-0.2c0-0.1,0.1-0.1,0.1-0.1
		c0,0,0.1,0,0.1,0c0.1,0,0.1,0,0.2,0.1c0.1,0.1,0.2,0.1,0.3,0.2c0.1,0.1,0.3,0.1,0.4,0.2c0.2,0.1,0.4,0.1,0.6,0.1
		c0.2,0,0.4,0,0.6-0.1c0.2-0.1,0.3-0.2,0.4-0.3c0.1-0.2,0.2-0.4,0.3-0.7c0.1-0.3,0.1-0.7,0.1-1.1v-9.8c0,0,0-0.1,0-0.1
		c0,0,0.1-0.1,0.1-0.1c0.1,0,0.2,0,0.3-0.1c0.1,0,0.3,0,0.4,0c0.2,0,0.3,0,0.4,0c0.1,0,0.2,0,0.3,0.1c0.1,0,0.1,0.1,0.1,0.1
		c0,0,0,0.1,0,0.1V46.5z M17,49.7c0,0.1,0,0.1,0,0.1c0,0-0.1,0.1-0.1,0.1c-0.1,0-0.1,0-0.2,0.1c-0.1,0-0.2,0-0.4,0
		c-0.2,0-0.3,0-0.4,0c-0.1,0-0.2,0-0.2-0.1c-0.1,0-0.1-0.1-0.1-0.1c0,0,0-0.1,0-0.1v-1.3c-0.5,0.6-1.1,1-1.6,1.3
		c-0.5,0.3-1.1,0.4-1.6,0.4c-0.6,0-1.2-0.1-1.6-0.3c-0.4-0.2-0.8-0.5-1.1-0.9c-0.3-0.4-0.5-0.8-0.6-1.3c-0.1-0.5-0.2-1.1-0.2-1.8
		v-5.8c0-0.1,0-0.1,0-0.1c0,0,0.1-0.1,0.1-0.1c0.1,0,0.2-0.1,0.3-0.1c0.1,0,0.3,0,0.4,0c0.2,0,0.3,0,0.4,0c0.1,0,0.2,0,0.3,0.1
		c0.1,0,0.1,0.1,0.1,0.1c0,0,0,0.1,0,0.1v5.6c0,0.6,0,1,0.1,1.3c0.1,0.3,0.2,0.6,0.4,0.9c0.2,0.2,0.4,0.4,0.6,0.6
		c0.3,0.1,0.6,0.2,0.9,0.2c0.4,0,0.9-0.2,1.3-0.5c0.4-0.3,0.9-0.8,1.4-1.4v-6.7c0-0.1,0-0.1,0-0.1c0,0,0.1-0.1,0.1-0.1
		c0.1,0,0.2-0.1,0.3-0.1c0.1,0,0.3,0,0.4,0c0.2,0,0.3,0,0.4,0c0.1,0,0.2,0,0.3,0.1c0.1,0,0.1,0.1,0.1,0.1c0,0,0,0.1,0,0.1V49.7z
		 M31.3,36.2c0,0.2,0,0.4-0.1,0.5c0,0.1-0.1,0.1-0.2,0.1c-0.1,0-0.1,0-0.2,0c-0.1,0-0.2-0.1-0.3-0.1c-0.1,0-0.2-0.1-0.4-0.1
		c-0.1,0-0.3,0-0.5,0c-0.5,0-0.9,0.2-1.1,0.5c-0.2,0.4-0.3,0.9-0.3,1.7v1h2.1c0.1,0,0.1,0,0.1,0c0,0,0.1,0.1,0.1,0.1
		c0,0.1,0.1,0.1,0.1,0.2c0,0.1,0,0.2,0,0.3c0,0.3,0,0.4-0.1,0.6c-0.1,0.1-0.1,0.2-0.3,0.2h-2.1v8.4c0,0.1,0,0.1,0,0.1
		c0,0-0.1,0.1-0.1,0.1c-0.1,0-0.2,0-0.3,0.1c-0.1,0-0.3,0-0.4,0s-0.3,0-0.4,0c-0.1,0-0.2,0-0.3-0.1c-0.1,0-0.1-0.1-0.1-0.1
		c0,0,0-0.1,0-0.1v-8.4h-4.3v8.4c0,0.1,0,0.1,0,0.1c0,0-0.1,0.1-0.1,0.1c-0.1,0-0.2,0-0.3,0.1c-0.1,0-0.3,0-0.4,0
		c-0.2,0-0.3,0-0.4,0c-0.1,0-0.2,0-0.3-0.1c-0.1,0-0.1-0.1-0.1-0.1c0,0,0-0.1,0-0.1v-8.4h-1.3c-0.1,0-0.2-0.1-0.3-0.2
		c-0.1-0.1-0.1-0.3-0.1-0.6c0-0.1,0-0.2,0-0.3c0-0.1,0-0.2,0.1-0.2c0-0.1,0.1-0.1,0.1-0.1c0,0,0.1,0,0.1,0h1.3V39
		c0-0.7,0.1-1.2,0.2-1.7c0.1-0.5,0.3-0.9,0.6-1.2c0.3-0.3,0.6-0.5,0.9-0.7c0.4-0.1,0.8-0.2,1.3-0.2c0.3,0,0.6,0,0.8,0.1
		c0.2,0.1,0.4,0.1,0.6,0.2c0.1,0,0.1,0.1,0.2,0.1s0.1,0.1,0.1,0.2c0,0.1,0,0.1,0.1,0.2c0,0.1,0,0.2,0,0.3c0,0.2,0,0.4-0.1,0.5
		c0,0.1-0.1,0.2-0.2,0.2c-0.1,0-0.1,0-0.2,0c-0.1,0-0.2-0.1-0.3-0.1c-0.1,0-0.2-0.1-0.4-0.1c-0.1,0-0.3,0-0.5,0
		c-0.5,0-0.9,0.2-1.1,0.5c-0.2,0.4-0.3,0.9-0.3,1.7v0.9h4.3v-1c0-0.7,0.1-1.2,0.2-1.7c0.1-0.5,0.3-0.9,0.6-1.2
		c0.3-0.3,0.6-0.5,0.9-0.7c0.4-0.1,0.8-0.2,1.3-0.2c0.3,0,0.6,0,0.8,0.1c0.2,0.1,0.4,0.1,0.6,0.2c0.1,0,0.1,0.1,0.2,0.1
		c0,0,0.1,0.1,0.1,0.2c0,0.1,0,0.1,0.1,0.2C31.3,36,31.3,36.1,31.3,36.2z M39.8,49.7c0,0.1,0,0.1-0.1,0.2c-0.1,0-0.1,0.1-0.2,0.1
		c-0.1,0-0.2,0-0.4,0c-0.2,0-0.3,0-0.4,0c-0.1,0-0.2-0.1-0.2-0.1c0,0-0.1-0.1-0.1-0.2v-1c-0.4,0.4-0.9,0.8-1.4,1
		c-0.5,0.2-1.1,0.4-1.6,0.4c-0.5,0-1-0.1-1.4-0.2c-0.4-0.1-0.8-0.3-1-0.6c-0.3-0.2-0.5-0.6-0.7-0.9c-0.2-0.4-0.2-0.8-0.2-1.2
		c0-0.5,0.1-1,0.3-1.4c0.2-0.4,0.5-0.7,0.9-1c0.4-0.3,0.9-0.5,1.5-0.6c0.6-0.1,1.3-0.2,2-0.2h1.3v-0.7c0-0.4,0-0.7-0.1-1
		c-0.1-0.3-0.2-0.5-0.4-0.7c-0.2-0.2-0.4-0.3-0.7-0.4c-0.3-0.1-0.6-0.1-1-0.1c-0.4,0-0.8,0.1-1.2,0.2c-0.3,0.1-0.6,0.2-0.9,0.3
		c-0.3,0.1-0.5,0.2-0.6,0.3c-0.2,0.1-0.3,0.2-0.4,0.2c-0.1,0-0.1,0-0.1,0c0,0-0.1-0.1-0.1-0.1c0-0.1-0.1-0.1-0.1-0.2
		c0-0.1,0-0.2,0-0.3c0-0.2,0-0.3,0-0.4c0-0.1,0.1-0.2,0.2-0.3c0.1-0.1,0.3-0.2,0.5-0.3c0.2-0.1,0.5-0.2,0.8-0.3
		c0.3-0.1,0.6-0.2,1-0.3c0.4-0.1,0.7-0.1,1.1-0.1c0.7,0,1.3,0.1,1.7,0.2c0.5,0.2,0.9,0.4,1.2,0.7c0.3,0.3,0.5,0.7,0.6,1.1
		c0.1,0.4,0.2,1,0.2,1.6V49.7z M38.1,45.4h-1.5c-0.5,0-0.9,0-1.2,0.1c-0.4,0.1-0.6,0.2-0.9,0.4c-0.2,0.2-0.4,0.3-0.5,0.6
		c-0.1,0.2-0.2,0.5-0.2,0.8c0,0.5,0.2,0.9,0.5,1.2c0.3,0.3,0.8,0.4,1.3,0.4c0.5,0,0.9-0.1,1.3-0.3c0.4-0.2,0.8-0.6,1.2-1.1V45.4z
		 M44.6,49.7c0,0.1,0,0.1,0,0.1c0,0-0.1,0.1-0.1,0.1c-0.1,0-0.2,0-0.3,0.1c-0.1,0-0.3,0-0.4,0c-0.2,0-0.3,0-0.4,0
		c-0.1,0-0.2,0-0.3-0.1c-0.1,0-0.1-0.1-0.1-0.1c0,0,0-0.1,0-0.1V35.5c0-0.1,0-0.1,0-0.1c0,0,0.1-0.1,0.1-0.1c0.1,0,0.2,0,0.3-0.1
		c0.1,0,0.3,0,0.4,0c0.2,0,0.3,0,0.4,0c0.1,0,0.2,0,0.3,0.1c0.1,0,0.1,0.1,0.1,0.1c0,0,0,0.1,0,0.1V49.7z M49.7,36.9
		c0,0.4-0.1,0.7-0.2,0.8C49.3,37.9,49,38,48.6,38c-0.4,0-0.7-0.1-0.8-0.2c-0.2-0.1-0.2-0.4-0.2-0.8c0-0.4,0.1-0.7,0.2-0.8
		c0.2-0.1,0.4-0.2,0.9-0.2c0.4,0,0.7,0.1,0.8,0.2C49.6,36.3,49.7,36.5,49.7,36.9z M49.5,49.7c0,0.1,0,0.1,0,0.1c0,0-0.1,0.1-0.1,0.1
		c-0.1,0-0.2,0-0.3,0.1c-0.1,0-0.3,0-0.4,0c-0.2,0-0.3,0-0.4,0c-0.1,0-0.2,0-0.3-0.1c-0.1,0-0.1-0.1-0.1-0.1c0,0,0-0.1,0-0.1v-9.5
		c0,0,0-0.1,0-0.1c0,0,0.1-0.1,0.1-0.1c0.1,0,0.2,0,0.3-0.1c0.1,0,0.3,0,0.4,0c0.2,0,0.3,0,0.4,0c0.1,0,0.2,0,0.3,0.1
		c0.1,0,0.1,0.1,0.1,0.1c0,0,0,0.1,0,0.1V49.7z"/>
	<g>
		<path class="st6" d="M65,29c-1-0.1-1.5-0.1-2-0.1C59,28.8,59,28.8,59,24.7c0-4.8,0-4.8,4.9-4.8c4.8,0,9.6,0.1,14.4,0
			c1.5,0,2,0.4,1.9,1.9c-0.1,0.4,0,0.9,0,1.3c0.2,2.7,0.4,4.8-3.4,5.6c-3.4,0.7-5.4,4.6-5.2,8.2c0.2,3.5,2.6,6.7,6,7.7
			c1.4,0.4,1.8,0.9,1.8,2.4c-0.1,3.8-0.1,7.7,0,11.5c0,1.4-0.4,1.8-1.8,1.7c-4.2-0.3-8.4-0.9-12.2-3C55,51.5,54.5,35.6,65,29z"/>
		<path class="st6" d="M102.8,32.7c0,3.3,0,6.5,0,9.8c-0.1,9.1-4.8,14.9-13.6,16.8c-2.2,0.5-4.5,0.6-6.8,0.9
			c-1.2,0.2-1.5-0.3-1.5-1.5c0.1-4.1,0-8.1,0-12.2c0-1.1,0.3-1.5,1.4-1.8c4.2-1.3,6.4-4.3,6.5-8.7c0-4.7,0.1-9.5,0-14.2
			c0-1.5,0.4-1.9,1.9-1.9c3.5,0.1,7,0.1,10.4,0c1.5,0,1.9,0.5,1.9,1.9C102.8,25.4,102.8,29.1,102.8,32.7z"/>
		<path class="st6" d="M87.4,36.3c0,4-3.3,7.3-7.3,7.3c-3.9,0-7.2-3.3-7.2-7.2c0-4,3.3-7.3,7.3-7.3C84.1,29.1,87.3,32.4,87.4,36.3z"
			/>
		<path class="st6" d="M95.5,18.5c-1.8,0-3.7,0-5.5,0c-0.9,0-1.3-0.3-1.3-1.3c0-2.7,0.1-5.3,0-8c0-1.1,0.3-1.4,1.4-1.4
			c3.8,0,7.5,0,11.3,0c1.1,0,1.4,0.3,1.4,1.4c-0.1,2.7,0,5.3,0,8c0,1-0.4,1.3-1.3,1.3C99.5,18.5,97.5,18.5,95.5,18.5z"/>
	</g>
	<circle cx="153.3" cy="50" r="1.3"/>
	<g>
		<path d="M156.8,36.3v8c-0.1,0.1-0.3,0.2-0.4,0.3c-2.2-2.8-4.4-5.6-8.7-4c0,0.6,0.1,1.2,0.1,1.8c1.7,0.4,3.8-0.5,4.8,1.8h-7v-3.9
			h-6.6c-0.1,1.3-0.1,2.6-0.2,3.9h-2.5v-8.1h-2.2v10.5H159V36.2C158.3,36.2,157.7,36.2,156.8,36.3z M143.5,44.3h-2.3v-1.8h2.3V44.3z
			"/>
		<path d="M114.5,46.7c0-2.2,0-4.3,0-6.4c2.3,0,4.5,0,6.8,0c0,0.8-0.1,1.3,0,2.2c-1.6,0-2.9,0-4.2,0c-0.5,1.4-0.2,2,1.2,2
			c3.4,0,7.8,0.2,11.2,0.1c0.5,0,0.4-1.7,0.2-1.9c-1.8,0-3.8,0-5.8,0c0.1-0.8,0-1.4,0-2.2c0.8,0.1,1.6,0,2.6,0
			c0.1-1.2,0-2.8,0.2-4.1c0.7,0,1.4,0,2.2,0c0,1.2,0,2.6,0,4c1.1,0,2,0,3.2,0.1c0,2.1,0,4.2,0,6.4C126.2,46.7,120.5,46.7,114.5,46.7
			z"/>
		<path d="M163.5,46.6c-0.7,0-1.3,0-2,0c0-3.5,0-7,0-10.5c0.7,0,1.3,0,2,0C163.5,39.6,163.5,43.1,163.5,46.6z"/>
		<circle cx="153.3" cy="50" r="1.3"/>
		<circle cx="142.3" cy="37.4" r="1.3"/>
		<circle cx="125.3" cy="50" r="1.3"/>
		<circle cx="121.5" cy="50" r="1.3"/>
	</g>
</g>
</svg>
