<?xml version="1.0" encoding="utf-8"?>
<!-- Generator: Adobe Illustrator 24.3.0, SVG Export Plug-In . SVG Version: 6.00 Build 0)  -->
<svg version="1.1" id="Layer_1" xmlns="http://www.w3.org/2000/svg" xmlns:xlink="http://www.w3.org/1999/xlink" x="0px" y="0px"
	 viewBox="0 0 164 68" style="enable-background:new 0 0 164 68;" xml:space="preserve">
<style type="text/css">
	.st0{fill:none;}
	.st1{fill:#1E1F1C;}
	.st2{fill:#020203;}
	.st3{fill:#080808;}
	.st4{fill:none;stroke:#020100;stroke-width:0.5;stroke-miterlimit:10;}
	.st5{fill:#1D1D1B;}
	.st6{fill:#020101;}
	.st7{fill:#FFFFFF;stroke:#000000;stroke-width:0.25;stroke-miterlimit:10;}
	.st8{fill:none;stroke:#000000;stroke-width:0.5;stroke-miterlimit:10;}
</style>
<g>
	<g>
		<path d="M128.1,42.9c0.6,0,1.1,0,1.7,0c0,3.8,0,7.5,0,11.3c-7.6,0-15.2,0-22.9,0c0-0.3,0-0.7-0.1-1.1c-0.1-1.6,0-3.3-0.3-4.9
			c-0.5-2.9-3.2-4.7-5.9-4.2c0,3.6,0,7.1,0,10.8c-2.2,0.3-4.4,0.9-6.6,0.5c-3.6-0.6-6.1-3.3-6.4-7c-0.1-1.8,0-3.6,0-5.4
			c0.6,0,1.1,0,1.7,0c0,1.7,0,3.4,0,5.1c0,0.8,0.1,1.6,0.4,2.4c0.9,3,3.6,4.5,6.9,4c2.2-0.4,2.3-0.4,2.3-2.7c0-2.8,0-5.7,0-8.5
			c0-0.1,0-0.1,0.1-0.2c2.9-0.2,5.5,0.1,7.6,2.4c2,2.2,2.1,5,2.1,7.8c6.6,0,13,0,19.5,0C128.1,49.7,128.1,46.3,128.1,42.9z"/>
		<path d="M155.1,39.2c0.6,0,1.1,0,1.6,0c0,5,0,10,0,15c-7.1,0-14.2,0-21.4,0c0.1,2.8-1.5,4.3-3.9,5.3c0.1-0.2,0.2-0.3,0.2-0.3
			c1.8-1.3,2-3.1,2-5.1c0-3.4,0-6.9,0-10.3c0-0.3,0-0.6,0-1c0.6,0,1,0,1.6,0c0,0.3,0,0.6,0,0.9c0,2.8,0,5.6,0,8.4
			c0,0.7,0.2,0.9,0.9,0.9c6,0,12,0,18,0c0.7,0,0.9-0.2,0.9-0.9c0-4,0-8,0-12C155.1,40,155.1,39.6,155.1,39.2z"/>
		<path d="M39.7,53.1c0,0.4,0,0.7,0,1c-2.3,0-4.6,0.2-6.8-0.1c-1.8-0.2-2.9-1.7-2.9-3.6c0-1.3,0-2.6,0-3.9c0-2.1,1.5-3.6,3.6-3.7
			c1.1-0.1,2.3-0.1,3.4,0c2.1,0.1,3.6,1.7,3.6,3.8c0,0.7,0,1.4,0,2.2c-2.6,0-5.2,0-7.9,0c0-0.3,0-0.6,0-1c2,0,4,0,6.2,0
			c-0.1-0.8,0-1.6-0.2-2.3c-0.3-1-1-1.6-2.1-1.6c-0.9-0.1-1.8-0.1-2.7,0c-1.2,0.1-2.2,1-2.2,2.3c-0.1,1.6-0.1,3.1,0,4.7
			c0,1.4,1.1,2.3,2.5,2.3c1.6,0,3.1,0,4.7,0C39.1,53.1,39.3,53.1,39.7,53.1z"/>
		<path d="M63.8,48.8c-2.7,0-5.2,0-7.8,0c0-0.3,0-0.6,0-1c2,0,4,0,6,0c0.6-2.4-0.5-4.1-2.9-4c-0.6,0-1.2,0-1.8,0
			c-1.3,0.1-2.2,1-2.3,2.3c-0.1,1.5-0.1,3.1,0,4.7c0.1,1.4,1,2.3,2.5,2.3c1.6,0,3.2,0,4.7,0c0.2,0,0.5,0,0.8,0c0,0.3,0,0.6,0,1
			c0,0-0.1,0.1-0.1,0.1c-2.1,0-4.2,0.1-6.3-0.1c-2-0.1-3.2-1.6-3.3-3.6c-0.1-1.4,0-2.7,0-4.1c0.1-1.9,1.1-3.3,3-3.5
			c1.6-0.2,3.3-0.2,4.9,0.1c1.7,0.2,2.7,1.6,2.7,3.3C63.9,47.1,63.8,47.9,63.8,48.8z"/>
		<path d="M16,38.9c0.6,0,1.1,0,1.6,0c0,5.1,0,10.1,0,15.2c-0.5,0-1,0-1.6,0C16,49.1,16,44,16,38.9z"/>
		<path d="M2.7,54.1c-0.6,0-1.1,0-1.6,0c0-5,0-10,0-15.1c0.6,0,1.1,0,1.6,0C2.7,44,2.7,49,2.7,54.1z"/>
		<path d="M74.7,42.8c0,0.4,0,0.7,0,1c0,3.2-0.1,6.4,0,9.5c0.1,3-1.1,5-3.9,6c0.1-0.2,0.2-0.4,0.4-0.5c1.4-1,1.8-2.5,1.8-4.1
			c0-3.7,0-7.3,0-11c0-0.3,0-0.6,0-1C73.5,42.8,74,42.8,74.7,42.8z"/>
		<path d="M161.7,54.2c-0.5,0-1,0-1.6,0c0-5,0-10,0-15c0.5,0,1,0,1.6,0C161.7,44.2,161.7,49.2,161.7,54.2z"/>
		<path d="M10.8,39c-1.5,2.1-3,4.2-4.5,6.2c-0.4,0.6-0.4,1,0,1.5c1.2,1.5,2.3,3.1,3.5,4.7c0.9,1.3,2.1,2.2,3.7,2.4
			c-1.4,0.5-2.8,0.4-4.1-0.5c-0.5-0.3-0.9-0.8-1.2-1.3c-1.2-1.7-2.4-3.4-3.6-5c-0.3-0.5-0.3-0.8,0-1.2c1.5-2.1,3-4.2,4.5-6.4
			C9.6,39,10.1,38.8,10.8,39z"/>
		<path d="M26.8,54.1c-0.6,0-1.1,0-1.7,0c0-1.1,0-2.2,0-3.2c0-1.5,0-3,0-4.5c0-1.6-1-2.5-2.5-2.6c-1.7-0.1-3.2,0.2-4.4,1.7
			c0.5-1.2,1.1-2.4,2.5-2.7c1.7-0.3,3.5-0.4,4.9,1c0.6,0.6,1.1,1.5,1.1,2.3C26.9,48.7,26.8,51.4,26.8,54.1z"/>
		<path d="M138.6,43.9c0-0.4,0-0.7,0-1.1c1.5,0,3,0,4.4,0c1.1,0,2.2,0,3.2,0.3c3.1,0.7,5.4,3.4,5.7,6.6c0,0.5,0.1,1,0.1,1.6
			c-0.6,0-1.1,0-1.7,0c-0.1-0.9-0.1-1.9-0.3-2.8c-0.6-3-2.7-4.6-5.8-4.6c-1.6,0-3.2,0-4.7,0C139.2,43.9,138.9,43.9,138.6,43.9z"/>
		<path d="M124.8,51.3c-0.5,0-1,0-1.5,0c-0.1-0.9-0.1-1.9-0.3-2.7c-0.5-2.9-2.7-4.7-5.7-4.7c-1.7,0-3.4,0-5.1,0
			c-0.4,0-0.8,0-0.8-0.6c0-0.6,0.4-0.6,0.8-0.6c2.1,0,4.1,0,6.2,0.1C122.3,43.3,125.5,47.5,124.8,51.3z"/>
		<path d="M43.7,42.7c0.6,0,1.1,0,1.6,0c0,3.8,0,7.6,0,11.4c-0.6,0-1.1,0-1.6,0C43.7,50.3,43.7,46.6,43.7,42.7z"/>
		<path d="M67,42.7c0.6,0,1.1,0,1.6,0c0,3.8,0,7.6,0,11.4c-0.1,0-0.2,0.1-0.4,0.1C67,54.3,67,54.3,67,53c0-3.1,0-6.2,0-9.2
			C67,43.4,67,43.1,67,42.7z"/>
		<path d="M78.3,54.1c0-3.7,0-7.5,0-11.3c0.5,0,1,0,1.6,0c0,0.3,0,0.6,0,0.9c0,3.1,0,6.2,0,9.2C80,54.3,79.9,54.4,78.3,54.1z"/>
		<path d="M45.8,45.4c1.1-2.5,2.6-3.3,5.3-2.7c0,0.3,0,0.6,0,1C49.1,43.8,47.1,43.5,45.8,45.4z"/>
		<path d="M118.2,57.5c-0.3,0.3-0.7,0.7-1,0.7c-0.5,0.1-0.9-0.3-0.9-0.9c0-0.5,0.3-1,0.9-0.9c0.4,0.1,0.7,0.4,1.1,0.7
			C118.2,57.2,118.2,57.4,118.2,57.5z"/>
		<path d="M74.9,40c-0.3,0.2-0.7,0.7-1,0.7c-0.5,0.1-0.9-0.3-0.9-0.9c0-0.6,0.4-1,0.9-0.9c0.4,0.1,0.7,0.4,1.1,0.7
			C74.9,39.7,74.9,39.9,74.9,40z"/>
		<path d="M80.2,40c-0.3,0.3-0.6,0.7-1,0.7c-0.5,0.1-0.9-0.3-0.9-0.9c0-0.6,0.3-1,0.9-0.9c0.4,0,0.7,0.4,1.1,0.7
			C80.2,39.7,80.2,39.8,80.2,40z"/>
		<path d="M67.6,40.9c-0.2-0.4-0.6-0.7-0.7-1.1c-0.1-0.5,0.3-0.9,0.9-0.9c0.6,0,0.9,0.4,0.9,0.9c-0.1,0.4-0.4,0.7-0.7,1.1
			C67.9,40.9,67.7,40.9,67.6,40.9z"/>
		<path d="M129.5,57.5c-0.3,0.3-0.6,0.7-1,0.8c-0.5,0.1-0.9-0.3-0.9-0.9c0-0.5,0.3-1,0.9-0.9c0.4,0,0.7,0.4,1.1,0.6
			C129.5,57.2,129.5,57.3,129.5,57.5z"/>
		<path d="M143.6,41.2c-0.6-0.1-0.9-0.4-0.8-1c0-0.6,0.3-0.9,0.9-0.9c0.5,0,0.9,0.3,0.9,0.9C144.5,40.9,144.1,41.2,143.6,41.2z"/>
		<path d="M124.9,57.1c0.3-0.2,0.7-0.6,1.1-0.7c0.5-0.1,0.9,0.4,0.9,0.9c0,0.6-0.4,1-0.9,0.9c-0.4-0.1-0.7-0.5-1-0.7
			C124.9,57.4,124.9,57.2,124.9,57.1z"/>
		<path d="M93.8,58.7c-0.5-0.1-0.9-0.3-0.9-0.9c0-0.6,0.4-0.9,0.9-0.9c0.5,0,0.8,0.3,0.8,0.9C94.7,58.3,94.3,58.6,93.8,58.7z"/>
		<path d="M97.3,58c-0.4,0.2-0.7,0.6-1.1,0.7c-0.5,0.1-0.9-0.3-0.9-0.9c0-0.5,0.4-0.9,0.9-0.8c0.4,0.1,0.7,0.5,1,0.7
			C97.3,57.7,97.3,57.8,97.3,58z"/>
	</g>
	<path d="M161.9,32.2c-12.9,0-25.6,0-38.5,0c0-1,0-1.9,0-2.8c0-0.1,0.2-0.3,0.4-0.3c0.2-0.1,0.4,0,0.7,0c11.4,0,22.7,0,34.1,0
		c0.7,0,1.1,0.2,1.5,0.7C160.6,30.5,161.2,31.2,161.9,32.2z"/>
	<path d="M134.7,20.6c0-0.7,0.1-1.4,0-2.1c-0.1-0.8,0.2-0.9,0.9-0.9c3.5,0.1,6.9,0.7,10.3,2c3.4,1.3,6.6,3.1,9.4,5.4
		c0.1,0.1,0.2,0.2,0.5,0.4c-1.8,0-3.5,0-5.2,0c-0.2,0-0.4-0.2-0.6-0.3c-4.5-2.8-9.3-4.1-14.6-4.4c-0.2,0-0.3,0-0.5,0
		C134.9,20.7,134.9,20.7,134.7,20.6z"/>
	<path d="M162,13c0,2.6-2,4.6-4.6,4.6c-2.5,0-4.5-2.1-4.5-4.6c0-2.5,2.1-4.5,4.5-4.5C160,8.4,162,10.5,162,13z M157.8,11.4
		c-1.4-0.3-2.7,0.5-3.3,1.7c-0.4,0.8-0.4,1.2,0,1.5c0.4-0.7,0.6-1.5,1.1-2C156.1,12.1,156.9,11.9,157.8,11.4z M155.8,9.9
		c0.7,0.4,1.5,0.6,2.1,1.2c0.5,0.5,0.8,1.4,1.2,2.1c0.3-1.1-0.1-1.9-0.8-2.6C157.6,9.9,156.8,9.5,155.8,9.9z M157.3,14.6
		c0.9,0.3,1.6,0,2.2-0.4c1-0.7,1.6-1.9,1.3-3.1c-0.4,0.8-0.6,1.6-1.1,2.1C159,13.8,158.2,14.1,157.3,14.6z M159.4,16.3
		c-0.3-0.3-0.4-0.4-0.5-0.4c-1.5-0.2-2.3-1.1-2.7-2.6c0-0.1-0.2-0.2-0.4-0.3c-0.1,0.2-0.2,0.3-0.2,0.5c0.1,1.3,1.3,2.6,2.6,2.9
		C158.6,16.4,158.9,16.3,159.4,16.3z"/>
</g>
</svg>
