<?xml version="1.0" encoding="utf-8"?>
<!-- Generator: Adobe Illustrator 24.3.0, SVG Export Plug-In . SVG Version: 6.00 Build 0)  -->
<svg version="1.1" id="Layer_1" xmlns="http://www.w3.org/2000/svg" xmlns:xlink="http://www.w3.org/1999/xlink" x="0px" y="0px"
	 viewBox="0 0 164 68" style="enable-background:new 0 0 164 68;" xml:space="preserve">
<style type="text/css">
	.st0{fill:none;}
	.st1{fill:#1E1F1C;}
	.st2{fill:#020203;}
	.st3{fill:#040404;}
	.st4{fill:#0C0809;}
	.st5{fill:#211E1F;}
	.st6{fill:#FCFEFF;}
	.st7{fill:#000102;}
	.st8{fill:none;stroke:#F9F9F9;stroke-width:0.25;stroke-miterlimit:10;}
	.st9{fill:#262626;}
	.st10{fill:#000002;}
</style>
<g>
	<g>
		<path class="st3" d="M94.4,63.5c-0.3,0.1-0.3,0.2-0.4,0.2c-5.3,0.2-5.3,0.2-6.6-4.8c-3.9-14.6-7.8-29.2-11.7-43.8
			c-0.1-0.4-0.3-0.7-0.5-1.4c-2.1,8.2-4.1,16-5.9,23.9c-0.4,1.6-1,2.1-2.6,2c-3.6-0.1-3.7,0-2.8-3.5c2.4-9.7,4.8-19.3,7.2-29
			c0.3-1.2,0.7-1.8,2.1-1.7c1.4,0.2,2.9,0.1,4.4,0c1.1-0.1,1.5,0.3,1.8,1.3C84.3,25.6,89.3,44.5,94.4,63.5z"/>
		<path class="st3" d="M90.9,21.8c0.2-2.8-0.3-6.2,0.3-9.5c0.6-3.6,2.8-6,6.4-6.6c2.6-0.4,5.3-0.5,7.9,0.1c3.9,1,6.6,5.2,5.9,9
			c-0.1,0.7-0.5,0.7-0.9,0.7c-0.7,0-1.3-0.1-2,0c-1.3,0.2-2.1-0.1-2.1-1.7c0-2-1.3-3.1-3.2-3.4c-1.3-0.2-2.7-0.1-4,0
			c-2.1,0.2-3.4,1.5-3.4,3.7c-0.1,5.6-0.1,11.1,0,16.7c0,2.3,1.5,3.6,3.8,3.7c1.1,0,2.3,0.1,3.4,0c1.8-0.2,3.3-1.1,3.4-3
			c0.1-1.9,1-2,2.5-2c2.7,0.1,2.7,0,2.4,2.7c-0.4,3.5-2.8,6.1-6.2,6.8c-2.1,0.4-4.2,0.4-6.3,0.2c-4.9-0.5-7.6-3.6-7.8-8.8
			C90.8,27.7,90.9,25.1,90.9,21.8z"/>
		<path class="st3" d="M115.9,22.3c0-3-0.1-6,0-8.9c0.1-4.1,2.6-7,6.7-7.7c2.3-0.4,4.6-0.4,6.9,0c4.4,0.7,7.1,4.4,6.8,8.9
			c0,0.8-0.2,1.1-1,1c-0.5,0-1.1,0-1.6,0c-1.4,0.1-2.7,0.2-2.3-1.9c0-0.2-0.1-0.4-0.1-0.6c-0.7-2.3-3.2-3.2-7.1-2.6
			c-2.2,0.3-3.4,1.6-3.4,3.9c0,5.4-0.1,10.9,0,16.3c0,2.6,1.4,3.8,4,3.9c1,0,2,0,3,0c2.2-0.1,3.6-1.3,3.7-3.6
			c0.1-1.1,0.4-1.4,1.5-1.4c3.8,0,4.1,0.3,3,4c-0.9,3-2.9,4.8-5.9,5.5c-2.5,0.5-5,0.5-7.5,0.1c-3.8-0.7-6.4-3.5-6.5-7.4
			C115.8,28.6,115.9,25.4,115.9,22.3z"/>
		<path class="st3" d="M53.4,13.4c-4,3.6-8,7.1-12,10.7c-0.9,0.8-1.4,0.8-2.2-0.1c-3.6-3.7-7.3-7.3-11-11c-0.6-0.6-1-1.3-1-2.2
			c0.1-2.2,0-4.4,0-6.6c0.8-0.2,1.1,0.5,1.4,0.9C32.2,8.6,35.6,12,39,15.5c1.1,1.2,1.8,1.3,3,0.1c3.5-3.3,7.1-6.4,10.6-9.6
			c0.2-0.2,0.5-0.3,0.8-0.5C53.4,8.1,53.4,10.8,53.4,13.4z"/>
		<path class="st3" d="M53.4,13.4c0-2.6,0-5.3,0-7.9c2.1,1.3,3.5,3.3,5.3,4.9c0.5,0.4,0.3,1,0.3,1.5c0,8.7,0,17.5,0,26.2
			c0,1.2-0.3,1.6-1.5,1.5c-4,0-4,0-4-4C53.5,28.3,53.5,20.9,53.4,13.4z"/>
	</g>
	<g>
		<path d="M32.5,46.8h-0.4v-2.5c0-0.2,0-0.4,0-0.7h0c0,0.2-0.1,0.3-0.1,0.4l-1.3,2.9h-0.2l-1.3-2.9c0-0.1-0.1-0.2-0.1-0.4h0
			c0,0.2,0,0.4,0,0.7v2.5h-0.4V43h0.6l1.2,2.6c0.1,0.2,0.1,0.4,0.2,0.5h0c0.1-0.2,0.1-0.4,0.2-0.5L32,43h0.6V46.8z"/>
		<path d="M41.2,46.8c-0.5,0-1-0.2-1.3-0.5c-0.3-0.4-0.5-0.8-0.5-1.4c0-0.6,0.2-1.1,0.5-1.5c0.3-0.4,0.8-0.5,1.3-0.5
			c0.5,0,0.9,0.2,1.3,0.5s0.5,0.8,0.5,1.4c0,0.6-0.2,1.1-0.5,1.5C42.2,46.6,41.8,46.8,41.2,46.8z M41.3,43.3c-0.4,0-0.7,0.1-1,0.4
			s-0.4,0.7-0.4,1.1c0,0.5,0.1,0.8,0.4,1.1c0.2,0.3,0.6,0.4,0.9,0.4c0.4,0,0.7-0.1,1-0.4c0.2-0.3,0.4-0.6,0.4-1.1
			c0-0.5-0.1-0.9-0.3-1.2C42,43.5,41.7,43.3,41.3,43.3z"/>
		<path d="M49.9,46.8V43h1c1.3,0,2,0.6,2,1.8c0,0.6-0.2,1-0.6,1.4c-0.4,0.4-0.9,0.5-1.5,0.5H49.9z M50.4,43.4v3h0.6
			c0.5,0,0.9-0.1,1.2-0.4s0.4-0.6,0.4-1.1c0-1-0.5-1.4-1.5-1.4H50.4z"/>
		<path d="M61.9,46.8h-2V43h1.9v0.4h-1.5v1.3h1.4V45h-1.4v1.3h1.6V46.8z"/>
		<path d="M71.5,46.8H71l-0.6-1.1c-0.1-0.1-0.1-0.2-0.2-0.3c-0.1-0.1-0.1-0.1-0.2-0.2c-0.1,0-0.1-0.1-0.2-0.1c-0.1,0-0.1,0-0.2,0
			h-0.4v1.6h-0.4V43h1.1c0.2,0,0.3,0,0.5,0.1c0.1,0,0.3,0.1,0.4,0.2s0.2,0.2,0.2,0.3s0.1,0.3,0.1,0.4c0,0.1,0,0.3-0.1,0.4
			c0,0.1-0.1,0.2-0.2,0.3c-0.1,0.1-0.2,0.2-0.3,0.2S70.4,45,70.2,45v0c0.1,0,0.1,0.1,0.2,0.1c0,0,0.1,0.1,0.1,0.1s0.1,0.1,0.1,0.2
			s0.1,0.1,0.1,0.2L71.5,46.8z M69.3,43.4v1.4h0.6c0.1,0,0.2,0,0.3,0s0.2-0.1,0.2-0.1c0.1-0.1,0.1-0.1,0.2-0.2
			c0-0.1,0.1-0.2,0.1-0.3c0-0.2-0.1-0.4-0.2-0.5c-0.1-0.1-0.3-0.2-0.6-0.2H69.3z"/>
		<path d="M78.7,46.8h-0.5l-1.9-3c0-0.1-0.1-0.2-0.1-0.2h0c0,0.1,0,0.3,0,0.5v2.7h-0.4V43h0.6l1.9,3c0.1,0.1,0.1,0.2,0.2,0.3h0
			c0-0.1,0-0.3,0-0.6V43h0.4V46.8z"/>
		<path d="M106.7,46.8h-0.5l-0.4-1.1h-1.6l-0.4,1.1h-0.5l1.4-3.8h0.5L106.7,46.8z M105.6,45.3l-0.6-1.6c0-0.1,0-0.1-0.1-0.3h0
			c0,0.1,0,0.2-0.1,0.3l-0.6,1.6H105.6z"/>
		<path d="M116.1,46.8h-0.5l-0.6-1.1c-0.1-0.1-0.1-0.2-0.2-0.3c-0.1-0.1-0.1-0.1-0.2-0.2c-0.1,0-0.1-0.1-0.2-0.1c-0.1,0-0.1,0-0.2,0
			h-0.4v1.6h-0.4V43h1.1c0.2,0,0.3,0,0.5,0.1c0.1,0,0.3,0.1,0.4,0.2s0.2,0.2,0.2,0.3s0.1,0.3,0.1,0.4c0,0.1,0,0.3-0.1,0.4
			c0,0.1-0.1,0.2-0.2,0.3c-0.1,0.1-0.2,0.2-0.3,0.2S115,45,114.8,45v0c0.1,0,0.1,0.1,0.2,0.1c0,0,0.1,0.1,0.1,0.1s0.1,0.1,0.1,0.2
			s0.1,0.1,0.1,0.2L116.1,46.8z M113.8,43.4v1.4h0.6c0.1,0,0.2,0,0.3,0s0.2-0.1,0.2-0.1c0.1-0.1,0.1-0.1,0.2-0.2
			c0-0.1,0.1-0.2,0.1-0.3c0-0.2-0.1-0.4-0.2-0.5c-0.1-0.1-0.3-0.2-0.6-0.2H113.8z"/>
		<path d="M125.4,46.6c-0.3,0.1-0.6,0.2-1,0.2c-0.5,0-1-0.2-1.3-0.5c-0.3-0.3-0.5-0.8-0.5-1.4c0-0.6,0.2-1.1,0.5-1.5
			c0.4-0.4,0.8-0.6,1.4-0.6c0.4,0,0.7,0.1,0.9,0.2v0.5c-0.3-0.2-0.6-0.2-0.9-0.2c-0.4,0-0.8,0.1-1.1,0.4c-0.3,0.3-0.4,0.7-0.4,1.2
			c0,0.5,0.1,0.8,0.4,1.1c0.3,0.3,0.6,0.4,1,0.4c0.4,0,0.7-0.1,1-0.3V46.6z"/>
		<path d="M135.2,46.8h-0.4V45h-2v1.7h-0.4V43h0.4v1.7h2V43h0.4V46.8z"/>
	</g>
</g>
</svg>
