<?xml version="1.0" encoding="utf-8"?>
<!-- Generator: Adobe Illustrator 24.3.0, SVG Export Plug-In . SVG Version: 6.00 Build 0)  -->
<svg version="1.1" id="Layer_1" xmlns="http://www.w3.org/2000/svg" xmlns:xlink="http://www.w3.org/1999/xlink" x="0px" y="0px"
	 viewBox="0 0 164 68" style="enable-background:new 0 0 164 68;" xml:space="preserve">
<style type="text/css">
	.st0{fill:#020203;}
	.st1{fill:#1E1E1C;}
	.st2{fill:#020304;}
	.st3{fill:none;stroke:#FAFAFA;stroke-width:0.25;stroke-miterlimit:10;}
	.st4{fill:#040505;}
	.st5{fill:#FDFEFF;}
	.st6{fill:none;}
	.st7{fill:#1F201D;}
	.st8{fill:#030304;}
	.st9{fill:#FFFFFF;stroke:#020203;stroke-width:0.25;stroke-miterlimit:10.0001;}
	.st10{fill:none;stroke:#020203;stroke-width:0.5;stroke-miterlimit:10;}
	.st11{fill:#080809;}
	.st12{fill:none;stroke:#020303;stroke-width:0.5;stroke-miterlimit:10;}
	.st13{fill:#262626;}
	.st14{fill:#0B090A;}
	.st15{fill:#221F20;}
	.st16{fill:#E02120;}
	.st17{clip-path:url(#SVGID_2_);}
	.st18{fill:#050606;}
	.st19{fill:#FFFFFF;}
</style>
<g>
	<g>
		<path class="st0" d="M23,48.3c0,0.6-0.1,1.1-0.4,1.4c-0.3,0.5-0.8,0.7-1.5,0.7s-1.2-0.2-1.5-0.7c-0.3-0.4-0.4-0.8-0.4-1.4
			c0-0.6,0.1-1.1,0.4-1.4c0.3-0.4,0.8-0.7,1.5-0.7s1.2,0.2,1.5,0.7C22.9,47.2,23,47.7,23,48.3z M21,44.9c0,0.3-0.2,0.5-0.5,0.5
			c-0.3,0-0.5-0.2-0.5-0.5s0.2-0.5,0.5-0.5C20.8,44.4,21,44.6,21,44.9z M22.2,48.3c0-0.9-0.3-1.4-1-1.4c-0.7,0-1,0.5-1,1.4
			c0,0.9,0.3,1.4,1,1.4C21.8,49.6,22.2,49.2,22.2,48.3z M22.2,44.9c0,0.3-0.2,0.5-0.5,0.5c-0.3,0-0.5-0.2-0.5-0.5s0.2-0.5,0.5-0.5
			C22,44.4,22.2,44.6,22.2,44.9z"/>
		<path class="st0" d="M27.5,50.4h-3.7l0.5-0.8h2.3v-1.8c0-0.6-0.3-0.9-1-0.9c-0.5,0-0.9,0.3-1.3,0.8v-1c0.4-0.4,0.8-0.5,1.3-0.5
			c0.5,0,1,0.1,1.3,0.4c0.3,0.3,0.5,0.7,0.5,1.2V50.4z"/>
		<path class="st0" d="M31.9,50c0,0.6-0.2,1.1-0.5,1.5c-0.3,0.4-0.8,0.6-1.5,0.6c-0.5,0-0.8-0.1-1.1-0.2l-0.4-0.9
			c0.5,0.3,1,0.4,1.5,0.3c0.7,0,1-0.4,1.1-1.1c-0.3,0.1-0.6,0.2-0.9,0.2c-0.6,0-1.1-0.2-1.4-0.7c-0.3-0.4-0.4-0.8-0.4-1.4
			s0.1-1.1,0.4-1.4c0.3-0.4,0.8-0.7,1.4-0.7c0.7,0,1.2,0.3,1.5,0.8c0.2,0.4,0.3,0.9,0.3,1.6c0,0.2,0,0.4,0,0.7
			C31.9,49.7,31.9,49.9,31.9,50z M31,48.4c0-0.9-0.3-1.3-0.9-1.3s-0.9,0.4-0.9,1.3c0,0.9,0.3,1.3,0.9,1.3S31,49.3,31,48.4z"/>
		<path class="st0" d="M37.7,50.4h-4.9l0.5-0.8h2.3v-1.8c0-0.6-0.3-0.9-1-0.9c-0.5,0-0.9,0.3-1.3,0.8v-1c0.4-0.4,0.8-0.5,1.3-0.5
			c0.5,0,1,0.1,1.3,0.4c0.3,0.3,0.5,0.7,0.5,1.2v1.8h1.3V50.4z"/>
		<path class="st0" d="M43.6,50.4h-6.2v-0.8h4.2v-0.3c0-0.7-0.1-1.2-0.2-1.5c-0.2-0.5-0.6-0.8-1.2-0.8c-0.5,0-1,0.2-1.4,0.7
			l-0.6-0.6c0.6-0.6,1.3-0.9,2-0.9c0.9,0,1.6,0.3,1.9,1c0.2,0.5,0.4,1.2,0.4,2.1v0.3h1.2V50.4z"/>
		<path class="st0" d="M49.8,50.4h-0.1c-0.5,0-1-0.2-1.3-0.6c-0.2,0.8-0.9,1.2-1.8,1.2c-0.8,0-1.5-0.4-1.8-1.1
			c-0.3,0.3-0.6,0.5-1.2,0.5h-0.3v-0.8h0.2c0.7,0,1-0.3,1.1-0.9c0.2-1.1,0.8-1.6,1.9-1.6c0.6,0,1,0.1,1.3,0.4
			c0.3,0.3,0.4,0.7,0.5,1.2c0.1,0.6,0.5,0.9,1.1,0.9l0.2,0V50.4z M47.6,49.1c0-0.8-0.3-1.2-1-1.2c-0.7,0-1,0.4-1,1.2s0.3,1.2,1,1.2
			C47.2,50.3,47.6,49.9,47.6,49.1z"/>
		<path class="st0" d="M51.9,48.7c0,0.5-0.2,0.9-0.5,1.2c-0.3,0.3-0.7,0.5-1.3,0.5h-0.6v-0.8h0.5c0.6,0,0.9-0.3,0.9-0.9v-4l0.9-0.3
			V48.7z"/>
		<path class="st0" d="M53.6,50.4h-0.9v-5.7l0.9-0.3V50.4z"/>
		<path class="st0" d="M64.1,50.4h-0.4c-0.6,0-1.1-0.2-1.3-0.7c-0.3,0.5-0.8,0.7-1.5,0.7h-3.3c-1,0-1.7-0.6-1.7-1.6v-0.9l0.9-0.9
			v1.7c0,0.6,0.3,0.9,0.9,0.9h3.1c0.6,0,0.9-0.3,0.9-0.9v-2.3l0.9-0.2v2.2c0,0.8,0.4,1.2,1.1,1.2h0.4V50.4z M59.1,46.3
			c0,0.3-0.2,0.5-0.5,0.5s-0.5-0.2-0.5-0.5c0-0.3,0.2-0.5,0.5-0.5S59.1,46,59.1,46.3z M59.7,45.2c0,0.3-0.2,0.5-0.5,0.5
			s-0.5-0.2-0.5-0.5s0.2-0.5,0.5-0.5S59.7,45,59.7,45.2z M60.4,46.3c0,0.3-0.2,0.5-0.5,0.5c-0.2,0-0.5-0.2-0.5-0.5
			c0-0.3,0.2-0.5,0.5-0.5C60.1,45.8,60.4,46,60.4,46.3z"/>
		<path class="st0" d="M66.3,48.7c0,0.5-0.2,0.9-0.5,1.2s-0.7,0.5-1.3,0.5h-0.7v-0.8h0.7c0.6,0,0.9-0.3,0.9-0.9v-2.2l0.9-0.3V48.7z
			 M64.9,51.7c0,0.3-0.2,0.5-0.5,0.5c-0.3,0-0.5-0.2-0.5-0.5s0.2-0.5,0.5-0.5C64.7,51.2,64.9,51.4,64.9,51.7z M66.2,51.7
			c0,0.3-0.2,0.5-0.5,0.5c-0.3,0-0.5-0.2-0.5-0.5s0.2-0.5,0.5-0.5C65.9,51.2,66.2,51.4,66.2,51.7z"/>
		<path class="st0" d="M72.1,50.4h-4.9l0.5-0.8H70v-1.8c0-0.6-0.3-0.9-1-0.9c-0.5,0-0.9,0.3-1.3,0.8v-1c0.4-0.4,0.8-0.5,1.3-0.5
			c0.5,0,1,0.1,1.3,0.4c0.3,0.3,0.5,0.7,0.5,1.2v1.8h1.3V50.4z"/>
		<path class="st0" d="M78.1,50.4h-6.2v-0.8H76v-0.3c0-0.7-0.1-1.2-0.2-1.5c-0.2-0.5-0.6-0.8-1.2-0.8c-0.5,0-1,0.2-1.4,0.7l-0.6-0.6
			c0.6-0.6,1.3-0.9,2-0.9c0.9,0,1.6,0.3,1.9,1c0.3,0.5,0.4,1.2,0.4,2.1v0.3h1.2V50.4z"/>
		<path class="st0" d="M80.2,48.7c0,0.5-0.2,0.9-0.5,1.2c-0.3,0.3-0.7,0.5-1.3,0.5h-0.6v-0.8h0.5c0.6,0,0.9-0.3,0.9-0.9v-4l0.9-0.3
			V48.7z"/>
		<path class="st0" d="M81.9,50.4H81v-5.7l0.9-0.3V50.4z"/>
		<path class="st0" d="M88.4,50.4h-4.4l0.7-0.8h0.6v-0.3c0-0.5,0.1-0.9,0.4-1.3c0.3-0.4,0.7-0.6,1.3-0.6c0.4,0,0.8,0.2,1.2,0.6
			l-0.6,0.6c-0.2-0.3-0.4-0.4-0.7-0.4c-0.5,0-0.8,0.4-0.8,0.9v0.4h2.2V50.4z"/>
		<path class="st0" d="M91.6,50.4h-1c-0.8,0-1.2-0.5-1.2-1.2v-4.5l0.9-0.3v4.8c0,0.3,0.1,0.4,0.5,0.4h0.9V50.4z"/>
		<path class="st0" d="M95.2,50.4h-0.6c-0.5,0-1-0.2-1.3-0.5c-0.3,0.3-0.8,0.5-1.3,0.5h-0.7v-0.8H92c0.6,0,0.9-0.3,0.9-0.9v-2.2
			l0.9-0.3v2.5c0,0.6,0.3,0.9,0.9,0.9h0.5V50.4z M93.8,44.9c0,0.3-0.2,0.5-0.5,0.5s-0.5-0.2-0.5-0.5s0.2-0.5,0.5-0.5
			S93.8,44.6,93.8,44.9z"/>
		<path class="st0" d="M98.8,50.4h-0.6c-0.5,0-1-0.2-1.3-0.5c-0.3,0.3-0.8,0.5-1.3,0.5H95v-0.8h0.6c0.6,0,0.9-0.3,0.9-0.9v-2.2
			l0.9-0.3v2.5c0,0.6,0.3,0.9,0.9,0.9h0.5V50.4z M97.5,51.7c0,0.3-0.2,0.5-0.5,0.5s-0.5-0.2-0.5-0.5c0-0.3,0.2-0.5,0.5-0.5
			S97.5,51.4,97.5,51.7z"/>
		<path class="st0" d="M100.9,48.7c0,0.5-0.2,0.9-0.5,1.2c-0.3,0.3-0.7,0.5-1.3,0.5h-0.6v-0.8h0.5c0.6,0,0.9-0.3,0.9-0.9v-4l0.9-0.3
			V48.7z"/>
		<path class="st0" d="M102.6,50.4h-0.9v-5.7l0.9-0.3V50.4z"/>
		<path class="st0" d="M108.7,48.3c0,0.6-0.1,1.1-0.4,1.4c-0.3,0.5-0.8,0.7-1.5,0.7s-1.2-0.2-1.5-0.7c-0.3-0.4-0.4-0.8-0.4-1.4
			c0-0.6,0.1-1.1,0.4-1.4c0.3-0.4,0.8-0.7,1.5-0.7s1.2,0.2,1.5,0.7C108.5,47.2,108.7,47.7,108.7,48.3z M106.6,44.9
			c0,0.3-0.2,0.5-0.5,0.5c-0.3,0-0.5-0.2-0.5-0.5s0.2-0.5,0.5-0.5C106.4,44.4,106.6,44.6,106.6,44.9z M107.8,48.3
			c0-0.9-0.3-1.4-1-1.4c-0.7,0-1,0.5-1,1.4c0,0.9,0.3,1.4,1,1.4C107.4,49.6,107.8,49.2,107.8,48.3z M107.9,44.9
			c0,0.3-0.2,0.5-0.5,0.5c-0.3,0-0.5-0.2-0.5-0.5s0.2-0.5,0.5-0.5C107.6,44.4,107.9,44.6,107.9,44.9z"/>
		<path class="st0" d="M113.1,50.4h-3.7l0.5-0.8h2.3v-1.8c0-0.6-0.3-0.9-1-0.9c-0.5,0-0.9,0.3-1.3,0.8v-1c0.4-0.4,0.8-0.5,1.3-0.5
			c0.5,0,1,0.1,1.3,0.4c0.3,0.3,0.5,0.7,0.5,1.2V50.4z"/>
		<path class="st0" d="M116.1,50.4h-1c-0.8,0-1.2-0.5-1.2-1.2v-4.5l0.9-0.3v4.8c0,0.3,0.1,0.4,0.5,0.4h0.9V50.4z"/>
		<path class="st0" d="M120.3,48.9c0,0.5-0.2,0.9-0.5,1.2c-0.3,0.2-0.7,0.3-1.2,0.3h-2.6v-0.8h2.5c0.3,0,0.5,0,0.7-0.1
			c0.2-0.1,0.3-0.3,0.3-0.6h-1.3c-0.6,0-1-0.1-1.2-0.4c-0.2-0.2-0.3-0.6-0.3-1.1c0-0.9,0.7-1.5,1.8-1.5c0.6,0,1.1,0.2,1.4,0.5
			c0.3,0.3,0.4,0.6,0.4,1V48.9z M118.2,44.9c0,0.3-0.2,0.5-0.5,0.5c-0.3,0-0.5-0.2-0.5-0.5s0.2-0.5,0.5-0.5
			C118,44.4,118.2,44.6,118.2,44.9z M119.4,47.5c0-0.5-0.3-0.7-1-0.7c-0.6,0-0.9,0.2-0.9,0.7c0,0.3,0,0.5,0.1,0.6
			c0.1,0.1,0.3,0.1,0.7,0.1h1.1V47.5z M119.4,44.9c0,0.3-0.2,0.5-0.5,0.5c-0.3,0-0.5-0.2-0.5-0.5s0.2-0.5,0.5-0.5
			C119.2,44.4,119.4,44.6,119.4,44.9z"/>
		<path class="st0" d="M127.7,50.4h-0.6c-0.7,0-1.2-0.2-1.4-0.6c-0.2,0.4-0.7,0.6-1.4,0.6c-1.2,0-1.8-0.7-1.8-2.1
			c0-1.4,0.6-2.1,1.8-2.1h1.9v2.5c0,0.6,0.3,0.9,0.9,0.9h0.6V50.4z M125.3,46.9h-0.9c-0.4,0-0.6,0.1-0.8,0.4c-0.1,0.2-0.2,0.5-0.2,1
			s0.1,0.8,0.2,1c0.1,0.3,0.4,0.4,0.8,0.4s0.6-0.1,0.8-0.4c0.1-0.2,0.2-0.5,0.2-1V46.9z M124.5,44.9c0,0.3-0.2,0.5-0.5,0.5
			c-0.3,0-0.5-0.2-0.5-0.5s0.2-0.5,0.5-0.5C124.3,44.4,124.5,44.6,124.5,44.9z M125.8,44.9c0,0.3-0.2,0.5-0.5,0.5s-0.5-0.2-0.5-0.5
			s0.2-0.5,0.5-0.5S125.8,44.6,125.8,44.9z"/>
		<path class="st0" d="M132.7,50.4h-5.3v-0.8h4.4c0-0.5,0-0.8,0-1c-0.1-0.4-0.2-0.7-0.4-0.9c-0.3-0.3-0.7-0.4-1.2-0.4
			c-0.7,0-1.2,0.2-1.6,0.7l-0.6-0.6l2.9-3h1.2l-2,2.1c0.1,0,0.3,0,0.4,0c0.6,0,1.2,0.2,1.6,0.6c0.4,0.4,0.7,0.9,0.8,1.5
			C132.7,48.7,132.7,49.3,132.7,50.4z"/>
		<path class="st0" d="M137.6,50.4h-1.3c-0.1,1.1-0.9,1.8-2.1,1.8c-0.4,0-0.7-0.1-1-0.3l-0.4-0.9c0.4,0.2,0.9,0.4,1.4,0.4
			c0.8,0,1.2-0.5,1.2-1.3v-3.7l0.9-0.3v3.4h1.3V50.4z"/>
		<path class="st0" d="M144.8,48.8c0,1-0.7,1.6-1.7,1.6h-5.7v-0.8h1.1v-2.3l0.9-0.3v2.6h1.8v-2.8l0.9-0.3v3h0.9
			c0.6,0,0.9-0.3,0.9-0.9v-2.2l0.9-0.3V48.8z M141.5,44.9c0,0.3-0.2,0.5-0.5,0.5c-0.3,0-0.5-0.2-0.5-0.5c0-0.3,0.2-0.5,0.5-0.5
			C141.2,44.4,141.5,44.6,141.5,44.9z M142.1,43.8c0,0.3-0.2,0.5-0.5,0.5s-0.5-0.2-0.5-0.5c0-0.3,0.2-0.5,0.5-0.5
			S142.1,43.5,142.1,43.8z M142.7,44.9c0,0.3-0.2,0.5-0.5,0.5s-0.5-0.2-0.5-0.5c0-0.3,0.2-0.5,0.5-0.5S142.7,44.6,142.7,44.9z"/>
	</g>
	<path class="st0" d="M55,17.4c-4.4,7.7-8.7,15.4-13.1,23.3c-4.2-7.9-8.3-15.6-12.4-23.3c-0.1,0-0.1,0-0.2,0c0,0.8,0,1.6,0,2.3
		c0,5.8,0,11.7,0,17.5c0,1.1,0.1,2,1.3,2.4c0.2,0.1,0.4,0.2,0.4,0.5c-0.1,0.4-0.4,0.3-0.7,0.3c-2.9,0-5.8,0-8.7,0
		c-0.3,0-0.6,0.1-0.7-0.3c-0.1-0.4,0.2-0.6,0.5-0.7c0.8-0.3,1-1,1-1.8c0-9.6,0-19.3,0-28.9c0-0.8-0.3-1.4-1-1.7
		C21,7,20.7,6.8,20.9,6.4c0.1-0.4,0.5-0.2,0.7-0.2c3.9,0,7.8,0,11.7,0c0.3,0,0.6-0.1,0.7,0.3c0.1,0.3-0.1,0.5-0.4,0.7
		c-0.8,0.5-0.9,1.2-0.5,2c3.1,6,6.2,11.9,9.4,18c1.4-2.6,2.7-5,4-7.4c1.8-3.4,3.7-6.7,5.5-10.1c0.5-1,1.2-2.1-0.4-2.8
		c-0.1,0-0.2-0.3-0.2-0.4c0-0.3,0.2-0.3,0.4-0.3c0.5,0,1,0,1.6,0c3.3,0,6.7,0,10,0c0.3,0,0.8-0.2,1,0.3c0.2,0.5-0.3,0.6-0.6,0.8
		c-0.7,0.4-0.9,0.9-0.9,1.7c0,9.6,0,19.3,0,28.9c0,0.8,0.2,1.4,1,1.7c0.3,0.1,0.6,0.3,0.5,0.7c-0.1,0.4-0.5,0.3-0.7,0.3
		c-3.1,0-6.2,0-9.3,0c-0.3,0-0.6,0.1-0.7-0.3c-0.1-0.4,0.2-0.5,0.5-0.7c0.7-0.3,1.1-0.8,1.1-1.6c0-6.8,0-13.5,0-20.3
		C55.2,17.7,55.2,17.6,55,17.4z"/>
	<path class="st0" d="M107,29.8c-0.2-2.9-1.5-5.1-4-6.6c-0.4-0.3-1-0.4-1.4-0.9c0.2-0.1,0.3-0.3,0.5-0.4c2.9-1.8,4.1-4.5,3.7-7.8
		c-0.4-3.7-2.3-6.1-5.9-7.3c-2-0.7-4.1-0.7-6.2-0.7c-7.4,0-14.8,0-22.1,0c-0.3,0-0.8-0.2-0.9,0.3c-0.2,0.5,0.3,0.6,0.6,0.8
		c0.8,0.4,0.9,1.1,0.9,1.8c0,3.9,0,7.9,0,11.8v16.7c0,0.7,0,1.4-0.7,1.8c-0.3,0.2-1,0.3-0.8,0.9c0.2,0.5,0.8,0.2,1.2,0.2
		c7.6,0,15.2,0,22.9,0c1.1,0,2.2-0.1,3.2-0.2C102.6,39.8,107.5,36.7,107,29.8z M79.8,12.8c0-0.8,0.3-1,1.1-1c4.1,0,8.2,0,12.3,0
		c0.5,0,1,0.1,1.6,0.2c2.9,0.4,4,2,3.5,4.9c-0.2,1.5-1.3,2.4-3,2.7c-2.6,0.4-5.3,0.1-7.5,0.2c-2.6,0-4.8,0-7,0c-0.7,0-1-0.2-1-1
		C79.9,16.8,79.9,14.8,79.8,12.8z M99.2,31.5c-0.4,1.8-1.8,2.9-3.9,3.2c-1,0.1-2.1,0.2-3.1,0.2c-3.7,0-7.5,0-11.2,0
		c-0.8,0-1.1-0.2-1.1-1.1c0-2.5,0.1-5,0-7.5c0-0.9,0.3-1.2,1.2-1.1c2.1,0.1,4.1,0,6.6,0c2.1,0.1,4.7-0.1,7.3,0.2
		C98.3,25.9,99.9,28.2,99.2,31.5z"/>
	<path class="st0" d="M132.3,35c3.1,0,6.2,0,9.3,0c1.1,0,2.1-0.1,2.5-1.3c0.1-0.3,0.4-0.4,0.7-0.3c0.4,0.1,0.3,0.4,0.3,0.7
		c0,2.5,0,5.1,0,7.6c0,0.3,0,0.6-0.4,0.6c-0.3,0-0.5-0.1-0.7-0.4c-0.4-1.3-1.5-1.3-2.6-1.3c-9.2,0-18.5,0-27.7,0c-0.3,0-0.6,0-1,0
		c-0.2,0-0.5,0.1-0.6-0.2c-0.1-0.3,0.1-0.6,0.4-0.7c1.1-0.4,1.1-1.2,1.1-2.2c0-9.4,0-18.8,0-28.3c0-0.9-0.1-1.7-1.1-2.1
		c-0.3-0.1-0.5-0.3-0.4-0.7c0.1-0.4,0.4-0.3,0.7-0.3c3.1,0,6.1,0,9.2,0c0.3,0,0.6-0.1,0.7,0.2c0.1,0.4-0.2,0.6-0.5,0.7
		c-0.8,0.4-1,1-1,1.9c0,8.3,0,16.6,0,24.9c0,0.9,0.3,1.1,1.1,1.1C125.8,35,129.1,35,132.3,35z"/>
	<g>
		<path class="st0" d="M25.3,56.9c0-1.1,0-2.3,0-2.9h0c-0.3,1-1.2,3.6-1.9,5.5h-0.7C22.1,58,21.1,55,20.8,54h0
			c0,0.7,0.1,2.1,0.1,3.1v2.4h-0.8v-6.1h1.2c0.7,1.9,1.5,4.3,1.7,5.1h0c0.1-0.6,1.1-3.3,1.9-5.1h1.2v6.1h-0.8V56.9z"/>
		<path class="st0" d="M31.3,57.3c0,1.3-0.7,2.3-2.1,2.3c-1.3,0-2-1-2-2.3c0-1.3,0.8-2.3,2.1-2.3C30.5,55,31.3,55.9,31.3,57.3z
			 M28,57.3c0,1,0.5,1.7,1.3,1.7c0.8,0,1.3-0.7,1.3-1.7c0-1-0.5-1.7-1.3-1.7C28.4,55.6,28,56.3,28,57.3z"/>
		<path class="st0" d="M36,53.1v5.2c0,0.4,0,0.8,0,1.3h-0.7c0-0.1,0-0.5,0-0.6c-0.2,0.5-0.7,0.7-1.4,0.7c-1.1,0-1.8-0.9-1.8-2.3
			c0-1.4,0.8-2.4,2-2.4c0.8,0,1.1,0.3,1.3,0.6v-2.5H36z M32.8,57.3c0,1.1,0.5,1.7,1.2,1.7c1,0,1.3-0.8,1.3-1.7c0-1-0.2-1.6-1.2-1.6
			C33.3,55.6,32.8,56.3,32.8,57.3z"/>
		<path class="st0" d="M37.8,57.4c0,0.9,0.5,1.5,1.2,1.5c0.7,0,0.9-0.4,1.1-0.7h0.8c-0.2,0.6-0.7,1.3-1.9,1.3c-1.4,0-2-1.1-2-2.3
			c0-1.3,0.7-2.4,2-2.4c1.4,0,1.9,1.1,1.9,2.1c0,0.1,0,0.2,0,0.4H37.8z M40.2,56.9c0-0.7-0.4-1.3-1.1-1.3c-0.8,0-1.1,0.5-1.2,1.3
			H40.2z"/>
		<path class="st0" d="M41.9,56.3c0-0.6,0-1,0-1.2h0.8c0,0.1,0,0.5,0,0.9c0.2-0.6,0.8-1,1.5-1v0.8c-0.9,0-1.5,0.5-1.5,1.6v2.2h-0.8
			V56.3z"/>
		<path class="st0" d="M45,56.2c0-0.4,0-0.8,0-1.1h0.7c0,0.1,0,0.6,0,0.7c0.2-0.4,0.5-0.8,1.4-0.8c0.8,0,1.5,0.5,1.5,1.7v2.9h-0.8
			v-2.8c0-0.7-0.3-1.1-0.9-1.1c-0.8,0-1.2,0.6-1.2,1.5v2.4H45V56.2z"/>
		<path class="st0" d="M52.3,53.4h2.3c1.3,0,1.9,0.7,1.9,1.5c0,0.7-0.4,1.2-0.9,1.3c0.4,0.1,1.1,0.6,1.1,1.5c0,1.1-0.9,1.8-2,1.8
			h-2.4V53.4z M54.5,56c0.9,0,1.2-0.3,1.2-0.9c0-0.5-0.4-0.9-1.1-0.9h-1.5V56H54.5z M53.1,58.9h1.5c0.8,0,1.3-0.4,1.3-1.1
			c0-0.7-0.4-1.1-1.5-1.1h-1.4V58.9z"/>
		<path class="st0" d="M61.4,58.2c0,0.4,0,1,0,1.3h-0.7c0-0.1,0-0.4,0-0.7c-0.2,0.5-0.6,0.8-1.3,0.8c-0.7,0-1.5-0.4-1.5-1.6v-2.9
			h0.8v2.8c0,0.6,0.2,1.1,0.9,1.1c0.8,0,1.1-0.5,1.1-1.6v-2.3h0.8V58.2z"/>
		<path class="st0" d="M62.7,53.1h0.8v1h-0.8V53.1z M62.7,55.1h0.8v4.4h-0.8V55.1z"/>
		<path class="st0" d="M64.8,59.5v-6.4h0.8v6.4H64.8z"/>
		<path class="st0" d="M70.6,53.1v5.2c0,0.4,0,0.8,0,1.3h-0.7c0-0.1,0-0.5,0-0.6c-0.2,0.5-0.7,0.7-1.4,0.7c-1.1,0-1.8-0.9-1.8-2.3
			c0-1.4,0.8-2.4,2-2.4c0.8,0,1.1,0.3,1.3,0.6v-2.5H70.6z M67.4,57.3c0,1.1,0.5,1.7,1.2,1.7c1,0,1.3-0.8,1.3-1.7
			c0-1-0.2-1.6-1.2-1.6C67.8,55.6,67.4,56.3,67.4,57.3z"/>
		<path class="st0" d="M71.9,53.1h0.8v1h-0.8V53.1z M71.9,55.1h0.8v4.4h-0.8V55.1z"/>
		<path class="st0" d="M74,56.2c0-0.4,0-0.8,0-1.1h0.7c0,0.1,0,0.6,0,0.7c0.2-0.4,0.5-0.8,1.4-0.8c0.8,0,1.5,0.5,1.5,1.7v2.9h-0.8
			v-2.8c0-0.7-0.3-1.1-0.9-1.1c-0.8,0-1.2,0.6-1.2,1.5v2.4H74V56.2z"/>
		<path class="st0" d="M82.6,59.1c0,1.4-0.6,2.2-2,2.2c-1.3,0-1.8-0.8-1.8-1.4h0.8c0.1,0.5,0.5,0.7,1.1,0.7c1,0,1.3-0.6,1.3-1.7
			v-0.4c-0.2,0.5-0.6,0.8-1.4,0.8c-1.1,0-1.8-0.9-1.8-2.2c0-1.4,0.8-2.3,1.9-2.3c0.8,0,1.2,0.4,1.3,0.7c0-0.2,0-0.5,0-0.6h0.7
			c0,0.3,0,0.9,0,1.3V59.1z M79.4,57.3c0,0.9,0.5,1.6,1.2,1.6c1,0,1.2-0.6,1.2-1.6c0-1-0.3-1.6-1.2-1.6
			C79.8,55.6,79.4,56.3,79.4,57.3z"/>
		<path class="st0" d="M86.2,53.4H87v5.4h3.2l-0.1,0.7h-3.9V53.4z"/>
		<path class="st0" d="M91.5,57.4c0,0.9,0.5,1.5,1.2,1.5c0.7,0,0.9-0.4,1.1-0.7h0.8c-0.2,0.6-0.7,1.3-1.9,1.3c-1.4,0-2-1.1-2-2.3
			c0-1.3,0.7-2.4,2-2.4c1.4,0,1.9,1.1,1.9,2.1c0,0.1,0,0.2,0,0.4H91.5z M93.8,56.9c0-0.7-0.4-1.3-1.1-1.3c-0.8,0-1.1,0.5-1.2,1.3
			H93.8z"/>
		<path class="st0" d="M98.9,58.6c0,0.4,0,0.8,0.1,1h-0.7c0-0.1-0.1-0.3-0.1-0.6c-0.2,0.3-0.5,0.7-1.4,0.7c-1,0-1.5-0.7-1.5-1.4
			c0-1,0.8-1.4,2.1-1.4c0.3,0,0.6,0,0.8,0v-0.4c0-0.4-0.1-0.9-1-0.9c-0.7,0-0.9,0.4-0.9,0.7h-0.7c0.1-0.6,0.4-1.3,1.7-1.3
			c1.1,0,1.7,0.4,1.7,1.5V58.6z M98.1,57.4c-0.1,0-0.5,0-0.7,0c-0.9,0-1.4,0.2-1.4,0.9c0,0.5,0.3,0.8,0.9,0.8c1.1,0,1.2-0.7,1.2-1.5
			V57.4z"/>
		<path class="st0" d="M103.9,53.1v5.2c0,0.4,0,0.8,0,1.3h-0.7c0-0.1,0-0.5,0-0.6c-0.2,0.5-0.7,0.7-1.4,0.7c-1.1,0-1.8-0.9-1.8-2.3
			c0-1.4,0.8-2.4,2-2.4c0.8,0,1.1,0.3,1.3,0.6v-2.5H103.9z M100.7,57.3c0,1.1,0.5,1.7,1.2,1.7c1,0,1.3-0.8,1.3-1.7
			c0-1-0.2-1.6-1.2-1.6C101.2,55.6,100.7,56.3,100.7,57.3z"/>
		<path class="st0" d="M105.7,57.4c0,0.9,0.5,1.5,1.2,1.5c0.7,0,0.9-0.4,1.1-0.7h0.8c-0.2,0.6-0.7,1.3-1.9,1.3c-1.4,0-2-1.1-2-2.3
			c0-1.3,0.7-2.4,2-2.4c1.4,0,1.9,1.1,1.9,2.1c0,0.1,0,0.2,0,0.4H105.7z M108,56.9c0-0.7-0.4-1.3-1.1-1.3c-0.8,0-1.1,0.5-1.2,1.3
			H108z"/>
		<path class="st0" d="M109.8,56.3c0-0.6,0-1,0-1.2h0.8c0,0.1,0,0.5,0,0.9c0.2-0.6,0.8-1,1.5-1v0.8c-0.9,0-1.5,0.5-1.5,1.6v2.2h-0.8
			V56.3z"/>
		<path class="st0" d="M113.3,58.3c0.1,0.5,0.5,0.8,1.1,0.8c0.7,0,0.9-0.3,0.9-0.7c0-0.4-0.2-0.6-1.1-0.8c-1.3-0.3-1.5-0.7-1.5-1.3
			c0-0.6,0.5-1.2,1.6-1.2c1.1,0,1.6,0.7,1.7,1.3h-0.7c-0.1-0.3-0.3-0.7-1-0.7c-0.6,0-0.8,0.3-0.8,0.6c0,0.3,0.2,0.5,1,0.7
			c1.3,0.3,1.6,0.8,1.6,1.4c0,0.8-0.6,1.3-1.7,1.3c-1.2,0-1.7-0.6-1.8-1.4H113.3z"/>
		<path class="st0" d="M124.2,57.8c-0.3,1-1,1.8-2.4,1.8c-1.8,0-2.7-1.4-2.7-3.1c0-1.7,0.9-3.2,2.8-3.2c1.4,0,2.2,0.8,2.4,1.8h-0.8
			c-0.2-0.7-0.7-1.2-1.6-1.2c-1.3,0-1.9,1.2-1.9,2.5c0,1.2,0.5,2.5,1.9,2.5c0.9,0,1.4-0.5,1.6-1.1H124.2z"/>
		<path class="st0" d="M129.1,57.3c0,1.3-0.7,2.3-2.1,2.3c-1.3,0-2-1-2-2.3c0-1.3,0.8-2.3,2.1-2.3C128.3,55,129.1,55.9,129.1,57.3z
			 M125.7,57.3c0,1,0.5,1.7,1.3,1.7c0.8,0,1.3-0.7,1.3-1.7c0-1-0.5-1.7-1.3-1.7C126.2,55.6,125.7,56.3,125.7,57.3z"/>
		<path class="st0" d="M129.9,59.5v-1.3h0.8v1.3H129.9z"/>
		<path class="st0" d="M134.1,59.5v-6.4h0.8v6.4H134.1z"/>
		<path class="st0" d="M135.6,55.1h0.8v-1.3h0.8v1.3h1v0.6h-1v2.6c0,0.4,0.1,0.7,0.5,0.7c0.1,0,0.3,0,0.4,0v0.6
			c-0.2,0.1-0.5,0.1-0.7,0.1c-0.7,0-1-0.4-1-1.1v-2.8h-0.8V55.1z"/>
		<path class="st0" d="M142.6,53.1v5.2c0,0.4,0,0.8,0,1.3h-0.7c0-0.1,0-0.5,0-0.6c-0.2,0.5-0.7,0.7-1.4,0.7c-1.1,0-1.8-0.9-1.8-2.3
			c0-1.4,0.8-2.4,2-2.4c0.8,0,1.1,0.3,1.3,0.6v-2.5H142.6z M139.4,57.3c0,1.1,0.5,1.7,1.2,1.7c1,0,1.3-0.8,1.3-1.7
			c0-1-0.2-1.6-1.2-1.6C139.9,55.6,139.4,56.3,139.4,57.3z"/>
		<path class="st0" d="M143.8,59.5v-1.3h0.8v1.3H143.8z"/>
	</g>
</g>
</svg>
