<?xml version="1.0" encoding="utf-8"?>
<!-- Generator: Adobe Illustrator 24.3.0, SVG Export Plug-In . SVG Version: 6.00 Build 0)  -->
<svg version="1.1" id="Layer_1" xmlns="http://www.w3.org/2000/svg" xmlns:xlink="http://www.w3.org/1999/xlink" x="0px" y="0px"
	 viewBox="0 0 164 68" style="enable-background:new 0 0 164 68;" xml:space="preserve">
<style type="text/css">
	.st0{fill:none;}
	.st1{fill:#1E1F1C;}
	.st2{fill:#020203;}
	.st3{fill:#040404;}
	.st4{fill:#0C0809;}
	.st5{fill:#211E1F;}
	.st6{fill:#FCFEFF;}
	.st7{fill:#000102;}
	.st8{fill:none;stroke:#F9F9F9;stroke-width:0.25;stroke-miterlimit:10;}
	.st9{fill:#262626;}
	.st10{fill:#000002;}
</style>
<g>
	<g>
		<path class="st7" d="M137.1,12.7l-24.8-0.1L99.9,34l12.3,21.5l24.8,0.1l12.5-21.4L137.1,12.7z M116.1,48.8l-8.5-14.7l8.5-14.7
			l17,0.1l8.4,14.7l-8.5,14.7L116.1,48.8z"/>
		<path class="st8" d="M136.6,13.6l-23.7-0.1l-11.9,20.5l11.8,20.6l23.7,0.1l11.9-20.5L136.6,13.6z M116.1,48.8l-8.5-14.7l8.5-14.7
			l17,0.1l8.4,14.7l-8.5,14.7L116.1,48.8z"/>
		<path class="st8" d="M136,14.6l-22.5-0.1l-11.3,19.5l11.2,19.6l22.6,0.1l11.3-19.5L136,14.6z M116.1,48.8l-8.5-14.7l8.5-14.7
			l17,0.1l8.4,14.7l-8.5,14.7L116.1,48.8z"/>
		<path class="st8" d="M135.1,16.2l-20.8-0.1l-10.4,17.9l10.3,18l20.8,0.1l10.4-17.9L135.1,16.2z M116.1,48.8l-8.5-14.7l8.5-14.7
			l17,0.1l8.4,14.7l-8.5,14.7L116.1,48.8z"/>
		<path class="st8" d="M134.4,17.3L115,17.2l-9.8,16.8l9.7,16.9l19.5,0.1l9.8-16.8L134.4,17.3z M116.1,48.8l-8.5-14.7l8.5-14.7
			l17,0.1l8.4,14.7l-8.5,14.7L116.1,48.8z"/>
		<polygon class="st8" points="133.6,18.7 115.7,18.6 106.8,34.1 115.6,49.6 133.5,49.7 142.5,34.2 		"/>
	</g>
	<g>
		<path d="M14.3,35.5l5.8-18.8h4.8c0.2,5.7,0.5,12.2,0.5,13.1h0c0.6-2.5,1.3-5.1,2.2-8.2l1.5-4.9H33l-5.8,18.8h-4.7
			C22.3,30.7,22,23,22,22.2h0c-0.5,2.3-1.2,4.8-2.2,8.2l-1.6,5.1H14.3z"/>
		<path d="M37,29c0,0.1-0.7,2.2-0.7,2.3c-0.4,1.1-0.3,2.1,1.2,2.1c1.5,0,1.8-1,2.1-1.8l0.1-0.4h4l-0.1,0.3c-0.6,2.2-1.7,4.3-6.5,4.3
			c-5.3,0-5.5-2.8-4.7-5.3l1.5-5c0.7-2.3,1.8-4.7,6.7-4.7c5.2,0,5.6,2.5,4.8,5c0,0.1-1,3.2-1,3.2H37z M41.2,26.7
			c0-0.1,0.6-1.9,0.6-1.9c0.3-1,0.1-1.8-1.3-1.8c-1.3,0-1.9,0.7-2.2,1.8l-0.6,1.9H41.2z"/>
		<path d="M50.6,31l-0.2,0.6c-0.3,1-0.2,1.9,1.2,1.9c1,0,1.5-0.5,1.8-1.3c0.5-1.4-0.2-2.3-1.8-3.4c-2.7-1.8-3.3-2.9-2.8-5
			c0.6-2,2.5-3.1,5.4-3.1c3.9,0,5.5,1.7,4.8,4.1l-0.2,0.6h-3.8l0.2-0.7c0.3-1.1,0.1-1.7-1-1.7c-0.8,0-1.3,0.4-1.5,1.2
			c-0.2,0.8-0.1,1.3,1.6,2.4c3,2,3.8,3.3,3.1,5.6c-0.7,2.3-2.5,3.5-6,3.5c-4.7,0-5.8-2-4.9-4.5l0.1-0.2H50.6z"/>
		<path d="M62.7,25.2c0.9-2.9,1-3.6,1.2-4.2h4c0,0.2-0.1,0.7-0.3,1.1c1-0.9,2.3-1.3,3.8-1.3c1.7,0,2.6,0.6,2.9,1.4
			c1-0.8,2.3-1.4,4.3-1.4c2.5,0,4.1,1.1,3.3,3.7l-3.4,11.1h-4.1l3.3-10.8c0.3-1,0.1-1.6-1-1.6c-1.4,0-2,0.8-2.4,2.2l-3.1,10.2H67
			l3.3-10.7c0.4-1.4,0-1.7-1-1.7c-1.4,0-2,0.8-2.4,2.2l-3.1,10.2h-4.1L62.7,25.2z"/>
		<path d="M94.7,31.9c-0.3,1.2-1,3.1-1,3.6h-4c0-0.3,0.1-0.7,0.3-1.2c-1,1-2,1.4-3.7,1.4c-3.3,0-3.8-2.2-3.1-4.4
			c1.1-3.4,3.4-4.3,8.4-4.8c0.3,0,0.5-0.1,0.8-0.1l0.6-1.8c0.3-1,0.2-1.7-1.1-1.7c-1.2,0-1.5,0.7-1.9,1.8l-0.2,0.4h-4.1l0.1-0.2
			c0.6-1.8,1.3-4.2,6.4-4.2c4.2,0,5.5,1.5,4.8,3.9L94.7,31.9z M91.7,28.7c-0.2,0-0.4,0.1-0.6,0.1c-2.2,0.3-3.2,0.8-3.8,2.4
			c-0.3,1-0.4,2.1,1.1,2.1c1.5,0,2.2-1,2.8-3L91.7,28.7z"/>
	</g>
	<g>
		<path d="M22.1,47.5c-0.4,0.4-0.6,0.9-0.6,1.5c0,0.6,0.2,1.1,0.6,1.5c0.4,0.4,1,0.5,1.7,0.5c0.7,0,1.3-0.2,1.8-0.5
			c0.5-0.3,0.9-0.9,1.1-1.5c0.3-0.7,0.4-1.5,0.4-2.5h1.3c0,1.2-0.2,2.3-0.5,3.1s-0.9,1.5-1.6,1.9c-0.7,0.4-1.6,0.7-2.7,0.7
			c-0.7,0-1.3-0.1-1.8-0.4s-0.9-0.6-1.1-1.1c-0.3-0.5-0.4-1.1-0.4-1.7c0-0.9,0.3-1.6,0.8-2.2s1.2-0.9,2.1-1l0.6,1.1
			C23.1,47,22.5,47.2,22.1,47.5z M23.3,47.8c-0.4-0.4-0.8-0.8-1.1-1.3c-0.3-0.4-0.5-0.8-0.6-1.3s-0.2-0.9-0.2-1.4
			c0-1,0.3-1.7,0.8-2.3s1.3-0.8,2.2-0.8c1,0,1.7,0.3,2.2,0.8c0.5,0.5,0.8,1.2,0.8,2.2v0.1H26v-0.1c0-0.5-0.1-0.9-0.4-1.2
			c-0.3-0.3-0.7-0.4-1.2-0.4c-0.5,0-0.9,0.2-1.2,0.5c-0.3,0.3-0.4,0.7-0.4,1.3c0,0.3,0.1,0.7,0.2,1c0.1,0.3,0.3,0.7,0.5,1
			c0.2,0.3,0.5,0.7,0.9,1l5,5.2h-1.8L23.3,47.8z"/>
		<path d="M35.7,40.9H37v11.2h-1.3V40.9z M36.5,46.5h3.6c0.4,0,0.7-0.1,1-0.3c0.3-0.2,0.5-0.4,0.7-0.8c0.2-0.3,0.2-0.7,0.2-1.1
			c0-0.4-0.1-0.8-0.2-1.1c-0.2-0.3-0.4-0.6-0.7-0.8c-0.3-0.2-0.6-0.3-1-0.3h-3.6v-1.3H40c0.7,0,1.3,0.1,1.8,0.4
			c0.5,0.3,0.9,0.7,1.2,1.2c0.3,0.5,0.4,1.1,0.4,1.8c0,0.7-0.1,1.3-0.4,1.8c-0.3,0.5-0.7,0.9-1.2,1.2c-0.5,0.3-1.1,0.4-1.8,0.4h-3.5
			V46.5z"/>
		<path d="M46,51.6c-0.5-0.4-0.8-1-0.8-1.8c0-0.8,0.2-1.4,0.7-1.8c0.5-0.4,1.1-0.6,2-0.6h2.5l0.1,1.1h-2.6c-0.5,0-0.8,0.1-1.1,0.3
			c-0.2,0.2-0.4,0.5-0.4,0.9c0,0.4,0.2,0.8,0.5,1c0.3,0.2,0.8,0.3,1.4,0.3c0.6,0,1.1-0.1,1.5-0.2c0.3-0.1,0.5-0.3,0.5-0.6l0.2,1.1
			c-0.1,0.2-0.3,0.4-0.6,0.5c-0.2,0.1-0.5,0.2-0.8,0.3c-0.3,0.1-0.6,0.1-1,0.1C47.2,52.3,46.5,52,46,51.6z M50.3,47.1
			c0-0.6-0.2-1-0.5-1.4c-0.3-0.3-0.8-0.5-1.3-0.5c-0.3,0-0.7,0.1-1,0.2c-0.3,0.1-0.6,0.3-0.9,0.5l-1-0.7c0.3-0.4,0.7-0.6,1.2-0.9
			c0.5-0.2,1-0.3,1.7-0.3c0.7,0,1.2,0.1,1.7,0.4c0.5,0.2,0.8,0.6,1.1,1c0.2,0.4,0.4,1,0.4,1.6v5.1h-1.3V47.1z"/>
		<path d="M54.2,44.1h1.3v8h-1.3V44.1z M58.2,45.4c-0.2-0.1-0.5-0.1-0.8-0.1c-0.6,0-1,0.2-1.4,0.5c-0.3,0.3-0.5,0.8-0.5,1.3
			l-0.2-1.5c0.3-0.5,0.6-0.8,1.1-1.1c0.4-0.3,0.9-0.4,1.4-0.4c0.4,0,0.7,0.1,1,0.2c0.3,0.1,0.6,0.3,0.8,0.5l-0.9,1.2
			C58.6,45.6,58.5,45.5,58.2,45.4z"/>
		<path d="M60.6,44.1h3.6v1.2h-3.6V44.1z M61.9,51.6c-0.3-0.4-0.5-0.9-0.5-1.6v-8.2h1.3v8.3c0,0.3,0.1,0.5,0.2,0.6
			c0.1,0.1,0.3,0.2,0.5,0.2h0.8v1.3h-0.9C62.7,52.2,62.2,52,61.9,51.6z"/>
		<path d="M66.6,44.1H68v8h-1.3V44.1z M71.7,47.3c0-0.6-0.2-1.1-0.5-1.5c-0.3-0.3-0.8-0.5-1.4-0.5c-0.6,0-1,0.2-1.4,0.5
			c-0.3,0.3-0.5,0.7-0.5,1.3l-0.2-1.5c0.3-0.5,0.6-0.9,1-1.1c0.4-0.2,0.9-0.4,1.5-0.4c0.9,0,1.5,0.3,2,0.9c0.5,0.6,0.7,1.4,0.7,2.4
			v4.9h-1.3V47.3z"/>
		<path d="M77.1,51.8c-0.5-0.3-0.9-0.7-1.2-1.2c-0.3-0.5-0.4-1.2-0.4-1.9v-0.9c0-0.8,0.1-1.5,0.4-2s0.6-1,1.2-1.3
			c0.5-0.3,1.1-0.4,1.8-0.4c0.7,0,1.2,0.2,1.7,0.5c0.5,0.3,0.8,0.8,1.1,1.4c0.2,0.6,0.4,1.3,0.4,2.1v0.7h-5.6v-1.1h4.3v0
			c0-0.7-0.2-1.3-0.5-1.7c-0.3-0.4-0.8-0.6-1.4-0.6c-0.7,0-1.2,0.2-1.6,0.6c-0.4,0.4-0.5,1-0.5,1.8v1c0,0.7,0.2,1.3,0.6,1.7
			c0.4,0.4,0.9,0.6,1.7,0.6c0.3,0,0.7-0.1,1-0.2c0.3-0.1,0.6-0.3,0.9-0.6l0.9,0.9c-0.4,0.4-0.8,0.7-1.3,0.9s-1,0.3-1.5,0.3
			C78.2,52.3,77.6,52.1,77.1,51.8z"/>
		<path d="M84.4,44.1h1.3v8h-1.3V44.1z M88.4,45.4c-0.2-0.1-0.5-0.1-0.8-0.1c-0.6,0-1,0.2-1.4,0.5c-0.3,0.3-0.5,0.8-0.5,1.3
			l-0.2-1.5c0.3-0.5,0.6-0.8,1.1-1.1c0.4-0.3,0.9-0.4,1.4-0.4c0.4,0,0.7,0.1,1,0.2c0.3,0.1,0.6,0.3,0.8,0.5L89,45.8
			C88.8,45.6,88.6,45.5,88.4,45.4z"/>
		<path d="M92.9,52.1c-0.4-0.1-0.8-0.2-1.1-0.4c-0.4-0.2-0.7-0.4-1-0.6l0.8-1c0.4,0.3,0.9,0.6,1.3,0.7c0.4,0.2,0.9,0.2,1.3,0.2
			c0.7,0,1.2-0.1,1.6-0.3c0.4-0.2,0.5-0.6,0.5-1c0-0.3-0.1-0.5-0.3-0.7c-0.2-0.2-0.4-0.3-0.7-0.3c-0.3-0.1-0.7-0.1-1.2-0.1
			c0,0-0.1,0-0.1,0c-0.1,0-0.1,0-0.1,0c0,0,0,0-0.1,0c0,0,0,0-0.1,0c-0.5,0-1-0.1-1.3-0.2c-0.4-0.1-0.7-0.3-0.9-0.6
			c-0.2-0.3-0.4-0.7-0.4-1.3c0-0.5,0.1-1,0.4-1.4c0.2-0.4,0.6-0.6,1.1-0.8c0.5-0.2,1-0.3,1.7-0.3c0.4,0,0.8,0,1.1,0.1
			c0.4,0.1,0.7,0.2,1,0.3c0.3,0.1,0.6,0.3,0.9,0.5l-0.8,1c-0.4-0.2-0.8-0.4-1.2-0.5c-0.4-0.1-0.8-0.2-1.1-0.2
			c-0.6,0-1.1,0.1-1.4,0.3s-0.5,0.5-0.5,0.9c0,0.3,0.1,0.5,0.3,0.6s0.4,0.2,0.7,0.3c0.3,0,0.6,0.1,1.1,0.1c0,0,0.1,0,0.1,0
			c0,0,0.1,0,0.1,0c0,0,0,0,0,0c0,0,0,0,0,0c0.6,0,1,0.1,1.4,0.2c0.4,0.1,0.7,0.3,1,0.7c0.3,0.3,0.4,0.8,0.4,1.4
			c0,0.5-0.1,1-0.4,1.4c-0.3,0.4-0.6,0.7-1.1,0.8c-0.5,0.2-1.1,0.3-1.9,0.3C93.7,52.3,93.3,52.2,92.9,52.1z"/>
	</g>
</g>
</svg>
