<?xml version="1.0" encoding="utf-8"?>
<!-- Generator: Adobe Illustrator 24.3.0, SVG Export Plug-In . SVG Version: 6.00 Build 0)  -->
<svg version="1.1" id="Layer_1" xmlns="http://www.w3.org/2000/svg" xmlns:xlink="http://www.w3.org/1999/xlink" x="0px" y="0px"
	 viewBox="0 0 164 68" style="enable-background:new 0 0 164 68;" xml:space="preserve">
<style type="text/css">
	.st0{fill:none;}
	.st1{fill:#1E1F1C;}
	.st2{fill:#020203;}
	.st3{fill:#080808;}
	.st4{fill:none;stroke:#020100;stroke-width:0.5;stroke-miterlimit:10;}
	.st5{fill:#1D1D1B;}
	.st6{fill:#020101;}
	.st7{fill:#FFFFFF;stroke:#000000;stroke-width:0.25;stroke-miterlimit:10;}
	.st8{fill:none;stroke:#000000;stroke-width:0.5;stroke-miterlimit:10;}
</style>
<g>
	<path d="M37.6,1.4c-1.3-0.2-4.8-0.4-8.3,1.7c-3.4,2.1-4.7,5.1-5.1,6.1c0,8.1,0,16.1-0.1,24.2l6.9-0.1c0-5.8,0.1-11.7,0.1-17.5
		l5.3,0.1c0,0,0,0,0,0h0.4c0.1,0,0.1,0,0.2,0c0,0,0.1,0,0.1,0c0.5-0.2,0.6-0.9,0.6-1.5v-0.8l0-11.8C37.8,1.6,37.7,1.5,37.6,1.4z
		 M29.7,21c-0.2,1.9-1.6,3-1.9,3.2c0,0,0-0.1-0.1-0.1c-0.4-0.4-1.4-1.5-1.6-3.1c-0.3-2.4,1.1-4.2,1.5-4.6c0.2,0.2,0.4,0.4,0.4,0.4
		C28.3,17,30,18.6,29.7,21z M32,10.7c-1.2,0-2.1-0.9-2.1-2.1c0-1.2,0.9-2.1,2.1-2.1c1.2,0,2.1,0.9,2.1,2.1
		C34.1,9.7,33.2,10.7,32,10.7z"/>
	<path d="M37.6,1.4c-1.3-0.2-4.8-0.4-8.3,1.7c-3.4,2.1-4.7,5.1-5.1,6.1c0,8.1,0,16.1-0.1,24.2l6.9-0.1c0-5.8,0.1-11.7,0.1-17.5
		l5.3,0.1c0,0,0,0,0,0h0.4c0.1,0,0.1,0,0.2,0c0,0,0.1,0,0.1,0c0.5-0.2,0.6-0.9,0.6-1.5v-0.8l0-11.8C37.8,1.6,37.7,1.5,37.6,1.4z
		 M29.7,21c-0.2,1.9-1.6,3-1.9,3.2c0,0,0-0.1-0.1-0.1c-0.4-0.4-1.4-1.5-1.6-3.1c-0.3-2.4,1.1-4.2,1.5-4.6c0.2,0.2,0.4,0.4,0.4,0.4
		C28.3,17,30,18.6,29.7,21z M32,10.7c-1.2,0-2.1-0.9-2.1-2.1c0-1.2,0.9-2.1,2.1-2.1c1.2,0,2.1,0.9,2.1,2.1
		C34.1,9.7,33.2,10.7,32,10.7z"/>
	<path d="M44.1,9.3c-1.7,0-3.3,0-5,0c0-2.5,0-5,0-7.4C39.4,2,39.5,2,39.5,2c0.9,0.4,2.6,1.1,4.2,2.8c1.7,1.7,2.3,3.6,2.6,4.5
		C45.6,9.4,44.9,9.4,44.1,9.3z"/>
	<path d="M38,24.9c-2.7,0.6-5,0.2-5.5,0.1c0-2.5,0-5,0.1-7.5c2.2,0,4.4,0.1,6.5,0.1c0-2.3,0-4.5-0.1-6.8c2.5,0,5.1,0,7.6,0
		c0.9,4.5-0.6,9.1-4,11.9C41.1,23.9,39.5,24.6,38,24.9z"/>
	<path d="M95.5,1.4c-1.3-0.2-4.8-0.4-8.3,1.7c-3.4,2.1-4.7,5.1-5.1,6.1c0,8.1,0,16.1-0.1,24.2l6.9-0.1c0-5.8,0.1-11.7,0.1-17.5
		l5.3,0.1c0,0,0,0,0,0h0.4c0.1,0,0.1,0,0.2,0c0,0,0.1,0,0.1,0c0.5-0.2,0.6-0.9,0.6-1.5v-0.8l0-11.8C95.6,1.6,95.6,1.5,95.5,1.4z
		 M87.6,21c-0.2,1.9-1.6,3-1.9,3.2c0,0,0-0.1-0.1-0.1c-0.4-0.4-1.4-1.5-1.6-3.1c-0.3-2.4,1.1-4.2,1.5-4.6c0.2,0.2,0.4,0.4,0.4,0.4
		C86.1,17,87.9,18.6,87.6,21z M89.9,10.7c-1.2,0-2.1-0.9-2.1-2.1c0-1.2,0.9-2.1,2.1-2.1C91,6.4,92,7.3,92,8.5
		C92,9.7,91,10.7,89.9,10.7z"/>
	<path d="M95.5,1.4c-1.3-0.2-4.8-0.4-8.3,1.7c-3.4,2.1-4.7,5.1-5.1,6.1c0,8.1,0,16.1-0.1,24.2l6.9-0.1c0-5.8,0.1-11.7,0.1-17.5
		l5.3,0.1c0,0,0,0,0,0h0.4c0.1,0,0.1,0,0.2,0c0,0,0.1,0,0.1,0c0.5-0.2,0.6-0.9,0.6-1.5v-0.8l0-11.8C95.6,1.6,95.6,1.5,95.5,1.4z
		 M87.6,21c-0.2,1.9-1.6,3-1.9,3.2c0,0,0-0.1-0.1-0.1c-0.4-0.4-1.4-1.5-1.6-3.1c-0.3-2.4,1.1-4.2,1.5-4.6c0.2,0.2,0.4,0.4,0.4,0.4
		C86.1,17,87.9,18.6,87.6,21z M89.9,10.7c-1.2,0-2.1-0.9-2.1-2.1c0-1.2,0.9-2.1,2.1-2.1C91,6.4,92,7.3,92,8.5
		C92,9.7,91,10.7,89.9,10.7z"/>
	<path d="M102,9.3c-1.7,0-3.3,0-5,0c0-2.5,0-5,0-7.4C97.2,2,97.4,2,97.4,2c0.9,0.4,2.6,1.1,4.2,2.8c1.7,1.7,2.3,3.6,2.6,4.5
		C103.5,9.4,102.7,9.4,102,9.3z"/>
	<path d="M95.8,24.9c-2.7,0.6-5,0.2-5.5,0.1c0-2.5,0-5,0.1-7.5c2.2,0,4.4,0.1,6.5,0.1c0-2.3,0-4.5-0.1-6.8c2.5,0,5.1,0,7.6,0
		c0.9,4.5-0.6,9.1-4,11.9C99,23.9,97.4,24.6,95.8,24.9z"/>
	<path d="M41,33.9c9.3,0,18.6,0.1,28,0.2c-0.3,0.9-1.7,5.5-5.8,9.4c-1.5,1.4-3.3,2.7-5.5,3.8c-8,3.8-15.5,1.8-16.8,1.4
		C40.9,43.9,41,38.6,41,33.9H23.7v32.9h116.5V33.9H41z M39.7,66.1H25.4V34h14.3V66.1z M70.9,37.8H70v-0.4h0.9V37.8z M77.1,44.8h-0.8
		v-0.3h0.8V44.8z M80.2,48.3h-0.8v-0.4h0.8V48.3z M83.4,51.9h-0.8v-0.4h0.8V51.9z M86.5,55.4h-0.8V55h0.8V55.4z M89.6,58.9h-0.8
		v-0.4h0.8V58.9z M92.8,62.4H92V62h0.8V62.4z M113.8,51.6l-1.6,0.3c-0.3,0.1-0.4,0.1-0.5,0.2c-0.1,0-0.1,0.1-0.1,0.2
		c-0.1,0.2-0.1,0.5-0.1,1c0,0.5,0,1.9,0,4.2v1.7c0,1.5,0,2.5-0.1,2.9c-0.1,0.7-0.4,1.3-0.8,1.9c-0.4,0.5-1,0.9-1.8,1.2
		c-0.7,0.3-1.6,0.4-2.5,0.4c-0.6,0-1.3-0.1-2.2-0.3c-0.2,0-0.3-0.1-0.5-0.1c-0.7-0.3-1.2-1-1.2-1.8c0-0.9,0.6-1.7,1.5-2
		c0,0,0.1,0,0.1,0c0.1,0,0.3,0,0.4,0c0.1,0,0.3,0,0.4,0c0.1,0,0.1,0,0.2,0.1c0.8,0.2,1.4,1,1.4,1.9c0,0.4-0.1,0.7-0.3,1
		c0.1,0.1,0.3,0.1,0.5,0.1c0.5,0,0.9-0.3,1-0.9c0.1-0.4,0.2-2.5,0.2-6.3c0-2.9,0-4.5,0-4.7c0-0.3-0.1-0.4-0.2-0.5
		c-0.2-0.1-0.9-0.3-2.2-0.5v-0.8c1.8,0.1,3.3,0.1,4.4,0.1c1.1,0,2.5,0,4.1-0.1V51.6z M128.8,37.4H128V37h0.8V37.4z M132,40.9h-0.9
		v-0.4h0.9V40.9z M135.2,44.4h-0.9V44h0.9V44.4z M138.3,47.9h-0.8v-0.4h0.8V47.9z"/>
	<path d="M32.3,47c0.9-0.9,2.7-3.1,2.7-6.3c0-3.6-2.3-5.8-2.7-6.2c0,0-0.1-0.1-0.2-0.1c-0.3,0.4-0.6,0.7-0.6,0.7
		c-0.4,0.5-2.4,3-2.2,6.6c0.2,3.2,2.1,5.1,2.6,5.7C32,47.3,32.1,47.2,32.3,47z"/>
	<g>
		<path d="M31.3,26.6v-0.4c0.8,0,1.7,0.1,2.7,0.1c1.1,0,2.3,0,3.5-0.1c0,0.7,0.1,1.2,0.1,1.7h-0.4c0-0.1-0.1-0.2-0.1-0.2
			c-0.2-0.5-0.3-0.7-0.4-0.8c-0.1-0.1-0.3-0.1-0.7-0.1h-2c0,0.5,0,1.3-0.1,2.3l0.9,0c0.5,0,0.8,0,0.9-0.1s0.2-0.4,0.3-0.9h0.4
			c0,0.5-0.1,0.9-0.1,1.2c0,0.3,0,0.8,0.1,1.3h-0.4c-0.1-0.5-0.2-0.8-0.3-0.9c-0.1-0.1-0.4-0.1-0.8-0.1h-1v2.7h2.1
			c0.2,0,0.4,0,0.5,0c0.1,0,0.2-0.1,0.3-0.2c0.2-0.2,0.5-0.6,0.7-1h0.5c-0.2,0.5-0.4,1.2-0.7,1.9c-1.2,0-2.4-0.1-3.7-0.1
			c-0.6,0-1.4,0-2.5,0.1v-0.4c0.6-0.1,0.9-0.2,1-0.2c0.1-0.1,0.2-0.3,0.2-0.6v-0.2l0-1.9v-1.5l0-0.7c0-0.3,0-0.6-0.1-0.6
			s-0.1-0.1-0.2-0.2S31.8,26.6,31.3,26.6z"/>
		<path d="M45.4,28.2h-0.5c-0.2-0.7-0.4-1.1-0.4-1.1c-0.1-0.1-0.1-0.2-0.2-0.2c-0.1,0-0.4-0.1-0.9-0.1h-0.5v4.5c0,0.6,0,0.9,0.1,1
			c0,0.1,0.1,0.1,0.2,0.1c0.1,0,0.4,0.1,0.9,0.2V33c-1.1,0-1.7-0.1-2-0.1c-0.4,0-1,0-1.9,0.1v-0.4c0.6-0.1,0.9-0.2,1-0.2
			c0.1,0,0.1-0.1,0.1-0.2c0-0.1,0-0.4,0-1v-4.4h-0.9c-0.3,0-0.5,0-0.6,0.1c-0.1,0-0.2,0.1-0.2,0.2c-0.1,0.2-0.2,0.5-0.4,1.1h-0.5
			c0.1-0.5,0.1-0.8,0.1-1s0-0.5,0-1c1.4,0,2.7,0,4,0c1.1,0,1.9,0,2.4,0C45.2,26.8,45.3,27.5,45.4,28.2z"/>
		<path d="M45.6,26.6v-0.4c1.2,0,1.9,0.1,2.1,0.1c0.2,0,0.6,0,1,0s0.7,0,0.9,0c0.5,0,0.9,0.1,1.2,0.2s0.5,0.3,0.7,0.6
			c0.2,0.3,0.3,0.6,0.3,0.9c0,0.3-0.1,0.5-0.2,0.8s-0.3,0.5-0.5,0.7c-0.1,0.1-0.4,0.2-0.6,0.4c0.2,0.4,0.6,0.9,1,1.6
			c0.3,0.5,0.5,0.8,0.7,0.9c0.1,0.1,0.2,0.2,0.3,0.2c0.2,0.1,0.5,0.2,1,0.2V33C52.9,33,52.4,33,52,33c-0.4,0-0.9,0-1.4,0.1
			c-0.4-0.9-1-1.9-1.6-3.1c-0.2,0-0.4,0-0.6,0l0,2c0,0.2,0,0.4,0.1,0.5s0.1,0.1,0.2,0.1c0,0,0.4,0.1,0.9,0.2V33
			c-0.8,0-1.5-0.1-1.9-0.1c-0.5,0-1.1,0-1.9,0.1v-0.4c0.6-0.1,0.9-0.2,1-0.2s0.1-0.2,0.1-0.3c0-0.1,0-0.9,0-2.5l0-1.4
			c0-0.7,0-1.1,0-1.2c0-0.1-0.1-0.2-0.1-0.2c-0.1,0-0.3-0.1-0.7-0.2L45.6,26.6z M48.3,29.4c0.2,0,0.3,0,0.4,0c0.5,0,0.8-0.1,1.1-0.3
			c0.2-0.2,0.3-0.5,0.3-1c0-0.4-0.1-0.7-0.3-0.9c-0.2-0.2-0.5-0.3-0.9-0.3c-0.2,0-0.4,0-0.6,0L48.3,29.4z"/>
		<path d="M53.8,29.7c0-1.1,0.4-2,1.1-2.6c0.7-0.7,1.7-1,2.9-1c1.2,0,2.1,0.3,2.7,0.9c0.7,0.6,1,1.4,1,2.4c0,0.6-0.1,1.2-0.4,1.8
			c-0.2,0.4-0.5,0.8-0.8,1.1s-0.7,0.5-1,0.6c-0.5,0.2-1.1,0.3-1.8,0.3c-1.2,0-2.1-0.3-2.8-0.9C54.1,31.7,53.8,30.8,53.8,29.7z
			 M55.6,29.5c0,1.2,0.2,2,0.7,2.6c0.3,0.4,0.8,0.6,1.5,0.6c0.4,0,0.8-0.1,1.1-0.3s0.5-0.5,0.7-1s0.2-1,0.2-1.6c0-0.5,0-0.9-0.1-1.3
			c-0.1-0.4-0.2-0.8-0.4-1c-0.2-0.2-0.4-0.4-0.6-0.6c-0.3-0.1-0.6-0.2-0.9-0.2c-0.4,0-0.8,0.1-1.1,0.3c-0.3,0.2-0.6,0.5-0.7,1
			C55.7,28.4,55.6,28.9,55.6,29.5z"/>
		<path d="M63.1,26.6v-0.4c0.8,0,1.5,0.1,2,0.1c0.5,0,1.1,0,1.9-0.1v0.4l-0.7,0.1c-0.1,0-0.2,0.1-0.2,0.1c0,0-0.1,0.1-0.1,0.1
			c0,0.1-0.1,0.2-0.1,0.5c0,0.2,0,0.9,0,1.9l0,0.8c0,0.7,0,1.2-0.1,1.4c-0.1,0.3-0.2,0.6-0.4,0.9c-0.2,0.2-0.5,0.4-0.8,0.6
			c-0.3,0.1-0.7,0.2-1.1,0.2c-0.3,0-0.8-0.1-1.2-0.2c0.1-0.4,0.1-1,0.2-1.8H63c0.1,0.6,0.2,1,0.3,1.2c0.1,0.1,0.3,0.2,0.5,0.2
			c0.2,0,0.4-0.1,0.5-0.4c0-0.2,0.1-1.2,0.1-2.9c0-1.4,0-2.1,0-2.2s-0.1-0.2-0.1-0.2C64,26.8,63.7,26.7,63.1,26.6z"/>
		<path d="M67.1,26.6v-0.4c0.8,0,1.7,0.1,2.7,0.1c1.1,0,2.3,0,3.5-0.1c0,0.7,0.1,1.2,0.1,1.7H73c0-0.1-0.1-0.2-0.1-0.2
			c-0.2-0.5-0.3-0.7-0.4-0.8c-0.1-0.1-0.3-0.1-0.7-0.1h-2c0,0.5,0,1.3-0.1,2.3l0.9,0c0.5,0,0.8,0,0.9-0.1s0.2-0.4,0.3-0.9h0.4
			c0,0.5-0.1,0.9-0.1,1.2c0,0.3,0,0.8,0.1,1.3H72c-0.1-0.5-0.2-0.8-0.3-0.9c-0.1-0.1-0.4-0.1-0.8-0.1h-1v2.7h2.1c0.2,0,0.4,0,0.5,0
			c0.1,0,0.2-0.1,0.3-0.2c0.2-0.2,0.5-0.6,0.7-1h0.5c-0.2,0.5-0.4,1.2-0.7,1.9c-1.2,0-2.4-0.1-3.7-0.1c-0.6,0-1.4,0-2.5,0.1v-0.4
			c0.6-0.1,0.9-0.2,1-0.2c0.1-0.1,0.2-0.3,0.2-0.6v-0.2l0-1.9v-1.5l0-0.7c0-0.3,0-0.6-0.1-0.6s-0.1-0.1-0.2-0.2S67.6,26.6,67.1,26.6
			z"/>
		<path d="M81.1,28.2h-0.5c-0.2-0.7-0.4-1.1-0.4-1.1c-0.1-0.1-0.1-0.2-0.2-0.2c-0.1,0-0.4-0.1-0.9-0.1h-0.5v4.5c0,0.6,0,0.9,0.1,1
			c0,0.1,0.1,0.1,0.2,0.1c0.1,0,0.4,0.1,0.9,0.2V33c-1.1,0-1.7-0.1-2-0.1c-0.4,0-1,0-1.9,0.1v-0.4c0.6-0.1,0.9-0.2,1-0.2
			c0.1,0,0.1-0.1,0.1-0.2c0-0.1,0-0.4,0-1v-4.4h-0.9c-0.3,0-0.5,0-0.6,0.1c-0.1,0-0.2,0.1-0.2,0.2c-0.1,0.2-0.2,0.5-0.4,1.1h-0.5
			c0.1-0.5,0.1-0.8,0.1-1s0-0.5,0-1c1.4,0,2.7,0,4,0c1.1,0,1.9,0,2.4,0C80.9,26.8,81,27.5,81.1,28.2z"/>
	</g>
	<g>
		<path d="M89.8,26.6v-0.4c0.8,0,1.7,0.1,2.7,0.1c1.1,0,2.3,0,3.5-0.1c0,0.7,0.1,1.2,0.1,1.7h-0.4c0-0.1-0.1-0.2-0.1-0.2
			c-0.2-0.5-0.3-0.7-0.4-0.8c-0.1-0.1-0.3-0.1-0.7-0.1h-2c0,0.5,0,1.3-0.1,2.3l0.9,0c0.5,0,0.8,0,0.9-0.1s0.2-0.4,0.3-0.9h0.4
			c0,0.5-0.1,0.9-0.1,1.2c0,0.3,0,0.8,0.1,1.3h-0.4c-0.1-0.5-0.2-0.8-0.3-0.9c-0.1-0.1-0.4-0.1-0.8-0.1h-1v2.7h2.1
			c0.2,0,0.4,0,0.5,0c0.1,0,0.2-0.1,0.3-0.2c0.2-0.2,0.5-0.6,0.7-1h0.5c-0.2,0.5-0.4,1.2-0.7,1.9c-1.2,0-2.4-0.1-3.7-0.1
			c-0.6,0-1.4,0-2.5,0.1v-0.4c0.6-0.1,0.9-0.2,1-0.2c0.1-0.1,0.2-0.3,0.2-0.6v-0.2l0-1.9v-1.5l0-0.7c0-0.3,0-0.6-0.1-0.6
			s-0.1-0.1-0.2-0.2S90.3,26.6,89.8,26.6z"/>
		<path d="M103.8,28.2h-0.5c-0.2-0.7-0.4-1.1-0.4-1.1c-0.1-0.1-0.1-0.2-0.2-0.2c-0.1,0-0.4-0.1-0.9-0.1h-0.5v4.5c0,0.6,0,0.9,0.1,1
			c0,0.1,0.1,0.1,0.2,0.1c0.1,0,0.4,0.1,0.9,0.2V33c-1.1,0-1.7-0.1-2-0.1c-0.4,0-1,0-1.9,0.1v-0.4c0.6-0.1,0.9-0.2,1-0.2
			c0.1,0,0.1-0.1,0.1-0.2c0-0.1,0-0.4,0-1v-4.4h-0.9c-0.3,0-0.5,0-0.6,0.1c-0.1,0-0.2,0.1-0.2,0.2c-0.1,0.2-0.2,0.5-0.4,1.1h-0.5
			c0.1-0.5,0.1-0.8,0.1-1s0-0.5,0-1c1.4,0,2.7,0,4,0c1.1,0,1.9,0,2.4,0C103.7,26.8,103.7,27.5,103.8,28.2z"/>
		<path d="M104.1,26.6v-0.4c1.2,0,1.9,0.1,2.1,0.1c0.2,0,0.6,0,1,0s0.7,0,0.9,0c0.5,0,0.9,0.1,1.2,0.2s0.5,0.3,0.7,0.6
			c0.2,0.3,0.3,0.6,0.3,0.9c0,0.3-0.1,0.5-0.2,0.8s-0.3,0.5-0.5,0.7c-0.1,0.1-0.4,0.2-0.6,0.4c0.2,0.4,0.6,0.9,1,1.6
			c0.3,0.5,0.5,0.8,0.7,0.9c0.1,0.1,0.2,0.2,0.3,0.2c0.2,0.1,0.5,0.2,1,0.2V33c-0.6,0-1.1-0.1-1.4-0.1c-0.4,0-0.9,0-1.4,0.1
			c-0.4-0.9-1-1.9-1.6-3.1c-0.2,0-0.4,0-0.6,0l0,2c0,0.2,0,0.4,0.1,0.5s0.1,0.1,0.2,0.1c0,0,0.4,0.1,0.9,0.2V33
			c-0.8,0-1.5-0.1-1.9-0.1c-0.5,0-1.1,0-1.9,0.1v-0.4c0.6-0.1,0.9-0.2,1-0.2s0.1-0.2,0.1-0.3c0-0.1,0-0.9,0-2.5l0-1.4
			c0-0.7,0-1.1,0-1.2c0-0.1-0.1-0.2-0.1-0.2c-0.1,0-0.3-0.1-0.7-0.2L104.1,26.6z M106.8,29.4c0.2,0,0.3,0,0.4,0
			c0.5,0,0.8-0.1,1.1-0.3c0.2-0.2,0.3-0.5,0.3-1c0-0.4-0.1-0.7-0.3-0.9c-0.2-0.2-0.5-0.3-0.9-0.3c-0.2,0-0.4,0-0.6,0L106.8,29.4z"/>
		<path d="M112.3,29.7c0-1.1,0.4-2,1.1-2.6c0.7-0.7,1.7-1,2.9-1c1.2,0,2.1,0.3,2.7,0.9c0.7,0.6,1,1.4,1,2.4c0,0.6-0.1,1.2-0.4,1.8
			c-0.2,0.4-0.5,0.8-0.8,1.1s-0.7,0.5-1,0.6c-0.5,0.2-1.1,0.3-1.8,0.3c-1.2,0-2.1-0.3-2.8-0.9C112.6,31.7,112.3,30.8,112.3,29.7z
			 M114.1,29.5c0,1.2,0.2,2,0.7,2.6c0.3,0.4,0.8,0.6,1.5,0.6c0.4,0,0.8-0.1,1.1-0.3s0.5-0.5,0.7-1s0.2-1,0.2-1.6
			c0-0.5,0-0.9-0.1-1.3c-0.1-0.4-0.2-0.8-0.4-1c-0.2-0.2-0.4-0.4-0.6-0.6c-0.3-0.1-0.6-0.2-0.9-0.2c-0.4,0-0.8,0.1-1.1,0.3
			c-0.3,0.2-0.6,0.5-0.7,1C114.1,28.4,114.1,28.9,114.1,29.5z"/>
		<path d="M121.6,26.6v-0.4c0.8,0,1.5,0.1,2,0.1c0.5,0,1.1,0,1.9-0.1v0.4l-0.7,0.1c-0.1,0-0.2,0.1-0.2,0.1c0,0-0.1,0.1-0.1,0.1
			c0,0.1-0.1,0.2-0.1,0.5c0,0.2,0,0.9,0,1.9l0,0.8c0,0.7,0,1.2-0.1,1.4c-0.1,0.3-0.2,0.6-0.4,0.9c-0.2,0.2-0.5,0.4-0.8,0.6
			c-0.3,0.1-0.7,0.2-1.1,0.2c-0.3,0-0.8-0.1-1.2-0.2c0.1-0.4,0.1-1,0.2-1.8h0.5c0.1,0.6,0.2,1,0.3,1.2c0.1,0.1,0.3,0.2,0.5,0.2
			c0.2,0,0.4-0.1,0.5-0.4c0-0.2,0.1-1.2,0.1-2.9c0-1.4,0-2.1,0-2.2s-0.1-0.2-0.1-0.2C122.5,26.8,122.2,26.7,121.6,26.6z"/>
		<path d="M125.6,26.6v-0.4c0.8,0,1.7,0.1,2.7,0.1c1.1,0,2.3,0,3.5-0.1c0,0.7,0.1,1.2,0.1,1.7h-0.4c0-0.1-0.1-0.2-0.1-0.2
			c-0.2-0.5-0.3-0.7-0.4-0.8c-0.1-0.1-0.3-0.1-0.7-0.1h-2c0,0.5,0,1.3-0.1,2.3l0.9,0c0.5,0,0.8,0,0.9-0.1s0.2-0.4,0.3-0.9h0.4
			c0,0.5-0.1,0.9-0.1,1.2c0,0.3,0,0.8,0.1,1.3h-0.4c-0.1-0.5-0.2-0.8-0.3-0.9c-0.1-0.1-0.4-0.1-0.8-0.1h-1v2.7h2.1
			c0.2,0,0.4,0,0.5,0c0.1,0,0.2-0.1,0.3-0.2c0.2-0.2,0.5-0.6,0.7-1h0.5c-0.2,0.5-0.4,1.2-0.7,1.9c-1.2,0-2.4-0.1-3.7-0.1
			c-0.6,0-1.4,0-2.5,0.1v-0.4c0.6-0.1,0.9-0.2,1-0.2c0.1-0.1,0.2-0.3,0.2-0.6v-0.2l0-1.9v-1.5l0-0.7c0-0.3,0-0.6-0.1-0.6
			s-0.1-0.1-0.2-0.2S126,26.6,125.6,26.6z"/>
		<path d="M139.6,28.2h-0.5c-0.2-0.7-0.4-1.1-0.4-1.1c-0.1-0.1-0.1-0.2-0.2-0.2c-0.1,0-0.4-0.1-0.9-0.1H137v4.5c0,0.6,0,0.9,0.1,1
			c0,0.1,0.1,0.1,0.2,0.1c0.1,0,0.4,0.1,0.9,0.2V33c-1.1,0-1.7-0.1-2-0.1c-0.4,0-1,0-1.9,0.1v-0.4c0.6-0.1,0.9-0.2,1-0.2
			c0.1,0,0.1-0.1,0.1-0.2c0-0.1,0-0.4,0-1v-4.4h-0.9c-0.3,0-0.5,0-0.6,0.1c-0.1,0-0.2,0.1-0.2,0.2c-0.1,0.2-0.2,0.5-0.4,1.1h-0.5
			c0.1-0.5,0.1-0.8,0.1-1s0-0.5,0-1c1.4,0,2.7,0,4,0c1.1,0,1.9,0,2.4,0C139.4,26.8,139.5,27.5,139.6,28.2z"/>
	</g>
</g>
</svg>
