<?xml version="1.0" encoding="utf-8"?>
<!-- Generator: Adobe Illustrator 24.3.0, SVG Export Plug-In . SVG Version: 6.00 Build 0)  -->
<svg version="1.1" id="Layer_1" xmlns="http://www.w3.org/2000/svg" xmlns:xlink="http://www.w3.org/1999/xlink" x="0px" y="0px"
	 viewBox="0 0 164 68" style="enable-background:new 0 0 164 68;" xml:space="preserve">
<style type="text/css">
	.st0{fill:none;}
	.st1{fill:#1E1F1C;}
	.st2{fill:#020203;}
	.st3{fill:#040404;}
	.st4{fill:#0C0809;}
	.st5{fill:#211E1F;}
	.st6{fill:#FCFEFF;}
	.st7{fill:#000102;}
	.st8{fill:none;stroke:#F9F9F9;stroke-width:0.25;stroke-miterlimit:10;}
	.st9{fill:#262626;}
	.st10{fill:#000002;}
</style>
<g>
	<path d="M88,34c0.6-0.4,0.9-0.7,1.3-0.9c1.9-1.1,3.8-0.5,4.8,1.4c0.7,1.5,0.9,3-0.2,4.4c-0.6,0.8-1.4,1.1-2.3,1.2
		c-1.9,0.3-3.6,0-5.1-1.3c-1-0.8-1.1-1.8-0.9-3c0.2-1.1,1-1.6,2-1.7c0.1,0,0.1-0.1,0.2-0.1c-0.5-1.2-1-2.3-1.4-3.5
		c-0.4-1.2-0.6-2.4-0.3-3.8c-2.4,2.4-4.1,5-4.3,8.4c0.4-0.1,0.7-0.2,1-0.3c0.2-0.1,0.4-0.2,0.7-0.2c1.1-0.2,1.9,0.5,1.7,1.7
		c-0.3,1.9,0.3,3,2.1,3.7c0.6,0.2,0.6,0.5,0.2,1c-0.8,0.9-1.8,1.1-2.9,1.2c-0.6,0.1-1.3,0.1-1.9,0c-1.9-0.2-3.3-1.2-4.1-2.8
		c-0.5-0.9-0.4-2,0.1-3c0.4-0.8,1.1-1.1,1.9-1.2c0.3,0,0.5,0,0.8,0c0.3-3.7,1.5-7,4.5-9.4c-0.2,0-0.3,0-0.3,0
		c-0.8,0.4-1.5,0.7-2.2,1.1c-0.6,0.4-0.9,1-0.9,1.7c-0.2,2.8-2,4.8-4.7,5.2c-0.7-1.7,0.2-4.2,1.9-5.1c0.7-0.4,1.4-0.5,2.1-0.8
		c0.2-0.1,0.4-0.2,0.5-0.3c0.8-2,2.2-2.8,4.6-2.6c2.9,0.2,5.6,1.2,7.9,3.1c2.1,1.8,3.3,4.1,3.4,6.9c0,2.7-1.1,5-3,6.8
		c-2.3,2.1-5,3.2-8.1,3.5c-3.5,0.3-6.8-0.5-9.6-2.7c-2.6-2.1-4.1-4.7-3.8-8.2c0.2-2.3,1.2-4.2,2.9-5.8c1.9-1.8,4.1-2.9,6.7-3.3
		c-0.8,0.9-1.7,1.8-2.8,2.4c-1.9,1-3.5,2.3-4.5,4.3c-1.6,3.2-0.8,7,2,9.4c2.5,2.2,5.5,3.1,8.8,2.8c2.2-0.2,4.3-0.9,6.1-2.2
		c5.2-3.8,4.8-10.7-0.9-14c-1.3-0.8-2.7-1.2-4.2-1.5c-0.4-0.1-0.6,0.2-0.8,0.5c-0.6,0.8-0.6,1.8-0.4,2.7C87.1,31,87.6,32.5,88,34z
		 M88.3,38.9c0.1,0,0.3,0,0.4-0.1c0.4-0.1,0.7-0.3,0.7-0.8c0-0.4-0.2-0.7-0.6-0.8c-0.1,0-0.1,0-0.2-0.1c-0.5-0.2-1-0.4-0.7-1.1
		c0-0.1-0.1-0.3-0.2-0.4c-0.1-0.1-0.3,0-0.4,0.1c-0.5,0.3-0.7,1.3-0.5,1.9C86.9,38.2,87.8,38.9,88.3,38.9z M81.5,40.4
		c0.1,0,0.2,0,0.2,0c0.4-0.1,0.8-0.2,0.8-0.7c0-0.5-0.3-0.7-0.7-0.9c-0.1,0-0.3-0.1-0.4-0.1c-0.4-0.2-0.7-0.4-0.5-0.9
		c0-0.1-0.1-0.3-0.2-0.4c-0.1-0.1-0.4,0-0.5,0c-0.5,0.3-0.7,1.3-0.6,1.8C80,39.8,80.8,40.4,81.5,40.4z"/>
	<g>
		<path class="st10" d="M151.7,31.2c-0.7-0.2-1.9-0.6-2.5,0.5c-0.3,0.5-0.5,1.1-0.8,1.9c-0.8-1.1-0.6-2.5-2.4-2.6
			c-2-0.1-1.8,1.6-2.6,2.5c-0.2-0.3-0.3-0.6-0.4-0.8c-0.4-1-0.9-1.8-2.2-1.7c-1.5,0.1-1.3,1.3-1.6,2.1c-0.4,1.2-0.4,2.6-1.3,3.7
			c-2.1,0-4.2,0-6.3,0c-0.6-0.5-0.8-1.3-1.2-1.9c-0.9-1.3-0.3-4-2.9-3.8c-2.4,0.1-1.9,2.5-2.5,4c-0.5,1.2-1,1.8-2.3,1.8
			c-3.8-0.1-7.7,0.1-11.5-0.3c0-1.2-0.1-2.5-0.1-3.7l0,0v0c-0.1-0.2-0.2-0.3-0.3-0.5c-1.8-1.9-3.6-1.1-5.4,0c-2.9,1.5-3.1,4-0.7,6
			c1,0.8,1.5,0.1,2.3-0.2c0.5-0.2,0.5-0.5,0.2-0.8c-1.9-1.8-0.7-2.7,1-3.5c0,0.9,0.2,1.8,0.1,2.8c-0.1,1.6,0.3,2.5,2.3,2.4
			c4.7-0.2,9.5-0.1,14.2-0.1c1.3,0,2.3-0.3,2.6-1.7c0,0,0,0,0,0c0,0,0,0,0,0c1.9,2.2,4.5,2.2,7,1.9c2.5-0.3,5.5,1,7.2-2.2
			c0.5,1.2,0.7,2.2,2.2,2.1c1.4,0,1.8-1.2,2.4-2c0.3,0.6,0.5,1,0.8,1.4c1.1,0.8,2.1,1.2,2.9-0.3c1-1.6,1.3-3.4,1.9-5.2
			C151.9,32.2,152.7,31.4,151.7,31.2z"/>
		<path class="st10" d="M160.4,34c0,1.6-0.2,3.1-0.1,4.7c0.1,1.5-0.8,2.3-2.1,2.7c-1.4,0.4-2.5,0.2-3-1.4c0.7-0.4,1.7,0,2.2-0.9
			c0.1-0.1,0.4-3.4,0.5-4.9c-0.1-0.2-0.3-0.2-0.5-0.2c-2.2,0.1-2.3,1.2-1.2,2.7c0.6,0.7,0.5,1-0.2,1.5c-0.7,0.6-1.2,0.4-1.7-0.2
			c-1-1.2-2.2-2.4-1.5-4.1c0.8-1.8,2.5-2.5,4.3-2.7C160.2,30.7,160.4,30.9,160.4,34z"/>
		<path class="st10" d="M150.8,30.3c0.7,0,1.3-0.2,1.2-1c-0.1-0.7-0.6-1-1.3-1c-0.6,0-1,0.4-1.1,1C149.5,30,150,30.3,150.8,30.3z"/>
		<path class="st10" d="M145.7,30.2c0.7,0.1,1.3,0,1.4-0.8c0-0.6-0.3-1-0.9-1.1c-0.7-0.1-1.3,0.2-1.4,0.9
			C144.7,29.8,145.1,30.2,145.7,30.2z"/>
		<path class="st10" d="M119.1,30.2c0.6,0,1-0.3,1-1c-0.1-0.8-0.6-1-1.3-1c-0.6,0.1-1,0.4-1,1C117.9,30.1,118.5,30.3,119.1,30.2z"/>
		<path class="st10" d="M141.2,30.2c0.6-0.1,1-0.3,1.1-0.9c-0.2-0.7-0.6-1-1.4-1c-0.6,0.1-1,0.4-1,1
			C139.9,30.1,140.5,30.3,141.2,30.2z"/>
	</g>
	<path d="M57.7,38.7v-9h1.9v3.5h3.7v-3.5h1.9v9h-1.9v-3.9h-3.7v3.9H57.7z"/>
	<path d="M32.9,38.7v-9h1.9v3.5h3.7v-3.5h1.9v9h-1.9v-3.9h-3.7v3.9H32.9z"/>
	<path d="M43.9,38.6c-0.8,0-1.6,0-2.4,0c0-3,0-5.9-0.1-8.9c0.7,0,1.5,0,2.2-0.1c0.9,1,1.8,2.1,2.6,3.1c-0.1-1,0.1-2.1,0-3.1
		c0.8,0,1.5,0,2.3,0c0,3-0.2,6-0.1,9c-0.8,0-1.5,0-2.3,0c0-1.2-0.1-2.5-0.1-3.7c-0.6-0.6-1.6-1.7-2.2-2.3
		C43.9,34.3,43.9,38.6,43.9,38.6z"/>
	<path d="M54.4,29.6c-2.5,0-4.5,2-4.5,4.4c0,1.8-0.1,3.7-0.1,4.8c0.8,0,1.6,0,2.3,0c0-1,0.1-2,0.1-3.1c0.5,0,1,0,1.5,0c0,1,0,2,0,3
		c0.8,0,1.5,0,2.3,0c0-3.1,0.1-6.1,0.1-9.2H54.4z M53.8,34.1h-1.6v-1.4h1.6V34.1z"/>
	<path d="M23.8,29.6c-2.5,0-4.5,2-4.5,4.4c0,1.8-0.1,3.7-0.1,4.8c0.8,0,1.6,0,2.3,0c0-1,0.1-2,0.1-3.1c0.5,0,1,0,1.5,0c0,1,0,2,0,3
		c0.8,0,1.5,0,2.3,0c0-3.1,0.1-6.1,0.1-9.2H23.8z M23.2,34.1h-1.6v-1.4h1.6V34.1z"/>
	<g>
		<path d="M29.3,38.9c-0.2,0-0.5,0-0.8-0.1c-0.3,0-0.6-0.1-1-0.1c-0.3-0.1-0.6-0.1-0.8-0.2l0.1-1.2c0.2,0,0.5,0.1,0.8,0.1
			c0.3,0,0.6,0.1,0.9,0.1c0.3,0,0.5,0,0.7,0c0.4,0,0.7,0,1-0.1c0.3-0.1,0.5-0.2,0.6-0.5c0.1-0.2,0.2-0.5,0.2-0.9
			c0-0.3-0.1-0.5-0.2-0.7c-0.1-0.2-0.3-0.3-0.6-0.4c-0.3-0.1-0.7-0.2-1.2-0.3c-0.6-0.1-1-0.2-1.4-0.4c-0.4-0.2-0.6-0.4-0.8-0.7
			c-0.2-0.3-0.3-0.8-0.3-1.4c0-0.7,0.1-1.2,0.4-1.6c0.3-0.4,0.6-0.7,1-0.8c0.4-0.2,0.8-0.2,1.3-0.2c0.3,0,0.6,0,0.9,0.1
			c0.3,0,0.7,0.1,1,0.1c0.3,0.1,0.6,0.1,0.8,0.2l0,1.2c-0.2,0-0.5-0.1-0.8-0.1c-0.3,0-0.6-0.1-1-0.1c-0.3,0-0.6,0-0.8,0
			c-0.3,0-0.6,0-0.8,0.1c-0.2,0.1-0.4,0.2-0.6,0.4s-0.2,0.5-0.2,0.8c0,0.3,0,0.5,0.1,0.6c0.1,0.2,0.3,0.3,0.6,0.4
			c0.3,0.1,0.7,0.2,1.2,0.3c0.6,0.1,1.1,0.3,1.5,0.5c0.4,0.2,0.6,0.4,0.8,0.8c0.2,0.3,0.3,0.8,0.3,1.4c0,0.7-0.1,1.3-0.3,1.7
			c-0.2,0.4-0.6,0.7-1,0.9C30.4,38.8,29.9,38.9,29.3,38.9z"/>
	</g>
	<path d="M8.7,35.8c-0.6-2-1.2-4-1.8-6c1,0,2,0,3,0c0.5,1.1,1,2.3,1.4,3.4c0.2-1.1,0.3-2.3,0.5-3.4c0.9,0,1.8-0.1,2.7-0.1
		c0.1,1.2,0.3,2.5,0.4,3.7c0.5-1.2,0.9-2.5,1.4-3.7c0.9,0,1.7,0.1,2.6,0.1c-0.6,3-1.2,6-1.7,9c-0.8,0-1.6,0-2.5,0
		c-0.4-1-0.8-1.9-1.2-2.9c-0.4,1-0.8,1.9-1.2,2.9c-0.9,0-1.7,0-2.6,0C9.2,37.8,9,36.8,8.7,35.8z"/>
</g>
</svg>
