<?xml version="1.0" encoding="utf-8"?>
<!-- Generator: Adobe Illustrator 24.3.0, SVG Export Plug-In . SVG Version: 6.00 Build 0)  -->
<svg version="1.1" id="Layer_1" xmlns="http://www.w3.org/2000/svg" xmlns:xlink="http://www.w3.org/1999/xlink" x="0px" y="0px"
	 viewBox="0 0 164 68" style="enable-background:new 0 0 164 68;" xml:space="preserve">
<style type="text/css">
	.st0{fill:none;}
	.st1{fill:#1E1F1C;}
	.st2{fill:#020203;}
	.st3{fill:#040404;}
	.st4{fill:#0C0809;}
	.st5{fill:#211E1F;}
	.st6{fill:#FCFEFF;}
	.st7{fill:#000102;}
	.st8{fill:none;stroke:#F9F9F9;stroke-width:0.25;stroke-miterlimit:10;}
	.st9{fill:#262626;}
	.st10{fill:#000002;}
</style>
<g>
	<g>
		<path d="M87.5,49l0.5-2.2h8.4l-1.6,7.9c-2.4,1.5-4.9,2.3-7.6,2.3c-2.8,0-4.9-0.8-6.2-2.6c-1.2-1.4-1.7-3.3-1.7-5.5
			c0-2.1,0.4-4.1,1.3-6c1-2,2.3-3.6,4-4.6c1.5-0.9,3.3-1.4,5.1-1.4c2.8,0,4.9,0.9,6.1,2.7c0.6,0.8,1,1.9,1.2,3.3l-2.5,0.3
			c-0.6-2.7-2.2-4.1-5-4.1c-1.5,0-2.9,0.4-4,1.3c-1.1,0.8-2,1.9-2.7,3.3c-0.7,1.5-1.1,3.3-1.1,5.2c0,1.8,0.4,3.3,1.3,4.3
			c0.9,1.1,2.3,1.6,4.1,1.6c1.7,0,3.5-0.6,5.4-1.7l0.9-4.2H87.5z"/>
		<path d="M98.7,56.6l2.9-14h2.1l-0.6,2.9c1.4-2.1,2.8-3.2,4.2-3.2c0.5,0,1,0.2,1.7,0.5l-1,2.2c-0.4-0.3-0.9-0.4-1.3-0.4
			c-2.2,0-3.7,2.1-4.6,6.4l-1.2,5.6H98.7z"/>
		<path d="M108.5,51.3c0-2.7,0.8-5,2.4-6.8c1.3-1.5,3-2.2,5.2-2.2c1.7,0,3.1,0.5,4.1,1.6c1,1.1,1.5,2.5,1.5,4.2c0,1.6-0.3,3-0.9,4.3
			c-0.7,1.5-1.6,2.6-2.8,3.3c-1.2,0.7-2.5,1.1-3.8,1.1c-2.3,0-4-0.9-5-2.7C108.7,53.4,108.5,52.4,108.5,51.3z M110.8,51.1
			c0,1.2,0.3,2.1,0.8,2.8c0.6,0.8,1.4,1.2,2.5,1.2c1.1,0,2-0.4,2.9-1.3c0.8-0.8,1.4-1.9,1.8-3.2c0.3-0.9,0.4-1.7,0.4-2.5
			c0-1.1-0.3-2.1-0.8-2.8c-0.6-0.8-1.4-1.2-2.5-1.2c-1.4,0-2.7,0.7-3.7,2.1C111.3,47.5,110.8,49.2,110.8,51.1z"/>
		<path d="M132.8,54.1c-1.7,1.9-3.4,2.9-5.1,2.9c-1,0-1.8-0.3-2.5-0.8c-0.7-0.6-1.1-1.4-1.1-2.4c0-0.6,0.1-1.6,0.4-3l1.7-8.1h2.4
			l-1.9,9c-0.2,0.8-0.2,1.3-0.2,1.7c0,1.1,0.6,1.7,1.9,1.7c1.4,0,2.6-0.6,3.6-1.8c0.4-0.5,0.8-1.2,1.1-2c0.2-0.5,0.4-1.4,0.7-2.5
			l1.3-6.1h2.4l-2.9,14h-2.2L132.8,54.1z"/>
		<path d="M137.5,62l4-19.4h2.2l-0.4,2c1.4-1.5,2.8-2.3,4.2-2.3c1.5,0,2.7,0.6,3.5,1.7c0.7,1,1.1,2.3,1.1,3.9c0,2.9-0.8,5.2-2.5,6.9
			c-1.4,1.4-2.8,2.1-4.3,2.1c-1.7,0-3-0.9-3.9-2.6l-1.6,7.6H137.5z M142.2,50.9c0,1.1,0.1,1.8,0.2,2.2c0.5,1.3,1.4,1.9,2.8,1.9
			c1.4,0,2.6-0.9,3.4-2.6c0.7-1.4,1.1-2.9,1.1-4.5c0-1-0.2-1.9-0.7-2.6c-0.5-0.8-1.3-1.2-2.2-1.2c-1.2,0-2.2,0.6-3.1,1.9
			c-0.4,0.6-0.8,1.4-1.1,2.3C142.3,49.3,142.2,50.1,142.2,50.9z"/>
	</g>
	<g>
		<path d="M12.3,29.2L28.8,8.6h-10L20,4.8h17.2L36.2,8l-16,20.2H31l-2,3.8H11.3L12.3,29.2z"/>
		<path d="M52.5,26.7c-0.5,1.7-1.5,4.5-1.6,5.2h-6.1c0.1-0.4,0.2-1.1,0.4-1.7c-1.5,1.4-3.1,2-5.7,2c-5,0-5.8-3.1-4.7-6.4
			c1.6-4.9,5.3-6.2,12.8-6.9c0.4,0,0.8-0.1,1.2-0.1l0.9-2.5c0.5-1.5,0.3-2.5-1.6-2.5c-1.9,0-2.4,1.1-2.9,2.5L44.9,17h-6.2l0.1-0.3
			c0.9-2.6,2-6,9.7-6c6.4,0,8.5,2.2,7.4,5.6L52.5,26.7z M47.9,22c-0.3,0-0.6,0.1-1,0.1c-3.3,0.5-5,1.2-5.8,3.5c-0.5,1.4-0.6,3,1.7,3
			c2.4,0,3.4-1.4,4.3-4.3L47.9,22z"/>
		<path d="M61.9,17c1.4-4.2,1.6-5.1,1.9-6.1h6.1c-0.1,0.4-0.2,1-0.4,1.6c1.5-1.3,3.5-1.9,5.7-1.9c2.6,0,4,0.9,4.4,2
			c1.5-1.2,3.5-2,6.5-2c3.8,0,6.2,1.6,5.1,5.3l-5.2,16h-6.3l5.1-15.6c0.5-1.5,0.2-2.3-1.6-2.3c-2.1,0-3,1.2-3.7,3.2l-4.8,14.7h-6.4
			l5-15.5c0.7-2-0.1-2.4-1.5-2.4c-2.2,0-3.1,1.2-3.7,3.2l-4.8,14.7h-6.3L61.9,17z"/>
		<path d="M99.2,10.9h6.3l-6.8,21h-6.3L99.2,10.9z M102.7,2.6h1.8c1.8,0,3,2.1,2.4,4.2v0c-0.3,1.3-1.3,2.2-2.4,2.2h-1.8
			c-1.8,0-3-2.1-2.4-4.2v0C100.6,3.5,101.6,2.6,102.7,2.6z"/>
		<path d="M105,31.9l9.2-28.3h6.3l-9.2,28.3H105z"/>
	</g>
	<polygon points="122.3,32.2 128.4,2.6 149.2,2.6 	"/>
</g>
</svg>
