<svg width="109" height="45" viewBox="0 0 109 45" fill="none" xmlns="http://www.w3.org/2000/svg">
<path d="M48.8998 30.0309L47.5762 32.9956H43.7446L50.6071 18.6948H55.4645L56.8476 32.9956H53.1285L52.8902 30.0309H48.8998ZM52.8704 27.0728C52.6983 24.8956 52.5792 22.8507 52.5395 21.5272H52.4865C51.891 23.0956 51.0505 25.0081 50.1307 27.0728H52.8704Z" fill="#CCCCCC"/>
<path d="M60.8033 18.6948H70.3525L69.7636 21.6529H63.8474L63.2915 24.611H68.8239L68.2217 27.5559H62.6893L61.6305 32.9956H57.9775L60.8033 18.6948Z" fill="#CCCCCC"/>
<path d="M76.2581 18.6948L73.4589 32.9956H69.7397L72.5655 18.6948H76.2581Z" fill="#CCCCCC"/>
<path d="M88.586 28.2304C87.6529 31.6848 85.3367 33.2665 82.0544 33.2665C78.5007 33.2665 76.7603 30.99 76.7603 27.4032C76.7603 23.6113 78.7455 18.4297 84.2051 18.4297C87.6463 18.4297 89.4992 20.415 89.4595 23.4392H85.6941C85.6941 22.3804 85.3963 21.315 83.9139 21.315C81.6838 21.315 80.658 25.1598 80.658 27.6017C80.658 29.1569 81.0948 30.3481 82.4713 30.3481C83.8478 30.3481 84.397 29.4084 84.8404 28.2304H88.586Z" fill="#CCCCCC"/>
<path d="M103.799 24.4848C103.799 28.7665 101.609 33.2665 96.1558 33.2665C92.258 33.2665 90.5903 30.6194 90.5903 27.4165C90.5903 23.1216 93.0322 18.4297 98.1146 18.4297C102.052 18.4297 103.799 21.176 103.799 24.4848ZM94.4219 27.4892C94.4219 29.1966 95.0837 30.3679 96.5661 30.3679C99.1205 30.3679 100.034 26.5826 100.034 24.24C100.034 22.6451 99.5308 21.3282 97.9359 21.3282C95.5337 21.3282 94.4219 25.0275 94.4219 27.4892Z" fill="#CCCCCC"/>
<path d="M25.7035 31.5926C24.217 30.8497 22.9199 29.7768 21.9116 28.4558L41.1028 18.397C41.7786 20.4605 41.8269 22.6782 41.2416 24.7692C40.6564 26.8602 39.4638 28.7305 37.815 30.1434C36.1662 31.5563 34.1352 32.4481 31.9792 32.7061C29.8232 32.9641 27.6392 32.5765 25.7035 31.5926Z" fill="#CCCCCC"/>
<path d="M38.184 20.5149C38.224 22.1719 37.8892 23.8165 37.2046 25.3259L19.3369 13.0899C20.8462 11.5378 22.7807 10.4666 24.8972 10.011C27.0136 9.5554 29.2176 9.7357 31.2318 10.5292C33.2461 11.3228 34.9808 12.6941 36.2178 14.4709C37.4548 16.2476 38.1388 18.3504 38.184 20.5149Z" fill="#CCCCCC"/>
<path d="M21.2395 15.353C22.5713 14.3616 24.1094 13.683 25.7395 13.3677C25.8277 20.5941 25.9115 27.8206 25.9909 35.0471C23.8528 34.7039 21.864 33.7362 20.2745 32.2655C18.6851 30.7949 17.566 28.887 17.0582 26.782C16.5503 24.677 16.6763 22.4687 17.4203 20.4351C18.1643 18.4015 19.4931 16.6333 21.2395 15.353Z" fill="#CCCCCC"/>
</svg>
