<svg width="109" height="45" viewBox="0 0 109 45" fill="none" xmlns="http://www.w3.org/2000/svg">
<path d="M85.1321 21.9713C85.1718 20.6478 84.5696 20.5022 83.4976 20.5353C82.4255 20.5683 81.8696 20.4823 81.6777 21.9779C81.6097 23.0591 81.4638 24.1339 81.241 25.1941C80.5792 24.0492 80.2417 23.0764 79.6792 22.1433C78.5674 20.3169 77.7535 20.5948 75.2189 20.5948C75.1395 24.0823 75.0468 27.8742 75.2189 31.3353C75.5299 31.6198 76.3108 31.5536 76.6748 31.5669C78.8983 31.6463 78.6601 31.5669 78.7196 29.3235C78.7196 28.5228 78.7196 28 78.7858 26.6235C79.2557 26.6235 79.5601 27.0933 79.6858 27.325C80.2814 28.4367 80.8571 29.5617 81.4461 30.6801C82.1807 32.0831 83.074 31.6926 84.1461 31.6926C85.3968 31.6926 85.099 31.0838 85.0659 29.7073C85.0262 27.1397 85.0483 24.561 85.1321 21.9713Z" fill="#CCCCCC"/>
<path d="M92.3896 25.3325C91.9859 25.3325 91.4896 25.2531 91.3837 25.8288C91.3043 26.2987 91.5359 26.5501 91.9661 26.8016C92.9918 27.4104 92.8529 27.6751 92.6279 28.8597L89.8418 28.7472C89.8418 27.5825 89.8021 26.4244 89.8087 25.2597C89.8087 23.4067 89.9279 23.4134 91.7212 23.4531C91.9727 23.4531 93.0448 23.6384 93.283 23.6648C94.3087 23.7906 94.9109 24.1744 95.9301 23.5192C96.5124 23.142 96.2874 22.1957 96.0426 21.567C95.9011 21.2489 95.6617 20.9843 95.3594 20.8117C95.0571 20.6391 94.7075 20.5676 94.3617 20.6075C92.3036 20.6075 90.2455 20.5744 88.1874 20.6075C87.9215 20.5763 87.6519 20.6067 87.3996 20.6963C87.1473 20.7859 86.9189 20.9322 86.7322 21.1241C86.5454 21.316 86.4053 21.5482 86.3225 21.8029C86.2398 22.0575 86.2167 22.3278 86.2551 22.5928C86.2551 24.9156 86.2551 27.2251 86.2551 29.5612C86.2551 30.9442 86.9168 31.6126 88.2867 31.6126C90.2389 31.6126 92.1977 31.6126 94.1499 31.6126C95.0102 31.6126 95.8771 31.4869 96.0823 30.3884C96.2411 28.8134 96.1352 27.0795 96.1352 25.4781C94.8906 25.357 93.6399 25.3084 92.3896 25.3325Z" fill="#CCCCCC"/>
<path d="M42.5524 21.3418C42.2282 20.2896 41.7914 20.5146 40.9774 20.5146C39.6539 20.5146 39.3032 20.3029 38.9921 21.2095C37.9929 24.3727 36.9274 27.5161 35.8951 30.6661C35.6899 31.2815 35.8951 31.4999 36.5568 31.5926C38.4561 31.8771 38.9061 31.5926 39.5215 29.6867C39.8657 28.5882 40.3686 27.0793 40.7392 25.8088C41.2289 27.2183 41.5664 28.661 41.8973 29.7793C42.4465 31.5463 43.2671 31.7646 44.7296 31.6058C45.5039 31.533 45.7951 31.2948 45.5436 30.5338C44.5377 27.4499 43.4987 24.4058 42.5524 21.3418Z" fill="#CCCCCC"/>
<path d="M71.2514 21.3414C70.9271 20.2892 70.4904 20.501 69.6764 20.501C68.3529 20.501 68.0087 20.2892 67.6911 21.1958C66.6985 24.359 65.6264 27.5024 64.594 30.6524C64.3889 31.2679 64.594 31.4863 65.2558 31.5789C67.1551 31.8635 67.6051 31.5789 68.2205 29.673C68.5646 28.5877 69.0477 27.0789 69.4382 25.8083C69.9279 27.2179 70.2654 28.6605 70.6029 29.7789C71.1455 31.5458 71.9661 31.7642 73.4286 31.6054C74.2095 31.5326 74.494 31.2943 74.2426 30.5333C73.2367 27.4495 72.2043 24.4054 71.2514 21.3414Z" fill="#CCCCCC"/>
<path d="M57.4111 28.9318C56.8817 28.9318 56.3523 28.8722 55.8295 28.9318C54.8766 29.0376 54.6781 28.6141 54.7045 27.7406C54.7707 25.8347 54.645 23.9288 54.7575 22.0295C54.8435 20.6332 54.1553 20.5273 53.0501 20.5273C51.945 20.5273 51.0648 20.6068 51.2303 22.1023C51.3494 23.4259 51.2303 24.7494 51.2303 26.0729C51.2303 27.3965 51.2898 28.72 51.2303 30.0435C51.1641 31.1884 51.5281 31.6847 52.7457 31.6185C54.2744 31.5325 55.8097 31.5656 57.3781 31.6185C58.3839 31.6185 59.0457 31.5788 59.0523 30.2288C59.0589 28.8788 58.2979 28.9185 57.4111 28.9318Z" fill="#CCCCCC"/>
<path d="M49.4402 20.5939C48.5865 20.5939 47.7395 20.627 46.8726 20.6734C46.8726 23.6248 46.8726 28.277 46.9321 31.1756C46.9321 32.016 48.5865 31.7116 50.0226 31.6057C50.0226 28.5153 50.1152 24.8425 50.1284 21.752C50.1284 21.2491 50.2145 20.5807 49.4402 20.5939Z" fill="#CCCCCC"/>
<path d="M62.8098 20.5939C61.9562 20.5939 61.1091 20.627 60.2422 20.6734C60.2422 23.6248 60.2422 28.277 60.3017 31.1756C60.3017 32.016 61.9562 31.7116 63.3922 31.6057C63.3922 28.5153 63.4915 24.8425 63.4981 21.752C63.5312 21.2491 63.5841 20.5807 62.8098 20.5939Z" fill="#CCCCCC"/>
<path d="M32.5518 18.7412H25.0342V23.8897H32.5518V18.7412Z" fill="#CCCCCC"/>
<path d="M20.9809 19.251H9.06909V31.1627H20.9809V19.251Z" fill="#CCCCCC"/>
<path d="M32.5518 26.5176H25.0342V31.1632H32.5518V26.5176Z" fill="#CCCCCC"/>
</svg>
