<svg width="110" height="45" viewBox="0 0 110 45" fill="none" xmlns="http://www.w3.org/2000/svg">
<path d="M77.8031 26.7749C77.8096 26.5513 77.8819 26.3345 78.0108 26.1518C78.1398 25.969 78.3198 25.8283 78.5282 25.7472C78.7367 25.6661 78.9644 25.6482 79.183 25.6958C79.4016 25.7434 79.6013 25.8543 79.7572 26.0147C79.9131 26.1751 80.0183 26.3779 80.0596 26.5978C80.1009 26.8176 80.0765 27.0448 79.9894 27.2508C79.9024 27.4569 79.7566 27.6328 79.5702 27.7564C79.3838 27.8801 79.1651 27.9461 78.9414 27.9462C78.7891 27.9463 78.6383 27.9158 78.498 27.8565C78.3577 27.7972 78.2307 27.7104 78.1246 27.6012C78.0185 27.492 77.9353 27.3626 77.8801 27.2206C77.8249 27.0787 77.7987 26.9271 77.8031 26.7749ZM78.9348 28.1778C79.2114 28.1739 79.4806 28.0883 79.7087 27.9318C79.9368 27.7753 80.1135 27.5548 80.2167 27.2981C80.3198 27.0415 80.3448 26.76 80.2884 26.4892C80.2321 26.2184 80.0969 25.9703 79.8999 25.776C79.703 25.5818 79.453 25.4502 79.1814 25.3976C78.9098 25.3451 78.6287 25.374 78.3735 25.4807C78.1183 25.5875 77.9004 25.7673 77.7471 25.9975C77.5938 26.2278 77.512 26.4982 77.512 26.7749C77.5119 26.9608 77.5489 27.1449 77.6206 27.3164C77.6924 27.4879 77.7975 27.6434 77.9299 27.774C78.0623 27.9045 78.2193 28.0074 78.3918 28.0768C78.5643 28.1461 78.7489 28.1804 78.9348 28.1778ZM78.6171 26.8874H78.9017L79.3252 27.5888H79.6031L79.1465 26.8741C79.2036 26.8743 79.26 26.8627 79.3124 26.8401C79.3648 26.8175 79.412 26.7844 79.4511 26.7428C79.4902 26.7013 79.5203 26.6521 79.5396 26.5984C79.559 26.5448 79.5671 26.4877 79.5634 26.4308C79.5634 26.1131 79.3715 25.9741 78.9877 25.9741H78.3789V27.5822H78.6171V26.8874ZM78.6171 26.6756V26.1793H78.9546C79.1267 26.1793 79.312 26.219 79.312 26.4175C79.312 26.616 79.1267 26.6756 78.9149 26.6756H78.6171Z" fill="#CCCCCC"/>
<path d="M60.8169 31.1026C60.4199 28.3232 58.1699 27.2181 56.3302 28.5284V28.2041H52.8096V28.5284H53.7427V38.7924H52.8096V39.2159H57.3096V38.7924H56.1184V35.0732C58.7655 36.4828 60.6118 35.4835 60.8765 32.5188C60.9105 32.046 60.8905 31.5709 60.8169 31.1026ZM57.5081 34.9012C56.5618 34.9607 56.0853 33.5776 56.0324 32.7835C55.9794 31.9894 55.8338 30.871 56.0324 30.4012C56.1311 30.2009 56.2581 30.0159 56.4096 29.8519C56.5366 29.7135 56.6916 29.6038 56.8643 29.5299C57.037 29.456 57.2234 29.4198 57.4112 29.4235C57.599 29.4273 57.7838 29.471 57.9534 29.5517C58.123 29.6324 58.2735 29.7483 58.3949 29.8916C58.4728 29.9906 58.5271 30.106 58.5537 30.2291C58.7125 31.4137 59.4272 34.749 57.5147 34.8681L57.5081 34.9012Z" fill="#B3B3B3"/>
<path d="M66.4433 28.0657C65.8404 27.9744 65.224 28.0656 64.6733 28.3274C64.1226 28.5892 63.6627 29.0096 63.3528 29.5348C62.9843 30.1418 62.7567 30.8238 62.6868 31.5304C62.617 32.2371 62.7066 32.9504 62.9492 33.6179C63.0833 34.1808 63.3903 34.6877 63.827 35.0675C64.2637 35.4472 64.8083 35.6808 65.3845 35.7355C65.9975 35.8336 66.6258 35.729 67.174 35.4376C67.7222 35.1462 68.1604 34.6839 68.422 34.1208C66.1455 35.2987 64.7161 34.326 64.769 31.5796H68.6668C68.4815 29.5017 67.7139 28.3568 66.4433 28.0657ZM66.3771 31.1826C65.7153 31.3414 65.5234 31.4737 64.8683 30.8649C64.7558 30.6295 64.6842 30.3766 64.6565 30.1171C64.5374 29.1642 64.994 28.4362 65.7947 28.4495C66.7874 28.4495 66.8403 29.1708 66.88 29.9318C66.9131 30.587 66.708 31.1032 66.3771 31.1826Z" fill="#B3B3B3"/>
<path d="M42.515 35.2191L37.8827 24.6904L32.8268 35.2787H31.8606V35.6095H35.4209V35.2787H33.6871L34.9444 32.347H38.6503L39.7952 35.2191H38.3988V35.7353H43.3025V35.2191H42.515ZM35.1032 32.0228L36.89 27.9265L38.5179 32.0228H35.1032Z" fill="#B3B3B3"/>
<path d="M47.1528 24.9217V24.71H43.6587V25.0342H44.7969V35.2916H44.1285V35.7085H47.9734V35.2916H47.1528V24.9217Z" fill="#B3B3B3"/>
<path d="M51.8041 24.9217H51.7975V24.71H48.2703V25.0342H49.4416V35.2916H48.6342V35.7085H52.4791V35.2916H51.8041V24.9217Z" fill="#B3B3B3"/>
<path d="M76.3418 35.1528L74.1977 31.2616L75.9977 28.5484H76.6528V28.0322H74.0653V28.5484H75.091L73.8072 30.5535L72.6955 28.5484H73.6285V28.0322H69.4727V28.5484H70.3396L72.5234 32.5653L70.8425 35.1793H69.7043V35.6955H72.2918V35.1793H71.5903L72.8874 33.2271L73.9263 35.1528H73.1455V35.6624H77.3079V35.1528H76.3418Z" fill="#B3B3B3"/>
<path d="M49.3661 15.3332C47.5595 12.6861 48.1286 8.81478 50.5771 6.51183C51.9021 5.24108 53.646 4.49862 55.4804 4.42427C57.3148 4.34991 59.1131 4.94881 60.5367 6.10816C61.8704 7.15733 62.7817 8.65174 63.1037 10.3179C63.4258 11.984 63.137 13.7103 62.2903 15.181L55.8381 4.29492L49.3661 15.3332Z" fill="#B3B3B3"/>
<path d="M50.5142 16.9282C51.1296 16.4517 51.7252 16.0679 52.2281 15.6047C52.7311 15.1414 53.1215 14.5591 53.5517 14.0495C54.8752 12.6003 56.1524 12.3951 57.7803 13.2025C57.7803 13.9966 57.509 14.89 57.8333 15.3135C58.7267 16.4517 60.0568 16.637 61.4664 16.2334C60.0899 19.1914 53.9289 20.687 50.5142 16.9282Z" fill="#B3B3B3"/>
</svg>
