<svg width="109" height="45" viewBox="0 0 109 45" fill="none" xmlns="http://www.w3.org/2000/svg">
<path d="M33.8894 16.1466C31.2424 14.2275 28.3968 13.6319 25.2865 14.426C23.235 14.9554 21.6468 16.1466 20.4556 17.9334C18.0733 21.5069 18.8012 26.0731 22.1762 28.8525C25.0218 31.2348 30.5806 32.0951 34.9482 27.3966C33.2938 30.6392 30.9777 32.7569 28.0659 34.1466C21.3159 37.2569 14.8968 36.7275 8.80854 32.426C7.94825 31.8304 7.68354 31.2348 8.14678 30.1098C9.27178 27.5289 9.2056 27.5289 11.985 27.5289C12.3821 27.5289 12.713 27.5951 13.11 27.5289C15.0291 27.1981 16.485 27.6613 16.8821 29.8451C16.9482 30.1098 17.3453 30.4407 17.61 30.4407C18.4703 30.5069 19.3968 30.4407 20.4556 30.4407C19.86 28.9848 19.3306 27.7275 18.8012 26.4701C17.213 22.7642 15.6247 19.0584 14.0365 15.2863C13.7718 14.6245 13.4409 14.2275 12.6468 14.2275C11.7865 14.2275 11.5218 14.6245 11.2571 15.2863C9.47031 19.3231 7.68354 23.3598 5.96296 27.3966C5.8306 27.7275 5.63207 28.0584 5.43354 28.5216C3.44825 25.0142 3.11737 21.5731 4.7056 18.0657C6.82325 13.3672 10.7277 10.8525 15.5585 9.72747C21.4482 8.40394 26.8085 9.52894 31.5071 13.4334C32.1027 13.9628 32.6321 14.5584 33.2277 15.1539C33.4924 15.4848 33.6909 15.8157 33.8894 16.1466Z" fill="#CCCCCC"/>
<path d="M65.5241 30.971C64.6638 30.971 63.8035 30.971 62.8109 30.971C62.8109 28.324 62.8109 25.7431 62.8109 23.1622C62.8109 21.0445 62.5462 20.6475 61.2888 20.5151C59.0388 20.3166 57.5168 21.2431 57.3844 23.0298C57.2521 25.1475 57.3182 27.3313 57.2521 29.449C57.2521 29.9122 57.2521 30.3754 57.2521 30.971C56.2594 30.971 55.3991 30.971 54.4727 30.971C54.4727 26.6034 54.4727 22.1695 54.4727 17.8019C56.3918 17.3387 57.0535 17.5372 57.3844 18.596C59.8991 17.0078 62.2815 17.3387 64.73 19.0593C66.5168 17.5372 68.5682 17.2725 70.8182 17.8019C72.5388 18.199 73.7962 19.4563 73.8624 21.1769C73.9947 24.4195 73.8624 27.6622 73.8624 30.971C73.0021 30.971 72.1418 30.971 71.0829 30.971C71.0829 30.574 71.0829 30.1107 71.0829 29.7137C71.0829 27.2651 71.0829 24.7504 71.0829 22.3019C71.0829 20.9784 70.6197 20.5813 69.2962 20.5151C66.7153 20.449 65.5903 21.574 65.5241 24.1548C65.5241 26.3387 65.5241 28.5225 65.5241 30.7063C65.6565 30.7725 65.5903 30.8387 65.5241 30.971Z" fill="#CCCCCC"/>
<path d="M52.0225 16.2133C51.2284 16.875 50.5004 17.5368 49.7725 18.1986C47.9857 16.5441 46.0004 15.75 43.6181 16.3456C43.221 16.478 42.6916 16.5441 42.4269 16.875C41.9637 17.4044 41.4342 18.1324 41.5004 18.6618C41.5666 19.1912 42.2945 19.9853 42.8239 20.1177C44.2798 20.5147 45.7357 20.6471 47.2578 20.9118C47.9195 21.0441 48.5151 21.1765 49.1769 21.3089C50.8975 21.7721 52.221 22.6986 52.5519 24.5515C52.8828 26.4044 52.4195 28.125 50.8975 29.3824C48.0519 31.6986 44.8092 31.9633 41.5004 30.7721C40.1107 30.2427 38.8534 29.3162 37.3313 28.4559C38.3901 27.5294 39.1181 26.8677 39.6475 26.4044C41.1695 27.1324 42.4931 27.9927 43.9489 28.2574C45.2063 28.4559 46.6622 28.125 47.9195 27.7941C48.846 27.5294 49.3092 26.6691 49.2431 25.6765C49.1769 24.75 48.4489 24.2868 47.5886 24.0883C45.7357 23.6912 43.9489 23.4927 42.096 23.0956C39.1181 22.4339 37.6622 20.7133 38.1254 18.1324C38.3239 17.0736 38.9195 15.9486 39.7137 15.2868C42.7578 12.5736 49.1107 13.0368 52.0225 16.2133Z" fill="#CCCCCC"/>
<path d="M92.2584 30.9706C91.1996 30.9706 90.4055 30.9706 89.479 30.9706C89.479 25.1471 89.479 19.3236 89.479 13.2354C90.3393 13.7648 91.3981 14.0956 91.8614 14.7574C92.3246 15.4192 92.1922 16.478 92.3908 17.5368C93.5158 17.5368 94.7069 17.5368 95.8981 17.5368C99.7364 17.5368 101.192 18.9927 101.192 22.7648C101.192 25.4118 101.192 28.1251 101.192 30.8383C100.266 30.8383 99.3393 30.8383 98.3466 30.8383C98.3466 28.4559 98.3466 26.0736 98.3466 23.6912C98.3466 20.3824 98.3466 20.3824 95.0378 20.3824C94.1775 20.3824 93.2511 20.3824 92.2584 20.3824C92.2584 24.0221 92.2584 27.3971 92.2584 30.9706Z" fill="#CCCCCC"/>
<path d="M27.8034 27.8606C24.8255 27.8606 22.377 25.3459 22.377 22.4341C22.4431 19.4562 24.8917 17.0738 27.8696 17.14C30.8475 17.2062 33.1637 19.5885 33.1637 22.5003C33.2299 25.4121 30.7814 27.8606 27.8034 27.8606Z" fill="#CCCCCC"/>
<path d="M82.4649 13.1035C83.4575 13.6991 84.5163 14.03 84.9796 14.7579C85.4428 15.4197 85.1781 16.5447 85.2443 17.5373C85.7737 17.6035 86.2369 17.6035 86.7663 17.6697C86.7663 18.5962 86.7663 19.4565 86.7663 20.4491C86.3031 20.4491 85.7737 20.5153 85.1781 20.5153C85.1781 22.6329 85.1119 24.8168 85.2443 26.9344C85.3104 27.53 86.1046 27.9932 86.7663 28.3903C86.7663 29.2506 86.7663 30.0447 86.7663 30.905C84.384 31.1697 82.4649 29.5815 82.3987 27.0668C82.3987 22.5668 82.4649 17.9344 82.4649 13.1035Z" fill="#CCCCCC"/>
<path d="M76.9055 17.6685C77.832 17.6685 78.6261 17.6685 79.4864 17.6685C79.4864 22.1023 79.4864 26.4699 79.4864 30.9699C78.6923 30.9699 77.832 30.9699 76.9055 30.9699C76.9055 26.5361 76.9055 22.1685 76.9055 17.6685Z" fill="#CCCCCC"/>
<path d="M14.7668 24.6174C13.2447 24.6174 11.9212 24.6174 10.4653 24.6174C11.1933 22.8968 11.855 21.2424 12.6492 19.3232C13.3771 21.2424 14.0389 22.8306 14.7668 24.6174Z" fill="#CCCCCC"/>
<path d="M76.9055 13.0361C77.832 14.1611 79.8835 13.8964 79.4864 16.0802C78.6261 16.0802 77.832 16.0802 76.9055 16.0802C76.9055 15.1538 76.9055 14.2935 76.9055 13.0361Z" fill="#CCCCCC"/>
<path d="M103.88 29.4902V27.5985H104.519C104.667 27.5985 104.789 27.6237 104.883 27.6742C104.978 27.7241 105.048 27.7928 105.094 27.8802C105.14 27.9677 105.162 28.0671 105.162 28.1786C105.162 28.29 105.14 28.3889 105.094 28.4751C105.048 28.5613 104.978 28.629 104.884 28.6783C104.79 28.727 104.67 28.7513 104.523 28.7513H104.006V28.5444H104.516C104.617 28.5444 104.698 28.5296 104.76 28.5C104.822 28.4705 104.867 28.4286 104.894 28.3744C104.923 28.3196 104.937 28.2543 104.937 28.1786C104.937 28.1028 104.923 28.0366 104.894 27.98C104.866 27.9233 104.821 27.8796 104.759 27.8488C104.696 27.8174 104.614 27.8017 104.512 27.8017H104.109V29.4902H103.88ZM104.771 28.6404L105.236 29.4902H104.97L104.512 28.6404H104.771Z" fill="#020203"/>
<path d="M104.437 30.6402C105.168 30.6402 105.76 30.0477 105.76 29.3167C105.76 28.5857 105.168 27.9932 104.437 27.9932C103.706 27.9932 103.113 28.5857 103.113 29.3167C103.113 30.0477 103.706 30.6402 104.437 30.6402Z" stroke="#CCCCCC" stroke-width="0.165441" stroke-miterlimit="10"/>
</svg>
