<svg width="109" height="45" viewBox="0 0 109 45" fill="none" xmlns="http://www.w3.org/2000/svg">
<path d="M80.628 37.7427V35.6491H81.3354C81.499 35.6491 81.6333 35.677 81.7382 35.7329C81.8432 35.7881 81.9208 35.8641 81.9713 35.9609C82.0217 36.0577 82.0469 36.1677 82.0469 36.2911C82.0469 36.4144 82.0217 36.5238 81.9713 36.6192C81.9208 36.7146 81.8435 36.7896 81.7392 36.8441C81.635 36.898 81.5017 36.9249 81.3395 36.9249H80.7671V36.6959H81.3313C81.4431 36.6959 81.5331 36.6795 81.6012 36.6468C81.6701 36.6141 81.7198 36.5678 81.7505 36.5078C81.7818 36.4471 81.7975 36.3749 81.7975 36.2911C81.7975 36.2072 81.7818 36.134 81.7505 36.0713C81.7191 36.0086 81.669 35.9602 81.6002 35.9261C81.5314 35.8914 81.4404 35.874 81.3273 35.874H80.8816V37.7427H80.628ZM81.6135 36.8022L82.1287 37.7427H81.8343L81.3273 36.8022H81.6135Z" fill="#CCCCCC"/>
<path d="M81.2615 38.2165C82.0656 38.2165 82.7174 37.5646 82.7174 36.7606C82.7174 35.9565 82.0656 35.3047 81.2615 35.3047C80.4575 35.3047 79.8057 35.9565 79.8057 36.7606C79.8057 37.5646 80.4575 38.2165 81.2615 38.2165Z" stroke="#CCCCCC" stroke-width="0.165441" stroke-miterlimit="10"/>
<path d="M29.5492 33.889C29.5492 32.3802 29.5095 30.8647 29.5492 29.3559C29.6286 26.7089 29.311 24.1081 29.7279 21.4942C32.3749 20.9118 35.0948 21.3817 37.7816 21.2493C38.6832 21.203 39.5866 21.203 40.4882 21.2493C42.361 21.342 44.1345 21.6927 44.8823 23.7309C45.5441 25.6037 44.9286 27.1986 42.897 28.7471C42.2816 29.2103 42.4139 29.4817 42.983 29.8522C45.6698 31.5927 44.4323 34.6699 45.4051 36.9993C45.597 37.4559 45.1338 37.6611 44.7433 37.6611C44.4191 37.6611 44.0816 37.6611 43.7771 37.6611C39.4955 37.7272 39.4823 37.7272 38.622 33.6905C38.4764 32.9956 38.4963 32.2346 37.6823 31.9368C36.7161 31.5861 35.8492 31.5 35.8624 32.9493C35.8624 33.1412 35.8624 33.3331 35.8624 33.525C35.8624 37.6942 35.8624 37.6942 31.5676 37.6942C29.2448 37.6942 26.9352 37.6545 24.5926 37.6942C23.5669 37.6942 22.8191 37.575 22.6867 36.3706C22.5544 35.1662 21.8727 34.6567 20.7014 34.8883C19.5301 35.1199 17.6904 34.0081 17.2073 36.2118C16.9294 37.4692 16.1485 37.7934 14.9441 37.714C13.6205 37.628 12.2374 37.6611 10.8808 37.714C10.0007 37.714 9.74921 37.5353 10.0602 36.6155C11.6816 31.8309 13.283 27.0397 14.7919 22.2221C14.8502 21.8924 15.0351 21.5985 15.3071 21.4032C15.5791 21.2078 15.9166 21.1265 16.2477 21.1765C18.5044 21.1765 20.7742 21.3089 23.0242 21.1765C24.4999 21.0971 25.0095 21.739 25.3999 23.0228C26.3727 26.3317 27.4779 29.6405 28.5367 32.903C28.6766 33.2512 28.8357 33.5915 29.0132 33.9221L29.5492 33.889ZM19.9404 25.1868C19.1946 26.7478 18.7181 28.4236 18.5308 30.1434C18.3323 31.3611 19.3514 31.05 19.9735 31.05C20.5955 31.05 21.5617 31.3809 21.3698 30.3353C21.1549 28.5571 20.673 26.8214 19.9404 25.1868ZM37.1463 24.717C35.8227 24.6243 35.8227 25.3787 35.8227 26.2258C35.8227 27.1589 35.5779 28.4096 37.0205 28.3103C37.5031 28.2842 37.9596 28.0829 38.3044 27.7442C38.6492 27.4055 38.8586 26.9527 38.8933 26.4706C38.9926 25.1471 37.9735 24.9287 37.1463 24.717Z" fill="#CCCCCC"/>
<path d="M29.7803 4.98931C34.5384 2.64667 39.6273 2.22314 44.7097 2.42167C53.9724 2.68004 63.0698 4.93746 71.3788 9.03931C76.4853 11.6099 81.2404 14.8259 85.5273 18.6084C91.1987 23.5783 96.2744 29.1173 100.04 35.7349C101.211 37.7864 94.5538 37.8062 92.4295 37.8393C91.4832 37.8393 90.8281 37.6077 90.5237 36.6217C89.0799 32.0438 86.7878 27.7785 83.767 24.0481C79.1876 18.3106 73.3509 14.0158 67.0575 10.3165C61.354 7.02331 55.0658 4.86804 48.5413 3.97019C44.4648 3.37461 40.3685 2.93784 36.3119 4.28784C34.181 5.00255 32.0237 5.00917 29.7803 4.98931Z" fill="#CCCCCC"/>
<path d="M63.0487 29.4886C63.0487 27.2386 63.1016 24.9886 63.0487 22.7452C63.0024 21.5872 68.2766 20.6342 69.223 21.5872C70.1693 22.5401 69.5208 24.168 69.5009 25.4982C69.5009 26.6827 70.0436 26.9011 71.0428 26.8217C72.0421 26.7423 72.9355 26.9011 72.8428 25.4982C72.8031 24.9225 72.8428 24.3401 72.8428 23.7644C72.8428 20.6276 72.7899 21.1173 75.3708 21.1967C79.0568 21.296 79.0502 21.2761 79.0568 24.9555C79.0634 28.635 79.0568 32.4004 79.1362 36.1261C79.1362 37.2379 78.898 37.6945 77.6538 37.7144C73.0215 37.7938 72.9487 37.8401 72.8693 33.3004C72.8693 31.9173 72.32 31.5732 71.0296 31.5533C69.6068 31.5533 69.5208 32.268 69.5141 33.3666C69.4744 37.7276 69.448 37.6747 65.0075 37.721C63.545 37.721 62.9296 37.3901 63.0222 35.8085C63.1546 33.7504 63.0487 31.6063 63.0487 29.4886Z" fill="#CCCCCC"/>
<path d="M52.3684 29.7332C52.4175 30.7346 52.5169 31.7329 52.6662 32.7244C52.7226 33.0775 52.8975 33.4009 53.1621 33.6414C53.4267 33.882 53.7652 34.0253 54.1221 34.0479C54.4475 34.1122 54.7851 34.052 55.0682 33.8792C55.3513 33.7064 55.5592 33.4336 55.6508 33.1148C55.9023 31.6391 56.8883 31.7317 57.9405 31.7913C58.3261 31.7648 58.713 31.7648 59.0986 31.7913C60.0052 31.9435 61.3354 31.2288 61.7456 32.1552C62.2287 33.267 61.5405 34.5641 60.8324 35.5435C59.2111 37.7869 54.8302 38.8523 51.5677 37.9258C47.9876 36.9001 46.1346 34.7957 45.7971 31.3611C45.7574 30.9773 45.6978 30.5935 45.678 30.2097C45.5258 27.1722 45.7442 24.2141 48.6096 22.3413C52.0508 20.0913 55.6773 20.0714 59.3236 21.8714C60.9052 22.6589 61.4611 24.181 61.7853 25.7957C61.9045 26.4111 61.7853 26.8082 61.0243 26.7619C59.8135 26.7245 58.6031 26.8469 57.4243 27.1258C56.7626 27.2648 55.9949 27.3111 55.9023 26.2126C55.8833 26.0035 55.8204 25.8007 55.7176 25.6176C55.6148 25.4345 55.4744 25.2752 55.3056 25.1502C55.1369 25.0252 54.9436 24.9374 54.7385 24.8923C54.5334 24.8473 54.3211 24.8462 54.1155 24.8891C53.6906 24.9284 53.2956 25.1243 53.007 25.4386C52.7184 25.7528 52.5568 26.1631 52.5537 26.5898C52.4677 27.6023 52.4412 28.6347 52.3684 29.7332Z" fill="#CCCCCC"/>
<path d="M20.1872 20.0315C19.4164 20.0944 18.6418 20.0944 17.871 20.0315C17.1431 19.9057 16.0909 20.6932 15.7136 19.5484C15.4489 18.7542 17.2225 16.9013 18.1423 16.9013C20.0681 16.9013 22.0004 16.8484 23.9261 16.9013C24.482 16.9013 25.6864 16.3785 25.4284 17.6094C25.2497 18.4895 25.5078 19.9917 23.8534 20.0248C22.6291 20.0248 21.4048 20.0248 20.1872 20.0248V20.0315Z" fill="#CCCCCC"/>
<path d="M17.7446 15.697C18.2277 13.6191 19.2667 12.772 21.2189 12.9904C22.4829 13.1294 23.7865 12.9375 25.0571 13.05C25.6792 13.1029 26.8968 12.461 26.824 13.7117C26.7777 14.572 26.4204 15.7566 24.9843 15.7301C22.6218 15.6639 20.2593 15.697 17.7446 15.697Z" fill="#CCCCCC"/>
<path d="M20.0195 11.7862C22.3423 7.72298 25.9754 10.0656 29.0328 9.13916C28.4901 10.9987 27.8482 11.998 25.9423 11.7862C24.0364 11.5745 22.2232 11.7862 20.0195 11.7862Z" fill="#CCCCCC"/>
<path d="M23.6382 8.15345C25.8551 5.32771 28.7735 6.12845 31.5794 6.04242C29.8985 8.55712 29.8985 8.55712 23.6382 8.15345Z" fill="#CCCCCC"/>
</svg>
