<svg width="110" height="45" viewBox="0 0 110 45" fill="none" xmlns="http://www.w3.org/2000/svg">
<g clip-path="url(#clip0_1_15558)">
<path d="M106.336 17.9429V15.5894H107.131C107.315 15.5894 107.466 15.6208 107.584 15.6836C107.702 15.7457 107.789 15.8311 107.846 15.9399C107.902 16.0487 107.931 16.1724 107.931 16.3111C107.931 16.4497 107.902 16.5727 107.846 16.6799C107.789 16.7872 107.702 16.8715 107.585 16.9328C107.468 16.9933 107.318 17.0235 107.136 17.0235H106.492V16.7661H107.126C107.252 16.7661 107.353 16.7477 107.43 16.711C107.507 16.6742 107.563 16.6221 107.598 16.5547C107.633 16.4865 107.65 16.4053 107.65 16.3111C107.65 16.2168 107.633 16.1345 107.598 16.064C107.562 15.9935 107.506 15.9391 107.429 15.9008C107.351 15.8617 107.249 15.8422 107.122 15.8422H106.621V17.9429H106.336ZM107.444 16.8856L108.023 17.9429H107.692L107.122 16.8856H107.444Z" fill="#B3B3B3"/>
<path d="M107.039 18.8463C107.942 18.8463 108.673 18.1144 108.673 17.2117C108.673 16.309 107.942 15.5771 107.039 15.5771C106.136 15.5771 105.404 16.309 105.404 17.2117C105.404 18.1144 106.136 18.8463 107.039 18.8463Z" stroke="#CCCCCC" stroke-width="0.165441" stroke-miterlimit="10"/>
<path fill-rule="evenodd" clip-rule="evenodd" d="M20.0019 28.6286C20.0019 30.2301 19.1747 31.4808 17.8115 31.4808C16.9379 31.4808 16.3953 30.7264 16.3953 29.6411C16.3953 27.3977 19.1482 27.2786 20.0019 27.2588V28.6286ZM20.0019 32.4999H22.371V25.3198C22.371 22.9838 21.8548 21.2632 18.5129 21.2632C15.171 21.2632 14.3438 22.911 14.0857 24.4727H16.885C16.885 23.4338 16.9843 22.0639 18.5328 22.0639C20.0813 22.0639 20.0218 23.7183 20.0218 25.2007V26.4051C18.5129 26.458 13.8276 26.7161 13.8276 30.0448C13.8276 31.4345 15.1512 32.758 16.9843 32.758C17.5839 32.7486 18.1721 32.5929 18.698 32.3046C19.2239 32.0163 19.6714 31.6041 20.0019 31.1036V32.4999Z" fill="#CCCCCC"/>
<path fill-rule="evenodd" clip-rule="evenodd" d="M27.3664 32.4999H29.7223V26.8551C29.7223 25.2007 30.384 23.3411 32.7796 23.3411C33.1929 23.3761 33.5988 23.472 33.984 23.6257V21.3823C33.5648 21.3057 33.1396 21.2658 32.7135 21.2632C30.8274 21.2632 30.0664 23.2948 29.7686 24.3801H29.7223V21.2632L25.5068 22.0176V22.5007C26.9892 22.547 27.3664 22.9507 27.3664 24.6051V32.5463" fill="#CCCCCC"/>
<path fill-rule="evenodd" clip-rule="evenodd" d="M37.5383 32.4999H39.8875V26.736C39.8875 25.0617 40.9 22.8647 42.5346 22.8647C44.1692 22.8647 44.1096 24.5191 44.1096 26.3852V32.4999H46.4589V27.047C46.4589 25.3463 47.3059 22.8647 49.1059 22.8647C50.6875 22.8647 50.6875 24.5919 50.6875 26.0544V32.4999H53.0434V25.6772C53.0434 24.0029 53.0434 21.2632 50.0523 21.2632C47.9346 21.2632 47.0346 22.9838 46.5449 23.9102H46.4986C46.3331 22.8514 45.7905 21.2632 43.6 21.2632C41.4096 21.2632 40.3971 23.2485 40 24.0691H39.9471V21.2632L35.7383 22.0176V22.5007C37.1743 22.547 37.5515 22.9507 37.5515 24.6051V32.5463" fill="#CCCCCC"/>
<path fill-rule="evenodd" clip-rule="evenodd" d="M63.0779 28.6286C63.0779 30.2301 62.2573 31.4808 60.8875 31.4808C60.0206 31.4808 59.4779 30.7264 59.4779 29.6411C59.4779 27.3977 62.2308 27.2786 63.0779 27.2588V28.6286ZM63.0779 32.4999H65.4338V25.3198C65.4338 22.9838 64.9176 21.2632 61.5691 21.2632C58.2206 21.2632 57.4397 22.911 57.1419 24.486H59.9478C59.9478 23.447 60.0404 22.0772 61.5956 22.0772C63.1507 22.0772 63.0779 23.7316 63.0779 25.2139V26.4051C61.5691 26.458 56.8838 26.7161 56.8838 30.0448C56.8838 31.4345 58.2073 32.758 60.0404 32.758C60.6434 32.7518 61.2357 32.5977 61.7653 32.3092C62.2948 32.0208 62.7456 31.6068 63.0779 31.1036V32.4999Z" fill="#CCCCCC"/>
<path fill-rule="evenodd" clip-rule="evenodd" d="M77.9583 31.1499C77.2253 31.3657 76.4657 31.4771 75.7016 31.4808C73.5575 31.4808 71.9561 29.5683 71.9561 26.0742C71.9561 23.811 72.3068 22.0639 73.9413 22.0639C75.4038 22.0639 75.6355 23.5264 75.6355 24.4926H78.4149C78.4149 22.5867 76.6943 21.2632 74.0803 21.2632C70.7186 21.2632 69.395 23.6257 69.395 26.8551C69.395 30.422 71.3803 32.758 74.6494 32.758C75.7923 32.8267 76.9356 32.632 77.9913 32.1889V31.1499" fill="#CCCCCC"/>
<path fill-rule="evenodd" clip-rule="evenodd" d="M83.4186 24.8227C83.4186 23.9293 83.9149 22.0631 85.6818 22.0631C87.7333 22.0631 87.7796 24.28 87.7796 24.8227H83.4186ZM89.9237 31.1028C89.2153 31.3698 88.4638 31.5044 87.7068 31.4999C84.398 31.4999 83.4186 28.1513 83.4186 25.7888H90.1355C90.1355 24.2072 89.8046 21.2822 85.7744 21.2822C82.6244 21.2822 80.8311 22.9102 80.8311 26.6425C80.8311 30.6131 82.995 32.7771 86.6016 32.7771C87.7354 32.7571 88.8562 32.5329 89.9105 32.1153V31.1028" fill="#CCCCCC"/>
<path fill-rule="evenodd" clip-rule="evenodd" d="M94.0387 32.4987H96.3946V15.9546L92.252 16.5436V17.0134C93.6417 17.0862 94.0387 17.4899 94.0387 19.1641V32.4987Z" fill="#CCCCCC"/>
<path fill-rule="evenodd" clip-rule="evenodd" d="M101.568 32.4987H103.924V15.9546L99.7949 16.5436V17.0134C101.178 17.0862 101.582 17.4899 101.582 19.1641V32.4987" fill="#CCCCCC"/>
<path d="M5.82422 16.1265H6.03598C7.43746 16.1259 8.78627 16.6605 9.80689 17.621C10.8275 18.5814 11.4429 19.8953 11.5274 21.2943C11.6119 22.6932 11.159 24.0716 10.2614 25.1479C9.36379 26.2242 8.08911 26.9172 6.69775 27.0853C8.03135 26.8247 9.2224 26.0824 10.0438 24.9999C10.8652 23.9175 11.2595 22.5706 11.1516 21.216C11.0436 19.8615 10.4409 18.5941 9.45838 17.6554C8.47587 16.7168 7.18227 16.1725 5.82422 16.1265Z" fill="#CCCCCC"/>
<path d="M0.881838 21.4615C0.880937 20.3388 1.25571 19.248 1.94648 18.363C2.63725 17.4779 3.60429 16.8495 4.6936 16.5776C3.61731 16.9493 2.69555 17.6691 2.07399 18.6231C1.45243 19.5772 1.16649 20.7112 1.26137 21.8459C1.35624 22.9806 1.82652 24.0513 2.59789 24.8889C3.36925 25.7265 4.39773 26.2832 5.52081 26.471C4.25976 26.3727 3.08223 25.8022 2.22347 24.8735C1.36472 23.9448 0.887961 22.7263 0.888455 21.4615" fill="#CCCCCC"/>
<path d="M3.55887 17.3974C3.21475 17.8739 3.06254 17.9268 3.04269 18.5886V18.7011C3.38019 22.1555 7.43681 21.3482 8.05225 19.3629C8.22431 18.946 8.13828 18.8864 8.05225 18.4761C8.23162 18.6126 8.35419 18.8106 8.39637 19.032C8.58166 20.1239 7.9199 20.468 7.19196 21.0173H7.15225L7.22504 20.9577C6.74577 21.1915 6.22759 21.335 5.69637 21.3813C5.69637 21.3813 5.63019 21.3813 5.62357 21.3813C3.12872 21.4144 1.7324 18.443 3.5324 17.2783C3.5324 17.2783 3.58534 17.3313 3.57872 17.3577" fill="#CCCCCC"/>
<path d="M1.90445 21.0774C2.07083 21.4028 2.25875 21.7167 2.46695 22.0171C2.57283 22.0965 2.61253 22.2487 2.73827 22.3413C2.82185 22.4095 2.89935 22.4848 2.96989 22.5663C3.39667 22.9635 3.89528 23.2757 4.439 23.4862C5.23933 23.7413 6.09011 23.7956 6.91639 23.6445C7.74267 23.4933 8.51909 23.1412 9.17724 22.6193C9.17724 22.6193 9.24342 22.6193 9.25003 22.6193L9.42871 22.4604C9.64264 22.2887 9.83191 22.0882 9.99121 21.8649C10.2319 21.4529 10.4082 21.0066 10.514 20.5413C10.5372 20.3856 10.5372 20.2272 10.514 20.0715C10.514 20.0384 10.4677 19.9193 10.4809 19.8994H10.5206C10.5206 20.0053 10.6199 20.1046 10.6464 20.2237C10.6728 20.3428 10.6464 20.5612 10.6794 20.6141C10.6854 20.7783 10.6607 20.9421 10.6067 21.0972C10.3022 22.52 8.81327 23.5457 7.53606 24.009C7.14618 24.1577 6.73943 24.2577 6.32503 24.3068C6.10003 24.3068 5.87503 24.3068 5.66327 24.3068H5.60371C5.19486 24.2798 4.79392 24.1812 4.41915 24.0156L3.99562 23.8237C3.57001 23.5253 3.16538 23.1981 2.78459 22.8443C2.69856 22.745 2.56621 22.6325 2.49342 22.5266L2.28827 22.2156C1.83781 21.5987 1.58201 20.8613 1.55371 20.0979C1.60665 19.959 1.63974 20.3031 1.67283 20.4288C1.73037 20.6558 1.80788 20.8773 1.90445 21.0906" fill="#CCCCCC"/>
<path d="M5.8222 16.6099L5.97441 16.7224C5.97441 16.7555 5.61705 17.576 5.55749 17.7481L5.49794 17.8672C5.55749 17.8672 5.72294 17.9202 5.78249 17.8672C6.02671 17.7157 6.28908 17.5956 6.56338 17.5099C7.13508 17.2187 7.77735 17.0948 8.41632 17.1525C8.41632 17.2981 8.37661 17.5297 8.20455 17.5628C7.87367 17.6224 7.88691 17.3378 6.16632 17.9466L6.25235 18.2841C8.35676 18.5157 10.7259 21.1363 10.5737 23.2871V23.3268C10.4016 23.3268 10.3685 23.3731 10.2362 23.2606C10.0707 22.9231 10.0178 22.44 9.85235 22.0628C9.50031 20.9858 8.80239 20.0553 7.86705 19.4157C7.34802 19.0648 6.79077 18.7739 6.20602 18.5488L5.74279 18.4165H5.67661C6.48396 18.8996 7.00014 20.1238 7.42367 20.9312C7.74397 21.6587 7.9515 22.4308 8.03911 23.2209C8.13176 24.1474 8.25088 25.5635 7.74794 26.3775H7.69499C7.14573 26.1856 7.69499 24.9878 7.64205 24.4915V24.0282V23.8827V23.4525V23.3731V23.2143C7.60235 22.8371 7.53617 22.4731 7.46338 22.0959C7.46338 22.0959 7.42367 21.9635 7.42367 21.9503L7.14573 21.1363C6.96705 20.7724 6.86779 20.3687 6.66926 20.018L6.43102 19.6077L6.37808 19.5216C6.21263 19.2391 6.0174 18.9751 5.79573 18.7341C5.67661 18.6216 5.43838 18.6547 5.36558 18.5091C4.91697 19.7582 4.70599 21.0802 4.74352 22.4069C4.759 23.0719 4.81869 23.7351 4.9222 24.3922L5.04132 25.054L5.28617 26.2121C5.28617 26.2518 5.07441 26.1657 5.00161 26.0996C4.90485 26.0215 4.82778 25.9217 4.77661 25.8084C4.34646 24.7496 4.35308 22.3077 4.43249 21.176C4.53247 20.4335 4.7031 19.7023 4.94205 18.9922L5.01485 18.7341V18.6812V18.6415C4.24144 19.0366 3.57152 19.6077 3.05892 20.3088C2.54632 21.0099 2.20534 21.8214 2.06338 22.6782C1.98334 23.2375 2.03085 23.8076 2.20235 24.3459C2.27537 24.5723 2.36381 24.7934 2.46705 25.0077C2.46705 25.0407 2.39426 25.1202 2.39426 25.1202C2.1162 24.7239 1.92662 24.2726 1.83838 23.7966C1.17661 21.2753 3.07588 19.4091 4.83617 18.3437C4.16906 18.1952 3.47165 18.2696 2.85088 18.5555C2.65083 18.6329 2.45814 18.7281 2.27514 18.84L2.17588 18.926C2.17588 18.9591 1.91117 19.204 1.92441 19.1444C1.95375 19.0309 2.01057 18.9264 2.08985 18.84C2.59279 18.3503 2.82441 18.2113 4.07514 18.0327H4.51191H4.64426C4.49386 17.8761 4.31118 17.7541 4.10891 17.6753C3.90663 17.5964 3.68962 17.5626 3.47294 17.576C3.38833 17.5982 3.29945 17.5982 3.21485 17.576C3.30659 17.484 3.41139 17.4059 3.52588 17.3444C3.83246 17.3149 4.14164 17.3597 4.42729 17.4749C4.71294 17.59 4.96668 17.7723 5.16705 18.0062C5.31926 17.5827 5.44499 17.126 5.62367 16.6827C5.64652 16.6687 5.66668 16.6508 5.68323 16.6297H5.8222" fill="#CCCCCC"/>
<path d="M4.50098 18.3568C4.50098 18.0259 4.82524 17.7281 5.28186 17.695C5.73848 17.662 6.13554 17.8936 6.16201 18.2178C6.18848 18.5421 5.84436 18.8465 5.38774 18.8796C4.93112 18.9127 4.52745 18.6877 4.50098 18.3568Z" fill="#CCCCCC"/>
</g>
<defs>
<clipPath id="clip0_1_15558">
<rect width="108.529" height="45" fill="white" transform="translate(0.529297)"/>
</clipPath>
</defs>
</svg>
