<svg width="110" height="45" viewBox="0 0 110 45" fill="none" xmlns="http://www.w3.org/2000/svg">
<path d="M5.86726 32.1034V31.6922H8.73851V32.1034H7.53468V35.5205H7.07109V32.1034H5.86726ZM9.45399 35.5205V31.6922H9.91757V33.397H11.9589V31.6922H12.4224V35.5205H11.9589V33.8082H9.91757V35.5205H9.45399ZM13.3505 35.5205V31.6922H15.661V32.1034H13.8141V33.397H15.5414V33.8082H13.8141V35.1093H15.6909V35.5205H13.3505ZM16.4966 35.5205V31.6922H17.7901C18.0892 31.6922 18.3347 31.7433 18.5266 31.8455C18.7186 31.9464 18.8606 32.0854 18.9528 32.2623C19.0451 32.4393 19.0912 32.6405 19.0912 32.8661C19.0912 33.0917 19.0451 33.2917 18.9528 33.4661C18.8606 33.6406 18.7192 33.7777 18.5285 33.8774C18.3378 33.9758 18.0942 34.0251 17.7976 34.0251H16.7508V33.6063H17.7827C17.987 33.6063 18.1515 33.5764 18.2762 33.5166C18.402 33.4568 18.493 33.3721 18.5491 33.2624C18.6064 33.1515 18.6351 33.0194 18.6351 32.8661C18.6351 32.7128 18.6064 32.5788 18.5491 32.4642C18.4918 32.3495 18.4002 32.2611 18.2743 32.1988C18.1484 32.1352 17.9821 32.1034 17.7752 32.1034H16.9602V35.5205H16.4966ZM18.2986 33.8007L19.2407 35.5205H18.7024L17.7752 33.8007H18.2986ZM19.8637 31.6922H20.417L21.718 34.87H21.7629L23.0639 31.6922H23.6172V35.5205H23.1835V32.6119H23.1462L21.9498 35.5205H21.5311L20.3347 32.6119H20.2973V35.5205H19.8637V31.6922ZM27.7769 33.6063C27.7769 34.0101 27.704 34.359 27.5582 34.6532C27.4124 34.9473 27.2124 35.1741 26.9581 35.3336C26.7039 35.4931 26.4135 35.5728 26.087 35.5728C25.7605 35.5728 25.4702 35.4931 25.2159 35.3336C24.9617 35.1741 24.7617 34.9473 24.6159 34.6532C24.4701 34.359 24.3972 34.0101 24.3972 33.6063C24.3972 33.2026 24.4701 32.8536 24.6159 32.5595C24.7617 32.2654 24.9617 32.0386 25.2159 31.8791C25.4702 31.7196 25.7605 31.6398 26.087 31.6398C26.4135 31.6398 26.7039 31.7196 26.9581 31.8791C27.2124 32.0386 27.4124 32.2654 27.5582 32.5595C27.704 32.8536 27.7769 33.2026 27.7769 33.6063ZM27.3283 33.6063C27.3283 33.2749 27.2728 32.9951 27.1619 32.767C27.0522 32.539 26.9033 32.3664 26.7151 32.2492C26.5282 32.1321 26.3188 32.0735 26.087 32.0735C25.8552 32.0735 25.6453 32.1321 25.4571 32.2492C25.2702 32.3664 25.1212 32.539 25.0103 32.767C24.9007 32.9951 24.8458 33.2749 24.8458 33.6063C24.8458 33.9378 24.9007 34.2176 25.0103 34.4457C25.1212 34.6737 25.2702 34.8463 25.4571 34.9635C25.6453 35.0806 25.8552 35.1392 26.087 35.1392C26.3188 35.1392 26.5282 35.0806 26.7151 34.9635C26.9033 34.8463 27.0522 34.6737 27.1619 34.4457C27.2728 34.2176 27.3283 33.9378 27.3283 33.6063ZM28.5564 35.5205V31.6922H29.8499C30.1503 31.6922 30.3958 31.7464 30.5865 31.8548C30.7784 31.962 30.9204 32.1072 31.0127 32.2904C31.1049 32.4735 31.151 32.6779 31.151 32.9035C31.151 33.129 31.1049 33.334 31.0127 33.5185C30.9217 33.7029 30.7809 33.85 30.5902 33.9596C30.3995 34.0681 30.1553 34.1223 29.8574 34.1223H28.9302V33.711H29.8425C30.0481 33.711 30.2132 33.6755 30.3378 33.6045C30.4625 33.5334 30.5528 33.4375 30.6089 33.3166C30.6662 33.1945 30.6949 33.0568 30.6949 32.9035C30.6949 32.7502 30.6662 32.6131 30.6089 32.4922C30.5528 32.3714 30.4618 32.2766 30.336 32.2081C30.2101 32.1383 30.0431 32.1034 29.835 32.1034H29.02V35.5205H28.5564ZM31.8978 35.5205V31.6922H32.3614V35.1093H34.1409V35.5205H31.8978ZM35.2574 35.5205H34.7714L36.1771 31.6922H36.6556L38.0613 35.5205H37.5753L36.4313 32.2978H36.4014L35.2574 35.5205ZM35.4368 34.0251H37.3959V34.4363H35.4368V34.0251ZM40.7513 32.6493C40.7288 32.4598 40.6378 32.3128 40.4783 32.2081C40.3188 32.1034 40.1232 32.0511 39.8914 32.0511C39.7219 32.0511 39.5736 32.0785 39.4465 32.1333C39.3206 32.1882 39.2222 32.2636 39.1511 32.3595C39.0813 32.4555 39.0464 32.5645 39.0464 32.6866C39.0464 32.7888 39.0707 32.8767 39.1194 32.9502C39.1692 33.0225 39.2328 33.0829 39.31 33.1315C39.3873 33.1789 39.4683 33.2181 39.553 33.2493C39.6378 33.2792 39.7157 33.3035 39.7867 33.3222L40.1755 33.4269C40.2752 33.4531 40.3861 33.4892 40.5082 33.5353C40.6316 33.5814 40.7494 33.6444 40.8615 33.7241C40.9749 33.8026 41.0684 33.9036 41.1419 34.0269C41.2155 34.1503 41.2522 34.3017 41.2522 34.4812C41.2522 34.688 41.198 34.875 41.0896 35.042C40.9824 35.209 40.8254 35.3417 40.6185 35.4401C40.4129 35.5386 40.163 35.5878 39.8689 35.5878C39.5948 35.5878 39.3574 35.5436 39.1567 35.4551C38.9573 35.3666 38.8003 35.2432 38.6857 35.085C38.5723 34.9267 38.5081 34.7429 38.4931 34.5335H38.9717C38.9841 34.6781 39.0327 34.7977 39.1175 34.8924C39.2035 34.9859 39.3119 35.0557 39.4427 35.1018C39.5748 35.1466 39.7169 35.1691 39.8689 35.1691C40.0459 35.1691 40.2048 35.1404 40.3456 35.0831C40.4864 35.0245 40.598 34.9435 40.6802 34.8401C40.7625 34.7354 40.8036 34.6133 40.8036 34.4737C40.8036 34.3466 40.7681 34.2432 40.697 34.1634C40.626 34.0836 40.5325 34.0188 40.4166 33.969C40.3008 33.9191 40.1755 33.8755 40.0409 33.8381L39.5699 33.7035C39.2708 33.6176 39.034 33.4948 38.8595 33.3353C38.685 33.1758 38.5978 32.967 38.5978 32.7091C38.5978 32.4947 38.6558 32.3078 38.7717 32.1483C38.8888 31.9875 39.0458 31.8629 39.2427 31.7744C39.4409 31.6847 39.6621 31.6398 39.9063 31.6398C40.1531 31.6398 40.3724 31.6841 40.5643 31.7726C40.7562 31.8598 40.9083 31.9794 41.0204 32.1315C41.1338 32.2835 41.1937 32.4561 41.1999 32.6493H40.7513ZM41.8051 32.1034V31.6922H44.6763V32.1034H43.4725V35.5205H43.0089V32.1034H41.8051ZM45.8554 31.6922V35.5205H45.3918V31.6922H45.8554ZM49.8655 32.8885H49.4019C49.3745 32.7552 49.3265 32.638 49.258 32.5371C49.1907 32.4362 49.1084 32.3514 49.0112 32.2829C48.9153 32.2131 48.8087 32.1607 48.6916 32.1259C48.5744 32.091 48.4523 32.0735 48.3252 32.0735C48.0934 32.0735 47.8834 32.1321 47.6952 32.2492C47.5083 32.3664 47.3594 32.539 47.2485 32.767C47.1388 32.9951 47.084 33.2749 47.084 33.6063C47.084 33.9378 47.1388 34.2176 47.2485 34.4457C47.3594 34.6737 47.5083 34.8463 47.6952 34.9635C47.8834 35.0806 48.0934 35.1392 48.3252 35.1392C48.4523 35.1392 48.5744 35.1217 48.6916 35.0868C48.8087 35.0519 48.9153 35.0002 49.0112 34.9317C49.1084 34.8619 49.1907 34.7765 49.258 34.6756C49.3265 34.5734 49.3745 34.4563 49.4019 34.3242H49.8655C49.8306 34.5198 49.7671 34.6949 49.6748 34.8494C49.5826 35.004 49.468 35.1354 49.3309 35.2439C49.1938 35.351 49.0399 35.4327 48.8692 35.4887C48.6997 35.5448 48.5184 35.5728 48.3252 35.5728C47.9987 35.5728 47.7083 35.4931 47.4541 35.3336C47.1999 35.1741 46.9999 34.9473 46.8541 34.6532C46.7083 34.359 46.6354 34.0101 46.6354 33.6063C46.6354 33.2026 46.7083 32.8536 46.8541 32.5595C46.9999 32.2654 47.1999 32.0386 47.4541 31.8791C47.7083 31.7196 47.9987 31.6398 48.3252 31.6398C48.5184 31.6398 48.6997 31.6679 48.8692 31.724C49.0399 31.78 49.1938 31.8623 49.3309 31.9707C49.468 32.0779 49.5826 32.2087 49.6748 32.3633C49.7671 32.5165 49.8306 32.6916 49.8655 32.8885ZM52.0951 35.5205V31.6922H53.3887C53.689 31.6922 53.9345 31.7464 54.1252 31.8548C54.3171 31.962 54.4592 32.1072 54.5514 32.2904C54.6436 32.4735 54.6897 32.6779 54.6897 32.9035C54.6897 33.129 54.6436 33.334 54.5514 33.5185C54.4604 33.7029 54.3196 33.85 54.1289 33.9596C53.9382 34.0681 53.694 34.1223 53.3961 34.1223H52.469V33.711H53.3812C53.5868 33.711 53.7519 33.6755 53.8766 33.6045C54.0012 33.5334 54.0915 33.4375 54.1476 33.3166C54.2049 33.1945 54.2336 33.0568 54.2336 32.9035C54.2336 32.7502 54.2049 32.6131 54.1476 32.4922C54.0915 32.3714 54.0006 32.2766 53.8747 32.2081C53.7488 32.1383 53.5818 32.1034 53.3737 32.1034H52.5587V35.5205H52.0951ZM55.9001 31.6922V35.5205H55.4365V31.6922H55.9001ZM56.8296 35.5205V31.6922H58.1231C58.4235 31.6922 58.669 31.7464 58.8597 31.8548C59.0516 31.962 59.1936 32.1072 59.2859 32.2904C59.3781 32.4735 59.4242 32.6779 59.4242 32.9035C59.4242 33.129 59.3781 33.334 59.2859 33.5185C59.1949 33.7029 59.0541 33.85 58.8634 33.9596C58.6727 34.0681 58.4285 34.1223 58.1306 34.1223H57.2035V33.711H58.1157C58.3213 33.711 58.4864 33.6755 58.611 33.6045C58.7357 33.5334 58.826 33.4375 58.8821 33.3166C58.9394 33.1945 58.9681 33.0568 58.9681 32.9035C58.9681 32.7502 58.9394 32.6131 58.8821 32.4922C58.826 32.3714 58.735 32.2766 58.6092 32.2081C58.4833 32.1383 58.3163 32.1034 58.1082 32.1034H57.2932V35.5205H56.8296ZM60.171 35.5205V31.6922H62.4814V32.1034H60.6346V33.397H62.3618V33.8082H60.6346V35.1093H62.5113V35.5205H60.171ZM64.0124 35.5205L62.9656 31.6922H63.4366L64.2367 34.8102H64.2741L65.0891 31.6922H65.6125L66.4275 34.8102H66.4649L67.265 31.6922H67.736L66.6892 35.5205H66.2107L65.3658 32.4698H65.3359L64.4909 35.5205H64.0124ZM71.3639 33.6063C71.3639 34.0101 71.291 34.359 71.1452 34.6532C70.9994 34.9473 70.7994 35.1741 70.5451 35.3336C70.2909 35.4931 70.0005 35.5728 69.674 35.5728C69.3475 35.5728 69.0572 35.4931 68.8029 35.3336C68.5487 35.1741 68.3487 34.9473 68.2029 34.6532C68.0571 34.359 67.9842 34.0101 67.9842 33.6063C67.9842 33.2026 68.0571 32.8536 68.2029 32.5595C68.3487 32.2654 68.5487 32.0386 68.8029 31.8791C69.0572 31.7196 69.3475 31.6398 69.674 31.6398C70.0005 31.6398 70.2909 31.7196 70.5451 31.8791C70.7994 32.0386 70.9994 32.2654 71.1452 32.5595C71.291 32.8536 71.3639 33.2026 71.3639 33.6063ZM70.9153 33.6063C70.9153 33.2749 70.8598 32.9951 70.7489 32.767C70.6392 32.539 70.4903 32.3664 70.3021 32.2492C70.1152 32.1321 69.9058 32.0735 69.674 32.0735C69.4422 32.0735 69.2323 32.1321 69.0441 32.2492C68.8572 32.3664 68.7082 32.539 68.5973 32.767C68.4877 32.9951 68.4328 33.2749 68.4328 33.6063C68.4328 33.9378 68.4877 34.2176 68.5973 34.4457C68.7082 34.6737 68.8572 34.8463 69.0441 34.9635C69.2323 35.0806 69.4422 35.1392 69.674 35.1392C69.9058 35.1392 70.1152 35.0806 70.3021 34.9635C70.4903 34.8463 70.6392 34.6737 70.7489 34.4457C70.8598 34.2176 70.9153 33.9378 70.9153 33.6063ZM72.1434 35.5205V31.6922H73.4369C73.736 31.6922 73.9815 31.7433 74.1734 31.8455C74.3654 31.9464 74.5074 32.0854 74.5996 32.2623C74.6919 32.4393 74.738 32.6405 74.738 32.8661C74.738 33.0917 74.6919 33.2917 74.5996 33.4661C74.5074 33.6406 74.366 33.7777 74.1753 33.8774C73.9846 33.9758 73.741 34.0251 73.4444 34.0251H72.3976V33.6063H73.4295C73.6338 33.6063 73.7983 33.5764 73.923 33.5166C74.0488 33.4568 74.1398 33.3721 74.1959 33.2624C74.2532 33.1515 74.2819 33.0194 74.2819 32.8661C74.2819 32.7128 74.2532 32.5788 74.1959 32.4642C74.1386 32.3495 74.047 32.2611 73.9211 32.1988C73.7952 32.1352 73.6289 32.1034 73.422 32.1034H72.607V35.5205H72.1434ZM73.9454 33.8007L74.8875 35.5205H74.3492L73.422 33.8007H73.9454ZM75.5105 35.5205V31.6922H75.9741V33.5914H76.0189L77.7387 31.6922H78.3443L76.7367 33.4194L78.3443 35.5205H77.7835L76.4526 33.7409L75.9741 34.2793V35.5205H75.5105ZM82.5185 32.6493C82.496 32.4598 82.4051 32.3128 82.2456 32.2081C82.086 32.1034 81.8904 32.0511 81.6586 32.0511C81.4891 32.0511 81.3408 32.0785 81.2137 32.1333C81.0878 32.1882 80.9894 32.2636 80.9184 32.3595C80.8486 32.4555 80.8137 32.5645 80.8137 32.6866C80.8137 32.7888 80.838 32.8767 80.8866 32.9502C80.9364 33.0225 81 33.0829 81.0772 33.1315C81.1545 33.1789 81.2355 33.2181 81.3203 33.2493C81.405 33.2792 81.4829 33.3035 81.5539 33.3222L81.9427 33.4269C82.0424 33.4531 82.1533 33.4892 82.2755 33.5353C82.3988 33.5814 82.5166 33.6444 82.6288 33.7241C82.7422 33.8026 82.8356 33.9036 82.9092 34.0269C82.9827 34.1503 83.0195 34.3017 83.0195 34.4812C83.0195 34.688 82.9652 34.875 82.8568 35.042C82.7496 35.209 82.5926 35.3417 82.3858 35.4401C82.1801 35.5386 81.9303 35.5878 81.6362 35.5878C81.362 35.5878 81.1246 35.5436 80.924 35.4551C80.7246 35.3666 80.5676 35.2432 80.4529 35.085C80.3395 34.9267 80.2753 34.7429 80.2604 34.5335H80.7389C80.7514 34.6781 80.8 34.7977 80.8847 34.8924C80.9707 34.9859 81.0791 35.0557 81.21 35.1018C81.3421 35.1466 81.4841 35.1691 81.6362 35.1691C81.8131 35.1691 81.972 35.1404 82.1128 35.0831C82.2537 35.0245 82.3652 34.9435 82.4474 34.8401C82.5297 34.7354 82.5708 34.6133 82.5708 34.4737C82.5708 34.3466 82.5353 34.2432 82.4643 34.1634C82.3932 34.0836 82.2998 34.0188 82.1839 33.969C82.068 33.9191 81.9427 33.8755 81.8081 33.8381L81.3371 33.7035C81.038 33.6176 80.8012 33.4948 80.6267 33.3353C80.4523 33.1758 80.365 32.967 80.365 32.7091C80.365 32.4947 80.423 32.3078 80.5389 32.1483C80.656 31.9875 80.8131 31.8629 81.01 31.7744C81.2081 31.6847 81.4293 31.6398 81.6736 31.6398C81.9203 31.6398 82.1396 31.6841 82.3315 31.7726C82.5235 31.8598 82.6755 31.9794 82.7877 32.1315C82.9011 32.2835 82.9609 32.4561 82.9671 32.6493H82.5185ZM83.4527 31.6922H83.9835L85.0453 33.4792H85.0902L86.1519 31.6922H86.6828L85.2995 33.9428V35.5205H84.836V33.9428L83.4527 31.6922ZM89.376 32.6493C89.3536 32.4598 89.2626 32.3128 89.1031 32.2081C88.9436 32.1034 88.7479 32.0511 88.5161 32.0511C88.3467 32.0511 88.1984 32.0785 88.0712 32.1333C87.9454 32.1882 87.8469 32.2636 87.7759 32.3595C87.7061 32.4555 87.6712 32.5645 87.6712 32.6866C87.6712 32.7888 87.6955 32.8767 87.7441 32.9502C87.794 33.0225 87.8575 33.0829 87.9348 33.1315C88.012 33.1789 88.0931 33.2181 88.1778 33.2493C88.2625 33.2792 88.3404 33.3035 88.4115 33.3222L88.8003 33.4269C88.9 33.4531 89.0109 33.4892 89.133 33.5353C89.2564 33.5814 89.3741 33.6444 89.4863 33.7241C89.5997 33.8026 89.6932 33.9036 89.7667 34.0269C89.8402 34.1503 89.877 34.3017 89.877 34.4812C89.877 34.688 89.8228 34.875 89.7144 35.042C89.6072 35.209 89.4502 35.3417 89.2433 35.4401C89.0377 35.5386 88.7878 35.5878 88.4937 35.5878C88.2195 35.5878 87.9821 35.5436 87.7815 35.4551C87.5821 35.3666 87.4251 35.2432 87.3104 35.085C87.197 34.9267 87.1329 34.7429 87.1179 34.5335H87.5964C87.6089 34.6781 87.6575 34.7977 87.7422 34.8924C87.8282 34.9859 87.9367 35.0557 88.0675 35.1018C88.1996 35.1466 88.3417 35.1691 88.4937 35.1691C88.6707 35.1691 88.8296 35.1404 88.9704 35.0831C89.1112 35.0245 89.2227 34.9435 89.305 34.8401C89.3872 34.7354 89.4284 34.6133 89.4284 34.4737C89.4284 34.3466 89.3928 34.2432 89.3218 34.1634C89.2508 34.0836 89.1573 34.0188 89.0414 33.969C88.9255 33.9191 88.8003 33.8755 88.6657 33.8381L88.1946 33.7035C87.8955 33.6176 87.6587 33.4948 87.4843 33.3353C87.3098 33.1758 87.2226 32.967 87.2226 32.7091C87.2226 32.4947 87.2805 32.3078 87.3964 32.1483C87.5136 31.9875 87.6706 31.8629 87.8675 31.7744C88.0656 31.6847 88.2868 31.6398 88.5311 31.6398C88.7778 31.6398 88.9972 31.6841 89.1891 31.7726C89.381 31.8598 89.533 31.9794 89.6452 32.1315C89.7586 32.2835 89.8184 32.4561 89.8246 32.6493H89.376ZM90.4298 32.1034V31.6922H93.3011V32.1034H92.0973V35.5205H91.6337V32.1034H90.4298ZM94.0166 35.5205V31.6922H96.327V32.1034H94.4802V33.397H96.2074V33.8082H94.4802V35.1093H96.3569V35.5205H94.0166ZM97.1626 31.6922H97.7159L99.0169 34.87H99.0618L100.363 31.6922H100.916V35.5205H100.482V32.6119H100.445L99.2487 35.5205H98.83L97.6337 32.6119H97.5963V35.5205H97.1626V31.6922ZM103.939 32.6493C103.917 32.4598 103.826 32.3128 103.666 32.2081C103.507 32.1034 103.311 32.0511 103.079 32.0511C102.91 32.0511 102.762 32.0785 102.635 32.1333C102.509 32.1882 102.41 32.2636 102.339 32.3595C102.269 32.4555 102.234 32.5645 102.234 32.6866C102.234 32.7888 102.259 32.8767 102.307 32.9502C102.357 33.0225 102.421 33.0829 102.498 33.1315C102.575 33.1789 102.656 33.2181 102.741 33.2493C102.826 33.2792 102.904 33.3035 102.975 33.3222L103.364 33.4269C103.463 33.4531 103.574 33.4892 103.696 33.5353C103.82 33.5814 103.937 33.6444 104.05 33.7241C104.163 33.8026 104.256 33.9036 104.33 34.0269C104.403 34.1503 104.44 34.3017 104.44 34.4812C104.44 34.688 104.386 34.875 104.278 35.042C104.17 35.209 104.013 35.3417 103.807 35.4401C103.601 35.5386 103.351 35.5878 103.057 35.5878C102.783 35.5878 102.545 35.5436 102.345 35.4551C102.145 35.3666 101.988 35.2432 101.874 35.085C101.76 34.9267 101.696 34.7429 101.681 34.5335H102.16C102.172 34.6781 102.221 34.7977 102.306 34.8924C102.392 34.9859 102.5 35.0557 102.631 35.1018C102.763 35.1466 102.905 35.1691 103.057 35.1691C103.234 35.1691 103.393 35.1404 103.534 35.0831C103.674 35.0245 103.786 34.9435 103.868 34.8401C103.951 34.7354 103.992 34.6133 103.992 34.4737C103.992 34.3466 103.956 34.2432 103.885 34.1634C103.814 34.0836 103.721 34.0188 103.605 33.969C103.489 33.9191 103.364 33.8755 103.229 33.8381L102.758 33.7035C102.459 33.6176 102.222 33.4948 102.048 33.3353C101.873 33.1758 101.786 32.967 101.786 32.7091C101.786 32.4947 101.844 32.3078 101.96 32.1483C102.077 31.9875 102.234 31.8629 102.431 31.7744C102.629 31.6847 102.85 31.6398 103.094 31.6398C103.341 31.6398 103.56 31.6841 103.752 31.7726C103.944 31.8598 104.096 31.9794 104.208 32.1315C104.322 32.2835 104.382 32.4561 104.388 32.6493H103.939Z" fill="#B3B3B3"/>
<path d="M22.371 23.1611C22.0554 23.9524 21.9395 24.8092 22.0335 25.6559C22.1466 26.2735 22.3708 26.8655 22.6953 27.403C22.7255 27.4574 22.7414 27.5186 22.7417 27.5809C22.742 27.6432 22.7266 27.7045 22.6969 27.7592C22.6673 27.814 22.6243 27.8603 22.5719 27.8941C22.5196 27.9278 22.4596 27.9478 22.3975 27.9522C20.943 28.042 19.4844 28.042 18.0299 27.9522C15.3034 27.7868 13.9799 27.3765 11.7232 27.6611C10.8235 27.7794 9.93718 27.9833 9.07618 28.2699C9.0068 28.2927 8.93246 28.296 8.86134 28.2793C8.79023 28.2627 8.72509 28.2267 8.67309 28.1754C8.6211 28.1241 8.58427 28.0594 8.56665 27.9885C8.54903 27.9176 8.55132 27.8433 8.57324 27.7736L13.1196 13.3736C12.2586 12.9346 11.5402 12.2598 11.0482 11.428C10.6661 10.8145 10.4389 10.1172 10.3865 9.39637C10.3829 9.36116 10.3888 9.32565 10.4035 9.29348C10.4183 9.26132 10.4414 9.23369 10.4704 9.21344C10.4994 9.1932 10.5333 9.18108 10.5686 9.17833C10.6039 9.17559 10.6392 9.18232 10.671 9.19784C11.5188 9.59626 12.406 9.90457 13.3181 10.1177C15.5681 10.6206 17.1365 10.3427 19.7703 10.1905C21.686 10.0942 23.6053 10.0942 25.521 10.1905C25.8742 10.2524 26.1961 10.432 26.4343 10.7C26.6797 11.0549 26.8028 11.48 26.785 11.9111C26.8022 12.1698 26.7888 12.4297 26.7453 12.6853L31.0732 12.7449C31.2675 12.7328 31.4598 12.7891 31.6169 12.9039C31.774 13.0187 31.886 13.1849 31.9335 13.3736C31.9816 13.5398 31.9935 13.7144 31.9684 13.8857C31.9433 14.0569 31.8817 14.2208 31.7879 14.3662L30.3122 17.4236C30.2868 17.4764 30.25 17.5229 30.2044 17.5598C30.1589 17.5967 30.1057 17.623 30.0488 17.6369C29.9918 17.6509 29.9325 17.652 29.8751 17.6403C29.8177 17.6286 29.7636 17.6043 29.7166 17.5692C29.0139 17.0523 28.1728 16.7573 27.3012 16.7221H27.2681C26.6559 16.7146 26.054 16.8802 25.5318 17.1998C25.0097 17.5194 24.5884 17.9801 24.3166 18.5287C24.1313 18.9059 23.9196 19.3295 23.7012 19.7993C23.1817 20.8883 22.7373 22.0115 22.371 23.1611Z" fill="#B3B3B3"/>
<path d="M24.4161 13.1028V13.4204H22.5499C22.4824 13.6766 22.3295 13.9021 22.1166 14.0597C21.9036 14.2173 21.6433 14.2976 21.3786 14.2873C21.128 14.2721 20.8889 14.1772 20.696 14.0165C20.5032 13.8558 20.3667 13.6377 20.3065 13.394H16.7131V12.666H20.783C20.783 13.255 21.1271 13.6454 21.3918 13.6388C21.6565 13.6322 21.9808 13.2351 21.9411 12.666H24.4028L24.4161 13.1028Z" fill="white"/>
<path d="M30.7075 14.3936C31.0182 14.3936 31.27 14.1417 31.27 13.8311C31.27 13.5204 31.0182 13.2686 30.7075 13.2686C30.3969 13.2686 30.145 13.5204 30.145 13.8311C30.145 14.1417 30.3969 14.3936 30.7075 14.3936Z" fill="white"/>
<path d="M19.0604 23.2348L18.5376 23.8966H19.3847L16.4133 24.9753L18.0611 22.7716L17.5847 22.5003L19.1927 20.515L18.2927 20.065L21.0457 17.6826L19.6361 19.8135L20.3839 20.012L18.9942 22.2819H19.7751L19.0604 23.2348Z" fill="white"/>
<path d="M99.251 9.21191H38.5937C35.9805 9.21191 33.8621 11.3303 33.8621 13.9435V23.5987C33.8621 26.2119 35.9805 28.3303 38.5937 28.3303H99.251C101.864 28.3303 103.983 26.2119 103.983 23.5987V13.9435C103.983 11.3303 101.864 9.21191 99.251 9.21191Z" fill="#B3B3B3"/>
<path d="M44.5495 25.5177H47.7524L42.4583 12.4346H41.009L35.6355 25.5177H37.4818L38.9774 21.6H43.1134L44.5495 25.5177ZM39.4208 20.4353L41.0884 16.0677L42.6899 20.4353H39.4208Z" fill="white"/>
<path d="M67.2289 12.5469H57.4944V14.0292H60.9554V25.5175H63.8407V14.0292H67.2289V12.5469Z" fill="white"/>
<path d="M91.9683 25.5175L87.9977 19.105C88.791 18.9684 89.5072 18.5474 90.0124 17.9208C90.5176 17.2941 90.777 16.5048 90.7421 15.7007C90.7072 14.8965 90.3804 14.1327 89.8228 13.5521C89.2653 12.9716 88.5152 12.6142 87.7132 12.5469H82.2073V19.1182V25.5175H84.9668V19.191L88.547 25.5175H91.9683ZM85.7742 13.6785C86.3727 13.6785 86.9467 13.9162 87.3699 14.3394C87.7931 14.7626 88.0308 15.3366 88.0308 15.9351V16.3785C88.0308 16.977 87.7931 17.551 87.3699 17.9742C86.9467 18.3974 86.3727 18.6351 85.7742 18.6351H84.9602V13.6785H85.7742Z" fill="white"/>
<path d="M99.765 14.0292V12.5469H95.4701H94.7951H92.7437V25.5175H94.7951H95.4701H99.765V24.0285H95.4701V19.3763H99.765V17.8939H95.4701V14.0292H99.765Z" fill="white"/>
<path d="M81.0886 17.7819C81.0886 19.452 80.772 20.8729 80.1389 22.0444C79.5107 23.216 78.6533 24.1109 77.5664 24.729C76.4846 25.3422 75.2682 25.6488 73.9172 25.6488C72.5562 25.6488 71.3347 25.3397 70.2529 24.7216C69.1711 24.1034 68.3161 23.2085 67.688 22.0369C67.0598 20.8654 66.7457 19.447 66.7457 17.7819C66.7457 16.1118 67.0598 14.691 67.688 13.5195C68.3161 12.3479 69.1711 11.4555 70.2529 10.8423C71.3347 10.2241 72.5562 9.91503 73.9172 9.91503C75.2682 9.91503 76.4846 10.2241 77.5664 10.8423C78.6533 11.4555 79.5107 12.3479 80.1389 13.5195C80.772 14.691 81.0886 16.1118 81.0886 17.7819ZM77.8057 17.7819C77.8057 16.7001 77.6437 15.7878 77.3197 15.045C77.0006 14.3022 76.5494 13.7388 75.9661 13.3549C75.3829 12.9711 74.6999 12.7791 73.9172 12.7791C73.1345 12.7791 72.4515 12.9711 71.8682 13.3549C71.2849 13.7388 70.8312 14.3022 70.5072 15.045C70.1881 15.7878 70.0286 16.7001 70.0286 17.7819C70.0286 18.8638 70.1881 19.7761 70.5072 20.5189C70.8312 21.2617 71.2849 21.8251 71.8682 22.2089C72.4515 22.5928 73.1345 22.7847 73.9172 22.7847C74.6999 22.7847 75.3829 22.5928 75.9661 22.2089C76.5494 21.8251 77.0006 21.2617 77.3197 20.5189C77.6437 19.7761 77.8057 18.8638 77.8057 17.7819Z" fill="white"/>
<path d="M52.882 12.0839C53.5359 12.0729 54.1875 12.1622 54.8144 12.3486C55.269 12.4829 55.7064 12.6694 56.118 12.9045C56.3121 13.0192 56.4979 13.1475 56.6739 13.2883L55.8136 14.7177C55.6458 14.5833 55.4713 14.4574 55.2908 14.3405C54.9898 14.1506 54.6649 14.0015 54.3247 13.8972C53.9134 13.7586 53.4814 13.6915 53.0474 13.6986C52.4296 13.665 51.8167 13.8246 51.2938 14.1552C51.0795 14.3009 50.9062 14.499 50.7904 14.7307C50.6745 14.9625 50.62 15.22 50.632 15.4788C50.6282 15.8415 50.7498 16.1945 50.9761 16.478C51.2434 16.7987 51.569 17.0659 51.9357 17.2655C52.346 17.4972 52.8291 17.742 53.3783 17.9935C53.8327 18.1866 54.2747 18.4076 54.7019 18.6552C55.1321 18.9008 55.5319 19.1962 55.893 19.5354C56.26 19.8637 56.561 20.259 56.7798 20.7001C57.0004 21.1912 57.1144 21.7235 57.1144 22.2619C57.1144 22.8002 57.0004 23.3325 56.7798 23.8236C56.5558 24.2799 56.2297 24.6784 55.8269 24.9883C55.3991 25.3221 54.9118 25.5714 54.3908 25.7229C53.8208 25.8989 53.2271 25.9859 52.6305 25.981C51.9024 25.9876 51.1775 25.885 50.4798 25.6766C49.9446 25.5092 49.4279 25.2875 48.9379 25.0148C48.7086 24.8925 48.4876 24.7555 48.2761 24.6045L49.1894 23.1089C49.3267 23.2217 49.4728 23.3235 49.6261 23.4133C49.8636 23.5628 50.1088 23.6998 50.3607 23.8236C50.6983 23.9725 51.0481 24.0921 51.4063 24.181C51.811 24.2814 52.2268 24.3303 52.6438 24.3266C53.3582 24.3777 54.0661 24.1606 54.6291 23.7177C54.847 23.5232 55.0193 23.2829 55.1337 23.0141C55.2481 22.7453 55.3017 22.4545 55.2908 22.1626C55.3017 21.7045 55.1466 21.2579 54.8541 20.9052C54.5315 20.5218 54.1412 20.201 53.7026 19.9589C53.2261 19.6876 52.6967 19.4163 52.121 19.1582C51.5569 18.9003 51.0147 18.5971 50.4997 18.2516C50.0241 17.9416 49.6184 17.5359 49.3085 17.0604C49.0004 16.5551 48.8464 15.971 48.8651 15.3795C48.8536 14.7673 49.0418 14.168 49.4011 13.6722C49.7725 13.1666 50.2699 12.7673 50.8438 12.5141C51.4832 12.2223 52.1792 12.0754 52.882 12.0839Z" fill="white"/>
</svg>
