<svg width="110" height="45" viewBox="0 0 110 45" fill="none" xmlns="http://www.w3.org/2000/svg">
<path d="M22.084 11.3896H26.8752C29.5222 11.3896 30.5347 13.0374 30.5347 14.7382C30.5794 15.2933 30.4732 15.8502 30.2274 16.3499C29.9816 16.8496 29.6053 17.2737 29.1384 17.5771C29.685 17.8521 30.1388 18.2815 30.4435 18.8121C30.7482 19.3427 30.8904 19.951 30.8524 20.5617C30.886 21.0762 30.8114 21.592 30.6333 22.0759C30.4551 22.5597 30.1775 23.0008 29.8182 23.3706C29.459 23.7404 29.0262 24.0308 28.5477 24.2229C28.0693 24.415 27.5558 24.5047 27.0406 24.486H22.084V11.3896ZM26.6038 16.5448C26.8144 16.5775 27.0297 16.5613 27.233 16.4975C27.4363 16.4337 27.6223 16.324 27.7764 16.1769C27.9306 16.0298 28.0489 15.8491 28.1221 15.649C28.1953 15.4489 28.2215 15.2346 28.1987 15.0227C28.2138 14.8219 28.1843 14.6202 28.1121 14.4322C28.04 14.2442 27.9271 14.0744 27.7816 13.9352C27.6361 13.796 27.4615 13.6908 27.2704 13.6271C27.0794 13.5634 26.8766 13.5428 26.6766 13.5669H24.4134V16.5448H26.6038ZM24.4134 22.2889H26.5509C27.8347 22.2889 28.4171 21.6271 28.4171 20.4624C28.4171 19.4102 27.848 18.7352 26.5377 18.7352H24.4134V22.2889Z" fill="#CCCCCC"/>
<path d="M32.8325 11.3896H35.2083V22.1632H40.6744L40.4031 24.486H32.8325V11.3896Z" fill="#CCCCCC"/>
<path d="M44.2079 11.3896V19.1919C44.2079 21.7066 45.2866 22.4477 46.4712 22.4477C47.7947 22.4477 48.6815 21.5676 48.6815 19.1919V11.3896H51.0572V19.0529C51.0572 23.5264 48.8601 24.6713 46.4248 24.6713C43.9895 24.6713 41.7925 23.4801 41.7925 19.1058V11.3896H44.2079Z" fill="#CCCCCC"/>
<path d="M62.851 20.4482C62.4143 22.8902 60.8657 24.6703 58.1194 24.6703C54.6385 24.6703 52.9907 21.7321 52.9907 18.0063C52.9907 14.413 54.6915 11.1968 58.2319 11.1968C61.1569 11.1968 62.5731 13.2416 62.8643 15.4321H60.4687C60.237 14.4262 59.6481 13.4468 58.1591 13.4468C56.1738 13.4468 55.4459 15.5446 55.4459 17.9269C55.4459 20.1438 56.1076 22.4732 58.2187 22.4732C59.7672 22.4732 60.2569 21.2357 60.462 20.488L62.851 20.4482Z" fill="#CCCCCC"/>
<path d="M64.98 11.3896H67.369V16.4985H71.7829V11.3896H74.1587V24.486H71.7829V18.8146H67.369V24.486H64.98V11.3896Z" fill="#CCCCCC"/>
<path d="M84.3183 18.8345H79.0705V22.1433H84.861L84.5764 24.486H76.7676V11.3896H84.5764V13.7124H79.097V16.5448H84.3448L84.3183 18.8345Z" fill="#CCCCCC"/>
<path d="M88.9221 19.2444V24.4855H86.606V11.3892H91.4302C91.9161 11.3496 92.4048 11.4147 92.8633 11.58C93.3219 11.7454 93.7397 12.0072 94.0884 12.3478C94.4372 12.6884 94.7088 13.0998 94.885 13.5544C95.0611 14.0089 95.1377 14.4959 95.1096 14.9826C95.1096 16.7429 94.3089 17.6892 93.5148 18.0796C94.0574 18.3179 94.878 18.9995 94.878 21.3421V22.0039C94.8462 22.841 94.8994 23.6791 95.0368 24.5054H92.7868C92.5801 23.5383 92.5044 22.5478 92.5618 21.5605V21.3686C92.5618 19.9392 92.2574 19.2642 90.4839 19.2642L88.9221 19.2444ZM88.9221 16.9877H90.9074C92.231 16.9877 92.7074 16.3988 92.7074 15.3002C92.7312 15.0693 92.7018 14.8359 92.6215 14.618C92.5413 14.4002 92.4122 14.2036 92.2442 14.0432C92.0762 13.8829 91.8738 13.7632 91.6524 13.6932C91.4311 13.6231 91.1966 13.6047 90.967 13.6392H88.9155L88.9221 16.9877Z" fill="#CCCCCC"/>
<path d="M55.9001 38.3824L54.8413 33.75H55.8009C56.1913 35.8809 56.37 36.8272 56.4163 37.3368C56.5751 36.4831 56.9788 34.8684 57.2237 33.75H58.0376C58.2494 34.6368 58.6994 36.4368 58.8053 37.2904C59.1229 36.2779 59.5928 34.4713 59.7913 33.75H60.956L59.4935 38.3824H58.3222C58.1038 37.3566 57.7332 35.8544 57.5876 35.0735C57.4354 35.9007 57.0648 37.4625 56.8398 38.3824H55.9001Z" fill="#CCCCCC"/>
<path d="M61.4129 37.3368L61.0952 38.3824H59.9702L61.4129 33.75H62.7364L64.2121 38.3824H63.2857L62.9415 37.3103L61.4129 37.3368ZM62.7364 36.5162C62.4386 35.5368 62.2533 34.9081 62.154 34.4912C62.0482 34.9478 61.843 35.6757 61.6048 36.5162H62.7364Z" fill="#CCCCCC"/>
<path d="M70.8094 33.7627V34.5899H69.4395V38.4017H68.4535V34.5899H65.9652V38.4017H65.0586V34.5899H63.8013V33.7627H70.8094Z" fill="#CCCCCC"/>
<path d="M72.1835 36.8801C72.2146 37.0835 72.3241 37.2667 72.4886 37.3904C72.6531 37.514 72.8595 37.5684 73.0636 37.5418C73.5401 37.5418 73.7254 37.3301 73.7254 36.9926C73.7254 36.6551 73.5202 36.4499 72.8121 36.2646C71.6739 35.9668 71.396 35.5102 71.396 34.8815C71.3936 34.689 71.4333 34.4983 71.5123 34.3228C71.5912 34.1472 71.7075 33.9909 71.8531 33.8649C71.9986 33.7389 72.1699 33.6462 72.355 33.5932C72.5401 33.5401 72.7345 33.5281 72.9246 33.558C73.118 33.5342 73.3142 33.5499 73.5013 33.6043C73.6884 33.6587 73.8624 33.7507 74.0129 33.8745C74.1633 33.9983 74.287 34.1514 74.3764 34.3245C74.4657 34.4977 74.5189 34.6872 74.5327 34.8815H73.6526C73.6443 34.7945 73.6189 34.7099 73.5777 34.6327C73.5366 34.5555 73.4805 34.4873 73.4128 34.4319C73.3452 34.3765 73.2672 34.3351 73.1834 34.3101C73.0996 34.285 73.0116 34.2768 72.9246 34.2859C72.5607 34.2859 72.3423 34.4514 72.3423 34.7823C72.3423 35.1132 72.521 35.2323 73.1894 35.444C74.4004 35.7617 74.6717 36.2646 74.6717 36.9198C74.6717 37.7668 74.096 38.3426 72.9908 38.3426C72.784 38.3663 72.5746 38.3479 72.3751 38.2886C72.1756 38.2292 71.9902 38.1301 71.83 37.9971C71.6699 37.8642 71.5383 37.7002 71.4433 37.515C71.3482 37.3299 71.2916 37.1274 71.2769 36.9198L72.1835 36.8801Z" fill="#CCCCCC"/>
<path d="M49.9173 37.0582L49.1959 38.3817H48.5342L50.9761 33.6567H51.7437L52.5776 38.3817H51.9158L51.6908 37.0582H49.9173ZM51.6048 36.3964C51.3996 35.1854 51.2937 34.5369 51.2607 34.2126C51.1217 34.5567 50.7445 35.3244 50.2018 36.3964H51.6048Z" fill="#CCCCCC"/>
<path d="M78.0866 33.6698H79.8667C80.0236 33.6492 80.183 33.6634 80.3338 33.7113C80.4846 33.7592 80.6229 33.8397 80.7391 33.947C80.8553 34.0544 80.9465 34.186 81.0061 34.3325C81.0658 34.479 81.0925 34.6368 81.0844 34.7948C81.0997 35.0456 81.0286 35.2941 80.8829 35.4989C80.7372 35.7036 80.5257 35.8522 80.2836 35.9198C80.4727 36.0036 80.632 36.1427 80.7406 36.3186C80.8493 36.4946 80.9022 36.6993 80.8925 36.9058C80.8955 37.1179 80.8526 37.328 80.7667 37.5219C80.6808 37.7158 80.554 37.8888 80.3949 38.029C80.2358 38.1692 80.0483 38.2733 79.8452 38.3342C79.6421 38.395 79.4282 38.4112 79.2182 38.3816H77.2329L78.0866 33.6698ZM77.9542 37.7926H79.1917C79.7211 37.7926 80.2109 37.5808 80.2109 36.9257C80.2109 36.4691 79.9263 36.1911 79.3506 36.1911H78.2454L77.9542 37.7926ZM79.4895 35.5956C80.052 35.5956 80.4028 35.4235 80.4028 34.8808C80.4028 34.497 80.1778 34.272 79.6814 34.272H78.616L78.3778 35.5956H79.4895Z" fill="#CCCCCC"/>
<path d="M81.8156 35.9996C81.8751 35.6687 81.9479 35.3379 81.9876 35.0004H82.5898C82.5898 35.1129 82.5303 35.457 82.4773 35.7482C82.5618 35.5076 82.7197 35.2997 82.9286 35.1537C83.1376 35.0076 83.3871 34.9309 83.642 34.9342L83.4965 35.6423C82.8347 35.6423 82.4244 36.1121 82.2457 37.0849L82.0141 38.4085H81.4053L81.8156 35.9996Z" fill="#CCCCCC"/>
<path d="M86.3271 37.4097C86.2345 37.9126 86.1815 38.2369 86.1683 38.3957H85.5661C85.5797 38.2289 85.604 38.0631 85.6389 37.8994C85.5283 38.0942 85.3642 38.2533 85.1659 38.3576C84.9677 38.462 84.7437 38.5074 84.5205 38.4883C84.3883 38.499 84.2553 38.4811 84.1305 38.436C84.0058 38.3908 83.8922 38.3194 83.7975 38.2265C83.7027 38.1337 83.6291 38.0215 83.5814 37.8977C83.5337 37.7739 83.5132 37.6413 83.5212 37.5089C83.5212 36.4832 84.494 36.3442 85.0896 36.278C85.3212 36.278 85.7117 36.278 85.93 36.278V36.1788C85.9962 35.8148 85.8903 35.4707 85.2683 35.4707C84.805 35.4707 84.6065 35.6494 84.4874 35.9869H83.9117C83.9622 35.6598 84.1404 35.3661 84.4071 35.1701C84.6737 34.9742 85.0072 34.8919 85.3345 34.9413C86.433 34.9413 86.658 35.603 86.5256 36.2648L86.3271 37.4097ZM85.844 36.7479C85.5396 36.7479 85.3014 36.7479 85.083 36.7876C84.633 36.8339 84.1499 36.9464 84.1499 37.4494C84.1499 37.7405 84.3484 37.9324 84.7124 37.9324C85.3742 37.9324 85.6786 37.5486 85.8308 36.8207L85.844 36.7479Z" fill="#CCCCCC"/>
<path d="M87.4713 35.8606C87.5242 35.5695 87.5772 35.2518 87.6169 35.0004H88.2124C88.2124 35.1724 88.1595 35.404 88.1264 35.5827C88.2276 35.3822 88.3829 35.2139 88.5746 35.097C88.7664 34.98 88.9871 34.9191 89.2117 34.9209C89.8735 34.9209 90.2771 35.3379 90.0852 36.4099L89.7213 38.3952H89.1124L89.4698 36.4099C89.5624 35.8937 89.4698 35.4901 88.9536 35.4901C88.4374 35.4901 88.0404 36.0327 87.9014 36.8136L87.6169 38.382H87.0146L87.4713 35.8606Z" fill="#CCCCCC"/>
<path d="M94.3211 33.3931L93.58 37.4364C93.527 37.7541 93.4675 38.0982 93.4145 38.396H92.8388C92.851 38.2451 92.8709 38.0949 92.8983 37.946C92.7964 38.1259 92.6448 38.2727 92.4618 38.3689C92.2788 38.4651 92.072 38.5067 91.866 38.4887C91.105 38.4887 90.6748 37.86 90.6748 36.9666C90.6748 35.8945 91.3366 34.9085 92.3358 34.9085C92.5429 34.8848 92.7521 34.9287 92.9322 35.0336C93.1123 35.1386 93.2536 35.299 93.3351 35.4909L93.7123 33.3931H94.3211ZM91.3035 36.907C91.3035 37.5026 91.5682 37.8997 92.0645 37.8997C92.6866 37.8997 93.0174 37.41 93.1233 36.7813C93.2755 35.9342 93.0042 35.4975 92.3557 35.4975C91.7072 35.4975 91.3035 36.1725 91.3035 36.907Z" fill="#CCCCCC"/>
<path d="M96.0671 13.4676C96.0762 13.1805 96.1697 12.9024 96.3358 12.668C96.502 12.4337 96.7334 12.2535 97.0013 12.1499C97.2692 12.0462 97.5617 12.0238 97.8423 12.0854C98.1229 12.1469 98.3791 12.2897 98.5791 12.496C98.779 12.7022 98.9137 12.9628 98.9665 13.2452C99.0193 13.5275 98.9878 13.8192 98.8758 14.0837C98.7639 14.3483 98.5765 14.574 98.3371 14.7328C98.0977 14.8915 97.8169 14.9762 97.5296 14.9764C97.3336 14.9765 97.1396 14.9372 96.9591 14.8608C96.7785 14.7844 96.6152 14.6725 96.4788 14.5318C96.3423 14.391 96.2356 14.2243 96.1649 14.0415C96.0942 13.8586 96.0609 13.6635 96.0671 13.4676ZM97.523 15.2742C97.8792 15.269 98.2258 15.1586 98.5194 14.9569C98.813 14.7553 99.0404 14.4713 99.1731 14.1408C99.3058 13.8102 99.3378 13.4478 99.2652 13.0992C99.1925 12.7505 99.0184 12.431 98.7647 12.181C98.511 11.931 98.1891 11.7616 97.8394 11.694C97.4897 11.6264 97.1278 11.6637 96.7992 11.8011C96.4706 11.9386 96.19 12.1702 95.9927 12.4667C95.7953 12.7632 95.69 13.1114 95.6899 13.4676C95.6899 13.7071 95.7375 13.9442 95.8299 14.1651C95.9224 14.386 96.0578 14.5864 96.2284 14.7545C96.399 14.9226 96.6013 15.0551 96.8235 15.1443C97.0458 15.2335 97.2836 15.2777 97.523 15.2742ZM97.1458 13.6131H97.5098L98.0591 14.5131H98.4164L97.8076 13.5933C97.8809 13.5934 97.9534 13.5786 98.0207 13.5496C98.0879 13.5206 98.1486 13.4781 98.1988 13.4248C98.249 13.3714 98.2878 13.3084 98.3127 13.2395C98.3376 13.1706 98.3481 13.0973 98.3436 13.0242C98.3436 12.6139 98.0988 12.4286 97.6091 12.4286H96.8149V14.5065H97.1458V13.6131ZM97.1458 13.3418V12.6801H97.5826C97.801 12.6801 98.0458 12.733 98.0458 12.9845C98.0458 13.2359 97.801 13.322 97.5296 13.322L97.1458 13.3418Z" fill="#CCCCCC"/>
<path d="M45.7666 9.22562C46.4939 9.22562 47.0835 8.63602 47.0835 7.90871C47.0835 7.1814 46.4939 6.5918 45.7666 6.5918C45.0393 6.5918 44.4497 7.1814 44.4497 7.90871C44.4497 8.63602 45.0393 9.22562 45.7666 9.22562Z" fill="#CCCCCC"/>
<path d="M48.9771 9.22562C49.7044 9.22562 50.294 8.63602 50.294 7.90871C50.294 7.1814 49.7044 6.5918 48.9771 6.5918C48.2498 6.5918 47.6602 7.1814 47.6602 7.90871C47.6602 8.63602 48.2498 9.22562 48.9771 9.22562Z" fill="#CCCCCC"/>
</svg>
