<svg width="110" height="45" viewBox="0 0 110 45" fill="none" xmlns="http://www.w3.org/2000/svg">
<path d="M101.217 32.2411C101.226 32.1125 101.273 31.9894 101.351 31.8869C101.429 31.7843 101.535 31.7067 101.656 31.6637C101.778 31.6206 101.909 31.6139 102.034 31.6445C102.159 31.675 102.273 31.7414 102.361 31.8355C102.449 31.9297 102.507 32.0474 102.529 32.1744C102.551 32.3013 102.536 32.4319 102.485 32.5502C102.434 32.6684 102.349 32.7692 102.241 32.84C102.134 32.9109 102.008 32.9488 101.879 32.9491C101.788 32.9494 101.698 32.9308 101.615 32.8947C101.531 32.8586 101.456 32.8057 101.394 32.7392C101.332 32.6728 101.284 32.5943 101.254 32.5085C101.223 32.4228 101.211 32.3318 101.217 32.2411ZM101.879 33.0815C101.991 33.0832 102.101 33.0628 102.205 33.0214C102.308 32.9799 102.402 32.9183 102.482 32.8401C102.561 32.7618 102.624 32.6686 102.668 32.5658C102.711 32.4629 102.733 32.3525 102.733 32.2411C102.734 32.0714 102.685 31.9052 102.591 31.7636C102.498 31.6221 102.364 31.5117 102.207 31.4464C102.051 31.3812 101.878 31.3642 101.712 31.3974C101.545 31.4307 101.393 31.5128 101.273 31.6333C101.154 31.7537 101.073 31.9071 101.041 32.0737C101.009 32.2403 101.027 32.4127 101.094 32.5689C101.16 32.725 101.272 32.8578 101.414 32.9503C101.556 33.0427 101.723 33.0907 101.892 33.0881M101.72 32.3205H101.886L102.144 32.7374H102.309L102.031 32.3138C102.066 32.314 102.1 32.3069 102.132 32.293C102.164 32.2791 102.193 32.2588 102.216 32.2333C102.24 32.2078 102.258 32.1777 102.27 32.1449C102.281 32.112 102.285 32.0772 102.283 32.0425C102.283 31.8572 102.17 31.7712 101.939 31.7712H101.575V32.7374H101.72V32.3205ZM101.72 32.1947V31.8969H101.919C102.018 31.8969 102.131 31.8969 102.131 32.0359C102.131 32.1749 102.018 32.1947 101.892 32.1947H101.72Z" fill="#B3B3B3"/>
<path d="M93.1775 33.1803C95.1618 33.1856 97.103 32.6019 98.7554 31.5031C100.408 30.4044 101.697 28.84 102.46 27.0081C103.222 25.1763 103.424 23.1593 103.04 21.2125C102.655 19.2658 101.702 17.4769 100.3 16.0724C98.8985 14.6679 97.1115 13.7109 95.1656 13.3227C93.2196 12.9344 91.2022 13.1324 89.3688 13.8914C87.5354 14.6505 85.9685 15.9365 84.8665 17.5867C83.7645 19.2368 83.1769 21.1769 83.1782 23.1612C83.1817 25.814 84.2357 28.3573 86.1096 30.235C87.9835 32.1126 90.5248 33.1716 93.1775 33.1803Z" fill="#B3B3B3"/>
<path d="M93.1756 33.2596C91.1763 33.2544 89.2234 32.6566 87.5637 31.5417C85.904 30.4269 84.6121 28.845 83.8512 26.9961C83.0903 25.1472 82.8946 23.1142 83.2888 21.1541C83.6831 19.194 84.6495 17.3948 86.066 15.9838C87.4826 14.5728 89.2856 13.6134 91.2472 13.2269C93.2089 12.8404 95.2411 13.044 97.087 13.8122C98.9329 14.5803 100.51 15.8784 101.618 17.5425C102.726 19.2065 103.316 21.1618 103.314 23.1611C103.311 24.4899 103.047 25.8051 102.536 27.0317C102.025 28.2584 101.278 29.3723 100.336 30.3101C99.3948 31.2478 98.2779 31.9909 97.0493 32.497C95.8207 33.0031 94.5044 33.2622 93.1756 33.2596ZM93.1756 13.2346C91.2124 13.2346 89.2932 13.8168 87.6608 14.9075C86.0284 15.9983 84.7561 17.5486 84.0048 19.3624C83.2535 21.1762 83.0569 23.1721 83.4399 25.0977C83.8229 27.0232 84.7683 28.7919 86.1566 30.1802C87.5448 31.5684 89.3135 32.5138 91.2391 32.8968C93.1646 33.2799 95.1605 33.0833 96.9743 32.332C98.7881 31.5807 100.338 30.3084 101.429 28.676C102.52 27.0436 103.102 25.1244 103.102 23.1611C103.093 20.5311 102.045 18.0114 100.185 16.1517C98.3254 14.292 95.8056 13.2434 93.1756 13.2346Z" fill="white"/>
<path d="M89.5503 15.1349C89.6033 15.1324 89.6553 15.1194 89.7033 15.0967C89.7513 15.0741 89.7944 15.0421 89.83 15.0028C89.8657 14.9634 89.8932 14.9175 89.9111 14.8675C89.9289 14.8175 89.9367 14.7644 89.9341 14.7114C89.9395 14.6036 89.9023 14.4981 89.8304 14.4176C89.7586 14.337 89.6579 14.2881 89.5503 14.2812C89.4966 14.2838 89.444 14.297 89.3956 14.3201C89.3471 14.3431 89.3037 14.3757 89.268 14.4157C89.2323 14.4558 89.2049 14.5026 89.1874 14.5533C89.17 14.6041 89.1628 14.6578 89.1664 14.7114C89.1628 14.7646 89.17 14.818 89.1875 14.8684C89.2051 14.9188 89.2325 14.9652 89.2684 15.0047C89.3042 15.0442 89.3476 15.0761 89.396 15.0985C89.4445 15.1209 89.4969 15.1333 89.5503 15.1349Z" fill="white"/>
<path d="M88.6758 15.7761C88.7289 15.7736 88.7809 15.7606 88.8289 15.7379C88.8769 15.7152 88.92 15.6833 88.9556 15.644C88.9913 15.6046 89.0188 15.5586 89.0367 15.5086C89.0545 15.4586 89.0623 15.4056 89.0597 15.3526C89.0597 15.3022 89.0497 15.2523 89.0305 15.2057C89.0112 15.1591 88.9829 15.1168 88.9472 15.0812C88.9116 15.0455 88.8693 15.0173 88.8227 14.998C88.7762 14.9787 88.7262 14.9688 88.6758 14.9688C88.6254 14.9688 88.5755 14.9787 88.529 14.998C88.4824 15.0173 88.4401 15.0455 88.4044 15.0812C88.3688 15.1168 88.3405 15.1591 88.3212 15.2057C88.3019 15.2523 88.292 15.3022 88.292 15.3526C88.2893 15.4056 88.2972 15.4586 88.315 15.5086C88.3329 15.5586 88.3604 15.6046 88.3961 15.644C88.4317 15.6833 88.4748 15.7152 88.5228 15.7379C88.5708 15.7606 88.6228 15.7736 88.6758 15.7761Z" fill="white"/>
<path d="M87.7031 16.5439C87.8172 16.5439 87.9266 16.4986 88.0073 16.4179C88.0879 16.3372 88.1332 16.2278 88.1332 16.1137C88.1332 15.9997 88.0879 15.8902 88.0073 15.8096C87.9266 15.7289 87.8172 15.6836 87.7031 15.6836C87.589 15.6836 87.4796 15.7289 87.3989 15.8096C87.3183 15.8902 87.2729 15.9997 87.2729 16.1137C87.2729 16.2278 87.3183 16.3372 87.3989 16.4179C87.4796 16.4986 87.589 16.5439 87.7031 16.5439Z" fill="white"/>
<path d="M86.8091 17.4443C86.9231 17.4443 87.0325 17.399 87.1132 17.3183C87.1939 17.2376 87.2392 17.1282 87.2392 17.0141C87.2392 16.9 87.1939 16.7906 87.1132 16.71C87.0325 16.6293 86.9231 16.584 86.8091 16.584C86.695 16.584 86.5856 16.6293 86.5049 16.71C86.4242 16.7906 86.3789 16.9 86.3789 17.0141C86.3789 17.1282 86.4242 17.2376 86.5049 17.3183C86.5856 17.399 86.695 17.4443 86.8091 17.4443Z" fill="white"/>
<path d="M85.9902 18.4298C86.0432 18.4272 86.0952 18.4142 86.1432 18.3916C86.1912 18.3689 86.2343 18.337 86.2699 18.2976C86.3056 18.2583 86.3331 18.2123 86.351 18.1623C86.3688 18.1123 86.3767 18.0592 86.374 18.0062C86.3663 17.9325 86.3375 17.8626 86.2909 17.8049C86.2443 17.7472 86.1821 17.7042 86.1116 17.6811C86.0412 17.6581 85.9655 17.6559 85.8939 17.6749C85.8222 17.6939 85.7576 17.7333 85.7078 17.7882C85.658 17.8431 85.6252 17.9113 85.6134 17.9845C85.6015 18.0576 85.611 18.1327 85.6409 18.2005C85.6708 18.2684 85.7196 18.3261 85.7816 18.3668C85.8436 18.4075 85.916 18.4294 85.9902 18.4298Z" fill="white"/>
<path d="M85.2695 19.5219C85.3559 19.5312 85.4432 19.5142 85.5197 19.4729C85.5963 19.4317 85.6586 19.3683 85.6983 19.291C85.7381 19.2136 85.7535 19.1261 85.7425 19.0398C85.7315 18.9536 85.6946 18.8727 85.6368 18.8078C85.5789 18.7429 85.5027 18.6971 85.4182 18.6764C85.3338 18.6557 85.2451 18.6611 85.1637 18.6918C85.0824 18.7226 85.0123 18.7772 84.9626 18.8486C84.913 18.92 84.8862 19.0048 84.8857 19.0917C84.8821 19.1453 84.8892 19.199 84.9067 19.2498C84.9241 19.3006 84.9515 19.3473 84.9872 19.3874C85.023 19.4274 85.0664 19.46 85.1148 19.4831C85.1633 19.5061 85.2159 19.5193 85.2695 19.5219Z" fill="white"/>
<path d="M84.6796 20.7324C84.7873 20.7255 84.888 20.6766 84.9598 20.5961C85.0317 20.5155 85.0689 20.41 85.0635 20.3022C85.0689 20.1945 85.0317 20.0889 84.9598 20.0084C84.888 19.9279 84.7873 19.8789 84.6796 19.8721C84.572 19.8789 84.4713 19.9279 84.3995 20.0084C84.3276 20.0889 84.2904 20.1945 84.2958 20.3022C84.2922 20.3558 84.2994 20.4095 84.3168 20.4603C84.3343 20.5111 84.3617 20.5578 84.3974 20.5979C84.4331 20.6379 84.4765 20.6705 84.525 20.6936C84.5734 20.7167 84.626 20.7298 84.6796 20.7324Z" fill="white"/>
<path d="M84.2554 22.2748C84.3421 22.2842 84.4297 22.267 84.5064 22.2255C84.5831 22.184 84.6454 22.1201 84.685 22.0424C84.7246 21.9647 84.7396 21.8768 84.7281 21.7903C84.7166 21.7038 84.679 21.6229 84.6205 21.5583C84.5619 21.4937 84.485 21.4484 84.4001 21.4284C84.3152 21.4084 84.2262 21.4148 84.145 21.4466C84.0638 21.4783 83.9941 21.5341 83.9453 21.6063C83.8965 21.6786 83.8708 21.764 83.8716 21.8513C83.8689 21.9043 83.8767 21.9573 83.8946 22.0073C83.9125 22.0573 83.94 22.1033 83.9756 22.1427C84.0113 22.182 84.0544 22.2139 84.1024 22.2366C84.1504 22.2593 84.2024 22.2722 84.2554 22.2748Z" fill="white"/>
<path d="M90.2119 15.7626C90.3196 15.7558 90.4202 15.7068 90.4921 15.6263C90.5639 15.5458 90.6011 15.4403 90.5957 15.3325C90.5994 15.2252 90.5616 15.1205 90.4901 15.0404C90.4186 14.9603 90.3189 14.9108 90.2119 14.9023C90.1582 14.9049 90.1057 14.9181 90.0572 14.9411C90.0087 14.9642 89.9654 14.9968 89.9296 15.0368C89.8939 15.0769 89.8665 15.1236 89.8491 15.1744C89.8316 15.2252 89.8245 15.2789 89.828 15.3325C89.8226 15.4403 89.8598 15.5458 89.9317 15.6263C90.0035 15.7068 90.1042 15.7558 90.2119 15.7626Z" fill="white"/>
<path d="M89.2441 16.5439C89.3518 16.5371 89.4525 16.4881 89.5243 16.4076C89.5961 16.3271 89.6334 16.2215 89.6279 16.1137C89.6317 16.0064 89.5939 15.9018 89.5224 15.8216C89.4508 15.7415 89.3512 15.6921 89.2441 15.6836C89.13 15.6836 89.0206 15.7289 88.94 15.8096C88.8593 15.8902 88.814 15.9997 88.814 16.1137C88.814 16.2278 88.8593 16.3372 88.94 16.4179C89.0206 16.4986 89.13 16.5439 89.2441 16.5439Z" fill="white"/>
<path d="M90.0156 17.2785C90.1196 17.2655 90.2154 17.215 90.2848 17.1364C90.3542 17.0578 90.3925 16.9565 90.3925 16.8516C90.3925 16.7468 90.3542 16.6455 90.2848 16.5669C90.2154 16.4883 90.1196 16.4378 90.0156 16.4248C89.9623 16.4265 89.9098 16.4388 89.8614 16.4612C89.8129 16.4836 89.7695 16.5155 89.7337 16.555C89.6979 16.5946 89.6704 16.6409 89.6529 16.6913C89.6354 16.7417 89.6282 16.7951 89.6318 16.8483C89.6263 16.9561 89.6635 17.0617 89.7354 17.1422C89.8072 17.2227 89.9079 17.2717 90.0156 17.2785Z" fill="white"/>
<path d="M91.1113 17.7224C91.1643 17.7198 91.2163 17.7069 91.2643 17.6842C91.3123 17.6615 91.3554 17.6296 91.3911 17.5903C91.4267 17.5509 91.4543 17.5049 91.4721 17.4549C91.49 17.4049 91.4978 17.3519 91.4951 17.2989C91.4951 17.1971 91.4547 17.0994 91.3827 17.0275C91.3107 16.9555 91.2131 16.915 91.1113 16.915C91.0095 16.915 90.9119 16.9555 90.8399 17.0275C90.7679 17.0994 90.7275 17.1971 90.7275 17.2989C90.7239 17.3521 90.7311 17.4055 90.7486 17.4559C90.7661 17.5063 90.7936 17.5526 90.8294 17.5922C90.8652 17.6317 90.9087 17.6636 90.9571 17.686C91.0055 17.7083 91.058 17.7207 91.1113 17.7224Z" fill="white"/>
<path d="M92.2292 18.2649C92.3369 18.258 92.4376 18.2091 92.5094 18.1286C92.5813 18.0481 92.6185 17.9425 92.6131 17.8347C92.6235 17.7771 92.6207 17.7178 92.6051 17.6614C92.5895 17.6049 92.5614 17.5527 92.5229 17.5086C92.4844 17.4645 92.4364 17.4296 92.3826 17.4065C92.3287 17.3835 92.2704 17.3728 92.2119 17.3754C92.1533 17.3779 92.0962 17.3936 92.0445 17.4212C91.9929 17.4489 91.9481 17.4878 91.9136 17.5351C91.879 17.5824 91.8555 17.6368 91.8449 17.6944C91.8342 17.752 91.8367 17.8113 91.852 17.8678C91.8484 17.9762 91.8871 18.0818 91.96 18.1621C92.0329 18.2424 92.1342 18.2911 92.2425 18.298" fill="white"/>
<path d="M90.8731 16.3396C90.9261 16.337 90.9781 16.3241 91.0262 16.3014C91.0742 16.2787 91.1172 16.2468 91.1529 16.2074C91.1885 16.1681 91.2161 16.1221 91.2339 16.0721C91.2518 16.0221 91.2596 15.9691 91.2569 15.9161C91.2569 15.8143 91.2165 15.7166 91.1445 15.6446C91.0725 15.5727 90.9749 15.5322 90.8731 15.5322C90.7713 15.5322 90.6737 15.5727 90.6017 15.6446C90.5297 15.7166 90.4893 15.8143 90.4893 15.9161C90.4866 15.9691 90.4944 16.0221 90.5123 16.0721C90.5301 16.1221 90.5577 16.1681 90.5933 16.2074C90.629 16.2468 90.672 16.2787 90.7201 16.3014C90.7681 16.3241 90.8201 16.337 90.8731 16.3396Z" fill="white"/>
<path d="M91.7199 16.7883C91.8276 16.7815 91.9283 16.7325 92.0001 16.652C92.0719 16.5715 92.1092 16.4659 92.1037 16.3582C92.111 16.3031 92.1063 16.2471 92.0902 16.1939C92.074 16.1408 92.0467 16.0917 92.0101 16.0499C91.9734 16.0081 91.9283 15.9747 91.8777 15.9518C91.8271 15.9288 91.7722 15.917 91.7166 15.917C91.6611 15.917 91.6061 15.9288 91.5555 15.9518C91.5049 15.9747 91.4598 16.0081 91.4231 16.0499C91.3865 16.0917 91.3592 16.1408 91.343 16.1939C91.3269 16.2471 91.3223 16.3031 91.3295 16.3582C91.3258 16.4666 91.3645 16.5721 91.4374 16.6524C91.5103 16.7327 91.6117 16.7815 91.7199 16.7883Z" fill="white"/>
<path d="M92.6465 17.0339C92.6996 17.0314 92.7516 17.0184 92.7996 16.9957C92.8476 16.973 92.8907 16.9411 92.9263 16.9018C92.962 16.8624 92.9895 16.8164 93.0074 16.7664C93.0252 16.7164 93.033 16.6634 93.0304 16.6104C93.0304 16.5086 92.9899 16.411 92.9179 16.339C92.846 16.267 92.7483 16.2266 92.6465 16.2266C92.5447 16.2266 92.4471 16.267 92.3751 16.339C92.3032 16.411 92.2627 16.5086 92.2627 16.6104C92.26 16.6634 92.2679 16.7164 92.2857 16.7664C92.3036 16.8164 92.3311 16.8624 92.3668 16.9018C92.4024 16.9411 92.4455 16.973 92.4935 16.9957C92.5415 17.0184 92.5935 17.0314 92.6465 17.0339Z" fill="white"/>
<path d="M95.5728 16.3396C95.6258 16.337 95.6779 16.3241 95.7259 16.3014C95.7739 16.2787 95.8169 16.2468 95.8526 16.2074C95.8882 16.1681 95.9158 16.1221 95.9336 16.0721C95.9515 16.0221 95.9593 15.9691 95.9566 15.9161C95.9566 15.8143 95.9162 15.7166 95.8442 15.6446C95.7722 15.5727 95.6746 15.5322 95.5728 15.5322C95.471 15.5322 95.3734 15.5727 95.3014 15.6446C95.2294 15.7166 95.189 15.8143 95.189 15.9161C95.1863 15.9691 95.1941 16.0221 95.212 16.0721C95.2298 16.1221 95.2574 16.1681 95.293 16.2074C95.3287 16.2468 95.3718 16.2787 95.4198 16.3014C95.4678 16.3241 95.5198 16.337 95.5728 16.3396Z" fill="white"/>
<path d="M96.3164 15.7626C96.4305 15.7626 96.5399 15.7173 96.6205 15.6367C96.7012 15.556 96.7465 15.4466 96.7465 15.3325C96.7465 15.2184 96.7012 15.109 96.6205 15.0283C96.5399 14.9477 96.4305 14.9023 96.3164 14.9023C96.2023 14.9023 96.0929 14.9477 96.0122 15.0283C95.9316 15.109 95.8862 15.2184 95.8862 15.3325C95.8862 15.4466 95.9316 15.556 96.0122 15.6367C96.0929 15.7173 96.2023 15.7626 96.3164 15.7626Z" fill="white"/>
<path d="M96.9536 15.1415C97.0613 15.1347 97.1619 15.0858 97.2338 15.0052C97.3056 14.9247 97.3428 14.8192 97.3374 14.7114C97.3428 14.6036 97.3056 14.4981 97.2338 14.4176C97.1619 14.337 97.0613 14.2881 96.9536 14.2812C96.8999 14.2838 96.8474 14.297 96.7989 14.3201C96.7504 14.3431 96.7071 14.3757 96.6713 14.4157C96.6356 14.4558 96.6082 14.5026 96.5907 14.5533C96.5733 14.6041 96.5662 14.6578 96.5697 14.7114C96.5643 14.8192 96.6015 14.9247 96.6734 15.0052C96.7452 15.0858 96.8459 15.1347 96.9536 15.1415Z" fill="white"/>
<path d="M96.4262 17.2785C96.5303 17.2655 96.626 17.215 96.6954 17.1364C96.7648 17.0578 96.8031 16.9565 96.8031 16.8516C96.8031 16.7468 96.7648 16.6455 96.6954 16.5669C96.626 16.4883 96.5303 16.4378 96.4262 16.4248C96.3729 16.4265 96.3205 16.4388 96.272 16.4612C96.2236 16.4836 96.1802 16.5155 96.1443 16.555C96.1085 16.5946 96.081 16.6409 96.0635 16.6913C96.046 16.7417 96.0388 16.7951 96.0424 16.8483C96.037 16.9561 96.0742 17.0617 96.146 17.1422C96.2179 17.2227 96.3185 17.2717 96.4262 17.2785Z" fill="white"/>
<path d="M97.2012 16.5451C97.3053 16.5321 97.401 16.4816 97.4704 16.403C97.5398 16.3244 97.5781 16.2231 97.5781 16.1182C97.5781 16.0134 97.5398 15.9121 97.4704 15.8335C97.401 15.7549 97.3053 15.7044 97.2012 15.6914C97.1482 15.694 97.0962 15.7069 97.0482 15.7296C97.0002 15.7523 96.9571 15.7842 96.9215 15.8235C96.8858 15.8629 96.8583 15.9089 96.8404 15.9589C96.8226 16.0089 96.8147 16.0619 96.8174 16.1149C96.812 16.2227 96.8492 16.3283 96.921 16.4088C96.9929 16.4893 97.0936 16.5383 97.2012 16.5451Z" fill="white"/>
<path d="M97.7647 15.7904C97.8514 15.7998 97.9389 15.7826 98.0157 15.7411C98.0924 15.6996 98.1547 15.6358 98.1943 15.558C98.2339 15.4803 98.2489 15.3924 98.2374 15.3059C98.2259 15.2195 98.1883 15.1385 98.1297 15.0739C98.0712 15.0093 97.9943 14.964 97.9094 14.944C97.8245 14.9241 97.7355 14.9304 97.6543 14.9622C97.5731 14.994 97.5034 15.0497 97.4546 15.122C97.4057 15.1942 97.38 15.2797 97.3809 15.3669C97.3782 15.4199 97.386 15.4729 97.4039 15.5229C97.4217 15.5729 97.4493 15.6189 97.4849 15.6583C97.5206 15.6976 97.5636 15.7295 97.6116 15.7522C97.6597 15.7749 97.7117 15.7879 97.7647 15.7904Z" fill="white"/>
<path d="M97.1495 18.3374C97.2572 18.3306 97.3578 18.2816 97.4297 18.2011C97.5015 18.1206 97.5387 18.015 97.5333 17.9073C97.5333 17.8055 97.4929 17.7078 97.4209 17.6359C97.3489 17.5639 97.2513 17.5234 97.1495 17.5234C97.0477 17.5234 96.9501 17.5639 96.8781 17.6359C96.8061 17.7078 96.7657 17.8055 96.7657 17.9073C96.7602 18.015 96.7975 18.1206 96.8693 18.2011C96.9411 18.2816 97.0418 18.3306 97.1495 18.3374Z" fill="white"/>
<path d="M98.06 17.4702C98.1677 17.4634 98.2684 17.4144 98.3402 17.3339C98.412 17.2534 98.4493 17.1478 98.4438 17.0401C98.4438 16.9383 98.4034 16.8407 98.3314 16.7687C98.2594 16.6967 98.1618 16.6562 98.06 16.6563C97.9582 16.6562 97.8606 16.6967 97.7886 16.7687C97.7166 16.8407 97.6762 16.9383 97.6762 17.0401C97.6726 17.0936 97.6798 17.1474 97.6972 17.1981C97.7146 17.2489 97.742 17.2957 97.7778 17.3358C97.8135 17.3758 97.8569 17.4083 97.9053 17.4314C97.9538 17.4545 98.0064 17.4677 98.06 17.4702Z" fill="white"/>
<path d="M98.7343 16.5773C98.7873 16.5748 98.8394 16.5618 98.8874 16.5391C98.9354 16.5164 98.9784 16.4845 99.0141 16.4452C99.0497 16.4058 99.0773 16.3598 99.0951 16.3098C99.113 16.2598 99.1208 16.2068 99.1181 16.1538C99.1236 16.046 99.0863 15.9404 99.0145 15.8599C98.9427 15.7794 98.842 15.7305 98.7343 15.7236C98.6303 15.7366 98.5345 15.7872 98.4651 15.8658C98.3957 15.9444 98.3574 16.0456 98.3574 16.1505C98.3574 16.2553 98.3957 16.3566 98.4651 16.4352C98.5345 16.5138 98.6303 16.5643 98.7343 16.5773Z" fill="white"/>
<path d="M97.7183 19.4829C97.826 19.4761 97.9267 19.4271 97.9985 19.3466C98.0704 19.2661 98.1076 19.1605 98.1022 19.0528C98.1022 18.951 98.0617 18.8533 97.9897 18.7814C97.9178 18.7094 97.8201 18.6689 97.7183 18.6689C97.6165 18.6689 97.5189 18.7094 97.4469 18.7814C97.3749 18.8533 97.3345 18.951 97.3345 19.0528C97.3291 19.1605 97.3663 19.2661 97.4381 19.3466C97.51 19.4271 97.6106 19.4761 97.7183 19.4829Z" fill="white"/>
<path d="M98.8173 18.4904C98.8704 18.4879 98.9224 18.4749 98.9704 18.4522C99.0184 18.4295 99.0615 18.3976 99.0971 18.3583C99.1328 18.3189 99.1603 18.2729 99.1781 18.2229C99.196 18.1729 99.2038 18.1199 99.2012 18.0669C99.2066 17.9591 99.1693 17.8535 99.0975 17.773C99.0257 17.6925 98.925 17.6435 98.8173 17.6367C98.7133 17.6497 98.6175 17.7002 98.5481 17.7788C98.4787 17.8574 98.4404 17.9587 98.4404 18.0636C98.4404 18.1684 98.4787 18.2697 98.5481 18.3483C98.6175 18.4269 98.7133 18.4774 98.8173 18.4904Z" fill="white"/>
<path d="M99.6162 17.4642C99.7026 17.4736 99.7899 17.4565 99.8664 17.4153C99.943 17.3741 100.005 17.3107 100.045 17.2333C100.085 17.156 100.1 17.0685 100.089 16.9822C100.078 16.896 100.041 16.8151 99.9834 16.7502C99.9256 16.6853 99.8494 16.6395 99.7649 16.6188C99.6805 16.5981 99.5917 16.6035 99.5104 16.6342C99.4291 16.665 99.359 16.7196 99.3093 16.791C99.2597 16.8624 99.2328 16.9471 99.2323 17.0341C99.2288 17.0877 99.2359 17.1414 99.2533 17.1922C99.2708 17.2429 99.2982 17.2897 99.3339 17.3298C99.3697 17.3698 99.413 17.4023 99.4615 17.4254C99.51 17.4485 99.5625 17.4617 99.6162 17.4642Z" fill="white"/>
<path d="M98.168 20.7199C98.2721 20.7069 98.3678 20.6564 98.4372 20.5778C98.5066 20.4992 98.5449 20.3979 98.5449 20.293C98.5449 20.1882 98.5066 20.0869 98.4372 20.0083C98.3678 19.9297 98.2721 19.8792 98.168 19.8662C98.115 19.8688 98.063 19.8817 98.015 19.9044C97.967 19.9271 97.9239 19.959 97.8883 19.9983C97.8526 20.0377 97.8251 20.0837 97.8072 20.1337C97.7894 20.1837 97.7815 20.2367 97.7842 20.2897C97.7788 20.3975 97.816 20.5031 97.8878 20.5836C97.9597 20.6641 98.0603 20.7131 98.168 20.7199Z" fill="white"/>
<path d="M99.4659 19.6142C99.5736 19.6074 99.6742 19.5584 99.7461 19.4779C99.8179 19.3974 99.8552 19.2918 99.8497 19.1841C99.8533 19.1305 99.8462 19.0768 99.8287 19.026C99.8113 18.9752 99.7839 18.9284 99.7481 18.8884C99.7124 18.8483 99.669 18.8158 99.6206 18.7927C99.5721 18.7696 99.5195 18.7564 99.4659 18.7539C99.3582 18.7607 99.2575 18.8097 99.1857 18.8902C99.1139 18.9707 99.0766 19.0763 99.0821 19.1841C99.0766 19.2918 99.1139 19.3974 99.1857 19.4779C99.2575 19.5584 99.3582 19.6074 99.4659 19.6142Z" fill="white"/>
<path d="M100.459 18.4634C100.566 18.4566 100.667 18.4076 100.739 18.3271C100.811 18.2466 100.848 18.141 100.842 18.0332C100.842 17.9314 100.802 17.8338 100.73 17.7618C100.658 17.6899 100.56 17.6494 100.459 17.6494C100.357 17.6494 100.259 17.6899 100.187 17.7618C100.115 17.8338 100.075 17.9314 100.075 18.0332C100.069 18.141 100.107 18.2466 100.178 18.3271C100.25 18.4076 100.351 18.4566 100.459 18.4634Z" fill="white"/>
<path d="M98.4296 22.2619C98.4827 22.2593 98.5347 22.2464 98.5827 22.2237C98.6307 22.201 98.6738 22.1691 98.7094 22.1297C98.7451 22.0904 98.7726 22.0444 98.7905 21.9944C98.8083 21.9444 98.8161 21.8914 98.8135 21.8384C98.8189 21.7306 98.7817 21.625 98.7098 21.5445C98.638 21.464 98.5373 21.415 98.4296 21.4082C98.3256 21.4212 98.2299 21.4717 98.1604 21.5503C98.091 21.6289 98.0527 21.7302 98.0527 21.835C98.0527 21.9399 98.091 22.0412 98.1604 22.1198C98.2299 22.1984 98.3256 22.2489 98.4296 22.2619Z" fill="white"/>
<path d="M99.9878 20.8591C100.041 20.8566 100.093 20.8436 100.141 20.8209C100.189 20.7982 100.232 20.7663 100.268 20.727C100.303 20.6876 100.331 20.6416 100.349 20.5916C100.367 20.5416 100.374 20.4886 100.372 20.4356C100.372 20.3338 100.331 20.2362 100.259 20.1642C100.187 20.0922 100.09 20.0518 99.9878 20.0518C99.886 20.0518 99.7884 20.0922 99.7164 20.1642C99.6445 20.2362 99.604 20.3338 99.604 20.4356C99.6014 20.4886 99.6092 20.5416 99.627 20.5916C99.6449 20.6416 99.6724 20.6876 99.7081 20.727C99.7437 20.7663 99.7868 20.7982 99.8348 20.8209C99.8828 20.8436 99.9348 20.8566 99.9878 20.8591Z" fill="white"/>
<path d="M88.3789 17.4504C88.4865 17.4452 88.5878 17.3979 88.6609 17.3186C88.734 17.2394 88.7729 17.1346 88.7693 17.0268C88.7729 16.9184 88.7342 16.8129 88.6613 16.7326C88.5884 16.6522 88.4871 16.6035 88.3789 16.5967C88.2748 16.6097 88.1791 16.6602 88.1097 16.7388C88.0403 16.8174 88.002 16.9187 88.002 17.0235C88.002 17.1284 88.0403 17.2296 88.1097 17.3082C88.1791 17.3868 88.2748 17.4374 88.3789 17.4504Z" fill="white"/>
<path d="M101.156 19.5742C101.263 19.5673 101.364 19.5184 101.436 19.4379C101.508 19.3573 101.545 19.2518 101.54 19.144C101.543 19.0905 101.536 19.0367 101.519 18.9859C101.501 18.9352 101.474 18.8884 101.438 18.8483C101.402 18.8083 101.359 18.7758 101.31 18.7527C101.262 18.7296 101.209 18.7164 101.156 18.7139C101.042 18.7139 100.932 18.7592 100.852 18.8399C100.771 18.9205 100.726 19.0299 100.726 19.144C100.726 19.2581 100.771 19.3675 100.852 19.4482C100.932 19.5288 101.042 19.5742 101.156 19.5742Z" fill="white"/>
<path d="M88.7189 19.4629C88.8266 19.4561 88.9273 19.4072 88.9991 19.3266C89.0709 19.2461 89.1082 19.1406 89.1027 19.0328C89.0938 18.9595 89.064 18.8904 89.0168 18.8336C88.9695 18.7769 88.907 18.735 88.8365 18.7129C88.7661 18.6908 88.6908 18.6895 88.6196 18.7091C88.5485 18.7288 88.4845 18.7685 88.4353 18.8236C88.3862 18.8787 88.354 18.9468 88.3425 19.0197C88.3311 19.0926 88.3409 19.1673 88.3709 19.2348C88.4008 19.3022 88.4495 19.3596 88.5113 19.4001C88.573 19.4406 88.6451 19.4624 88.7189 19.4629Z" fill="white"/>
<path d="M102.105 22.2755C102.158 22.2729 102.21 22.2599 102.258 22.2373C102.306 22.2146 102.349 22.1827 102.385 22.1433C102.42 22.104 102.448 22.058 102.466 22.008C102.484 21.958 102.491 21.905 102.489 21.8519C102.481 21.7782 102.452 21.7083 102.406 21.6506C102.359 21.5929 102.297 21.5499 102.226 21.5269C102.156 21.5038 102.08 21.5016 102.009 21.5206C101.937 21.5396 101.872 21.579 101.823 21.6339C101.773 21.6888 101.74 21.757 101.728 21.8302C101.716 21.9033 101.726 21.9784 101.756 22.0462C101.786 22.1141 101.834 22.1718 101.896 22.2125C101.958 22.2532 102.031 22.2751 102.105 22.2755Z" fill="white"/>
<path d="M100.257 22.2615C100.31 22.2589 100.362 22.2459 100.41 22.2233C100.458 22.2006 100.501 22.1687 100.537 22.1293C100.572 22.09 100.6 22.044 100.618 21.994C100.636 21.944 100.643 21.891 100.641 21.8379C100.641 21.7361 100.6 21.6385 100.528 21.5665C100.456 21.4945 100.359 21.4541 100.257 21.4541C100.155 21.4541 100.057 21.4945 99.9855 21.5665C99.9135 21.6385 99.8731 21.7361 99.8731 21.8379C99.8704 21.891 99.8782 21.944 99.8961 21.994C99.9139 22.044 99.9415 22.09 99.9771 22.1293C100.013 22.1687 100.056 22.2006 100.104 22.2233C100.152 22.2459 100.204 22.2589 100.257 22.2615Z" fill="white"/>
<path d="M87.6163 18.4631C87.7203 18.4501 87.8161 18.3995 87.8855 18.3209C87.9549 18.2423 87.9932 18.1411 87.9932 18.0362C87.9932 17.9314 87.9549 17.8301 87.8855 17.7515C87.8161 17.6729 87.7203 17.6224 87.6163 17.6094C87.5632 17.6119 87.5112 17.6249 87.4632 17.6476C87.4152 17.6702 87.3722 17.7022 87.3365 17.7415C87.3008 17.7809 87.2733 17.8268 87.2554 17.8768C87.2376 17.9268 87.2298 17.9799 87.2325 18.0329C87.227 18.1407 87.2642 18.2462 87.3361 18.3267C87.4079 18.4073 87.5086 18.4562 87.6163 18.4631Z" fill="white"/>
<path d="M86.9638 19.581C87.0715 19.5742 87.1722 19.5252 87.244 19.4447C87.3159 19.3642 87.3531 19.2586 87.3477 19.1508C87.3531 19.0431 87.3159 18.9375 87.244 18.857C87.1722 18.7765 87.0715 18.7275 86.9638 18.7207C86.8498 18.7207 86.7403 18.766 86.6597 18.8467C86.579 18.9274 86.5337 19.0368 86.5337 19.1508C86.5337 19.2649 86.579 19.3743 86.6597 19.455C86.7403 19.5357 86.8498 19.581 86.9638 19.581Z" fill="white"/>
<path d="M86.4316 20.8261C86.5393 20.8193 86.64 20.7703 86.7118 20.6898C86.7836 20.6093 86.8209 20.5037 86.8154 20.396C86.8209 20.2882 86.7836 20.1826 86.7118 20.1021C86.64 20.0216 86.5393 19.9726 86.4316 19.9658C86.3175 19.9658 86.2081 20.0111 86.1275 20.0918C86.0468 20.1725 86.0015 20.2819 86.0015 20.396C86.0015 20.51 86.0468 20.6195 86.1275 20.7001C86.2081 20.7808 86.3175 20.8261 86.4316 20.8261Z" fill="white"/>
<path d="M88.252 20.6941C88.305 20.6915 88.3571 20.6785 88.4051 20.6559C88.4531 20.6332 88.4961 20.6013 88.5318 20.5619C88.5674 20.5226 88.595 20.4766 88.6128 20.4266C88.6307 20.3766 88.6385 20.3236 88.6358 20.2705C88.6358 20.1687 88.5954 20.0711 88.5234 19.9991C88.4514 19.9272 88.3538 19.8867 88.252 19.8867C88.1502 19.8867 88.0526 19.9272 87.9806 19.9991C87.9086 20.0711 87.8682 20.1687 87.8682 20.2705C87.8655 20.3236 87.8733 20.3766 87.8912 20.4266C87.909 20.4766 87.9366 20.5226 87.9722 20.5619C88.0079 20.6013 88.051 20.6332 88.099 20.6559C88.147 20.6785 88.199 20.6915 88.252 20.6941Z" fill="white"/>
<path d="M89.9326 21.0697C90.019 21.0791 90.1063 21.062 90.1828 21.0208C90.2594 20.9796 90.3216 20.9161 90.3614 20.8388C90.4012 20.7615 90.4166 20.6739 90.4056 20.5877C90.3946 20.5014 90.3577 20.4205 90.2998 20.3557C90.242 20.2908 90.1658 20.245 90.0813 20.2243C89.9969 20.2036 89.9081 20.209 89.8268 20.2397C89.7455 20.2704 89.6754 20.3251 89.6257 20.3965C89.5761 20.4679 89.5493 20.5526 89.5487 20.6396C89.5452 20.6931 89.5523 20.7469 89.5698 20.7976C89.5872 20.8484 89.6146 20.8952 89.6503 20.9352C89.6861 20.9753 89.7294 21.0078 89.7779 21.0309C89.8264 21.054 89.879 21.0672 89.9326 21.0697Z" fill="white"/>
<path d="M91.6567 22.2755C91.7097 22.2729 91.7617 22.2599 91.8097 22.2373C91.8577 22.2146 91.9008 22.1827 91.9364 22.1433C91.9721 22.104 91.9996 22.058 92.0175 22.008C92.0354 21.958 92.0432 21.905 92.0405 21.8519C92.0328 21.7782 92.004 21.7083 91.9574 21.6506C91.9108 21.5929 91.8486 21.5499 91.7781 21.5269C91.7077 21.5038 91.632 21.5016 91.5604 21.5206C91.4887 21.5396 91.4241 21.579 91.3743 21.6339C91.3245 21.6888 91.2917 21.757 91.2799 21.8302C91.268 21.9033 91.2776 21.9784 91.3074 22.0462C91.3373 22.1141 91.3861 22.1718 91.4481 22.2125C91.5101 22.2532 91.5825 22.2751 91.6567 22.2755Z" fill="white"/>
<path d="M89.8082 22.2748C89.8946 22.2841 89.9819 22.2671 90.0584 22.2259C90.135 22.1847 90.1972 22.1212 90.237 22.0439C90.2768 21.9666 90.2922 21.879 90.2812 21.7928C90.2702 21.7065 90.2333 21.6256 90.1754 21.5608C90.1176 21.4959 90.0414 21.4501 89.9569 21.4294C89.8725 21.4087 89.7837 21.414 89.7024 21.4448C89.6211 21.4755 89.551 21.5302 89.5013 21.6016C89.4517 21.6729 89.4249 21.7577 89.4243 21.8446C89.4189 21.9524 89.4561 22.058 89.528 22.1385C89.5998 22.219 89.7005 22.268 89.8082 22.2748Z" fill="white"/>
<path d="M87.983 22.2681C88.0907 22.2613 88.1913 22.2123 88.2632 22.1318C88.335 22.0513 88.3722 21.9457 88.3668 21.8379C88.3668 21.7361 88.3264 21.6385 88.2544 21.5665C88.1824 21.4945 88.0848 21.4541 87.983 21.4541C87.8812 21.4541 87.7836 21.4945 87.7116 21.5665C87.6396 21.6385 87.5992 21.7361 87.5992 21.8379C87.5937 21.9457 87.6309 22.0513 87.7028 22.1318C87.7746 22.2123 87.8753 22.2613 87.983 22.2681Z" fill="white"/>
<path d="M86.1536 22.2619C86.2083 22.2619 86.2625 22.2509 86.3128 22.2294C86.3631 22.2079 86.4085 22.1763 86.4462 22.1367C86.484 22.0971 86.5133 22.0502 86.5324 21.9989C86.5515 21.9476 86.5599 21.893 86.5572 21.8384C86.5627 21.7306 86.5254 21.625 86.4536 21.5445C86.3818 21.464 86.2811 21.415 86.1734 21.4082C86.0657 21.415 85.9651 21.464 85.8932 21.5445C85.8214 21.625 85.7841 21.7306 85.7896 21.8384C85.7869 21.8914 85.7947 21.9444 85.8126 21.9944C85.8304 22.0444 85.858 22.0904 85.8936 22.1297C85.9293 22.1691 85.9723 22.201 86.0204 22.2237C86.0684 22.2464 86.1204 22.2593 86.1734 22.2619" fill="white"/>
<path d="M101.782 20.766C101.869 20.7754 101.956 20.7582 102.033 20.7167C102.109 20.6752 102.172 20.6113 102.211 20.5336C102.251 20.4559 102.266 20.368 102.254 20.2815C102.243 20.195 102.205 20.1141 102.147 20.0495C102.088 19.9849 102.011 19.9396 101.927 19.9196C101.842 19.8997 101.753 19.906 101.671 19.9378C101.59 19.9695 101.521 20.0253 101.472 20.0976C101.423 20.1698 101.397 20.2552 101.398 20.3425C101.395 20.3955 101.403 20.4485 101.421 20.4985C101.439 20.5485 101.466 20.5945 101.502 20.6339C101.538 20.6732 101.581 20.7051 101.629 20.7278C101.677 20.7505 101.729 20.7635 101.782 20.766Z" fill="white"/>
<path d="M89.3007 18.331C89.4148 18.331 89.5242 18.2857 89.6049 18.205C89.6856 18.1243 89.7309 18.0149 89.7309 17.9008C89.7309 17.7868 89.6856 17.6774 89.6049 17.5967C89.5242 17.516 89.4148 17.4707 89.3007 17.4707C89.1867 17.4707 89.0773 17.516 88.9966 17.5967C88.9159 17.6774 88.8706 17.7868 88.8706 17.9008C88.8706 18.0149 88.9159 18.1243 88.9966 18.205C89.0773 18.2857 89.1867 18.331 89.3007 18.331Z" fill="white"/>
<path d="M90.234 19.8526C90.3417 19.8458 90.4424 19.7968 90.5142 19.7163C90.5861 19.6358 90.6233 19.5302 90.6179 19.4225C90.609 19.3492 90.5791 19.28 90.5319 19.2233C90.4847 19.1665 90.4221 19.1246 90.3517 19.1025C90.2812 19.0805 90.2059 19.0792 90.1348 19.0988C90.0636 19.1184 89.9996 19.1582 89.9505 19.2132C89.9013 19.2683 89.8691 19.3364 89.8577 19.4093C89.8462 19.4823 89.8561 19.5569 89.886 19.6244C89.9159 19.6919 89.9647 19.7493 90.0264 19.7898C90.0881 19.8302 90.1602 19.8521 90.234 19.8526Z" fill="white"/>
<path d="M90.5986 18.8144C90.7063 18.8076 90.807 18.7586 90.8788 18.6781C90.9506 18.5976 90.9879 18.492 90.9824 18.3842C90.986 18.3307 90.9789 18.2769 90.9614 18.2262C90.944 18.1754 90.9166 18.1286 90.8809 18.0886C90.8451 18.0485 90.8017 18.016 90.7533 17.9929C90.7048 17.9698 90.6522 17.9566 90.5986 17.9541C90.4845 17.9541 90.3751 17.9994 90.2944 18.0801C90.2138 18.1608 90.1685 18.2702 90.1685 18.3842C90.1685 18.4983 90.2138 18.6077 90.2944 18.6884C90.3751 18.7691 90.4845 18.8144 90.5986 18.8144Z" fill="white"/>
<path d="M95.3344 17.7226C95.2204 17.7226 95.111 17.6773 95.0303 17.5966C94.9496 17.5159 94.9043 17.4065 94.9043 17.2925C94.9043 17.1784 94.9496 17.069 95.0303 16.9883C95.111 16.9076 95.2204 16.8623 95.3344 16.8623C95.4485 16.8623 95.5579 16.9076 95.6386 16.9883C95.7193 17.069 95.7646 17.1784 95.7646 17.2925C95.7646 17.4065 95.7193 17.5159 95.6386 17.5966C95.5579 17.6773 95.4485 17.7226 95.3344 17.7226Z" fill="white"/>
<path d="M94.7304 16.7823C94.6768 16.7798 94.6242 16.7666 94.5757 16.7435C94.5273 16.7204 94.4839 16.6879 94.4482 16.6478C94.4124 16.6078 94.385 16.561 94.3676 16.5102C94.3502 16.4594 94.343 16.4057 94.3466 16.3521C94.3555 16.2789 94.3854 16.2097 94.4326 16.153C94.4798 16.0962 94.5424 16.0543 94.6128 16.0322C94.6832 16.0101 94.7585 16.0088 94.8297 16.0285C94.9009 16.0481 94.9649 16.0878 95.014 16.1429C95.0631 16.198 95.0954 16.2661 95.1068 16.339C95.1182 16.4119 95.1084 16.4866 95.0785 16.5541C95.0485 16.6216 94.9998 16.679 94.9381 16.7195C94.8763 16.7599 94.8042 16.7817 94.7304 16.7823Z" fill="white"/>
<path d="M96.4873 21.0703C96.595 21.0634 96.6956 21.0145 96.7675 20.934C96.8393 20.8534 96.8765 20.7479 96.8711 20.6401C96.8747 20.5865 96.8675 20.5328 96.8501 20.482C96.8327 20.4313 96.8053 20.3845 96.7695 20.3444C96.7338 20.3044 96.6904 20.2719 96.6419 20.2488C96.5935 20.2257 96.5409 20.2125 96.4873 20.21C96.3732 20.21 96.2638 20.2553 96.1831 20.3359C96.1024 20.4166 96.0571 20.526 96.0571 20.6401C96.0571 20.7542 96.1024 20.8636 96.1831 20.9443C96.2638 21.0249 96.3732 21.0703 96.4873 21.0703Z" fill="white"/>
<path d="M96.6406 22.2677C96.5365 22.2548 96.4408 22.2042 96.3714 22.1256C96.302 22.047 96.2637 21.9458 96.2637 21.8409C96.2637 21.736 96.302 21.6348 96.3714 21.5562C96.4408 21.4776 96.5365 21.427 96.6406 21.4141C96.6936 21.4166 96.7456 21.4296 96.7936 21.4523C96.8416 21.4749 96.8847 21.5069 96.9203 21.5462C96.956 21.5855 96.9835 21.6315 97.0014 21.6815C97.0193 21.7315 97.0271 21.7846 97.0244 21.8376C97.0298 21.9454 96.9926 22.0509 96.9208 22.1314C96.8489 22.2119 96.7483 22.2609 96.6406 22.2677Z" fill="white"/>
<path d="M96.2167 19.8537C96.1127 19.8407 96.017 19.7902 95.9476 19.7116C95.8782 19.6329 95.8398 19.5317 95.8398 19.4268C95.8398 19.322 95.8782 19.2207 95.9476 19.1421C96.017 19.0635 96.1127 19.013 96.2167 19C96.2698 19.0025 96.3218 19.0155 96.3698 19.0382C96.4178 19.0609 96.4609 19.0928 96.4965 19.1321C96.5322 19.1715 96.5597 19.2175 96.5776 19.2675C96.5954 19.3175 96.6032 19.3705 96.6006 19.4235C96.606 19.5313 96.5688 19.6369 96.4969 19.7174C96.4251 19.7979 96.3244 19.8469 96.2167 19.8537Z" fill="white"/>
<path d="M95.8262 18.8078C95.9303 18.7948 96.026 18.7443 96.0954 18.6657C96.1648 18.587 96.2031 18.4858 96.2031 18.3809C96.2031 18.2761 96.1648 18.1748 96.0954 18.0962C96.026 18.0176 95.9303 17.9671 95.8262 17.9541C95.7732 17.9566 95.7212 17.9696 95.6732 17.9923C95.6252 18.015 95.5821 18.0469 95.5465 18.0862C95.5108 18.1256 95.4833 18.1716 95.4654 18.2216C95.4476 18.2716 95.4397 18.3246 95.4424 18.3776C95.437 18.4854 95.4742 18.591 95.546 18.6715C95.6179 18.752 95.7186 18.801 95.8262 18.8078Z" fill="white"/>
<path d="M91.9126 19.674C91.9656 19.6714 92.0176 19.6585 92.0656 19.6358C92.1136 19.6131 92.1567 19.5812 92.1923 19.5419C92.228 19.5025 92.2555 19.4565 92.2734 19.4065C92.2912 19.3565 92.2991 19.3035 92.2964 19.2505C92.3018 19.1427 92.2646 19.0371 92.1927 18.9566C92.1209 18.8761 92.0202 18.8271 91.9126 18.8203C91.8589 18.8228 91.8064 18.836 91.7579 18.8591C91.7094 18.8822 91.6661 18.9147 91.6303 18.9548C91.5946 18.9948 91.5672 19.0416 91.5497 19.0924C91.5323 19.1432 91.5252 19.1969 91.5287 19.2505C91.5251 19.3037 91.5323 19.3571 91.5498 19.4075C91.5674 19.4579 91.5949 19.5042 91.6307 19.5438C91.6665 19.5833 91.7099 19.6152 91.7584 19.6376C91.8068 19.6599 91.8592 19.6723 91.9126 19.674Z" fill="white"/>
<path d="M91.7199 20.9914C91.8276 20.9846 91.9283 20.9356 92.0001 20.8551C92.0719 20.7746 92.1092 20.669 92.1037 20.5613C92.111 20.5062 92.1063 20.4502 92.0902 20.397C92.074 20.3439 92.0467 20.2948 92.0101 20.253C91.9734 20.2113 91.9283 20.1778 91.8777 20.1549C91.8271 20.132 91.7722 20.1201 91.7166 20.1201C91.6611 20.1201 91.6061 20.132 91.5555 20.1549C91.5049 20.1778 91.4598 20.2113 91.4231 20.253C91.3865 20.2948 91.3592 20.3439 91.343 20.397C91.3269 20.4502 91.3223 20.5062 91.3295 20.5613C91.3268 20.6152 91.3348 20.6691 91.353 20.7199C91.3712 20.7707 91.3992 20.8174 91.4355 20.8574C91.4717 20.8973 91.5155 20.9297 91.5643 20.9527C91.6131 20.9757 91.666 20.9889 91.7199 20.9914Z" fill="white"/>
<path d="M94.2355 18.2647C94.3432 18.2579 94.4439 18.2089 94.5157 18.1284C94.5875 18.0479 94.6248 17.9423 94.6193 17.8346C94.6104 17.7613 94.5806 17.6921 94.5334 17.6354C94.4861 17.5786 94.4236 17.5367 94.3531 17.5146C94.2827 17.4926 94.2074 17.4913 94.1362 17.5109C94.0651 17.5305 94.0011 17.5703 93.9519 17.6253C93.9028 17.6804 93.8706 17.7485 93.8591 17.8214C93.8477 17.8944 93.8575 17.969 93.8875 18.0365C93.9174 18.104 93.9661 18.1614 94.0279 18.2019C94.0896 18.2424 94.1617 18.2642 94.2355 18.2647Z" fill="white"/>
<path d="M93.8383 17.0265C93.7343 17.0135 93.6385 16.963 93.5691 16.8844C93.4997 16.8058 93.4614 16.7045 93.4614 16.5997C93.4614 16.4948 93.4997 16.3936 93.5691 16.315C93.6385 16.2364 93.7343 16.1858 93.8383 16.1729C93.9424 16.1858 94.0381 16.2364 94.1075 16.315C94.1769 16.3936 94.2152 16.4948 94.2152 16.5997C94.2152 16.7045 94.1769 16.8058 94.1075 16.8844C94.0381 16.963 93.9424 17.0135 93.8383 17.0265Z" fill="white"/>
<path d="M94.8027 22.2744C94.7491 22.2718 94.6965 22.2586 94.648 22.2356C94.5996 22.2125 94.5562 22.1799 94.5204 22.1399C94.4847 22.0998 94.4573 22.0531 94.4399 22.0023C94.4224 21.9515 94.4153 21.8978 94.4189 21.8442C94.4134 21.7364 94.4507 21.6309 94.5225 21.5504C94.5943 21.4699 94.695 21.4209 94.8027 21.4141C94.9168 21.4141 95.0262 21.4594 95.1068 21.54C95.1875 21.6207 95.2328 21.7301 95.2328 21.8442C95.2328 21.9583 95.1875 22.0677 95.1068 22.1484C95.0262 22.229 94.9168 22.2744 94.8027 22.2744Z" fill="white"/>
<path d="M94.5482 19.6742C94.4618 19.6836 94.3746 19.6665 94.298 19.6253C94.2214 19.5841 94.1592 19.5206 94.1194 19.4433C94.0796 19.366 94.0642 19.2784 94.0752 19.1922C94.0862 19.1059 94.1231 19.025 94.181 18.9602C94.2389 18.8953 94.3151 18.8495 94.3995 18.8288C94.4839 18.8081 94.5727 18.8134 94.654 18.8442C94.7353 18.8749 94.8054 18.9296 94.8551 19.001C94.9047 19.0724 94.9316 19.1571 94.9321 19.2441C94.9375 19.3518 94.9003 19.4574 94.8284 19.5379C94.7566 19.6184 94.6559 19.6674 94.5482 19.6742Z" fill="white"/>
<path d="M94.7457 20.9845C94.6926 20.982 94.6406 20.969 94.5926 20.9463C94.5446 20.9237 94.5016 20.8917 94.4659 20.8524C94.4302 20.8131 94.4027 20.7671 94.3849 20.7171C94.367 20.6671 94.3592 20.614 94.3618 20.561C94.3564 20.4532 94.3937 20.3477 94.4655 20.2672C94.5373 20.1867 94.638 20.1377 94.7457 20.1309C94.8534 20.1377 94.954 20.1867 95.0259 20.2672C95.0977 20.3477 95.1349 20.4532 95.1295 20.561C95.1322 20.614 95.1244 20.6671 95.1065 20.7171C95.0887 20.7671 95.0611 20.8131 95.0255 20.8524C94.9898 20.8917 94.9467 20.9237 94.8987 20.9463C94.8507 20.969 94.7987 20.982 94.7457 20.9845Z" fill="white"/>
<path d="M84.9209 23.6777H86.9062C87.8525 23.6777 88.0577 24.2071 88.0577 24.5777C88.0625 24.7265 88.0221 24.8732 87.9418 24.9985C87.8614 25.1237 87.7449 25.2216 87.6077 25.2792C87.7977 25.337 87.9626 25.4574 88.0755 25.6208C88.1885 25.7842 88.2428 25.981 88.2297 26.1792C88.2233 26.335 88.1851 26.4878 88.1175 26.6283C88.0499 26.7689 87.9542 26.8941 87.8365 26.9963C87.7188 27.0985 87.5814 27.1757 87.4328 27.2229C87.2842 27.2702 87.1275 27.2866 86.9724 27.2711H84.9341V23.6777H84.9209ZM86.0327 26.4108H86.6944C86.926 26.4108 87.1312 26.3513 87.1312 26.0667C87.1312 25.7821 87.0055 25.7424 86.7408 25.7424H86.0327V26.4108ZM86.0327 25.0873H86.615C86.8466 25.0873 86.9922 25.0211 86.9922 24.7961C86.9922 24.5711 86.8466 24.5446 86.615 24.5446H86.0327V25.0873Z" fill="white"/>
<path d="M88.2464 24.658H89.2059V25.0749C89.2643 24.9271 89.3667 24.8008 89.4993 24.7132C89.6319 24.6256 89.7882 24.5809 89.9471 24.5852C90.0452 24.5887 90.1428 24.602 90.2383 24.6249V25.4455C90.1065 25.4284 89.973 25.4284 89.8412 25.4455C89.4508 25.4455 89.239 25.6772 89.239 26.233V27.2654H88.2397V24.658H88.2464Z" fill="white"/>
<path d="M92.5669 26.6828C92.5507 26.885 92.5944 27.0876 92.6927 27.2651H91.6735C91.647 27.1862 91.6336 27.1035 91.6338 27.0203C91.5258 27.1315 91.3943 27.2172 91.2489 27.271C91.1034 27.3249 90.9478 27.3454 90.7934 27.3313C90.2904 27.3313 89.8735 27.0864 89.8735 26.5372C89.8735 25.7166 90.8397 25.743 91.3493 25.6504C91.4882 25.6504 91.6206 25.5842 91.6206 25.4188C91.6206 25.2533 91.4552 25.1739 91.2963 25.1739C90.9853 25.1739 90.9257 25.3328 90.9191 25.4453H89.9927C90.0257 24.7107 90.7206 24.585 91.3162 24.585C92.5669 24.585 92.5537 25.1011 92.5537 25.6107L92.5669 26.6828ZM91.614 26.1004C91.4864 26.1561 91.3533 26.1983 91.2169 26.2261C90.9985 26.2725 90.886 26.332 90.886 26.5041C90.896 26.5773 90.934 26.6438 90.992 26.6894C91.05 26.7351 91.1236 26.7565 91.1971 26.7489C91.252 26.7517 91.3069 26.7431 91.3583 26.7235C91.4097 26.704 91.4565 26.674 91.4957 26.6354C91.5349 26.5968 91.5656 26.5505 91.586 26.4994C91.6063 26.4484 91.6159 26.3936 91.614 26.3386V26.1004Z" fill="white"/>
<path d="M95.4256 27.2709H94.4594V26.9863C94.3758 27.1094 94.26 27.2071 94.1246 27.269C93.9893 27.3308 93.8396 27.3544 93.6918 27.3371C92.9506 27.3371 92.5933 26.6025 92.5933 25.9474C92.5933 25.2922 92.8249 24.5908 93.705 24.5908C93.8439 24.5856 93.9818 24.6149 94.1065 24.6761C94.2313 24.7373 94.3389 24.8285 94.4197 24.9415V23.6709H95.419V27.2709H95.4256ZM94.0227 25.2856C93.6587 25.2856 93.5859 25.6231 93.5859 25.9474C93.5859 26.2716 93.6653 26.6091 94.0227 26.6091C94.38 26.6091 94.4594 26.2783 94.4594 25.9474C94.4594 25.6165 94.38 25.2856 94.0227 25.2856Z" fill="white"/>
<path d="M96.5652 23.6777H95.5659V27.2711H96.5652V23.6777Z" fill="white"/>
<path d="M97.5201 26.1857C97.5217 26.2927 97.5562 26.3967 97.6188 26.4835C97.6814 26.5704 97.7691 26.6359 97.8701 26.6713C97.9712 26.7066 98.0807 26.7101 98.1837 26.6813C98.2868 26.6524 98.3786 26.5926 98.4466 26.5099H99.3731C99.2873 26.7594 99.1352 26.9807 98.933 27.15C98.7308 27.3193 98.4862 27.4303 98.2256 27.4709C97.965 27.5115 97.6983 27.4802 97.4541 27.3804C97.21 27.2806 96.9977 27.1161 96.8402 26.9046C96.6826 26.6931 96.5858 26.4426 96.5601 26.1801C96.5344 25.9176 96.5808 25.6531 96.6944 25.415C96.8079 25.177 96.9842 24.9744 97.2044 24.8292C97.4245 24.6839 97.6801 24.6015 97.9436 24.5908C98.9826 24.5908 99.426 25.1732 99.426 26.1923H97.5201V26.1857ZM98.4731 25.6695C98.474 25.6119 98.4633 25.5547 98.4416 25.5013C98.42 25.4479 98.3879 25.3994 98.3471 25.3587C98.3064 25.3179 98.2579 25.2858 98.2045 25.2642C98.1511 25.2425 98.0939 25.2318 98.0363 25.2327C97.9737 25.2273 97.9106 25.2343 97.8507 25.2533C97.7908 25.2724 97.7353 25.3031 97.6873 25.3437C97.6393 25.3843 97.5999 25.434 97.5712 25.4899C97.5425 25.5458 97.5251 25.6068 97.5201 25.6695H98.4731Z" fill="white"/>
<path d="M101.191 27.0661C101.121 27.3237 101.011 27.5691 100.867 27.794C100.729 27.9256 100.562 28.0233 100.379 28.0796C100.197 28.1358 100.003 28.1491 99.8149 28.1183H99.3583V27.3175H99.5899C99.6906 27.3349 99.7936 27.3349 99.8943 27.3175C99.9288 27.2981 99.9566 27.2688 99.9743 27.2334C99.992 27.1981 99.9987 27.1582 99.9936 27.119C99.9936 26.9933 99.6098 26.0271 99.5568 25.8815L99.1333 24.6572H100.205L100.622 26.1528L101.052 24.6572H102.078L101.191 27.0661Z" fill="white"/>
<path d="M5.19336 13.2354H12.1551C15.5301 13.2354 17.0191 15.0552 17.0191 17.2059C17.069 17.8849 16.914 18.5631 16.5743 19.153C16.2345 19.7429 15.7255 20.2173 15.1132 20.5148C15.8061 20.778 16.3993 21.2512 16.8098 21.8682C17.2204 22.4853 17.4278 23.2152 17.4029 23.9559C17.4029 26.4508 15.6956 28.489 12.2014 28.489H5.19336V13.2354ZM11.4603 19.0986C12.5919 19.0986 13.0485 18.4699 13.0485 17.6427C13.0485 16.703 12.3867 16.2398 11.4338 16.2398H9.17718V19.0986H11.4603ZM9.17718 25.4515H11.2684C12.5919 25.4515 13.1941 24.7898 13.1941 23.7309C13.1941 22.7714 12.6514 22.0964 11.3478 22.0964H9.17718V25.4515Z" fill="#CCCCCC"/>
<path d="M19.4062 20.1712C19.4062 19.0661 19.4062 17.8815 19.4062 16.8624H23.2776C23.3239 17.2197 23.3702 18.2389 23.3702 18.7418C23.6165 18.0742 24.0714 17.5038 24.6674 17.1152C25.2634 16.7266 25.9689 16.5405 26.679 16.5845V20.5153C24.4357 20.4095 23.4232 20.9653 23.4232 23.6786V28.4565H19.4526L19.4062 20.1712Z" fill="#CCCCCC"/>
<path d="M37.6801 24.9947C37.6801 26.3182 37.7397 28.0388 37.8058 28.4292H34.1529C34.0593 28.0811 34.0039 27.7239 33.9875 27.3638C33.4779 28.0785 32.6639 28.6873 30.983 28.6873C30.49 28.7187 29.996 28.6443 29.534 28.4692C29.0721 28.2941 28.6529 28.0223 28.3045 27.6721C27.9561 27.3218 27.6866 26.9011 27.514 26.4382C27.3413 25.9753 27.2696 25.4809 27.3036 24.9881C27.3036 22.2682 29.2889 21.0903 32.5647 21.0903H33.8882V20.5145C33.8882 19.7667 33.6433 19.2241 32.6904 19.2241C31.7375 19.2241 31.5588 19.6741 31.4661 20.4219H27.7867C27.9323 18.4564 28.9845 16.5439 32.7698 16.5439C36.2639 16.5439 37.6801 18.0197 37.6801 20.8123V24.9947ZM33.8683 23.2873H32.9948C31.625 23.2873 31.175 23.8101 31.175 24.6638C31.1575 24.824 31.175 24.9862 31.2264 25.139C31.2778 25.2918 31.3618 25.4315 31.4726 25.5486C31.5834 25.6657 31.7183 25.7573 31.868 25.8171C32.0178 25.8768 32.1787 25.9033 32.3397 25.8947C33.6632 25.8947 33.8683 24.8888 33.8683 23.6447V23.2873Z" fill="#CCCCCC"/>
<path d="M50.5588 12.4277V24.9285C50.5588 26.0932 50.5588 27.4299 50.5588 28.4292H46.7205C46.661 28.0917 46.608 27.6086 46.5882 27.3241C46.0588 28.1711 45.2183 28.7138 43.6897 28.7138C40.897 28.7138 39.3882 26.1064 39.3882 22.7116C39.4147 19.191 41.1551 16.5439 44.1529 16.5439C45.4102 16.5439 46.3036 16.9608 46.6014 17.5035V12.4277H50.5588ZM43.4713 22.6057C43.4713 24.6373 44.0205 25.6829 45.1257 25.6829C46.6213 25.6829 46.7602 24.2071 46.7602 22.6255C46.7602 20.6799 46.5948 19.5616 45.172 19.5616C44.0602 19.5616 43.4713 20.5476 43.4713 22.6057Z" fill="#CCCCCC"/>
<path d="M52.8096 28.4557V12.4277H56.7802V28.4557H52.8096Z" fill="#CCCCCC"/>
<path d="M62.5129 23.493C62.5129 24.6577 62.9232 25.8291 64.0945 25.8291C64.4181 25.8694 64.7447 25.7831 65.0062 25.5883C65.2676 25.3934 65.4436 25.1051 65.4975 24.7835H69.3886C69.0048 26.3254 67.7938 28.7143 64.0283 28.7143C60.0048 28.7143 58.5225 25.7629 58.5225 22.7585C58.5225 19.271 60.2232 16.5908 64.1011 16.5908C68.2239 16.5908 69.4879 19.6283 69.4879 22.5467C69.494 22.8804 69.4786 23.2142 69.4416 23.546L62.5129 23.493ZM65.5173 21.243C65.5173 20.1577 65.2195 19.2577 64.0813 19.2577C62.943 19.2577 62.6188 20.1048 62.5526 21.243H65.5173Z" fill="#CCCCCC"/>
<path d="M74.2395 16.8496C74.9343 19.7878 75.7086 23.4673 75.8542 24.7246H75.927C76.1453 23.2092 76.5887 20.754 77.4623 16.8496H81.3667L78.2034 27.7555C77.1181 31.4812 76.2711 32.8974 72.9093 32.8974C72.6512 32.8974 71.8571 32.8577 71.2748 32.7915V29.7011C71.4137 29.7011 71.7578 29.7474 72.0225 29.7474C72.3972 29.8061 72.7802 29.7216 73.0954 29.5107C73.4105 29.2998 73.6347 28.9779 73.7233 28.6092L69.938 16.8496H74.2395Z" fill="#CCCCCC"/>
</svg>
