<svg width="109" height="45" viewBox="0 0 109 45" fill="none" xmlns="http://www.w3.org/2000/svg">
<path d="M29.2916 17.6628H25.6784V14.9893H23.0181V22.1165H25.6784V19.3371H29.2916V22.1165H31.9519V14.9893H29.2916V17.6628Z" fill="#CCCCCC"/>
<path d="M36.305 14.3213L32.2881 22.0507H34.9351L35.63 20.5154H39.4748L40.1763 22.0507H42.8234L38.8528 14.3213H36.305ZM36.3844 18.9536L37.5293 16.4654L38.694 18.9404L36.3844 18.9536Z" fill="#CCCCCC"/>
<path d="M51.6944 18.7483C52.0588 18.3186 52.252 17.7696 52.237 17.2064C52.2441 16.7812 52.1382 16.3617 51.9301 15.9908C51.722 15.6199 51.4191 15.3109 51.0525 15.0954C50.0112 14.5174 48.8265 14.2488 47.6377 14.3211H43.1245V22.1432H45.99V20.0652H47.5385L49.3716 22.1432H52.4422L50.2517 19.6814C50.8064 19.5028 51.304 19.181 51.6944 18.7483ZM48.915 16.3726C49.0514 16.4662 49.1631 16.5916 49.2402 16.7381C49.3173 16.8845 49.3577 17.0475 49.3577 17.213C49.3577 17.3785 49.3173 17.5415 49.2402 17.688C49.1631 17.8344 49.0514 17.9599 48.915 18.0535C48.512 18.2794 48.0526 18.3851 47.5914 18.3579H45.99V16.0682H47.565C48.035 16.0358 48.5043 16.1416 48.915 16.3726Z" fill="#CCCCCC"/>
<path d="M55.572 14.7969H52.8389V22.116H60.1712V20.4748H55.572V14.7969Z" fill="#CCCCCC"/>
<path d="M69.533 14.5587C69.0936 14.0856 68.5622 13.7072 67.9713 13.4469C66.6806 12.9265 65.2384 12.9265 63.9477 13.4469C63.3324 13.6979 62.7775 14.0768 62.3198 14.5587C61.8638 15.052 61.5046 15.6267 61.261 16.2528C61.0047 16.9268 60.8768 17.6428 60.8838 18.3638C60.8745 19.098 61.0024 19.8274 61.261 20.5146C61.5045 21.1427 61.8636 21.7196 62.3198 22.2153C62.7681 22.6977 63.314 23.079 63.9213 23.3337C65.2082 23.8614 66.6512 23.8614 67.9382 23.3337C68.5423 23.0763 69.0873 22.6979 69.5397 22.2219C70.0083 21.7295 70.3749 21.1492 70.6183 20.5146C70.8755 19.827 71.0034 19.0979 70.9955 18.3638C71.0054 17.6376 70.8751 16.9164 70.6117 16.2396C70.3658 15.614 69.9993 15.0429 69.533 14.5587ZM68.2095 19.5947C68.0958 19.934 67.9183 20.2484 67.6867 20.5212C67.4752 20.7739 67.2109 20.9772 66.9124 21.1168C66.456 21.3269 65.9435 21.3824 65.4527 21.2749C64.9618 21.1674 64.5194 20.9028 64.1926 20.5212C63.9607 20.2497 63.7852 19.9348 63.6764 19.5947C63.5521 19.2033 63.4918 18.7943 63.4977 18.3837C63.4882 17.9851 63.5418 17.5876 63.6566 17.2057C63.7654 16.8657 63.9408 16.5507 64.1727 16.2793C64.3904 16.0275 64.6587 15.8245 64.9602 15.6837C65.4138 15.4701 65.9254 15.4127 66.415 15.5205C66.9046 15.6282 67.3448 15.895 67.6669 16.2793C67.8985 16.552 68.0759 16.8665 68.1897 17.2057C68.3195 17.5937 68.3822 18.0011 68.3749 18.4102C68.3798 18.8148 68.3172 19.2173 68.1897 19.6013L68.2095 19.5947Z" fill="#CCCCCC"/>
<path d="M80.0435 16.4778H82.9486V22.2947H85.6221V16.4778H88.514V14.7969H80.0435V16.4778Z" fill="#CCCCCC"/>
<path d="M71.5181 16.4778H74.4034V22.2947H77.0637V16.4778H79.9357V14.7969H71.5181V16.4778Z" fill="#CCCCCC"/>
<path d="M91.8737 20.5875V19.1912H96.3208V17.5897H91.8737V16.3059H96.923V14.625H89.0811V22.275H97.1083V20.5875H91.8737Z" fill="#CCCCCC"/>
<path d="M14.3013 25.1004H15.8763C16.0421 25.0829 16.2098 25.1002 16.3686 25.1512C16.5274 25.2023 16.6738 25.2859 16.7984 25.3968C16.923 25.5077 17.0231 25.6434 17.0922 25.7952C17.1613 25.947 17.198 26.1115 17.1998 26.2783C17.2014 26.4523 17.1656 26.6246 17.0946 26.7834C17.0237 26.9423 16.9194 27.084 16.7888 27.1989C16.6581 27.3138 16.5043 27.3992 16.3377 27.4494C16.1711 27.4995 15.9957 27.5131 15.8233 27.4893H15.1219V28.9121H14.3013V25.1004ZM15.1219 26.8342H15.7505C16.1344 26.8342 16.4123 26.682 16.4123 26.2982C16.4123 25.9143 16.1277 25.7555 15.7505 25.7555H15.0888L15.1219 26.8342Z" fill="#CCCCCC"/>
<path d="M18.6844 25.1006V28.9123H17.8638V25.1006H18.6844Z" fill="#CCCCCC"/>
<path d="M19.5903 25.0998H21.1653C21.3351 25.0778 21.5076 25.0923 21.6714 25.1423C21.8351 25.1923 21.9863 25.2767 22.1149 25.3897C22.2434 25.5027 22.3464 25.6419 22.417 25.7979C22.4876 25.9538 22.5241 26.1231 22.5241 26.2943C22.5241 26.4655 22.4876 26.6347 22.417 26.7907C22.3464 26.9466 22.2434 27.0858 22.1149 27.1988C21.9863 27.3119 21.8351 27.3962 21.6714 27.4462C21.5076 27.4962 21.3351 27.5107 21.1653 27.4887H20.4109V28.9115H19.5903V25.0998ZM20.4109 26.8336H21.0396C21.4234 26.8336 21.7014 26.6814 21.7014 26.2976C21.7014 25.9137 21.4168 25.7549 21.0396 25.7549H20.3778L20.4109 26.8336Z" fill="#CCCCCC"/>
<path d="M25.7729 27.2646H23.9531V28.2373H25.9384L25.8391 28.8991H23.1523V25.1006H25.8523V25.7624H23.9531V26.5763H25.7729V27.2646Z" fill="#CCCCCC"/>
<path d="M28.611 28.0322L28.3132 28.9123H27.5059L28.7963 25.1006H29.8353L31.1588 28.9123H30.3184L30.0007 28.0322H28.611ZM29.822 27.3704C29.5573 26.5631 29.3853 26.0469 29.2926 25.7094C29.2 26.0866 29.0081 26.6822 28.7897 27.3704H29.822Z" fill="#CCCCCC"/>
<path d="M31.6934 28.9123V25.1006H32.7125C33.1889 25.9543 34.0691 27.4962 34.2412 27.9131C34.2014 27.516 34.2014 26.8543 34.2014 26.2322V25.1006H34.9426V28.9123H33.9897C33.5794 28.1646 32.6066 26.391 32.4213 25.9543C32.4213 26.2851 32.461 27.066 32.461 27.7543V28.9123H31.6934Z" fill="#CCCCCC"/>
<path d="M35.8604 25.1003H37.3692C37.6163 25.0843 37.864 25.1217 38.0954 25.2099C38.3268 25.2981 38.5366 25.435 38.7105 25.6114C38.8843 25.7877 39.0182 25.9994 39.1031 26.2321C39.1879 26.4647 39.2218 26.7129 39.2023 26.9598C39.2219 27.2139 39.1878 27.4692 39.1022 27.7092C39.0165 27.9492 38.8812 28.1685 38.7051 28.3527C38.5291 28.5369 38.3161 28.6819 38.0802 28.7783C37.8443 28.8747 37.5908 28.9202 37.3361 28.912H35.8604V25.1003ZM36.6809 28.2436H37.303C38.0309 28.2436 38.3552 27.701 38.3552 26.9598C38.3763 26.8103 38.3647 26.6579 38.3212 26.5133C38.2777 26.3686 38.2035 26.2351 38.1035 26.1219C38.0035 26.0087 37.8801 25.9185 37.742 25.8575C37.6038 25.7965 37.454 25.7662 37.303 25.7686H36.6809V28.2436Z" fill="#CCCCCC"/>
<path d="M41.2578 25.1006H43.9049V25.7624H42.0519V26.6954H43.7858V27.3572H42.0652V28.8859H41.2578V25.1006Z" fill="#CCCCCC"/>
<path d="M48.0542 26.9924C48.0778 27.2495 48.0465 27.5086 47.9623 27.7526C47.878 27.9966 47.7429 28.2199 47.5658 28.4076C47.3886 28.5954 47.1736 28.7433 46.9349 28.8416C46.6962 28.9399 46.4394 28.9863 46.1814 28.9777C45.926 28.9851 45.672 28.9375 45.4367 28.838C45.2013 28.7385 44.9902 28.5896 44.8175 28.4012C44.6449 28.2129 44.5148 27.9896 44.4361 27.7465C44.3574 27.5034 44.332 27.2462 44.3616 26.9924C44.3369 26.7352 44.3674 26.4756 44.4512 26.2311C44.5351 25.9866 44.6702 25.7629 44.8475 25.5749C45.0249 25.3869 45.2404 25.2389 45.4795 25.141C45.7187 25.0431 45.9761 24.9975 46.2344 25.0071C46.4904 24.9975 46.7454 25.0436 46.9818 25.1423C47.2182 25.241 47.4304 25.39 47.6035 25.5788C47.7766 25.7677 47.9066 25.9919 47.9844 26.236C48.0622 26.4801 48.0861 26.7382 48.0542 26.9924ZM45.2152 26.9924C45.2152 27.7402 45.5395 28.316 46.2145 28.316C46.8895 28.316 47.2071 27.7005 47.2071 26.9924C47.2071 26.2843 46.9094 25.7086 46.2013 25.7086C45.4932 25.7086 45.2152 26.2446 45.2152 26.9858V26.9924Z" fill="#CCCCCC"/>
<path d="M49.5857 25.1006V27.3704C49.5857 28.0984 49.9629 28.3168 50.3732 28.3168C50.7835 28.3168 51.1409 28.0587 51.1409 27.3704V25.1006H51.9681V27.3307C51.9681 27.7555 51.7994 28.1628 51.499 28.4631C51.1987 28.7635 50.7913 28.9322 50.3666 28.9322C49.9419 28.9322 49.5345 28.7635 49.2342 28.4631C48.9339 28.1628 48.7651 27.7555 48.7651 27.3307V25.1006H49.5857Z" fill="#CCCCCC"/>
<path d="M52.8184 28.9123V25.1006H53.8375C54.3139 25.9543 55.161 27.4962 55.3662 27.9131C55.3264 27.516 55.3264 26.8543 55.3264 26.2322V25.1006H56.061V28.9123H55.1147C54.7044 28.1646 53.7316 26.391 53.5463 25.9543C53.5463 26.2851 53.586 27.066 53.586 27.7543V28.9123H52.8184Z" fill="#CCCCCC"/>
<path d="M56.9854 25.1003H58.4942C58.7413 25.0843 58.989 25.1217 59.2204 25.2099C59.4518 25.2981 59.6616 25.435 59.8355 25.6114C60.0093 25.7877 60.1432 25.9994 60.2281 26.2321C60.3129 26.4647 60.3468 26.7129 60.3273 26.9598C60.3469 27.2139 60.3128 27.4692 60.2272 27.7092C60.1415 27.9492 60.0062 28.1685 59.8301 28.3527C59.6541 28.5369 59.4411 28.6819 59.2052 28.7783C58.9693 28.8747 58.7158 28.9202 58.4611 28.912H56.9854V25.1003ZM57.8059 28.2436H58.428C59.1559 28.2436 59.4802 27.701 59.4802 26.9598C59.5013 26.8103 59.4897 26.6579 59.4462 26.5133C59.4027 26.3686 59.3285 26.2351 59.2285 26.1219C59.1285 26.0087 59.0051 25.9185 58.867 25.8575C58.7288 25.7965 58.579 25.7662 58.428 25.7686H57.8059V28.2436Z" fill="#CCCCCC"/>
<path d="M61.8496 27.3837V28.9123H61.0488V25.1006H62.7231C63.5503 25.1006 64.0003 25.5572 64.0003 26.1462C64.0135 26.3355 63.967 26.5242 63.8672 26.6857C63.7675 26.8471 63.6196 26.9732 63.4444 27.0462C63.6297 27.119 63.9209 27.3109 63.9209 27.9925V28.1844C63.9091 28.4283 63.9269 28.6727 63.9738 28.9123H63.1929C63.1216 28.6315 63.0948 28.3412 63.1135 28.0521V27.9991C63.1135 27.5822 63.0077 27.3837 62.3922 27.3837H61.8496ZM61.8496 26.7219H62.5113C62.9613 26.7219 63.1334 26.5498 63.1334 26.2322C63.1334 25.9146 62.9282 25.7491 62.5312 25.7491H61.8496V26.7219Z" fill="#CCCCCC"/>
<path d="M65.5574 28.9132V27.5897C65.5692 27.5509 65.5692 27.5094 65.5574 27.4706L64.2339 25.1279H65.1604C65.4582 25.7037 65.8221 26.4515 66.0273 26.8816C66.1927 26.4845 66.6096 25.6772 66.9008 25.1279H67.7611L66.4376 27.4573C66.4254 27.4961 66.4254 27.5377 66.4376 27.5765V28.9397L65.5574 28.9132Z" fill="#CCCCCC"/>
<path d="M72.7012 27.7349C72.6289 28.107 72.421 28.439 72.1177 28.6665C71.8145 28.894 71.4375 29.0006 71.06 28.9658C69.849 28.9658 69.2799 28.1121 69.2799 27.0268C69.2525 26.7734 69.2795 26.5172 69.359 26.275C69.4385 26.0329 69.5687 25.8105 69.7409 25.6227C69.9131 25.4348 70.1234 25.2858 70.3577 25.1856C70.592 25.0854 70.8449 25.0363 71.0997 25.0415C71.473 25.0015 71.8472 25.1072 72.1444 25.3365C72.4416 25.5659 72.6387 25.9012 72.6946 26.2724H71.874C71.8359 26.0932 71.7332 25.9342 71.5856 25.8256C71.438 25.717 71.2557 25.6664 71.0733 25.6834C70.4115 25.6834 70.1335 26.2989 70.1335 27.0069C70.1335 27.715 70.3585 28.3305 71.0931 28.3305C71.2708 28.34 71.4463 28.287 71.5889 28.1806C71.7316 28.0742 71.8325 27.9212 71.874 27.7481L72.7012 27.7349Z" fill="#CCCCCC"/>
<path d="M77.022 26.9924C77.0456 27.2495 77.0142 27.5086 76.93 27.7526C76.8458 27.9966 76.7107 28.2199 76.5335 28.4076C76.3564 28.5954 76.1414 28.7433 75.9027 28.8416C75.664 28.9399 75.4072 28.9863 75.1492 28.9777C74.8938 28.9851 74.6398 28.9375 74.4045 28.838C74.1691 28.7385 73.9579 28.5896 73.7853 28.4012C73.6126 28.2129 73.4826 27.9896 73.4039 27.7465C73.3252 27.5034 73.2998 27.2462 73.3293 26.9924C73.3046 26.7352 73.3352 26.4756 73.419 26.2311C73.5028 25.9866 73.6379 25.7629 73.8153 25.5749C73.9926 25.3869 74.2081 25.2389 74.4473 25.141C74.6865 25.0431 74.9439 24.9975 75.2021 25.0071C75.4581 24.9975 75.7132 25.0436 75.9496 25.1423C76.186 25.241 76.3981 25.39 76.5713 25.5788C76.7444 25.7677 76.8744 25.9919 76.9522 26.236C77.03 26.4801 77.0538 26.7382 77.022 26.9924ZM74.183 26.9924C74.183 27.7402 74.5073 28.316 75.1823 28.316C75.8573 28.316 76.1749 27.7005 76.1749 26.9924C76.1749 26.2843 75.8771 25.7086 75.169 25.7086C74.4609 25.7086 74.183 26.2446 74.183 26.9858V26.9924Z" fill="#CCCCCC"/>
<path d="M80.9372 27.4829C80.9372 26.8212 80.9372 26.0999 80.9372 25.6697C80.7585 26.4506 80.3813 27.7146 80.0107 28.9123H79.3092C79.0313 27.8668 78.6475 26.4241 78.4754 25.6631C78.4754 26.1065 78.5217 26.894 78.5217 27.5425V28.9123H77.7739V25.1006H78.9982C79.296 26.0932 79.6269 27.344 79.7394 27.9131C79.832 27.4101 80.2555 26.08 80.5732 25.1006H81.7511V28.9123H80.957L80.9372 27.4829Z" fill="#CCCCCC"/>
<path d="M82.6338 25.1004H84.2088C84.3747 25.0829 84.5424 25.1002 84.7012 25.1512C84.8599 25.2023 85.0063 25.2859 85.1309 25.3968C85.2555 25.5077 85.3556 25.6434 85.4247 25.7952C85.4938 25.947 85.5305 26.1115 85.5323 26.2783C85.5339 26.4523 85.4981 26.6246 85.4272 26.7834C85.3562 26.9423 85.2519 27.084 85.1213 27.1989C84.9907 27.3138 84.8368 27.3992 84.6702 27.4494C84.5036 27.4995 84.3282 27.5131 84.1558 27.4893H83.4544V28.9121H82.6338V25.1004ZM83.4544 26.8342H84.0831C84.4669 26.8342 84.7448 26.682 84.7448 26.2982C84.7448 25.9143 84.4669 25.7555 84.0831 25.7555H83.4213L83.4544 26.8342Z" fill="#CCCCCC"/>
<path d="M86.655 28.0322L86.3572 28.9123H85.5498L86.8402 25.1006H87.8792L89.2027 28.9123H88.3358L88.0182 28.0322H86.655ZM87.8726 27.3704C87.6013 26.5631 87.4292 26.0469 87.3366 25.7094C87.2439 26.0866 87.052 26.6822 86.8336 27.3704H87.8726Z" fill="#CCCCCC"/>
<path d="M89.7373 28.9123V25.1006H90.7564C91.2329 25.9543 92.08 27.4962 92.2917 27.9131C92.252 27.516 92.252 26.8543 92.252 26.2322V25.1006H92.9998V28.9123H92.027C91.6233 28.1646 90.6439 26.391 90.4586 25.9543C90.4586 26.2851 90.4983 27.066 90.4983 27.7543V28.9123H89.7373Z" fill="#CCCCCC"/>
<path d="M94.7991 28.9132V27.5897C94.8109 27.5509 94.8109 27.5094 94.7991 27.4706L93.4756 25.1279H94.4021C94.6999 25.7037 95.0638 26.4515 95.269 26.8816C95.4344 26.4845 95.8513 25.6772 96.1425 25.1279H97.0028L95.6793 27.4573C95.6558 27.4925 95.6443 27.5342 95.6462 27.5765V28.9397L94.7991 28.9132Z" fill="#CCCCCC"/>
<path d="M19.9747 19.8525C19.849 20.1941 19.617 20.4864 19.3129 20.6864C18.9385 20.8756 18.5207 20.9624 18.1019 20.9378C17.7421 20.943 17.3841 20.8871 17.043 20.7724C16.7358 20.6695 16.4538 20.5026 16.2158 20.2827C15.9913 20.0701 15.8133 19.8132 15.693 19.5283C15.562 19.2137 15.4945 18.8764 15.4945 18.5356C15.4945 18.1949 15.562 17.8575 15.693 17.543C15.8137 17.2511 15.9967 16.9892 16.2291 16.7753C16.4653 16.553 16.7478 16.3858 17.0563 16.2856C17.3969 16.1685 17.7549 16.1103 18.1151 16.1136C18.5329 16.1094 18.9464 16.1976 19.3261 16.3717L19.5048 16.4577C19.6215 16.5202 19.7237 16.6065 19.8049 16.711C19.8861 16.8155 19.9445 16.9359 19.9764 17.0643C20.0082 17.1928 20.0127 17.3265 19.9896 17.4568C19.9665 17.5872 19.9163 17.7112 19.8423 17.8209H22.2247L22.1453 16.9672C22.1014 16.4482 21.9184 15.9505 21.6156 15.5266C21.3129 15.1027 20.9014 14.7683 20.4247 14.5584H20.3254C19.5818 14.2758 18.7914 14.1366 17.996 14.1481C17.2966 14.1396 16.6008 14.2492 15.9379 14.4724C15.3405 14.6683 14.7859 14.976 14.3033 15.379C13.8368 15.7665 13.4614 16.252 13.2037 16.801C12.9461 17.35 12.8125 17.949 12.8125 18.5555C12.8125 19.1619 12.9461 19.7609 13.2037 20.3099C13.4614 20.8589 13.8368 21.3444 14.3033 21.7319C14.7875 22.1325 15.3417 22.4399 15.9379 22.6386C16.602 22.8562 17.2972 22.9635 17.996 22.9562C18.7944 22.953 19.5849 22.798 20.3254 22.4996H20.3783C20.8734 22.2816 21.3006 21.9342 21.615 21.4941C21.9294 21.0539 22.1194 20.5371 22.1651 19.9981L22.2114 19.4886H20.0408L19.9747 19.8525Z" fill="#CCCCCC"/>
</svg>
