<svg width="110" height="45" viewBox="0 0 110 45" fill="none" xmlns="http://www.w3.org/2000/svg">
<path d="M14.9874 33.4522C20.9703 33.4522 25.8205 29.5295 25.8205 24.6905C25.8205 19.8515 20.9703 15.9287 14.9874 15.9287C9.00444 15.9287 4.1543 19.8515 4.1543 24.6905C4.1543 29.5295 9.00444 33.4522 14.9874 33.4522Z" fill="#B3B3B3"/>
<path d="M21.4948 25.1467H14.7117L16.2536 21.5996H21.4948C21.9651 21.5996 22.4162 21.7865 22.7488 22.1191C23.0814 22.4517 23.2683 22.9028 23.2683 23.3731C23.2683 23.8435 23.0814 24.2946 22.7488 24.6272C22.4162 24.9598 21.9651 25.1467 21.4948 25.1467Z" fill="white"/>
<path d="M18.6219 29.8852H14.0293L15.8558 25.9741H20.3293L18.6219 29.8852Z" fill="white"/>
<path d="M14.2992 26.4109H12.3536L13.1477 24.9814H8.46903L7.08594 28.1116L11.2948 28.0388H13.4653L14.2992 26.4109Z" fill="white"/>
<path d="M16.5979 18.9397L11.3038 18.814L10.556 20.5147L8.96777 23.9625H13.7192L15.2347 20.6537H16.5979C16.8261 20.6537 17.0449 20.563 17.2062 20.4017C17.3676 20.2404 17.4582 20.0215 17.4582 19.7934C17.4582 19.5652 17.3676 19.3464 17.2062 19.1851C17.0449 19.0237 16.8261 18.9331 16.5979 18.9331V18.9397Z" fill="white"/>
<path d="M32.714 28.7468C32.1669 28.7479 31.6242 28.6492 31.1125 28.4556C30.639 28.286 30.2046 28.0227 29.8353 27.6813C29.4751 27.3561 29.1866 26.9595 28.9882 26.5166C28.5856 25.5441 28.5856 24.4516 28.9882 23.4791C29.1819 23.0293 29.4657 22.6239 29.822 22.2879C30.195 21.9514 30.6284 21.6886 31.0992 21.5137C31.6129 21.3296 32.1551 21.2378 32.7007 21.2424C33.3464 21.2314 33.987 21.3577 34.5801 21.6129C35.1021 21.854 35.5567 22.2199 35.9037 22.6784L34.3684 24.0416C34.1764 23.7932 33.9382 23.5842 33.6669 23.4262C33.4036 23.2742 33.104 23.1964 32.8 23.2012C32.5735 23.2012 32.349 23.2439 32.1382 23.3269C31.9373 23.405 31.7564 23.5271 31.6088 23.6843C31.4587 23.8502 31.3419 24.0434 31.2647 24.2534C31.1061 24.737 31.1061 25.2587 31.2647 25.7424C31.3435 25.9516 31.4601 26.1445 31.6088 26.3115C31.76 26.4644 31.9399 26.5858 32.1382 26.6688C32.3498 26.749 32.5737 26.7916 32.8 26.7946C33.1036 26.7962 33.4024 26.7186 33.6669 26.5696C33.9398 26.411 34.1783 26.1995 34.3684 25.9475L35.9037 27.3174C35.5529 27.7704 35.0992 28.1334 34.5801 28.3762C33.992 28.6327 33.3554 28.7591 32.714 28.7468Z" fill="#B3B3B3"/>
<path d="M36.5706 28.5879V21.4077H38.9992V28.5879H36.5706ZM38.8338 25.9408V23.9555H41.4081V25.9408H38.8338ZM41.2426 28.5879V21.4077H43.6713V28.5879H41.2426Z" fill="#B3B3B3"/>
<path d="M44.8684 28.5879V21.4077H50.725V23.2342H47.2309V26.7614H50.8243V28.5879H44.8684ZM47.0655 25.8085V24.0746H50.275V25.8085H47.0655Z" fill="#B3B3B3"/>
<path d="M51.7705 28.5885V21.4084H55.1323C56.0322 21.3467 56.925 21.6045 57.6536 22.1363C57.9908 22.4189 58.2496 22.7836 58.4049 23.1952C58.5603 23.6069 58.607 24.0516 58.5404 24.4865C58.4739 24.9214 58.2965 25.3319 58.0253 25.6783C57.754 26.0247 57.3981 26.2954 56.9918 26.4643C56.4394 26.6878 55.8471 26.7959 55.2514 26.7819H53.1337L54.1992 25.8091V28.5885H51.7705ZM54.1992 26.054L53.1205 24.9555H55.1058C55.3726 24.9781 55.6378 24.8976 55.847 24.7305C56.0048 24.5644 56.0928 24.3441 56.0928 24.115C56.0928 23.8859 56.0048 23.6656 55.847 23.4996C55.6378 23.3324 55.3726 23.2519 55.1058 23.2746H53.1205L54.1992 22.176V26.054ZM56.0786 28.5885L54.3117 25.9415H56.886L58.6727 28.5885H56.0786Z" fill="#B3B3B3"/>
<path d="M63.2121 28.747C62.6588 28.7448 62.1102 28.6463 61.5907 28.4558C61.1012 28.2848 60.6511 28.017 60.2672 27.6683C59.9066 27.3321 59.6203 26.924 59.4268 26.4705C59.2258 25.9952 59.1223 25.4844 59.1223 24.9683C59.1223 24.4523 59.2258 23.9414 59.4268 23.4661C59.6248 23.0173 59.9132 22.6141 60.2738 22.2816C60.6577 21.9329 61.1078 21.6651 61.5974 21.4941C62.6488 21.1237 63.7952 21.1237 64.8466 21.4941C65.3216 21.6707 65.7577 21.9382 66.1305 22.2816C66.4911 22.6141 66.7795 23.0173 66.9775 23.4661C67.1785 23.9414 67.282 24.4523 67.282 24.9683C67.282 25.4844 67.1785 25.9952 66.9775 26.4705C66.7813 26.9223 66.4927 27.328 66.1305 27.6617C65.7563 28.0081 65.3179 28.2779 64.84 28.4558C64.3185 28.6469 63.7675 28.7454 63.2121 28.747ZM63.2121 26.7948C63.4388 26.7974 63.6638 26.7547 63.8738 26.6691C64.0666 26.5865 64.2401 26.4648 64.3834 26.3117C64.5392 26.1527 64.6569 25.9604 64.7275 25.7492C64.8163 25.5078 64.859 25.2519 64.8532 24.9948C64.8558 24.7373 64.8109 24.4816 64.7209 24.2404C64.6489 24.0299 64.5314 23.8378 64.3768 23.6779C64.2332 23.5267 64.0597 23.4073 63.8672 23.3271C63.4603 23.1595 63.0036 23.1595 62.5966 23.3271C62.4042 23.4073 62.2306 23.5267 62.0871 23.6779C61.9325 23.8378 61.815 24.0299 61.743 24.2404C61.6552 24.482 61.6126 24.7377 61.6172 24.9948C61.6115 25.2519 61.6541 25.5078 61.743 25.7492C61.8136 25.9604 61.9312 26.1527 62.0871 26.3117C62.2304 26.4648 62.4039 26.5865 62.5966 26.6691C62.7922 26.7488 63.0009 26.7915 63.2121 26.7948Z" fill="#B3B3B3"/>
<path d="M71.2461 28.5885V21.4084H74.7137C75.3129 21.3946 75.9082 21.5073 76.4608 21.7392C76.931 21.9277 77.3312 22.2575 77.6062 22.683C77.8812 23.1085 78.0174 23.6088 77.9961 24.115C78.0094 24.6225 77.8711 25.1224 77.599 25.551C77.3136 25.9585 76.9191 26.2773 76.4608 26.4709C75.9082 26.7028 75.3129 26.8155 74.7137 26.8017H72.5961L73.6748 25.8091V28.5885H71.2461ZM73.6748 26.0539L72.5961 24.9554H74.5814C74.8503 24.9791 75.118 24.8986 75.3292 24.7304C75.4826 24.5622 75.5677 24.3427 75.5677 24.115C75.5677 23.8873 75.4826 23.6678 75.3292 23.4995C75.118 23.3314 74.8503 23.2508 74.5814 23.2745H72.5961L73.6748 22.176V26.0539Z" fill="#B3B3B3"/>
<path d="M78.7891 28.5879V21.4077H81.2177V28.5879H78.7891Z" fill="#B3B3B3"/>
<path d="M82.3977 28.5884V21.4082H85.8984C86.4954 21.3952 87.0884 21.5079 87.6389 21.7391C87.9811 21.8962 88.2858 22.1245 88.5327 22.4087C88.7796 22.693 88.9631 23.0266 89.0708 23.3874C89.1785 23.7481 89.2081 24.1277 89.1574 24.5008C89.1068 24.8739 88.9771 25.2319 88.7771 25.5509C88.4828 25.9633 88.0762 26.2825 87.6058 26.4707C87.0553 26.7019 86.4623 26.8147 85.8654 26.8016H83.7411L84.8264 25.809V28.5884H82.3977ZM84.8264 26.0538L83.7411 24.9553H85.7264C85.9953 24.979 86.263 24.8984 86.4742 24.7303C86.632 24.5643 86.72 24.3439 86.72 24.1149C86.72 23.8858 86.632 23.6655 86.4742 23.4994C86.263 23.3313 85.9953 23.2507 85.7264 23.2744H83.7411L84.8264 22.1759V26.0538Z" fill="#B3B3B3"/>
<path d="M89.9355 28.5879V21.4077H92.3642V28.5879H89.9355Z" fill="#B3B3B3"/>
<path d="M93.5391 28.5879V21.4077H95.5244L99.1972 25.8085H98.2707V21.4408H100.64V28.5879H98.6545L94.9883 24.2202H95.9148V28.5879H93.5391Z" fill="#B3B3B3"/>
<path d="M105.545 28.7474C104.997 28.7555 104.452 28.6636 103.937 28.4761C103.464 28.3065 103.029 28.0432 102.66 27.7018C102.3 27.3698 102.014 26.9663 101.819 26.5173C101.423 25.5436 101.423 24.4534 101.819 23.4798C102.016 23.028 102.304 22.6223 102.666 22.2886C103.043 21.9506 103.481 21.6878 103.957 21.5143C105.113 21.1252 106.368 21.1557 107.504 21.6003C108.043 21.8256 108.52 22.1774 108.894 22.6261L107.338 23.9893C107.133 23.7487 106.884 23.5489 106.604 23.4003C106.099 23.1639 105.52 23.1377 104.996 23.3276C104.787 23.4021 104.599 23.5245 104.447 23.6849C104.291 23.8456 104.172 24.0373 104.096 24.2474C104.011 24.4874 103.968 24.7405 103.97 24.9952C103.969 25.2455 104.011 25.4942 104.096 25.7298C104.17 25.9426 104.29 26.1368 104.447 26.2989C104.599 26.4577 104.784 26.5819 104.989 26.6628C105.212 26.753 105.45 26.798 105.691 26.7952C105.964 26.7953 106.235 26.7483 106.491 26.6562C106.793 26.5428 107.074 26.382 107.325 26.1798L108.688 27.8408C108.225 28.1372 107.718 28.3604 107.186 28.5026C106.653 28.659 106.101 28.7414 105.545 28.7474ZM108.688 27.8408L106.577 27.5298V24.8033H108.688V27.8408Z" fill="#B3B3B3"/>
</svg>
