<svg width="110" height="45" viewBox="0 0 110 45" fill="none" xmlns="http://www.w3.org/2000/svg">
<path d="M82.2133 22.7988V21.1625H82.7662C82.894 21.1625 82.999 21.1843 83.081 21.228C83.163 21.2711 83.2238 21.3305 83.2632 21.4062C83.3026 21.4818 83.3223 21.5678 83.3223 21.6642C83.3223 21.7607 83.3026 21.8461 83.2632 21.9207C83.2238 21.9953 83.1633 22.0539 83.0818 22.0965C83.0003 22.1386 82.8962 22.1596 82.7694 22.1596H82.322V21.9806H82.763C82.8504 21.9806 82.9207 21.9679 82.9739 21.9423C83.0277 21.9167 83.0666 21.8805 83.0906 21.8336C83.1151 21.7862 83.1274 21.7298 83.1274 21.6642C83.1274 21.5987 83.1151 21.5415 83.0906 21.4925C83.0661 21.4434 83.0269 21.4056 82.9731 21.379C82.9193 21.3518 82.8482 21.3382 82.7598 21.3382H82.4114V22.7988H82.2133ZM82.9835 22.0637L83.3862 22.7988H83.1561L82.7598 22.0637H82.9835Z" fill="#CCCCCC"/>
<path d="M82.7085 23.5187C83.3372 23.5187 83.8468 23.0091 83.8468 22.3804C83.8468 21.7518 83.3372 21.2422 82.7085 21.2422C82.0799 21.2422 81.5703 21.7518 81.5703 22.3804C81.5703 23.0091 82.0799 23.5187 82.7085 23.5187Z" stroke="#B3B3B3" stroke-width="0.165441" stroke-miterlimit="10"/>
<path d="M15.1265 17.8668C14.7096 19.9182 12.9692 21.2815 9.86548 21.2815C6.15959 21.2815 4.36621 19.1109 4.36621 16.2653C4.36621 13.4197 6.13312 11.1035 10.0243 11.1035C13.3331 11.1035 14.8684 12.7778 15.0868 14.4785H11.778C11.7048 14.0578 11.4718 13.6817 11.1277 13.4289C10.7835 13.176 10.355 13.066 9.93165 13.1219C8.31695 13.1219 7.76768 14.4454 7.76768 16.1594C7.76768 17.7212 8.2243 19.2565 9.96474 19.2565C10.392 19.3017 10.8206 19.1836 11.1643 18.9258C11.5081 18.668 11.7415 18.2896 11.8177 17.8668H15.1265Z" fill="#CCCCCC"/>
<path d="M16.9399 11.25H20.2488V14.9228H23.7032V11.25H27.012V21.0772H23.7032V17.0669H20.2686V21.0772H16.9598L16.9399 11.25Z" fill="#CCCCCC"/>
<path d="M32.7292 11.25V21.0772H29.4204V11.25H32.7292Z" fill="#CCCCCC"/>
<path d="M45.3235 17.8668C44.9132 19.9182 43.1728 21.2815 40.0691 21.2815C36.3566 21.2815 34.5698 19.1109 34.5698 16.2653C34.5698 13.4197 36.3367 11.1035 40.2279 11.1035C43.5367 11.1035 45.072 12.7778 45.2904 14.4785H41.9816C41.9069 14.0573 41.6725 13.6811 41.3273 13.4284C40.9821 13.1757 40.5528 13.0659 40.1286 13.1219C38.5206 13.1219 37.9713 14.4454 37.9713 16.1594C37.9713 17.7212 38.4279 19.2565 40.1684 19.2565C40.5949 19.3015 41.0226 19.1832 41.3652 18.9253C41.7079 18.6674 41.94 18.2891 42.0147 17.8668H45.3235Z" fill="#CCCCCC"/>
<path d="M49.9591 19.1912L49.2973 21.0971H46.0679L49.648 11.25H53.9429L57.662 21.064H54.1943L53.5326 19.1581L49.9591 19.1912ZM52.9304 17.0603C52.3943 15.5184 51.9576 14.1485 51.7061 13.189H51.6598C51.3951 14.2478 50.9649 15.6441 50.5083 17.0603H52.9304Z" fill="#CCCCCC"/>
<path d="M69.1868 21.0776H66.9633C66.8721 20.7851 66.8014 20.4866 66.7516 20.1842C66.0898 20.9188 65.0111 21.2828 63.4427 21.2828C59.9751 21.2828 58.228 19.0063 58.228 16.2864C58.228 13.2754 60.2133 11.085 64.0251 11.085C67.4398 11.085 69.0148 12.7791 69.2199 14.2813H65.9111C65.7457 13.7651 65.3288 13.11 63.9854 13.11C62.0927 13.11 61.6295 14.6188 61.6295 16.1872C61.6295 17.7555 62.1655 19.2379 63.9986 19.2379C65.6663 19.2379 65.9839 18.1725 65.9839 17.5239V17.4578H63.906V15.4725H69.2001L69.1868 21.0776Z" fill="#CCCCCC"/>
<path d="M82.4219 16.1607C82.4219 18.9401 80.4896 21.2629 76.6116 21.2629C72.7337 21.2629 70.9668 18.9533 70.9668 16.1806C70.9668 13.4078 72.9521 11.085 76.7837 11.085C80.3506 11.085 82.4219 13.2357 82.4219 16.1607ZM74.3881 16.1607C74.3881 17.9607 75.0499 19.2181 76.7175 19.2181C78.3852 19.2181 79.0139 17.8945 79.0139 16.2136C79.0139 14.4203 78.4116 13.1828 76.6778 13.1828C75.0631 13.1563 74.3881 14.3078 74.3881 16.1342V16.1607Z" fill="#CCCCCC"/>
<path d="M5.00244 24.0615H13.7046V26.1924H8.34435V28.1049H13.3605V30.2424H8.34435V33.8755H5.00244V24.0615Z" fill="#CCCCCC"/>
<path d="M17.7982 31.9696L17.1365 33.8755H13.8276L17.507 24.0615H21.9276L25.746 33.8755H22.1593L21.4512 31.9696H17.7982ZM20.8556 29.8387C20.3063 28.2968 19.8629 26.927 19.5982 25.9674H19.5519C19.2806 27.0262 18.8372 28.4292 18.3607 29.8387H20.8556Z" fill="#CCCCCC"/>
<path d="M30.1569 24.0616V30.0969C30.1229 30.3497 30.1472 30.6069 30.2278 30.8489C30.3083 31.0909 30.4432 31.3113 30.6219 31.4933C30.8007 31.6752 31.0187 31.8139 31.2592 31.8988C31.4997 31.9837 31.7565 32.0124 32.0098 31.983C33.1282 31.983 33.7767 31.4072 33.7767 30.0969V24.0616H37.2047V29.7793C37.2047 33.0418 34.915 34.0344 31.9503 34.0344C28.8797 34.0344 26.7422 32.9822 26.7422 29.7925V24.0352L30.1569 24.0616Z" fill="#CCCCCC"/>
<path d="M50.0014 30.6527C49.5779 32.7041 47.7912 34.0608 44.5948 34.0608C40.7831 34.0608 38.9434 31.8902 38.9434 29.0446C38.9434 26.199 40.7632 23.8828 44.7603 23.8828C48.1816 23.8828 49.7434 25.5571 49.9684 27.2578H46.5867C46.4279 26.5497 45.925 25.9343 44.6809 25.9343C43.0264 25.9343 42.4573 27.2578 42.4573 28.9784C42.4573 30.5335 42.9338 32.0688 44.7206 32.0688C45.1498 32.1135 45.5802 31.9966 45.9278 31.7408C46.2753 31.485 46.515 31.1088 46.6 30.6858L50.0014 30.6527Z" fill="#CCCCCC"/>
<path d="M60.4584 29.9049H55.1642V31.7645H61.087L60.7032 33.8953H51.8687V24.0615H60.6834V26.1924H55.151V27.7939H60.4451L60.4584 29.9049Z" fill="#CCCCCC"/>
<path d="M65.1296 26.1924H61.8208V24.0615H71.8598V26.1924H68.5509V33.8755H65.1296V26.1924Z" fill="#CCCCCC"/>
<path d="M75.9714 30.9041C76.1633 31.7578 76.8714 32.1218 77.9567 32.1218C79.0419 32.1218 79.4655 31.8174 79.4655 31.2483C79.4655 30.6791 78.9493 30.3549 77.1096 29.9843C73.675 29.2828 72.9868 28.2306 72.9868 26.9071C72.9868 25.2593 74.4228 23.8828 77.6655 23.8828C81.0339 23.8828 82.4103 25.3255 82.5692 26.8674H79.2603C79.1743 26.3446 78.85 25.8085 77.6456 25.8085C76.8581 25.8085 76.3817 26.0534 76.3817 26.5894C76.3817 27.1255 76.8052 27.324 78.6052 27.6946C82.1919 28.449 82.9 29.5409 82.9 30.9372C82.9 32.7769 81.2192 34.0608 77.7978 34.0608C74.5817 34.0608 72.8743 32.7902 72.6162 30.9041H75.9714Z" fill="#CCCCCC"/>
<path d="M106.319 9.33105H2.89795" stroke="#CCCCCC" stroke-width="0.661765" stroke-miterlimit="10"/>
<path d="M106.319 35.4385H2.89795" stroke="#CCCCCC" stroke-width="0.661765" stroke-miterlimit="10"/>
<path d="M87.2227 17.3448H86.8389C87.1373 16.1963 87.7989 15.175 88.7249 14.433C90.5646 13.0433 93.43 13.0632 96.0043 14.5323C96.7392 14.9656 97.5888 15.1641 98.4396 15.1014L100.081 14.9492C100.008 16.0697 99.539 17.1278 98.7572 17.9338C97.0764 19.5816 93.8403 19.7073 90.7631 17.9801C90.0619 17.5672 89.2671 17.3395 88.4536 17.3183L87.2227 17.3448Z" fill="#CCCCCC"/>
<path d="M92.7857 23.4132H92.4019C92.6959 22.2644 93.3556 21.2425 94.2813 20.5014C96.1276 19.1117 98.9864 19.1316 101.561 20.6007C102.295 21.034 103.146 21.2304 103.996 21.1632L105.637 21.0176C105.569 22.1392 105.099 23.1988 104.314 24.0021C102.639 25.6433 99.4033 25.7757 96.3195 24.0485C95.6195 23.6326 94.824 23.4046 94.0099 23.3867L92.7857 23.4132Z" stroke="#CCCCCC" stroke-width="0.330882" stroke-miterlimit="10"/>
<path d="M86.9832 29.409H86.606C86.8987 28.2597 87.5586 27.2373 88.4854 26.4972C90.3251 25.1075 93.1905 25.134 95.7648 26.6031C96.5015 27.0313 97.3502 27.2274 98.2001 27.1656L99.8413 27.0134C99.7663 28.1353 99.2976 29.1946 98.5177 30.0046C96.8368 31.6458 93.6074 31.7715 90.5236 30.0509C89.8222 29.6383 89.0275 29.4106 88.214 29.3891L86.9832 29.409Z" fill="#CCCCCC"/>
</svg>
