<svg width="109" height="45" viewBox="0 0 109 45" fill="none" xmlns="http://www.w3.org/2000/svg">
<path d="M42.2932 6.79619C41.9292 6.79619 41.6314 6.73001 41.3336 6.71678C39.7433 6.66715 38.1563 6.89099 36.6417 7.37854C34.7729 7.94781 32.9747 8.72705 31.2814 9.70134L30.9902 9.86016L32.0094 7.94104C32.2344 7.53075 32.4461 7.11384 32.6711 6.71016C32.7296 6.61092 32.8175 6.53229 32.9226 6.48516C35.5152 5.51061 38.2596 5.00204 41.0292 4.98296C41.691 4.98296 42.3527 5.05575 42.9814 5.11531C43.1402 5.11531 43.2527 5.11531 43.2991 4.94987C43.345 4.77868 43.4498 4.62915 43.595 4.52751C43.7402 4.42586 43.9166 4.37859 44.0932 4.39398C44.6491 4.39398 45.1983 4.26825 45.8204 4.18884L44.7748 5.71751C44.8988 5.78938 45.0181 5.86895 45.1321 5.95575C45.8163 6.32521 46.334 6.94144 46.5798 7.67907C46.8257 8.41669 46.7813 9.22029 46.4557 9.92634C46.1745 10.6072 45.8519 11.2703 45.4895 11.9116C45.4498 11.9977 45.3902 12.0771 45.2976 12.2293C45.7013 12.1896 46.0388 12.1697 46.3763 12.1168C46.4424 12.1168 46.502 11.991 46.5549 11.9249C47.085 11.2029 47.8008 10.638 48.6263 10.2903C48.8655 10.1668 49.1377 10.122 49.4039 10.1624C49.6702 10.2028 49.9168 10.3263 50.1086 10.5153C50.4858 9.89987 51.1608 10.1249 51.6969 9.93296L51.7432 9.99251C51.4719 10.4624 51.2005 10.9322 50.916 11.4021C50.6314 11.8719 50.413 12.2094 50.1682 12.6197C50.1147 12.7338 50.0747 12.8537 50.0491 12.9771L50.1285 13.0366C50.2797 12.9655 50.4256 12.8837 50.5652 12.7918C51.6281 12.0021 52.5272 11.0132 53.2123 9.88001C53.2489 9.80701 53.3045 9.74516 53.3732 9.70093C53.4418 9.6567 53.5211 9.6317 53.6027 9.62854C53.9204 9.62854 54.2645 9.58884 54.6152 9.55575L53.9535 10.7271V10.7734L54.152 10.6278C54.5557 10.2903 54.9594 9.96604 55.3696 9.60207C55.4761 9.47284 55.6108 9.36982 55.7634 9.30097C55.9161 9.23212 56.0825 9.19929 56.2498 9.20501C56.5277 9.24472 56.6799 9.39693 56.6402 9.66825C56.608 9.91281 56.5341 10.1501 56.4219 10.3697C56.1638 10.8528 55.8594 11.3094 55.5814 11.7859C55.502 11.9182 55.4424 12.0572 55.3366 12.269C55.4452 12.2586 55.5519 12.2341 55.6542 12.1962C56.7271 11.5719 57.6544 10.7259 58.3741 9.71457L57.1167 9.85354C57.2298 9.626 57.3558 9.40506 57.4939 9.19178C57.5306 9.15385 57.575 9.12419 57.624 9.10479C57.6731 9.08539 57.7258 9.07669 57.7785 9.07928C58.078 9.09088 58.374 9.01182 58.6279 8.85242C58.8818 8.69302 59.0816 8.46072 59.2013 8.1859C60.2315 6.3512 61.5271 4.67875 63.0461 3.22266C63.3651 2.94817 63.711 2.7065 64.0785 2.50134C64.1656 2.43096 64.2742 2.39258 64.3862 2.39258C64.4982 2.39258 64.6068 2.43096 64.6939 2.50134C64.7791 2.57472 64.8376 2.67423 64.8604 2.78435C64.8831 2.89448 64.8688 3.00903 64.8196 3.11016C64.6331 3.61358 64.4005 4.09872 64.1248 4.55943C63.0639 5.99427 61.7843 7.25371 60.3329 8.29178C60.1911 8.41935 60.0605 8.55883 59.9424 8.70869L59.9954 8.79472L62.6424 8.53663V8.59619L62.4108 8.83443C61.941 9.36384 61.4513 9.8734 61.0145 10.4227C60.8566 10.6725 60.7591 10.9557 60.7299 11.2499C60.7005 11.3465 60.7018 11.4499 60.7334 11.5459C60.7651 11.6418 60.8257 11.7256 60.9069 11.7858C60.9881 11.846 61.0859 11.8795 61.1869 11.8819C61.2879 11.8843 61.3872 11.8554 61.4711 11.7991C61.6517 11.7108 61.8189 11.5971 61.9674 11.4616C62.4476 11.0234 62.8465 10.5036 63.1454 9.92634C63.0394 9.78507 62.9627 9.62401 62.9199 9.45264C62.8771 9.28128 62.869 9.10308 62.8961 8.92855C62.9233 8.75402 62.9851 8.58669 63.0779 8.43641C63.1707 8.28613 63.2927 8.15595 63.4366 8.05354C63.5345 7.9881 63.6496 7.95317 63.7674 7.95317C63.8852 7.95317 64.0004 7.9881 64.0983 8.05354C64.1917 8.11579 64.2597 8.20939 64.29 8.31741C64.3204 8.42544 64.3111 8.54076 64.2638 8.64251C64.1844 8.91384 64.0785 9.18516 63.966 9.51604C64.1899 9.46973 64.4109 9.41006 64.6277 9.33737C65.2859 9.07292 65.8746 8.66086 66.3483 8.13296C66.4476 8.02707 66.4476 7.83516 66.5005 7.68295C66.6173 7.30384 66.7634 6.93435 66.9373 6.57781C67.0719 6.38309 67.2674 6.23874 67.4932 6.16751C67.5734 6.14648 67.6574 6.14389 67.7387 6.15993C67.8201 6.17598 67.8968 6.21025 67.963 6.26016C68.0085 6.32354 68.0377 6.39712 68.0481 6.47443C68.0585 6.55174 68.0497 6.63041 68.0226 6.70354C67.8604 7.03964 67.6653 7.35884 67.4402 7.65648C67.281 7.83373 67.1653 8.04559 67.1021 8.27531C67.0389 8.50502 67.0301 8.74629 67.0763 8.98001C67.288 8.91384 67.4932 8.85428 67.6917 8.77487L69.5711 7.98737C69.6335 7.96387 69.6876 7.92242 69.7264 7.86825C69.7653 7.81407 69.7872 7.74959 69.7895 7.68295C69.8188 7.16859 69.9881 6.67201 70.2792 6.24693C70.361 6.12465 70.479 6.03091 70.6165 5.97872C70.7541 5.92654 70.9045 5.91851 71.0469 5.95575C71.252 6.00207 71.3711 6.13443 71.3248 6.32634C71.2673 6.60119 71.1762 6.86791 71.0535 7.12046C70.942 7.34152 70.7893 7.5392 70.6035 7.70281C70.5024 7.7856 70.4244 7.89301 70.3768 8.01471C70.3293 8.13641 70.3139 8.26829 70.3321 8.39766C70.3321 8.9734 70.3983 9.54913 70.3851 10.1249C70.3596 10.4119 70.2753 10.6907 70.1377 10.9439C70 11.197 69.8118 11.4192 69.5847 11.5967C69.3576 11.7741 69.0965 11.903 68.8175 11.9754C68.5386 12.0478 68.2477 12.0621 67.963 12.0175C67.8434 12.0047 67.7285 11.9635 67.628 11.8973C67.5275 11.8311 67.4443 11.7418 67.3854 11.6368C67.3264 11.5319 67.2934 11.4144 67.2892 11.2941C67.2849 11.1739 67.3095 11.0543 67.3608 10.9455C67.5475 10.4618 67.8928 10.0559 68.3402 9.79398C68.6446 9.59546 69.002 9.41678 69.2932 9.2381C69.7498 8.99325 69.7829 8.94693 69.7299 8.38443L69.5314 8.45722C68.8299 8.74178 68.1285 9.05281 67.4138 9.3109C67.1226 9.41678 67.0763 9.59546 67.0299 9.85354C66.9576 10.306 66.8378 10.7497 66.6726 11.1771C66.4598 11.5565 66.1334 11.8596 65.7392 12.0436C65.345 12.2276 64.903 12.2833 64.4755 12.2028C64.3833 12.1906 64.2947 12.1591 64.2155 12.1104C64.1363 12.0617 64.0683 11.9968 64.0158 11.92C63.9634 11.8432 63.9277 11.7562 63.9111 11.6647C63.8945 11.5731 63.8974 11.4792 63.9196 11.3888C63.9485 11.1405 64.0324 10.9018 64.1652 10.69C64.298 10.4782 64.4764 10.2987 64.6873 10.1646C65.1108 9.89987 65.5674 9.67487 66.0108 9.44987C66.4542 9.22487 66.4741 9.13222 66.4145 8.64913C66.2358 8.78148 66.077 8.91384 65.9116 9.03295C65.3016 9.5409 64.5607 9.86659 63.7741 9.97266C63.6748 9.97266 63.5689 10.1116 63.5094 10.2109C63.0512 11.078 62.3647 11.8034 61.5241 12.3087C61.3291 12.4316 61.1101 12.5111 60.8817 12.5419C60.6534 12.5728 60.4211 12.5541 60.2005 12.4874C60.0726 12.4623 59.9516 12.4095 59.8462 12.3326C59.7408 12.2558 59.6535 12.1569 59.5905 12.0427C59.5274 11.9286 59.4901 11.802 59.4812 11.6719C59.4722 11.5418 59.4919 11.4113 59.5388 11.2896C59.7389 10.6886 60.0662 10.1379 60.4983 9.67487C60.5976 9.55575 60.7035 9.44325 60.8094 9.33075V9.25134C60.4189 9.32413 60.0351 9.40354 59.6513 9.48957C59.5983 9.48957 59.5586 9.5756 59.5255 9.62854L57.4476 13.4668C57.4432 13.5019 57.4432 13.5375 57.4476 13.5727C62.182 13.0318 66.9434 12.7623 71.7086 12.7653L70.9741 13.4271L72.066 14.155C71.8873 14.155 71.7549 14.155 71.6226 14.155C69.3527 14.155 67.0829 14.0756 64.813 14.155C62.2255 14.2212 59.6446 14.3932 57.0571 14.5256C56.9993 14.5371 56.9444 14.56 56.8955 14.5929C56.8467 14.6259 56.8049 14.6682 56.7726 14.7175C56.4285 15.333 56.1108 15.955 55.7667 16.5771C55.7442 16.6409 55.7019 16.6959 55.6459 16.734C55.59 16.7721 55.5233 16.7913 55.4557 16.7888C55.0586 16.7888 54.6616 16.8484 54.2116 16.8881L55.4755 14.6315C51.5049 14.8499 47.5741 15.3263 43.6564 15.8293C43.667 15.7271 43.7134 15.632 43.7872 15.5606C43.861 15.4892 43.9576 15.4461 44.0601 15.4388C46.2108 15.0881 48.3483 14.6977 50.4924 14.38C52.1469 14.1352 53.8013 13.9499 55.4689 13.7977C55.6648 13.8043 55.8579 13.749 56.0206 13.6397C56.1833 13.5305 56.3075 13.3727 56.3755 13.1888C56.5939 12.7256 56.8652 12.2955 57.077 11.8057C56.9976 11.8653 56.9182 11.9249 56.8321 11.9778C56.3689 12.3021 55.9123 12.6396 55.4226 12.9307C55.1635 13.0625 54.8792 13.137 54.5888 13.1491C54.5146 13.1625 54.4381 13.1555 54.3676 13.1289C54.297 13.1022 54.235 13.057 54.1882 12.9979C54.1413 12.9388 54.1114 12.8681 54.1015 12.7934C54.0916 12.7186 54.1022 12.6426 54.1321 12.5734C54.2378 12.2231 54.3775 11.884 54.5491 11.5609C54.7013 11.2631 54.8998 10.9852 55.0719 10.694C55.1214 10.6017 55.1656 10.5067 55.2042 10.4094L55.138 10.3432C54.9886 10.4295 54.8488 10.5315 54.7211 10.6477C53.9667 11.4749 53.2123 12.3021 52.4777 13.1425C52.4285 13.216 52.3627 13.277 52.2858 13.3207C52.2088 13.3643 52.1227 13.3894 52.0343 13.394C51.7498 13.394 51.4719 13.4403 51.141 13.4734L51.6174 12.494L51.5711 12.4477C51.4454 12.5469 51.3196 12.6462 51.1873 12.7322C50.7571 13.0168 50.3402 13.3212 49.8638 13.5594C49.2417 13.8903 49.0829 13.8374 48.6461 13.308C48.388 13.48 48.1432 13.6653 47.8785 13.8241C47.5329 14.055 47.1292 14.1835 46.7138 14.1947C46.6054 14.2097 46.495 14.1996 46.3912 14.1652C46.2873 14.1308 46.1927 14.073 46.1147 13.9963C46.0367 13.9196 45.9774 13.826 45.9413 13.7227C45.9051 13.6194 45.8932 13.5092 45.9064 13.4006C45.9064 13.1491 45.9594 12.8977 45.9858 12.6197C45.6285 12.6528 45.2711 12.666 44.927 12.7256C44.8277 12.7256 44.7351 12.858 44.6557 12.944C43.1898 14.5941 41.4364 15.9642 39.4807 16.9874C38.1087 17.7309 36.617 18.2282 35.0733 18.4565C34.3911 18.5737 33.6918 18.5444 33.0219 18.3705C32.864 18.3558 32.7132 18.2985 32.5854 18.2047C32.4577 18.1109 32.3579 17.9841 32.2967 17.838C32.2355 17.6918 32.2152 17.5317 32.238 17.3748C32.2609 17.218 32.3259 17.0703 32.4263 16.9477C32.7181 16.5388 33.0733 16.1792 33.4785 15.8822C34.7004 15.0342 36.0375 14.3657 37.4491 13.8969C37.7866 13.7712 38.1108 13.6719 38.4616 13.5396C38.5867 13.4928 38.6934 13.4069 38.766 13.2947C39.8733 11.2697 40.9763 9.24251 42.0748 7.2131C42.1542 7.08737 42.2071 6.97487 42.2932 6.79619ZM40.0696 13.0366C40.1091 13.0424 40.1493 13.0424 40.1888 13.0366C41.4395 12.7984 42.6902 12.5668 43.941 12.3219C44.0299 12.3035 44.1081 12.2513 44.1594 12.1763C44.6933 11.3862 45.0645 10.4976 45.2513 9.56237C45.3609 9.11031 45.3084 8.63409 45.1028 8.21683C44.8972 7.79956 44.5515 7.46774 44.1263 7.27928C43.9145 7.18001 43.8152 7.20648 43.6895 7.40501C42.538 9.20501 41.3733 10.9918 40.2152 12.7852C40.1689 12.8646 40.1292 12.9374 40.0696 13.0366ZM43.6233 13.0366L43.5638 12.9705C43.4845 12.9636 43.4048 12.9636 43.3255 12.9705L39.7057 13.8969C39.6129 13.9184 39.5258 13.9597 39.4504 14.018C39.375 14.0762 39.3131 14.15 39.2689 14.2344C38.9314 14.7705 38.6071 15.2999 38.2167 15.816C38.0634 16.0056 37.8801 16.1687 37.6741 16.2991C37.6264 16.3215 37.5745 16.3332 37.5219 16.3332C37.4692 16.3332 37.4173 16.3215 37.3696 16.2991C37.3299 16.2991 37.3366 16.1138 37.3696 16.0344C37.5285 15.7168 37.7138 15.4124 37.8858 15.1013C37.9983 14.9094 38.1042 14.7109 38.2498 14.4396C38.0579 14.4991 37.9388 14.519 37.8329 14.5653C37.2482 14.8053 36.6781 15.0793 36.1255 15.3859C35.6368 15.688 35.1915 16.0554 34.802 16.4778C34.3785 16.9344 34.5836 17.3778 35.2057 17.4043C35.699 17.4376 36.1945 17.411 36.6814 17.3249C38.8417 16.8789 40.8326 15.8331 42.4255 14.3072C42.8358 13.8969 43.2196 13.4535 43.6233 13.03V13.0366ZM47.2299 12.9903L47.2961 13.03C47.2837 13.0942 47.2905 13.1607 47.3158 13.221C47.3411 13.2813 47.3837 13.3327 47.4382 13.3689C47.4928 13.405 47.5568 13.4241 47.6222 13.4239C47.6876 13.4236 47.7514 13.404 47.8057 13.3675C48.0853 13.2337 48.3439 13.0598 48.5733 12.8513C49.0686 12.4266 49.4353 11.8719 49.6321 11.2499C49.6595 11.1635 49.6666 11.072 49.6528 10.9825C49.639 10.893 49.6048 10.8078 49.5527 10.7337C49.4468 10.6477 49.202 10.7337 49.0233 10.7337C48.9328 10.7575 48.8504 10.8056 48.7851 10.8727C48.4656 11.1436 48.171 11.4425 47.9049 11.766C47.6497 12.1544 47.4241 12.5615 47.2299 12.9837V12.9903ZM60.7498 7.27928L60.816 7.3256C61.9419 6.52016 62.8939 5.4961 63.6152 4.31457C63.6792 4.21026 63.7177 4.09239 63.7277 3.97046C63.7365 3.91444 63.7334 3.8572 63.7186 3.80247C63.7037 3.74774 63.6775 3.69674 63.6417 3.65281C63.5916 3.62671 63.536 3.61308 63.4796 3.61308C63.4231 3.61308 63.3675 3.62671 63.3174 3.65281C63.0912 3.80577 62.8826 3.98333 62.6954 4.18222C61.9407 5.06758 61.3066 6.04889 60.8094 7.1006L60.7498 7.27928ZM69.591 9.58222C69.0101 9.73689 68.5033 10.0935 68.1616 10.5881C68.0954 10.7006 68.1616 10.8727 68.1086 11.0116C68.2505 11.0414 68.3969 11.0414 68.5388 11.0116C68.8092 10.8713 69.0443 10.6716 69.2265 10.4275C69.4087 10.1834 69.5333 9.9012 69.591 9.60207V9.58222ZM66.216 9.81384L66.1366 9.72119C65.766 9.97928 65.3821 10.2241 65.0248 10.4955C64.9048 10.6089 64.814 10.7497 64.7601 10.9057C64.6608 11.1307 64.7601 11.2697 65.0248 11.2234C65.1393 11.1937 65.2486 11.1469 65.3491 11.0844C65.7817 10.788 66.0902 10.3428 66.216 9.83369V9.81384Z" fill="#B3B3B3"/>
<path d="M44.0611 27.0401C43.7254 27.0422 43.3918 26.9862 43.0751 26.8746C42.809 26.7922 42.5632 26.6546 42.3538 26.471L42.5457 26.0938C42.7368 26.27 42.962 26.4051 43.2074 26.4908C43.4837 26.599 43.7776 26.6551 44.0743 26.6563C44.3154 26.6637 44.5556 26.6256 44.7824 26.5438C44.9424 26.4879 45.0826 26.3867 45.1861 26.2526C45.2718 26.1329 45.3181 25.9895 45.3185 25.8423C45.3254 25.6814 45.2683 25.5244 45.1596 25.4055C45.0489 25.287 44.9101 25.1982 44.756 25.1474C44.5745 25.0785 44.3888 25.021 44.2001 24.9754L43.5913 24.8232C43.3988 24.7672 43.2126 24.6918 43.0354 24.5982C42.8726 24.5098 42.7322 24.3853 42.6251 24.2342C42.5173 24.0548 42.4644 23.8477 42.4729 23.6386C42.4635 23.405 42.5258 23.174 42.6516 22.9768C42.7901 22.7711 42.9856 22.6101 43.2141 22.5136C43.5169 22.3841 43.8445 22.3231 44.1736 22.3349C44.4356 22.3366 44.6962 22.3745 44.9479 22.4474C45.1826 22.5116 45.4059 22.6121 45.6096 22.7452L45.4442 23.1357C45.2419 23.0015 45.018 22.903 44.7824 22.8445C44.5671 22.7838 44.3444 22.7526 44.1207 22.7518C43.895 22.7477 43.6705 22.7858 43.4589 22.8643C43.2985 22.9227 43.1583 23.0261 43.0552 23.1621C42.9703 23.2893 42.9264 23.4394 42.9295 23.5923C42.926 23.7514 42.9801 23.9065 43.0817 24.0291C43.1985 24.1434 43.3384 24.2314 43.492 24.2871C43.6744 24.3497 43.86 24.4027 44.0479 24.446L44.6567 24.6048C44.8474 24.6596 45.0316 24.735 45.206 24.8298C45.371 24.9119 45.5123 25.0349 45.6163 25.1871C45.7293 25.3621 45.7848 25.568 45.7751 25.7761C45.7739 25.9969 45.7096 26.2127 45.5898 26.3982C45.4475 26.6031 45.2502 26.7637 45.0207 26.8614C44.7174 26.9892 44.3901 27.0502 44.0611 27.0401Z" fill="#CCCCCC"/>
<path d="M48.8659 27.0393C48.5358 27.0443 48.2078 26.9859 47.8998 26.8672C47.6115 26.7471 47.3498 26.5712 47.1296 26.3498C46.9093 26.1284 46.7349 25.8658 46.6163 25.5769C46.4977 25.288 46.4372 24.9786 46.4382 24.6663C46.4393 24.354 46.5019 24.045 46.6226 23.7569C46.7414 23.4765 46.9146 23.2224 47.1321 23.0091C47.3482 22.7858 47.6101 22.612 47.8998 22.4996C48.5218 22.2612 49.2101 22.2612 49.8321 22.4996C50.1192 22.6078 50.3806 22.7746 50.5998 22.9893C50.8201 23.2001 50.9937 23.4549 51.1093 23.7371C51.3477 24.3386 51.3477 25.0084 51.1093 25.6099C50.992 25.8912 50.8186 26.1456 50.5998 26.3577C50.3789 26.5702 50.118 26.7367 49.8321 26.8474C49.5255 26.9733 49.1974 27.0384 48.8659 27.0393ZM48.8659 26.6091C49.1282 26.6108 49.3885 26.5636 49.6336 26.4702C49.8631 26.3807 50.0707 26.2431 50.2424 26.0665C50.4173 25.8946 50.5567 25.69 50.6527 25.4643C50.7498 25.2201 50.7992 24.9595 50.7983 24.6966C50.7992 24.436 50.7498 24.1776 50.6527 23.9356C50.5568 23.7079 50.4175 23.5011 50.2424 23.3268C50.0687 23.1543 49.8615 23.0191 49.6336 22.9297C49.138 22.7353 48.5873 22.7353 48.0917 22.9297C47.8598 23.019 47.6482 23.1541 47.4696 23.3268C47.2018 23.6038 47.0204 23.9528 46.9476 24.3312C46.8747 24.7096 46.9135 25.101 47.0593 25.4577C47.1536 25.6862 47.2932 25.8933 47.4696 26.0665C47.6462 26.2434 47.8582 26.381 48.0917 26.4702C48.3388 26.5646 48.6014 26.6117 48.8659 26.6091Z" fill="#CCCCCC"/>
<path d="M54.3905 27.0393C54.0626 27.0448 53.7366 26.9863 53.431 26.8673C53.1451 26.7566 52.8842 26.5901 52.6633 26.3776C52.4464 26.1652 52.2752 25.9107 52.1604 25.6298C51.9137 25.0299 51.9137 24.3568 52.1604 23.757C52.2733 23.4696 52.4454 23.2092 52.6654 22.9926C52.8854 22.776 53.1485 22.608 53.4376 22.4996C53.7428 22.3783 54.0687 22.3176 54.3972 22.3209C54.7205 22.32 55.0412 22.3783 55.3435 22.493C55.6288 22.5996 55.885 22.7719 56.0913 22.9959L55.7802 23.307C55.5941 23.1196 55.3678 22.977 55.1185 22.89C54.8814 22.8017 54.6303 22.7569 54.3773 22.7577C54.1142 22.7534 53.853 22.803 53.6097 22.9033C53.3769 22.9909 53.1651 23.1261 52.9876 23.3003C52.8105 23.4744 52.669 23.6812 52.5707 23.9092C52.4736 24.1511 52.4242 24.4095 52.4251 24.6702C52.4242 24.933 52.4736 25.1936 52.5707 25.4378C52.6691 25.6638 52.8107 25.8684 52.9876 26.04C53.163 26.2184 53.3753 26.3562 53.6097 26.4437C53.8539 26.5408 54.1145 26.5902 54.3773 26.5893C54.6303 26.5901 54.8814 26.5453 55.1185 26.457C55.3668 26.3647 55.5925 26.2203 55.7802 26.0334L56.0913 26.3445C55.885 26.5685 55.6288 26.7408 55.3435 26.8474C55.0411 26.9721 54.7176 27.0373 54.3905 27.0393Z" fill="#CCCCCC"/>
<path d="M57.0625 27V22.3677H57.5721V26.5699H60.1596V26.9868L57.0625 27Z" fill="#CCCCCC"/>
<path d="M60.2214 27L62.3325 22.3677H62.8156L64.9266 27H64.4104L62.4714 22.6655H62.67L60.7244 27H60.2214ZM61.0553 25.7691L61.2008 25.3721H63.8876L64.0332 25.7691H61.0553Z" fill="#CCCCCC"/>
<path d="M39.5298 32.7046C40.1257 32.651 40.7191 32.8313 41.1843 33.2075C41.3548 33.3683 41.489 33.5637 41.578 33.7805C41.667 33.9973 41.7088 34.2306 41.7004 34.4649C41.7091 34.7547 41.6481 35.0424 41.5226 35.3038C41.3971 35.5651 41.2107 35.7926 40.9791 35.9671C40.5024 36.3039 39.9278 36.4738 39.3446 36.4502H37.7629V36.2384C38.1997 36.2384 38.2526 36.1524 38.2526 35.6759V33.4788C38.2526 32.9958 38.1865 32.9494 37.7629 32.9164V32.7046H39.5298ZM39.0468 35.6296C39.0468 36.0399 39.1526 36.1788 39.5696 36.1788C40.3504 36.1788 40.8004 35.6362 40.8004 34.5509C40.8286 34.0854 40.6743 33.6273 40.3703 33.2737C40.2466 33.1587 40.1004 33.0705 39.941 33.0147C39.7815 32.9588 39.6123 32.9366 39.4438 32.9494C39.2321 32.9494 39.1328 32.9958 39.0997 33.0355C39.0666 33.0752 39.0335 33.1811 39.0335 33.3465L39.0468 35.6296Z" fill="#CCCCCC"/>
<path d="M45.3625 35.4708C45.3625 35.6296 45.1706 36.2914 45.1176 36.4502H42.1265V36.245C42.6493 36.1921 42.689 36.1656 42.689 35.6759V33.4789C42.689 32.9891 42.6162 32.9494 42.2257 32.9164V32.7046H44.0985C44.7073 32.7046 44.9059 32.7046 44.9853 32.7046C44.9853 32.8105 45.025 33.2803 45.0448 33.6377H44.8198C44.7746 33.4445 44.6914 33.2623 44.575 33.1017C44.4691 32.9825 44.3963 32.9494 44.0985 32.9494H43.7213C43.5029 32.9494 43.4831 32.9494 43.4831 33.1546V34.4119H44.0456C44.3698 34.4119 44.4294 34.3259 44.5154 33.9222H44.7404V35.2061H44.5154C44.4228 34.7759 44.3765 34.7097 44.039 34.7097H43.4831V35.7024C43.4831 36.0994 43.4831 36.2186 43.8537 36.2252H44.264C44.5816 36.2252 44.6676 36.1855 44.8 36.0266C44.941 35.8505 45.0588 35.657 45.1507 35.4509L45.3625 35.4708Z" fill="#CCCCCC"/>
<path d="M47.9455 33.6574C47.833 33.2868 47.6675 32.8632 47.1381 32.8632C47.0638 32.8604 46.9897 32.873 46.9205 32.9004C46.8513 32.9277 46.7886 32.9692 46.7363 33.0221C46.684 33.075 46.6433 33.1382 46.6168 33.2077C46.5903 33.2772 46.5785 33.3514 46.5822 33.4257C46.5822 33.7434 46.8006 33.9287 47.3036 34.1868C47.9256 34.4912 48.3161 34.789 48.3161 35.3647C48.3073 35.5349 48.2636 35.7015 48.1878 35.8541C48.112 36.0067 48.0057 36.1421 47.8754 36.2519C47.7451 36.3618 47.5936 36.4437 47.4304 36.4925C47.2671 36.5414 47.0956 36.5562 46.9263 36.536C46.5951 36.5242 46.2674 36.464 45.9536 36.3574C45.9536 36.225 45.8212 35.6294 45.7815 35.3581L46.0065 35.3051C46.1256 35.6691 46.4499 36.2978 47.0124 36.2978C47.0899 36.3032 47.1677 36.2914 47.2402 36.2633C47.3127 36.2352 47.3781 36.1915 47.4318 36.1353C47.4855 36.0791 47.5262 36.0117 47.5509 35.938C47.5756 35.8643 47.5838 35.7861 47.5749 35.7088C47.5749 35.3713 47.3697 35.1794 46.9131 34.9147C46.3109 34.5971 45.9205 34.3059 45.9205 33.7037C45.9205 33.1015 46.3903 32.625 47.244 32.625C47.522 32.6346 47.7988 32.6678 48.0712 32.7243C48.0712 32.9426 48.1308 33.2404 48.1771 33.6044L47.9455 33.6574Z" fill="#CCCCCC"/>
<path d="M51.0053 34.4119C51.6075 34.5244 52.0376 34.809 52.0376 35.3582C52.0306 35.5409 51.9755 35.7184 51.8779 35.873C51.7803 36.0275 51.6437 36.1535 51.4818 36.2384C51.143 36.4065 50.7679 36.4883 50.3899 36.4766H48.7751V36.2649C49.2185 36.2185 49.2649 36.1921 49.2649 35.7024V33.4788C49.2649 32.9957 49.1854 32.9428 48.7751 32.9163V32.7046H50.5288C50.8567 32.68 51.1848 32.7489 51.4751 32.9031C51.5866 32.9728 51.6778 33.0707 51.7393 33.1869C51.8009 33.3031 51.8308 33.4335 51.8259 33.5649C51.8063 33.7785 51.7143 33.979 51.565 34.1331C51.4157 34.2872 51.2182 34.3856 51.0053 34.4119ZM50.2972 34.3126C50.8465 34.3126 51.045 34.0744 51.045 33.6509C51.056 33.5598 51.0467 33.4675 51.0178 33.3805C50.9889 33.2935 50.9411 33.2139 50.8779 33.1475C50.8146 33.0811 50.7375 33.0295 50.652 32.9964C50.5665 32.9633 50.4747 32.9495 50.3832 32.956C50.2904 32.9496 50.1974 32.9655 50.1119 33.0024C50.0457 33.0421 50.0524 33.095 50.0524 33.2141V34.3126H50.2972ZM50.0722 35.6362C50.0722 36.0465 50.2641 36.1788 50.5751 36.1722C50.8862 36.1656 51.2369 35.8876 51.2369 35.3516C51.2369 34.8156 50.9524 34.5244 50.3104 34.5244H50.1053L50.0722 35.6362Z" fill="#CCCCCC"/>
<path d="M54.5914 32.625C54.8457 32.6168 55.0989 32.6606 55.3357 32.7535C55.5726 32.8465 55.788 32.9868 55.9688 33.1657C56.1496 33.3447 56.2921 33.5586 56.3875 33.7945C56.4829 34.0303 56.5292 34.2831 56.5237 34.5375C56.5382 34.9351 56.4328 35.328 56.2213 35.665C56.0097 36.0021 55.7018 36.2677 55.3374 36.4276C54.973 36.5875 54.5689 36.6342 54.1777 36.5616C53.7864 36.489 53.426 36.3006 53.1432 36.0207C52.8604 35.7407 52.6682 35.3823 52.5916 34.9918C52.515 34.6013 52.5575 34.1968 52.7136 33.8308C52.8697 33.4648 53.1322 33.1541 53.467 32.9391C53.8019 32.7241 54.1936 32.6146 54.5914 32.625ZM54.4987 32.8765C53.9164 32.8765 53.4796 33.4522 53.4796 34.4713C53.4796 35.4904 53.87 36.2845 54.6443 36.2845C55.1936 36.2845 55.6171 35.7551 55.6171 34.6963C55.6171 33.6375 55.1737 32.8765 54.4987 32.8765Z" fill="#CCCCCC"/>
<path d="M60.6528 36.4831H60.4808C59.7462 36.4434 59.5345 36.2912 59.3624 36.0464C59.1459 35.7197 58.9471 35.3818 58.7668 35.0339C58.7392 34.9665 58.6893 34.9107 58.6254 34.8758C58.5616 34.8409 58.4877 34.8289 58.4161 34.842H58.297V35.6824C58.297 36.1522 58.3565 36.1919 58.7933 36.2449V36.4567H57.0264V36.2449C57.4631 36.1986 57.5161 36.1522 57.5161 35.6824V33.4721C57.5161 33.0155 57.4565 32.9493 57.0264 32.9162V32.7044H58.7006C59.0612 32.6686 59.424 32.7448 59.7396 32.9228C59.8645 33.0071 59.966 33.1218 60.0343 33.2561C60.1026 33.3904 60.1355 33.5399 60.13 33.6905C60.1254 33.9027 60.0528 34.1078 59.923 34.2758C59.7932 34.4437 59.6129 34.5656 59.4087 34.6236C59.4947 34.7956 59.7198 35.1728 59.8918 35.4375C60.0229 35.6484 60.1689 35.8496 60.3286 36.0397C60.4215 36.1587 60.5484 36.2464 60.6925 36.2912L60.6528 36.4831ZM58.4558 34.6037C58.6552 34.6194 58.854 34.5656 59.0183 34.4515C59.1101 34.3685 59.1822 34.266 59.2292 34.1515C59.2761 34.0369 59.2968 33.9133 59.2896 33.7897C59.2896 33.1809 58.9389 32.9559 58.6278 32.9559C58.5354 32.9452 58.4421 32.9662 58.3631 33.0155C58.3234 33.0486 58.3102 33.1214 58.3102 33.2339V34.617L58.4558 34.6037Z" fill="#CCCCCC"/>
<path d="M62.6634 32.7043C63.2572 32.6517 63.8481 32.8321 64.3112 33.2072C64.4818 33.368 64.616 33.5634 64.705 33.7802C64.794 33.997 64.8358 34.2303 64.8274 34.4646C64.8374 34.7539 64.7776 35.0414 64.6533 35.3028C64.5289 35.5643 64.3435 35.792 64.1127 35.9668C63.636 36.3036 63.0614 36.4734 62.4782 36.4499H60.8833V36.2381C61.3267 36.2381 61.373 36.1521 61.373 35.6756V33.4785C61.373 32.9954 61.3134 32.9491 60.8833 32.916V32.7043H62.6634ZM62.2068 35.6293C62.2068 36.0396 62.3061 36.1785 62.7296 36.1785C63.5039 36.1785 63.9539 35.6359 63.9539 34.5506C63.9838 34.086 63.832 33.628 63.5304 33.2734C63.4052 33.1585 63.2579 33.0704 63.0974 33.0147C62.9369 32.9589 62.7667 32.9366 62.5973 32.9491C62.3855 32.9491 62.2862 32.9954 62.2532 33.0351C62.2201 33.0749 62.1936 33.1807 62.1936 33.3462L62.2068 35.6293Z" fill="#CCCCCC"/>
<path d="M68.4916 35.4708C68.4916 35.6296 68.3063 36.2914 68.2534 36.4502H65.2622V36.245C65.785 36.1921 65.8181 36.1656 65.8181 35.6759V33.4789C65.8181 32.9891 65.7519 32.9494 65.3549 32.9164V32.7046H67.2343C67.8365 32.7046 68.0416 32.7046 68.121 32.7046C68.121 32.8105 68.121 33.2803 68.1806 33.6377H67.9556C67.911 33.4431 67.8253 33.2603 67.7041 33.1017C67.5982 32.9825 67.5254 32.9494 67.2343 32.9494H66.8372C66.6188 32.9494 66.5924 32.9494 66.5924 33.1546V34.4119H67.1615C67.4857 34.4119 67.5387 34.3259 67.6247 33.9222H67.8497V35.2061H67.6247C67.5321 34.7759 67.4857 34.7097 67.1549 34.7097H66.5924V35.7024C66.5924 36.0994 66.5924 36.2186 66.9629 36.2252H67.3732C67.6975 36.2252 67.7835 36.1855 67.9093 36.0266C68.0523 35.8519 68.1703 35.6582 68.26 35.4509L68.4916 35.4708Z" fill="#CCCCCC"/>
<path d="M71.0815 33.6574C70.9623 33.2868 70.8035 32.8632 70.2741 32.8632C70.1998 32.8604 70.1257 32.873 70.0565 32.9004C69.9873 32.9277 69.9246 32.9692 69.8723 33.0221C69.82 33.075 69.7793 33.1382 69.7528 33.2077C69.7263 33.2772 69.7145 33.3514 69.7182 33.4257C69.7182 33.7434 69.93 33.9287 70.4395 34.1868C71.055 34.4912 71.4454 34.789 71.4454 35.3647C71.4366 35.5349 71.393 35.7015 71.3172 35.8541C71.2414 36.0067 71.1351 36.1421 71.0048 36.2519C70.8745 36.3618 70.723 36.4437 70.5597 36.4925C70.3965 36.5414 70.2249 36.5562 70.0557 36.536C69.7267 36.5236 69.4012 36.4634 69.0895 36.3574C69.0565 36.225 68.9572 35.6294 68.9175 35.3581L69.1425 35.3051C69.255 35.6691 69.5792 36.2978 70.1484 36.2978C70.2259 36.3032 70.3037 36.2914 70.3762 36.2633C70.4487 36.2352 70.5141 36.1915 70.5678 36.1353C70.6215 36.0791 70.6622 36.0117 70.6869 35.938C70.7116 35.8643 70.7198 35.7861 70.7109 35.7088C70.7109 35.3713 70.5057 35.1794 70.0491 34.9147C69.4535 34.5971 69.0565 34.3059 69.0565 33.7037C69.0565 33.1015 69.5329 32.625 70.38 32.625C70.6559 32.6339 70.9305 32.6671 71.2006 32.7243C71.2006 32.9426 71.2667 33.2404 71.3131 33.6044L71.0815 33.6574Z" fill="#CCCCCC"/>
</svg>
