<svg width="109" height="45" viewBox="0 0 109 45" fill="none" xmlns="http://www.w3.org/2000/svg">
<path d="M96.9918 20.1328V17.6927H97.8163C98.0069 17.6927 98.1634 17.7253 98.2857 17.7904C98.408 17.8547 98.4986 17.9433 98.5573 18.0561C98.6161 18.1689 98.6455 18.2972 98.6455 18.4409C98.6455 18.5847 98.6161 18.7122 98.5573 18.8234C98.4986 18.9346 98.4084 19.022 98.2869 19.0855C98.1654 19.1483 98.0101 19.1796 97.821 19.1796H97.1538V18.9128H97.8115C97.9418 18.9128 98.0466 18.8937 98.126 18.8556C98.2063 18.8174 98.2642 18.7634 98.3 18.6935C98.3365 18.6228 98.3548 18.5386 98.3548 18.4409C98.3548 18.3432 98.3365 18.2579 98.3 18.1848C98.2635 18.1117 98.2051 18.0553 98.1248 18.0156C98.0446 17.9751 97.9386 17.9548 97.8067 17.9548H97.2873V20.1328H96.9918ZM98.1403 19.0367L98.7408 20.1328H98.3977L97.8067 19.0367H98.1403Z" fill="#B3B3B3"/>
<path d="M97.73 21.1896C98.6693 21.1896 99.4308 20.4281 99.4308 19.4888C99.4308 18.5495 98.6693 17.7881 97.73 17.7881C96.7907 17.7881 96.0293 18.5495 96.0293 19.4888C96.0293 20.4281 96.7907 21.1896 97.73 21.1896Z" stroke="#999999" stroke-width="0.165441" stroke-miterlimit="10"/>
<path d="M97.1942 30.9317V30.8624H97.6779V30.9317H97.4751V31.5073H97.397V30.9317H97.1942ZM97.7984 30.8624H97.8916L98.1108 31.3977H98.1184L98.3375 30.8624H98.4307V31.5073H98.3577V31.0173H98.3514L98.1498 31.5073H98.0793L97.8778 31.0173H97.8715V31.5073H97.7984V30.8624Z" fill="#B3B3B3"/>
<path d="M97.7493 31.9235C97.591 31.9274 97.4351 31.8842 97.3013 31.7995C97.1675 31.7148 97.0619 31.5923 96.9977 31.4476C96.9335 31.3028 96.9137 31.1423 96.9407 30.9862C96.9678 30.8302 97.0405 30.6857 97.1496 30.571C97.2588 30.4563 97.3995 30.3765 97.554 30.3418C97.7085 30.307 97.8698 30.3189 98.0176 30.3758C98.1653 30.4327 98.2929 30.5322 98.3841 30.6616C98.4754 30.791 98.5262 30.9446 98.5302 31.1029C98.5328 31.2081 98.5147 31.3127 98.4769 31.4109C98.4391 31.509 98.3823 31.5988 98.3098 31.675C98.2372 31.7512 98.1504 31.8124 98.0543 31.855C97.9581 31.8977 97.8545 31.9209 97.7493 31.9235ZM97.7493 30.3882C97.6024 30.3843 97.4577 30.4245 97.3339 30.5037C97.2101 30.5829 97.1129 30.6974 97.0549 30.8324C96.9968 30.9674 96.9806 31.1167 97.0083 31.261C97.036 31.4053 97.1064 31.538 97.2103 31.6419C97.3142 31.7458 97.4469 31.8162 97.5912 31.8439C97.7355 31.8716 97.8848 31.8554 98.0198 31.7973C98.1548 31.7393 98.2693 31.6421 98.3485 31.5183C98.4277 31.3945 98.4679 31.2498 98.464 31.1029C98.459 30.9149 98.3821 30.736 98.2491 30.6031C98.1161 30.4701 97.9373 30.3932 97.7493 30.3882Z" fill="#999999"/>
<path d="M6.82031 21.1172H11.3335L24.5159 21.19L24.9791 18.7283H11.6313L12.0946 14.8768L23.4041 14.9496L23.8078 12.4878H12.3858L12.8027 9.04664L25.5483 9.12605L26.0181 6.41943H9.28869L6.82031 21.1172Z" fill="#CCCCCC"/>
<path d="M33.2312 6.41943H29.3533L26.7922 21.19H29.479H30.7959H42.4099L42.7937 18.7283H31.2062L33.2312 6.41943Z" fill="#CCCCCC"/>
<path d="M64.5459 6.41943H60.5289L48.6767 14.4334L50.1922 6.41943H46.0892L43.6208 21.19H47.3995L47.9819 18.0863L52.5745 14.8503L57.8753 21.19H63.4473L55.8569 12.5408L64.5459 6.41943Z" fill="#CCCCCC"/>
<path d="M77.5784 6.41943H74.6468L64.1975 21.1768H67.4269L69.121 18.715H80.199L81.1585 21.1768H85.3806L79.7953 6.41943H77.5784ZM71.3975 15.4128L76.2019 8.42458L78.9152 15.4128H71.3975Z" fill="#CCCCCC"/>
<path d="M100.346 6.41943L93.1788 13.6062L88.3479 6.41943H83.6626L90.2604 15.9886L89.3141 21.19H93.3111L93.9663 16.1077L103.257 6.41943H100.346Z" fill="#CCCCCC"/>
<path d="M6.51929 34.8408L7.56812 28.9082H8.39423L7.3454 34.8408H6.51929ZM11.4719 34.8408L11.9254 32.318C11.9659 32.0939 11.9862 31.9076 11.9862 31.7591C11.9862 31.3002 11.7473 31.0707 11.2694 31.0707C11.0858 31.0707 10.8888 31.1247 10.6782 31.2327C10.4703 31.3407 10.3043 31.4689 10.1801 31.6174L9.61719 34.8408H8.83968L9.42282 31.5526C9.43631 31.477 9.44306 31.3879 9.44306 31.2853C9.44306 31.01 9.41472 30.771 9.35802 30.5685L10.1031 30.4228C10.176 30.8169 10.2111 31.0315 10.2084 31.0666C10.5378 30.6374 11.0129 30.4228 11.6339 30.4228C12.4168 30.4228 12.8082 30.8223 12.8082 31.6214C12.8082 31.7807 12.7907 31.9589 12.7556 32.156L12.2899 34.8408H11.4719ZM13.0067 36.0557L13.3711 35.4887C13.8652 35.7371 14.2742 35.8613 14.5981 35.8613C14.9545 35.8613 15.2515 35.7952 15.489 35.6629C15.7266 35.5306 15.8454 35.3457 15.8454 35.1081C15.8454 34.9893 15.8049 34.8921 15.7239 34.8165C15.6456 34.7382 15.5106 34.6829 15.319 34.6505L14.6062 34.529C14.3174 34.4561 14.1729 34.309 14.1729 34.0876C14.1729 33.9094 14.4038 33.7299 14.8654 33.549L14.7277 33.5531C14.4119 33.5531 14.1338 33.4356 13.8935 33.2008C13.6559 32.9632 13.5372 32.6784 13.5372 32.3463C13.5372 31.7794 13.7194 31.3177 14.0838 30.9614C14.4483 30.6023 14.914 30.4228 15.4809 30.4228C15.8886 30.4228 16.2099 30.52 16.4447 30.7143L16.8092 30.3013L17.2344 30.7386L16.8335 31.1557C16.9118 31.2664 16.9509 31.4406 16.9509 31.6781C16.9509 32.1425 16.8335 32.5407 16.5986 32.8727C16.3637 33.2048 16.056 33.4383 15.6753 33.5733C15.2974 33.7056 15.1084 33.8298 15.1084 33.9459C15.1084 34.0404 15.1597 34.0876 15.2623 34.0876C15.3001 34.0876 15.3554 34.0822 15.4283 34.0714C15.5039 34.0579 15.5606 34.0512 15.5984 34.0512C16.2733 34.0512 16.6108 34.3562 16.6108 34.9664C16.6108 35.4442 16.3975 35.8262 15.9709 36.1124C15.5471 36.3985 15.0422 36.5416 14.4564 36.5416C13.8625 36.5416 13.3792 36.3796 13.0067 36.0557ZM15.4242 31.0423C15.1138 31.0423 14.8519 31.1638 14.6386 31.4068C14.4281 31.6471 14.3228 31.9305 14.3228 32.2572C14.3228 32.8457 14.5455 33.14 14.9909 33.14C15.2933 33.14 15.5606 32.9929 15.7928 32.6986C16.0249 32.4016 16.141 32.0871 16.141 31.7551C16.141 31.5364 16.0762 31.3636 15.9466 31.2367C15.817 31.1071 15.6429 31.0423 15.4242 31.0423ZM18.4816 32.7918C18.4574 32.9213 18.4452 33.0455 18.4452 33.1643C18.4452 33.5207 18.5451 33.7947 18.7449 33.9864C18.9446 34.178 19.2241 34.2739 19.5831 34.2739C19.9017 34.2739 20.223 34.1564 20.5469 33.9216L20.4659 34.7072C20.034 34.8503 19.652 34.9218 19.3199 34.9218C18.2022 34.9218 17.6434 34.2955 17.6434 33.0428C17.6434 32.3058 17.8783 31.6849 18.348 31.18C18.8178 30.6752 19.409 30.4228 20.1217 30.4228C20.551 30.4228 20.8938 30.5146 21.1503 30.6981C21.4068 30.8817 21.535 31.1436 21.535 31.4837C21.535 31.9562 21.3352 32.3288 20.9357 32.6014C20.5361 32.8741 20.0461 33.0104 19.4657 33.0104C19.0769 33.0104 18.7489 32.9375 18.4816 32.7918ZM18.6153 32.2329C18.8205 32.3247 19.0621 32.3706 19.3402 32.3706C19.7613 32.3706 20.1055 32.3031 20.3728 32.1681C20.6401 32.0304 20.7737 31.8307 20.7737 31.5688C20.7737 31.2367 20.5442 31.0707 20.0853 31.0707C19.386 31.0707 18.8961 31.4581 18.6153 32.2329ZM24.6248 34.8408L25.0784 32.318C25.1189 32.0939 25.1391 31.9076 25.1391 31.7591C25.1391 31.3002 24.9002 31.0707 24.4223 31.0707C24.2388 31.0707 24.0417 31.1247 23.8311 31.2327C23.6232 31.3407 23.4572 31.4689 23.333 31.6174L22.7701 34.8408H21.9926L22.5757 31.5526C22.5892 31.477 22.596 31.3879 22.596 31.2853C22.596 31.01 22.5676 30.771 22.5109 30.5685L23.2561 30.4228C23.329 30.8169 23.3641 31.0315 23.3614 31.0666C23.6907 30.6374 24.1659 30.4228 24.7868 30.4228C25.5697 30.4228 25.9612 30.8223 25.9612 31.6214C25.9612 31.7807 25.9436 31.9589 25.9085 32.156L25.4428 34.8408H24.6248ZM27.9576 30.5038L27.4514 33.2696C27.4298 33.3884 27.419 33.4977 27.419 33.5976C27.419 34.0485 27.6539 34.2739 28.1236 34.2739C28.4125 34.2739 28.6892 34.1659 28.9538 33.9499C29.221 33.7339 29.3817 33.4761 29.4357 33.1765L29.9297 30.5038H30.7396L29.9459 34.8408H29.136L29.2494 34.2293C28.947 34.691 28.4233 34.9218 27.6782 34.9218C27.3407 34.9218 27.0775 34.8219 26.8885 34.6221C26.6995 34.4224 26.605 34.1389 26.605 33.7717C26.605 33.6422 26.6185 33.5018 26.6455 33.3506L27.1477 30.5038H27.9576ZM32.6308 28.8029C32.7792 28.8029 32.9061 28.8556 33.0114 28.9609C33.1167 29.0635 33.1694 29.1904 33.1694 29.3415C33.1694 29.49 33.1167 29.6169 33.0114 29.7222C32.9061 29.8248 32.7792 29.8761 32.6308 29.8761C32.4823 29.8761 32.3554 29.8248 32.2501 29.7222C32.1448 29.6169 32.0922 29.49 32.0922 29.3415C32.0922 29.1904 32.1448 29.0635 32.2501 28.9609C32.3554 28.8556 32.4823 28.8029 32.6308 28.8029ZM31.3876 34.8408L32.0436 31.1517H31.4685L31.6103 30.5159H32.9345L32.1691 34.8408H31.3876ZM34.6717 31.1112H34.1696L34.2992 30.5038H34.8013L34.9795 29.5967L35.8582 29.2646L35.5707 30.5038H36.7613L36.6317 31.1112H35.4411L34.9876 33.2655C34.9525 33.4329 34.935 33.5625 34.935 33.6543C34.935 34.0674 35.1401 34.2739 35.5505 34.2739C35.7503 34.2739 35.9649 34.2239 36.1944 34.1241L36.166 34.8003C35.9446 34.8813 35.5869 34.9218 35.0929 34.9218C34.7851 34.9218 34.5448 34.8273 34.3721 34.6383C34.202 34.4467 34.1169 34.1848 34.1169 33.8527C34.1169 33.7771 34.1291 33.684 34.1534 33.5733L34.6717 31.1112ZM36.98 36.5416V35.7682C37.4821 35.7682 37.8385 35.6926 38.0491 35.5414C38.2596 35.3902 38.4108 35.1634 38.5026 34.8611C38.1219 34.8611 37.8695 34.4858 37.7453 33.7353L37.2027 30.5038H38.041L38.5188 33.6503C38.5647 33.9607 38.6754 34.116 38.8509 34.116L40.414 30.5038H41.2887L39.1141 35.3592C38.9305 35.7695 38.6862 36.0692 38.3811 36.2582C38.0761 36.4471 37.609 36.5416 36.98 36.5416ZM47.0876 29.4468C46.8825 29.3712 46.7232 29.3334 46.6098 29.3334C46.1211 29.3334 45.8093 29.7235 45.6743 30.5038H46.6786L46.6138 31.0342H45.5974L44.913 35.1243C44.8482 35.5076 44.6728 35.8181 44.3866 36.0557C44.1004 36.296 43.7535 36.4417 43.3459 36.493L43.277 36.0192C43.439 35.9868 43.605 35.8775 43.7751 35.6912C43.9452 35.5049 44.0478 35.316 44.0829 35.1243L44.7996 31.0342H44.1882L44.2773 30.5038H44.8725C45.1101 29.3186 45.7054 28.726 46.6584 28.726C46.8852 28.726 47.0768 28.7665 47.2334 28.8475L47.0876 29.4468ZM47.0714 33.2453C47.0714 32.4705 47.2982 31.8064 47.7518 31.2529C48.2053 30.6995 48.7817 30.4228 49.4809 30.4228C50.0074 30.4228 50.4096 30.5658 50.6877 30.852C50.9658 31.1355 51.1048 31.5391 51.1048 32.0628C51.1048 32.4786 51.0211 32.9105 50.8537 33.3587C50.689 33.8068 50.4177 34.1794 50.0398 34.4764C49.6645 34.7733 49.2137 34.9218 48.6872 34.9218C48.1662 34.9218 47.7666 34.776 47.4885 34.4845C47.2105 34.1902 47.0714 33.7771 47.0714 33.2453ZM47.8814 33.1967C47.8814 33.9283 48.1878 34.2941 48.8006 34.2941C49.2568 34.2941 49.6186 34.0728 49.8859 33.63C50.1558 33.1873 50.2908 32.6757 50.2908 32.0952C50.2908 31.3987 49.9844 31.0504 49.3716 31.0504C49.0611 31.0504 48.7871 31.1611 48.5495 31.3825C48.3147 31.6039 48.1446 31.8874 48.0393 32.2329C47.934 32.5785 47.8814 32.8997 47.8814 33.1967ZM54.6117 31.2651C54.4497 31.1355 54.2607 31.0707 54.0448 31.0707C53.7721 31.0707 53.5116 31.1976 53.2632 31.4514C53.0148 31.7024 52.8596 32.0034 52.7975 32.3544L52.3561 34.8408H51.5867L52.352 30.5038H53.1215L53 31.1962C53.3725 30.6806 53.8355 30.4228 54.389 30.4228C54.4835 30.4228 54.6306 30.4417 54.8304 30.4795L54.6117 31.2651ZM59.1512 29.6372L58.8597 31.2853H60.8197L60.6982 31.9737H58.7382L58.3616 34.1119H61.0505L60.9209 34.8408H57.3816L58.4304 28.9082H62.0143L61.8806 29.6372H59.1512ZM63.5004 34.9218H63.298L62.0386 30.4916H62.8404L63.6179 33.4761L65.2661 30.4916H66.1529L63.5004 34.9218ZM66.9628 32.7918C66.9385 32.9213 66.9264 33.0455 66.9264 33.1643C66.9264 33.5207 67.0263 33.7947 67.226 33.9864C67.4258 34.178 67.7052 34.2739 68.0643 34.2739C68.3828 34.2739 68.7041 34.1564 69.0281 33.9216L68.9471 34.7072C68.5151 34.8503 68.1331 34.9218 67.8011 34.9218C66.6834 34.9218 66.1246 34.2955 66.1246 33.0428C66.1246 32.3058 66.3594 31.6849 66.8292 31.18C67.2989 30.6752 67.8902 30.4228 68.6029 30.4228C69.0321 30.4228 69.375 30.5146 69.6315 30.6981C69.8879 30.8817 70.0162 31.1436 70.0162 31.4837C70.0162 31.9562 69.8164 32.3288 69.4168 32.6014C69.0173 32.8741 68.5273 33.0104 67.9468 33.0104C67.5581 33.0104 67.2301 32.9375 66.9628 32.7918ZM67.0964 32.2329C67.3016 32.3247 67.5432 32.3706 67.8213 32.3706C68.2425 32.3706 68.5867 32.3031 68.8539 32.1681C69.1212 32.0304 69.2549 31.8307 69.2549 31.5688C69.2549 31.2367 69.0254 31.0707 68.5664 31.0707C67.8672 31.0707 67.3772 31.4581 67.0964 32.2329ZM73.5393 31.2651C73.3773 31.1355 73.1883 31.0707 72.9723 31.0707C72.6997 31.0707 72.4391 31.1976 72.1908 31.4514C71.9424 31.7024 71.7872 32.0034 71.7251 32.3544L71.2837 34.8408H70.5143L71.2796 30.5038H72.049L71.9276 31.1962C72.3001 30.6806 72.7631 30.4228 73.3165 30.4228C73.411 30.4228 73.5582 30.4417 73.7579 30.4795L73.5393 31.2651ZM73.7417 36.5416V35.7682C74.2439 35.7682 74.6003 35.6926 74.8108 35.5414C75.0214 35.3902 75.1726 35.1634 75.2644 34.8611C74.8837 34.8611 74.6313 34.4858 74.5071 33.7353L73.9645 30.5038H74.8027L75.2806 33.6503C75.3265 33.9607 75.4372 34.116 75.6126 34.116L77.1758 30.5038H78.0505L75.8759 35.3592C75.6923 35.7695 75.448 36.0692 75.1429 36.2582C74.8378 36.4471 74.3708 36.5416 73.7417 36.5416ZM80.7272 34.8408L80.8204 34.3427C80.5072 34.7261 80.0793 34.9178 79.5366 34.9178C79.0669 34.9178 78.6997 34.7747 78.4352 34.4885C78.1706 34.1996 78.0383 33.8082 78.0383 33.3141C78.0383 32.4691 78.2651 31.778 78.7186 31.2408C79.1722 30.7008 79.7526 30.4309 80.4599 30.4309C80.8703 30.4309 81.1848 30.6009 81.4035 30.9411L81.8125 28.726H82.5455L81.4885 34.8408H80.7272ZM81.2618 31.7065C81.2672 31.6822 81.2307 31.6079 81.1524 31.4837C81.0768 31.3569 80.9837 31.2583 80.873 31.1881C80.765 31.1152 80.6503 31.0788 80.5288 31.0788C80.0509 31.0788 79.6541 31.2732 79.3382 31.6619C79.0251 32.048 78.8685 32.5434 78.8685 33.1481C78.8685 33.9121 79.183 34.2941 79.812 34.2941C80.0955 34.2941 80.3601 34.1551 80.6057 33.877C80.8514 33.5963 81.0107 33.2345 81.0836 32.7918L81.2618 31.7065ZM86.591 30.7751L86.0605 33.2979C86.0389 33.4005 86.0281 33.5247 86.0281 33.6705C86.0281 34.0917 86.0942 34.4818 86.2265 34.8408H85.4409C85.3977 34.7544 85.3518 34.6086 85.3032 34.4035C85.1763 34.5574 84.9873 34.6829 84.7363 34.7801C84.4852 34.8746 84.2193 34.9218 83.9385 34.9218C83.512 34.9218 83.1785 34.7963 82.9383 34.5452C82.7007 34.2914 82.5819 33.9283 82.5819 33.4559C82.5819 32.6622 82.8154 31.9589 83.2825 31.3461C83.7522 30.7305 84.3556 30.4228 85.0926 30.4228C85.7891 30.4228 86.2886 30.5402 86.591 30.7751ZM85.7406 31.2246C85.6677 31.1085 85.422 31.0504 85.0035 31.0504C84.577 31.0504 84.2017 31.2772 83.8778 31.7308C83.5538 32.1843 83.3918 32.7513 83.3918 33.4316C83.3918 34.0066 83.6483 34.2941 84.1612 34.2941C84.4285 34.2941 84.6796 34.1564 84.9144 33.8811C85.1493 33.603 85.3126 33.248 85.4044 32.816L85.7406 31.2246ZM86.8137 36.5416V35.7682C87.3158 35.7682 87.6722 35.6926 87.8828 35.5414C88.0933 35.3902 88.2445 35.1634 88.3363 34.8611C87.9557 34.8611 87.7032 34.4858 87.579 33.7353L87.0364 30.5038H87.8747L88.3525 33.6503C88.3984 33.9607 88.5091 34.116 88.6846 34.116L90.2477 30.5038H91.1224L88.9478 35.3592C88.7642 35.7695 88.5199 36.0692 88.2148 36.2582C87.9098 36.4471 87.4427 36.5416 86.8137 36.5416ZM93.621 34.8408L94.6698 28.9082H95.4959L94.5767 34.1119H97.2575L97.1279 34.8408H93.621ZM99.2863 28.8029C99.4348 28.8029 99.5617 28.8556 99.6669 28.9609C99.7722 29.0635 99.8249 29.1904 99.8249 29.3415C99.8249 29.49 99.7722 29.6169 99.6669 29.7222C99.5617 29.8248 99.4348 29.8761 99.2863 29.8761C99.1378 29.8761 99.0109 29.8248 98.9056 29.7222C98.8003 29.6169 98.7477 29.49 98.7477 29.3415C98.7477 29.1904 98.8003 29.0635 98.9056 28.9609C99.0109 28.8556 99.1378 28.8029 99.2863 28.8029ZM98.0431 34.8408L98.6991 31.1517H98.1241L98.2658 30.5159H99.59L98.8246 34.8408H98.0431ZM103.668 29.4468C103.463 29.3712 103.303 29.3334 103.19 29.3334C102.701 29.3334 102.39 29.7235 102.255 30.5038H103.259L103.194 31.0342H102.178L101.493 35.1243C101.428 35.5076 101.253 35.8181 100.967 36.0557C100.681 36.296 100.334 36.4417 99.9261 36.493L99.8573 36.0192C100.019 35.9868 100.185 35.8775 100.355 35.6912C100.525 35.5049 100.628 35.316 100.663 35.1243L101.38 31.0342H100.768L100.858 30.5038H101.453C101.69 29.3186 102.286 28.726 103.239 28.726C103.465 28.726 103.657 28.7665 103.814 28.8475L103.668 29.4468ZM104.615 32.7918C104.591 32.9213 104.579 33.0455 104.579 33.1643C104.579 33.5207 104.679 33.7947 104.879 33.9864C105.078 34.178 105.358 34.2739 105.717 34.2739C106.036 34.2739 106.357 34.1564 106.681 33.9216L106.6 34.7072C106.168 34.8503 105.786 34.9218 105.454 34.9218C104.336 34.9218 103.777 34.2955 103.777 33.0428C103.777 32.3058 104.012 31.6849 104.482 31.18C104.952 30.6752 105.543 30.4228 106.256 30.4228C106.685 30.4228 107.028 30.5146 107.284 30.6981C107.541 30.8817 107.669 31.1436 107.669 31.4837C107.669 31.9562 107.469 32.3288 107.07 32.6014C106.67 32.8741 106.18 33.0104 105.6 33.0104C105.211 33.0104 104.883 32.9375 104.615 32.7918ZM104.749 32.2329C104.954 32.3247 105.196 32.3706 105.474 32.3706C105.895 32.3706 106.239 32.3031 106.507 32.1681C106.774 32.0304 106.908 31.8307 106.908 31.5688C106.908 31.2367 106.678 31.0707 106.219 31.0707C105.52 31.0707 105.03 31.4581 104.749 32.2329Z" fill="#B3B3B3"/>
<path d="M98.1416 36.0859C98.4486 36.0859 98.6975 35.837 98.6975 35.53C98.6975 35.223 98.4486 34.9741 98.1416 34.9741C97.8346 34.9741 97.5857 35.223 97.5857 35.53C97.5857 35.837 97.8346 36.0859 98.1416 36.0859Z" fill="#B3B3B3"/>
</svg>
