<svg width="109" height="45" viewBox="0 0 109 45" fill="none" xmlns="http://www.w3.org/2000/svg">
<path d="M41.6326 24.9681H36.087L35.0745 29.7063H41.4274L41.0569 30.6923H33.751L36.2326 18.9526H43.2341L43.0157 19.9387H37.1723L36.2988 23.982H41.8444L41.6326 24.9681Z" fill="#CCCCCC"/>
<path d="M43.8875 28.178C43.9934 29.1177 44.5493 29.9449 46.0647 29.9449C47.2956 29.9449 47.9838 29.3228 47.9838 28.4162C47.9838 27.5096 47.3882 27.1258 46.1309 26.6493C44.3706 25.9875 43.8346 25.3721 43.8346 24.4258C43.8346 23.1883 44.7677 22.0566 46.7331 22.0566C48.864 22.0566 49.5985 23.3008 49.5787 24.4655H48.4934C48.4206 23.8037 48.1294 22.9566 46.6007 22.9566C45.5882 22.9566 44.9199 23.4861 44.9199 24.3133C44.9199 24.975 45.4162 25.2861 46.6735 25.7625C48.3809 26.4243 49.1155 27.0861 49.1155 28.264C49.1155 29.8522 47.9044 30.8647 45.8794 30.8647C43.8544 30.8647 42.8287 29.6934 42.8088 28.178H43.8875Z" fill="#CCCCCC"/>
<path d="M51.2769 28.178C51.3828 29.1177 51.9387 29.9449 53.4475 29.9449C54.685 29.9449 55.3733 29.3228 55.3733 28.4162C55.3733 27.5096 54.7777 27.1258 53.5203 26.6493C51.76 25.9875 51.2174 25.3721 51.2174 24.4258C51.2174 23.1883 52.1571 22.0566 54.1225 22.0566C56.2534 22.0566 56.988 23.3008 56.9681 24.4655H55.8828C55.81 23.8037 55.5189 22.9566 53.9902 22.9566C52.9777 22.9566 52.3093 23.4861 52.3093 24.3133C52.3093 24.975 52.8056 25.2861 54.063 25.7625C55.7637 26.4243 56.5049 27.0861 56.5049 28.264C56.5049 29.8522 55.2939 30.8647 53.2689 30.8647C51.2439 30.8647 50.2181 29.6934 50.1917 28.178H51.2769Z" fill="#CCCCCC"/>
<path d="M59.1979 26.5566C59.1512 26.8611 59.1247 27.1684 59.1185 27.4764C59.1185 29.1044 59.9258 29.9184 61.1898 29.9184C61.6997 29.9329 62.2022 29.7944 62.6327 29.5208C63.0632 29.2471 63.4019 28.8509 63.6052 28.3831H64.7104C64.4459 29.135 63.9468 29.782 63.2868 30.2288C62.6267 30.6756 61.8406 30.8985 61.0442 30.8647C58.9795 30.8647 58.0398 29.4684 58.0398 27.5559C58.0398 25.1139 59.3633 22.0698 62.4074 22.0698C64.5979 22.0698 65.3126 23.5389 65.3126 25.0081C65.3151 25.536 65.2438 26.0616 65.1008 26.5698L59.1979 26.5566ZM64.1942 25.6698C64.2422 25.4392 64.2644 25.2039 64.2604 24.9684C64.2604 23.6448 63.5986 22.9831 62.3214 22.9831C61.0442 22.9831 59.8795 23.9625 59.403 25.6764L64.1942 25.6698Z" fill="#CCCCCC"/>
<path d="M66.8399 22.2288H68.3024L68.8318 19.7207H69.8906L69.3612 22.2288H71.2472L71.0487 23.1619H69.1693L68.0244 28.6148C67.8391 29.4817 67.8788 29.8656 68.6332 29.8656C68.9199 29.8634 69.2056 29.8346 69.4869 29.7795L69.2685 30.6729C68.9285 30.7798 68.5725 30.8268 68.2163 30.8119C67.0516 30.8119 66.5685 30.3089 66.8597 28.9259L68.1038 23.1619H66.6479L66.8399 22.2288Z" fill="#CCCCCC"/>
<path d="M72.7944 22.2284H73.8532L72.0598 30.6924H71.001L72.7944 22.2284ZM73.6149 18.3174H74.6804L74.323 20.0446H73.2576L73.6149 18.3174Z" fill="#CCCCCC"/>
<path d="M79.8032 28.178C79.9091 29.1177 80.4649 29.9449 81.9738 29.9449C83.2113 29.9449 83.8995 29.3228 83.8995 28.4162C83.8995 27.5096 83.3039 27.1258 82.0466 26.6493C80.2863 25.9875 79.7436 25.3721 79.7436 24.4258C79.7436 23.1883 80.6833 22.0566 82.6488 22.0566C84.7797 22.0566 85.5142 23.3008 85.4877 24.4655H84.4091C84.3363 23.8037 84.0451 22.9566 82.5164 22.9566C81.5039 22.9566 80.8355 23.4861 80.8355 24.3133C80.8355 24.975 81.3319 25.2861 82.5892 25.7625C84.2899 26.4243 85.0245 27.0861 85.0245 28.264C85.0245 29.8522 83.8201 30.8647 81.7885 30.8647C79.7569 30.8647 78.751 29.6934 78.751 28.178H79.8032Z" fill="#CCCCCC"/>
<path d="M86.3354 30.706L86.8318 28.3965H87.9435L87.4472 30.706H86.3354Z" fill="#CCCCCC"/>
<path d="M90.9989 24.7368C91.1709 23.903 91.3496 23.0096 91.4886 22.2287H92.5077C92.5077 22.4471 92.3423 23.3802 92.1768 24.1147C92.442 23.5248 92.8658 23.02 93.4009 22.6566C93.936 22.2932 94.5615 22.0855 95.2077 22.0566L94.9562 23.1949C93.3217 23.3471 92.0577 24.7037 91.6474 26.6228L90.7871 30.6927H89.7217L90.9989 24.7368Z" fill="#CCCCCC"/>
<path d="M94.323 30.706L94.8259 28.3965H95.9576L95.4612 30.706H94.323Z" fill="#CCCCCC"/>
<path d="M97.7146 30.6924L100.362 18.3174H101.427L98.78 30.6924H97.7146Z" fill="#CCCCCC"/>
<path d="M101.018 30.706L101.515 28.3965H102.626L102.13 30.706H101.018Z" fill="#CCCCCC"/>
<path d="M28.6532 24.5511C28.659 25.3842 28.5657 26.2151 28.3753 27.0261C28.3115 27.3198 28.1627 27.5881 27.9473 27.7976C27.7319 28.0071 27.4595 28.1485 27.1643 28.2041C25.4437 28.5151 23.2665 26.3644 21.7444 22.8703C21.4086 21.895 20.8791 20.9977 20.1877 20.2323C19.4962 19.467 18.6571 18.8493 17.7209 18.4166C16.3416 17.8686 14.8334 17.7307 13.3777 18.0195C11.9219 18.3083 10.5806 19.0115 9.515 20.0445L8.80029 20.7063L9.03853 20.2497C10.0247 18.3177 11.5883 16.741 13.512 15.7388C15.4357 14.7366 17.6239 14.3587 19.7724 14.6578C20.3679 14.7438 25.2451 15.5114 27.5746 20.0247C28.2913 21.4254 28.6612 22.9777 28.6532 24.5511Z" fill="#CCCCCC"/>
<path d="M8.53811 21.7988C9.13929 21.1135 9.85326 20.536 10.6491 20.0914C11.965 19.3288 13.4802 18.9806 14.9969 19.0922C19.5433 19.7539 19.9734 29.2436 24.3411 29.8723C25.4991 30.0444 27.7491 28.9988 27.7491 28.9988C26.7697 29.8061 25.2874 30.7591 23.6991 30.4944C19.444 29.7797 19.1925 21.1039 14.5602 19.8532C13.3359 19.5289 11.4168 19.6216 8.53149 21.7922L8.53811 21.7988Z" fill="#CCCCCC"/>
<path d="M27.4418 30.0837C26.8424 30.7699 26.1308 31.3495 25.3374 31.7977C24.0225 32.5637 22.5076 32.9165 20.9896 32.8102C16.4433 32.1484 15.9801 22.6719 11.6058 22.0565C10.4543 21.891 8.21094 22.9432 8.21094 22.9432C9.18373 22.1359 10.6661 21.1763 12.2543 21.4344C16.5095 22.0962 16.7874 30.8116 21.4198 32.0227C22.6506 32.3469 24.5698 32.2477 27.4484 30.0374L27.4418 30.0837Z" fill="#CCCCCC"/>
<path d="M24.2022 33.2209C22.0678 34.7217 19.4543 35.3816 16.8633 35.0738C14.944 34.7782 13.1412 33.9662 11.6479 32.7248C10.1547 31.4833 9.02716 29.8591 8.38607 28.026C8.12469 27.423 7.95088 26.7857 7.8699 26.1334C7.77422 25.3821 7.79879 24.6204 7.94269 23.8768C8.66455 23.5334 9.4833 23.4515 10.2589 23.6452C10.8759 23.8313 11.4315 24.1803 11.867 24.6554C12.3025 25.1305 12.602 25.7143 12.7339 26.3452C13.4486 30.0841 16.0427 32.9628 19.3052 33.6246C21.2232 33.9754 23.2035 33.6379 24.8971 32.6716C24.778 32.7974 24.5397 32.9893 24.2022 33.2209Z" fill="#CCCCCC"/>
</svg>
