<svg width="109" height="45" viewBox="0 0 109 45" fill="none" xmlns="http://www.w3.org/2000/svg">
<path d="M42.1033 24.9681H36.5577L35.5452 29.7063H41.8981L41.5276 30.6923H34.2217L36.7033 18.9526H43.7048L43.4864 19.9387H37.643L36.7695 23.982H42.3151L42.1033 24.9681Z" fill="#CCCCCC"/>
<path d="M44.3582 28.178C44.4641 29.1177 45.02 29.9449 46.5354 29.9449C47.7663 29.9449 48.4545 29.3228 48.4545 28.4162C48.4545 27.5096 47.859 27.1258 46.6016 26.6493C44.8413 25.9875 44.3053 25.3721 44.3053 24.4258C44.3053 23.1883 45.2384 22.0566 47.2038 22.0566C49.3347 22.0566 50.0692 23.3008 50.0494 24.4655H48.9641C48.8913 23.8037 48.6001 22.9566 47.0714 22.9566C46.0589 22.9566 45.3906 23.4861 45.3906 24.3133C45.3906 24.975 45.8869 25.2861 47.1442 25.7625C48.8516 26.4243 49.5862 27.0861 49.5862 28.264C49.5862 29.8522 48.3751 30.8647 46.3501 30.8647C44.3251 30.8647 43.2994 29.6934 43.2795 28.178H44.3582Z" fill="#CCCCCC"/>
<path d="M51.7477 28.178C51.8535 29.1177 52.4094 29.9449 53.9182 29.9449C55.1557 29.9449 55.844 29.3228 55.844 28.4162C55.844 27.5096 55.2484 27.1258 53.991 26.6493C52.2307 25.9875 51.6881 25.3721 51.6881 24.4258C51.6881 23.1883 52.6278 22.0566 54.5932 22.0566C56.7241 22.0566 57.4587 23.3008 57.4388 24.4655H56.3535C56.2807 23.8037 55.9896 22.9566 54.4609 22.9566C53.4484 22.9566 52.78 23.4861 52.78 24.3133C52.78 24.975 53.2763 25.2861 54.5337 25.7625C56.2344 26.4243 56.9756 27.0861 56.9756 28.264C56.9756 29.8522 55.7646 30.8647 53.7396 30.8647C51.7146 30.8647 50.6888 29.6934 50.6624 28.178H51.7477Z" fill="#CCCCCC"/>
<path d="M59.6686 26.5566C59.6219 26.8611 59.5954 27.1684 59.5892 27.4764C59.5892 29.1044 60.3965 29.9184 61.6605 29.9184C62.1704 29.9329 62.6729 29.7944 63.1034 29.5208C63.5339 29.2471 63.8726 28.8509 64.0759 28.3831H65.1811C64.9166 29.135 64.4175 29.782 63.7575 30.2288C63.0974 30.6756 62.3113 30.8985 61.5149 30.8647C59.4502 30.8647 58.5105 29.4684 58.5105 27.5559C58.5105 25.1139 59.834 22.0698 62.8781 22.0698C65.0686 22.0698 65.7833 23.5389 65.7833 25.0081C65.7858 25.536 65.7145 26.0616 65.5715 26.5698L59.6686 26.5566ZM64.6649 25.6698C64.7129 25.4392 64.7351 25.2039 64.7311 24.9684C64.7311 23.6448 64.0693 22.9831 62.7921 22.9831C61.5149 22.9831 60.3502 23.9625 59.8737 25.6764L64.6649 25.6698Z" fill="#CCCCCC"/>
<path d="M67.3106 22.2288H68.7731L69.3025 19.7207H70.3613L69.8319 22.2288H71.7179L71.5194 23.1619H69.64L68.4951 28.6148C68.3098 29.4817 68.3495 29.8656 69.1039 29.8656C69.3906 29.8634 69.6763 29.8346 69.9576 29.7795L69.7392 30.6729C69.3992 30.7798 69.0432 30.8268 68.687 30.8119C67.5223 30.8119 67.0392 30.3089 67.3304 28.9259L68.5745 23.1619H67.1187L67.3106 22.2288Z" fill="#CCCCCC"/>
<path d="M73.2651 22.2284H74.3239L72.5305 30.6924H71.4717L73.2651 22.2284ZM74.0856 18.3174H75.1511L74.7937 20.0446H73.7283L74.0856 18.3174Z" fill="#CCCCCC"/>
<path d="M80.2739 28.178C80.3798 29.1177 80.9357 29.9449 82.4445 29.9449C83.682 29.9449 84.3702 29.3228 84.3702 28.4162C84.3702 27.5096 83.7746 27.1258 82.5173 26.6493C80.757 25.9875 80.2143 25.3721 80.2143 24.4258C80.2143 23.1883 81.154 22.0566 83.1195 22.0566C85.2504 22.0566 85.9849 23.3008 85.9584 24.4655H84.8798C84.807 23.8037 84.5158 22.9566 82.9871 22.9566C81.9746 22.9566 81.3062 23.4861 81.3062 24.3133C81.3062 24.975 81.8026 25.2861 83.0599 25.7625C84.7607 26.4243 85.4952 27.0861 85.4952 28.264C85.4952 29.8522 84.2908 30.8647 82.2592 30.8647C80.2276 30.8647 79.2217 29.6934 79.2217 28.178H80.2739Z" fill="#CCCCCC"/>
<path d="M86.8062 30.706L87.3025 28.3965H88.4142L87.9179 30.706H86.8062Z" fill="#CCCCCC"/>
<path d="M91.4696 24.7368C91.6416 23.903 91.8203 23.0096 91.9593 22.2287H92.9784C92.9784 22.4471 92.813 23.3802 92.6475 24.1147C92.9127 23.5248 93.3365 23.02 93.8716 22.6566C94.4067 22.2932 95.0322 22.0855 95.6784 22.0566L95.4269 23.1949C93.7924 23.3471 92.5284 24.7037 92.1181 26.6228L91.2578 30.6927H90.1924L91.4696 24.7368Z" fill="#CCCCCC"/>
<path d="M94.7937 30.706L95.2966 28.3965H96.4283L95.9319 30.706H94.7937Z" fill="#CCCCCC"/>
<path d="M98.1853 30.6924L100.832 18.3174H101.898L99.2507 30.6924H98.1853Z" fill="#CCCCCC"/>
<path d="M101.489 30.706L101.985 28.3965H103.097L102.601 30.706H101.489Z" fill="#CCCCCC"/>
<path d="M29.1239 24.5511C29.1297 25.3842 29.0364 26.2151 28.846 27.0261C28.7822 27.3198 28.6334 27.5881 28.418 27.7976C28.2026 28.0071 27.9303 28.1485 27.635 28.2041C25.9144 28.5151 23.7372 26.3644 22.2151 22.8703C21.8793 21.895 21.3498 20.9977 20.6584 20.2323C19.9669 19.467 19.1278 18.8493 18.1916 18.4166C16.8123 17.8686 15.3041 17.7307 13.8484 18.0195C12.3926 18.3083 11.0513 19.0115 9.9857 20.0445L9.271 20.7063L9.50923 20.2497C10.4954 18.3177 12.059 16.741 13.9827 15.7388C15.9064 14.7366 18.0946 14.3587 20.2431 14.6578C20.8386 14.7438 25.7158 15.5114 28.0453 20.0247C28.762 21.4254 29.1319 22.9777 29.1239 24.5511Z" fill="#CCCCCC"/>
<path d="M9.00881 21.7988C9.60999 21.1135 10.324 20.536 11.1198 20.0914C12.4357 19.3288 13.9509 18.9806 15.4676 19.0922C20.014 19.7539 20.4441 29.2436 24.8118 29.8723C25.9698 30.0444 28.2198 28.9988 28.2198 28.9988C27.2404 29.8061 25.7581 30.7591 24.1698 30.4944C19.9147 29.7797 19.6632 21.1039 15.0309 19.8532C13.8066 19.5289 11.8875 19.6216 9.0022 21.7922L9.00881 21.7988Z" fill="#CCCCCC"/>
<path d="M27.9125 30.0837C27.3131 30.7699 26.6015 31.3495 25.8081 31.7977C24.4933 32.5637 22.9783 32.9165 21.4603 32.8102C16.914 32.1484 16.4508 22.6719 12.0765 22.0565C10.925 21.891 8.68164 22.9432 8.68164 22.9432C9.65443 22.1359 11.1368 21.1763 12.725 21.4344C16.9802 22.0962 17.2581 30.8116 21.8905 32.0227C23.1213 32.3469 25.0405 32.2477 27.9191 30.0374L27.9125 30.0837Z" fill="#CCCCCC"/>
<path d="M24.673 33.2209C22.5385 34.7217 19.9251 35.3816 17.334 35.0738C15.4147 34.7782 13.6119 33.9662 12.1186 32.7248C10.6254 31.4833 9.49786 29.8591 8.85678 28.026C8.5954 27.423 8.42158 26.7857 8.3406 26.1334C8.24492 25.3821 8.2695 24.6204 8.41339 23.8768C9.13526 23.5334 9.95401 23.4515 10.7296 23.6452C11.3466 23.8313 11.9022 24.1803 12.3377 24.6554C12.7732 25.1305 13.0727 25.7143 13.2046 26.3452C13.9193 30.0841 16.5134 32.9628 19.7759 33.6246C21.6939 33.9754 23.6742 33.6379 25.3678 32.6716C25.2487 32.7974 25.0105 32.9893 24.673 33.2209Z" fill="#CCCCCC"/>
</svg>
