<svg width="109" height="45" viewBox="0 0 109 45" fill="none" xmlns="http://www.w3.org/2000/svg">
<path d="M92.1133 28.3238L91.9611 28.6283C91.6669 29.1819 91.3282 29.7109 90.9486 30.2099C90.4758 30.2846 89.9979 30.3222 89.5192 30.3224C87.3136 30.1937 85.1425 29.7157 83.0868 28.9062L79.4141 27.5033C77.3768 26.654 75.2114 26.1529 73.0082 26.0209C71.1256 26.1272 69.2697 26.5154 67.5023 27.1724L62.9163 28.9062C60.8742 29.7226 58.7128 30.2009 56.517 30.3224C54.3147 30.2012 52.1467 29.7229 50.0979 28.9062L45.5185 27.1724C43.7511 26.5154 41.8951 26.1272 40.0126 26.0209C37.8054 26.1548 35.6359 26.6558 33.5935 27.5033L29.914 28.9062C27.8563 29.7165 25.6829 30.1945 23.4751 30.3224C23.0029 30.3234 22.5315 30.2858 22.0655 30.2099C21.6732 29.7198 21.3338 29.1897 21.053 28.6283L20.9008 28.3238C21.7714 28.5134 22.6574 28.6242 23.5479 28.6547C25.7463 28.5194 27.9046 28.0045 29.9273 27.1327L33.6001 25.7297C35.6615 24.9698 37.8253 24.5236 40.0192 24.4062C42.2069 24.5219 44.3644 24.9681 46.4185 25.7297L50.1045 27.1327C52.1358 28.0043 54.3036 28.5149 56.5104 28.6415C58.7194 28.5156 60.8895 28.005 62.9229 27.1327L66.5957 25.7297C68.6476 24.9688 70.8029 24.5226 72.9883 24.4062C75.1824 24.5219 77.3465 24.9681 79.4074 25.7297L83.0868 27.1327C85.1182 28.0043 87.2859 28.5149 89.4927 28.6415C90.3842 28.6243 91.2715 28.5134 92.1398 28.3106L92.1133 28.3238ZM86.2633 33.0091C85.8638 33.4561 85.4204 33.8618 84.9398 34.2202L82.0082 33.1944L78.6133 32.0562C76.0457 31.1694 74.3118 30.7922 72.8163 30.7922C70.9604 30.8961 69.1309 31.2799 67.3898 31.9305L62.8699 33.6908C60.8298 34.4781 58.6801 34.9446 56.4971 35.0738C54.318 34.9495 52.173 34.4758 50.1442 33.6709L45.6111 31.9106C43.8682 31.2581 42.0363 30.8743 40.178 30.7724C38.1989 30.8785 36.2511 31.3123 34.414 32.0562L31.039 33.1944L28.114 34.2202C27.6363 33.8584 27.1932 33.453 26.7905 33.0091L32.0846 31.1363C33.577 30.5752 35.0965 30.0893 36.6376 29.6805C37.7979 29.363 38.9896 29.1744 40.1913 29.118C42.3601 29.2457 44.4984 29.6916 46.5376 30.4415L50.1574 31.8709C52.1707 32.7368 54.3217 33.2387 56.5104 33.3533C58.6972 33.245 60.8488 32.7591 62.8699 31.9172L66.503 30.4878C68.52 29.7175 70.6417 29.2557 72.7964 29.118C74.0284 29.166 75.2513 29.3502 76.4427 29.6672C77.9866 30.0664 79.5066 30.5525 80.9957 31.1231L86.2501 32.9959L86.2633 33.0091ZM80.4398 35.7356L78.6199 36.8341L78.203 36.6952C76.492 36.026 74.6842 35.6372 72.8493 35.5437C70.9833 35.6283 69.1436 36.0172 67.403 36.6952L66.5096 37.026L65.5832 37.3768L64.6832 37.7209L63.7766 38.0783L62.8699 38.4488L61.9567 38.7533C60.2147 39.3948 58.3846 39.7652 56.5302 39.8518C54.9089 39.8518 52.8971 39.4084 50.1707 38.4488L49.264 38.0981L48.3574 37.7209L47.4442 37.3635L46.5243 37.0591L45.6243 36.7283L44.7111 36.3974C43.2537 35.8967 41.731 35.6113 40.1913 35.5503C38.3514 35.6383 36.5384 36.0273 34.8243 36.7018L34.4207 36.8408L32.6008 35.7356C33.0574 35.5437 33.1964 35.504 33.8251 35.2658L34.7383 34.9613C36.4908 34.345 38.3228 33.9839 40.178 33.8893C42.3534 34.011 44.4956 34.4779 46.5243 35.2724L47.4442 35.6297L48.3574 35.9805L49.2707 36.3378L50.1773 36.6885L51.0905 37.0062C52.8318 37.6662 54.6643 38.0546 56.5236 38.1577C58.1516 38.1577 60.1302 37.7143 62.8898 36.6885L63.7832 36.3378L64.6964 35.9805L65.5964 35.6297C65.7486 35.5635 66.053 35.4378 66.5229 35.2724L67.4163 34.968C69.1713 34.3528 71.0053 33.9917 72.8626 33.8959C75.0397 34.0155 77.1841 34.4801 79.2155 35.2724L80.142 35.6297L80.4398 35.7422V35.7356ZM29.4839 13.4738V17.6496C28.6019 18.0247 27.6561 18.2268 26.6979 18.2452C24.2957 18.2452 22.628 16.3327 22.628 13.6459C22.5962 12.9943 22.7005 12.3432 22.9342 11.7341C23.1678 11.1251 23.5258 10.5713 23.9852 10.1081C24.4446 9.64498 24.9954 9.28257 25.6026 9.04398C26.2098 8.8054 26.86 8.69587 27.5118 8.72237C29.3227 8.7773 31.0899 9.29196 32.6471 10.218V7.43855C30.1788 6.41281 28.9677 6.11502 27.128 6.11502C22.0788 6.11502 18.856 9.04002 18.856 13.626C18.856 17.9805 21.9927 20.8658 26.6846 20.8658C28.9357 20.8208 31.139 20.2085 33.0905 19.0856V13.4672H29.4971M35.1552 6.12163V20.8724H38.8876V8.90766H40.4957C42.6133 8.90766 43.5596 9.56943 43.5596 11.1378C43.5596 12.7062 42.4942 13.626 40.6346 13.626H39.8273H39.4104L44.6118 20.9055H49.3964L44.6251 14.9496C45.4511 14.6077 46.1537 14.0226 46.6395 13.2721C47.1252 12.5215 47.3713 11.641 47.3449 10.7474C47.3449 7.6106 45.3596 6.11502 41.2699 6.11502H35.1552M67.6942 6.11502V20.8724H71.1155V14.5591H77.1508V20.879H80.5721V6.12163H77.1508V11.568H71.1155V6.1084M83.9736 6.1084V20.8724H94.8199V17.9805H87.7324V14.4665H92.9471V11.6937H87.7324V8.99369H93.9729V6.1084M53.0295 13.5003C53.0295 10.6812 54.8626 8.6959 57.5229 8.6959C60.1832 8.6959 62.0163 10.6812 62.0163 13.5003C62.0163 16.3194 60.1633 18.2981 57.5229 18.2981C54.8824 18.2981 53.0295 16.3128 53.0295 13.5003ZM49.3964 13.5003C49.3964 17.7555 52.8243 20.879 57.5361 20.879C62.2479 20.879 65.6692 17.7687 65.6692 13.5003C65.6692 9.23193 62.2082 6.12163 57.5361 6.12163C52.8641 6.12163 49.3964 9.26502 49.3964 13.5003Z" fill="#CCCCCC"/>
</svg>
