<svg width="109" height="45" viewBox="0 0 109 45" fill="none" xmlns="http://www.w3.org/2000/svg">
<path d="M51.359 3.58691H13.5259V41.42H51.359V3.58691Z" fill="#CCCCCC"/>
<path d="M95.9454 3.58691H58.1123V41.42H95.9454V3.58691Z" fill="#CCCCCC"/>
<path d="M54.6751 38.5011C74.6999 38.5011 90.9332 31.5266 90.9332 22.9232C90.9332 14.3197 74.6999 7.34521 54.6751 7.34521C34.6503 7.34521 18.417 14.3197 18.417 22.9232C18.417 31.5266 34.6503 38.5011 54.6751 38.5011Z" fill="white"/>
<path d="M33.4407 26.6182V17.8258H34.5054V21.7412H39.1935V17.8258H40.2582V26.6182H39.1935V22.6857H34.5054V26.6182H33.4407ZM42.7503 26.6182H41.6341L44.8625 17.8258H45.9616L49.19 26.6182H48.0738L45.4464 19.2168H45.3777L42.7503 26.6182ZM43.1624 23.1837H47.6616V24.1282H43.1624V23.1837ZM50.5595 26.6182V17.8258H53.5303C54.2172 17.8258 54.7811 17.9432 55.2218 18.1779C55.6626 18.4097 55.9889 18.7288 56.2007 19.1353C56.4125 19.5417 56.5184 20.0039 56.5184 20.5219C56.5184 21.04 56.4125 21.4993 56.2007 21.9C55.9889 22.3007 55.664 22.6155 55.2261 22.8445C54.7882 23.0706 54.2287 23.1837 53.5475 23.1837H51.1434V22.222H53.5132C53.9825 22.222 54.3603 22.1533 54.6466 22.0159C54.9356 21.8786 55.1446 21.6839 55.2733 21.4321C55.405 21.1773 55.4708 20.874 55.4708 20.5219C55.4708 20.1699 55.405 19.8622 55.2733 19.5989C55.1417 19.3356 54.9313 19.1324 54.6423 18.9893C54.3532 18.8433 53.9711 18.7703 53.496 18.7703H51.6242V26.6182H50.5595ZM54.6981 22.6685L56.8618 26.6182H55.6254L53.496 22.6685H54.6981ZM58.2925 26.6182V17.8258H61.2633C61.9502 17.8258 62.5141 17.9432 62.9548 18.1779C63.3956 18.4097 63.7219 18.7288 63.9337 19.1353C64.1454 19.5417 64.2513 20.0039 64.2513 20.5219C64.2513 21.04 64.1454 21.4993 63.9337 21.9C63.7219 22.3007 63.397 22.6155 62.9591 22.8445C62.5212 23.0706 61.9617 23.1837 61.2805 23.1837H58.8764V22.222H61.2462C61.7155 22.222 62.0933 22.1533 62.3795 22.0159C62.6686 21.8786 62.8775 21.6839 63.0063 21.4321C63.138 21.1773 63.2038 20.874 63.2038 20.5219C63.2038 20.1699 63.138 19.8622 63.0063 19.5989C62.8747 19.3356 62.6643 19.1324 62.3752 18.9893C62.0862 18.8433 61.7041 18.7703 61.229 18.7703H59.3572V26.6182H58.2925ZM62.4311 22.6685L64.5948 26.6182H63.3584L61.229 22.6685H62.4311ZM67.0902 17.8258V26.6182H66.0255V17.8258H67.0902ZM74.0332 20.0239C73.9817 19.5889 73.7728 19.2512 73.4064 19.0107C73.0401 18.7703 72.5907 18.6501 72.0584 18.6501C71.6691 18.6501 71.3286 18.7131 71.0366 18.839C70.7476 18.965 70.5214 19.1381 70.3583 19.3585C70.198 19.5789 70.1179 19.8293 70.1179 20.1098C70.1179 20.3445 70.1737 20.5463 70.2853 20.7151C70.3998 20.8811 70.5458 21.0199 70.7232 21.1316C70.9007 21.2403 71.0867 21.3305 71.2813 21.402C71.476 21.4707 71.6548 21.5265 71.818 21.5695L72.7109 21.8099C72.9399 21.87 73.1946 21.953 73.4751 22.0589C73.7585 22.1648 74.0289 22.3093 74.2865 22.4925C74.547 22.6728 74.7616 22.9046 74.9305 23.188C75.0993 23.4713 75.1838 23.819 75.1838 24.2312C75.1838 24.7063 75.0593 25.1356 74.8103 25.5191C74.5641 25.9026 74.2035 26.2075 73.7284 26.4336C73.2562 26.6597 72.6823 26.7727 72.0069 26.7727C71.3772 26.7727 70.832 26.6711 70.3712 26.4679C69.9133 26.2647 69.5526 25.9814 69.2893 25.6179C69.0289 25.2544 68.8815 24.8322 68.8471 24.3514H69.9462C69.9748 24.6834 70.0864 24.9582 70.281 25.1757C70.4785 25.3903 70.7275 25.5506 71.028 25.6565C71.3314 25.7595 71.6577 25.8111 72.0069 25.8111C72.4133 25.8111 72.7782 25.7452 73.1016 25.6136C73.425 25.4791 73.6812 25.293 73.8701 25.0555C74.059 24.8151 74.1534 24.5346 74.1534 24.214C74.1534 23.9221 74.0719 23.6845 73.9087 23.5014C73.7456 23.3182 73.5309 23.1694 73.2648 23.0549C72.9986 22.9404 72.7109 22.8402 72.4018 22.7544L71.32 22.4452C70.6331 22.2478 70.0893 21.9658 69.6886 21.5995C69.2879 21.2332 69.0875 20.7538 69.0875 20.1613C69.0875 19.669 69.2206 19.2397 69.4868 18.8734C69.7558 18.5042 70.1165 18.218 70.5687 18.0147C71.0237 17.8087 71.5318 17.7056 72.0927 17.7056C72.6594 17.7056 73.1631 17.8072 73.6039 18.0105C74.0447 18.2108 74.3938 18.4856 74.6514 18.8347C74.9119 19.1839 75.0493 19.5803 75.0636 20.0239H74.0332Z" fill="#CCCCCC"/>
<path d="M61.8758 9.95932C63.2655 10.0255 64.6817 10.1049 66.1243 10.2108C43.3861 11.0049 27.0802 16.6828 25.6773 24.9351C25.4126 26.4703 25.6045 28.4424 27.0008 30.9306C22.4214 28.5284 20.2177 22.3277 21.3626 19.813C24.4927 12.7983 39.7398 8.93358 61.8758 9.95932Z" fill="#CCCCCC"/>
<path d="M46.0945 35.8082C44.7092 35.7288 43.2952 35.6295 41.8525 35.5104C64.5974 34.9678 80.943 29.4685 82.4584 21.2361C82.743 19.7009 82.5709 17.7222 81.2275 15.2207C85.7805 17.6759 87.8452 23.7773 86.74 26.4045C83.4908 34.1141 68.2239 37.0589 46.0945 35.8082Z" fill="#CCCCCC"/>
<path d="M76.9872 25.3145V23.8273H77.4897C77.6059 23.8273 77.7013 23.8471 77.7758 23.8868C77.8504 23.926 77.9056 23.98 77.9414 24.0488C77.9772 24.1175 77.9951 24.1957 77.9951 24.2833C77.9951 24.3709 77.9772 24.4486 77.9414 24.5164C77.9056 24.5842 77.8506 24.6374 77.7765 24.6762C77.7025 24.7144 77.6078 24.7335 77.4926 24.7335H77.086V24.5709H77.4868C77.5662 24.5709 77.6301 24.5593 77.6785 24.536C77.7274 24.5128 77.7627 24.4799 77.7845 24.4373C77.8068 24.3942 77.8179 24.3429 77.8179 24.2833C77.8179 24.2238 77.8068 24.1717 77.7845 24.1272C77.7623 24.0827 77.7267 24.0483 77.6778 24.0241C77.6289 23.9994 77.5643 23.987 77.4839 23.987H77.1673V25.3145H76.9872ZM77.6872 24.6464L78.0532 25.3145H77.8441L77.4839 24.6464H77.6872Z" fill="#CCCCCC"/>
<path d="M77.4415 25.7825C78.0117 25.7825 78.4739 25.3203 78.4739 24.7501C78.4739 24.18 78.0117 23.7178 77.4415 23.7178C76.8714 23.7178 76.4092 24.18 76.4092 24.7501C76.4092 25.3203 76.8714 25.7825 77.4415 25.7825Z" stroke="#B3B3B3" stroke-width="0.165441" stroke-miterlimit="10"/>
</svg>
