<svg width="109" height="45" viewBox="0 0 109 45" fill="none" xmlns="http://www.w3.org/2000/svg">
<path d="M104.506 12.031C104.512 11.8359 104.574 11.6466 104.686 11.4869C104.799 11.3272 104.955 11.2041 105.137 11.133C105.319 11.0619 105.518 11.046 105.708 11.0872C105.899 11.1285 106.074 11.2251 106.21 11.3649C106.346 11.5047 106.438 11.6816 106.474 11.8734C106.51 12.0652 106.489 12.2634 106.413 12.4432C106.337 12.6231 106.21 12.7766 106.048 12.8845C105.885 12.9925 105.694 13.0501 105.499 13.0501C105.366 13.0511 105.234 13.0252 105.112 12.974C104.989 12.9228 104.878 12.8473 104.785 12.7521C104.693 12.6569 104.62 12.544 104.572 12.4201C104.524 12.2962 104.502 12.1638 104.506 12.031ZM105.492 13.2354C105.732 13.2315 105.966 13.1568 106.163 13.0206C106.361 12.8845 106.514 12.693 106.603 12.4702C106.692 12.2473 106.714 12.0032 106.664 11.7683C106.615 11.5334 106.498 11.3183 106.327 11.15C106.155 10.9817 105.939 10.8677 105.703 10.8223C105.467 10.7769 105.223 10.8021 105.002 10.8948C104.781 10.9876 104.592 11.1436 104.459 11.3434C104.326 11.5432 104.255 11.7778 104.255 12.0178C104.255 12.1794 104.287 12.3393 104.349 12.4884C104.412 12.6374 104.503 12.7725 104.619 12.8859C104.734 12.9992 104.87 13.0885 105.02 13.1485C105.17 13.2085 105.331 13.2381 105.492 13.2354ZM105.221 12.1303H105.466L105.837 12.7391H106.075L105.678 12.117C105.727 12.1181 105.777 12.1087 105.823 12.0896C105.869 12.0704 105.91 12.0418 105.945 12.0057C105.979 11.9695 106.005 11.9266 106.022 11.8797C106.039 11.8328 106.045 11.7829 106.042 11.7332C106.042 11.4553 105.876 11.3362 105.545 11.3362H105.009V12.7325H105.221V12.1303ZM105.221 11.9516V11.5148H105.512C105.664 11.5148 105.823 11.5479 105.823 11.72C105.823 11.892 105.664 11.9516 105.479 11.9516H105.221Z" fill="#999999"/>
<path d="M43.7748 15.2205C43.7748 14.8433 43.7351 14.4661 43.702 13.8242C42.7623 14.0095 41.9483 14.1816 41.1211 14.3205C40.9476 14.3121 40.7791 14.2597 40.6314 14.1683C38.8645 13.4007 37.5277 14.1683 37.4814 16.0676C37.3887 20.2897 37.3424 24.5117 37.3887 28.7338C37.3887 31.2022 38.8049 31.8904 41.5049 30.6264C41.1674 31.4801 41.0748 32.4529 40.6645 32.6117C40.0027 32.8764 39.1093 32.6117 38.3152 32.572L38.2755 32.2477C37.9512 32.8566 37.6137 33.472 37.1836 34.3058L39.8307 35.2654H41.0284C43.3182 34.4448 43.788 33.7764 43.788 31.2948C43.7836 25.9345 43.7792 20.5764 43.7748 15.2205ZM41.0682 28.2573C41.0682 28.5286 40.7505 28.7933 40.5784 29.0647C40.413 28.7735 40.1086 28.4889 40.102 28.1977C40.0623 26.3316 40.102 24.4588 40.102 22.586C40.102 20.7132 40.102 18.761 40.102 16.8551C40.102 16.5573 40.4329 16.2727 40.6115 15.9882C40.7704 16.2595 41.0682 16.5242 41.0682 16.7955C41.1034 20.5985 41.1034 24.4191 41.0682 28.2573Z" fill="#CCCCCC"/>
<path d="M32.794 32.1748H30.233V21.7255C29.2469 21.3748 29.1212 21.838 29.1212 22.5858C29.1212 25.749 29.1212 28.9123 29.1212 32.1549H26.5337V10.6807H29.1212V14.9557C29.1212 16.0476 29.1543 17.1461 29.1212 18.2645C29.1212 19.0189 29.3727 19.2836 30.1999 19.0255V10.6807H32.8138L32.794 32.1748Z" fill="#CCCCCC"/>
<path d="M73.7101 10.6743V14.3537C71.341 13.3346 70.1763 14.003 70.0638 16.4184C69.9579 18.7214 69.9778 21.0508 69.9778 23.3405C69.9778 25.6302 69.938 28.1118 70.0704 30.4942C70.1697 32.1949 71.5726 32.8898 73.1013 32.1618C73.3003 32.0361 73.528 31.9632 73.763 31.9501C74.5903 32.0427 75.4108 32.1883 76.2447 32.314V10.6743H73.7101ZM73.6175 29.2633C73.6175 29.6074 73.3064 29.9251 73.141 30.2956C72.9755 29.9648 72.6579 29.6339 72.6579 29.3096C72.6226 25.2155 72.6226 21.1192 72.6579 17.0206C72.6579 16.6765 72.9557 16.3589 73.1211 15.9751C73.3517 16.3154 73.5197 16.6941 73.6175 17.0934C73.6638 19.1251 73.6175 21.1501 73.6175 23.1817C73.6175 25.2133 73.6638 27.2383 73.6175 29.2633Z" fill="#CCCCCC"/>
<path d="M44.7217 32.142V10.6611H47.2165V14.4927C47.5805 14.2942 47.7658 14.1751 47.9643 14.0891C49.5393 13.381 50.8827 14.1817 50.929 16.0148C51.0151 19.4494 50.9754 22.8972 50.982 26.3383C50.982 28.2508 50.982 30.1567 50.982 32.1486H48.3084V30.3817C48.3084 25.928 48.3084 21.4678 48.3084 17.0075C48.3084 16.67 48.004 16.3457 47.8452 16.0016C47.6864 16.3391 47.3952 16.6633 47.3952 17.0207C47.3952 21.653 47.3952 26.2854 47.3952 30.8648V32.142H44.7217Z" fill="#CCCCCC"/>
<path d="M100.424 10.6543H102.998V18.5955L103.243 18.6352C103.614 17.0955 103.986 15.5514 104.361 14.0028H106.79C106.38 15.7168 106.095 17.3712 105.579 18.9462C104.957 20.819 105.281 22.619 105.632 24.4587C106.115 26.98 106.585 29.5014 107.061 32.0227C106.922 32.0922 106.776 32.1455 106.625 32.1815C104.441 32.3072 104.454 32.3072 104.136 30.1367C103.888 28.2872 103.534 26.4534 103.078 24.644V32.1219H100.43L100.424 10.6543Z" fill="#CCCCCC"/>
<path d="M69.0231 32.1881H66.376V17.53C66.4127 17.2201 66.4127 16.9069 66.376 16.5969C66.3231 16.3785 66.1047 16.1999 65.9591 16.008C65.7738 16.2131 65.5157 16.3852 65.4363 16.6234C65.3895 16.9304 65.3895 17.2428 65.4363 17.5499V32.155H62.8687V13.9896C63.815 14.1352 64.7944 13.533 65.6017 14.4263C67.2562 13.2881 68.9701 13.8638 69.0098 15.8227C69.1025 21.2425 69.0231 26.669 69.0231 32.1881Z" fill="#CCCCCC"/>
<path d="M95.7707 32.1751H93.1699V14.1155C94.8243 13.8111 95.3405 13.8773 95.817 14.4464C97.6699 13.2751 99.3707 13.9567 99.4038 16.0148C99.4765 21.3684 99.4038 26.7221 99.4038 32.1552H96.7567V30.9177C96.7567 26.4177 96.7567 21.9199 96.7567 17.4243C96.7939 17.1132 96.7805 16.7981 96.717 16.4912C96.6039 16.2741 96.4122 16.1084 96.181 16.028C96.1082 16.028 95.8236 16.2993 95.7905 16.478C95.7342 16.8657 95.7143 17.2579 95.731 17.6493L95.7707 32.1751Z" fill="#CCCCCC"/>
<path d="M92.1165 16.213C92.1165 14.7108 90.9386 13.9299 89.2709 13.8637C87.3849 13.7909 86.5114 14.3402 86.1805 15.9814C86.0503 16.9067 85.9817 17.8396 85.9753 18.774H88.6224C88.6224 17.96 88.6224 17.2652 88.6224 16.5637C88.639 16.4594 88.6762 16.3594 88.7319 16.2696C88.7875 16.1799 88.8606 16.1021 88.9467 16.0409C89.0393 15.9814 89.3371 16.0872 89.4364 16.2064C89.8996 16.7953 89.4364 19.3497 88.7746 19.7667C87.3584 20.6799 85.8695 21.5799 85.8496 23.5453C85.8496 25.7689 85.8496 27.9924 85.9224 30.2159C85.9224 31.0895 86.1408 32.0755 87.14 32.2608C87.8967 32.3001 88.6551 32.2265 89.3901 32.0424L92.1629 32.2939C92.1496 26.8078 92.2026 21.5071 92.1165 16.213ZM89.4033 30.5336C88.2981 29.5211 88.4636 22.9828 89.529 22.0365C89.4562 24.935 89.6283 27.6218 89.4033 30.5336Z" fill="#CCCCCC"/>
<path d="M61.816 16.213C61.816 14.7108 60.6381 13.9299 58.9704 13.8637C57.091 13.7909 56.2109 14.3402 55.88 15.9814C55.7498 16.9067 55.6812 17.8396 55.6748 18.774H58.3219C58.3219 17.96 58.3219 17.2652 58.3219 16.5637C58.3385 16.4594 58.3757 16.3594 58.4313 16.2696C58.487 16.1799 58.5601 16.1021 58.6462 16.0409C58.7388 15.9814 59.0366 16.0872 59.1359 16.2064C59.6057 16.7953 59.1359 19.3497 58.4741 19.7667C57.0513 20.6799 55.5623 21.5799 55.5425 23.5453C55.5425 25.7689 55.5425 27.9924 55.6153 30.2159C55.6153 31.0895 55.8337 32.0755 56.8329 32.2608C57.5896 32.3001 58.3479 32.2265 59.0829 32.0424L61.8557 32.2939C61.8491 26.8078 61.9087 21.5071 61.816 16.213ZM59.1028 30.5336C57.9976 29.5211 58.1631 22.9828 59.2285 22.0365C59.1557 24.935 59.3278 27.6218 59.1028 30.5336Z" fill="#CCCCCC"/>
<path d="M86.0276 10.6807V12.7652L84.4063 12.9042V32.1615H81.6931V12.9108L80.0122 12.7652V10.6807H86.0276Z" fill="#CCCCCC"/>
<path d="M54.5584 10.6543V32.1749H51.9907V10.6543H54.5584Z" fill="#CCCCCC"/>
<path d="M36.4 32.1943H33.8853V14.0752H36.4V32.1943Z" fill="#CCCCCC"/>
<path d="M13.0327 28.8594C16.7606 28.8594 19.7827 25.8373 19.7827 22.1094C19.7827 18.3815 16.7606 15.3594 13.0327 15.3594C9.30479 15.3594 6.28271 18.3815 6.28271 22.1094C6.28271 25.8373 9.30479 28.8594 13.0327 28.8594Z" fill="#F4F4F4"/>
<path d="M13.0369 33.75C10.7501 33.75 8.51469 33.0723 6.61298 31.8024C4.71127 30.5325 3.2286 28.7274 2.3523 26.6152C1.476 24.5031 1.24538 22.1786 1.68958 19.9354C2.13378 17.6922 3.23287 15.631 4.84799 14.0122C6.4631 12.3934 8.52179 11.2896 10.7639 10.8403C13.0061 10.3909 15.3311 10.6162 17.4453 11.4877C19.5595 12.3592 21.3679 13.8377 22.6422 15.7365C23.9164 17.6353 24.5993 19.8692 24.6045 22.1559C24.6062 23.6768 24.3084 25.183 23.728 26.5887C23.1476 27.9945 22.2961 29.2721 21.2219 30.3487C20.1478 31.4253 18.8721 32.2798 17.4677 32.8634C16.0633 33.447 14.5577 33.7483 13.0369 33.75ZM13.0369 10.7934C10.7832 10.7934 8.58022 11.4621 6.70674 12.7147C4.83327 13.9673 3.37354 15.7476 2.51231 17.8302C1.65109 19.9128 1.42711 22.2041 1.8687 24.414C2.3103 26.624 3.39762 28.6533 4.99305 30.245C6.58847 31.8367 8.62027 32.9193 10.8313 33.3558C13.0422 33.7922 15.333 33.5629 17.4136 32.6968C19.4942 31.8308 21.2711 30.3669 22.5193 28.4905C23.7676 26.6141 24.4311 24.4096 24.4258 22.1559C24.4223 19.1365 23.2213 16.2417 21.0862 14.1066C18.9511 11.9715 16.0563 10.7705 13.0369 10.767V10.7934Z" fill="#CCCCCC"/>
<path d="M13.0357 29.0381C11.6745 29.0381 10.3438 28.6345 9.21205 27.8783C8.08025 27.122 7.19812 26.0471 6.67721 24.7896C6.1563 23.532 6.02001 22.1482 6.28557 20.8131C6.55112 19.4781 7.2066 18.2517 8.16912 17.2892C9.13163 16.3267 10.358 15.6712 11.693 15.4057C13.028 15.1401 14.4119 15.2764 15.6694 15.7973C16.927 16.3182 18.0019 17.2004 18.7581 18.3322C19.5144 19.464 19.918 20.7946 19.918 22.1558C19.9163 23.9806 19.1906 25.7301 17.9003 27.0204C16.61 28.3107 14.8605 29.0364 13.0357 29.0381ZM13.0357 15.4521C11.7079 15.4508 10.4097 15.8434 9.30515 16.5802C8.20063 17.3171 7.33953 18.365 6.83082 19.5914C6.32212 20.8179 6.18867 22.1676 6.44738 23.4699C6.70609 24.7722 7.34532 25.9685 8.28417 26.9073C9.22302 27.8462 10.4193 28.4854 11.7216 28.7441C13.0239 29.0028 14.3736 28.8694 15.6 28.3606C16.8265 27.8519 17.8744 26.9908 18.6112 25.8863C19.3481 24.7818 19.7407 23.4835 19.7394 22.1558C19.7376 20.3784 19.0308 18.6743 17.774 17.4175C16.5172 16.1607 14.8131 15.4539 13.0357 15.4521Z" fill="#CCCCCC"/>
<path d="M4.16797 15.2932L4.49885 15.0351L5.04812 15.7432L5.829 15.1344L5.29297 14.4263L5.62385 14.1748L6.9937 15.9417L6.66282 16.1998L6.054 15.4123L5.29297 16.0211L5.90179 16.8086L5.57091 17.0667L4.16797 15.2932Z" fill="#B3B3B3"/>
<path d="M6.8586 13.4805L7.91742 15.4658L7.54683 15.6643L6.49463 13.679L6.8586 13.4805Z" fill="#B3B3B3"/>
<path d="M10.2513 14.5593L9.96012 14.6585C9.9108 14.59 9.87282 14.5141 9.84762 14.4335C9.80358 14.5523 9.73108 14.6584 9.63647 14.7427C9.54187 14.8269 9.42804 14.8866 9.30497 14.9166C9.16963 14.965 9.02548 14.9839 8.88223 14.9719C8.73899 14.96 8.59997 14.9174 8.47455 14.8472C8.34913 14.777 8.24022 14.6807 8.15516 14.5648C8.0701 14.4489 8.01086 14.3161 7.98144 14.1754C7.9183 14.0371 7.8855 13.8868 7.88526 13.7348C7.88501 13.5827 7.91731 13.4324 7.98 13.2938C8.04269 13.1553 8.13431 13.0317 8.2487 12.9316C8.3631 12.8314 8.49761 12.7568 8.64321 12.7129C8.84119 12.6194 9.06723 12.6043 9.27592 12.6706C9.48461 12.7369 9.66048 12.8797 9.76821 13.0703L9.37115 13.2026C9.30594 13.1034 9.2069 13.0313 9.09247 12.9996C8.97804 12.968 8.85601 12.979 8.74909 13.0306C8.29247 13.1828 8.27262 13.6063 8.41159 14.0166C8.55056 14.4269 8.8285 14.7247 9.27188 14.5791C9.34468 14.5613 9.41251 14.5273 9.47028 14.4796C9.52806 14.4319 9.57428 14.3717 9.60548 14.3036C9.63668 14.2355 9.65204 14.1611 9.65043 14.0862C9.64881 14.0113 9.63025 13.9377 9.59615 13.871L9.08659 14.0431L8.97409 13.7122L9.87409 13.4078L10.2513 14.5593Z" fill="#B3B3B3"/>
<path d="M10.5894 12.2095L11.0063 12.1632L11.0989 13.0499L12.0849 12.9507L11.9923 12.0639L12.4092 12.0176L12.6342 14.2411L12.2173 14.2874L12.118 13.2948L11.132 13.4007L11.2313 14.3867L10.8144 14.433L10.5894 12.2095Z" fill="#B3B3B3"/>
<path d="M13.4481 12.0508L13.865 12.0905L13.6665 13.9699L14.7915 14.0824L14.7054 14.4265L13.2363 14.2743L13.4481 12.0508Z" fill="#B3B3B3"/>
<path d="M15.7708 14.109L15.4068 14.5921L15.0098 14.4664L16.4326 12.5737L16.9289 12.7392L17.0149 15.1149L16.5914 14.9826V14.3737L15.7708 14.109ZM16.5848 14.0098C16.5848 13.4671 16.5848 13.1428 16.5848 12.9443C16.4656 13.1296 16.2473 13.434 15.9759 13.8046L16.5848 14.0098Z" fill="#B3B3B3"/>
<path d="M17.3462 15.2737L18.4778 13.3413L18.9344 13.6126C18.9344 14.2016 18.9344 15.3332 18.9013 15.5979C19.0072 15.3663 19.1991 15.042 19.3844 14.7244L19.7616 14.0626L20.0925 14.2545L18.9543 16.1803L18.5308 15.9685C18.5308 15.4457 18.5308 14.1884 18.5771 13.9038C18.4844 14.0957 18.266 14.4729 18.0675 14.817L17.6837 15.4788L17.3462 15.2737Z" fill="#B3B3B3"/>
<path d="M20.9812 14.9556L21.6033 15.5445C21.7117 15.6402 21.7985 15.7578 21.858 15.8896C21.9175 16.0214 21.9483 16.1643 21.9483 16.3089C21.9483 16.4535 21.9175 16.5964 21.858 16.7282C21.7985 16.86 21.7117 16.9776 21.6033 17.0732C21.5095 17.1884 21.3928 17.2828 21.2604 17.3502C21.1281 17.4177 20.9831 17.4567 20.8348 17.4648C20.6865 17.4729 20.5381 17.4499 20.3992 17.3973C20.2603 17.3447 20.134 17.2636 20.0283 17.1592L19.4194 16.5769L20.9812 14.9556ZM19.9819 16.6166L20.2665 16.8945C20.337 16.9667 20.4231 17.0218 20.5182 17.0556C20.6133 17.0894 20.7149 17.101 20.8152 17.0895C20.9154 17.078 21.0117 17.0437 21.0967 16.9893C21.1817 16.9348 21.2531 16.8617 21.3055 16.7754C21.3802 16.7157 21.4411 16.6405 21.484 16.555C21.5269 16.4695 21.5507 16.3757 21.5539 16.2801C21.557 16.1845 21.5394 16.0893 21.5022 16.0012C21.465 15.9131 21.4092 15.834 21.3386 15.7695L21.0474 15.4916L19.9819 16.6166Z" fill="#B3B3B3"/>
<path d="M6.80466 29.0781L5.80539 29.1773C5.35539 29.2237 5.05098 29.2501 4.73995 28.8994C4.6187 28.7757 4.55078 28.6094 4.55078 28.4362C4.55078 28.2629 4.6187 28.0966 4.73995 27.9729C4.97819 27.7678 5.25613 27.7876 5.67966 27.9729C5.92451 28.092 6.14951 28.1582 6.30833 28.0192C6.33514 28.0005 6.35766 27.9762 6.37441 27.9481C6.39116 27.92 6.40176 27.8886 6.40551 27.8561C6.40926 27.8236 6.40608 27.7906 6.39617 27.7595C6.38627 27.7283 6.36986 27.6995 6.34804 27.6751C6.32568 27.6498 6.29819 27.6295 6.26738 27.6156C6.23658 27.6017 6.20316 27.5945 6.16936 27.5945C6.13556 27.5945 6.10215 27.6017 6.07134 27.6156C6.04054 27.6295 6.01304 27.6498 5.99069 27.6751C5.8848 27.7678 5.87819 27.9266 5.86495 28.1185L5.76569 30.031L5.42157 29.6339L5.51422 27.9729C5.51038 27.8708 5.52715 27.7689 5.56354 27.6734C5.59992 27.5779 5.65517 27.4907 5.72598 27.417C5.78408 27.3635 5.85281 27.3227 5.9277 27.2975C6.00259 27.2723 6.08195 27.2631 6.16062 27.2706C6.23929 27.2781 6.3155 27.3021 6.38428 27.341C6.45306 27.3799 6.51286 27.4329 6.5598 27.4964C6.61521 27.5467 6.65948 27.608 6.68978 27.6764C6.72008 27.7447 6.73573 27.8187 6.73573 27.8935C6.73573 27.9683 6.72008 28.0423 6.68978 28.1106C6.65948 28.179 6.61521 28.2403 6.5598 28.2906C6.34804 28.4759 6.08995 28.4362 5.67304 28.2906C5.25613 28.145 5.17672 28.1913 5.0576 28.2906C5.02698 28.3202 5.00263 28.3557 4.986 28.3949C4.96937 28.4341 4.9608 28.4763 4.9608 28.5189C4.9608 28.5615 4.96937 28.6036 4.986 28.6429C5.00263 28.6821 5.02698 28.7176 5.0576 28.7472C5.22304 28.9259 5.38186 28.9325 5.85172 28.8862L6.56642 28.8067L6.80466 29.0781Z" fill="#B3B3B3"/>
<path d="M9.50926 31.3012C9.6747 30.9439 9.86661 30.56 9.97911 30.3417C9.70779 30.6792 9.10558 31.3012 8.59602 31.8372L8.27176 31.685C8.37102 31.0696 8.51661 30.11 8.61588 29.6997C8.51661 29.9446 8.3247 30.3615 8.15926 30.7189L7.79529 31.4733L7.45117 31.3012L8.41735 29.3159L8.97985 29.5872C8.89382 30.249 8.76147 31.0497 8.68867 31.3674C8.85411 31.149 9.47617 30.5071 9.93279 30.0439L10.4754 30.3086L9.51588 32.2939L9.14529 32.1152L9.50926 31.3012Z" fill="#B3B3B3"/>
<path d="M10.9401 30.3286L12.4357 30.5867L12.3761 30.9308L11.2842 30.7389L11.1783 31.3411L12.2041 31.5198L12.1445 31.8639L11.1188 31.6852L10.9599 32.6051L10.5894 32.5323L10.9401 30.3286Z" fill="#B3B3B3"/>
<path d="M14.8464 32.6912H14.5354C14.5104 32.6114 14.4927 32.5294 14.4824 32.4464C14.4097 32.554 14.3108 32.6415 14.1951 32.7005C14.0793 32.7595 13.9505 32.7882 13.8207 32.7839C13.6822 32.792 13.5436 32.7717 13.4133 32.724C13.2831 32.6764 13.164 32.6025 13.0635 32.5069C12.963 32.4114 12.8831 32.2962 12.829 32.1685C12.7748 32.0409 12.7475 31.9034 12.7486 31.7647C12.7201 31.6165 12.7235 31.4639 12.7588 31.3172C12.794 31.1704 12.8603 31.0329 12.953 30.9138C13.0458 30.7948 13.1629 30.6969 13.2966 30.6268C13.4302 30.5567 13.5773 30.516 13.728 30.5074C13.9431 30.4661 14.1659 30.5071 14.3522 30.6223C14.5385 30.7375 14.6748 30.9185 14.7339 31.1294H14.317C14.2754 31.0171 14.1955 30.9231 14.0914 30.8638C13.9874 30.8045 13.8657 30.7837 13.7479 30.8052C13.2714 30.8449 13.1457 31.2552 13.1787 31.6853C13.2118 32.1155 13.4104 32.4728 13.8802 32.4397C13.9551 32.4394 14.0289 32.4224 14.0964 32.39C14.1639 32.3575 14.2232 32.3104 14.2702 32.252C14.3171 32.1937 14.3504 32.1256 14.3676 32.0527C14.3849 31.9799 14.3857 31.9041 14.3699 31.8309L13.8339 31.8706V31.5265L14.7802 31.4537L14.8464 32.6912Z" fill="#B3B3B3"/>
<path d="M15.693 32.4659L15.5474 31.9497L15.9643 31.8306L16.1032 32.3534L15.693 32.4659Z" fill="#B3B3B3"/>
<path d="M19.1434 30.0975C19.2176 30.2999 19.2155 30.5224 19.1376 30.7234C19.0596 30.9243 18.9111 31.09 18.7199 31.1895C18.5979 31.2697 18.4601 31.3229 18.3158 31.3453C18.1716 31.3677 18.0241 31.3588 17.8836 31.3193C17.743 31.2798 17.6126 31.2105 17.5011 31.1162C17.3897 31.0218 17.2998 30.9046 17.2375 30.7725C17.1467 30.6559 17.0815 30.5214 17.0462 30.3779C17.0108 30.2344 17.0061 30.085 17.0323 29.9395C17.0585 29.7941 17.1151 29.6557 17.1984 29.5336C17.2816 29.4115 17.3897 29.3082 17.5155 29.2306C17.6853 29.0983 17.8994 29.0363 18.1137 29.0572C18.3279 29.0781 18.5259 29.1805 18.667 29.3431L18.3162 29.5681C18.2327 29.4774 18.1176 29.422 17.9945 29.4134C17.8715 29.4048 17.7498 29.4436 17.6545 29.5218C17.2905 29.7534 17.35 30.1836 17.575 30.5277C17.8 30.8718 18.1375 31.1431 18.528 30.8983C18.6263 30.8429 18.7028 30.7557 18.7449 30.6511C18.787 30.5464 18.7922 30.4305 18.7596 30.3225L19.1434 30.0975Z" fill="#B3B3B3"/>
<path d="M20.8186 27.7277C20.9388 27.8181 21.0386 27.9328 21.1115 28.0642C21.1844 28.1957 21.2289 28.3411 21.242 28.4909C21.2551 28.6406 21.2366 28.7915 21.1876 28.9336C21.1386 29.0758 21.0602 29.206 20.9576 29.3159C20.8601 29.427 20.74 29.5161 20.6053 29.577C20.4707 29.638 20.3246 29.6696 20.1767 29.6696C20.0289 29.6696 19.8828 29.638 19.7481 29.577C19.6135 29.5161 19.4934 29.427 19.3959 29.3159C19.2756 29.2269 19.1758 29.1133 19.1029 28.9827C19.0301 28.8521 18.9859 28.7074 18.9734 28.5584C18.9609 28.4093 18.9803 28.2593 19.0303 28.1184C19.0803 27.9774 19.1598 27.8487 19.2635 27.7409C19.3606 27.631 19.4798 27.5428 19.6132 27.4819C19.7467 27.4211 19.8915 27.389 20.0381 27.3877C20.1848 27.3865 20.3301 27.4161 20.4646 27.4747C20.599 27.5333 20.7197 27.6195 20.8186 27.7277ZM19.6738 28.9983C20.0113 29.3027 20.4216 29.3821 20.7061 29.0711C20.9907 28.7601 20.8451 28.3431 20.5275 28.0586C20.2098 27.774 19.8061 27.6681 19.5084 27.9924C19.2106 28.3167 19.3429 28.6939 19.6738 28.9983Z" fill="#B3B3B3"/>
<path d="M22.0269 27.8541L21.5703 27.5762L21.7887 27.2056L22.2519 27.4835L22.0269 27.8541Z" fill="#B3B3B3"/>
<path d="M9.80112 16.2101L7.06836 18.9429L7.11047 18.985L9.84323 16.2522L9.80112 16.2101Z" fill="#CCCCCC"/>
<path d="M11.5752 15.499L6.38574 20.6885L6.42786 20.7306L11.6173 15.5412L11.5752 15.499Z" fill="#CCCCCC"/>
<path d="M12.6326 15.3635L6.23584 21.7603L6.27795 21.8024L12.6747 15.4057L12.6326 15.3635Z" fill="#CCCCCC"/>
<path d="M13.6601 15.3785L6.31348 22.7251L6.35559 22.7672L13.7022 15.4206L13.6601 15.3785Z" fill="#CCCCCC"/>
<path d="M14.6015 15.5235L6.46875 23.6562L6.51086 23.6984L14.6436 15.5656L14.6015 15.5235Z" fill="#CCCCCC"/>
<path d="M15.3377 15.758L6.68555 24.4102L6.72766 24.4523L15.3798 15.8001L15.3377 15.758Z" fill="#CCCCCC"/>
<path d="M16.0529 16.0872L6.97021 25.1699L7.01233 25.212L16.095 16.1294L16.0529 16.0872Z" fill="#CCCCCC"/>
<path d="M16.6783 16.4637L7.34766 25.7944L7.38977 25.8365L16.7205 16.5059L16.6783 16.4637Z" fill="#CCCCCC"/>
<path d="M17.2302 16.8962L7.68896 26.4375L7.73108 26.4796L17.2723 16.9384L17.2302 16.8962Z" fill="#CCCCCC"/>
<path d="M17.7937 17.3874L8.25244 26.9287L8.29456 26.9708L17.8358 17.4296L17.7937 17.3874Z" fill="#CCCCCC"/>
<path d="M18.3001 17.886L8.75879 27.4272L8.8009 27.4694L18.3422 17.9281L18.3001 17.886Z" fill="#CCCCCC"/>
<path d="M18.7731 18.432L9.35352 27.8516L9.39563 27.8937L18.8152 18.4741L18.7731 18.432Z" fill="#CCCCCC"/>
<path d="M19.0994 19.1081L10.0308 28.1768L10.0729 28.2189L19.1415 19.1502L19.0994 19.1081Z" fill="#CCCCCC"/>
<path d="M19.396 19.8032L10.6924 28.5068L10.7345 28.549L19.4381 19.8453L19.396 19.8032Z" fill="#CCCCCC"/>
<path d="M19.6365 20.5955L11.499 28.7329L11.5411 28.775L19.6786 20.6376L19.6365 20.5955Z" fill="#CCCCCC"/>
<path d="M19.7707 21.5227L12.4194 28.874L12.4615 28.9161L19.8129 21.5648L19.7707 21.5227Z" fill="#CCCCCC"/>
<path d="M19.7986 22.5095L13.4019 28.9062L13.444 28.9484L19.8407 22.5516L19.7986 22.5095Z" fill="#CCCCCC"/>
<path d="M19.6274 23.7027L14.6064 28.7236L14.6486 28.7657L19.6695 23.7448L19.6274 23.7027Z" fill="#CCCCCC"/>
<path d="M19.0346 25.2915L16.2036 28.1226L16.2457 28.1647L19.0768 25.3336L19.0346 25.2915Z" fill="#CCCCCC"/>
<path d="M18.4625 24.7106L18.3765 24.8032L7.78828 24.8694C7.15174 24.014 6.81872 22.9707 6.84196 21.9047C6.8949 20.1246 7.59637 19.3768 7.70225 19.2974H18.3633C18.7445 19.7332 19.0336 20.2416 19.2133 20.792C19.393 21.3424 19.4595 21.9235 19.4089 22.5003C19.3147 23.3133 18.9859 24.0813 18.4625 24.7106Z" fill="#FAF8F8"/>
<path d="M7.76921 24.9021C7.12654 24.0419 6.79099 22.991 6.81627 21.9176C6.8626 20.2036 7.51774 19.4095 7.6898 19.2705H18.3707C18.7581 19.7083 19.0524 20.2204 19.2355 20.7756C19.4187 21.3308 19.487 21.9175 19.4361 22.4999C19.3414 23.312 19.01 24.0784 18.4832 24.7036L18.3972 24.7962L7.76921 24.9021ZM7.70965 19.3301C7.63686 19.3962 6.92215 20.0845 6.86921 21.9043C6.84197 22.9607 7.1706 23.9955 7.8023 24.8426L18.3905 24.7764L18.4633 24.6904C18.981 24.0686 19.2993 23.3053 19.3766 22.4999C19.4278 21.9272 19.3627 21.35 19.1853 20.803C19.0079 20.256 18.7218 19.7505 18.3442 19.3168L7.70965 19.3301Z" fill="#B3B3B3"/>
<path d="M7.854 19.2969C7.95325 19.2916 8.0525 19.3073 8.14518 19.3432C8.91283 19.5484 9.15768 21.2094 9.06503 22.3477C8.979 23.3403 8.56209 24.8557 8.00621 24.869" fill="#FAF8F8"/>
<path d="M8.0086 24.9021V24.8426C8.51816 24.8426 8.95492 23.3801 9.03433 22.3477C9.11375 21.3154 8.90198 19.5749 8.14095 19.3698C8.05313 19.343 7.96131 19.3318 7.86963 19.3367V19.2771C7.96828 19.2729 8.06689 19.2863 8.16081 19.3168C8.94831 19.5352 9.18654 21.2558 9.09389 22.3543C9.0211 23.2345 8.60419 24.8823 8.0086 24.9021Z" fill="#B3B3B3"/>
<path d="M10.2428 20.9448H9.58105V20.5742H11.3347V20.9448H10.673V22.9301H10.2693L10.2428 20.9448Z" fill="#B3B3B3"/>
<path d="M11.9122 22.3477L11.7269 22.9566H11.3232L12.071 20.5742H12.5806L13.3549 22.9566H12.9313L12.7328 22.3477H11.9122ZM12.6402 21.9772C12.4681 21.4345 12.3622 21.1102 12.3159 20.9051C12.2629 21.1301 12.1504 21.5139 12.0115 21.9772H12.6402Z" fill="#B3B3B3"/>
<path d="M13.8462 22.9566V20.5742H14.3624C14.6469 21.1169 15.2028 22.1558 15.3087 22.4139C15.3087 22.1492 15.3087 21.7522 15.3087 21.3551V20.5742H15.6793V22.9566H15.1962C14.9447 22.4735 14.3359 21.3088 14.2234 21.0375C14.2234 21.2691 14.2234 21.6992 14.2234 22.1558V22.9566H13.8462Z" fill="#B3B3B3"/>
<path d="M16.3486 20.5742H16.7523V21.6727L17.6788 20.5742H18.1685L17.2817 21.5735L18.2082 22.9566H17.7185L16.9972 21.8382L16.7523 22.0897V22.9367H16.3486V20.5742Z" fill="#B3B3B3"/>
<path d="M36.1845 10.6543H33.7095V13.1293H36.1845V10.6543Z" fill="#CCCCCC"/>
</svg>
