<svg width="109" height="45" viewBox="0 0 109 45" fill="none" xmlns="http://www.w3.org/2000/svg">
<path d="M22.0667 12.5737H24.8262V16.7296H29.9615V12.5737H32.7211V23.2281H29.9615V18.5958H24.8262V23.2281H22.0667V12.5737Z" fill="#CCCCCC"/>
<path d="M38.5224 12.5737V23.2281H35.7363V12.5737H38.5224Z" fill="#CCCCCC"/>
<path d="M44.1018 14.4928H40.2239V12.5737H50.7261V14.4928H46.8614V23.2546H44.1018V14.4928Z" fill="#CCCCCC"/>
<path d="M53.6612 20.7928L52.662 23.2546H49.9487L54.2634 12.5737H57.7311L62.2509 23.2281H59.3723L58.32 20.7664L53.6612 20.7928ZM57.7245 18.9068C56.8178 16.6568 56.2421 15.2208 55.9377 14.2745C55.6201 15.3201 54.9848 16.9943 54.2568 18.9068H57.7245Z" fill="#CCCCCC"/>
<path d="M74.6287 19.9715C74.1192 21.9568 72.3258 23.4061 69.1295 23.4061C65.0795 23.4061 63.1736 21.0171 63.1736 17.9862C63.1736 15.0679 65.1589 12.4473 69.2684 12.4473C72.6633 12.4473 74.3111 14.1149 74.6221 15.8951H71.8626C71.5978 15.0745 70.9162 14.2539 69.2155 14.2539C66.939 14.2539 66.0589 15.9612 66.0589 17.9002C66.0589 19.7002 66.8199 21.5995 69.2883 21.5995C71.0883 21.5995 71.6574 20.5936 71.8956 19.9715H74.6287Z" fill="#CCCCCC"/>
<path d="M77.1016 12.5737H79.8611V16.7296H84.9964V12.5737H87.756V23.2281H84.9964V18.5958H79.8611V23.2281H77.1016V12.5737Z" fill="#CCCCCC"/>
<path d="M93.5618 12.5737V23.2281H90.8022V12.5737H93.5618Z" fill="#CCCCCC"/>
<path d="M20.4861 32.3608H19.3939C19.4514 31.1192 19.4802 29.8085 19.4802 28.4289C19.4802 27.0723 19.4514 25.8881 19.3939 24.8764H20.4861C20.4325 25.9226 20.4057 27.1068 20.4057 28.4289C20.4057 29.8162 20.4325 31.1268 20.4861 32.3608ZM27.1946 32.3608H26.1483C26.2327 31.3529 26.2748 30.2531 26.2748 29.0612C26.2748 28.4711 26.1541 28.0687 25.9127 27.8541C25.6751 27.6356 25.334 27.5264 24.8894 27.5264C24.3453 27.5264 23.8432 27.7238 23.3834 28.1185C23.3834 29.4253 23.391 30.8394 23.4063 32.3608H22.3601C22.4253 31.0579 22.4579 30.1151 22.4579 29.5326C22.4579 28.6359 22.3735 27.7659 22.2049 26.9228L23.2166 26.7791L23.3259 27.4804H23.3719C23.939 26.9669 24.5465 26.7101 25.1941 26.7101C25.8303 26.7101 26.3227 26.8519 26.6715 27.1355C27.0202 27.4153 27.1946 27.9154 27.1946 28.6359C27.1946 28.7087 27.1907 28.8524 27.1831 29.067C27.1754 29.2816 27.1716 29.4253 27.1716 29.4981C27.1716 30.1381 27.1792 31.0924 27.1946 32.3608ZM32.3567 30.803C32.3567 31.922 31.6419 32.4816 30.2125 32.4816C29.5802 32.4816 28.99 32.4183 28.442 32.2919L28.6202 31.4468C29.1184 31.6385 29.6587 31.7343 30.2412 31.7343C31.0767 31.7343 31.4944 31.4967 31.4944 31.0215C31.4944 30.7915 31.4005 30.6095 31.2127 30.4754C31.0288 30.3374 30.7222 30.1841 30.293 30.0155C29.7488 29.8009 29.3541 29.5939 29.1088 29.3946C28.7486 29.0996 28.5684 28.7432 28.5684 28.3254C28.5684 27.8886 28.7332 27.5149 29.0628 27.2045C29.3924 26.8902 29.8944 26.7331 30.5689 26.7331C31.228 26.7331 31.7569 26.7887 32.1555 26.8998L31.9773 27.7276C31.5634 27.5628 31.0843 27.4804 30.5402 27.4804C29.8044 27.4804 29.4365 27.6931 29.4365 28.1185C29.4365 28.3331 29.5188 28.5075 29.6836 28.6416C29.8484 28.7719 30.1703 28.9309 30.6494 29.1187C31.1667 29.3218 31.55 29.5211 31.7991 29.7166C32.1708 30.0193 32.3567 30.3815 32.3567 30.803ZM38.8524 29.4061C38.8524 30.2339 38.6148 30.9601 38.1396 31.5848C37.6682 32.2056 37.011 32.516 36.1679 32.516C35.4627 32.516 34.999 32.3896 34.7767 32.1367H34.7193C34.7193 33.202 34.7308 34.1524 34.7538 34.9879H33.6731C33.7612 33.9685 33.8053 32.7096 33.8053 31.2112C33.8053 29.364 33.7095 27.9345 33.5178 26.9228L34.5296 26.7791L34.6158 27.3482H34.6733C35.045 26.9152 35.6467 26.6986 36.4783 26.6986C37.2103 26.6986 37.7889 26.9669 38.2143 27.5034C38.6397 28.0361 38.8524 28.6703 38.8524 29.4061ZM37.8292 29.5441C37.8292 28.9769 37.6797 28.4921 37.3808 28.0898C37.0819 27.6835 36.6622 27.4804 36.1219 27.4804C35.4321 27.4804 34.9377 27.6893 34.6388 28.107C34.7001 29.3946 34.7308 30.5003 34.7308 31.4238C35.0412 31.6844 35.4455 31.8147 35.9437 31.8147C36.576 31.8147 37.0474 31.5925 37.3578 31.1479C37.672 30.7034 37.8292 30.1688 37.8292 29.5441ZM41.2207 32.3608H40.1803C40.2339 31.5944 40.2608 30.7187 40.2608 29.7338C40.2608 28.6263 40.1937 27.6969 40.0596 26.9458L41.2092 26.7906C41.1633 27.5916 41.1403 28.5726 41.1403 29.7338C41.1403 30.6536 41.1671 31.5292 41.2207 32.3608ZM41.4622 25.1753C41.4622 25.3707 41.3989 25.5413 41.2725 25.6869C41.146 25.8287 40.9678 25.8996 40.7379 25.8996C40.5424 25.8996 40.3891 25.8383 40.278 25.7156C40.1707 25.5892 40.117 25.4378 40.117 25.2615C40.117 25.0699 40.1822 24.9032 40.3125 24.7614C40.4428 24.6196 40.6229 24.5487 40.8528 24.5487C41.0406 24.5487 41.1882 24.6119 41.2955 24.7384C41.4066 24.861 41.4622 25.0067 41.4622 25.1753ZM46.2161 26.8998L45.9575 27.8138C45.6585 27.695 45.3807 27.6356 45.1239 27.6356C44.4035 27.6356 43.9359 27.9786 43.7213 28.6646C43.7213 30.4274 43.7328 31.6595 43.7558 32.3608H42.7383C42.7996 31.146 42.8303 30.2033 42.8303 29.5326C42.8303 28.6244 42.7402 27.7544 42.5601 26.9228L43.5661 26.7791C43.6389 27.2007 43.6753 27.4823 43.6753 27.6241H43.7213C44.1352 27.0148 44.6181 26.7101 45.1699 26.7101C45.4612 26.7101 45.8099 26.7734 46.2161 26.8998ZM51.6312 28.9865C51.6312 29.1475 51.6235 29.3697 51.6082 29.6533L47.659 29.7223C47.6973 30.2818 47.9138 30.7513 48.3086 31.1307C48.7033 31.5062 49.2264 31.694 49.8779 31.694C50.4604 31.694 51.0065 31.6231 51.5162 31.4813L51.4185 32.2919C51.0429 32.4413 50.5006 32.516 49.7917 32.516C48.7953 32.516 48.0346 32.244 47.5095 31.6998C46.9883 31.1556 46.7277 30.4926 46.7277 29.7108C46.7277 28.8754 46.9653 28.1568 47.4406 27.5551C47.9196 26.9496 48.5615 26.6469 49.3663 26.6469C50.1059 26.6469 50.6673 26.8653 51.0506 27.3022C51.4376 27.7391 51.6312 28.3005 51.6312 28.9865ZM50.6712 28.998C50.6712 27.9211 50.2209 27.3827 49.3203 27.3827C48.4005 27.3827 47.8583 27.9422 47.6935 29.0612L50.6712 28.998ZM58.6672 31.5676L58.5983 32.3149C58.2955 32.426 58.01 32.4816 57.7417 32.4816C57.0519 32.4816 56.5806 32.3072 56.3276 31.9584C56.0747 31.6059 55.9482 30.9774 55.9482 30.073C55.9482 29.4866 55.9521 28.7221 55.9597 27.7793C55.7451 27.7793 55.429 27.7908 55.0112 27.8138L55.0457 26.9803C55.4098 27.0033 55.7355 27.0148 56.023 27.0148C56.023 26.7849 56.0421 26.2388 56.0804 25.3765L56.983 25.2845C56.9178 26.0893 56.8852 26.6661 56.8852 27.0148C57.2608 27.0148 57.8126 26.9956 58.5408 26.9573L58.5005 27.8138C57.8107 27.7908 57.257 27.7793 56.8392 27.7793C56.8316 28.358 56.8277 29.0095 56.8277 29.7338C56.8277 30.5233 56.9101 31.0464 57.0749 31.3031C57.2435 31.5561 57.554 31.6825 58.0062 31.6825C58.1556 31.6825 58.376 31.6442 58.6672 31.5676ZM64.6169 32.3608H63.5707C63.655 31.3529 63.6971 30.2684 63.6971 29.1072C63.6971 28.4864 63.5802 28.0687 63.3465 27.8541C63.1165 27.6356 62.7965 27.5264 62.3865 27.5264C61.8116 27.5264 61.2732 27.7238 60.7712 28.1185C60.7712 30.2109 60.7865 31.625 60.8172 32.3608H59.8054C59.8399 31.3491 59.8572 29.9197 59.8572 28.0725C59.8572 26.4553 59.8016 25.1887 59.6905 24.2728L60.7827 24.2153C60.752 25.3842 60.7367 26.4687 60.7367 27.4689H60.7712C61.346 26.9631 61.9764 26.7101 62.6624 26.7101C63.2756 26.7101 63.7546 26.8538 64.0995 27.1413C64.4444 27.4249 64.6169 27.925 64.6169 28.6416C64.6169 28.7144 64.613 28.8581 64.6054 29.0727C64.5977 29.2835 64.5939 29.4694 64.5939 29.6303C64.5939 30.1822 64.6015 31.0924 64.6169 32.3608ZM70.8424 28.9865C70.8424 29.1475 70.8348 29.3697 70.8194 29.6533L66.8703 29.7223C66.9086 30.2818 67.1251 30.7513 67.5198 31.1307C67.9146 31.5062 68.4377 31.694 69.0892 31.694C69.6717 31.694 70.2178 31.6231 70.7275 31.4813L70.6297 32.2919C70.2542 32.4413 69.7119 32.516 69.0029 32.516C68.0065 32.516 67.2458 32.244 66.7208 31.6998C66.1996 31.1556 65.939 30.4926 65.939 29.7108C65.939 28.8754 66.1766 28.1568 66.6518 27.5551C67.1309 26.9496 67.7728 26.6469 68.5775 26.6469C69.3172 26.6469 69.8786 26.8653 70.2618 27.3022C70.6489 27.7391 70.8424 28.3005 70.8424 28.9865ZM69.8824 28.998C69.8824 27.9211 69.4321 27.3827 68.5316 27.3827C67.6118 27.3827 67.0695 27.9422 66.9048 29.0612L69.8824 28.998ZM80.8217 32.3608H80.0169C80.0169 32.2957 79.3884 31.3779 78.1314 29.6073C76.817 27.7487 76.0678 26.576 75.8838 26.0893H75.8263C75.8953 27.0129 75.9298 27.8042 75.9298 28.4634C75.9298 29.7511 75.9585 31.0502 76.016 32.3608H75.0503C75.1154 31.1153 75.148 29.8047 75.148 28.4289C75.148 27.0761 75.1154 25.8919 75.0503 24.8764H76.154C76.154 24.9837 76.7327 25.8574 77.89 27.4977C79.101 29.2222 79.7908 30.3451 79.9595 30.8662H80.0169C79.9518 29.9312 79.9192 29.1379 79.9192 28.4864C79.9192 27.0684 79.8924 25.8651 79.8387 24.8764H80.8217C80.7566 25.8919 80.724 27.0761 80.724 28.4289C80.724 29.8047 80.7566 31.1153 80.8217 32.3608ZM87.3749 28.9865C87.3749 29.1475 87.3673 29.3697 87.3519 29.6533L83.4028 29.7223C83.4411 30.2818 83.6576 30.7513 84.0523 31.1307C84.4471 31.5062 84.9702 31.694 85.6217 31.694C86.2042 31.694 86.7503 31.6231 87.26 31.4813L87.1622 32.2919C86.7867 32.4413 86.2444 32.516 85.5354 32.516C84.539 32.516 83.7783 32.244 83.2533 31.6998C82.7321 31.1556 82.4715 30.4926 82.4715 29.7108C82.4715 28.8754 82.7091 28.1568 83.1843 27.5551C83.6634 26.9496 84.3053 26.6469 85.11 26.6469C85.8497 26.6469 86.4111 26.8653 86.7943 27.3022C87.1814 27.7391 87.3749 28.3005 87.3749 28.9865ZM86.4149 28.998C86.4149 27.9211 85.9646 27.3827 85.0641 27.3827C84.1443 27.3827 83.602 27.9422 83.4373 29.0612L86.4149 28.998ZM93.566 32.3608H92.3186C92.3186 32.265 92.1346 31.9393 91.7667 31.3836C91.3988 30.8279 91.075 30.3623 90.7953 29.9867H90.7493C90.5538 30.255 90.2836 30.69 89.9387 31.2916C89.5938 31.8895 89.4214 32.2459 89.4214 32.3608H88.2659C88.2659 32.2497 88.5399 31.8282 89.088 31.0962C89.636 30.3642 90.0786 29.82 90.4159 29.4636V29.4176C90.1629 29.1379 89.7835 28.6665 89.2777 28.0035C88.7718 27.3367 88.5189 26.9688 88.5189 26.8998H89.749C89.749 26.9918 89.9023 27.2869 90.2089 27.7851C90.5193 28.2833 90.778 28.6646 90.9849 28.929H91.0367C91.2245 28.7029 91.4678 28.3331 91.7667 27.8196C92.0695 27.306 92.2209 26.9995 92.2209 26.8998H93.3131C93.3131 26.965 93.0525 27.3386 92.5313 28.0208C92.0139 28.6991 91.6422 29.1513 91.4161 29.3774V29.4406C91.7418 29.82 92.1806 30.3795 92.7325 31.1192C93.2882 31.8588 93.566 32.2727 93.566 32.3608ZM97.7911 31.5676L97.7221 32.3149C97.4194 32.426 97.1339 32.4816 96.8656 32.4816C96.1758 32.4816 95.7044 32.3072 95.4515 31.9584C95.1985 31.6059 95.0721 30.9774 95.0721 30.073C95.0721 29.4866 95.0759 28.7221 95.0836 27.7793C94.869 27.7793 94.5528 27.7908 94.1351 27.8138L94.1696 26.9803C94.5336 27.0033 94.8594 27.0148 95.1468 27.0148C95.1468 26.7849 95.166 26.2388 95.2043 25.3765L96.1068 25.2845C96.0417 26.0893 96.0091 26.6661 96.0091 27.0148C96.3846 27.0148 96.9365 26.9956 97.6646 26.9573L97.6244 27.8138C96.9346 27.7908 96.3808 27.7793 95.9631 27.7793C95.9554 28.358 95.9516 29.0095 95.9516 29.7338C95.9516 30.5233 96.034 31.0464 96.1988 31.3031C96.3674 31.5561 96.6778 31.6825 97.13 31.6825C97.2795 31.6825 97.4998 31.6442 97.7911 31.5676Z" fill="#CCCCCC"/>
</svg>
