<svg width="109" height="45" viewBox="0 0 109 45" fill="none" xmlns="http://www.w3.org/2000/svg">
<path d="M96.4273 3.28223H13.0449V41.7175H96.4273V3.28223Z" fill="#CCCCCC"/>
<path d="M88.3274 13.3085L88.2877 9.33789L72.0612 9.54304L63.6436 14.3872L17.0156 14.2879V32.4269L63.4583 32.2217L73.3847 36.4769L88.6053 36.3776C88.5259 28.6967 88.4333 21.007 88.3274 13.3085Z" stroke="#F8F9FA" stroke-width="0.330882" stroke-miterlimit="10"/>
<path d="M92.4628 6.57812H88.3003V38.8193H92.4628V6.57812Z" stroke="#F8F9FA" stroke-width="0.330882" stroke-miterlimit="10"/>
<path d="M20.7109 27.3687V15.8087H22.1107V20.9565H28.2745V15.8087H29.6743V27.3687H28.2745V22.1983H22.1107V27.3687H20.7109ZM42.2305 21.5887C42.2305 22.8079 42.0103 23.8615 41.5701 24.7496C41.1298 25.6377 40.5258 26.3225 39.7582 26.8042C38.9905 27.2859 38.1138 27.5267 37.1279 27.5267C36.1419 27.5267 35.2652 27.2859 34.4975 26.8042C33.7299 26.3225 33.1259 25.6377 32.6856 24.7496C32.2454 23.8615 32.0252 22.8079 32.0252 21.5887C32.0252 20.3695 32.2454 19.3159 32.6856 18.4278C33.1259 17.5397 33.7299 16.8549 34.4975 16.3732C35.2652 15.8915 36.1419 15.6507 37.1279 15.6507C38.1138 15.6507 38.9905 15.8915 39.7582 16.3732C40.5258 16.8549 41.1298 17.5397 41.5701 18.4278C42.0103 19.3159 42.2305 20.3695 42.2305 21.5887ZM40.8758 21.5887C40.8758 20.5877 40.7083 19.743 40.3734 19.0543C40.0423 18.3657 39.5926 17.8445 39.0244 17.4908C38.46 17.1371 37.8278 16.9602 37.1279 16.9602C36.4279 16.9602 35.7939 17.1371 35.2257 17.4908C34.6612 17.8445 34.2115 18.3657 33.8766 19.0543C33.5455 19.743 33.3799 20.5877 33.3799 21.5887C33.3799 22.5897 33.5455 23.4344 33.8766 24.1231C34.2115 24.8117 34.6612 25.3329 35.2257 25.6866C35.7939 26.0403 36.4279 26.2172 37.1279 26.2172C37.8278 26.2172 38.46 26.0403 39.0244 25.6866C39.5926 25.3329 40.0423 24.8117 40.3734 24.1231C40.7083 23.4344 40.8758 22.5897 40.8758 21.5887ZM44.5842 27.3687V15.8087H48.4902C49.3933 15.8087 50.1346 15.963 50.7141 16.2716C51.2936 16.5764 51.7226 16.996 52.0011 17.5303C52.2795 18.0647 52.4188 18.6724 52.4188 19.3535C52.4188 20.0346 52.2795 20.6385 52.0011 21.1654C51.7226 21.6922 51.2955 22.1061 50.7198 22.4071C50.144 22.7044 49.4084 22.8531 48.5128 22.8531H45.3519V21.5887H48.4676C49.0848 21.5887 49.5815 21.4984 49.9578 21.3178C50.3378 21.1371 50.6125 20.8813 50.7819 20.5501C50.955 20.2152 51.0415 19.8163 51.0415 19.3535C51.0415 18.8906 50.955 18.4861 50.7819 18.1399C50.6088 17.7937 50.3322 17.5266 49.9521 17.3384C49.5721 17.1465 49.0697 17.0505 48.445 17.0505H45.984V27.3687H44.5842ZM50.0255 22.1757L52.8703 27.3687H51.2447L48.445 22.1757H50.0255ZM64.505 21.5887C64.505 22.8079 64.2849 23.8615 63.8446 24.7496C63.4043 25.6377 62.8004 26.3225 62.0327 26.8042C61.2651 27.2859 60.3883 27.5267 59.4024 27.5267C58.4165 27.5267 57.5397 27.2859 56.7721 26.8042C56.0044 26.3225 55.4005 25.6377 54.9602 24.7496C54.5199 23.8615 54.2998 22.8079 54.2998 21.5887C54.2998 20.3695 54.5199 19.3159 54.9602 18.4278C55.4005 17.5397 56.0044 16.8549 56.7721 16.3732C57.5397 15.8915 58.4165 15.6507 59.4024 15.6507C60.3883 15.6507 61.2651 15.8915 62.0327 16.3732C62.8004 16.8549 63.4043 17.5397 63.8446 18.4278C64.2849 19.3159 64.505 20.3695 64.505 21.5887ZM63.1503 21.5887C63.1503 20.5877 62.9829 19.743 62.648 19.0543C62.3168 18.3657 61.8672 17.8445 61.2989 17.4908C60.7345 17.1371 60.1023 16.9602 59.4024 16.9602C58.7025 16.9602 58.0684 17.1371 57.5002 17.4908C56.9358 17.8445 56.4861 18.3657 56.1512 19.0543C55.82 19.743 55.6545 20.5877 55.6545 21.5887C55.6545 22.5897 55.82 23.4344 56.1512 24.1231C56.4861 24.8117 56.9358 25.3329 57.5002 25.6866C58.0684 26.0403 58.7025 26.2172 59.4024 26.2172C60.1023 26.2172 60.7345 26.0403 61.2989 25.6866C61.8672 25.3329 62.3168 24.8117 62.648 24.1231C62.9829 23.4344 63.1503 22.5897 63.1503 21.5887ZM66.8588 27.3687V15.8087H70.9002C71.7055 15.8087 72.3697 15.948 72.8927 16.2264C73.4158 16.5011 73.8052 16.8718 74.0611 17.3384C74.317 17.8012 74.445 18.3149 74.445 18.8793C74.445 19.3761 74.3565 19.7862 74.1797 20.1098C74.0066 20.4335 73.777 20.6893 73.491 20.8775C73.2088 21.0656 72.9021 21.2049 72.571 21.2952V21.4081C72.9247 21.4307 73.2803 21.5548 73.6378 21.7806C73.9953 22.0064 74.2944 22.33 74.5353 22.7515C74.7761 23.1729 74.8965 23.6884 74.8965 24.2981C74.8965 24.8776 74.7648 25.3987 74.5014 25.8616C74.238 26.3244 73.8222 26.6913 73.254 26.9622C72.6858 27.2332 71.9463 27.3687 71.0357 27.3687H66.8588ZM68.2586 26.1269H71.0357C71.9501 26.1269 72.5992 25.95 72.983 25.5963C73.3706 25.2388 73.5644 24.8061 73.5644 24.2981C73.5644 23.9067 73.4647 23.5455 73.2653 23.2143C73.0658 22.8794 72.7817 22.6122 72.4129 22.4128C72.0442 22.2096 71.6077 22.108 71.1034 22.108H68.2586V26.1269ZM68.2586 20.8888H70.8551C71.2765 20.8888 71.6566 20.806 71.9952 20.6404C72.3377 20.4749 72.6086 20.2415 72.8081 19.9405C73.0113 19.6395 73.1129 19.2857 73.1129 18.8793C73.1129 18.3713 72.936 17.9405 72.5823 17.5868C72.2286 17.2293 71.6679 17.0505 70.9002 17.0505H68.2586V20.8888ZM78.5965 15.8087V27.3687H77.1966V15.8087H78.5965ZM90.5698 15.8087V27.3687H89.2152L82.9159 18.2923H82.803V27.3687H81.4032V15.8087H82.7579L89.0797 24.9077H89.1926V15.8087H90.5698Z" fill="white"/>
</svg>
