<svg width="110" height="45" viewBox="0 0 110 45" fill="none" xmlns="http://www.w3.org/2000/svg">
<path d="M22.1244 28.2043L21.2906 29.0447C21.284 29.0438 21.2773 29.0443 21.2709 29.0462C21.2644 29.0481 21.2585 29.0513 21.2535 29.0557C21.2485 29.0601 21.2444 29.0656 21.2417 29.0717C21.239 29.0778 21.2376 29.0844 21.2377 29.0911C20.3607 29.8679 19.3304 30.4518 18.2134 30.805C16.7034 31.2592 15.0961 31.2798 13.575 30.8644C12.0538 30.449 10.6801 29.6144 9.61047 28.4558C9.37345 28.2592 9.22176 27.9785 9.18721 27.6725C9.15267 27.3665 9.23795 27.0591 9.42518 26.8146C9.52694 26.6918 9.6531 26.5915 9.79566 26.52C9.93822 26.4486 10.0941 26.4075 10.2533 26.3994C10.4126 26.3913 10.5718 26.4164 10.7209 26.4731C10.8699 26.5297 11.0056 26.6167 11.1193 26.7286C11.5527 27.2346 12.0644 27.668 12.6347 28.0124C13.5199 28.5549 14.5329 28.8536 15.5708 28.878C16.6087 28.9024 17.6346 28.6517 18.5443 28.1514C19.4056 27.7146 20.1479 27.075 20.707 26.2876C21.2661 25.5002 21.6254 24.5887 21.7539 23.6315C22.0084 22.3946 21.8801 21.1094 21.3859 19.9473C20.8917 18.7851 20.0552 17.8011 18.9877 17.1264C17.8812 16.3642 16.5383 16.0238 15.2024 16.1668C13.8826 16.2936 12.6399 16.8465 11.6619 17.7418C11.5393 17.8805 11.3899 17.993 11.2228 18.0726C11.0556 18.1522 10.8741 18.1972 10.6892 18.205C10.4724 18.206 10.2601 18.1439 10.078 18.0264C9.89594 17.909 9.75189 17.7411 9.66342 17.5433C9.55678 17.3402 9.5185 17.1082 9.55427 16.8817C9.59003 16.6552 9.69794 16.4462 9.86195 16.2859C10.5147 15.6366 11.2705 15.0999 12.0987 14.6977C13.8427 13.8105 15.8528 13.5984 17.7436 14.1021C19.3977 14.5379 20.8843 15.457 22.0136 16.7418C23.1428 18.0266 23.8634 19.619 24.0833 21.3153C24.2538 22.4801 24.1857 23.6674 23.8831 24.805C23.5805 25.9427 23.0497 27.0069 22.323 27.933C22.323 27.9727 22.2634 28.019 22.2237 28.0653L22.1244 28.2043Z" fill="#CCCCCC"/>
<path d="M8.21424 28.2774C8.41176 28.4279 8.55699 28.6366 8.62943 28.8741C8.70186 29.1116 8.69784 29.3659 8.61792 29.601C8.5397 29.7877 8.41968 29.954 8.2671 30.0871C8.11451 30.2202 7.93342 30.3165 7.73777 30.3686C7.37536 30.4055 7.01215 30.3065 6.71866 30.0907C5.97472 29.4782 5.34514 28.7389 4.8591 27.9068C4.43564 27.179 4.09386 26.4067 3.83998 25.6039C3.7341 25.0679 3.6216 24.5385 3.51572 23.9958C3.5125 23.9805 3.5125 23.9648 3.51572 23.9495C3.44365 23.0686 3.44365 22.1833 3.51572 21.3024C3.51886 21.2672 3.51886 21.2318 3.51572 21.1965C3.61498 20.7201 3.70763 20.2502 3.80689 19.7737H3.83998C3.83888 19.7517 3.83888 19.7296 3.83998 19.7076C3.84463 19.6995 3.84707 19.6904 3.84707 19.6811C3.84707 19.6718 3.84463 19.6627 3.83998 19.6546C3.92417 19.4386 3.99489 19.2176 4.05174 18.9929C4.34059 18.2387 4.71353 17.5194 5.16351 16.8487C5.68285 16.0672 6.33189 15.3801 7.08263 14.8171C7.31957 14.6241 7.6235 14.533 7.92755 14.5641C8.23161 14.5951 8.51089 14.7456 8.70395 14.9826C8.89701 15.2195 8.98804 15.5234 8.95702 15.8275C8.92599 16.1316 8.77545 16.4108 8.53851 16.6039C7.89205 17.154 7.33796 17.8041 6.89733 18.5296C5.83153 20.3754 5.52315 22.5626 6.03704 24.6311C6.35508 26.0477 7.118 27.3255 8.21424 28.2774Z" fill="#CCCCCC"/>
<path d="M21.2415 29.1176C21.2415 29.0845 21.2415 29.0713 21.2944 29.0713L21.2415 29.1176Z" fill="#CCCCCC"/>
<path d="M63.0979 19.1445H63.9913V20.0181H63.0979V19.1445ZM63.0979 20.7063H63.9913V24.3989H63.0979V20.7063Z" fill="#CCCCCC"/>
<path d="M65.3831 21.6394C65.3831 21.3218 65.3831 20.9777 65.3831 20.7063H66.2434C66.2434 20.8056 66.2434 21.11 66.2831 21.2225C66.3865 21.0251 66.546 20.8627 66.7414 20.7555C66.9368 20.6484 67.1595 20.6014 67.3816 20.6203C68.1029 20.6203 68.6059 21.0968 68.6059 22.0431V24.399H67.7125V22.1424C67.7125 21.6791 67.547 21.3549 67.0507 21.3549C66.5544 21.3549 66.2698 21.6924 66.2698 22.374V24.399H65.3831V21.6394Z" fill="#CCCCCC"/>
<path d="M69.4976 20.7069H70.0932V19.6812H70.9866V20.7069H71.741V21.3687H70.9866V23.301C70.9866 23.6054 71.0726 23.7444 71.3837 23.7444C71.4718 23.7503 71.5602 23.7503 71.6484 23.7444V24.4062C71.4327 24.4633 71.2093 24.4856 70.9866 24.4723C70.3248 24.4723 70.0734 24.1216 70.0734 23.4863V21.3951H69.4778L69.4976 20.7069Z" fill="#CCCCCC"/>
<path d="M73.3261 22.7381C73.3261 23.294 73.6106 23.7771 74.1599 23.7771C74.3157 23.8 74.4746 23.7667 74.6081 23.683C74.7415 23.5993 74.8407 23.4707 74.8878 23.3205H75.7812C75.6844 23.6809 75.4633 23.9956 75.1569 24.2087C74.8505 24.4219 74.4786 24.5198 74.107 24.4852C73.8663 24.4886 73.6276 24.4407 73.4069 24.3446C73.1861 24.2486 72.9884 24.1066 72.8269 23.9282C72.6653 23.7497 72.5436 23.5389 72.47 23.3097C72.3963 23.0805 72.3723 22.8383 72.3996 22.5991C72.3996 21.4609 72.9819 20.6138 74.1467 20.6138C74.3797 20.6055 74.6118 20.6477 74.827 20.7376C75.0422 20.8275 75.2354 20.9629 75.3932 21.1346C75.5511 21.3063 75.6698 21.5101 75.7414 21.7321C75.8129 21.9541 75.8356 22.1889 75.8077 22.4204C75.8146 22.524 75.8146 22.6279 75.8077 22.7315L73.3261 22.7381ZM74.9342 22.169C74.9342 21.6793 74.7092 21.2756 74.1665 21.2756C73.6239 21.2756 73.3989 21.6528 73.3525 22.169H74.9342Z" fill="#CCCCCC"/>
<path d="M76.9166 21.7056C76.9166 21.2886 76.9166 20.9776 76.9166 20.7063H77.7901C77.7901 20.7989 77.7901 21.1364 77.7901 21.3681C77.8841 21.1307 78.0503 20.9289 78.2652 20.7911C78.4802 20.6534 78.733 20.5866 78.9879 20.6004V21.4607C78.2467 21.4607 77.7901 21.7188 77.7901 22.7048V24.3791H76.8967L76.9166 21.7056Z" fill="#CCCCCC"/>
<path d="M80.037 21.6394C80.037 21.3218 80.037 20.9777 80.037 20.7063H80.9039C80.9142 20.8782 80.9142 21.0506 80.9039 21.2225C81.0074 21.0251 81.1668 20.8627 81.3622 20.7555C81.5577 20.6484 81.7804 20.6014 82.0024 20.6203C82.7304 20.6203 83.2333 21.0968 83.2333 22.0431V24.399H82.3399V22.1424C82.3399 21.6791 82.1745 21.3549 81.6782 21.3549C81.1819 21.3549 80.8973 21.6924 80.8973 22.374V24.399H80.0039L80.037 21.6394Z" fill="#CCCCCC"/>
<path d="M87.5252 23.4928C87.5249 23.7958 87.5425 24.0986 87.5781 24.3994H86.7245C86.6899 24.2677 86.6721 24.132 86.6715 23.9958C86.5567 24.1697 86.3953 24.3078 86.2057 24.3944C86.0162 24.481 85.8061 24.5125 85.5995 24.4855C85.439 24.5035 85.2765 24.4869 85.1229 24.4369C84.9693 24.3868 84.8283 24.3045 84.7091 24.1954C84.59 24.0864 84.4957 23.953 84.4324 23.8045C84.369 23.6559 84.3383 23.4955 84.3421 23.334C84.3421 22.5002 85.0039 22.1164 86.0958 22.1164H86.6517V21.8384C86.6517 21.5539 86.559 21.2494 85.9899 21.2494C85.4208 21.2494 85.4009 21.4744 85.3281 21.7458H84.4745C84.5274 21.1369 84.9046 20.5877 86.0031 20.5943C86.9627 20.5943 87.4855 20.9781 87.4855 21.845L87.5252 23.4928ZM86.6583 22.6789H86.1818C85.5201 22.6789 85.2421 22.8708 85.2421 23.2811C85.2387 23.3575 85.252 23.4338 85.281 23.5047C85.31 23.5756 85.354 23.6393 85.4099 23.6915C85.4659 23.7437 85.5326 23.7832 85.6053 23.8071C85.678 23.8311 85.755 23.839 85.8311 23.8303C86.5656 23.8303 86.6583 23.334 86.6583 22.7847V22.6789Z" fill="#CCCCCC"/>
<path d="M88.4303 20.7069H89.0192V19.6812H89.9126V20.7069H90.667V21.3687H89.9126V23.301C89.9126 23.6054 89.9986 23.7444 90.3097 23.7444C90.3978 23.7505 90.4862 23.7505 90.5744 23.7444V24.4062C90.3588 24.4636 90.1353 24.4859 89.9126 24.4723C89.2508 24.4723 88.9994 24.1216 88.9994 23.4863V21.3951H88.4104L88.4303 20.7069Z" fill="#CCCCCC"/>
<path d="M91.6108 19.1445H92.5175V20.0181H91.6241L91.6108 19.1445ZM91.6108 20.7063H92.5175V24.3989H91.6241L91.6108 20.7063Z" fill="#CCCCCC"/>
<path d="M97.1485 22.5465C97.1633 22.7907 97.128 23.0354 97.0448 23.2655C96.9616 23.4956 96.8321 23.7062 96.6644 23.8844C96.4968 24.0626 96.2944 24.2046 96.0698 24.3016C95.8452 24.3987 95.6031 24.4488 95.3584 24.4488C95.1137 24.4488 94.8716 24.3987 94.647 24.3016C94.4224 24.2046 94.22 24.0626 94.0524 23.8844C93.8847 23.7062 93.7552 23.4956 93.672 23.2655C93.5887 23.0354 93.5535 22.7907 93.5683 22.5465C93.5436 22.2959 93.5728 22.0429 93.6539 21.8045C93.735 21.5661 93.8661 21.3478 94.0384 21.1642C94.2107 20.9806 94.4203 20.8359 94.6531 20.7399C94.8859 20.6439 95.1365 20.5988 95.3882 20.6075C95.6361 20.6031 95.8821 20.6516 96.1097 20.75C96.3374 20.8483 96.5414 20.9942 96.708 21.1778C96.8747 21.3614 97.0002 21.5785 97.0762 21.8145C97.1521 22.0506 97.1768 22.3001 97.1485 22.5465ZM94.5014 22.5465C94.5014 23.2877 94.8389 23.7707 95.3882 23.7707C95.9374 23.7707 96.2617 23.3009 96.2617 22.5531C96.2617 21.8053 95.9441 21.3222 95.3749 21.3222C94.8058 21.3222 94.5014 21.7524 94.5014 22.5531V22.5465Z" fill="#CCCCCC"/>
<path d="M98.2749 21.6398C98.2749 21.3221 98.2749 20.978 98.2749 20.7067H99.1352C99.1565 20.8779 99.1676 21.0503 99.1683 21.2229C99.2735 21.0255 99.4343 20.8633 99.6307 20.7563C99.8271 20.6492 100.051 20.6021 100.273 20.6206C100.995 20.6206 101.498 21.0971 101.498 22.0434V24.3993H100.604V22.1427C100.604 21.6795 100.439 21.3552 99.9426 21.3552C99.4462 21.3552 99.1617 21.6927 99.1617 22.3743V24.3993H98.2749V21.6398Z" fill="#CCCCCC"/>
<path d="M105.751 23.4928C105.749 23.7957 105.765 24.0983 105.797 24.3994H104.943C104.912 24.2671 104.894 24.1318 104.89 23.9958C104.776 24.1697 104.614 24.3078 104.425 24.3944C104.235 24.481 104.025 24.5125 103.818 24.4855C103.658 24.5024 103.496 24.485 103.343 24.4346C103.19 24.3842 103.049 24.3018 102.93 24.1929C102.811 24.0841 102.717 23.9512 102.653 23.8031C102.59 23.6551 102.558 23.4952 102.561 23.334C102.561 22.5002 103.223 22.1164 104.315 22.1164H104.877V21.8384C104.877 21.5539 104.778 21.2494 104.215 21.2494C103.653 21.2494 103.626 21.4744 103.554 21.7458H102.7C102.753 21.1369 103.13 20.5877 104.229 20.5943C105.188 20.5943 105.718 20.9781 105.718 21.845L105.751 23.4928ZM104.877 22.6789H104.427C103.765 22.6789 103.487 22.8708 103.487 23.2811C103.485 23.3579 103.499 23.4343 103.529 23.5051C103.559 23.576 103.603 23.6396 103.66 23.6917C103.716 23.7438 103.783 23.7831 103.856 23.807C103.929 23.831 104.007 23.8389 104.083 23.8303C104.811 23.8303 104.904 23.334 104.904 22.7847L104.877 22.6789Z" fill="#CCCCCC"/>
<path d="M107.074 24.3989V19.1445H107.968V24.3989H107.074Z" fill="#CCCCCC"/>
<path d="M25.7393 16.5439H28.7834V19.2903H30.7687V16.5439H33.7731V24.2667H30.7621V21.3417H28.7768V24.2667H25.7393V16.5439Z" fill="#CCCCCC"/>
<path d="M37.1656 16.6768V21.7194C37.1578 21.8321 37.1742 21.9451 37.2136 22.0509C37.253 22.1568 37.3146 22.253 37.3941 22.3331C37.4736 22.4133 37.5694 22.4756 37.6749 22.5158C37.7804 22.556 37.8933 22.5733 38.006 22.5665C38.4163 22.5665 38.7538 22.5665 38.8332 21.6996L38.9126 16.6768H40.7391L41.7979 21.3091C41.7979 24.029 40.0641 24.6179 37.7942 24.6179C35.4185 24.6179 34.2803 23.5326 34.2803 21.2297V16.6768H37.1656Z" fill="#CCCCCC"/>
<path d="M42.7368 24.3067L41.0427 16.6038L43.6898 16.5111C43.9545 17.8942 44.1927 19.1582 44.603 21.0442C45.1854 19.1185 45.4368 18.2317 45.9265 16.5905H48.6265C49.103 18.2648 49.4736 19.2376 49.9898 21.0376C50.3074 19.7141 50.7839 17.8214 50.9957 16.478L53.5765 16.5707L51.3199 24.3067H48.4545C48.0111 22.9104 47.6074 21.1832 47.2104 19.6214C46.8464 21.0376 46.2442 22.8707 45.8868 24.3067H42.7368Z" fill="#CCCCCC"/>
<path d="M55.0085 22.6852L54.5585 24.3992H51.574L54.4857 16.458H58.2644L61.1563 24.3992H57.9666L57.5299 22.6984L55.0085 22.6852ZM57.1527 20.8058C56.9872 20.2102 56.5504 18.9926 56.3122 18.2845H56.246C56.0277 19.1845 55.6902 20.0911 55.5843 20.8058H57.1527Z" fill="#CCCCCC"/>
<path d="M26.1646 28.82V30.4413H25.7808V26.206H26.1514C26.1514 26.3185 26.1514 26.4972 26.1514 26.7222C26.2389 26.5374 26.3794 26.3828 26.5549 26.2779C26.7304 26.173 26.9332 26.1227 27.1374 26.1332C27.7991 26.1332 28.2889 26.7288 28.2889 27.642C28.2889 28.7273 27.733 29.3097 27.0381 29.3097C26.8606 29.322 26.6834 29.2822 26.5282 29.1952C26.3731 29.1082 26.2467 28.9778 26.1646 28.82ZM27.905 27.6619C27.905 27.0001 27.6006 26.4972 27.0646 26.4972C26.4028 26.4972 26.1447 26.9273 26.1447 27.7148C26.1447 28.5023 26.3366 28.9523 26.9984 28.9523C27.6602 28.9523 27.905 28.456 27.905 27.6619Z" fill="#CCCCCC"/>
<path d="M32.2173 24.8096H32.6011V25.425H32.2173V24.8096ZM32.2173 26.2059H32.6011V29.2368H32.2173V26.2059Z" fill="#CCCCCC"/>
<path d="M37.1404 28.8196V30.4409H36.7566V26.9468C36.7566 26.7019 36.7566 26.4372 36.7566 26.2056H37.1338C37.1338 26.3181 37.1338 26.4968 37.1338 26.7218C37.2195 26.537 37.3586 26.3821 37.5332 26.2771C37.7078 26.1721 37.9098 26.1219 38.1132 26.1328C38.775 26.1328 39.2713 26.7284 39.2713 27.6416C39.2713 28.7269 38.7154 29.3093 38.0139 29.3093C37.8363 29.3225 37.6588 29.2831 37.5034 29.196C37.3481 29.1089 37.2218 28.978 37.1404 28.8196ZM38.8742 27.6615C38.8742 26.9997 38.5698 26.4968 38.0338 26.4968C37.372 26.4968 37.1206 26.9269 37.1206 27.7144C37.1206 28.5019 37.3323 28.9519 38.0007 28.9519C38.5632 28.9519 38.8742 28.4556 38.8742 27.6615Z" fill="#CCCCCC"/>
<path d="M43.1831 29.2368V24.8096H43.5471V29.2368H43.1831Z" fill="#CCCCCC"/>
<path d="M47.6965 24.8096H48.0804V25.425H47.6965V24.8096ZM47.6965 26.2059H48.0804V29.2368H47.6965V26.2059Z" fill="#CCCCCC"/>
<path d="M52.2358 26.9735V26.2059H52.6064C52.6064 26.2985 52.6064 26.6625 52.6064 26.7485C52.6728 26.5577 52.8001 26.3941 52.9688 26.2828C53.1374 26.1716 53.338 26.119 53.5395 26.1331C54.0689 26.1331 54.5057 26.4574 54.5057 27.278V29.2633H54.1351V27.3375C54.1351 26.8346 53.9432 26.5037 53.4733 26.5037C52.8513 26.5037 52.6263 27.0265 52.6263 27.6618V29.2368H52.2358V26.9735Z" fill="#CCCCCC"/>
<path d="M58.8199 27.7942C58.8199 28.4957 59.164 28.9589 59.6868 28.9589C59.8526 28.9735 60.0186 28.9318 60.1578 28.8406C60.2971 28.7493 60.4016 28.6139 60.4544 28.456H60.8449C60.7833 28.7165 60.6324 28.9472 60.4185 29.108C60.2045 29.2688 59.9409 29.3495 59.6736 29.3361C58.7802 29.3361 58.4294 28.5486 58.4294 27.7744C58.4294 26.8942 58.8464 26.1597 59.7066 26.1597C59.8803 26.1658 60.0507 26.2078 60.2073 26.2832C60.3639 26.3585 60.5031 26.4654 60.6163 26.5972C60.7294 26.729 60.8141 26.8829 60.8648 27.049C60.9155 27.2152 60.9313 27.3901 60.9111 27.5626C60.9111 27.6486 60.9111 27.7347 60.9111 27.8141L58.8199 27.7942ZM60.514 27.4766C60.514 26.9273 60.2294 26.4839 59.7 26.4839C59.1706 26.4839 58.8927 26.8942 58.8397 27.4766H60.514Z" fill="#CCCCCC"/>
<path d="M67.1785 28.82V30.4413H66.7947V26.9472C66.7947 26.7023 66.7947 26.4376 66.7947 26.206H67.1719C67.1719 26.3185 67.1719 26.4972 67.1719 26.7222C67.2594 26.5374 67.3999 26.3828 67.5754 26.2779C67.751 26.173 67.9537 26.1227 68.1579 26.1332C68.8197 26.1332 69.3094 26.7288 69.3094 27.642C69.3094 28.7273 68.7535 29.3097 68.052 29.3097C67.8746 29.322 67.6973 29.2822 67.5422 29.1952C67.387 29.1082 67.2606 28.9778 67.1785 28.82ZM68.9123 27.6619C68.9123 27.0001 68.6145 26.4972 68.0785 26.4972C67.4167 26.4972 67.1587 26.9273 67.1587 27.7148C67.1587 28.5023 67.3704 28.9523 68.0388 28.9523C68.6013 28.9523 68.9123 28.456 68.9123 27.6619Z" fill="#CCCCCC"/>
<path d="M72.9211 27.033V26.2058H73.3248C73.3248 26.2985 73.3248 26.5102 73.3248 26.8676C73.3955 26.659 73.5286 26.4772 73.7063 26.347C73.8839 26.2167 74.0973 26.1443 74.3175 26.1396V26.5566C74.1733 26.559 74.0313 26.5919 73.9009 26.6532C73.7704 26.7145 73.6544 26.8029 73.5606 26.9123C73.4668 27.0218 73.3973 27.1499 73.3566 27.2882C73.316 27.4265 73.3051 27.5718 73.3248 27.7146V29.2433H72.941L72.9211 27.033Z" fill="#CCCCCC"/>
<path d="M80.2057 27.7149C80.2057 28.5752 79.749 29.3098 78.8821 29.3098C78.0152 29.3098 77.5586 28.648 77.5586 27.7215C77.5586 26.7951 78.0284 26.1333 78.8821 26.1333C79.7358 26.1333 80.2057 26.7686 80.2057 27.7149ZM77.9821 27.7149C77.9821 28.3767 78.3262 28.9458 78.8954 28.9458C79.4645 28.9458 79.802 28.4429 79.802 27.7149C79.802 26.987 79.4843 26.4708 78.8887 26.4708C78.2932 26.4708 77.9557 27.0134 77.9557 27.7215L77.9821 27.7149Z" fill="#CCCCCC"/>
<path d="M86.1155 24.8096V28.3699C86.1155 28.661 86.1155 28.939 86.1155 29.2368H85.7449C85.7449 29.1574 85.7449 28.8993 85.7449 28.7669C85.6669 28.946 85.5335 29.0953 85.3644 29.193C85.1953 29.2906 84.9993 29.3315 84.8052 29.3096C84.0574 29.3096 83.6074 28.6478 83.6074 27.7544C83.6074 26.861 84.0971 26.1331 84.8912 26.1331C85.0596 26.1099 85.2311 26.1379 85.3833 26.2134C85.5355 26.289 85.6615 26.4085 85.7449 26.5566V24.8096H86.1155ZM83.9979 27.7412C83.9979 28.5287 84.3685 28.9522 84.8449 28.9522C85.5662 28.9522 85.7515 28.4162 85.7515 27.6287C85.7515 26.8412 85.5927 26.4574 84.8912 26.4574C84.3486 26.4706 83.9979 26.9471 83.9979 27.7412Z" fill="#CCCCCC"/>
<path d="M92.1696 28.3497C92.1696 28.6475 92.1696 29.0909 92.1696 29.2364H91.799C91.789 29.0712 91.789 28.9054 91.799 28.7401C91.7324 28.9221 91.6072 29.0768 91.4431 29.1798C91.2789 29.2829 91.0852 29.3284 90.8924 29.3092C90.449 29.3092 89.946 29.0975 89.946 28.2041V26.2188H90.3233V28.1313C90.3233 28.5482 90.449 28.9519 90.985 28.9519C91.521 28.9519 91.8056 28.6012 91.8056 27.7872V26.2056H92.1894L92.1696 28.3497Z" fill="#CCCCCC"/>
<path d="M98.1933 28.3298C98.1531 28.605 98.0141 28.8563 97.8022 29.0365C97.5903 29.2168 97.32 29.3137 97.0418 29.3092C96.2808 29.3092 95.7778 28.7268 95.7778 27.7342C95.7778 26.8937 96.2212 26.1327 97.1014 26.1327C97.3799 26.1216 97.652 26.2187 97.8605 26.4038C98.069 26.5888 98.1977 26.8474 98.2197 27.1253H97.8095C97.7927 26.9417 97.7069 26.7712 97.5693 26.6483C97.4318 26.5255 97.2527 26.4595 97.0683 26.4636C96.4992 26.4636 96.1815 26.9665 96.1815 27.6945C96.1815 28.4224 96.4859 28.932 97.0418 28.932C97.2227 28.9347 97.3986 28.8729 97.5381 28.7577C97.6775 28.6425 97.7714 28.4814 97.8028 28.3033L98.1933 28.3298Z" fill="#CCCCCC"/>
<path d="M101.351 26.206H101.867V25.2861H102.258V26.206H102.919V26.5567H102.258V28.456C102.258 28.7736 102.324 28.9523 102.595 28.9523C102.687 28.9649 102.781 28.9649 102.873 28.9523V29.2766C102.745 29.3181 102.611 29.3361 102.476 29.3295C102.072 29.3295 101.867 29.1178 101.867 28.6214V26.6361H101.351V26.206Z" fill="#CCCCCC"/>
<path d="M106.503 28.3895C106.536 28.5643 106.632 28.7205 106.775 28.8272C106.917 28.9338 107.094 28.9831 107.271 28.9652C107.741 28.9652 107.933 28.7468 107.933 28.4358C107.933 28.1248 107.794 27.9659 107.191 27.8137C106.411 27.6152 106.232 27.3637 106.232 26.9601C106.232 26.5564 106.53 26.1328 107.225 26.1328C107.35 26.1201 107.476 26.1322 107.597 26.1687C107.717 26.2051 107.829 26.265 107.927 26.345C108.024 26.425 108.104 26.5235 108.163 26.6347C108.222 26.746 108.259 26.8678 108.27 26.9931H107.893C107.861 26.8426 107.777 26.7081 107.656 26.6127C107.535 26.5173 107.385 26.4669 107.231 26.4703C106.775 26.4703 106.636 26.7086 106.636 26.927C106.636 27.1453 106.768 27.3108 107.297 27.4498C108.144 27.6615 108.33 27.9527 108.33 28.4027C108.33 28.8527 107.919 29.3093 107.258 29.3093C106.984 29.339 106.71 29.2588 106.495 29.0863C106.28 28.9139 106.143 28.6632 106.113 28.3895H106.503Z" fill="#CCCCCC"/>
</svg>
