<svg width="110" height="45" viewBox="0 0 110 45" fill="none" xmlns="http://www.w3.org/2000/svg">
<path d="M51.5875 22.8252V14.3039H52.6194V18.5313H52.7193L56.5472 14.3039H57.8953L54.317 18.1485L57.8953 22.8252H56.6471L53.6846 18.8641L52.6194 20.0624V22.8252H51.5875ZM60.2628 14.3039V22.8252H59.2309V14.3039H60.2628ZM62.3317 14.3039H63.5633L66.4592 21.3772H66.5591L69.455 14.3039H70.6866V22.8252H69.7213V16.351H69.6381L66.9752 22.8252H66.0432L63.3803 16.351H63.297V22.8252H62.3317V14.3039ZM72.7556 14.3039H73.9872L76.8831 21.3772H76.9829L79.8788 14.3039H81.1104V22.8252H80.1451V16.351H80.0619L77.399 22.8252H76.467L73.8041 16.351H73.7209V22.8252H72.7556V14.3039ZM90.0364 16.9668H89.0045C88.9435 16.67 88.8367 16.4093 88.6841 16.1846C88.5343 15.9599 88.3512 15.7713 88.1349 15.6187C87.9213 15.4634 87.6841 15.3469 87.4234 15.2692C87.1626 15.1915 86.8908 15.1527 86.6079 15.1527C86.0919 15.1527 85.6245 15.2831 85.2057 15.5438C84.7896 15.8046 84.4581 16.1887 84.2113 16.6964C83.9672 17.204 83.8451 17.8267 83.8451 18.5645C83.8451 19.3024 83.9672 19.9251 84.2113 20.4327C84.4581 20.9404 84.7896 21.3245 85.2057 21.5853C85.6245 21.846 86.0919 21.9764 86.6079 21.9764C86.8908 21.9764 87.1626 21.9376 87.4234 21.8599C87.6841 21.7822 87.9213 21.6671 88.1349 21.5145C88.3512 21.3592 88.5343 21.1692 88.6841 20.9445C88.8367 20.7171 88.9435 20.4563 89.0045 20.1623H90.0364C89.9587 20.5978 89.8172 20.9875 89.612 21.3315C89.4067 21.6754 89.1515 21.9681 88.8464 22.2094C88.5413 22.448 88.1987 22.6296 87.8187 22.7545C87.4414 22.8793 87.0378 22.9417 86.6079 22.9417C85.8811 22.9417 85.2348 22.7642 84.6689 22.4091C84.1031 22.0541 83.6579 21.5492 83.3333 20.8946C83.0088 20.24 82.8465 19.4633 82.8465 18.5645C82.8465 17.6658 83.0088 16.8891 83.3333 16.2345C83.6579 15.5799 84.1031 15.075 84.6689 14.72C85.2348 14.3649 85.8811 14.1874 86.6079 14.1874C87.0378 14.1874 87.4414 14.2498 87.8187 14.3746C88.1987 14.4995 88.5413 14.6825 88.8464 14.9239C89.1515 15.1624 89.4067 15.4537 89.612 15.7976C89.8172 16.1388 89.9587 16.5285 90.0364 16.9668ZM98.8937 18.5645C98.8937 19.4633 98.7314 20.24 98.4068 20.8946C98.0823 21.5492 97.6371 22.0541 97.0712 22.4091C96.5054 22.7642 95.859 22.9417 95.1323 22.9417C94.4055 22.9417 93.7592 22.7642 93.1934 22.4091C92.6275 22.0541 92.1823 21.5492 91.8578 20.8946C91.5332 20.24 91.3709 19.4633 91.3709 18.5645C91.3709 17.6658 91.5332 16.8891 91.8578 16.2345C92.1823 15.5799 92.6275 15.075 93.1934 14.72C93.7592 14.3649 94.4055 14.1874 95.1323 14.1874C95.859 14.1874 96.5054 14.3649 97.0712 14.72C97.6371 15.075 98.0823 15.5799 98.4068 16.2345C98.7314 16.8891 98.8937 17.6658 98.8937 18.5645ZM97.8951 18.5645C97.8951 17.8267 97.7716 17.204 97.5248 16.6964C97.2807 16.1887 96.9492 15.8046 96.5303 15.5438C96.1142 15.2831 95.6482 15.1527 95.1323 15.1527C94.6164 15.1527 94.149 15.2831 93.7301 15.5438C93.314 15.8046 92.9826 16.1887 92.7357 16.6964C92.4916 17.204 92.3695 17.8267 92.3695 18.5645C92.3695 19.3024 92.4916 19.9251 92.7357 20.4327C92.9826 20.9404 93.314 21.3245 93.7301 21.5853C94.149 21.846 94.6164 21.9764 95.1323 21.9764C95.6482 21.9764 96.1142 21.846 96.5303 21.5853C96.9492 21.3245 97.2807 20.9404 97.5248 20.4327C97.7716 19.9251 97.8951 19.3024 97.8951 18.5645Z" fill="#CCCCCC"/>
<path d="M51.5875 22.8252H51.3249V23.0878H51.5875V22.8252ZM51.5875 14.3039V14.0413H51.3249V14.3039H51.5875ZM52.6194 14.3039H52.882V14.0413H52.6194V14.3039ZM52.6194 18.5313H52.3568V18.7939H52.6194V18.5313ZM52.7193 18.5313V18.7939H52.8358L52.914 18.7075L52.7193 18.5313ZM56.5472 14.3039V14.0413H56.4307L56.3525 14.1276L56.5472 14.3039ZM57.8953 14.3039L58.0875 14.4828L58.4985 14.0413H57.8953V14.3039ZM54.317 18.1485L54.1248 17.9695L53.9737 18.1319L54.1084 18.3081L54.317 18.1485ZM57.8953 22.8252V23.0878H58.4269L58.1039 22.6656L57.8953 22.8252ZM56.6471 22.8252L56.4367 22.9825L56.5155 23.0878H56.6471V22.8252ZM53.6846 18.8641L53.8949 18.7068L53.7021 18.4491L53.4883 18.6896L53.6846 18.8641ZM52.6194 20.0624L52.4231 19.8879L52.3568 19.9626V20.0624H52.6194ZM52.6194 22.8252V23.0878H52.882V22.8252H52.6194ZM51.5875 22.8252H51.8502V14.3039H51.5875H51.3249V22.8252H51.5875ZM51.5875 14.3039V14.5665H52.6194V14.3039V14.0413H51.5875V14.3039ZM52.6194 14.3039H52.3568V18.5313H52.6194H52.882V14.3039H52.6194ZM52.6194 18.5313V18.7939H52.7193V18.5313V18.2686H52.6194V18.5313ZM52.7193 18.5313L52.914 18.7075L56.7419 14.4802L56.5472 14.3039L56.3525 14.1276L52.5246 18.355L52.7193 18.5313ZM56.5472 14.3039V14.5665H57.8953V14.3039V14.0413H56.5472V14.3039ZM57.8953 14.3039L57.7031 14.125L54.1248 17.9695L54.317 18.1485L54.5093 18.3274L58.0875 14.4828L57.8953 14.3039ZM54.317 18.1485L54.1084 18.3081L57.6867 22.9848L57.8953 22.8252L58.1039 22.6656L54.5256 17.9889L54.317 18.1485ZM57.8953 22.8252V22.5626H56.6471V22.8252V23.0878H57.8953V22.8252ZM56.6471 22.8252L56.8574 22.6679L53.8949 18.7068L53.6846 18.8641L53.4743 19.0214L56.4367 22.9825L56.6471 22.8252ZM53.6846 18.8641L53.4883 18.6896L52.4231 19.8879L52.6194 20.0624L52.8157 20.2369L53.8809 19.0386L53.6846 18.8641ZM52.6194 20.0624H52.3568V22.8252H52.6194H52.882V20.0624H52.6194ZM52.6194 22.8252V22.5626H51.5875V22.8252V23.0878H52.6194V22.8252ZM60.2628 14.3039H60.5254V14.0413H60.2628V14.3039ZM60.2628 22.8252V23.0878H60.5254V22.8252H60.2628ZM59.2309 22.8252H58.9683V23.0878H59.2309V22.8252ZM59.2309 14.3039V14.0413H58.9683V14.3039H59.2309ZM60.2628 14.3039H60.0002V22.8252H60.2628H60.5254V14.3039H60.2628ZM60.2628 22.8252V22.5626H59.2309V22.8252V23.0878H60.2628V22.8252ZM59.2309 22.8252H59.4935V14.3039H59.2309H58.9683V22.8252H59.2309ZM59.2309 14.3039V14.5665H60.2628V14.3039V14.0413H59.2309V14.3039ZM62.3317 14.3039V14.0413H62.0691V14.3039H62.3317ZM63.5633 14.3039L63.8064 14.2044L63.7396 14.0413H63.5633V14.3039ZM66.4592 21.3772L66.2162 21.4767L66.283 21.6399H66.4592V21.3772ZM66.5591 21.3772V21.6399H66.7354L66.8022 21.4767L66.5591 21.3772ZM69.455 14.3039V14.0413H69.2788L69.212 14.2044L69.455 14.3039ZM70.6866 14.3039H70.9492V14.0413H70.6866V14.3039ZM70.6866 22.8252V23.0878H70.9492V22.8252H70.6866ZM69.7213 22.8252H69.4587V23.0878H69.7213V22.8252ZM69.7213 16.351H69.9839V16.0884H69.7213V16.351ZM69.6381 16.351V16.0884H69.4621L69.3952 16.2511L69.6381 16.351ZM66.9752 22.8252V23.0878H67.1511L67.2181 22.9251L66.9752 22.8252ZM66.0432 22.8252L65.8003 22.9251L65.8672 23.0878H66.0432V22.8252ZM63.3803 16.351L63.6231 16.2511L63.5562 16.0884H63.3803V16.351ZM63.297 16.351V16.0884H63.0344V16.351H63.297ZM63.297 22.8252V23.0878H63.5597V22.8252H63.297ZM62.3317 22.8252H62.0691V23.0878H62.3317V22.8252ZM62.3317 14.3039V14.5665H63.5633V14.3039V14.0413H62.3317V14.3039ZM63.5633 14.3039L63.3203 14.4034L66.2162 21.4767L66.4592 21.3772L66.7023 21.2777L63.8064 14.2044L63.5633 14.3039ZM66.4592 21.3772V21.6399H66.5591V21.3772V21.1146H66.4592V21.3772ZM66.5591 21.3772L66.8022 21.4767L69.6981 14.4034L69.455 14.3039L69.212 14.2044L66.3161 21.2777L66.5591 21.3772ZM69.455 14.3039V14.5665H70.6866V14.3039V14.0413H69.455V14.3039ZM70.6866 14.3039H70.424V22.8252H70.6866H70.9492V14.3039H70.6866ZM70.6866 22.8252V22.5626H69.7213V22.8252V23.0878H70.6866V22.8252ZM69.7213 22.8252H69.9839V16.351H69.7213H69.4587V22.8252H69.7213ZM69.7213 16.351V16.0884H69.6381V16.351V16.6136H69.7213V16.351ZM69.6381 16.351L69.3952 16.2511L66.7323 22.7253L66.9752 22.8252L67.2181 22.9251L69.881 16.4509L69.6381 16.351ZM66.9752 22.8252V22.5626H66.0432V22.8252V23.0878H66.9752V22.8252ZM66.0432 22.8252L66.2861 22.7253L63.6231 16.2511L63.3803 16.351L63.1374 16.4509L65.8003 22.9251L66.0432 22.8252ZM63.3803 16.351V16.0884H63.297V16.351V16.6136H63.3803V16.351ZM63.297 16.351H63.0344V22.8252H63.297H63.5597V16.351H63.297ZM63.297 22.8252V22.5626H62.3317V22.8252V23.0878H63.297V22.8252ZM62.3317 22.8252H62.5944V14.3039H62.3317H62.0691V22.8252H62.3317ZM72.7556 14.3039V14.0413H72.4929V14.3039H72.7556ZM73.9872 14.3039L74.2302 14.2044L74.1634 14.0413H73.9872V14.3039ZM76.8831 21.3772L76.64 21.4767L76.7068 21.6399H76.8831V21.3772ZM76.9829 21.3772V21.6399H77.1592L77.226 21.4767L76.9829 21.3772ZM79.8788 14.3039V14.0413H79.7026L79.6358 14.2044L79.8788 14.3039ZM81.1104 14.3039H81.3731V14.0413H81.1104V14.3039ZM81.1104 22.8252V23.0878H81.3731V22.8252H81.1104ZM80.1451 22.8252H79.8825V23.0878H80.1451V22.8252ZM80.1451 16.351H80.4078V16.0884H80.1451V16.351ZM80.0619 16.351V16.0884H79.886L79.819 16.2511L80.0619 16.351ZM77.399 22.8252V23.0878H77.575L77.6419 22.9251L77.399 22.8252ZM76.467 22.8252L76.2241 22.9251L76.291 23.0878H76.467V22.8252ZM73.8041 16.351L74.047 16.2511L73.98 16.0884H73.8041V16.351ZM73.7209 16.351V16.0884H73.4582V16.351H73.7209ZM73.7209 22.8252V23.0878H73.9835V22.8252H73.7209ZM72.7556 22.8252H72.4929V23.0878H72.7556V22.8252ZM72.7556 14.3039V14.5665H73.9872V14.3039V14.0413H72.7556V14.3039ZM73.9872 14.3039L73.7441 14.4034L76.64 21.4767L76.8831 21.3772L77.1261 21.2777L74.2302 14.2044L73.9872 14.3039ZM76.8831 21.3772V21.6399H76.9829V21.3772V21.1146H76.8831V21.3772ZM76.9829 21.3772L77.226 21.4767L80.1219 14.4034L79.8788 14.3039L79.6358 14.2044L76.7399 21.2777L76.9829 21.3772ZM79.8788 14.3039V14.5665H81.1104V14.3039V14.0413H79.8788V14.3039ZM81.1104 14.3039H80.8478V22.8252H81.1104H81.3731V14.3039H81.1104ZM81.1104 22.8252V22.5626H80.1451V22.8252V23.0878H81.1104V22.8252ZM80.1451 22.8252H80.4078V16.351H80.1451H79.8825V22.8252H80.1451ZM80.1451 16.351V16.0884H80.0619V16.351V16.6136H80.1451V16.351ZM80.0619 16.351L79.819 16.2511L77.1561 22.7253L77.399 22.8252L77.6419 22.9251L80.3048 16.4509L80.0619 16.351ZM77.399 22.8252V22.5626H76.467V22.8252V23.0878H77.399V22.8252ZM76.467 22.8252L76.7099 22.7253L74.047 16.2511L73.8041 16.351L73.5612 16.4509L76.2241 22.9251L76.467 22.8252ZM73.8041 16.351V16.0884H73.7209V16.351V16.6136H73.8041V16.351ZM73.7209 16.351H73.4582V22.8252H73.7209H73.9835V16.351H73.7209ZM73.7209 22.8252V22.5626H72.7556V22.8252V23.0878H73.7209V22.8252ZM72.7556 22.8252H73.0182V14.3039H72.7556H72.4929V22.8252H72.7556ZM90.0364 16.9668V17.2294H90.3496L90.295 16.921L90.0364 16.9668ZM89.0045 16.9668L88.7472 17.0197L88.7904 17.2294H89.0045V16.9668ZM88.6841 16.1846L88.4656 16.3303L88.4668 16.3321L88.6841 16.1846ZM88.1349 15.6187L87.9804 15.8311L87.9835 15.8333L88.1349 15.6187ZM87.4234 15.2692L87.3484 15.5209L87.4234 15.2692ZM85.2057 15.5438L85.0669 15.3209L85.0662 15.3213L85.2057 15.5438ZM84.2113 16.6964L83.9751 16.5815L83.9746 16.5825L84.2113 16.6964ZM84.2113 20.4327L83.9746 20.5466L83.9751 20.5476L84.2113 20.4327ZM85.2057 21.5853L85.0662 21.8078L85.0669 21.8082L85.2057 21.5853ZM87.4234 21.8599L87.3484 21.6082L87.4234 21.8599ZM88.1349 21.5145L88.2875 21.7283L88.2881 21.7279L88.1349 21.5145ZM88.6841 20.9445L88.466 20.7982L88.4656 20.7988L88.6841 20.9445ZM89.0045 20.1623V19.8997H88.7908L88.7473 20.1089L89.0045 20.1623ZM90.0364 20.1623L90.2949 20.2084L90.35 19.8997H90.0364V20.1623ZM89.612 21.3315L89.3864 21.1969L89.612 21.3315ZM88.8464 22.2094L89.0081 22.4163L89.0093 22.4154L88.8464 22.2094ZM87.8187 22.7545L87.7367 22.5049L87.7362 22.5051L87.8187 22.7545ZM84.6689 22.4091L84.5294 22.6316L84.6689 22.4091ZM83.3333 20.8946L83.5686 20.7779L83.3333 20.8946ZM84.6689 14.72L84.5294 14.4975L84.6689 14.72ZM87.8187 14.3746L87.7362 14.624L87.7367 14.6241L87.8187 14.3746ZM88.8464 14.9239L88.6835 15.1298L88.6846 15.1308L88.8464 14.9239ZM89.612 15.7976L89.3864 15.9322L89.3869 15.933L89.612 15.7976ZM90.0364 16.9668V16.7042H89.0045V16.9668V17.2294H90.0364V16.9668ZM89.0045 16.9668L89.2617 16.9139C89.1946 16.5872 89.0755 16.2935 88.9014 16.037L88.6841 16.1846L88.4668 16.3321C88.5978 16.525 88.6924 16.7528 88.7472 17.0197L89.0045 16.9668ZM88.6841 16.1846L88.9026 16.0389C88.7353 15.7878 88.5296 15.5757 88.2862 15.4041L88.1349 15.6187L87.9835 15.8333C88.1729 15.9669 88.3334 16.1319 88.4656 16.3303L88.6841 16.1846ZM88.1349 15.6187L88.2894 15.4063C88.051 15.2329 87.7868 15.1034 87.4984 15.0175L87.4234 15.2692L87.3484 15.5209C87.5815 15.5903 87.7916 15.6938 87.9804 15.8311L88.1349 15.6187ZM87.4234 15.2692L87.4984 15.0175C87.2123 14.9323 86.9152 14.8901 86.6079 14.8901V15.1527V15.4153C86.8664 15.4153 87.113 15.4508 87.3484 15.5209L87.4234 15.2692ZM86.6079 15.1527V14.8901C86.0452 14.8901 85.5294 15.033 85.0669 15.3209L85.2057 15.5438L85.3445 15.7668C85.7197 15.5332 86.1386 15.4153 86.6079 15.4153V15.1527ZM85.2057 15.5438L85.0662 15.3213C84.6025 15.6119 84.2402 16.0364 83.9751 16.5815L84.2113 16.6964L84.4474 16.8112C84.6761 16.3411 84.9767 15.9972 85.3451 15.7664L85.2057 15.5438ZM84.2113 16.6964L83.9746 16.5825C83.709 17.1349 83.5825 17.799 83.5825 18.5645H83.8451H84.1077C84.1077 17.8544 84.2254 17.273 84.4479 16.8102L84.2113 16.6964ZM83.8451 18.5645H83.5825C83.5825 19.3301 83.709 19.9942 83.9746 20.5466L84.2113 20.4327L84.4479 20.3189C84.2254 19.8561 84.1077 19.2747 84.1077 18.5645H83.8451ZM84.2113 20.4327L83.9751 20.5476C84.2402 21.0927 84.6025 21.5172 85.0662 21.8078L85.2057 21.5853L85.3451 21.3627C84.9767 21.1318 84.6761 20.788 84.4474 20.3179L84.2113 20.4327ZM85.2057 21.5853L85.0669 21.8082C85.5294 22.0961 86.0452 22.239 86.6079 22.239V21.9764V21.7138C86.1386 21.7138 85.7197 21.5959 85.3445 21.3623L85.2057 21.5853ZM86.6079 21.9764V22.239C86.9152 22.239 87.2123 22.1968 87.4984 22.1116L87.4234 21.8599L87.3484 21.6082C87.113 21.6783 86.8664 21.7138 86.6079 21.7138V21.9764ZM87.4234 21.8599L87.4984 22.1116C87.7859 22.0259 88.0495 21.8983 88.2875 21.7283L88.1349 21.5145L87.9822 21.3008C87.7931 21.4359 87.5824 21.5385 87.3484 21.6082L87.4234 21.8599ZM88.1349 21.5145L88.2881 21.7279C88.5305 21.5539 88.7356 21.3408 88.9026 21.0902L88.6841 20.9445L88.4656 20.7988C88.3331 20.9976 88.172 21.1646 87.9817 21.3012L88.1349 21.5145ZM88.6841 20.9445L88.9022 21.0908C89.0754 20.8326 89.1944 20.5397 89.2616 20.2157L89.0045 20.1623L88.7473 20.1089C88.6925 20.373 88.5979 20.6015 88.466 20.7982L88.6841 20.9445ZM89.0045 20.1623V20.4249H90.0364V20.1623V19.8997H89.0045V20.1623ZM90.0364 20.1623L89.7778 20.1162C89.7051 20.5237 89.5738 20.8829 89.3864 21.1969L89.612 21.3315L89.8375 21.4661C90.0606 21.0921 90.2123 20.6719 90.2949 20.2084L90.0364 20.1623ZM89.612 21.3315L89.3864 21.1969C89.197 21.5143 88.9628 21.7825 88.6835 22.0034L88.8464 22.2094L89.0093 22.4154C89.3402 22.1537 89.6164 21.8366 89.8375 21.4661L89.612 21.3315ZM88.8464 22.2094L88.6846 22.0025C88.4042 22.2217 88.0888 22.3893 87.7367 22.5049L87.8187 22.7545L87.9006 23.004C88.3085 22.87 88.6783 22.6742 89.0081 22.4163L88.8464 22.2094ZM87.8187 22.7545L87.7362 22.5051C87.3876 22.6205 87.0121 22.6791 86.6079 22.6791V22.9417V23.2043C87.0636 23.2043 87.4952 23.1381 87.9012 23.0038L87.8187 22.7545ZM86.6079 22.9417V22.6791C85.926 22.6791 85.3289 22.5132 84.8085 22.1867L84.6689 22.4091L84.5294 22.6316C85.1407 23.0152 85.8363 23.2043 86.6079 23.2043V22.9417ZM84.6689 22.4091L84.8085 22.1867C84.2875 21.8597 83.8737 21.3934 83.5686 20.7779L83.3333 20.8946L83.098 21.0112C83.442 21.7051 83.9186 22.2484 84.5294 22.6316L84.6689 22.4091ZM83.3333 20.8946L83.5686 20.7779C83.2657 20.1669 83.1091 19.4319 83.1091 18.5645H82.8465H82.5839C82.5839 19.4946 82.7519 20.313 83.098 21.0112L83.3333 20.8946ZM82.8465 18.5645H83.1091C83.1091 17.6971 83.2657 16.9621 83.5686 16.3512L83.3333 16.2345L83.098 16.1178C82.7519 16.8161 82.5839 17.6345 82.5839 18.5645H82.8465ZM83.3333 16.2345L83.5686 16.3512C83.8737 15.7357 84.2875 15.2693 84.8085 14.9424L84.6689 14.72L84.5294 14.4975C83.9186 14.8807 83.442 15.424 83.098 16.1178L83.3333 16.2345ZM84.6689 14.72L84.8085 14.9424C85.3289 14.6159 85.926 14.45 86.6079 14.45V14.1874V13.9248C85.8363 13.9248 85.1407 14.1139 84.5294 14.4975L84.6689 14.72ZM86.6079 14.1874V14.45C87.0121 14.45 87.3876 14.5086 87.7362 14.624L87.8187 14.3746L87.9012 14.1253C87.4952 13.991 87.0636 13.9248 86.6079 13.9248V14.1874ZM87.8187 14.3746L87.7367 14.6241C88.0882 14.7396 88.4032 14.9082 88.6835 15.1298L88.8464 14.9239L89.0093 14.7179C88.6793 14.4568 88.3091 14.2593 87.9006 14.1251L87.8187 14.3746ZM88.8464 14.9239L88.6846 15.1308C88.9633 15.3487 89.1972 15.6151 89.3864 15.9322L89.612 15.7976L89.8375 15.663C89.6162 15.2922 89.3397 14.9762 89.0081 14.717L88.8464 14.9239ZM89.612 15.7976L89.3869 15.933C89.5738 16.2436 89.7051 16.6023 89.7778 17.0126L90.0364 16.9668L90.295 16.921C90.2123 16.4548 90.0607 16.034 89.837 15.6622L89.612 15.7976ZM98.4068 20.8946L98.1715 20.7779L98.4068 20.8946ZM97.0712 22.4091L97.2108 22.6316L97.0712 22.4091ZM93.1934 22.4091L93.0538 22.6316L93.1934 22.4091ZM91.8578 20.8946L92.0931 20.7779L91.8578 20.8946ZM93.1934 14.72L93.0538 14.4975L93.1934 14.72ZM97.0712 14.72L97.2108 14.4975L97.0712 14.72ZM98.4068 16.2345L98.1715 16.3512L98.4068 16.2345ZM97.5247 16.6964L97.2881 16.8102L97.2886 16.8112L97.5247 16.6964ZM96.5303 15.5438L96.3909 15.7664L96.3915 15.7668L96.5303 15.5438ZM93.7301 15.5438L93.5913 15.3209L93.5906 15.3213L93.7301 15.5438ZM92.7357 16.6964L92.4995 16.5815L92.499 16.5825L92.7357 16.6964ZM92.7357 20.4327L92.499 20.5466L92.4995 20.5476L92.7357 20.4327ZM93.7301 21.5853L93.5906 21.8078L93.5913 21.8082L93.7301 21.5853ZM96.5303 21.5853L96.3915 21.3623L96.3909 21.3627L96.5303 21.5853ZM97.5247 20.4327L97.2886 20.3179L97.2881 20.3189L97.5247 20.4327ZM98.8937 18.5645H98.631C98.631 19.4319 98.4744 20.1669 98.1715 20.7779L98.4068 20.8946L98.6421 21.0112C98.9883 20.313 99.1563 19.4946 99.1563 18.5645H98.8937ZM98.4068 20.8946L98.1715 20.7779C97.8664 21.3934 97.4526 21.8597 96.9316 22.1867L97.0712 22.4091L97.2108 22.6316C97.8215 22.2484 98.2982 21.7051 98.6421 21.0112L98.4068 20.8946ZM97.0712 22.4091L96.9316 22.1867C96.4113 22.5132 95.8142 22.6791 95.1323 22.6791V22.9417V23.2043C95.9039 23.2043 96.5995 23.0152 97.2108 22.6316L97.0712 22.4091ZM95.1323 22.9417V22.6791C94.4504 22.6791 93.8533 22.5132 93.333 22.1867L93.1934 22.4091L93.0538 22.6316C93.6651 23.0152 94.3607 23.2043 95.1323 23.2043V22.9417ZM93.1934 22.4091L93.333 22.1867C92.812 21.8597 92.3982 21.3934 92.0931 20.7779L91.8578 20.8946L91.6225 21.0112C91.9664 21.7051 92.4431 22.2484 93.0538 22.6316L93.1934 22.4091ZM91.8578 20.8946L92.0931 20.7779C91.7901 20.1669 91.6336 19.4319 91.6336 18.5645H91.3709H91.1083C91.1083 19.4946 91.2763 20.313 91.6225 21.0112L91.8578 20.8946ZM91.3709 18.5645H91.6336C91.6336 17.6971 91.7901 16.9621 92.0931 16.3512L91.8578 16.2345L91.6225 16.1178C91.2763 16.8161 91.1083 17.6345 91.1083 18.5645H91.3709ZM91.8578 16.2345L92.0931 16.3512C92.3982 15.7357 92.812 15.2693 93.333 14.9424L93.1934 14.72L93.0538 14.4975C92.4431 14.8807 91.9664 15.424 91.6225 16.1178L91.8578 16.2345ZM93.1934 14.72L93.333 14.9424C93.8533 14.6159 94.4504 14.45 95.1323 14.45V14.1874V13.9248C94.3607 13.9248 93.6651 14.1139 93.0538 14.4975L93.1934 14.72ZM95.1323 14.1874V14.45C95.8142 14.45 96.4113 14.6159 96.9316 14.9424L97.0712 14.72L97.2108 14.4975C96.5995 14.1139 95.9039 13.9248 95.1323 13.9248V14.1874ZM97.0712 14.72L96.9316 14.9424C97.4526 15.2693 97.8664 15.7357 98.1715 16.3512L98.4068 16.2345L98.6421 16.1178C98.2982 15.424 97.8215 14.8807 97.2108 14.4975L97.0712 14.72ZM98.4068 16.2345L98.1715 16.3512C98.4744 16.9621 98.631 17.6971 98.631 18.5645H98.8937H99.1563C99.1563 17.6345 98.9883 16.8161 98.6421 16.1178L98.4068 16.2345ZM97.8951 18.5645H98.1577C98.1577 17.7986 98.0297 17.1341 97.7609 16.5815L97.5247 16.6964L97.2886 16.8112C97.5135 17.2738 97.6324 17.8548 97.6324 18.5645H97.8951ZM97.5247 16.6964L97.7614 16.5825C97.4989 16.0365 97.1361 15.6115 96.6691 15.3209L96.5303 15.5438L96.3915 15.7668C96.7623 15.9976 97.0624 16.341 97.2881 16.8102L97.5247 16.6964ZM96.5303 15.5438L96.6698 15.3213C96.2097 15.033 95.6949 14.8901 95.1323 14.8901V15.1527V15.4153C95.6015 15.4153 96.0187 15.5332 96.3909 15.7664L96.5303 15.5438ZM95.1323 15.1527V14.8901C94.5696 14.8901 94.0538 15.033 93.5913 15.3209L93.7301 15.5438L93.8689 15.7668C94.2442 15.5332 94.6631 15.4153 95.1323 15.4153V15.1527ZM93.7301 15.5438L93.5906 15.3213C93.1269 15.6119 92.7646 16.0364 92.4995 16.5815L92.7357 16.6964L92.9719 16.8112C93.2005 16.3411 93.5011 15.9972 93.8696 15.7664L93.7301 15.5438ZM92.7357 16.6964L92.499 16.5825C92.2334 17.1349 92.1069 17.799 92.1069 18.5645H92.3695H92.6322C92.6322 17.8544 92.7498 17.273 92.9724 16.8102L92.7357 16.6964ZM92.3695 18.5645H92.1069C92.1069 19.3301 92.2334 19.9942 92.499 20.5466L92.7357 20.4327L92.9724 20.3189C92.7498 19.8561 92.6322 19.2747 92.6322 18.5645H92.3695ZM92.7357 20.4327L92.4995 20.5476C92.7646 21.0927 93.1269 21.5172 93.5906 21.8078L93.7301 21.5853L93.8696 21.3627C93.5011 21.1318 93.2005 20.788 92.9719 20.3179L92.7357 20.4327ZM93.7301 21.5853L93.5913 21.8082C94.0538 22.0961 94.5696 22.239 95.1323 22.239V21.9764V21.7138C94.6631 21.7138 94.2442 21.5959 93.8689 21.3623L93.7301 21.5853ZM95.1323 21.9764V22.239C95.6949 22.239 96.2097 22.0961 96.6698 21.8078L96.5303 21.5853L96.3909 21.3627C96.0187 21.5959 95.6015 21.7138 95.1323 21.7138V21.9764ZM96.5303 21.5853L96.6691 21.8082C97.1361 21.5176 97.4989 21.0926 97.7614 20.5466L97.5247 20.4327L97.2881 20.3189C97.0624 20.7881 96.7623 21.1315 96.3915 21.3623L96.5303 21.5853ZM97.5247 20.4327L97.7609 20.5476C98.0297 19.995 98.1577 19.3304 98.1577 18.5645H97.8951H97.6324C97.6324 19.2743 97.5135 19.8553 97.2886 20.3179L97.5247 20.4327Z" fill="#B3B3B3"/>
<path d="M28.8315 36.8274L23.2396 31.5333L19.2095 30.2495L42.219 7.94141L47.5131 12.9973L45.1242 14.9826L47.394 17.4311L46.1896 18.5296L47.3014 19.8532L29.5926 37.5421L28.8315 36.8274Z" fill="#CCCCCC"/>
<path d="M28.7031 30.2618L27.3267 31.3339C30.0752 28.4839 32.8347 25.6361 35.6053 22.7905H32.5149L40.145 15.7427L37.7958 20.0441L42.17 19.8125L28.7031 30.2618Z" fill="white"/>
</svg>
