<svg width="109" height="45" viewBox="0 0 109 45" fill="none" xmlns="http://www.w3.org/2000/svg">
<path d="M105.158 20.208V18.5121H105.731C105.864 18.5121 105.973 18.5347 106.058 18.58C106.143 18.6247 106.205 18.6863 106.246 18.7647C106.287 18.8431 106.308 18.9322 106.308 19.0321C106.308 19.1321 106.287 19.2207 106.246 19.298C106.205 19.3752 106.143 19.436 106.058 19.4801C105.974 19.5237 105.866 19.5455 105.735 19.5455H105.271V19.3601H105.728C105.818 19.3601 105.891 19.3468 105.947 19.3203C106.002 19.2938 106.043 19.2563 106.067 19.2077C106.093 19.1586 106.106 19.1 106.106 19.0321C106.106 18.9642 106.093 18.9049 106.067 18.8541C106.042 18.8033 106.002 18.7641 105.946 18.7365C105.89 18.7084 105.816 18.6943 105.725 18.6943H105.364V20.208H105.158ZM105.957 19.4462L106.374 20.208H106.135L105.725 19.4462H105.957Z" fill="#CCCCCC"/>
<path d="M105.691 21.044C106.349 21.044 106.882 20.5107 106.882 19.8528C106.882 19.1949 106.349 18.6616 105.691 18.6616C105.033 18.6616 104.5 19.1949 104.5 19.8528C104.5 20.5107 105.033 21.044 105.691 21.044Z" stroke="#CCCCCC" stroke-width="0.165441" stroke-miterlimit="10"/>
<path d="M25.2197 22.1028C25.9477 21.2425 26.8079 20.7793 27.8006 20.7793C28.8594 20.7793 29.6535 21.2425 30.1168 22.1028C30.8447 21.2425 31.705 20.7793 32.6315 20.7793C33.8227 20.7793 34.6829 21.3087 35.08 22.2352C35.2124 22.5661 35.3447 23.1617 35.3447 23.9558V29.2499H33.1609V24.4852C33.1609 22.8308 32.83 22.4337 31.9697 22.4337C31.3741 22.4337 30.7785 22.8308 30.5138 23.5587C30.3815 23.8896 30.3153 24.4852 30.3153 25.2793V29.2499H28.1315V24.6837C28.1315 23.8896 28.0653 23.3602 27.9991 23.0955C27.8668 22.6322 27.5359 22.4337 26.9403 22.4337C26.2785 22.4337 25.6829 22.8308 25.4182 23.4925C25.2859 23.8234 25.2197 24.419 25.2197 25.2131V29.2499H23.0359V20.9778H25.0212V22.1028H25.2197Z" fill="#CCCCCC"/>
<path d="M37.199 23.1616C37.6623 21.5734 38.6549 20.7793 40.7726 20.7793C42.7579 20.7793 43.552 21.3087 43.949 22.0366C44.1476 22.3675 44.2138 23.0293 44.2138 24.0219V26.6028C44.2138 28.0587 44.3461 28.5219 44.677 29.3161H42.4932C42.427 29.1837 42.3608 28.919 42.2946 28.6543C42.2285 28.5219 42.2285 28.4558 42.2285 28.3896C41.5005 29.1175 40.6402 29.5146 39.6476 29.5146C37.927 29.5146 36.8682 28.5219 36.8682 27.0661C36.8682 26.1396 37.3314 25.3455 38.1255 24.9484C38.5226 24.7499 39.1182 24.5514 39.8461 24.419C40.8388 24.2205 41.5667 24.0219 41.9638 23.8896V23.6911C41.9638 22.8308 41.6329 22.4999 40.4417 22.4999C39.6476 22.4999 39.2505 22.7646 38.9858 23.5587L37.199 23.1616ZM42.1623 25.2793C41.8976 25.3455 41.4343 25.4778 40.8388 25.6102C40.2432 25.7425 39.8461 25.8749 39.6476 26.0072C39.3829 26.2058 39.2505 26.4705 39.2505 26.8014C39.2505 27.3969 39.7799 27.9264 40.4417 27.9264C41.2358 27.9264 41.9638 27.3969 42.0961 26.8014C42.1623 26.6028 42.1623 26.2719 42.1623 25.7425V25.2793Z" fill="#CCCCCC"/>
<path d="M52.0211 29.25V28.0589C51.3593 29.0515 50.3667 29.4486 49.4402 29.4486C47.5211 29.4486 45.999 27.8603 45.999 25.0809C45.999 22.3015 47.4549 20.7794 49.5064 20.7794C50.4328 20.7794 51.227 21.1765 51.8887 21.9706V17.8677H54.0726V29.3162H52.0211V29.25ZM48.1828 24.9486C48.1828 26.7353 48.7784 27.728 50.0358 27.728C51.0284 27.728 51.8887 26.8677 51.8887 25.1471C51.8887 23.228 51.0946 22.4339 50.0358 22.4339C48.977 22.5 48.1828 23.2941 48.1828 24.9486Z" fill="#CCCCCC"/>
<path d="M61.7513 29.25V28.0589C61.0895 29.0515 60.0969 29.4486 59.1704 29.4486C57.2513 29.4486 55.7292 27.8603 55.7292 25.0809C55.7292 22.3015 57.1851 20.7794 59.2366 20.7794C60.1631 20.7794 60.9572 21.1765 61.619 21.9706V17.8677H63.8028V29.3162H61.7513V29.25ZM57.9792 24.9486C57.9792 26.7353 58.5748 27.728 59.8322 27.728C60.8248 27.728 61.6851 26.8677 61.6851 25.1471C61.6851 23.228 60.891 22.4339 59.8322 22.4339C58.7734 22.5 57.9792 23.2941 57.9792 24.9486Z" fill="#CCCCCC"/>
<path d="M65.6529 23.1616C66.1161 21.5734 67.1088 20.7793 69.2264 20.7793C71.2117 20.7793 72.0058 21.3087 72.4029 22.0366C72.6014 22.3675 72.6676 23.0293 72.6676 24.0219V26.6028C72.6676 28.0587 72.8 28.5219 73.1308 29.3161H70.947C70.8808 29.1837 70.8147 28.919 70.7485 28.6543C70.6823 28.5219 70.6823 28.4558 70.6823 28.3896C69.9544 29.1175 69.0941 29.5146 68.1014 29.5146C66.3808 29.5146 65.322 28.5219 65.322 27.0661C65.322 26.1396 65.7853 25.3455 66.5794 24.9484C66.9764 24.7499 67.572 24.5514 68.3 24.419C69.2926 24.2205 70.0205 24.0219 70.4176 23.8896V23.6911C70.4176 22.8308 70.0867 22.4999 68.8956 22.4999C68.1014 22.4999 67.7044 22.7646 67.4397 23.5587L65.6529 23.1616ZM70.55 25.2793C70.2853 25.3455 69.822 25.4778 69.2264 25.6102C68.6308 25.7425 68.2338 25.8749 68.0353 26.0072C67.7706 26.2058 67.6382 26.4705 67.6382 26.8014C67.6382 27.3969 68.1676 27.9264 68.8294 27.9264C69.6235 27.9264 70.3514 27.3969 70.4838 26.8014C70.55 26.6028 70.55 26.2719 70.55 25.7425V25.2793Z" fill="#CCCCCC"/>
<path d="M74.8506 29.25V17.8677H76.7697V29.3162H74.8506V29.25Z" fill="#CCCCCC"/>
<path d="M90.2031 22.2359C90.931 21.3094 91.8575 20.8462 92.9163 20.8462C93.8428 20.8462 94.7692 21.2433 95.1663 21.7727C95.5634 22.3021 95.6957 22.8977 95.6957 24.155V29.3168H93.5119V25.0815C93.5119 24.2212 93.4457 23.6256 93.3795 23.3609C93.181 22.8315 92.7178 22.5006 92.1884 22.5006C91.3942 22.5006 90.7325 22.9638 90.5339 23.6256C90.4016 23.9565 90.4016 24.6182 90.4016 25.5447V29.3168H88.2178V20.9785H90.2692V22.2359H90.2031Z" fill="#CCCCCC"/>
<path d="M97.5509 23.1616C98.0141 21.5734 99.0067 20.7793 101.124 20.7793C103.11 20.7793 103.904 21.3087 104.301 22.0366C104.499 22.3675 104.566 23.0293 104.566 24.0219V26.6028C104.566 28.0587 104.698 28.5219 105.029 29.3161H102.845C102.779 29.1837 102.713 28.919 102.646 28.6543C102.58 28.5219 102.58 28.4558 102.58 28.3896C101.852 29.1175 100.992 29.5146 99.9994 29.5146C98.2788 29.5146 97.22 28.5219 97.22 27.0661C97.22 26.1396 97.6832 25.3455 98.4773 24.9484C98.8744 24.7499 99.47 24.5514 100.198 24.419C101.191 24.2205 101.918 24.0219 102.316 23.8896V23.6911C102.316 22.8308 101.985 22.4999 100.794 22.4999C99.9994 22.4999 99.6023 22.7646 99.3376 23.5587L97.5509 23.1616ZM102.514 25.2793C102.249 25.3455 101.786 25.4778 101.191 25.6102C100.595 25.7425 100.198 25.8749 99.9994 26.0072C99.7347 26.2058 99.6023 26.4705 99.6023 26.8014C99.6023 27.3969 100.132 27.9264 100.794 27.9264C101.588 27.9264 102.316 27.3969 102.448 26.8014C102.514 26.6028 102.514 26.2719 102.514 25.7425V25.2793Z" fill="#CCCCCC"/>
<path d="M84.3142 26.8014C83.6524 26.7353 83.3215 26.0735 83.3215 26.0735C84.5789 25.0147 85.7701 23.9558 87.0274 22.897C85.8362 20.9779 83.4539 20.25 81.4686 21.1103C80.8068 21.375 80.2774 21.8382 79.8142 22.3014C78.8215 23.4926 78.4906 25.147 78.9539 26.6029C79.6156 28.5882 81.7333 29.4485 83.3877 29.4485C85.1745 29.4485 86.3656 28.3897 86.6965 28.0588C86.3656 27.3308 85.9686 26.6691 85.6377 25.9411C85.5053 26.5367 84.9098 26.8676 84.3142 26.8014ZM82.3289 22.6323C83.0568 21.9044 84.1818 21.9044 84.9098 22.6323L83.6524 23.8897L82.3289 25.147C81.6009 24.4853 81.6009 23.3603 82.3289 22.6323Z" fill="#CCCCCC"/>
<path d="M9.99928 33.1538C14.3851 33.1538 17.9405 29.5985 17.9405 25.2127C17.9405 20.8269 14.3851 17.2715 9.99928 17.2715C5.61349 17.2715 2.05811 20.8269 2.05811 25.2127C2.05811 29.5985 5.61349 33.1538 9.99928 33.1538Z" fill="#CCCCCC"/>
<path d="M10.7263 29.25H7.61597L9.07185 21.5073H11.0571C11.7189 21.5073 12.1821 22.1029 12.0498 22.6985L10.7263 29.25Z" fill="white"/>
<path d="M15.2273 26.9997L16.0876 22.7644C16.22 22.1688 15.7568 21.5732 15.095 21.5732H13.1097L11.6538 29.3821H13.9038H14.7641H16.8156L17.2126 28.5879C17.2788 28.4556 17.5435 27.86 17.5435 27.7277L17.6759 27.1321L15.2273 26.9997Z" fill="white"/>
<path d="M6.95537 21.3748L4.97007 21.3086H3.11713L2.72007 22.1027C2.65389 22.3012 2.45537 22.8307 2.38919 23.0292L2.25684 23.6248H4.63919L3.84507 29.2498H6.75684L7.74948 22.3012C7.88184 21.838 7.48478 21.3748 6.95537 21.3748Z" fill="white"/>
</svg>
