<svg width="110" height="45" viewBox="0 0 110 45" fill="none" xmlns="http://www.w3.org/2000/svg">
<g clip-path="url(#clip0_1_15456)">
<path d="M18.9922 17.0338C18.9922 16.9345 19.0451 16.8882 19.151 16.8882H21.0437C21.0956 16.8824 21.1481 16.8935 21.1933 16.9197C21.2386 16.9459 21.2742 16.9859 21.2951 17.0338L23.9885 22.6654H24.0547L26.7017 17.0338C26.7226 16.9859 26.7583 16.9459 26.8036 16.9197C26.8488 16.8935 26.9012 16.8824 26.9532 16.8882H28.7863C28.8922 16.8882 28.9451 16.9345 28.9451 17.0338V26.6162C28.9451 26.7154 28.8922 26.7617 28.7863 26.7617H26.9995C26.8937 26.7617 26.8407 26.7154 26.8407 26.6162V21.0573L24.0415 25.3456C23.8165 25.3456 21.1429 21.0573 21.1429 21.0573H21.0767V26.6162C21.0767 26.7154 21.0238 26.7617 20.9245 26.7617H19.151C19.0451 26.7617 18.9922 26.7154 18.9922 26.6162V17.0338Z" fill="#CCCCCC"/>
<path d="M34.6514 17.0406C34.6637 16.9934 34.6925 16.9522 34.7325 16.9243C34.7725 16.8964 34.8212 16.8837 34.8697 16.8884H37.0139C37.0635 16.882 37.1137 16.8939 37.1552 16.9219C37.1966 16.95 37.2264 16.9922 37.2389 17.0406L41.1499 27.2318C41.1499 27.3311 41.1499 27.384 41.0308 27.384H38.8205C38.7722 27.3874 38.7241 27.3742 38.6844 27.3465C38.6446 27.3188 38.6156 27.2783 38.6021 27.2318L37.9403 25.3921H33.8837L33.2219 27.2318C33.2071 27.2789 33.1768 27.3195 33.136 27.3471C33.0951 27.3748 33.0461 27.3878 32.9969 27.384H30.7866C30.6741 27.384 30.6344 27.3311 30.6675 27.2318L34.6514 17.0406ZM37.2521 23.4664L35.9286 19.7869H35.8822L34.5587 23.4664H37.2521Z" fill="#CCCCCC"/>
<path d="M42.4902 17.0402C42.4902 16.9343 42.5498 16.888 42.6623 16.888H44.7071C44.7639 16.8856 44.8202 16.8985 44.8702 16.9252C44.9202 16.952 44.9622 16.9917 44.9917 17.0402L49.0748 23.6578H49.1608V17.0402C49.1608 16.9343 49.2204 16.888 49.3329 16.888H51.252C51.3711 16.888 51.4241 16.9343 51.4241 17.0402V27.2314C51.4241 27.3306 51.3711 27.3836 51.252 27.3836H49.227C49.1705 27.3846 49.1147 27.3711 49.0649 27.3445C49.0151 27.3179 48.9729 27.2789 48.9424 27.2314L44.8395 20.6137H44.7535V27.2314C44.7535 27.3306 44.7005 27.3836 44.588 27.3836H42.6623C42.5498 27.3836 42.4902 27.3306 42.4902 27.2314V17.0402Z" fill="#CCCCCC"/>
<path d="M57.5365 27.5566C57.0926 27.5562 56.6497 27.5163 56.2129 27.4375C55.791 27.368 55.3751 27.2662 54.9688 27.1331C54.6024 27.0087 54.2462 26.856 53.9034 26.6765C53.6118 26.5193 53.3369 26.3331 53.0828 26.1206C53.0622 26.1052 53.0456 26.0852 53.0341 26.0622C53.0226 26.0393 53.0166 26.0139 53.0166 25.9882C53.0166 25.9626 53.0226 25.9372 53.0341 25.9142C53.0456 25.8913 53.0622 25.8713 53.0828 25.8559L54.4063 24.5324C54.4225 24.514 54.4423 24.4994 54.4646 24.4893C54.4868 24.4793 54.5109 24.4741 54.5354 24.4741C54.5598 24.4741 54.5839 24.4793 54.6061 24.4893C54.6284 24.4994 54.6483 24.514 54.6644 24.5324C55.077 24.8291 55.5208 25.0799 55.9879 25.2801C56.5219 25.5045 57.0962 25.6171 57.6754 25.611C58.1673 25.643 58.6571 25.5228 59.0784 25.2669C59.2275 25.1674 59.3497 25.0326 59.434 24.8744C59.5183 24.7162 59.5621 24.5396 59.5615 24.3603C59.5639 24.2135 59.5308 24.0683 59.4652 23.9369C59.3995 23.8056 59.3031 23.692 59.1842 23.6059C58.7508 23.3336 58.2531 23.1806 57.7416 23.1625L57.1262 23.0831C56.1485 23.0141 55.2092 22.675 54.4129 22.1037C54.0978 21.8388 53.8488 21.5041 53.6856 21.1262C53.5225 20.7482 53.4498 20.3375 53.4732 19.9265C53.4652 19.4693 53.5626 19.0164 53.7578 18.6029C53.951 18.2057 54.2342 17.859 54.585 17.5904C54.9709 17.2925 55.4083 17.0682 55.8754 16.9287C56.4259 16.7695 56.9966 16.6914 57.5695 16.6971C58.3053 16.6928 59.038 16.7908 59.7468 16.9882C60.3718 17.1588 60.9644 17.4316 61.5004 17.7956C61.6063 17.8551 61.6129 17.9346 61.5335 18.0272L60.5012 19.4301C60.4744 19.4682 60.4339 19.4944 60.3881 19.503C60.3424 19.5117 60.2951 19.5022 60.2563 19.4765C59.842 19.2212 59.3974 19.0189 58.9328 18.8743C58.4885 18.7408 58.0268 18.6739 57.5629 18.6757C57.1509 18.6456 56.7413 18.7603 56.4048 19C56.2773 19.1013 56.1759 19.2316 56.1091 19.3802C56.0423 19.5287 56.0121 19.6911 56.021 19.8537C56.0202 20.0013 56.0568 20.1466 56.1274 20.2763C56.198 20.4059 56.3003 20.5155 56.4247 20.5949C56.8517 20.8454 57.3331 20.9884 57.8276 21.0118L58.4365 21.0912C59.4197 21.1529 60.3652 21.4925 61.1629 22.0706C61.4702 22.3419 61.7121 22.6794 61.8702 23.0577C62.0284 23.4359 62.0988 23.8451 62.0762 24.2544C62.0798 24.7119 61.9803 25.1643 61.785 25.5779C61.5836 25.9906 61.2891 26.3508 60.9247 26.6301C60.4971 26.9396 60.0141 27.1643 59.5019 27.2919C58.8625 27.4725 58.2008 27.5616 57.5365 27.5566Z" fill="#CCCCCC"/>
<path d="M63.7598 17.0399C63.7598 16.934 63.8193 16.8877 63.9318 16.8877H71.337C71.4495 16.8877 71.509 16.934 71.509 17.0399V18.6943C71.509 18.7936 71.4495 18.8465 71.337 18.8465H66.3671C66.2943 18.8465 66.2612 18.8796 66.2612 18.9392V21.1759C66.2612 21.2355 66.2612 21.2686 66.3671 21.2686H70.5164C70.6289 21.2686 70.6884 21.3149 70.6884 21.4208V23.0289C70.6884 23.1348 70.6289 23.1877 70.5164 23.1877H66.3671C66.2943 23.1877 66.2612 23.1877 66.2612 23.2803V27.2509C66.2612 27.3502 66.2017 27.4031 66.0892 27.4031H63.9318C63.8193 27.4031 63.7598 27.3502 63.7598 27.2509V17.0399Z" fill="#CCCCCC"/>
<path d="M73.2363 17.0399C73.2363 16.934 73.2959 16.8877 73.4084 16.8877H75.5657C75.6849 16.8877 75.7378 16.934 75.7378 17.0399V27.2311C75.7378 27.3303 75.6849 27.3833 75.5657 27.3833H73.4084C73.2959 27.3833 73.2363 27.3303 73.2363 27.2311V17.0399Z" fill="#CCCCCC"/>
<path d="M78.7586 17.1064C78.7563 17.0853 78.759 17.0639 78.7662 17.0439C78.7735 17.024 78.7853 17.006 78.8006 16.9913C78.816 16.9766 78.8345 16.9656 78.8547 16.9592C78.875 16.9527 78.8964 16.951 78.9174 16.9542H85.7998C85.8208 16.951 85.8422 16.9527 85.8625 16.9592C85.8827 16.9656 85.9012 16.9766 85.9166 16.9913C85.9319 17.006 85.9437 17.024 85.951 17.0439C85.9583 17.0639 85.9609 17.0853 85.9586 17.1064V18.7608C85.9609 18.7819 85.9583 18.8033 85.951 18.8232C85.9437 18.8432 85.9319 18.8612 85.9166 18.8759C85.9012 18.8906 85.8827 18.9016 85.8625 18.908C85.8422 18.9145 85.8208 18.9162 85.7998 18.913H81.1674C81.155 18.912 81.1425 18.9137 81.1308 18.918C81.1191 18.9223 81.1085 18.9291 81.0997 18.9379C81.0909 18.9467 81.0841 18.9574 81.0798 18.969C81.0755 18.9807 81.0738 18.9932 81.0748 19.0056V21.0902C81.0738 21.1026 81.0755 21.1151 81.0798 21.1268C81.0841 21.1385 81.0909 21.1491 81.0997 21.1579C81.1085 21.1667 81.1191 21.1735 81.1308 21.1778C81.1425 21.1821 81.155 21.1839 81.1674 21.1829H85.0189C85.0399 21.1797 85.0614 21.1814 85.0816 21.1878C85.1018 21.1943 85.1204 21.2052 85.1357 21.2199C85.151 21.2346 85.1628 21.2527 85.1701 21.2726C85.1774 21.2926 85.18 21.3139 85.1777 21.3351V22.9762C85.18 22.9974 85.1774 23.0187 85.1701 23.0387C85.1628 23.0586 85.151 23.0766 85.1357 23.0913C85.1204 23.106 85.1018 23.117 85.0816 23.1235C85.0614 23.1299 85.0399 23.1316 85.0189 23.1284H81.1674C81.155 23.1274 81.1425 23.1292 81.1308 23.1335C81.1191 23.1378 81.1085 23.1446 81.0997 23.1534C81.0909 23.1622 81.0841 23.1728 81.0798 23.1845C81.0755 23.1962 81.0738 23.2087 81.0748 23.2211V25.3983C81.0738 25.4107 81.0755 25.4232 81.0798 25.4349C81.0841 25.4466 81.0909 25.4572 81.0997 25.466C81.1085 25.4748 81.1191 25.4816 81.1308 25.4859C81.1425 25.4902 81.155 25.4919 81.1674 25.4909H85.7998C85.8208 25.4878 85.8422 25.4895 85.8625 25.4959C85.8827 25.5024 85.9012 25.5133 85.9166 25.528C85.9319 25.5427 85.9437 25.5608 85.951 25.5807C85.9583 25.6007 85.9609 25.622 85.9586 25.6431V27.2976C85.9586 27.4034 85.9057 27.4498 85.7998 27.4498H78.9174C78.8115 27.4498 78.7586 27.4034 78.7586 27.2976V17.1064Z" fill="#CCCCCC"/>
<path d="M88.3745 17.3917C88.3745 17.2924 88.4208 17.2461 88.5135 17.2461H90.3069C90.3995 17.2461 90.4458 17.2924 90.4458 17.3917V25.2402C90.4448 25.2518 90.4464 25.2634 90.4503 25.2743C90.4543 25.2852 90.4606 25.2951 90.4688 25.3033C90.477 25.3115 90.4869 25.3178 90.4978 25.3218C90.5087 25.3257 90.5203 25.3273 90.5319 25.3262H94.7738C94.8664 25.3262 94.9127 25.3792 94.9127 25.4784V27.1329C94.916 27.1521 94.9147 27.1719 94.9089 27.1905C94.9032 27.2092 94.8932 27.2263 94.8797 27.2404C94.8662 27.2546 94.8496 27.2653 94.8312 27.2719C94.8128 27.2785 94.7932 27.2808 94.7738 27.2784H88.5466C88.5272 27.2808 88.5075 27.2785 88.4891 27.2719C88.4707 27.2653 88.4541 27.2546 88.4407 27.2404C88.4272 27.2263 88.4172 27.2092 88.4114 27.1905C88.4057 27.1719 88.4044 27.1521 88.4076 27.1329L88.3745 17.3917Z" fill="#CCCCCC"/>
<path d="M96.9204 17.041C96.9204 16.9351 96.98 16.8888 97.0925 16.8888H101.394C102.282 16.8557 103.163 17.0565 103.948 17.4711C104.633 17.8653 105.147 18.4997 105.391 19.2513C105.437 19.3902 105.484 19.5424 105.523 19.7013C105.567 19.8889 105.6 20.0789 105.623 20.2704C105.623 20.4822 105.669 20.7402 105.682 21.038C105.695 21.3358 105.682 21.6998 105.682 22.1366C105.682 22.5733 105.682 22.9307 105.682 23.2351C105.682 23.5395 105.649 23.791 105.623 24.0027C105.601 24.1921 105.568 24.38 105.523 24.5652C105.484 24.7241 105.437 24.8763 105.391 25.0219C105.146 25.7725 104.632 26.4063 103.948 26.802C103.163 27.2166 102.282 27.4174 101.394 27.3844H97.0925C96.98 27.3844 96.9204 27.3314 96.9204 27.2322V17.041ZM99.4219 25.2733C99.4219 25.3329 99.455 25.3594 99.5211 25.3594H100.845C101.323 25.3812 101.8 25.2953 102.241 25.1079C102.421 25.0171 102.58 24.8904 102.708 24.7355C102.837 24.5807 102.932 24.4011 102.989 24.2079C103.03 24.1267 103.059 24.0397 103.075 23.9498C103.105 23.826 103.125 23.6998 103.134 23.5726C103.134 23.4204 103.134 23.2219 103.167 22.9902C103.201 22.7586 103.167 22.4741 103.167 22.1366C103.167 21.7991 103.167 21.5145 103.167 21.2895C103.167 21.0645 103.167 20.8726 103.134 20.7138C103.125 20.5866 103.105 20.4604 103.075 20.3366C103.057 20.243 103.028 20.1519 102.989 20.0652C102.928 19.8753 102.83 19.6998 102.699 19.5495C102.568 19.3993 102.408 19.2775 102.228 19.1917C101.788 19.0019 101.31 18.9136 100.831 18.9336H99.5079C99.4417 18.9336 99.4086 18.9667 99.4086 19.0263L99.4219 25.2733Z" fill="#CCCCCC"/>
<path d="M105.968 17.3011V17.1428H107.073V17.3011H106.609V18.6167H106.431V17.3011H105.968ZM107.348 17.1428H107.561L108.062 18.3662H108.08L108.581 17.1428H108.794V18.6167H108.627V17.4968H108.612L108.152 18.6167H107.99L107.53 17.4968H107.515V18.6167H107.348V17.1428Z" fill="#CCCCCC"/>
<path d="M3.23442 24.5906C3.23442 22.1421 3.18809 19.6936 3.16162 17.2384C4.35301 17.1314 5.5469 17.4148 6.56309 18.0458C7.12267 18.4042 7.60798 18.8671 7.9925 19.409C6.35133 20.8186 5.86824 22.7178 6.56309 23.8561C6.89635 24.359 7.40663 24.7181 7.9925 24.862C8.37472 24.879 8.75615 24.8139 9.11114 24.6713C9.46613 24.5286 9.78646 24.3116 10.0506 24.0348C10.8513 22.9892 10.4675 20.898 8.61456 19.5215C9.17107 18.8072 9.89535 18.2414 10.7231 17.8743C11.5508 17.5072 12.4564 17.3501 13.3594 17.4171C13.3329 20.5671 13.3109 23.7127 13.2932 26.8539L3.25427 26.9201L3.23442 24.5906Z" fill="#CCCCCC"/>
</g>
<defs>
<clipPath id="clip0_1_15456">
<rect width="108.529" height="45" fill="white" transform="translate(0.529297)"/>
</clipPath>
</defs>
</svg>
