<svg width="109" height="45" viewBox="0 0 109 45" fill="none" xmlns="http://www.w3.org/2000/svg">
<path d="M61.1831 3.01446C61.6088 3.00355 62.0345 3.01134 62.4602 3.00355C62.6739 3.00667 62.8859 2.99419 63.098 3.00355C63.399 3.58521 63.675 4.1809 63.9744 4.76412L64.0103 4.86861C64.0196 5.71693 64.0337 6.56681 64.0274 7.41669C64.0368 7.8003 64.0368 8.18236 64.0384 8.56753C64.0602 8.95115 64.0384 9.33477 64.0493 9.71838C63.8684 9.87432 63.6391 10.0006 63.3928 9.9944C63.1744 10.0022 62.9639 9.91643 62.7861 9.79479C62.6536 9.879 62.5195 9.97724 62.3589 10.0084C62.1717 10.0396 61.9706 10.0381 61.7975 9.94917L61.5916 9.84469C61.4887 9.88992 61.3998 9.96321 61.2907 9.99284C61.0911 10.0365 60.8587 10.0318 60.6981 9.88836C60.7012 10.3047 60.7979 10.7382 61.0536 11.0751L61.2174 11.2934C61.3484 11.4181 61.4684 11.5585 61.6228 11.6567L61.8879 11.8501C62.2372 11.8517 62.5881 11.8501 62.939 11.847C63.2415 11.8423 63.5456 11.8626 63.8497 11.8407C64.1943 11.8485 64.5374 11.8174 64.882 11.8376C65.289 11.8345 65.6976 11.8111 66.1061 11.8283C66.3666 11.8142 66.627 11.8174 66.8874 11.8174C66.8952 11.309 66.864 10.8037 66.8656 10.2969C66.8531 10.1285 66.8812 9.95853 66.8593 9.79011L66.7923 9.75737L66.864 9.74957C66.8593 9.16323 66.8313 8.57689 66.8359 7.99211C66.8094 7.79251 66.8235 7.58978 66.8219 7.38862C66.8141 7.07985 66.8079 6.76953 66.8079 6.45921C67.0075 6.45609 67.2055 6.4748 67.4036 6.44985C67.5564 6.44361 67.7108 6.44673 67.8652 6.44673L67.9073 6.46389C68.1708 6.42958 68.4359 6.45141 68.701 6.44361C68.8554 6.44829 69.0098 6.4327 69.1641 6.44829C69.1813 6.75394 69.1673 7.06114 69.1719 7.36679C69.1844 7.63812 69.1719 7.90946 69.1766 8.1808C69.1969 8.47085 69.1907 8.75934 69.1875 9.04783C69.1922 9.28019 69.2062 9.51254 69.1938 9.74489C69.1813 10.1145 69.2203 10.4809 69.2 10.849C69.1938 11.1109 69.2343 11.376 69.2078 11.638C69.1922 11.9515 69.2265 12.2618 69.2156 12.5752C69.2234 12.7592 69.2031 12.9448 69.2156 13.1273C69.2265 13.2894 69.2094 13.4516 69.2359 13.6122L69.2281 13.8259C69.2281 14.1456 69.2499 14.4668 69.2359 14.7865C69.2265 15.0812 69.2421 15.3791 69.2421 15.6738C69.2561 15.9747 69.2328 16.2757 69.2561 16.5751C69.2359 16.8901 69.2452 17.2067 69.2421 17.5201C69.2343 18.161 69.2421 18.802 69.2452 19.4444C69.2484 20.076 69.2421 20.7076 69.2484 21.3407C69.2515 21.8771 69.239 22.4136 69.2608 22.95C69.2437 23.4054 69.2717 23.8623 69.2484 24.3176C69.2608 24.7043 69.253 25.088 69.253 25.4716L69.2608 25.7616C69.239 25.9269 69.2608 26.0953 69.2468 26.2622C69.2546 26.6396 69.2437 27.0154 69.253 27.3912C69.2484 27.6064 69.2639 27.8232 69.2561 28.0368C69.2499 28.1865 69.2686 28.3378 69.2437 28.489C68.9942 28.5202 68.7431 28.4859 68.4936 28.5C68.2597 28.514 68.0226 28.4968 67.7887 28.5C67.5096 28.5078 67.2274 28.5 66.9467 28.5078L66.9248 28.4984C66.917 28.0321 66.9451 27.569 66.9295 27.1043C66.9545 26.7784 66.9326 26.4478 66.9373 26.1219C66.9404 25.9675 66.956 25.8162 66.9451 25.6634C66.9357 25.3281 66.9545 24.9913 66.942 24.656C66.9295 24.3176 66.956 23.9823 66.9451 23.6455C66.9513 23.396 66.9529 23.1449 66.9529 22.8954C66.7907 22.8923 66.627 22.8954 66.4648 22.9095C65.1533 22.9095 63.8403 22.9282 62.5288 22.9375L62.3994 22.9656C61.679 23.4864 60.9336 23.9761 60.1445 24.3847C59.8903 24.5235 59.6268 24.6467 59.3632 24.7698C59.2057 24.8307 59.0576 24.9118 58.8954 24.9601C58.49 25.1254 58.0767 25.2767 57.6557 25.3967C57.4997 25.4482 57.3344 25.4778 57.1785 25.5262C57.0179 25.5573 56.8588 25.6026 56.6998 25.6447C56.4565 25.6868 56.2148 25.7336 55.9715 25.7601L55.708 25.8006L55.6939 25.8443L55.6721 25.7944L55.616 25.7991C55.4959 25.8458 55.354 25.8069 55.2355 25.8614C55.0343 25.8692 54.8347 25.8646 54.632 25.8646L54.4152 25.8848C54.2811 25.8521 54.1439 25.8677 54.0066 25.8599L53.8647 25.8474C53.7353 25.8505 53.6074 25.8349 53.478 25.8349C53.2644 25.7959 53.0476 25.7881 52.8324 25.7476C52.5143 25.7102 52.2008 25.6431 51.889 25.5729C51.2106 25.4295 50.551 25.2112 49.9054 24.9632C49.2239 24.7043 48.5658 24.3878 47.928 24.0385C47.3339 23.6954 46.7398 23.3477 46.1846 22.9453C45.5749 22.9422 44.9636 22.9422 44.3539 22.9391C43.649 22.9516 42.941 22.9297 42.2346 22.9391C42.2299 23.1948 42.2346 23.4506 42.2268 23.7079L42.2502 23.7048L42.2331 24.0244C42.2362 24.2334 42.2206 24.4439 42.2331 24.6529C42.219 24.9819 42.2393 25.311 42.2237 25.6431C42.2409 25.8723 42.2237 26.1016 42.2268 26.3308C42.2377 26.5803 42.2268 26.8283 42.2346 27.0778C42.2549 27.5472 42.2518 28.0181 42.2549 28.4875C41.6093 28.4906 40.9653 28.4875 40.3212 28.4937C40.1294 28.4984 39.9392 28.4797 39.7474 28.4812C39.7442 27.8138 39.752 27.1464 39.7396 26.479C39.7364 25.693 39.7474 24.9086 39.752 24.1227C39.7598 23.7391 39.7754 23.3539 39.7645 22.9718C39.7786 22.7582 39.7708 22.5414 39.7739 22.3247C39.7708 21.7321 39.7895 21.1395 39.7817 20.547C39.7817 20.299 39.7879 20.0495 39.7863 19.8031C39.7832 19.6612 39.8129 19.5177 39.7863 19.3774L39.7786 19.2838L39.8175 19.2994L39.7676 19.2402H39.8191L39.7801 19.0452L39.8035 19.0515C39.7941 18.6866 39.816 18.3217 39.816 17.9552C39.8285 17.7821 39.8019 17.609 39.8207 17.4375C39.8425 16.7435 39.8285 16.0512 39.8487 15.3572C39.8737 14.9518 39.8487 14.5432 39.869 14.1362C39.8659 13.8571 39.8768 13.5779 39.8799 13.2972C39.8752 12.6891 39.9049 12.0793 39.9064 11.4696C39.9064 11.0392 39.9236 10.6088 39.9251 10.1768C39.9376 8.92932 39.9516 7.68179 39.975 6.43426C40.1216 6.43114 40.2698 6.41866 40.4164 6.43114C41.0807 6.43893 41.745 6.44673 42.4108 6.45765L42.4529 6.5247C42.4529 6.81319 42.4451 7.09857 42.4389 7.3855C42.4467 7.54924 42.4108 7.70986 42.4218 7.87204C42.4155 8.59093 42.4046 9.31137 42.3937 10.0318C42.3859 10.3188 42.3734 10.6072 42.375 10.8942C42.3719 11.1873 42.3578 11.4805 42.375 11.7737C42.481 11.8049 42.5917 11.7877 42.7009 11.7877C43.1718 11.7971 43.6428 11.7955 44.1137 11.8002L44.2837 11.8049C44.4131 11.783 44.5394 11.822 44.6689 11.8142C45.3254 11.8142 45.9819 11.8205 46.6384 11.8283C46.7507 11.8454 46.863 11.8174 46.9752 11.8345L47.0875 11.822C47.2185 11.7378 47.3573 11.6676 47.493 11.5897C47.6349 11.5133 47.7737 11.4228 47.8766 11.2965C47.9935 11.1671 48.0606 11.0033 48.1214 10.8427C48.2524 10.5121 48.2898 10.1535 48.2898 9.80103C48.137 9.90863 47.9577 10.0006 47.7674 9.9944C47.6099 9.98036 47.4774 9.87276 47.3823 9.75269C47.1936 9.88368 46.9721 9.99128 46.7351 9.97101C46.5947 9.98972 46.4669 9.92266 46.3421 9.86964L46.2439 9.80727L46.1597 9.7792C45.9959 9.89148 45.7994 9.95853 45.5983 9.96009L45.2864 9.8946C45.1632 9.84469 45.0618 9.75581 44.962 9.66848L44.8934 9.52969C44.9043 9.12269 44.8965 8.71412 44.9012 8.30399C44.9075 7.42448 44.9402 6.54186 44.9293 5.66235C44.9527 5.51888 44.9121 5.37853 44.9215 5.23507L44.8934 5.24754L44.8965 5.19296L44.9231 5.19608L44.9199 5.00583L44.9418 5.10252C44.9464 4.96373 44.934 4.82026 44.9636 4.68459C45.171 4.13256 45.3737 3.58053 45.5811 3.0285C46.1971 3.04409 46.8115 3.04409 47.429 3.05189C47.5819 3.05969 47.7347 3.04253 47.8875 3.05969C47.9889 3.35597 48.0824 3.65538 48.1744 3.95479C48.2711 4.2464 48.3678 4.53645 48.4598 4.83118C48.597 4.8421 48.7311 4.80779 48.8684 4.80935L48.9884 4.7688C49.4563 4.53021 49.9366 4.31657 50.4231 4.12009C50.7521 4.00781 51.0796 3.89241 51.4118 3.79105C51.7767 3.68969 52.1447 3.60236 52.5158 3.52439C52.8839 3.46981 53.2503 3.40588 53.6215 3.38404C53.8694 3.35597 54.122 3.37781 54.3669 3.31699C55.0265 3.30451 55.6877 3.37001 56.338 3.48229C57.0288 3.62107 57.7134 3.79105 58.3777 4.02808C58.8985 4.19806 59.3975 4.42261 59.895 4.65029L60.1071 4.66588C60.2459 4.66588 60.3862 4.6612 60.525 4.66276C60.7043 4.20897 60.8899 3.75518 61.0614 3.29828L61.1831 3.01446ZM61.3437 3.44018L61.2704 3.68969C61.1753 4.06083 61.0677 4.42885 60.9757 4.79999C61.4388 4.79999 61.9004 4.79375 62.362 4.78752C62.7362 4.79531 63.1105 4.76568 63.4832 4.7844L63.4208 4.55828C63.3475 4.31969 63.2508 4.08734 63.1729 3.84875C63.1167 3.70996 63.0824 3.56182 63.0201 3.42615C62.4618 3.42927 61.9035 3.42615 61.3452 3.44174M45.8525 3.50724C45.7994 3.67877 45.7761 3.85966 45.7262 4.03276C45.6591 4.3041 45.6108 4.57855 45.5375 4.84833C45.695 4.85613 45.8525 4.86081 46.01 4.85925C46.548 4.86393 47.0828 4.87172 47.6193 4.8764L47.8002 4.86081L47.8267 4.87952H47.9811C47.8781 4.42729 47.7565 3.97662 47.6442 3.52595C47.4852 3.51192 47.3246 3.52127 47.1655 3.51347C46.7273 3.51659 46.2907 3.49008 45.8525 3.50724ZM53.6339 4.31189L53.3782 4.3384C53.1115 4.37115 52.8449 4.41793 52.5782 4.45224V4.4694C52.4332 4.47719 52.2975 4.53177 52.1572 4.55828L51.8718 4.63313C51.5521 4.71266 51.2402 4.82338 50.9377 4.94814L50.6477 5.06353C50.4481 5.13527 50.2594 5.23039 50.0676 5.32239C49.9132 5.40972 49.7463 5.47522 49.606 5.58282C49.5982 5.99294 49.5935 6.40307 49.5701 6.81319C49.5701 7.01436 49.567 7.21396 49.553 7.41513C49.5452 7.9734 49.5358 8.53323 49.5264 9.09306C49.5187 9.27707 49.5436 9.46732 49.5093 9.64977C49.4921 9.91955 49.5093 10.1924 49.4828 10.4622C49.475 10.5917 49.4999 10.7195 49.4719 10.8474C49.3845 11.3012 49.2333 11.7472 48.9853 12.1402C48.6641 12.6641 48.1853 13.0852 47.6458 13.3752C47.3604 13.5124 47.0688 13.645 46.7585 13.7214C46.5043 13.7791 46.2501 13.8649 45.9866 13.8446C45.5546 13.8446 45.1227 13.8368 44.6907 13.8368C44.0669 13.8462 43.4432 13.829 42.8194 13.8368C42.3266 13.8321 41.8339 13.815 41.3395 13.8196C41.3193 13.9413 41.3255 14.0645 41.3395 14.1877C41.327 14.3951 41.3473 14.604 41.3255 14.8099C41.3193 15.3229 41.3161 15.836 41.3083 16.349C41.3208 16.6359 41.3115 16.9229 41.3005 17.2114C41.3005 17.5872 41.2943 17.963 41.2927 18.3404C41.2818 18.8113 41.3005 19.2854 41.2787 19.7563C41.2787 20.0651 41.2787 20.3739 41.2787 20.6811C41.6966 20.6873 42.1146 20.6779 42.5325 20.6951C42.6744 20.6733 42.8163 20.7091 42.9598 20.6982C43.8642 20.6951 44.7687 20.7154 45.6747 20.7091L45.9102 20.8635C46.4014 21.2986 46.9066 21.7165 47.4446 22.0923C47.8735 22.3964 48.3039 22.7021 48.7701 22.9469C49.383 23.3134 50.0442 23.5909 50.7069 23.856C50.9829 23.948 51.2558 24.051 51.5397 24.1211L51.6535 24.1554C51.8812 24.2225 52.1151 24.2724 52.3505 24.3161L52.4457 24.341L52.5673 24.355L52.7576 24.3925C52.9416 24.4205 53.1287 24.4315 53.3096 24.4658C53.4874 24.4767 53.662 24.5001 53.8382 24.5172L54.0347 24.5079C54.1766 24.5297 54.3201 24.5079 54.462 24.5172C54.5945 24.525 54.7271 24.511 54.8581 24.4814C55.2729 24.4548 55.6846 24.4034 56.0931 24.3254L56.2257 24.2615L56.3317 24.2724C56.5017 24.2396 56.6701 24.196 56.837 24.1554C57.5917 23.9667 58.3153 23.6736 59.028 23.3633L59.3227 23.226C60.1133 22.819 60.893 22.3855 61.615 21.8647C62.1483 21.5091 62.6474 21.1083 63.1464 20.7091C63.7733 20.72 64.3986 20.6764 65.0255 20.6795C65.9268 20.6514 66.8281 20.6374 67.731 20.6171C67.7404 20.2741 67.717 19.9294 67.731 19.5864C67.7248 19.0016 67.731 18.4184 67.7295 17.8336C67.7342 17.6574 67.7404 17.4827 67.7357 17.308C67.7295 16.9697 67.7482 16.6344 67.7435 16.2975C67.7435 15.9529 67.7388 15.6098 67.7466 15.2652C67.7326 14.9284 67.7513 14.5915 67.742 14.2578C67.717 14.1346 67.742 14.0068 67.7326 13.882C67.5673 13.8851 67.4004 13.8851 67.2336 13.8851C66.9888 13.9132 66.7424 13.8976 66.496 13.9054C65.8941 13.9257 65.2906 13.9304 64.6886 13.9491C64.1272 13.946 63.5674 13.9709 63.006 13.9631C62.7456 13.946 62.4899 13.8883 62.2419 13.8118C61.6306 13.5935 61.0661 13.2489 60.5811 12.8185C60.433 12.6719 60.2661 12.5409 60.1414 12.3709C59.9542 12.1729 59.8092 11.9374 59.6923 11.6942C59.6049 11.4509 59.5083 11.2045 59.5067 10.941C59.5067 10.7336 59.5067 10.5246 59.5036 10.3188C59.4833 9.97413 59.5114 9.63105 59.4942 9.28798C59.4817 8.55194 59.4817 7.8159 59.4724 7.07829C59.4833 6.74146 59.4677 6.40463 59.4661 6.06779C59.4786 5.89782 59.4584 5.72628 59.4708 5.55475C59.24 5.44715 59.0061 5.34579 58.7769 5.23507C58.5102 5.12435 58.2342 5.0417 57.9629 4.94502L57.8911 4.91851L57.7695 4.87016C57.3797 4.72982 56.9758 4.62534 56.5719 4.53333C56.1009 4.44444 55.6316 4.3384 55.1513 4.32437C54.8674 4.27447 54.5774 4.32437 54.292 4.28538C54.1735 4.28227 54.0534 4.27759 53.9349 4.29318L53.6324 4.31034M45.3082 5.83232C45.3098 6.08027 45.2926 6.32978 45.3082 6.57616L45.4361 6.68064C45.5842 6.69 45.7355 6.69468 45.8837 6.68532L45.985 6.52626C45.9788 6.28611 45.9975 6.0444 45.9897 5.80425L45.8977 5.6795C45.7636 5.6374 45.6201 5.66235 45.4813 5.65299L45.3082 5.83076M46.4949 5.78554C46.4731 5.8947 46.4778 6.00698 46.4762 6.1177C46.4871 6.26896 46.4544 6.42334 46.4809 6.5746L46.6556 6.70404H46.9706L47.1639 6.5746C47.1702 6.33601 47.1717 6.09586 47.1764 5.85415L47.1437 5.73096C47.0205 5.64831 46.8676 5.67326 46.7273 5.66702L46.4934 5.78554M47.624 5.8292C47.6115 6.06156 47.6208 6.29547 47.6115 6.52782L47.7596 6.70715C47.8953 6.71027 48.0325 6.73834 48.1666 6.71183L48.3085 6.55121C48.3085 6.31886 48.321 6.08495 48.3179 5.85104L48.2259 5.69977C48.0871 5.67794 47.9483 5.6717 47.8095 5.67794L47.6208 5.8292M63.1791 5.745L63.0247 5.82764L63.0185 6.02725H63.0668L63.0185 6.03817L63.0622 6.28299L63.0138 6.23465C63.0138 6.37968 63.0138 6.5247 63.0263 6.66973L63.2009 6.77733L63.5128 6.77421L63.7062 6.62139C63.714 6.42958 63.6937 6.23777 63.6984 6.0444L63.6828 5.83076L63.5128 5.73408C63.4006 5.7372 63.2883 5.73876 63.1776 5.74188M60.695 5.90094C60.6825 6.04596 60.7012 6.18943 60.7012 6.33289C60.7043 6.45921 60.6918 6.58864 60.7043 6.71339C60.8072 6.83503 60.9757 6.78668 61.1145 6.79292L61.3686 6.71339C61.3905 6.53094 61.3811 6.34693 61.3842 6.16448C61.3764 6.04284 61.3998 5.91185 61.3406 5.79957C61.2033 5.72472 61.0458 5.77151 60.8993 5.76059L60.6965 5.9025M61.8723 5.90406C61.8598 6.10366 61.877 6.30483 61.8723 6.50599L61.9004 6.72431L62.0751 6.78824C62.1967 6.78512 62.3199 6.79604 62.44 6.77421L62.5709 6.66349C62.5616 6.45765 62.5538 6.25181 62.5647 6.04596L62.5351 5.82764L62.3635 5.74967C62.2497 5.75279 62.1374 5.74967 62.0251 5.75435L61.8723 5.9025M45.3613 7.96716L45.2646 8.20575C45.2568 8.48489 45.2614 8.76714 45.2568 9.04939L45.3238 9.3488C45.4299 9.45016 45.5858 9.47199 45.7262 9.46264L45.9164 9.32073L45.9492 9.026C45.9523 8.73751 45.9569 8.44902 45.9569 8.16209L45.893 7.98743L45.6248 7.93753L45.3597 7.97028M46.4419 8.18236C46.4357 8.47865 46.4419 8.7765 46.431 9.07278L46.5246 9.37375C46.6275 9.47823 46.785 9.47199 46.9207 9.46576C47.0158 9.42365 47.1109 9.34724 47.1249 9.23808C47.1343 8.88565 47.1312 8.53479 47.1343 8.18236L47.0454 7.97808L46.8973 7.95157H46.5885L46.4404 8.1808M47.6411 8.02174C47.5507 8.14493 47.5912 8.30399 47.5819 8.4459C47.5694 8.67046 47.5819 8.89501 47.5725 9.11957L47.6863 9.40962C47.8267 9.49694 48.0201 9.51878 48.162 9.42209L48.2742 9.26615C48.2742 8.91372 48.2867 8.5613 48.282 8.20887L48.2212 8.01238L47.9078 7.96092L47.6427 8.0233M60.709 8.25409C60.6903 8.54258 60.723 8.83108 60.7137 9.12269C60.7184 9.23184 60.6856 9.3566 60.7605 9.45016C60.8384 9.56244 60.9835 9.59207 61.1113 9.58583C61.2454 9.57648 61.3905 9.48135 61.3983 9.33633C61.4014 8.9761 61.3983 8.61588 61.3905 8.25565L61.3 8.0732C61.1768 8.03266 61.0474 8.05917 60.9211 8.05293C60.8104 8.04825 60.7074 8.14181 60.709 8.25409ZM62.0267 8.05293L61.8801 8.27748C61.877 8.50204 61.8801 8.72504 61.8879 8.95115C61.8879 9.07278 61.902 9.19442 61.8817 9.31449L61.9862 9.4985C62.1343 9.62014 62.3651 9.60454 62.5086 9.48603L62.5819 9.23964C62.5741 8.89657 62.5897 8.5535 62.5678 8.21043L62.5086 8.08879L62.3604 8.04201C62.2481 8.04513 62.1359 8.03577 62.0267 8.05449M63.0278 8.25409C63.0325 8.60652 63.0247 8.95895 63.0403 9.30982L63.0746 9.40806C63.1869 9.59987 63.4801 9.61546 63.6423 9.48291C63.7499 9.39558 63.7358 9.24432 63.7311 9.11801C63.714 8.82796 63.7358 8.53791 63.7187 8.24785L63.6345 8.05761C63.5097 8.01706 63.3772 8.0311 63.2493 8.02954C63.1277 8.02174 63.0185 8.13402 63.0263 8.25253" fill="#CCCCCC"/>
<path d="M62.3136 14.7317C62.4399 14.7052 62.5694 14.713 62.6988 14.7114L62.9888 14.7239C63.1198 14.7535 63.2555 14.7364 63.3834 14.7785C63.6765 14.8315 63.9572 14.9578 64.188 15.1465L64.4469 15.4116C64.6262 15.6408 64.7525 15.9075 64.8477 16.182C64.5779 16.2599 64.3019 16.2989 64.0336 16.3769C63.8699 16.4112 63.7077 16.4533 63.5455 16.4814C63.4972 16.3426 63.4426 16.2007 63.3381 16.0946C63.0294 15.7406 62.4321 15.7422 62.0922 16.0478C61.9846 16.1476 61.8972 16.2693 61.8458 16.4065C61.7928 16.525 61.7928 16.6576 61.7678 16.7839C61.7351 16.9398 61.7507 17.1004 61.7413 17.2595C61.7288 17.4326 61.7616 17.6041 61.7834 17.7772C61.8068 17.941 61.8661 18.1016 61.9612 18.2404C62.128 18.4415 62.3947 18.5507 62.6551 18.5351C62.8859 18.5491 63.1276 18.4712 63.2867 18.2996C63.4301 18.1375 63.5299 17.9394 63.5736 17.7273L63.6095 17.6041C64.0102 17.7258 64.4095 17.8458 64.8118 17.9628L64.8851 18.0283C64.7884 18.4088 64.6247 18.7862 64.3455 19.0715C64.1771 19.2509 63.9697 19.4053 63.7327 19.4863C63.4832 19.6033 63.2025 19.6267 62.9311 19.6485C62.5491 19.661 62.1623 19.6485 61.7912 19.5518C61.5245 19.4863 61.2782 19.3569 61.0676 19.1807C60.8493 18.9795 60.6513 18.7472 60.5187 18.479C60.3815 18.2201 60.3254 17.9301 60.2817 17.6431C60.2178 17.0178 60.2708 16.3582 60.5639 15.7921C60.7105 15.513 60.9288 15.2728 61.1924 15.0997C61.5214 14.8658 61.9253 14.7738 62.3183 14.7301" fill="#CCCCCC"/>
<path d="M54.5945 14.9437C54.9298 14.8689 55.2729 14.8299 55.6159 14.8393C55.7594 14.8595 55.9075 14.8439 56.0479 14.8829C56.3722 14.9359 56.6919 15.0638 56.9352 15.2884C57.0709 15.3929 57.1707 15.5316 57.2751 15.6626C57.3827 15.8513 57.4747 16.0462 57.5387 16.2521C57.2736 16.3254 57.0054 16.3924 56.7418 16.4688C56.5828 16.5078 56.4299 16.5733 56.2662 16.5842C56.182 16.2942 55.9512 16.0307 55.6471 15.973C55.5192 15.9527 55.3773 15.9293 55.2619 15.9932C55.1387 16.0572 55.0015 16.093 54.8939 16.1804C54.7879 16.2661 54.7068 16.38 54.6428 16.5C54.5852 16.6419 54.5446 16.7932 54.5275 16.946C54.5368 17.1612 54.5275 17.378 54.5321 17.5947C54.5571 17.8099 54.5633 18.0361 54.6678 18.2325C54.7598 18.4368 54.9516 18.585 55.1668 18.6427C55.2853 18.677 55.4116 18.6551 55.5317 18.6692C55.7547 18.6473 55.9824 18.546 56.1118 18.3573C56.249 18.1686 56.3177 17.9394 56.3613 17.7133C56.7933 17.8177 57.2237 17.9378 57.651 18.0626C57.5683 18.4914 57.3874 18.9124 57.0818 19.229C56.8494 19.4395 56.5765 19.6189 56.2678 19.6906C55.789 19.8091 55.2869 19.8091 54.8004 19.7436C54.6054 19.6797 54.4011 19.636 54.214 19.5518C54.0222 19.4785 53.8631 19.3444 53.7119 19.2119L53.4826 18.9577C53.3719 18.8095 53.269 18.652 53.2035 18.4805C53.0335 18.0719 52.9946 17.6228 53.007 17.1846C53.0289 16.656 53.1598 16.1086 53.4982 15.6891C53.6058 15.5332 53.7477 15.4069 53.9052 15.304C54.0503 15.1948 54.2156 15.1153 54.3902 15.0591L54.4027 15.0155L54.5961 14.9422" fill="#CCCCCC"/>
<path d="M44.6578 14.8564C45.3065 14.8564 45.9552 14.8564 46.6039 14.8689C46.7973 15.6486 46.9938 16.4268 47.1762 17.2112C47.2355 17.3998 47.2636 17.5963 47.3244 17.7835C47.432 17.3234 47.563 16.8681 47.6846 16.4143C47.7953 15.9823 47.9201 15.5551 48.0277 15.1231L48.0807 14.883C48.43 14.883 48.7809 14.883 49.1318 14.897C49.4358 14.9141 49.743 14.9032 50.0456 14.9079C50.0269 15.1637 50.0518 15.421 50.03 15.6767C50.0347 16.012 50.0237 16.3488 50.0175 16.6856C50.0097 17.3016 50.0113 17.916 49.9926 18.5335C49.9926 18.9031 49.9801 19.2727 49.9894 19.6423C49.5793 19.6423 49.1707 19.6423 48.7606 19.6423C48.7731 19.4739 48.7731 19.3023 48.7637 19.1355C48.7824 18.9827 48.7715 18.8298 48.7731 18.6786C48.7544 18.454 48.7949 18.231 48.784 18.0065C48.7918 17.693 48.7871 17.3811 48.7918 17.0693C48.8136 16.8307 48.784 16.589 48.809 16.3504L48.8058 16.0728C48.4784 17.2564 48.1587 18.4447 47.8359 19.6298C47.4757 19.6205 47.1139 19.6267 46.7536 19.6189C46.6632 19.3257 46.6039 19.0232 46.5213 18.7285C46.3139 17.8287 46.0644 16.9367 45.8695 16.0338C45.8445 16.2506 45.8648 16.4689 45.8507 16.6856C45.8461 17.6603 45.8274 18.6349 45.818 19.6111C45.4126 19.622 45.0055 19.6049 44.6001 19.6111C44.6095 19.293 44.6095 18.9749 44.6095 18.6567C44.6313 18.3667 44.6095 18.0782 44.6266 17.7897C44.6282 17.1815 44.6375 16.5734 44.6344 15.9667C44.6516 15.5972 44.65 15.2291 44.6516 14.8596" fill="#CCCCCC"/>
<path d="M17.928 33.1669V34.6016L17.864 34.6655H15.6637L15.5046 34.6016C15.4407 34.5377 15.4095 34.4737 15.4095 34.3786V33.4851H15.0586L14.7078 33.772V34.377C14.7078 34.6328 14.8044 34.8558 15.0274 35.046C15.1865 35.1739 15.3456 35.2378 15.5686 35.2378H18.0558C18.2476 35.2378 18.3755 35.1739 18.4706 35.046C18.5658 34.9509 18.6297 34.823 18.6297 34.664V33.1654H17.928V33.1669ZM16.8114 33.1357C16.7475 33.1997 16.7163 33.2948 16.7163 33.3915C16.7163 33.4882 16.7475 33.5833 16.8114 33.6472C16.8753 33.7112 16.972 33.7424 17.0672 33.7424C17.1623 33.7424 17.2574 33.7112 17.3213 33.6472C17.3853 33.5833 17.418 33.4866 17.418 33.3915C17.418 33.2964 17.3853 33.2012 17.3213 33.1357C17.2574 33.0718 17.1623 33.0391 17.0672 33.0391C16.972 33.0391 16.8753 33.0718 16.8114 33.1357ZM16.0146 33.1357C15.9506 33.1997 15.9194 33.2948 15.9194 33.3915C15.9194 33.4882 15.9506 33.5833 16.0146 33.6472C16.0785 33.7112 16.1736 33.7424 16.2687 33.7424C16.3639 33.7424 16.4294 33.7112 16.4917 33.6472C16.5869 33.5833 16.6196 33.4866 16.6196 33.3915C16.6196 33.2964 16.5869 33.2012 16.4917 33.1357C16.4278 33.0718 16.3639 33.0391 16.2687 33.0391C16.1736 33.0391 16.0785 33.0718 16.0146 33.1357Z" fill="#CCCCCC"/>
<path d="M19.2678 31.9879V34.6654C19.2678 34.826 19.299 34.9523 19.4269 35.0802C19.5548 35.1753 19.6826 35.2393 19.8089 35.2393H20.191V34.6654H20.0007L19.9696 34.6342L19.9368 34.6015V31.9863H19.2678V31.9879Z" fill="#CCCCCC"/>
<path d="M21.0844 35.5264C21.0205 35.5903 20.9877 35.6854 20.9877 35.7805C20.9877 35.8757 21.0205 35.9723 21.0844 36.0363C21.1483 36.1002 21.2123 36.1314 21.3386 36.1314C21.4353 36.1314 21.4976 36.1002 21.5616 36.0363C21.6583 35.9723 21.6895 35.8757 21.6895 35.7805C21.6895 35.6854 21.6583 35.5903 21.5616 35.5264C21.4976 35.4624 21.4353 35.4297 21.3386 35.4297C21.2107 35.4297 21.1483 35.4624 21.0844 35.5264ZM20.2548 35.5264C20.1924 35.5903 20.1597 35.6854 20.1597 35.7805C20.1597 35.8757 20.1924 35.9723 20.2548 36.0363C20.3187 36.1002 20.4154 36.1314 20.5105 36.1314C20.6057 36.1314 20.7023 36.1002 20.7647 36.0363C20.8287 35.9723 20.8614 35.8757 20.8614 35.7805C20.8614 35.6854 20.8287 35.5903 20.7647 35.5264C20.7008 35.4624 20.6057 35.4297 20.5105 35.4297C20.4154 35.4297 20.3187 35.4624 20.2548 35.5264ZM20.9565 33.103V34.6344H20.1597V35.2082H21.0844C21.2746 35.2082 21.4025 35.1443 21.5304 35.0164C21.6255 34.8886 21.6583 34.7607 21.6583 34.6344V33.103H20.9565Z" fill="#CCCCCC"/>
<path d="M23.5403 34.6342L23.35 34.6654C23.2222 34.6654 23.127 34.6015 23.0304 34.5063C22.9664 34.4097 22.9352 34.2833 22.9352 34.1243C22.9352 33.9652 22.9664 33.8358 23.0304 33.7734C23.0943 33.6783 23.1894 33.6471 23.2861 33.6471C23.3828 33.6471 23.4124 33.6783 23.4763 33.711L23.5403 33.9013V34.6358V34.6342ZM23.3797 35.495C23.2518 35.6229 23.0615 35.6868 22.8058 35.6868L22.6155 35.6556H22.5516V35.9098L22.8385 36.2607H22.9649C23.3157 36.2607 23.6027 36.1656 23.8257 35.9738C24.1126 35.7492 24.2405 35.4311 24.2405 35.0178V33.9013C24.2405 33.6144 24.1453 33.3914 23.9223 33.2651C23.7633 33.1372 23.5403 33.0732 23.2845 33.0732C22.9649 33.0732 22.7107 33.1684 22.5189 33.3914C22.3286 33.5832 22.2319 33.8374 22.2319 34.1243C22.2319 34.4112 22.3286 34.6342 22.4877 34.8572C22.6779 35.113 22.9337 35.2408 23.2533 35.2408C23.35 35.2408 23.4436 35.2408 23.5403 35.2096C23.5075 35.336 23.4436 35.4326 23.3812 35.4966" fill="#CCCCCC"/>
<path d="M24.8147 31.9883V34.6658C24.8147 34.8264 24.8786 34.9527 25.0065 35.0806C25.1016 35.1757 25.2295 35.2397 25.3886 35.2397H25.7394V34.6658H25.5788L25.5164 34.6346V31.9883H24.8147Z" fill="#CCCCCC"/>
<path d="M27.7166 34.6656C27.6215 34.7622 27.5248 34.7934 27.4297 34.7934C27.2067 34.7934 27.1116 34.6016 27.1116 34.1884C27.1116 34.0278 27.1428 33.9014 27.2067 33.8063C27.2706 33.7112 27.3346 33.6785 27.4609 33.6785C27.5576 33.6785 27.6215 33.7112 27.6527 33.7736C27.7166 33.8063 27.7166 33.8703 27.7166 33.9638V34.6656ZM25.7081 34.6656V35.2394H26.5689L26.6968 35.0804C26.8886 35.2722 27.0788 35.3673 27.3346 35.3673C27.5903 35.3673 27.7806 35.2722 27.9396 35.1116C28.0347 35.2082 28.1626 35.2394 28.2905 35.2394H28.5774V34.6656H28.5135L28.4496 34.6344L28.4168 34.6016V33.9638C28.4168 33.6769 28.3217 33.4866 28.1299 33.3276C27.9708 33.167 27.7478 33.103 27.4281 33.103C27.1724 33.103 26.9494 33.167 26.7576 33.3276C26.5346 33.5506 26.4083 33.8063 26.4083 34.1556C26.4083 34.3474 26.4083 34.5377 26.4395 34.6656H25.7065H25.7081Z" fill="#CCCCCC"/>
<path d="M29.4384 35.5264C29.3744 35.5903 29.3432 35.6854 29.3432 35.7805C29.3432 35.8757 29.3744 35.9723 29.4384 36.0363C29.5335 36.1002 29.5974 36.1314 29.6926 36.1314C29.7877 36.1314 29.8844 36.1002 29.9483 36.0363C30.0122 35.9723 30.0434 35.8757 30.0434 35.7805C30.0434 35.6854 30.0122 35.5903 29.9483 35.5264C29.8844 35.4624 29.7892 35.4297 29.6926 35.4297C29.5959 35.4297 29.5335 35.4624 29.4384 35.5264ZM28.6415 35.5264C28.5776 35.5903 28.5464 35.6854 28.5464 35.7805C28.5464 35.8757 28.5776 35.9723 28.6415 36.0363C28.7054 36.1002 28.8006 36.1314 28.8957 36.1314C28.9908 36.1314 29.0875 36.1002 29.1514 36.0363C29.2154 35.9723 29.2466 35.8757 29.2466 35.7805C29.2466 35.6854 29.2154 35.5903 29.1514 35.5264C29.0875 35.4624 28.9924 35.4297 28.8957 35.4297C28.799 35.4297 28.7054 35.4624 28.6415 35.5264ZM29.3744 33.103V34.5377L29.3432 34.6016L29.2793 34.6344H28.5464V35.2082H29.5023C29.6926 35.2082 29.8204 35.1443 29.9483 35.0164L30.1385 35.2082H30.2992V34.6344H30.0762L30.0434 34.6016V33.103H29.3744Z" fill="#CCCCCC"/>
<path d="M30.8093 32.9438V33.485L30.8405 33.5489C31.2241 33.5489 31.5422 33.708 31.7964 33.9949C31.9882 34.2179 32.0833 34.4081 32.0833 34.5999L32.0194 34.6639H30.2666V35.2377H32.2112C32.403 35.2377 32.5293 35.1738 32.6572 35.0475L32.849 35.2377H32.9441V34.6639H32.7851V34.5688C32.7523 34.2491 32.626 33.9309 32.4342 33.6752C32.2751 33.421 32.0194 33.2292 31.7324 33.1013L32.4966 32.5914V31.9536L30.8062 32.9423L30.8093 32.9438Z" fill="#CCCCCC"/>
<path d="M33.7107 31.9883V34.6658H32.9138V35.2397H33.8385C34.0288 35.2397 34.1894 35.1757 34.2845 35.0494C34.3812 34.9215 34.4124 34.7937 34.4124 34.6658V31.9883H33.7107Z" fill="#CCCCCC"/>
<path d="M35.0508 31.9883V35.3348H35.4016L35.7525 35.0479V31.9883H35.0508Z" fill="#CCCCCC"/>
<path d="M37.633 34.6342C37.5363 34.6654 37.4724 34.6654 37.41 34.6654C37.2821 34.6654 37.187 34.6015 37.1231 34.5063C37.0279 34.4097 36.9952 34.2833 36.9952 34.1243C36.9952 33.9652 37.0279 33.8358 37.0919 33.7734C37.1558 33.6783 37.2509 33.6471 37.3772 33.6471L37.5363 33.711L37.633 33.9013V34.6358V34.6342ZM37.4412 35.495C37.3133 35.6229 37.1543 35.6868 36.8673 35.6868L36.6755 35.6556H36.6116V35.9098L36.8985 36.2607H37.0264C37.3757 36.2607 37.6642 36.1656 37.9199 35.9738C38.1741 35.7492 38.3332 35.4311 38.3332 35.0178V33.9013C38.3332 33.6144 38.2053 33.3914 37.9823 33.2651C37.8232 33.1372 37.6002 33.0732 37.3772 33.0732C37.0591 33.0732 36.7722 33.1684 36.5804 33.3914C36.3886 33.5832 36.2935 33.8374 36.2935 34.1243C36.2935 34.4112 36.3886 34.6342 36.5476 34.8572C36.7706 35.113 37.0264 35.2408 37.3133 35.2408C37.41 35.2408 37.5051 35.2408 37.6002 35.2096C37.5691 35.336 37.5051 35.4326 37.4412 35.4966" fill="#CCCCCC"/>
<path d="M40.9809 34.6659H40.7891C40.6627 34.6659 40.5661 34.6019 40.4709 34.5068C40.407 34.4101 40.3431 34.3165 40.3431 34.1559C40.3431 33.9953 40.3742 33.8706 40.4709 33.7739C40.5349 33.6787 40.63 33.646 40.7891 33.646L40.9809 33.6772V34.6659ZM41.3317 32.9754L41.1399 33.1361C41.0121 33.0721 40.853 33.0409 40.6939 33.0409C40.407 33.0409 40.184 33.1361 39.9922 33.3279C39.7692 33.5509 39.6741 33.8378 39.6741 34.1559C39.6741 34.4429 39.738 34.6659 39.8643 34.8577C40.0561 35.1118 40.2791 35.2397 40.5972 35.2397C40.8202 35.2397 40.9793 35.1758 41.1384 35.0479C41.2662 35.1758 41.3941 35.2397 41.5532 35.2397H41.904V34.6659H41.7434L41.7122 34.6347L41.681 34.6019V32.9754H41.3302H41.3317ZM41.076 32.2113C41.0121 32.2753 40.9809 32.372 40.9809 32.4655C40.9809 32.5591 41.0121 32.6573 41.076 32.7213C41.1399 32.7852 41.2366 32.8179 41.3317 32.8179C41.4269 32.8179 41.522 32.7852 41.5859 32.7213C41.6499 32.6573 41.6826 32.5622 41.6826 32.4655C41.6826 32.3688 41.6499 32.2753 41.5859 32.2113C41.522 32.1474 41.4269 32.1162 41.3317 32.1162C41.2366 32.1162 41.1399 32.1474 41.076 32.2113ZM40.2791 32.2113C40.184 32.2753 40.1513 32.372 40.1513 32.4655C40.1513 32.5591 40.184 32.6573 40.2791 32.7213C40.3431 32.7852 40.407 32.8179 40.5021 32.8179C40.63 32.8179 40.6939 32.7852 40.7563 32.7213C40.8514 32.6573 40.8842 32.5622 40.8842 32.4655C40.8842 32.3688 40.8514 32.2753 40.7563 32.2113C40.6924 32.1474 40.6284 32.1162 40.5021 32.1162C40.407 32.1162 40.3431 32.1474 40.2791 32.2113Z" fill="#CCCCCC"/>
<path d="M42.7977 35.5264C42.7338 35.5903 42.7026 35.6854 42.7026 35.7805C42.7026 35.8757 42.7338 35.9723 42.7977 36.0363C42.8616 36.1002 42.9256 36.1314 43.0534 36.1314C43.1486 36.1314 43.2125 36.1002 43.2764 36.0363C43.3715 35.9723 43.4043 35.8757 43.4043 35.7805C43.4043 35.6854 43.3715 35.5903 43.2764 35.5264C43.2125 35.4624 43.1486 35.4297 43.0534 35.4297C42.9256 35.4297 42.8616 35.4624 42.7977 35.5264ZM41.9696 35.5264C41.9057 35.5903 41.8745 35.6854 41.8745 35.7805C41.8745 35.8757 41.9057 35.9723 41.9696 36.0363C42.0336 36.1002 42.1287 36.1314 42.2238 36.1314C42.3189 36.1314 42.4156 36.1002 42.4796 36.0363C42.5435 35.9723 42.5747 35.8757 42.5747 35.7805C42.5747 35.6854 42.5435 35.5903 42.4796 35.5264C42.4156 35.4624 42.3205 35.4297 42.2238 35.4297C42.1271 35.4297 42.0336 35.4624 41.9696 35.5264ZM42.7026 33.103V34.5377L42.6714 34.6016L42.6074 34.6344H41.8745V35.2082H42.8304C43.0207 35.2082 43.1486 35.1443 43.2764 35.0164L43.4994 35.2082H43.6273V34.6344H43.4043V33.103H42.7026Z" fill="#CCCCCC"/>
<path d="M44.1371 32.9438V33.485L44.201 33.5489C44.5519 33.5489 44.87 33.708 45.1569 33.9949C45.3175 34.2179 45.4127 34.4081 45.4127 34.5999L45.3487 34.6639H43.5959V35.2377H45.5717C45.7308 35.2377 45.8898 35.1738 45.9865 35.0475H46.0177L46.1768 35.2377H46.2735V34.6639H46.1128V34.5688C46.0817 34.2491 45.985 33.9309 45.7947 33.6752C45.6029 33.421 45.3799 33.2292 45.0618 33.1013L45.8587 32.5914V31.9536L44.1371 32.9423V32.9438Z" fill="#CCCCCC"/>
<path d="M47.1651 35.5264C47.07 35.5903 47.0388 35.6854 47.0388 35.7805C47.0388 35.8757 47.07 35.9723 47.1651 36.0363C47.2291 36.1002 47.293 36.1314 47.3881 36.1314C47.4832 36.1314 47.5799 36.1002 47.6423 36.0363C47.7062 35.9723 47.739 35.8757 47.739 35.7805C47.739 35.6854 47.7062 35.5903 47.6423 35.5264C47.5784 35.4624 47.4832 35.4297 47.3881 35.4297C47.293 35.4297 47.2291 35.4624 47.1651 35.5264ZM46.3371 35.5264C46.2731 35.5903 46.2419 35.6854 46.2419 35.7805C46.2419 35.8757 46.2731 35.9723 46.3371 36.0363C46.401 36.1002 46.4961 36.1314 46.5913 36.1314C46.6864 36.1314 46.7831 36.1002 46.847 36.0363C46.9109 35.9723 46.9421 35.8757 46.9421 35.7805C46.9421 35.6854 46.9109 35.5903 46.847 35.5264C46.7831 35.4624 46.6879 35.4297 46.5913 35.4297C46.4946 35.4297 46.401 35.4624 46.3371 35.5264ZM47.07 33.103V34.5377L47.0388 34.6016L46.9749 34.6344H46.2419V35.2082H47.1979C47.3881 35.2082 47.516 35.1443 47.6439 35.0164L47.8357 35.2082H47.9947V34.6344H47.7717L47.7405 34.6016V33.103H47.07Z" fill="#CCCCCC"/>
<path d="M48.7602 33.1668V34.6654H47.9634V35.2393H48.8881C49.0799 35.2393 49.2078 35.1753 49.3357 35.0474C49.4308 34.9196 49.462 34.8245 49.462 34.6654V33.1668H48.7602ZM48.8554 32.2748C48.7914 32.3387 48.7602 32.4354 48.7602 32.529C48.7602 32.6226 48.7914 32.7208 48.8554 32.7847C48.9193 32.8487 49.0144 32.8814 49.1095 32.8814C49.2047 32.8814 49.3014 32.8487 49.3653 32.7847C49.4292 32.7208 49.4604 32.6257 49.4604 32.529C49.4604 32.4323 49.4292 32.3387 49.3653 32.2748C49.3014 32.2109 49.2062 32.1797 49.1095 32.1797C49.0129 32.1797 48.9193 32.2109 48.8554 32.2748Z" fill="#CCCCCC"/>
<path d="M50.1007 31.9883V34.6658C50.1007 34.8264 50.1646 34.9527 50.2597 35.0806C50.3876 35.1757 50.5155 35.2397 50.6418 35.2397H51.0254V34.6658H50.8648L50.8009 34.6346V31.9883H50.0991H50.1007Z" fill="#CCCCCC"/>
<path d="M51.5336 32.9438V33.485L51.5648 33.5489C51.9484 33.5489 52.2666 33.708 52.5208 33.9949C52.7126 34.2179 52.8077 34.4081 52.8077 34.5999L52.7437 34.6639H50.991V35.2377H52.9683C53.1274 35.2377 53.2864 35.1738 53.3831 35.0475H53.4159L53.5749 35.2377H53.67V34.6639H53.511V34.5688C53.4782 34.2491 53.3831 33.9309 53.1601 33.6752C53.0011 33.421 52.7453 33.2292 52.4584 33.1013L53.2552 32.5914V31.9536L51.5336 32.9423V32.9438Z" fill="#CCCCCC"/>
<path d="M54.5298 35.5264C54.4659 35.5903 54.4347 35.6854 54.4347 35.7805C54.4347 35.8757 54.4659 35.9723 54.5298 36.0363C54.6265 36.1002 54.6905 36.1314 54.7856 36.1314C54.8807 36.1314 54.9758 36.1002 55.0398 36.0363C55.1037 35.9723 55.1364 35.8757 55.1364 35.7805C55.1364 35.6854 55.1037 35.5903 55.0398 35.5264C54.9758 35.4624 54.8807 35.4297 54.7856 35.4297C54.6905 35.4297 54.6265 35.4624 54.5298 35.5264ZM53.7345 35.5264C53.6706 35.5903 53.6394 35.6854 53.6394 35.7805C53.6394 35.8757 53.6706 35.9723 53.7345 36.0363C53.7985 36.1002 53.8936 36.1314 53.9887 36.1314C54.0838 36.1314 54.1805 36.1002 54.2445 36.0363C54.3084 35.9723 54.3396 35.8757 54.3396 35.7805C54.3396 35.6854 54.3084 35.5903 54.2445 35.5264C54.1805 35.4624 54.0854 35.4297 53.9887 35.4297C53.892 35.4297 53.7985 35.4624 53.7345 35.5264ZM54.4675 33.103V34.5377L54.4363 34.6016L54.3723 34.6344H53.6394V35.2082H54.5953C54.7544 35.2082 54.915 35.1443 55.0413 35.0164L55.2331 35.2082H55.3922V34.6344H55.1692L55.138 34.6016V33.103H54.4675Z" fill="#CCCCCC"/>
<path d="M57.3685 34.6656C57.2734 34.7622 57.1455 34.7934 57.0488 34.7934C56.8258 34.7934 56.7307 34.6016 56.7307 34.1884C56.7307 34.0278 56.7619 33.9014 56.8258 33.8063C56.8897 33.7112 56.9849 33.6785 57.08 33.6785C57.1751 33.6785 57.2406 33.7112 57.303 33.7736C57.3357 33.8063 57.3669 33.8703 57.3669 33.9638V34.6656H57.3685ZM55.36 34.6656V35.2394H56.1896L56.3174 35.0804H56.3486C56.5092 35.2722 56.7322 35.3673 56.9552 35.3673C57.2094 35.3673 57.4012 35.2722 57.5603 35.1116C57.6554 35.2082 57.7833 35.2394 57.9423 35.2394H58.1965V34.6656H58.1326L58.0687 34.6344V33.9638C58.0687 33.6769 57.9735 33.4866 57.7817 33.3276C57.5899 33.167 57.3669 33.103 57.08 33.103C56.7931 33.103 56.5701 33.167 56.3783 33.3276C56.1553 33.5506 56.0274 33.8063 56.0274 34.1556C56.0274 34.3474 56.0601 34.5377 56.0913 34.6656H55.3584H55.36Z" fill="#CCCCCC"/>
<path d="M58.9948 31.9883V34.6034L58.9636 34.6674H58.1667V35.2412H59.1227C59.3129 35.2412 59.4408 35.1773 59.5687 35.051C59.6326 34.9231 59.6965 34.7952 59.6965 34.6674V31.9898H58.9948V31.9883Z" fill="#CCCCCC"/>
<path d="M60.3352 31.9883V35.3348H60.6533L61.0042 35.0479V31.9883H60.3352Z" fill="#CCCCCC"/>
<path d="M65.6911 33.1669V34.6016L65.6272 34.6655H63.4596L63.2678 34.6016C63.2039 34.5377 63.1727 34.4737 63.1727 34.3786V33.4851H62.8218L62.4709 33.772V34.377C62.4709 34.6328 62.5676 34.8558 62.7906 35.046C62.9497 35.1739 63.1415 35.2378 63.3333 35.2378H65.8206C66.0124 35.2378 66.1402 35.1739 66.2666 35.046C66.3632 34.9509 66.3944 34.823 66.3944 34.664V33.1654H65.6927L65.6911 33.1669ZM64.6073 33.1357C64.5122 33.1997 64.481 33.2948 64.481 33.3915C64.481 33.4882 64.5122 33.5833 64.6073 33.6472C64.6713 33.7112 64.7352 33.7424 64.8303 33.7424C64.9255 33.7424 65.0206 33.7112 65.0845 33.6472C65.1485 33.5833 65.1812 33.4866 65.1812 33.3915C65.1812 33.2964 65.1485 33.2012 65.0845 33.1357C65.0206 33.0718 64.9255 33.0391 64.8303 33.0391C64.7352 33.0391 64.6713 33.0718 64.6073 33.1357ZM63.7777 33.1357C63.7138 33.1997 63.6826 33.2948 63.6826 33.3915C63.6826 33.4882 63.7138 33.5833 63.7777 33.6472C63.8417 33.7112 63.9368 33.7424 64.0319 33.7424C64.127 33.7424 64.2237 33.7112 64.2877 33.6472C64.3516 33.5833 64.3828 33.4866 64.3828 33.3915C64.3828 33.2964 64.3516 33.2012 64.2877 33.1357C64.2237 33.0718 64.1286 33.0391 64.0319 33.0391C63.9352 33.0391 63.8417 33.0718 63.7777 33.1357Z" fill="#CCCCCC"/>
<path d="M67.031 31.9883V35.3348H67.3819L67.7327 35.0479V31.9883H67.031Z" fill="#CCCCCC"/>
<path d="M68.6889 33.7096C68.7201 33.6769 68.7841 33.6769 68.8808 33.6769C69.071 33.6769 69.2316 33.7408 69.3267 33.8687C69.4531 33.9638 69.517 34.1229 69.517 34.3147V34.6016L69.4531 34.6656H68.2102V35.2394H69.6449C69.7727 35.2394 69.899 35.2082 69.9957 35.1116L70.0909 35.0476L70.2499 35.2394H70.3139V34.6656H70.2187C70.186 34.6344 70.186 34.5704 70.186 34.4738V34.2508C70.186 33.9326 70.0909 33.6769 69.899 33.4539C69.6761 33.2293 69.3579 33.103 69.0071 33.103C68.848 33.103 68.7529 33.103 68.6889 33.1358V33.7096Z" fill="#CCCCCC"/>
<path d="M71.2069 35.5265C71.1429 35.5904 71.1117 35.6855 71.1117 35.7806C71.1117 35.8758 71.1429 35.9724 71.2069 36.0364C71.2708 36.1003 71.3659 36.1315 71.4626 36.1315C71.5593 36.1315 71.6529 36.1003 71.7184 36.0364C71.7823 35.9724 71.8135 35.8758 71.8135 35.7806C71.8135 35.6855 71.7823 35.5904 71.7184 35.5265C71.6544 35.4625 71.5593 35.4298 71.4626 35.4298C71.3659 35.4298 71.2708 35.4625 71.2069 35.5265ZM70.41 35.5265C70.3476 35.5904 70.3149 35.6855 70.3149 35.7806C70.3149 35.8758 70.3476 35.9724 70.41 36.0364C70.4739 36.1003 70.5706 36.1315 70.6657 36.1315C70.7609 36.1315 70.8248 36.1003 70.8887 36.0364C70.9839 35.9724 71.0166 35.8758 71.0166 35.7806C71.0166 35.6855 70.9839 35.5904 70.8887 35.5265C70.8248 35.4625 70.7609 35.4298 70.6657 35.4298C70.5706 35.4298 70.4739 35.4625 70.41 35.5265ZM71.1117 33.1031V34.569L71.0805 34.6329H70.2837V35.2068H71.2396C71.3987 35.2068 71.5577 35.1428 71.6544 35.015C71.7495 34.8871 71.8135 34.7592 71.8135 34.6329V33.1016H71.1117V33.1031Z" fill="#CCCCCC"/>
<path d="M73.0561 33.167V34.9837C73.0561 35.2706 72.9921 35.4624 72.897 35.5576C72.7691 35.6854 72.5773 35.7494 72.3231 35.7494L72.1313 35.7182H72.0674V35.9724L72.3543 36.3232H72.4822C72.6101 36.3232 72.7052 36.3232 72.8331 36.2921C73.0249 36.2281 73.2151 36.133 73.3742 36.0051C73.6299 35.8133 73.7578 35.4952 73.7578 35.0804V33.167H73.0561Z" fill="#CCCCCC"/>
<path d="M75.6387 34.6656H75.5109C75.1927 34.6656 75.0321 34.5081 75.0321 34.1556C75.0321 33.9981 75.0649 33.9014 75.1272 33.8063C75.1912 33.7112 75.2863 33.6785 75.383 33.6785L75.542 33.7424C75.606 33.7736 75.6372 33.8703 75.6372 33.9654V34.6656H75.6387ZM75.6387 35.2394C75.5436 35.5903 75.2879 35.7494 74.8746 35.7494C74.7467 35.7494 74.6204 35.7182 74.4926 35.7182V35.9412L74.7795 36.3232H75.0025C75.1615 36.3232 75.2894 36.292 75.4485 36.2593C75.6403 36.2281 75.7993 36.1314 75.9584 36.0035C76.1814 35.8133 76.3093 35.5575 76.342 35.2394H76.5011V34.6656H76.342V33.9654C76.342 33.6473 76.2453 33.4227 75.9912 33.2636C75.8321 33.167 75.6403 33.103 75.4173 33.103C75.0664 33.103 74.8122 33.1997 74.6204 33.4227C74.4286 33.613 74.3335 33.8687 74.3335 34.2196C74.3335 34.4753 74.4286 34.6983 74.5877 34.8901C74.7795 35.1131 75.0337 35.241 75.3518 35.241H75.6387V35.2394Z" fill="#CCCCCC"/>
<path d="M77.2958 33.1668V34.5703L77.2646 34.6342L77.2007 34.6654H76.4678V35.2393H77.4237C77.5828 35.2393 77.7418 35.1753 77.8697 35.0474L78.0615 35.2393H78.2206V34.6654H77.9976L77.9648 34.6342V33.1684H77.2958V33.1668ZM77.4564 32.2748C77.3925 32.3387 77.3301 32.4354 77.3301 32.529C77.3301 32.6226 77.3925 32.7208 77.4564 32.7847C77.5204 32.8487 77.5843 32.8814 77.7106 32.8814C77.8058 32.8814 77.8697 32.8487 77.9336 32.7847C78.0287 32.7208 78.0615 32.6257 78.0615 32.529C78.0615 32.4323 78.0287 32.3387 77.9336 32.2748C77.8697 32.2109 77.8058 32.1797 77.7106 32.1797C77.5828 32.1797 77.5204 32.2109 77.4564 32.2748ZM76.6268 32.2748C76.5629 32.3387 76.5317 32.4354 76.5317 32.529C76.5317 32.6226 76.5629 32.7208 76.6268 32.7847C76.6908 32.8487 76.7859 32.8814 76.881 32.8814C76.9761 32.8814 77.0728 32.8487 77.1368 32.7847C77.2007 32.7208 77.2319 32.6257 77.2319 32.529C77.2319 32.4323 77.2007 32.3387 77.1368 32.2748C77.0728 32.2109 76.9777 32.1797 76.881 32.1797C76.7843 32.1797 76.6908 32.2109 76.6268 32.2748Z" fill="#CCCCCC"/>
<path d="M78.9873 31.9883V34.6658H78.1904V35.2397H79.1152C79.3054 35.2397 79.466 35.1757 79.5612 35.0494C79.6563 34.9215 79.689 34.7937 79.689 34.6658V31.9883H78.9873Z" fill="#CCCCCC"/>
<path d="M80.3262 31.9883V35.3348H80.6755L81.0279 35.0479V31.9883H80.3262Z" fill="#CCCCCC"/>
<path d="M83.7373 34.6659H83.5471C83.4192 34.6659 83.3241 34.6019 83.2289 34.5068C83.1338 34.4101 83.1011 34.3165 83.1011 34.1559C83.1011 33.9953 83.1338 33.8706 83.2289 33.7739C83.2929 33.6787 83.388 33.646 83.5159 33.646L83.7389 33.6772V34.6659H83.7373ZM84.0882 32.9754L83.8964 33.1361C83.7373 33.0721 83.6094 33.0409 83.4504 33.0409C83.1634 33.0409 82.9077 33.1361 82.7486 33.3279C82.5256 33.5509 82.429 33.8378 82.429 34.1559C82.429 34.4429 82.4929 34.6659 82.6208 34.8577C82.7798 35.1118 83.0356 35.2397 83.3225 35.2397H83.3537C83.5455 35.2397 83.7357 35.1758 83.8964 35.0479C84.0242 35.1758 84.1521 35.2397 84.3112 35.2397H84.662V34.6659H84.503L84.439 34.6347V32.9754H84.0882ZM83.8324 32.2113C83.7685 32.2753 83.7373 32.372 83.7373 32.4655C83.7373 32.5591 83.7685 32.6573 83.8324 32.7213C83.8964 32.7852 83.993 32.8179 84.0882 32.8179C84.1833 32.8179 84.2472 32.7852 84.3424 32.7213C84.4063 32.6573 84.439 32.5622 84.439 32.4655C84.439 32.3688 84.4063 32.2753 84.3424 32.2113C84.2472 32.1474 84.1833 32.1162 84.0882 32.1162C83.993 32.1162 83.8964 32.1474 83.8324 32.2113ZM83.0044 32.2113C82.9404 32.2753 82.9077 32.372 82.9077 32.4655C82.9077 32.5591 82.9404 32.6573 83.0044 32.7213C83.0995 32.7852 83.1634 32.8179 83.2586 32.8179C83.3537 32.8179 83.4504 32.7852 83.5143 32.7213C83.5782 32.6573 83.6094 32.5622 83.6094 32.4655C83.6094 32.3688 83.5782 32.2753 83.5143 32.2113C83.4504 32.1474 83.3537 32.1162 83.2586 32.1162C83.1634 32.1162 83.0995 32.1474 83.0044 32.2113Z" fill="#CCCCCC"/>
<path d="M85.173 32.9114V33.4853L85.237 33.5492C85.5551 33.5492 85.8436 33.7083 86.129 33.9313C86.352 34.1215 86.4471 34.3461 86.4471 34.6003L86.3832 34.6642H84.6304V35.2381H86.6077C86.7668 35.2381 86.8946 35.1741 87.0225 35.079C87.1192 34.9527 87.1831 34.7921 87.1831 34.633C87.1831 34.3461 87.0864 34.0592 86.8962 33.7722C86.706 33.4541 86.4175 33.2311 86.0993 33.072L86.8962 32.5933V31.9243L85.1746 32.913L85.173 32.9114Z" fill="#CCCCCC"/>
<path d="M88.1701 33.1031V34.9526C88.1701 35.2083 88.1062 35.3986 87.9783 35.5265C87.852 35.6543 87.6602 35.7183 87.4044 35.7183L87.2126 35.6855H87.1487V35.9397L87.4356 36.2906H87.5947C87.9144 36.2906 88.1685 36.1954 88.3915 36.0364C88.6785 35.8446 88.8063 35.5576 88.8703 35.2068H89.0933V34.6329H88.8703V33.1016H88.1685L88.1701 33.1031Z" fill="#CCCCCC"/>
<path d="M93.6219 33.167V34.6017L93.5579 34.6656H92.6332V33.4212H91.9315V34.6017L91.8675 34.6656H90.9756V33.677H90.2754V34.6017L90.2114 34.6656H89.0637V35.2395H90.4344C90.5951 35.2395 90.7541 35.1756 90.8492 35.0165H90.882L91.0722 35.2395H92.0921C92.2512 35.2395 92.4102 35.1756 92.5381 35.0165L92.7299 35.2395H93.7513C93.9104 35.2395 94.0382 35.1756 94.1334 35.0804C94.2612 34.9526 94.2924 34.8247 94.2924 34.6656V33.167H93.6234H93.6219ZM92.4414 32.275C92.3775 32.339 92.3463 32.4341 92.3463 32.5292C92.3463 32.6244 92.3775 32.721 92.4414 32.785C92.5381 32.8489 92.602 32.8801 92.6972 32.8801C92.7923 32.8801 92.8874 32.8473 92.9513 32.785C93.0153 32.721 93.048 32.6259 93.048 32.5292C93.048 32.4325 93.0153 32.3374 92.9513 32.275C92.8874 32.2111 92.7923 32.1799 92.6972 32.1799C92.602 32.1799 92.5381 32.2111 92.4414 32.275ZM91.6461 32.275C91.5822 32.339 91.5494 32.4341 91.5494 32.5292C91.5494 32.6244 91.5822 32.721 91.6461 32.785C91.71 32.8489 91.8052 32.8801 91.9003 32.8801C91.9954 32.8801 92.0921 32.8473 92.156 32.785C92.22 32.721 92.2512 32.6259 92.2512 32.5292C92.2512 32.4325 92.22 32.3374 92.156 32.275C92.0921 32.2111 91.9954 32.1799 91.9003 32.1799C91.8052 32.1799 91.71 32.2111 91.6461 32.275ZM92.0921 31.6045C92.0282 31.6684 91.9954 31.7324 91.9954 31.8275C91.9954 31.9226 92.0282 31.9866 92.0921 32.0505C92.1233 32.1144 92.22 32.1456 92.3151 32.1456L92.5381 32.0505C92.602 31.9866 92.6332 31.9226 92.6332 31.8275C92.6332 31.7324 92.602 31.6684 92.5381 31.6045L92.3151 31.5078C92.22 31.5078 92.1233 31.5406 92.0921 31.6045Z" fill="#CCCCCC"/>
<path d="M14.9492 39.4697V42.18H15.5215V40.343L16.2451 41.9086H16.6365L17.3585 40.343V42.18H17.9012V39.4697H17.2088L16.426 41.1258L15.6416 39.4697H14.9492Z" fill="#CCCCCC"/>
<path d="M18.5029 39.4697V42.18H20.5816V41.6669H19.1064V41.065H20.4007V40.5535H19.1064V39.9812H20.552V39.4697H18.5029Z" fill="#CCCCCC"/>
<path d="M23.0218 40.3117L23.3836 39.8906C23.262 39.7393 23.0827 39.6489 22.9018 39.56C22.7209 39.4992 22.5104 39.4399 22.3295 39.4399C22.0581 39.4399 21.7868 39.5008 21.5763 39.6208C21.3657 39.7409 21.1848 39.9218 21.0632 40.1027C20.9431 40.3132 20.8823 40.5549 20.8823 40.8263C20.8823 41.0664 20.9431 41.3081 21.0632 41.5186C21.1833 41.7292 21.3642 41.8804 21.5763 42.0005C21.7868 42.1206 22.0285 42.1814 22.2983 42.211C22.5088 42.1814 22.6897 42.1502 22.9002 42.0598C23.0811 41.9693 23.2324 41.8492 23.3821 41.698L23.0203 41.3362C22.9298 41.4266 22.8098 41.4859 22.6897 41.5467C22.5696 41.6075 22.448 41.6372 22.3279 41.6372C22.1766 41.6372 22.0269 41.6075 21.9053 41.5171C21.7852 41.4563 21.6948 41.3658 21.6043 41.2457C21.5435 41.0945 21.5139 40.976 21.5139 40.7935C21.5139 40.6423 21.5435 40.4925 21.6043 40.3725C21.6948 40.2524 21.7852 40.162 21.9053 40.0715C22.0254 40.0107 22.1766 39.9811 22.3279 39.9811C22.448 39.9811 22.5681 40.0107 22.7193 40.0715C22.8394 40.1308 22.9298 40.2228 23.0203 40.3117" fill="#CCCCCC"/>
<path d="M23.7454 39.4697V42.18H24.3769V41.0962H25.5824V42.18H26.2155V39.4697H25.5824V40.5847H24.3769V39.4697H23.7454Z" fill="#CCCCCC"/>
<path d="M28.8064 42.1801H29.4395L28.2949 39.4683H27.6618L26.4875 42.1801H27.1207L27.3312 41.6374H28.5959L28.8064 42.1801ZM27.5417 41.1555L27.9628 40.1014L28.3838 41.1555H27.5402H27.5417Z" fill="#CCCCCC"/>
<path d="M29.7393 39.4697V42.18H30.3131V40.4334L31.6074 42.18H32.1797V39.4697H31.6074V41.2163L30.2819 39.4697H29.7393Z" fill="#CCCCCC"/>
<path d="M33.3844 39.4697H32.7825V42.1815H33.3844V39.4697Z" fill="#CCCCCC"/>
<path d="M35.9454 40.3117L36.3072 39.8906C36.1559 39.7393 36.0062 39.6489 35.7957 39.56C35.6148 39.4992 35.4339 39.4399 35.2234 39.4399C34.9521 39.4399 34.7119 39.5008 34.5014 39.6208C34.2909 39.7409 34.11 39.9218 33.9884 40.1027C33.8683 40.3132 33.8075 40.5549 33.7778 40.8263C33.809 41.0664 33.8683 41.3081 33.9884 41.5186C34.1084 41.7292 34.2597 41.8804 34.4702 42.0005C34.6807 42.1206 34.9521 42.1814 35.1938 42.211C35.4043 42.1814 35.6148 42.1502 35.7957 42.0598C35.9766 41.9693 36.1575 41.8492 36.3072 41.698L35.9454 41.3362C35.855 41.4266 35.7349 41.4859 35.6148 41.5467C35.4947 41.6075 35.3731 41.6372 35.253 41.6372C35.0721 41.6372 34.9521 41.6075 34.8304 41.5171C34.6792 41.4563 34.5903 41.3658 34.5295 41.2457C34.4687 41.0945 34.4094 40.976 34.4094 40.7935C34.4094 40.6423 34.4702 40.4925 34.5295 40.3725C34.5903 40.2524 34.6807 40.162 34.8304 40.0715C34.9505 40.0107 35.0721 39.9811 35.253 39.9811C35.3731 39.9811 35.4932 40.0107 35.6148 40.0715C35.7349 40.1308 35.8565 40.2228 35.9454 40.3117Z" fill="#CCCCCC"/>
<path d="M38.6256 42.1801H39.2884L38.1438 39.4683H37.5107L36.3364 42.1801H36.9695L37.1801 41.6374H38.4151L38.6256 42.1801ZM37.361 41.1555L37.8132 40.1014L38.2342 41.1555H37.361Z" fill="#CCCCCC"/>
<path d="M39.5598 39.4697V42.18H41.3375V41.6373H40.1929V39.4697H39.5598Z" fill="#CCCCCC"/>
<path d="M47.812 40.3117L48.1441 39.8906C48.0225 39.7393 47.8416 39.6489 47.6623 39.56C47.4814 39.4992 47.3005 39.4399 47.09 39.4399C46.8186 39.4399 46.5769 39.5008 46.3368 39.6208C46.1262 39.7409 45.975 39.9218 45.8237 40.1027C45.7036 40.3132 45.6428 40.5549 45.6428 40.8263C45.6428 41.0664 45.7036 41.3081 45.8237 41.5186C45.9453 41.7292 46.1247 41.8804 46.3368 42.0005C46.5473 42.1206 46.7874 42.1814 47.0588 42.211C47.2693 42.1814 47.4502 42.1502 47.6607 42.0598C47.8416 41.9693 48.0225 41.8492 48.1722 41.698L47.8104 41.3362C47.6888 41.4266 47.5999 41.4859 47.4783 41.5467C47.3285 41.6075 47.2069 41.6372 47.0868 41.6372C46.9356 41.6372 46.7843 41.6075 46.6658 41.5171C46.5457 41.4563 46.4537 41.3658 46.3945 41.2457C46.304 41.0945 46.2744 40.976 46.2744 40.7935C46.2744 40.6423 46.304 40.4925 46.3945 40.3725C46.4537 40.2524 46.5457 40.162 46.6658 40.0715C46.7859 40.0107 46.9371 39.9811 47.0868 39.9811C47.2365 39.9811 47.3566 40.0107 47.4783 40.0715C47.5999 40.1308 47.6888 40.2228 47.8104 40.3117" fill="#CCCCCC"/>
<path d="M48.5339 39.4697V42.18H49.1374V41.0962H50.3413V42.18H50.9744V39.4697H50.3413V40.5847H49.1374V39.4697H48.5339Z" fill="#CCCCCC"/>
<path d="M51.5466 39.4697V42.18H53.655V41.6669H52.1798V41.065H53.4741V40.5535H52.1798V39.9812H53.6253V39.4697H51.5466Z" fill="#CCCCCC"/>
<path d="M54.1367 39.4697V42.18H54.709V40.343L55.403 41.9086H55.824L56.5164 40.343V42.18H57.0887V39.4697H56.3963L55.6135 41.1258L54.8307 39.4697H54.1367Z" fill="#CCCCCC"/>
<path d="M58.2948 39.4697H57.6929V42.1815H58.2948V39.4697Z" fill="#CCCCCC"/>
<path d="M60.8546 40.3117L61.1868 39.8906C61.0667 39.7393 60.9154 39.6489 60.7049 39.56C60.524 39.4992 60.3431 39.4399 60.1326 39.4399C59.8613 39.4399 59.6195 39.5008 59.409 39.6208C59.1689 39.7409 59.0176 39.9218 58.8975 40.1027C58.7463 40.3132 58.687 40.5549 58.687 40.8263C58.687 41.0664 58.7478 41.3081 58.8679 41.5186C59.0192 41.7292 59.1689 41.8804 59.381 42.0005C59.5915 42.1206 59.8332 42.1814 60.103 42.211C60.3135 42.1814 60.4944 42.1502 60.7065 42.0598C60.8873 41.9693 61.0682 41.8492 61.2179 41.698L60.8562 41.3362C60.7361 41.4266 60.6456 41.4859 60.524 41.5467C60.4039 41.6075 60.2527 41.6372 60.1326 41.6372C59.9813 41.6372 59.8316 41.6075 59.7115 41.5171C59.5899 41.4563 59.4995 41.3658 59.4402 41.2457C59.3498 41.0945 59.3201 40.976 59.3201 40.7935C59.3201 40.6423 59.3498 40.4925 59.4402 40.3725C59.4995 40.2524 59.5915 40.162 59.7115 40.0715C59.8316 40.0107 59.9813 39.9811 60.1326 39.9811C60.2839 39.9811 60.4039 40.0107 60.524 40.0715C60.6441 40.1308 60.7657 40.2228 60.8562 40.3117" fill="#CCCCCC"/>
<path d="M63.5355 42.1801H64.1982L63.0225 39.4683H62.3909L61.2151 42.1801H61.8482L62.0587 41.6374H63.3234L63.5339 42.1801H63.5355ZM62.2708 41.1555L62.6919 40.1014L63.1145 41.1555H62.2708Z" fill="#CCCCCC"/>
<path d="M64.4702 39.4697V42.18H66.2479V41.6373H65.0721V39.4697H64.4702Z" fill="#CCCCCC"/>
<path d="M69.53 40.2228L69.7702 39.7409C69.6501 39.6505 69.5004 39.56 69.3179 39.5304C69.137 39.4696 68.9561 39.4399 68.7456 39.4399C68.4431 39.4399 68.1718 39.5008 67.9924 39.6505C67.8115 39.8017 67.7211 39.9826 67.6915 40.2228C67.7211 40.4333 67.7523 40.5846 67.8412 40.675C67.9628 40.7951 68.0829 40.8559 68.2029 40.9151C68.3542 40.976 68.5039 41.0056 68.624 41.0664C68.7752 41.0976 68.8953 41.1272 68.9858 41.1865C69.1058 41.2473 69.137 41.3066 69.137 41.397C69.137 41.4875 69.1074 41.5483 69.0466 41.6075C68.9561 41.6387 68.8657 41.6683 68.7456 41.6683C68.5944 41.6683 68.4431 41.6387 68.2638 41.5483C68.0829 41.4875 67.9332 41.397 67.7819 41.2473L67.5417 41.7603C67.693 41.8804 67.8739 42.0005 68.0829 42.0613C68.2934 42.1518 68.5039 42.183 68.7456 42.183C68.9265 42.183 69.1074 42.1518 69.2883 42.0925C69.4396 42.0317 69.5581 41.9412 69.6501 41.8212C69.7405 41.7011 69.8013 41.5498 69.8013 41.3689C69.8013 41.188 69.7405 41.0383 69.6501 40.9167C69.5596 40.8278 69.4396 40.7358 69.2883 40.6766C69.137 40.6157 69.017 40.5861 68.8657 40.5253C68.7144 40.4941 68.5944 40.4645 68.5039 40.4052C68.4135 40.3444 68.3542 40.2851 68.3542 40.1931C68.3542 40.1011 68.3854 40.0419 68.4446 40.0122C68.5055 39.9826 68.5959 39.953 68.716 39.953C68.8064 39.953 68.9577 39.9842 69.1074 40.0434C69.2587 40.0731 69.4084 40.1635 69.5284 40.2243" fill="#CCCCCC"/>
<path d="M70.7965 41.0355V39.4683H70.1633V41.0355C70.193 41.3973 70.2834 41.6686 70.4955 41.8791C70.7356 42.0896 71.0366 42.1801 71.3984 42.2097C71.7898 42.1801 72.0611 42.0896 72.3028 41.8791C72.5134 41.6686 72.6054 41.3973 72.6054 41.0355V39.4683H72.0019V41.0355C72.0019 41.246 71.9411 41.3973 71.8506 41.4877C71.7305 41.6078 71.5793 41.6686 71.3984 41.6686C71.2175 41.6686 71.0678 41.6078 70.9462 41.4877C70.8557 41.3973 70.7949 41.2476 70.7949 41.0355" fill="#CCCCCC"/>
<path d="M74.3209 39.4683H73.1763V42.1801H73.7782V41.3973H74.3193C74.6515 41.3973 74.9228 41.3068 75.1021 41.1259C75.283 40.9762 75.3735 40.7345 75.4047 40.4039C75.3735 40.1029 75.283 39.8612 75.1021 39.71C74.9213 39.5587 74.6515 39.4683 74.3193 39.4683M74.2912 40.8858H73.7798V39.9813H74.2912C74.4425 39.9813 74.5922 40.0109 74.6827 40.0718C74.7731 40.1622 74.8043 40.2823 74.8043 40.4335C74.8043 40.5848 74.7731 40.7049 74.6827 40.7657C74.5922 40.8561 74.4425 40.8858 74.2912 40.8858Z" fill="#CCCCCC"/>
<path d="M76.9406 39.4683H75.7664V42.1801H76.3995V41.3973H76.9422C77.2727 41.3973 77.5456 41.3068 77.725 41.1259C77.9059 40.9762 77.9963 40.7345 77.9963 40.4039C77.9963 40.1029 77.9059 39.8612 77.725 39.71C77.5441 39.5587 77.2727 39.4683 76.9422 39.4683M76.911 40.8858H76.3995V39.9813H76.911C77.0622 39.9813 77.2119 40.0109 77.3024 40.0718C77.3928 40.1622 77.424 40.2823 77.424 40.4335C77.424 40.5848 77.3928 40.7049 77.3024 40.7657C77.2119 40.8561 77.0622 40.8858 76.911 40.8858Z" fill="#CCCCCC"/>
<path d="M78.3882 39.4697V42.18H80.1644V41.6373H79.0197V39.4697H78.3882Z" fill="#CCCCCC"/>
<path d="M81.1281 39.4697H80.5261V42.1815H81.1281V39.4697Z" fill="#CCCCCC"/>
<path d="M81.7312 39.4697V42.18H83.8395V41.6669H82.3643V41.065H83.6586V40.5535H82.3643V39.9812H83.8099V39.4697H81.7312Z" fill="#CCCCCC"/>
<path d="M86.0995 40.2228L86.3396 39.7409C86.1899 39.6505 86.0387 39.56 85.8593 39.5304C85.6784 39.4696 85.4976 39.4399 85.3167 39.4399C84.9845 39.4399 84.7428 39.5008 84.5635 39.6505C84.3529 39.8017 84.2625 39.9826 84.2625 40.2228C84.2625 40.4333 84.3233 40.5846 84.4138 40.675C84.5042 40.7951 84.6243 40.8559 84.7755 40.9151C84.9268 40.976 85.0469 41.0056 85.1966 41.0664C85.3463 41.0976 85.4664 41.1272 85.5584 41.1865C85.6488 41.2473 85.7096 41.3066 85.7096 41.397C85.7096 41.4875 85.68 41.5483 85.5896 41.6075C85.5287 41.6387 85.4383 41.6683 85.3182 41.6683C85.167 41.6683 84.9861 41.6387 84.8364 41.5483C84.6555 41.4875 84.5042 41.397 84.3545 41.2473L84.1128 41.7603C84.2641 41.8804 84.4449 42.0005 84.6555 42.0613C84.866 42.1518 85.0765 42.183 85.2886 42.183C85.5007 42.183 85.68 42.1518 85.8313 42.0925C86.0122 42.0317 86.1322 41.9412 86.2227 41.8212C86.3131 41.7011 86.3428 41.5498 86.3428 41.3689C86.3428 41.188 86.3131 41.0383 86.2227 40.9167C86.1026 40.8278 86.0122 40.7358 85.8625 40.6766C85.7112 40.6157 85.5615 40.5861 85.4399 40.5253C85.2886 40.4941 85.1685 40.4645 85.0781 40.4052C84.9876 40.3444 84.9284 40.2851 84.9284 40.1931C84.9284 40.1011 84.9596 40.0419 85.0188 40.0122C85.0796 39.9826 85.1701 39.953 85.2605 39.953C85.3806 39.953 85.5007 39.9842 85.6519 40.0434C85.8032 40.0731 85.9529 40.1635 86.1042 40.2243" fill="#CCCCCC"/>
<path d="M89.8948 40.3117L90.2566 39.8906C90.1365 39.7393 89.9556 39.6489 89.7747 39.56C89.5938 39.4992 89.3833 39.4399 89.2024 39.4399C88.9014 39.4399 88.6613 39.5008 88.4492 39.6208C88.2387 39.7409 88.0578 39.9218 87.9377 40.1027C87.8176 40.3132 87.7568 40.5549 87.7568 40.8263C87.7568 41.0664 87.8176 41.3081 87.9377 41.5186C88.0594 41.7292 88.2403 41.8804 88.4492 42.0005C88.6613 42.1206 88.9014 42.1814 89.1728 42.211C89.3833 42.1814 89.5642 42.1502 89.7451 42.0598C89.9572 41.9693 90.1069 41.8492 90.2581 41.698L89.8964 41.3362C89.8059 41.4266 89.6843 41.4859 89.5642 41.5467C89.4426 41.6075 89.3225 41.6372 89.2024 41.6372C89.0527 41.6372 88.9014 41.6075 88.7814 41.5171C88.6613 41.4563 88.5709 41.3658 88.4804 41.2457C88.4196 41.0945 88.39 40.976 88.39 40.7935C88.39 40.6423 88.4211 40.4925 88.4804 40.3725C88.5709 40.2524 88.6613 40.162 88.7814 40.0715C88.9014 40.0107 89.0527 39.9811 89.2024 39.9811C89.3225 39.9811 89.4426 40.0107 89.5642 40.0715C89.6843 40.1308 89.8044 40.2228 89.8964 40.3117" fill="#CCCCCC"/>
<path d="M91.8216 39.4385C91.5502 39.4385 91.3085 39.4993 91.098 39.6194C90.8563 39.741 90.7066 39.8907 90.5865 40.1012C90.4352 40.3117 90.376 40.5535 90.376 40.8232C90.376 41.0634 90.4368 41.3051 90.5865 41.5156C90.7066 41.7261 90.8578 41.8774 91.098 41.9975C91.3085 42.1175 91.5502 42.1784 91.8216 42.208C92.1225 42.1784 92.3642 42.1175 92.5748 41.9975C92.7853 41.8758 92.9662 41.7261 93.0862 41.5156C93.2063 41.3035 93.2671 41.0634 93.2983 40.8232C93.2671 40.5519 93.2079 40.3102 93.0862 40.1012C92.9662 39.9203 92.7853 39.7394 92.5748 39.6194C92.3642 39.4993 92.1225 39.4385 91.8216 39.4385ZM91.8512 39.9812C92.0024 39.9812 92.1225 40.0108 92.2426 40.1012C92.3627 40.162 92.4827 40.2509 92.5436 40.3726C92.6044 40.5238 92.6636 40.6439 92.6636 40.8248C92.6636 40.9761 92.6028 41.1258 92.5436 41.2458C92.4843 41.3675 92.3642 41.4875 92.2426 41.5484C92.1225 41.6076 92.0024 41.6684 91.8512 41.6684C91.6999 41.6684 91.5502 41.6076 91.4301 41.5484C91.3101 41.4875 91.1884 41.3675 91.1292 41.2458C91.0387 41.1258 91.0075 40.9761 91.0075 40.8248C91.0075 40.6439 91.0387 40.5238 91.1292 40.3726C91.1884 40.2509 91.3101 40.162 91.4301 40.1012C91.5502 40.0108 91.6703 39.9812 91.8512 39.9812Z" fill="#CCCCCC"/>
<path d="M93.7497 41.5781C93.6593 41.5781 93.5984 41.6078 93.5392 41.6686C93.4799 41.7294 93.4487 41.7886 93.4487 41.9087C93.4487 41.9992 93.4799 42.06 93.5392 42.1208C93.6 42.1816 93.6593 42.2112 93.7497 42.2112C93.8401 42.2112 93.901 42.1816 93.9618 42.1208C94.021 42.06 94.0507 41.9992 94.0507 41.9087C94.0507 41.7886 94.021 41.7278 93.9618 41.6686C93.901 41.6078 93.8401 41.5781 93.7497 41.5781Z" fill="#CCCCCC"/>
<path d="M42.2773 41.4362C42.2773 41.3567 42.2882 41.2819 42.3116 41.2133C42.335 41.1431 42.3693 41.0776 42.4161 41.0152C42.4629 40.9528 42.519 40.8936 42.5876 40.8374C42.6562 40.7813 42.7358 40.7267 42.8246 40.6721C42.7747 40.6066 42.7295 40.5458 42.6921 40.4881C42.6547 40.4304 42.6235 40.3758 42.6001 40.3244C42.5751 40.2729 42.5564 40.223 42.5455 40.1747C42.533 40.1279 42.5268 40.0811 42.5268 40.0343C42.5268 39.9361 42.5439 39.8425 42.5798 39.7568C42.6141 39.6694 42.6703 39.5946 42.7436 39.5306C42.8184 39.4667 42.9135 39.4168 43.0289 39.3794C43.1443 39.342 43.2831 39.3232 43.4453 39.3232C43.5934 39.3232 43.7197 39.3373 43.8273 39.3653C43.9349 39.3934 44.0223 39.434 44.0909 39.4854C44.1595 39.5369 44.211 39.6008 44.2453 39.6757C44.2796 39.7505 44.2967 39.8363 44.2967 39.9299C44.2967 40.0141 44.2827 40.0936 44.2531 40.1653C44.2234 40.2371 44.1798 40.3057 44.1221 40.3712C44.0628 40.4367 43.9911 40.499 43.9038 40.5583C43.8164 40.6176 43.7135 40.6784 43.5981 40.7392C43.6355 40.7829 43.6792 40.8296 43.726 40.878C43.7728 40.9263 43.8211 40.9747 43.871 41.023C43.9209 41.0713 43.9708 41.1197 44.0223 41.168C44.0722 41.2164 44.1221 41.26 44.1704 41.3021C44.1891 41.2741 44.2047 41.2413 44.2203 41.2039C44.2359 41.1665 44.2484 41.129 44.2577 41.0885C44.2687 41.048 44.2765 41.0059 44.2827 40.9637C44.2889 40.9216 44.2921 40.8795 44.2921 40.839V40.7735C44.2921 40.7579 44.2952 40.7454 44.2998 40.733C44.3045 40.722 44.317 40.7127 44.3342 40.7049C44.3513 40.6971 44.3763 40.6924 44.4106 40.6893C44.4433 40.6862 44.487 40.6846 44.5384 40.6846C44.5899 40.6846 44.6289 40.6846 44.6616 40.6877C44.6944 40.6893 44.7193 40.694 44.738 40.7018C44.7568 40.7096 44.7708 40.7189 44.7786 40.7298C44.7864 40.7423 44.7895 40.7579 44.7895 40.7751V40.8421C44.7895 40.9092 44.7848 40.9778 44.7755 41.048C44.7661 41.1166 44.7505 41.1852 44.7318 41.2507C44.7131 41.3162 44.6897 41.3785 44.6616 41.4394C44.6336 41.5002 44.6024 41.5548 44.5696 41.6078C44.6195 41.6452 44.6616 41.678 44.6975 41.7029C44.7334 41.7279 44.7646 41.7481 44.7895 41.7637C44.8145 41.7793 44.8363 41.7887 44.8534 41.7949C44.8706 41.8011 44.8846 41.8027 44.8955 41.8027H44.9392C44.9532 41.8027 44.9642 41.8074 44.972 41.8167C44.9798 41.8277 44.986 41.8448 44.9907 41.8698C44.9953 41.8947 44.9969 41.9321 44.9969 41.982C44.9969 42.0335 44.9969 42.0756 44.9938 42.1052C44.9922 42.1349 44.9876 42.1567 44.9829 42.1707C44.9782 42.1848 44.9688 42.1957 44.9579 42.205C44.947 42.2144 44.9267 42.2222 44.8971 42.23C44.869 42.2378 44.8347 42.2409 44.7957 42.2409C44.7646 42.2409 44.7318 42.2362 44.6991 42.23C44.6663 42.2222 44.6273 42.2066 44.5837 42.1848C44.54 42.1629 44.4885 42.1349 44.4308 42.099C44.3731 42.0631 44.3061 42.0164 44.2297 41.9602C44.1642 42.0054 44.0956 42.046 44.0254 42.0818C43.9552 42.1177 43.8819 42.1473 43.804 42.1707C43.7275 42.1957 43.648 42.2128 43.5669 42.2253C43.4858 42.2378 43.3985 42.244 43.3049 42.244C43.2114 42.244 43.1241 42.2362 43.0367 42.2222C42.9494 42.2082 42.8667 42.1863 42.7903 42.1583C42.7139 42.1302 42.6438 42.0928 42.5798 42.0491C42.5159 42.0054 42.4613 41.954 42.4176 41.8932C42.3724 41.8323 42.3381 41.7653 42.3116 41.6873C42.2866 41.6109 42.2742 41.5251 42.2742 41.4331M42.8512 41.4066C42.8512 41.4674 42.8621 41.5236 42.8855 41.5735C42.9073 41.6234 42.94 41.6686 42.9821 41.7045C43.0242 41.7419 43.0773 41.77 43.1396 41.7902C43.202 41.8105 43.2738 41.8214 43.3564 41.8214C43.3985 41.8214 43.4406 41.8167 43.4827 41.8105C43.5233 41.8027 43.5654 41.7918 43.6043 41.7793C43.6449 41.7653 43.6823 41.7497 43.7182 41.731C43.7541 41.7123 43.7884 41.6904 43.818 41.6686C43.7541 41.6171 43.6917 41.5641 43.6262 41.5064C43.5622 41.4503 43.4999 41.391 43.4391 41.3333C43.3782 41.2756 43.3205 41.2179 43.2644 41.1618C43.2083 41.1041 43.1584 41.0511 43.1163 40.9996C43.0664 41.0308 43.0258 41.0635 42.9931 41.0963C42.9603 41.129 42.9322 41.1633 42.912 41.1961C42.8917 41.2304 42.8745 41.2647 42.8652 41.299C42.8558 41.3349 42.8496 41.3708 42.8496 41.4066M43.0882 40.0078C43.0882 40.0375 43.0929 40.0686 43.1022 40.0998C43.1116 40.1326 43.1256 40.1653 43.1428 40.1996C43.1599 40.2339 43.1833 40.2714 43.2098 40.3104C43.2363 40.3493 43.266 40.3914 43.3003 40.4367C43.3829 40.3914 43.4531 40.3493 43.5077 40.3119C43.5638 40.2745 43.6075 40.2371 43.6418 40.2012C43.6761 40.1653 43.6995 40.1295 43.7135 40.0936C43.7275 40.0577 43.7353 40.0203 43.7353 39.9829C43.7353 39.9486 43.7291 39.9174 43.7166 39.8878C43.7042 39.8581 43.6839 39.8316 43.6574 39.8113C43.6309 39.7895 43.5981 39.7724 43.5576 39.7599C43.5186 39.7474 43.4718 39.7412 43.4188 39.7412C43.3595 39.7412 43.3096 39.7474 43.2675 39.7614C43.2254 39.7755 43.1911 39.7942 43.1646 39.8191C43.1381 39.8441 43.1178 39.8722 43.1053 39.9065C43.0929 39.9392 43.0866 39.9751 43.0866 40.0125" fill="#CCCCCC"/>
</svg>
