<svg width="110" height="45" viewBox="0 0 110 45" fill="none" xmlns="http://www.w3.org/2000/svg">
<path d="M76.9487 3.69238H35.4692V44.0733H76.9487V3.69238Z" fill="#B3B3B3"/>
<path d="M67.8048 12.7459C67.8087 12.5885 67.8589 12.4356 67.9492 12.3066C68.0396 12.1776 68.166 12.078 68.3126 12.0204C68.4592 11.9629 68.6195 11.9498 68.7735 11.9829C68.9275 12.016 69.0683 12.0938 69.1783 12.2065C69.2883 12.3193 69.3627 12.462 69.392 12.6167C69.4213 12.7715 69.4043 12.9315 69.3432 13.0766C69.282 13.2218 69.1794 13.3457 69.0482 13.4328C68.917 13.52 68.763 13.5665 68.6055 13.5665C68.4984 13.5675 68.3922 13.5467 68.2933 13.5056C68.1944 13.4644 68.1049 13.4037 68.0301 13.327C67.9553 13.2504 67.8967 13.1594 67.858 13.0595C67.8193 12.9596 67.8012 12.853 67.8048 12.7459ZM68.5989 13.7253C68.792 13.7227 68.98 13.6631 69.1393 13.5539C69.2987 13.4447 69.4221 13.2908 69.4942 13.1116C69.5663 12.9325 69.5839 12.736 69.5446 12.5469C69.5053 12.3578 69.411 12.1845 69.2735 12.0488C69.136 11.9132 68.9615 11.8212 68.7719 11.7845C68.5823 11.7477 68.386 11.7679 68.2078 11.8424C68.0296 11.9169 67.8775 12.0424 67.7704 12.2032C67.6634 12.364 67.6062 12.5528 67.6062 12.7459C67.6053 12.8759 67.6305 13.0048 67.6802 13.1249C67.7299 13.245 67.8032 13.3539 67.8958 13.4452C67.9883 13.5365 68.0982 13.6083 68.219 13.6565C68.3397 13.7046 68.4689 13.728 68.5989 13.7253ZM68.3937 12.8253H68.5923L68.8901 13.315H69.082L68.7577 12.8187C68.7979 12.8188 68.8378 12.8106 68.8748 12.7949C68.9118 12.7791 68.9453 12.7559 68.9731 12.7269C69.0009 12.6978 69.0226 12.6634 69.0367 12.6257C69.0509 12.588 69.0573 12.5479 69.0555 12.5077C69.0555 12.2827 68.9231 12.1834 68.6518 12.1834H68.2217V13.315H68.3937V12.8253ZM68.3937 12.6797V12.329H68.6253C68.7445 12.329 68.8768 12.329 68.8768 12.4945C68.8768 12.6599 68.7445 12.6797 68.5989 12.6797H68.3937Z" fill="white"/>
<path d="M70.1158 30.8379C70.1158 30.6273 70.1994 30.4253 70.3484 30.2764C70.4973 30.1275 70.6993 30.0438 70.9099 30.0438C71.1205 30.0438 71.3225 30.1275 71.4714 30.2764C71.6203 30.4253 71.704 30.6273 71.704 30.8379C71.704 31.0485 71.6203 31.2505 71.4714 31.3994C71.3225 31.5484 71.1205 31.632 70.9099 31.632C70.6993 31.632 70.4973 31.5484 70.3484 31.3994C70.1994 31.2505 70.1158 31.0485 70.1158 30.8379ZM70.9099 31.8173C71.1731 31.8173 71.4256 31.7127 71.6118 31.5266C71.7979 31.3404 71.9025 31.0879 71.9025 30.8247C71.9025 30.5614 71.7979 30.3089 71.6118 30.1228C71.4256 29.9366 71.1731 29.832 70.9099 29.832C70.6466 29.832 70.3941 29.9366 70.208 30.1228C70.0218 30.3089 69.9172 30.5614 69.9172 30.8247C69.9172 31.0879 70.0218 31.3404 70.208 31.5266C70.3941 31.7127 70.6466 31.8173 70.9099 31.8173ZM70.6783 30.9173H70.8702L71.168 31.407H71.3665L71.0422 30.9041C71.0825 30.9052 71.1225 30.8978 71.1597 30.8822C71.1969 30.8667 71.2303 30.8435 71.2578 30.8141C71.2854 30.7847 71.3063 30.7498 71.3194 30.7117C71.3324 30.6736 71.3372 30.6332 71.3334 30.5931C71.3334 30.3747 71.2011 30.2754 70.9364 30.2754H70.5062V31.4004H70.6783V30.9173ZM70.6783 30.7717V30.4409H70.9099C71.029 30.4409 71.1614 30.4409 71.1614 30.6063C71.1614 30.7717 71.029 30.7916 70.8834 30.7916L70.6783 30.7717Z" fill="white"/>
<path d="M65.4249 9.30404L55.2337 15.9217L42.5212 8.21875L67.0065 8.26507L65.4249 9.30404Z" fill="white"/>
<path d="M40.8237 18.0334C40.8237 16.9283 40.8237 15.8231 40.8237 14.7246L50.0884 14.7908L54.9722 17.6364L59.5649 14.7246H68.7435C68.7435 19.2952 68.7435 23.8658 68.7435 28.4364L60.5641 28.3702V25.0614L54.8597 28.4562L49.0759 24.8033C49.0759 25.9878 49.0759 27.179 49.0759 28.3636L40.8303 28.2974C40.8127 24.8739 40.8105 21.4526 40.8237 18.0334Z" fill="white"/>
<path d="M43.9205 30.2754H45.0654V34.4114H44.2779V31.1952V31.3805L43.3977 33.9349H42.6631L41.783 31.4335V31.1952V34.4114H41.022V30.2754H42.1668L43.047 33.0482L43.9205 30.2754Z" fill="white"/>
<path d="M46.785 34.2526C46.5368 34.1547 46.3275 33.978 46.1894 33.7497C46.0511 33.4964 45.9826 33.2109 45.9909 32.9224V30.2754H46.8578V32.9224C46.8521 33.0238 46.868 33.1252 46.9045 33.2199C46.941 33.3146 46.9973 33.4004 47.0696 33.4717C47.2384 33.6104 47.4539 33.6791 47.6718 33.6636C47.8898 33.6797 48.1055 33.611 48.274 33.4717C48.3493 33.4027 48.4076 33.3172 48.4443 33.2219C48.4811 33.1266 48.4952 33.0241 48.4858 32.9224V30.2754H49.3593V32.9224C49.3676 33.2109 49.2991 33.4964 49.1608 33.7497C49.0286 33.9801 48.8271 34.163 48.585 34.2725C48.2972 34.3975 47.9856 34.4585 47.6718 34.4511C47.3653 34.4499 47.0628 34.3822 46.785 34.2526Z" fill="white"/>
<path d="M50.2764 30.2754H51.1433V34.4114H50.2764V30.2754ZM50.5874 30.2754H53.3602V31.0232H50.5874V30.2754ZM50.5874 31.9761H53.0161V32.7239H50.5874V31.9761ZM50.5874 33.6438H53.3602V34.4114H50.5874V33.6438Z" fill="white"/>
<path d="M54.1331 30.2754H55V34.4114H54.1331V30.2754ZM54.5169 33.6438H57.2433V34.4114H54.5367L54.5169 33.6438Z" fill="white"/>
<path d="M57.8711 30.2754H58.7645V34.4114H57.8711V30.2754ZM58.2615 33.6438H60.9615V34.4114H58.2615V33.6438Z" fill="white"/>
<path d="M61.5986 30.2754H62.4655V34.4114H61.5986V30.2754ZM61.9097 30.2754H64.6825V31.0232H61.9097V30.2754ZM61.9097 31.9761H64.3317V32.7239H61.9097V31.9761ZM61.9097 33.6438H64.6825V34.4114H61.9097V33.6438Z" fill="white"/>
<path d="M65.4763 30.2758H66.3432V34.4119H65.4763V30.2758ZM65.8204 31.9898H67.4219C67.5052 31.9914 67.5874 31.9709 67.6601 31.9303C67.7273 31.8898 67.7804 31.8297 67.8123 31.7582C67.8529 31.6807 67.8734 31.5942 67.8719 31.5067C67.8763 31.4176 67.8581 31.3288 67.819 31.2486C67.7822 31.1799 67.7273 31.1227 67.6601 31.0832C67.5877 31.042 67.5053 31.0214 67.4219 31.0236H65.8204V30.2758H67.4947C67.7246 30.2699 67.9522 30.3223 68.1565 30.428C68.3435 30.5245 68.4978 30.6742 68.5998 30.8582C68.7096 31.0612 68.7643 31.2893 68.7587 31.52C68.7672 31.7509 68.7123 31.9798 68.5998 32.1817C68.4979 32.3675 68.3437 32.5193 68.1565 32.6185C67.9509 32.7204 67.7242 32.7726 67.4947 32.7707H65.8204V31.9898ZM66.7866 32.6053L67.7197 32.4795L68.9638 34.4119H67.9116L66.7866 32.6053Z" fill="white"/>
<path d="M41.5617 35.623V38.4753H41.1978V35.623H41.5617Z" fill="white"/>
<path d="M42.5315 38.4753V35.623H43.0344C43.5638 36.2848 44.7749 37.8135 45.0197 38.1245C45.0197 37.7341 45.0197 37.2973 45.0197 36.801V35.623H45.3705V38.4753H44.8675L42.8822 35.9208C42.8822 36.2716 42.8822 36.715 42.8822 37.2444V38.4885L42.5315 38.4753Z" fill="white"/>
<path d="M46.2852 35.623H47.516C48.5021 35.623 49.1771 36.1657 49.1771 37.026C49.1729 37.2335 49.1254 37.4379 49.0377 37.626C48.9499 37.8141 48.8237 37.9818 48.6673 38.1182C48.5109 38.2547 48.3277 38.357 48.1294 38.4184C47.9312 38.4799 47.7222 38.4993 47.516 38.4753H46.2852V35.623ZM46.6491 38.2172H47.4565C47.6241 38.2415 47.795 38.2287 47.9571 38.1798C48.1193 38.1308 48.2687 38.0469 48.3949 37.934C48.5211 37.821 48.621 37.6818 48.6875 37.526C48.7541 37.3703 48.7856 37.2019 48.78 37.0326C48.78 36.437 48.3896 35.8811 47.4565 35.8811H46.6491V38.2172Z" fill="white"/>
<path d="M50.3008 35.623V37.3436C50.2916 37.4717 50.3112 37.6003 50.3582 37.7198C50.4052 37.8393 50.4783 37.9468 50.5722 38.0344C50.6662 38.122 50.7785 38.1874 50.901 38.2259C51.0235 38.2644 51.1531 38.275 51.2802 38.2569C51.8494 38.2569 52.2596 38.0583 52.2596 37.3436V35.623H52.6236V37.3304C52.6236 38.237 52.0148 38.5083 51.3001 38.5083C50.5854 38.5083 49.9766 38.2105 49.9766 37.3635V35.623H50.3008Z" fill="white"/>
<path d="M53.675 37.7205C53.7743 38.0845 54.0787 38.2962 54.6279 38.2962C55.1772 38.2962 55.4552 38.0315 55.4552 37.7205C55.4552 37.4095 55.2831 37.2308 54.5353 37.0587C53.7875 36.8867 53.4699 36.7345 53.4699 36.3242C53.4699 35.9139 53.8338 35.583 54.6015 35.583C55.3691 35.583 55.7529 35.9668 55.7993 36.3308H55.4287C55.3559 36.0462 55.1309 35.8279 54.5882 35.8279C54.0456 35.8279 53.8537 36.0065 53.8537 36.3043C53.8537 36.6021 54.0721 36.7146 54.7074 36.8404C55.7132 37.0389 55.8721 37.3565 55.8721 37.7073C55.8721 38.058 55.475 38.508 54.6346 38.508C53.7941 38.508 53.3904 38.1043 53.311 37.694L53.675 37.7205Z" fill="white"/>
<path d="M57.25 35.8811H56.1184V35.623H58.7655V35.8811H57.6206V38.4753H57.25V35.8811Z" fill="white"/>
<path d="M59.6879 37.1782V38.5017H59.324V35.623H60.6475C61.3622 35.623 61.7394 35.9341 61.7394 36.3775C61.7394 36.553 61.6697 36.7213 61.5456 36.8454C61.4215 36.9695 61.2532 37.0392 61.0777 37.0392C61.1642 37.0499 61.2478 37.0775 61.3237 37.1205C61.3995 37.1636 61.4661 37.2212 61.5196 37.2901C61.5731 37.359 61.6125 37.4378 61.6355 37.5219C61.6584 37.606 61.6645 37.6939 61.6534 37.7804V37.8995C61.632 38.0904 61.6477 38.2837 61.6997 38.4686H61.3424C61.282 38.274 61.2618 38.0691 61.2828 37.8664V37.8003C61.2828 37.3569 61.124 37.1385 60.4688 37.1385L59.6879 37.1782ZM59.6879 36.9201H60.5085C61.0909 36.9201 61.3556 36.748 61.3556 36.3973C61.3556 36.0466 61.0909 35.8745 60.5681 35.8745H59.6879V36.9201Z" fill="white"/>
<path d="M62.8881 35.623V38.4753H62.5242V35.623H62.8881Z" fill="white"/>
<path d="M65.9969 37.1054H64.2101V38.2172H66.1954L66.1425 38.4753H63.8528V35.623H66.0895V35.8811H64.2101V36.8473H65.9969V37.1054Z" fill="white"/>
<path d="M67.0662 37.7207C67.1655 38.0847 67.4699 38.2965 68.0192 38.2965C68.5684 38.2965 68.8596 38.0582 68.8596 37.7671C68.8596 37.4759 68.6875 37.2773 67.9331 37.1053C67.1787 36.9332 66.8412 36.7413 66.8412 36.331C66.8412 35.9207 67.1986 35.5898 67.9728 35.5898C68.7471 35.5898 69.1177 35.9737 69.164 36.3376H68.7934C68.7206 36.0531 68.4956 35.8347 67.9596 35.8347C67.4236 35.8347 67.2184 36.0134 67.2184 36.3112C67.2184 36.609 67.4368 36.7215 68.0787 36.8472C69.078 37.0457 69.2434 37.3634 69.2434 37.7141C69.2434 38.0648 68.8398 38.5148 67.9993 38.5148C67.1589 38.5148 66.7618 38.1112 66.6758 37.7009L67.0662 37.7207Z" fill="white"/>
</svg>
