<svg width="109" height="45" viewBox="0 0 109 45" fill="none" xmlns="http://www.w3.org/2000/svg">
<path d="M35.0929 14.8037H28.6274V30.2956H35.0929V14.8037Z" fill="#CCCCCC"/>
<path d="M25.1468 14.7637H19.2373V21.8379C17.0733 19.085 13.599 14.7835 13.599 14.7835H5.1814V30.3085H12.2954V22.9762C14.4792 25.7357 18.2115 30.3085 18.2115 30.3085H26.1858V14.7637H25.1468Z" fill="#CCCCCC"/>
<path d="M74.9306 24.6843C74.9306 26.2129 74.1762 26.8747 72.4688 26.8747C72.171 26.8747 71.86 26.8747 71.5093 26.8747H66.2548C66.0365 26.8747 65.8313 26.8747 65.6328 26.8747H65.4276C63.7004 26.8747 62.9659 26.2129 62.9659 24.671V20.2571C62.9659 18.6953 63.7004 18.0534 65.4276 18.0534H72.4291C74.0637 18.0534 74.785 18.6225 74.8909 19.9857H78.749C78.749 18.146 78.5438 16.8423 77.7365 16.0151C76.7835 15.0622 74.8512 14.6387 71.271 14.6387H65.4673C61.3313 14.6387 58.7637 15.5387 58.7637 20.0784V24.8497C58.7637 29.3894 61.3115 30.2894 65.4673 30.2894H73.3688C78.2394 30.2894 78.9144 28.1387 78.9144 25.8291V24.671C78.4181 24.671 75.8107 24.671 74.9438 24.671" fill="#CCCCCC"/>
<path d="M97.5665 24.9622C97.5665 27.2387 96.19 27.7548 94.5025 27.7548H86.5084C84.801 27.7548 83.4378 27.2585 83.4378 24.9622V20.0387C83.4378 17.7622 84.8209 17.246 86.5084 17.246H94.5223C96.2297 17.246 97.5863 17.7423 97.5863 20.0387V24.9622H97.5665ZM80.1356 24.6115C80.1356 28.5093 81.4591 30.3622 85.6084 30.3622H95.4025C99.5716 30.3622 100.875 28.5093 100.875 24.6115V20.3894C100.875 16.4916 99.5518 14.6387 95.4025 14.6387H85.5885C81.4194 14.6387 80.1157 16.4916 80.1157 20.3894V24.6115H80.1356Z" fill="#CCCCCC"/>
<path d="M54.8131 22.5V22.4272C56.1366 22.0567 57.0896 21.5272 57.0896 18.8603C57.0896 15.8294 55.2499 14.8037 51.4447 14.8037H37.4683V30.3089H52.9006C55.6205 30.3089 57.6388 29.6471 57.6388 26.1927C57.6388 23.8765 56.9043 22.778 54.8131 22.5ZM52.1263 19.7603C52.1263 20.7 51.5771 21.0508 50.6374 21.0508H42.6962V18.4567H50.6374C51.5771 18.4567 52.1263 18.8074 52.1263 19.7802M50.73 26.689H42.6631V24.1147H50.73C51.8352 24.1147 52.5697 24.3728 52.5697 25.4978C52.5697 26.4508 51.8352 26.689 50.73 26.689Z" fill="#CCCCCC"/>
<path d="M103.707 18.457C103.335 18.459 102.978 18.3164 102.71 18.0595C102.442 17.8026 102.284 17.4515 102.271 17.0805C102.295 16.7174 102.457 16.3771 102.723 16.1286C102.989 15.8801 103.339 15.7419 103.703 15.7419C104.067 15.7419 104.418 15.8801 104.684 16.1286C104.95 16.3771 105.111 16.7174 105.136 17.0805C105.127 17.4521 104.972 17.8051 104.705 18.0629C104.437 18.3207 104.078 18.4623 103.707 18.457ZM103.707 18.7151C104.034 18.7151 104.354 18.618 104.626 18.4363C104.898 18.2545 105.11 17.9961 105.235 17.6938C105.36 17.3915 105.393 17.0588 105.329 16.7379C105.265 16.417 105.108 16.1222 104.876 15.8908C104.645 15.6594 104.35 15.5019 104.029 15.438C103.708 15.3742 103.376 15.407 103.074 15.5322C102.771 15.6574 102.513 15.8695 102.331 16.1415C102.149 16.4136 102.052 16.7335 102.052 17.0607C102.054 17.4989 102.229 17.9187 102.539 18.2286C102.849 18.5385 103.268 18.7133 103.707 18.7151ZM103.925 17.1202C103.993 17.1288 104.062 17.1226 104.127 17.1021C104.193 17.0816 104.253 17.0473 104.304 17.0014C104.355 16.9556 104.395 16.8993 104.422 16.8365C104.449 16.7736 104.463 16.7056 104.461 16.6371C104.461 16.2732 104.143 16.1607 103.799 16.1607H103.012V17.9607H103.27V17.1202H103.581L104.117 17.9607H104.428L103.925 17.1202ZM103.336 16.8621V16.379H103.813C103.978 16.379 104.296 16.4386 104.296 16.604C104.296 16.7695 103.872 16.8224 103.707 16.8224H103.336V16.8621Z" fill="#CCCCCC"/>
</svg>
