<svg width="110" height="45" viewBox="0 0 110 45" fill="none" xmlns="http://www.w3.org/2000/svg">
<path d="M49.8008 34.4115C56.1074 34.4115 62.4206 34.6431 68.7074 34.352C75.1866 34.1199 81.5672 32.693 87.528 30.1431C89.6648 29.2221 91.668 28.018 93.4839 26.563C96.9383 23.7439 97.117 20.1306 94.278 16.6762C93.8743 16.1799 93.4508 15.7034 92.9015 15.0615C98.4471 16.9409 100.015 22.5593 95.9125 26.1792C93.5394 28.2326 90.8218 29.8501 87.8853 30.9571C76.7809 35.1659 65.1802 35.7549 53.4736 34.974C52.2824 34.8946 51.0912 34.7292 49.9 34.6034L49.8008 34.4115Z" fill="#CCCCCC"/>
<path d="M19.6707 14.1287H13.2847V15.7434H14.9126V26.1728H13.2847V27.7942H19.3133V26.1728H17.328V22.1096H19.6641C20.8479 22.1683 22.0111 21.7838 22.9266 21.0309C23.335 20.667 23.6577 20.2172 23.8717 19.7137C24.0856 19.2103 24.1855 18.6658 24.1641 18.1192C24.183 17.5755 24.0826 17.0342 23.8699 16.5335C23.6573 16.0327 23.3375 15.5846 22.9332 15.2206C22.0184 14.4653 20.8559 14.0762 19.6707 14.1287ZM17.3347 15.7434H19.2538C19.5604 15.7203 19.8686 15.7607 20.1589 15.862C20.4493 15.9634 20.7156 16.1235 20.9413 16.3324C21.3591 16.83 21.5658 17.4712 21.517 18.1192C21.5612 18.7645 21.355 19.4021 20.9413 19.8993C20.7157 20.1087 20.4496 20.2696 20.1593 20.3721C19.869 20.4745 19.5608 20.5163 19.2538 20.4949H17.3347V15.7434Z" fill="#CCCCCC"/>
<path d="M34.7583 26.0208H29.4377V21.2826H32.9384V22.9105H34.6789V17.9142H32.9384V19.5355H29.4377V15.8826H34.6193V17.6958H36.3598V14.1289H25.3877V15.7436H27.0156V26.173H25.3877V27.7811H36.4987V24.2076H34.7583V26.0208Z" fill="#CCCCCC"/>
<path d="M45.9993 22.7845H48.4015V25.5904C47.9543 25.8482 47.4762 26.0484 46.9787 26.186C46.4071 26.3413 45.8173 26.4192 45.225 26.4176C44.6521 26.4604 44.0775 26.3622 43.5514 26.1315C43.0253 25.9007 42.5638 25.5445 42.2074 25.0941C41.5059 24.1808 41.1552 22.7977 41.1552 20.9779C41.1552 19.158 41.4993 17.722 42.1743 16.8286C42.53 16.3773 42.9913 16.0204 43.5176 15.7896C44.0439 15.5588 44.6189 15.4611 45.1919 15.5051C46.0513 15.4415 46.9063 15.6752 47.614 16.1668C48.2405 16.7413 48.6417 17.5203 48.7456 18.3639L48.7919 18.6485H50.3868V15.0352L50.1618 14.9492C49.3378 14.6157 48.4879 14.3501 47.6206 14.1551C46.8539 13.9818 46.0706 13.8931 45.2846 13.8904C44.3713 13.8494 43.4596 14.0001 42.6082 14.333C41.7568 14.6658 40.9845 15.1733 40.3412 15.8227C39.0759 17.2282 38.415 19.0755 38.5015 20.9646C38.4149 22.8467 39.0735 24.687 40.3346 26.0867C40.9665 26.7356 41.7279 27.2442 42.5693 27.5794C43.4108 27.9147 44.3134 28.069 45.2184 28.0323C46.1951 28.0389 47.1689 27.9233 48.1169 27.6882C49.0065 27.4631 49.8599 27.1133 50.6515 26.6492L50.8235 26.5499V21.1764H45.9926L45.9993 22.7845Z" fill="#CCCCCC"/>
<path d="M61.9927 26.0208H56.8508V15.7436H58.4721V14.1289H52.7942V15.7436H54.4221V26.173H52.7942V27.7811H63.7332V23.8568H61.9927V26.0208Z" fill="#CCCCCC"/>
<path d="M74.1179 26.0208H68.7973V21.2826H72.2914V22.9105H74.0385V17.9142H72.2914V19.5355H68.7973V15.8826H73.9789V17.6958H75.7194V14.1289H64.7473V15.7436H66.3753V26.173H64.7473V27.7811H75.8583V24.2076H74.1179V26.0208Z" fill="#CCCCCC"/>
<path d="M89.5003 26.1728L87.74 22.5C87.534 22.0463 87.2444 21.6355 86.8864 21.289L86.668 21.1037C87.2016 20.9445 87.6865 20.6531 88.0775 20.2566C88.6532 19.6161 88.9529 18.7742 88.9114 17.914C88.9405 17.3899 88.8543 16.8658 88.6587 16.3787C88.4632 15.8916 88.1631 15.4533 87.7797 15.0949C86.9033 14.3925 85.7971 14.0411 84.6761 14.1088H77.8533V15.7235H79.4812V26.1728H77.8533V27.7941H83.7099V26.1728H81.9297V21.7522H83.4915C83.8847 21.7296 84.2753 21.829 84.6099 22.0368C85.0264 22.4355 85.3495 22.9214 85.5562 23.4596L87.6143 27.7941H91.1944V26.1728H89.5003ZM81.9297 15.7434H84.1136C84.7137 15.6895 85.3107 15.8751 85.7746 16.2596C86.1605 16.7279 86.346 17.3295 86.2908 17.9338C86.3456 18.5401 86.1603 19.1437 85.7746 19.6147C85.3117 20.0016 84.7146 20.1895 84.1136 20.1375H81.9297V15.7434Z" fill="#CCCCCC"/>
</svg>
