<svg width="109" height="45" viewBox="0 0 109 45" fill="none" xmlns="http://www.w3.org/2000/svg">
<path d="M49.2715 34.4115C55.5781 34.4115 61.8913 34.6431 68.1781 34.352C74.6573 34.1199 81.0379 32.693 86.9987 30.1431C89.1355 29.2221 91.1387 28.018 92.9546 26.563C96.409 23.7439 96.5877 20.1306 93.7487 16.6762C93.345 16.1799 92.9215 15.7034 92.3722 15.0615C97.9178 16.9409 99.4862 22.5593 95.3833 26.1792C93.0101 28.2326 90.2925 29.8501 87.356 30.9571C76.2516 35.1659 64.6509 35.7549 52.9443 34.974C51.7531 34.8946 50.5619 34.7292 49.3708 34.6034L49.2715 34.4115Z" fill="#CCCCCC"/>
<path d="M19.1414 14.1287H12.7554V15.7434H14.3833V26.1728H12.7554V27.7942H18.784V26.1728H16.7988V22.1096H19.1348C20.3186 22.1683 21.4818 21.7838 22.3973 21.0309C22.8057 20.667 23.1284 20.2172 23.3424 19.7137C23.5563 19.2103 23.6562 18.6658 23.6348 18.1192C23.6537 17.5755 23.5533 17.0342 23.3406 16.5335C23.128 16.0327 22.8082 15.5846 22.4039 15.2206C21.4891 14.4653 20.3266 14.0762 19.1414 14.1287ZM16.8054 15.7434H18.7245C19.0311 15.7203 19.3393 15.7607 19.6296 15.862C19.92 15.9634 20.1863 16.1235 20.412 16.3324C20.8298 16.83 21.0365 17.4712 20.9877 18.1192C21.0319 18.7645 20.8257 19.4021 20.412 19.8993C20.1864 20.1087 19.9203 20.2696 19.63 20.3721C19.3397 20.4745 19.0315 20.5163 18.7245 20.4949H16.8054V15.7434Z" fill="#CCCCCC"/>
<path d="M34.229 26.0203H28.9084V21.2821H32.4091V22.91H34.1496V17.9137H32.4091V19.535H28.9084V15.8821H34.09V17.6953H35.8305V14.1284H24.8584V15.7431H26.4863V26.1725H24.8584V27.7806H35.9694V24.2071H34.229V26.0203Z" fill="#CCCCCC"/>
<path d="M45.47 22.785H47.8722V25.5909C47.425 25.8487 46.9469 26.0488 46.4494 26.1865C45.8778 26.3418 45.288 26.4197 44.6957 26.4181C44.1228 26.4609 43.5482 26.3627 43.0221 26.1319C42.496 25.9012 42.0346 25.545 41.6781 25.0945C40.9766 24.1813 40.6259 22.7982 40.6259 20.9784C40.6259 19.1585 40.97 17.7225 41.645 16.8291C42.0007 16.3778 42.4621 16.0209 42.9883 15.7901C43.5146 15.5593 44.0896 15.4615 44.6626 15.5056C45.522 15.442 46.377 15.6756 47.0847 16.1673C47.7112 16.7418 48.1124 17.5208 48.2163 18.3644L48.2626 18.649H49.8575V15.0357L49.6325 14.9497C48.8085 14.6162 47.9586 14.3506 47.0913 14.1556C46.3246 13.9823 45.5413 13.8936 44.7553 13.8909C43.842 13.8499 42.9303 14.0006 42.0789 14.3334C41.2275 14.6663 40.4552 15.1738 39.8119 15.8232C38.5466 17.2287 37.8857 19.076 37.9722 20.9651C37.8856 22.8472 38.5442 24.6875 39.8053 26.0872C40.4372 26.7361 41.1986 27.2447 42.04 27.5799C42.8815 27.9151 43.7841 28.0694 44.6891 28.0328C45.6658 28.0394 46.6396 27.9238 47.5876 27.6887C48.4773 27.4636 49.3306 27.1138 50.1222 26.6497L50.2942 26.5504V21.1769H45.4634L45.47 22.785Z" fill="#CCCCCC"/>
<path d="M61.4634 26.0203H56.3215V15.7431H57.9428V14.1284H52.2649V15.7431H53.8928V26.1725H52.2649V27.7806H63.2039V23.8564H61.4634V26.0203Z" fill="#CCCCCC"/>
<path d="M73.5886 26.0203H68.268V21.2821H71.7621V22.91H73.5092V17.9137H71.7621V19.535H68.268V15.8821H73.4496V17.6953H75.1901V14.1284H64.218V15.7431H65.846V26.1725H64.218V27.7806H75.329V24.2071H73.5886V26.0203Z" fill="#CCCCCC"/>
<path d="M88.971 26.1728L87.2107 22.5C87.0047 22.0463 86.7151 21.6355 86.3571 21.289L86.1387 21.1037C86.6723 20.9445 87.1572 20.6531 87.5482 20.2566C88.1239 19.6161 88.4236 18.7742 88.3821 17.914C88.4112 17.3899 88.325 16.8658 88.1294 16.3787C87.9339 15.8916 87.6339 15.4533 87.2504 15.0949C86.374 14.3925 85.2678 14.0411 84.1468 14.1088H77.324V15.7235H78.9519V26.1728H77.324V27.7941H83.1806V26.1728H81.4004V21.7522H82.9622C83.3554 21.7296 83.746 21.829 84.0806 22.0368C84.4971 22.4355 84.8202 22.9214 85.0269 23.4596L87.085 27.7941H90.6652V26.1728H88.971ZM81.4004 15.7434H83.5843C84.1844 15.6895 84.7814 15.8751 85.2453 16.2596C85.6312 16.7279 85.8167 17.3295 85.7615 17.9338C85.8163 18.5401 85.631 19.1437 85.2453 19.6147C84.7824 20.0016 84.1853 20.1895 83.5843 20.1375H81.4004V15.7434Z" fill="#CCCCCC"/>
</svg>
