<svg width="110" height="45" viewBox="0 0 110 45" fill="none" xmlns="http://www.w3.org/2000/svg">
<path d="M106.005 17.1729H95.3442V29.3758H106.005V17.1729Z" fill="#CCCCCC"/>
<path d="M87.9252 17.2059H63.7178V22.0898H46.3068V19.9258H61.8252V17.2059H35.6458V29.3692H61.8252V26.6162H46.3068V24.8096H63.7178V29.3758H87.9252C89.5434 29.3758 91.0953 28.733 92.2396 27.5887C93.3838 26.4445 94.0266 24.8925 94.0266 23.2743C94.0266 21.6561 93.3838 20.1042 92.2396 18.9599C91.0953 17.8157 89.5434 17.1729 87.9252 17.1729V17.2059ZM81.6516 26.067L81.4134 26.1596H74.7494V19.853L80.9171 19.9059C81.6964 20.037 82.403 20.4428 82.9092 21.0497C83.4154 21.6566 83.6876 22.4246 83.6766 23.2148C83.6409 23.8283 83.4316 24.419 83.0731 24.9181C82.7146 25.4172 82.2216 25.8042 81.6516 26.0339V26.067Z" fill="#CCCCCC"/>
<path d="M33.2151 25.4182C32.8591 24.5956 32.3179 23.8663 31.6335 23.2873C32.2222 22.9611 32.7087 22.4777 33.0387 21.8911C33.3688 21.3045 33.5294 20.6377 33.5026 19.9652C33.4758 19.2926 33.2628 18.6408 32.8872 18.0822C32.5116 17.5237 31.9882 17.0805 31.3754 16.8021L3.5813 16.6631V29.3293L14.7717 29.3756C14.7717 27.7124 14.7563 26.0535 14.7254 24.3991L23.0835 24.4851C23.1497 26.2256 23.2026 27.9793 23.2688 29.7263C25.1019 29.6866 26.9416 29.6403 28.7813 29.6072L33.4137 29.5013C33.8217 28.1583 33.7515 26.7153 33.2151 25.4182ZM23.1762 21.6462H13.9114V19.5682H23.1762V21.6462Z" fill="#CCCCCC"/>
</svg>
