<svg width="110" height="45" viewBox="0 0 110 45" fill="none" xmlns="http://www.w3.org/2000/svg">
<path d="M86.3858 10.853H22.0821C20.5471 10.853 19.3027 12.0974 19.3027 13.6324V37.767C19.3027 39.302 20.5471 40.5464 22.0821 40.5464H86.3858C87.9209 40.5464 89.1652 39.302 89.1652 37.767V13.6324C89.1652 12.0974 87.9209 10.853 86.3858 10.853Z" fill="#CCCCCC"/>
<path d="M74.0802 14.2744H24.1964C22.6614 14.2744 21.417 15.5188 21.417 17.0538V34.3325C21.417 35.8675 22.6614 37.1119 24.1964 37.1119H74.0802C75.6153 37.1119 76.8596 35.8675 76.8596 34.3325V17.0538C76.8596 15.5188 75.6153 14.2744 74.0802 14.2744Z" fill="white"/>
<path d="M65.165 31.9761H63.1797V28.5878C63.1818 28.2715 63.247 27.9588 63.3716 27.668C63.6369 27.0803 64.1075 26.6097 64.6951 26.3444C64.3369 26.1212 64.0246 25.8314 63.7753 25.4908C63.3372 24.8947 63.1049 24.1723 63.1135 23.4327V20.5805C63.8613 20.6136 64.662 20.5143 65.4098 20.5474C65.4562 21.54 65.4098 22.6584 65.4893 23.6511C65.603 24.0513 65.8441 24.4036 66.1761 24.6544C66.5081 24.9052 66.9129 25.0409 67.329 25.0409C67.7451 25.0409 68.1498 24.9052 68.4818 24.6544C68.8138 24.4036 69.055 24.0513 69.1687 23.6511V20.6202L71.4517 20.5805V23.8893C71.5517 24.4291 71.4871 24.9865 71.2664 25.4891C71.0458 25.9918 70.6792 26.4166 70.2143 26.7084C70.5852 26.8723 70.9036 27.1357 71.1341 27.4694C71.41 27.8782 71.5427 28.3669 71.5113 28.8591V32.0621H69.2613V28.9253C69.1172 28.5508 68.8631 28.2287 68.5323 28.0015C68.2015 27.7744 67.8096 27.6528 67.4084 27.6528C67.0071 27.6528 66.6152 27.7744 66.2844 28.0015C65.9537 28.2287 65.6995 28.5508 65.5554 28.9253V32.0621L65.165 31.9761Z" fill="#CCCCCC"/>
<path d="M56.3504 28.8262C56.0199 28.3737 55.8477 27.8247 55.8607 27.2645V26.9865H61.9092L61.8828 23.8233C61.6773 22.8381 61.1284 21.9581 60.3339 21.3404C59.5394 20.7227 58.5512 20.4075 57.5458 20.4513C56.5404 20.495 55.5833 20.8948 54.8454 21.5792C54.1076 22.2636 53.6371 23.188 53.5181 24.1873C53.5181 24.5578 53.5181 24.9284 53.5181 25.299C53.5181 26.4571 53.5181 27.6086 53.5181 28.7667C53.5318 29.2284 53.6405 29.6824 53.8375 30.1003C54.0345 30.5181 54.3155 30.8909 54.6629 31.1953C55.0812 31.5407 55.5836 31.769 56.1188 31.8571L61.2938 31.9233C61.2938 31.1623 61.2938 30.4277 61.2938 29.6667H57.1776C56.837 29.4587 56.5529 29.1701 56.3504 28.8262ZM57.5416 22.652C57.8317 22.6658 58.1138 22.751 58.3632 22.8999C58.6125 23.0488 58.8212 23.2568 58.971 23.5056C59.3262 24.0251 59.4878 24.6528 59.4276 25.2792H55.8806C55.7085 23.8233 56.6945 22.685 57.5416 22.652Z" fill="#CCCCCC"/>
<path d="M35.7757 28.8261C35.4451 28.3735 35.273 27.8246 35.286 27.2643V26.9864H41.3345L41.308 23.8231C41.0953 22.8467 40.5448 21.9766 39.7533 21.3664C38.9618 20.7562 37.9804 20.445 36.9819 20.4878C35.9835 20.5305 35.0321 20.9244 34.2957 21.5999C33.5593 22.2755 33.085 23.1894 32.9565 24.1805C32.9565 24.5511 32.9565 24.9217 32.9565 25.2923C32.9565 26.4503 32.9565 27.6018 32.9565 28.7599C32.9703 29.2217 33.079 29.6756 33.276 30.0935C33.473 30.5114 33.7539 30.8841 34.1014 31.1886C34.5197 31.5339 35.0221 31.7622 35.5573 31.8503L40.7323 31.9165C40.7323 31.1555 40.7323 30.4209 40.7323 29.6599H36.6161C36.2715 29.4555 35.9827 29.1691 35.7757 28.8261ZM36.9668 22.6518C37.2569 22.6657 37.5391 22.7508 37.7884 22.8997C38.0377 23.0486 38.2465 23.2567 38.3962 23.5055C38.7468 24.0267 38.9037 24.6542 38.8396 25.279H35.2926C35.1337 23.8231 36.1198 22.6849 36.9668 22.6518Z" fill="#CCCCCC"/>
<path d="M51.5926 16.0078H49.144V32.0093H51.5926V16.0078Z" fill="#CCCCCC"/>
<path d="M47.9667 18.2512V16.0078H45.5314C45.2371 16.0078 44.9457 16.0659 44.6739 16.1787C44.4021 16.2915 44.1552 16.4569 43.9474 16.6653C43.7396 16.8737 43.575 17.121 43.463 17.3932C43.3509 17.6653 43.2937 17.9569 43.2946 18.2512V20.4549H41.627V22.6519H43.3211V31.9166H45.7696V22.6519H47.6292V20.4549H45.7696V18.2512H47.9667Z" fill="#CCCCCC"/>
<path d="M31.8732 20.5146H28.9879C28.4263 20.5198 27.8841 20.721 27.4551 21.0835C27.0262 21.446 26.7373 21.9471 26.6386 22.4999H26.5923V32.0095H28.829V22.9367H31.8732V20.5146Z" fill="#CCCCCC"/>
</svg>
