<svg width="109" height="45" viewBox="0 0 109 45" fill="none" xmlns="http://www.w3.org/2000/svg">
<path d="M8.33944 29.9802C7.54532 29.9802 6.88356 29.3185 6.88356 28.5244C6.88356 27.7302 7.54532 27.0685 8.33944 27.0685H21.7071C22.5012 27.0685 23.163 26.4067 23.163 25.6126C23.163 24.8185 22.5012 24.1567 21.7071 24.1567H11.2512C8.80268 24.1567 6.81738 22.1714 6.81738 19.7229C6.81738 17.2744 8.80268 15.2891 11.2512 15.2891H23.8909C24.685 15.2891 25.3468 15.9508 25.3468 16.7449C25.3468 17.5391 24.685 18.2008 23.8909 18.2008H11.2512C10.4571 18.2008 9.79532 18.8626 9.79532 19.6567C9.79532 20.4508 10.4571 21.1126 11.2512 21.1126H21.6409C24.0894 21.1126 26.0747 23.0979 26.0747 25.5464C26.0747 27.9949 24.0894 29.9802 21.6409 29.9802H8.33944Z" fill="#CCCCCC"/>
<path d="M41.0285 27.0009C41.8226 27.0009 42.4843 27.6626 42.4843 28.4567C42.4843 29.2509 41.8226 29.9126 41.0285 29.9126H29.8446C28.1902 29.9126 26.8667 28.5891 26.8667 26.9347V16.6112C26.8667 15.817 27.5285 15.1553 28.3226 15.1553C29.1167 15.1553 29.7785 15.817 29.7785 16.6112V27.0009H41.0285Z" fill="#CCCCCC"/>
<path d="M59.5611 15.0898H44.7376C43.9435 15.0898 43.2817 15.7516 43.2817 16.5457V28.4575C43.2817 29.2516 43.9435 29.9134 44.7376 29.9134H59.5611C60.3553 29.9134 61.017 29.2516 61.017 28.4575V16.5457C61.0832 15.8178 60.4214 15.0898 59.5611 15.0898ZM58.1053 27.0016H46.1935V18.0678H58.1053V27.0016Z" fill="#CCCCCC"/>
<path d="M75.1789 28.5241C75.973 28.5241 76.6347 27.8623 76.6347 27.0682C76.6347 26.2741 75.973 25.6123 75.1789 25.6123H69.223C68.4289 25.6123 67.7671 26.2741 67.7671 27.0682C67.7671 27.8623 68.4289 28.5241 69.223 28.5241H75.1789Z" fill="#CCCCCC"/>
<path d="M104.363 26.2734C103.304 26.2734 102.51 27.1337 102.51 28.1264C102.51 29.119 103.304 29.9793 104.363 29.9793C105.422 29.9793 106.216 29.119 106.216 28.1264C106.216 27.0676 105.355 26.2734 104.363 26.2734ZM104.297 29.7146C103.436 29.7146 102.708 29.0528 102.708 28.1264C102.708 27.2661 103.436 26.5381 104.297 26.5381C105.157 26.5381 105.885 27.2661 105.885 28.1264C105.885 28.9867 105.223 29.7146 104.297 29.7146Z" fill="#CCCCCC"/>
<path d="M105.22 27.7291C105.22 27.5306 105.153 27.3983 105.087 27.2659C104.955 27.1336 104.756 27.0674 104.492 27.0674H103.631V29.0527H104.028V28.3909H104.359L104.823 29.0527H105.286L104.823 28.3247C105.021 28.2586 105.22 28.06 105.22 27.7291ZM104.425 28.06H103.962V27.4644H104.425C104.624 27.4644 104.756 27.5968 104.756 27.7291C104.756 27.9277 104.69 28.06 104.425 28.06Z" fill="#CCCCCC"/>
<path d="M101.715 16.6119C101.715 15.8178 101.054 15.156 100.26 15.156C99.4654 15.156 98.8037 15.8178 98.8037 16.6119V25.4795L85.7007 15.4207C85.436 15.2222 85.1051 15.0898 84.7742 15.0898C83.9801 15.0898 83.3184 15.7516 83.3184 16.5457V28.4575C83.3184 29.2516 83.9801 29.9134 84.7742 29.9134C85.5684 29.9134 86.2301 29.2516 86.2301 28.4575V19.656L99.3331 29.7148C99.5978 29.9134 99.8625 30.0457 100.26 30.0457C101.054 30.0457 101.715 29.384 101.715 28.5898V16.6119Z" fill="#CCCCCC"/>
<path d="M82.1927 27.5972L73.325 15.6854C73.0603 15.3546 72.5971 15.0898 72.1338 15.0898C71.6706 15.0898 71.2074 15.3546 70.9427 15.6854L62.075 27.5972C61.8765 27.8619 61.7441 28.1266 61.7441 28.4575C61.7441 29.2516 62.4059 29.9134 63.2 29.9134C63.6633 29.9134 64.1265 29.6487 64.3912 29.3178L72.0677 19.0604L79.7441 29.384C80.0088 29.7148 80.4721 29.9795 80.9353 29.9795C81.7294 29.9795 82.3912 29.3178 82.3912 28.5237C82.5236 28.1928 82.3912 27.8619 82.1927 27.5972Z" fill="#CCCCCC"/>
</svg>
