<svg width="109" height="45" viewBox="0 0 109 45" fill="none" xmlns="http://www.w3.org/2000/svg">
<path d="M70.437 10.0581H44.3701V36.125H70.437V10.0581Z" fill="#CCCCCC"/>
<path d="M46.7877 34.9944C52.7966 32.5856 54.1466 30.9245 54.0672 29.7863C53.9944 29.065 52.3532 27.8539 49.0642 25.4716C46.3642 23.4863 45.2458 22.8245 44.8157 21.362C44.5258 20.1642 44.6712 18.9022 45.226 17.8017C46.5495 15.1547 49.8583 14.1289 53.5841 13.3216C61.0752 11.7267 64.3311 11.4355 69.8436 10.3105C69.8436 10.3105 62.9083 12.1304 62.3524 15.0157C62.0811 16.4319 66.6407 19.9458 67.2892 20.4025C69.1024 21.726 69.9958 22.5135 70.1613 24.1944C70.3995 26.5966 69.612 27.437 68.4539 28.2113C63.7223 31.3613 61.3333 32.3208 55.2186 34.3789C51.3473 35.7025 47.7407 35.7025 45.0076 35.7025C45.6627 35.4444 46.2319 35.2128 46.7877 34.9944Z" fill="white"/>
<path d="M48.75 4.86937C48.7116 4.54494 48.5557 4.29308 48.2825 4.11378C48.0093 3.93449 47.6742 3.84484 47.2772 3.84484C46.9869 3.84484 46.7329 3.8918 46.5152 3.98572C46.2996 4.07963 46.131 4.20877 46.0094 4.37312C45.8898 4.53747 45.8301 4.72423 45.8301 4.93341C45.8301 5.10843 45.8717 5.25891 45.9549 5.38484C46.0403 5.50864 46.1492 5.61216 46.2815 5.6954C46.4138 5.77651 46.5526 5.84374 46.6977 5.8971C46.8429 5.94833 46.9763 5.98995 47.0979 6.02197L47.7639 6.20126C47.9346 6.24608 48.1246 6.30798 48.3338 6.38696C48.5451 6.46593 48.7468 6.57372 48.9389 6.71032C49.1331 6.84479 49.2932 7.01768 49.4191 7.22899C49.5451 7.4403 49.608 7.69963 49.608 8.00699C49.608 8.36131 49.5152 8.68147 49.3295 8.96749C49.1459 9.2535 48.877 9.48082 48.5227 9.64944C48.1705 9.81806 47.7425 9.90237 47.2388 9.90237C46.7692 9.90237 46.3626 9.8266 46.019 9.67505C45.6775 9.52351 45.4085 9.3122 45.2122 9.04112C45.0179 8.77005 44.908 8.45522 44.8824 8.09664H45.702C45.7233 8.34423 45.8066 8.54914 45.9517 8.71135C46.099 8.87144 46.2847 8.99097 46.5088 9.06994C46.7351 9.14678 46.9784 9.1852 47.2388 9.1852C47.5419 9.1852 47.814 9.13611 48.0552 9.03792C48.2964 8.9376 48.4874 8.79887 48.6283 8.62171C48.7692 8.44242 48.8396 8.23324 48.8396 7.99418C48.8396 7.77647 48.7788 7.59931 48.6571 7.46271C48.5355 7.32611 48.3754 7.21512 48.1769 7.12974C47.9784 7.04436 47.7639 6.96966 47.5333 6.90562L46.7265 6.6751C46.2143 6.52783 45.8087 6.31759 45.5099 6.04438C45.2111 5.77117 45.0617 5.41365 45.0617 4.97183C45.0617 4.6047 45.1609 4.28454 45.3594 4.01133C45.5601 3.73599 45.829 3.52254 46.1662 3.371C46.5056 3.21732 46.8845 3.14048 47.3028 3.14048C47.7254 3.14048 48.1011 3.21625 48.4298 3.3678C48.7585 3.51721 49.0189 3.72211 49.211 3.98252C49.4052 4.24292 49.5077 4.53854 49.5184 4.86937H48.75ZM50.9135 3.23013H51.8612L54.0895 8.67293H54.1664L56.3947 3.23013H57.3424V9.78711H56.5996V4.80534H56.5356L54.4865 9.78711H53.7694L51.7203 4.80534H51.6563V9.78711H50.9135V3.23013ZM59.7284 3.23013V9.78711H58.9344V3.23013H59.7284ZM60.9619 3.93449V3.23013H65.8796V3.93449H63.8177V9.78711H63.0237V3.93449H60.9619ZM67.105 9.78711V3.23013H67.8991V6.15003H71.3953V3.23013H72.1893V9.78711H71.3953V6.8544H67.8991V9.78711H67.105Z" fill="#CCCCCC"/>
<path d="M49.7635 36.9872H49.443C49.4241 36.895 49.3909 36.8141 49.3435 36.7443C49.297 36.6745 49.2402 36.6159 49.173 36.5685C49.1066 36.5203 49.033 36.4841 48.952 36.46C48.871 36.4359 48.7866 36.4238 48.6987 36.4238C48.5385 36.4238 48.3933 36.4643 48.2632 36.5453C48.134 36.6263 48.0311 36.7456 47.9544 36.9032C47.8786 37.0609 47.8407 37.2543 47.8407 37.4834C47.8407 37.7126 47.8786 37.906 47.9544 38.0636C48.0311 38.2213 48.134 38.3406 48.2632 38.4216C48.3933 38.5025 48.5385 38.543 48.6987 38.543C48.7866 38.543 48.871 38.531 48.952 38.5068C49.033 38.4827 49.1066 38.447 49.173 38.3996C49.2402 38.3514 49.297 38.2923 49.3435 38.2226C49.3909 38.1519 49.4241 38.0709 49.443 37.9796H49.7635C49.7394 38.1149 49.6954 38.2359 49.6317 38.3427C49.5679 38.4496 49.4887 38.5404 49.3939 38.6154C49.2992 38.6895 49.1928 38.7459 49.0747 38.7847C48.9576 38.8234 48.8322 38.8428 48.6987 38.8428C48.473 38.8428 48.2723 38.7877 48.0966 38.6774C47.9208 38.5672 47.7825 38.4104 47.6818 38.2071C47.581 38.0038 47.5306 37.7625 47.5306 37.4834C47.5306 37.2043 47.581 36.9631 47.6818 36.7598C47.7825 36.5565 47.9208 36.3997 48.0966 36.2894C48.2723 36.1792 48.473 36.124 48.6987 36.124C48.8322 36.124 48.9576 36.1434 49.0747 36.1822C49.1928 36.2209 49.2992 36.2778 49.3939 36.3527C49.4887 36.4268 49.5679 36.5173 49.6317 36.6241C49.6954 36.7301 49.7394 36.8511 49.7635 36.9872ZM52.0181 36.1602H52.3385V37.9124C52.3385 38.0933 52.2959 38.2549 52.2106 38.397C52.1262 38.5383 52.0069 38.6499 51.8527 38.7317C51.6985 38.8127 51.5175 38.8532 51.3099 38.8532C51.1023 38.8532 50.9214 38.8127 50.7672 38.7317C50.613 38.6499 50.4933 38.5383 50.408 38.397C50.3236 38.2549 50.2813 38.0933 50.2813 37.9124V36.1602H50.6018V37.8866C50.6018 38.0158 50.6302 38.1308 50.6871 38.2316C50.744 38.3315 50.8249 38.4104 50.93 38.4681C51.036 38.5249 51.1626 38.5534 51.3099 38.5534C51.4572 38.5534 51.5839 38.5249 51.6898 38.4681C51.7958 38.4104 51.8768 38.3315 51.9328 38.2316C51.9896 38.1308 52.0181 38.0158 52.0181 37.8866V36.1602ZM54.4258 36.8218C54.4103 36.6909 54.3474 36.5892 54.2371 36.5169C54.1268 36.4445 53.9916 36.4083 53.8313 36.4083C53.7142 36.4083 53.6117 36.4273 53.5238 36.4652C53.4368 36.5031 53.3687 36.5552 53.3196 36.6215C53.2714 36.6879 53.2473 36.7632 53.2473 36.8477C53.2473 36.9183 53.2641 36.979 53.2977 37.0299C53.3321 37.0798 53.3761 37.1216 53.4295 37.1552C53.4829 37.1879 53.5389 37.2151 53.5975 37.2366C53.656 37.2573 53.7099 37.2741 53.759 37.287L54.0278 37.3594C54.0967 37.3775 54.1733 37.4024 54.2578 37.4343C54.3431 37.4662 54.4245 37.5097 54.502 37.5648C54.5804 37.6191 54.645 37.6889 54.6958 37.7742C54.7467 37.8595 54.7721 37.9641 54.7721 38.0882C54.7721 38.2312 54.7346 38.3604 54.6596 38.4758C54.5856 38.5913 54.477 38.683 54.334 38.7511C54.1919 38.8191 54.0191 38.8532 53.8158 38.8532C53.6263 38.8532 53.4622 38.8226 53.3235 38.7614C53.1857 38.7002 53.0771 38.615 52.9979 38.5056C52.9195 38.3962 52.8751 38.2691 52.8648 38.1244H53.1956C53.2042 38.2243 53.2378 38.307 53.2964 38.3725C53.3558 38.4371 53.4308 38.4853 53.5212 38.5172C53.6125 38.5482 53.7107 38.5637 53.8158 38.5637C53.9382 38.5637 54.048 38.5439 54.1454 38.5043C54.2427 38.4638 54.3198 38.4078 54.3767 38.3363C54.4335 38.2639 54.4619 38.1795 54.4619 38.083C54.4619 37.9951 54.4374 37.9236 54.3883 37.8685C54.3392 37.8134 54.2746 37.7686 54.1945 37.7341C54.1143 37.6997 54.0278 37.6695 53.9347 37.6437L53.6091 37.5506C53.4023 37.4912 53.2387 37.4063 53.1181 37.2961C52.9974 37.1858 52.9371 37.0415 52.9371 36.8632C52.9371 36.715 52.9772 36.5858 53.0573 36.4755C53.1383 36.3644 53.2468 36.2782 53.383 36.2171C53.5199 36.155 53.6728 36.124 53.8417 36.124C54.0123 36.124 54.1639 36.1546 54.2965 36.2158C54.4292 36.2761 54.5343 36.3588 54.6118 36.4639C54.6902 36.569 54.7316 36.6883 54.7359 36.8218H54.4258ZM55.1542 36.4445V36.1602H57.1391V36.4445H56.3069V38.8066H55.9864V36.4445H55.1542ZM59.7564 37.4834C59.7564 37.7625 59.706 38.0038 59.6052 38.2071C59.5044 38.4104 59.3662 38.5672 59.1904 38.6774C59.0147 38.7877 58.814 38.8428 58.5883 38.8428C58.3626 38.8428 58.1618 38.7877 57.9861 38.6774C57.8104 38.5672 57.6721 38.4104 57.5713 38.2071C57.4705 38.0038 57.4201 37.7625 57.4201 37.4834C57.4201 37.2043 57.4705 36.9631 57.5713 36.7598C57.6721 36.5565 57.8104 36.3997 57.9861 36.2894C58.1618 36.1792 58.3626 36.124 58.5883 36.124C58.814 36.124 59.0147 36.1792 59.1904 36.2894C59.3662 36.3997 59.5044 36.5565 59.6052 36.7598C59.706 36.9631 59.7564 37.2043 59.7564 37.4834ZM59.4463 37.4834C59.4463 37.2543 59.408 37.0609 59.3313 36.9032C59.2555 36.7456 59.1525 36.6263 59.0224 36.5453C58.8932 36.4643 58.7485 36.4238 58.5883 36.4238C58.428 36.4238 58.2829 36.4643 58.1528 36.5453C58.0236 36.6263 57.9206 36.7456 57.844 36.9032C57.7681 37.0609 57.7302 37.2543 57.7302 37.4834C57.7302 37.7126 57.7681 37.906 57.844 38.0636C57.9206 38.2213 58.0236 38.3406 58.1528 38.4216C58.2829 38.5025 58.428 38.543 58.5883 38.543C58.7485 38.543 58.8932 38.5025 59.0224 38.4216C59.1525 38.3406 59.2555 38.2213 59.3313 38.0636C59.408 37.906 59.4463 37.7126 59.4463 37.4834ZM60.2953 36.1602H60.6778L61.5771 38.357H61.6081L62.5075 36.1602H62.89V38.8066H62.5902V36.796H62.5644L61.7374 38.8066H61.4479L60.6209 36.796H60.5951V38.8066H60.2953V36.1602ZM63.5326 38.8066V36.1602H65.1297V36.4445H63.853V37.3387H65.047V37.623H63.853V38.5224H65.1504V38.8066H63.5326ZM65.7073 38.8066V36.1602H66.6015C66.8083 36.1602 66.978 36.1955 67.1107 36.2662C67.2433 36.3359 67.3415 36.432 67.4053 36.5543C67.469 36.6767 67.5009 36.8158 67.5009 36.9717C67.5009 37.1276 67.469 37.2659 67.4053 37.3865C67.3415 37.5071 67.2438 37.6019 67.112 37.6708C66.9802 37.7389 66.8117 37.7729 66.6067 37.7729H65.8831V37.4834H66.5964C66.7376 37.4834 66.8514 37.4627 66.9375 37.4214C67.0245 37.38 67.0874 37.3215 67.1262 37.2457C67.1658 37.169 67.1856 37.0777 67.1856 36.9717C67.1856 36.8658 67.1658 36.7731 67.1262 36.6939C67.0865 36.6146 67.0232 36.5535 66.9362 36.5104C66.8492 36.4665 66.7342 36.4445 66.5912 36.4445H66.0278V38.8066H65.7073ZM66.953 37.6178L67.6043 38.8066H67.2321L66.5912 37.6178H66.953Z" fill="#CCCCCC"/>
<path d="M51.8681 42.896H51.0514V40.2496H51.9043C52.161 40.2496 52.3807 40.3025 52.5633 40.4085C52.7459 40.5136 52.8859 40.6648 52.9833 40.8621C53.0806 41.0585 53.1293 41.2937 53.1293 41.5676C53.1293 41.8433 53.0802 42.0806 52.982 42.2796C52.8838 42.4778 52.7408 42.6302 52.553 42.7371C52.3652 42.843 52.1369 42.896 51.8681 42.896ZM51.3719 42.6117H51.8474C52.0662 42.6117 52.2476 42.5695 52.3914 42.4851C52.5353 42.4007 52.6426 42.2805 52.7132 42.1246C52.7838 41.9686 52.8192 41.783 52.8192 41.5676C52.8192 41.354 52.7843 41.17 52.7145 41.0158C52.6447 40.8608 52.5405 40.7419 52.4018 40.6592C52.2631 40.5756 52.0904 40.5338 51.8836 40.5338H51.3719V42.6117ZM53.6668 42.896V40.2496H54.561C54.7678 40.2496 54.9375 40.2849 55.0702 40.3555C55.2028 40.4253 55.301 40.5214 55.3648 40.6437C55.4285 40.766 55.4604 40.9051 55.4604 41.0611C55.4604 41.217 55.4285 41.3553 55.3648 41.4759C55.301 41.5965 55.2033 41.6912 55.0715 41.7601C54.9397 41.8282 54.7712 41.8622 54.5662 41.8622H53.8426V41.5728H54.5559C54.6972 41.5728 54.8109 41.5521 54.897 41.5108C54.984 41.4694 55.0469 41.4108 55.0857 41.335C55.1253 41.2583 55.1451 41.167 55.1451 41.0611C55.1451 40.9551 55.1253 40.8625 55.0857 40.7832C55.0461 40.704 54.9827 40.6428 54.8957 40.5998C54.8087 40.5558 54.6937 40.5338 54.5507 40.5338H53.9873V42.896H53.6668ZM54.9125 41.7072L55.5638 42.896H55.1916L54.5507 41.7072H54.9125ZM56.3149 40.2496V42.896H55.9944V40.2496H56.3149ZM57.066 40.2496L57.8516 42.4773H57.8827L58.6683 40.2496H59.0043L58.0325 42.896H57.7017L56.73 40.2496H57.066ZM59.4165 42.896V40.2496H61.0137V40.5338H59.737V41.4281H60.931V41.7123H59.737V42.6117H61.0343V42.896H59.4165ZM63.6898 40.2496V42.896H63.3797L61.9376 40.8181H61.9117V42.896H61.5913V40.2496H61.9014L63.3487 42.3326H63.3745V40.2496H63.6898Z" fill="#CCCCCC"/>
<path d="M71.7786 3.94531V2.56403H72.2453C72.3532 2.56403 72.4418 2.58246 72.5111 2.61933C72.5803 2.65575 72.6316 2.70589 72.6648 2.76974C72.6981 2.83359 72.7147 2.9062 72.7147 2.98759C72.7147 3.06897 72.6981 3.14114 72.6648 3.20409C72.6316 3.26704 72.5805 3.3165 72.5117 3.35247C72.4429 3.38799 72.355 3.40575 72.248 3.40575H71.8703V3.25467H72.2426C72.3164 3.25467 72.3757 3.24388 72.4207 3.2223C72.4661 3.20071 72.4989 3.17014 72.5191 3.13057C72.5398 3.09055 72.5502 3.04289 72.5502 2.98759C72.5502 2.93228 72.5398 2.88395 72.5191 2.84258C72.4985 2.80121 72.4654 2.76929 72.42 2.74681C72.3746 2.72387 72.3146 2.71241 72.2399 2.71241H71.9459V3.94531H71.7786ZM72.4288 3.32481L72.7687 3.94531H72.5744L72.2399 3.32481H72.4288Z" fill="#CCCCCC"/>
<path d="M72.1983 4.24187C72.7283 4.24187 73.1579 3.81226 73.1579 3.28231C73.1579 2.75236 72.7283 2.32275 72.1983 2.32275C71.6684 2.32275 71.2388 2.75236 71.2388 3.28231C71.2388 3.81226 71.6684 4.24187 72.1983 4.24187Z" stroke="#CCCCCC" stroke-width="0.165441" stroke-miterlimit="10"/>
</svg>
