<svg width="110" height="45" viewBox="0 0 110 45" fill="none" xmlns="http://www.w3.org/2000/svg">
<path d="M38.1182 22.4534C38.1247 22.268 38.1855 22.0887 38.293 21.9376C38.4006 21.7866 38.5501 21.6704 38.7232 21.6037C38.8962 21.5369 39.085 21.5224 39.2661 21.562C39.4473 21.6017 39.6128 21.6937 39.7422 21.8266C39.8715 21.9595 39.9589 22.1275 39.9936 22.3097C40.0282 22.4918 40.0086 22.6802 39.9371 22.8513C39.8656 23.0224 39.7454 23.1688 39.5915 23.2721C39.4375 23.3755 39.2565 23.4314 39.0711 23.4328C38.9434 23.4338 38.8169 23.4089 38.6991 23.3597C38.5813 23.3105 38.4747 23.2379 38.3857 23.1464C38.2966 23.0549 38.227 22.9463 38.1811 22.8272C38.1351 22.7081 38.1137 22.581 38.1182 22.4534ZM39.0645 23.6247C39.2953 23.6208 39.5197 23.5488 39.7097 23.4177C39.8997 23.2867 40.0468 23.1024 40.1324 22.888C40.218 22.6737 40.2384 22.4388 40.191 22.2129C40.1436 21.987 40.0305 21.7802 39.8659 21.6184C39.7013 21.4565 39.4926 21.3469 39.2659 21.3033C39.0393 21.2597 38.8048 21.284 38.5919 21.3732C38.379 21.4625 38.1973 21.6126 38.0694 21.8047C37.9416 21.9969 37.8733 22.2226 37.8733 22.4534C37.8724 22.6091 37.9027 22.7635 37.9625 22.9073C38.0223 23.0512 38.1103 23.1816 38.2214 23.2908C38.3324 23.4 38.4643 23.4858 38.6091 23.5432C38.7539 23.6005 38.9088 23.6282 39.0645 23.6247ZM38.813 22.546H39.0513L39.4086 23.135H39.6336L39.2564 22.5328C39.3039 22.5329 39.3509 22.5232 39.3945 22.5043C39.4381 22.4854 39.4773 22.4576 39.5096 22.4228C39.5419 22.388 39.5667 22.3469 39.5823 22.302C39.598 22.2572 39.6042 22.2096 39.6005 22.1622C39.6005 21.8975 39.4483 21.785 39.124 21.785H38.6145V23.1085H38.813V22.546ZM38.813 22.374V21.9571H39.0976C39.2365 21.9571 39.3954 21.9571 39.3954 22.1556C39.3954 22.3541 39.2365 22.374 39.0645 22.374H38.813Z" fill="#CCCCCC"/>
<path d="M48.9225 23.4263C49.5842 23.4263 49.4651 22.9895 49.4982 22.5858C49.5313 22.1821 49.4055 21.924 48.896 21.9704C48.011 22.0338 47.1216 21.9849 46.2489 21.8248C40.6372 20.7461 37.6989 14.016 40.8555 9.43655C41.4065 8.95838 41.9198 8.43846 42.3908 7.8814C44.9982 5.23434 49.5048 5.23434 52.1055 6.88213C53.3719 7.80505 54.469 8.94018 55.3482 10.2373C55.9028 11.3209 56.1921 12.5207 56.1921 13.738C56.1921 14.9553 55.9028 16.1552 55.3482 17.2388C54.9511 18.0726 55.6261 18.1718 56.0099 18.4035C56.3938 18.6351 56.4467 18.0924 56.6188 17.8873C56.7372 17.7155 56.8266 17.5255 56.8835 17.3248C57.8688 14.8488 57.8308 12.0829 56.7776 9.63507C55.9769 8.31155 55.2026 6.98802 53.8725 6.10787C53.2107 5.6711 52.5489 5.26743 51.8872 4.87037C49.7624 3.96772 47.394 3.81372 45.1702 4.4336C43.4224 4.97226 41.8429 5.95231 40.5842 7.27919C40.5463 7.34779 40.5043 7.41409 40.4585 7.47772C37.8114 10.8527 37.3283 14.5123 39.3401 18.2976C41.3519 22.0829 44.7136 23.5785 48.9225 23.4263Z" fill="#B3B3B3"/>
<path d="M65.5305 36.6284C65.3287 36.7491 65.1667 36.9262 65.0644 37.1379C64.9621 37.3495 64.924 37.5865 64.9548 37.8196C65.0077 38.3622 65.0209 38.9115 65.0672 39.4608C65.107 39.8512 65.0011 40.0299 64.5643 40.0167C63.5187 40.0167 62.4731 40.0167 61.4209 40.0167C61.0834 40.0167 60.865 39.9637 60.8915 39.5534C60.8825 39.353 60.8559 39.1537 60.8121 38.9578C60.4547 39.1365 60.2298 39.3019 60.2628 39.6924C60.2959 40.0828 60.0709 40.2218 59.7136 40.1556C59.3562 40.0894 59.482 39.8512 59.5481 39.6196C59.5916 39.5393 59.6143 39.4495 59.6143 39.3582C59.6143 39.2669 59.5916 39.1771 59.5481 39.0968C59.3951 39.1395 59.2571 39.2241 59.1495 39.341C59.042 39.4579 58.9692 39.6025 58.9393 39.7586C58.7805 40.2814 58.2775 40.235 57.8871 40.1953C57.3643 40.1424 57.4702 39.7718 57.543 39.4277C57.5827 39.2225 57.543 39.0571 57.2717 39.1431C56.9408 40.0299 56.2393 40.1358 55.4121 40.0497C54.9712 40.027 54.5295 40.027 54.0886 40.0497H50.9915C51.2827 39.388 51.6533 38.8122 50.74 38.4681C49.6548 38.0446 49.1187 38.2497 48.6224 39.3814L48.8275 39.4608C49.0658 39.5137 49.4364 39.4608 49.3834 39.838C49.3305 40.2152 49.0062 40.0431 48.7812 40.0431H44.8702C44.6121 40.0431 44.3342 40.1027 44.2812 39.7122C44.215 39.1894 44.1158 38.5542 43.4937 38.5144C42.8717 38.4747 42.7261 39.1762 42.4878 39.6593L42.4481 39.7321C42.2297 40.6784 43.0106 40.6718 43.5864 40.8637C43.282 41.9027 42.3621 41.7902 41.6011 41.9689C42.8386 42.4917 43.5864 42.2468 44.1356 41.1152C44.3077 40.7446 44.5525 40.7909 44.7974 40.7909C47.0474 40.7909 49.2974 40.7446 51.5474 40.7909C53.6187 40.8439 55.7033 40.4997 57.7614 40.9828C57.9909 41.0459 58.2333 41.0459 58.4628 40.9828C59.2702 40.6983 60.104 40.8902 60.9246 40.8174C62.407 40.6784 63.9025 40.9828 65.3783 40.6321C65.7224 39.3152 65.3849 38.0512 65.5305 36.6284ZM43.3945 40.0167C43.1695 40.0167 42.9842 39.9174 42.9775 39.6725C42.9733 39.5823 43.0028 39.4937 43.0603 39.4239C43.1178 39.3542 43.1992 39.3084 43.2886 39.2953C43.5665 39.2953 43.5334 39.5534 43.5864 39.6461C43.6592 39.9042 43.6062 40.0233 43.3945 40.0167Z" fill="#B3B3B3"/>
<path d="M38.2518 38.6739C38.1628 38.693 38.0805 38.7356 38.0135 38.7973C37.9466 38.859 37.8974 38.9375 37.871 39.0246C37.8447 39.1118 37.8421 39.2044 37.8637 39.2928C37.8853 39.3813 37.9302 39.4623 37.9937 39.5276C38.2187 39.8518 37.9937 40.0305 37.6231 40.0173C36.8687 40.0173 36.1143 40.0173 35.3599 40.0173C33.1893 40.0173 33.1893 40.0173 33.0106 37.8467C32.2619 38.2667 31.5473 38.7446 30.8731 39.2761C30.2841 39.8254 30.5157 40.2952 31.2966 40.4607C31.5268 40.5483 31.7814 40.5467 32.0105 40.4561C32.2395 40.3654 32.4263 40.1924 32.5341 39.9709C33.0238 40.7717 33.0238 40.7717 33.9371 40.7783H37.2459C38.7878 40.7783 38.7878 40.7783 38.715 39.2364C38.5429 39.0445 38.6885 38.5283 38.2518 38.6739ZM32.5077 39.6004C32.3142 39.6975 32.0985 39.742 31.8824 39.7292C31.6663 39.7164 31.4574 39.6469 31.2768 39.5276C31.6937 39.4018 31.8591 38.7533 32.3753 38.9849C32.5937 39.0776 32.6665 39.5077 32.5275 39.6004H32.5077Z" fill="#B3B3B3"/>
<path d="M41.0246 38.144C40.2569 38.197 40.3959 38.5543 40.7069 39.0176C40.8922 39.3021 41.2297 39.6793 40.9584 39.9705C40.8187 40.0868 40.6448 40.1543 40.4632 40.1627C40.2816 40.171 40.1023 40.1198 39.9525 40.0168C39.7738 40.1293 39.3701 39.7389 39.3834 40.2485C39.3834 40.5396 39.4959 40.8043 39.8863 40.7977C40.2768 40.7911 40.6672 40.7977 41.051 40.7977C41.5341 40.7977 41.6731 40.5926 41.7128 40.136C41.7005 39.4158 41.4595 38.7182 41.0246 38.144Z" fill="#B3B3B3"/>
<path d="M66.5191 36.7017C66.3466 36.8712 66.233 37.0915 66.1948 37.3303C66.4529 38.4487 66.2742 39.587 66.3669 40.8642C66.7284 40.1672 66.8909 39.3842 66.8367 38.6009C66.6647 37.9921 67.0154 37.2906 66.5191 36.7017Z" fill="#B3B3B3"/>
<path d="M31.4124 37.7534C32.0079 38.2233 32.0741 37.7534 32.2329 37.3563C31.9352 36.9394 31.4521 37.3034 31.2403 37.1843C30.8035 36.9461 30.5785 37.085 30.4462 37.3961C30.3138 37.7071 30.5454 37.899 30.83 38.0049C31.1146 38.1108 31.1543 37.5483 31.4124 37.7534Z" fill="#B3B3B3"/>
<path d="M38.1304 41.2013C37.7347 41.2475 37.335 41.2475 36.9393 41.2013C36.8334 41.2013 36.6349 41.3998 36.6547 41.6116C36.6547 41.6513 36.7076 41.691 36.7275 41.7373C36.9988 42.3593 37.5944 41.5255 37.9385 42.0086C38.0312 42.1277 38.2165 41.8432 38.3488 41.7373C38.3785 41.694 38.4029 41.6474 38.4216 41.5983C38.415 41.4064 38.2496 41.188 38.1304 41.2013Z" fill="#B3B3B3"/>
<path d="M32.958 33.2604C33.4975 33.3605 34.044 33.418 34.5925 33.4324C37.1337 33.5118 39.569 32.8699 42.0043 32.2743C42.1777 32.1964 42.3745 32.1887 42.5535 32.2528C42.7324 32.317 42.8795 32.4481 42.9638 32.6184C43.7116 33.7501 44.8697 33.7501 45.7896 32.7574C45.9285 32.592 46.0609 32.4199 46.2396 32.1949C46.4496 32.6196 46.7666 32.9823 47.1594 33.2471C47.7683 33.6045 48.3638 33.7765 48.9528 33.2008C49.4906 32.5705 49.799 31.7767 49.8279 30.9487C49.8567 30.1207 49.6043 29.3074 49.1116 28.6412C48.6947 29.303 48.2315 29.9648 48.8138 30.8449C49.0653 31.2023 49.2903 31.6192 48.708 31.9567C48.6001 32.032 48.4782 32.0848 48.3495 32.1119C48.2207 32.1391 48.0879 32.14 47.9588 32.1147C47.8297 32.0894 47.7071 32.0383 47.5982 31.9645C47.4892 31.8908 47.3963 31.7958 47.3249 31.6854C47.019 31.2604 46.8131 30.7717 46.7227 30.2559C46.5404 29.2784 46.4189 28.2904 46.3587 27.2979C45.6969 28.0986 44.9955 28.7074 45.591 29.7596C45.6989 30.0266 45.7528 30.3122 45.7499 30.6001C45.7847 30.7475 45.7895 30.9005 45.7637 31.0499C45.738 31.1992 45.6824 31.3419 45.6002 31.4692C45.518 31.5965 45.4109 31.7059 45.2854 31.7908C45.1599 31.8757 45.0185 31.9344 44.8697 31.9633C44.5562 32.0115 44.2359 31.9394 43.9733 31.7615C43.7107 31.5835 43.525 31.3128 43.4535 31.0037C43.3477 30.342 43.0697 30.342 42.58 30.5471C42.4089 30.61 42.2344 30.6631 42.0572 30.7059C39.569 31.4206 37.0741 32.1287 34.4403 32.0295C32.2962 31.9037 31.555 31.1758 31.4955 29.1177L31.8065 27.589L31.6344 27.5229L31.1712 28.5618C31.0008 28.9704 30.8528 29.3879 30.7278 29.8126C30.3109 31.6258 31.1116 32.9096 32.958 33.2604Z" fill="#B3B3B3"/>
<path d="M51.3741 31.8241C51.5374 32.368 51.8713 32.8451 52.3265 33.1847C52.7817 33.5243 53.3341 33.7085 53.902 33.7101C54.4879 33.8057 55.0889 33.7268 55.6302 33.4832C56.1715 33.2396 56.6292 32.8421 56.9462 32.3402C57.2138 31.8131 57.3354 31.2238 57.2981 30.6338C57.2609 30.0437 57.0662 29.4744 56.7344 28.9851C56.0726 29.6072 55.7153 30.3086 56.2381 31.1888C56.2723 31.2373 56.2962 31.2924 56.3085 31.3505C56.3207 31.4086 56.3209 31.4687 56.3091 31.5269C56.2974 31.5851 56.2738 31.6403 56.24 31.6891C56.2062 31.738 56.1627 31.7794 56.1123 31.8108C55.7325 32.0782 55.2979 32.2579 54.8402 32.3368C54.3824 32.4158 53.9128 32.3921 53.4653 32.2675C52.7109 32.0425 52.5653 31.3079 52.466 30.6263C52.4042 30.1876 52.3688 29.7456 52.3601 29.3027C52.2278 26.1726 52.1087 23.0425 51.9829 19.9123C51.9829 19.5748 51.9101 19.2505 51.8572 18.6748C51.4204 19.3366 50.6859 19.4557 50.7057 20.0645C50.7719 22.2483 50.9307 24.4322 51.0498 26.6226C51.0088 27.6095 51.0642 28.598 51.2153 29.5741C51.1516 30.3278 51.2052 31.0868 51.3741 31.8241Z" fill="#B3B3B3"/>
<path d="M51.2765 18.4895C51.7199 18.4895 51.9383 18.4234 51.9383 17.9006C51.8986 17.0932 51.9383 16.2859 51.9383 15.4785C51.9383 15.0748 52.0508 14.9359 52.4677 14.9425C52.8846 14.9491 53.5265 15.0815 53.9302 14.6116C53.9302 13.1028 53.9302 11.5873 53.9831 10.0785C54.0034 9.97244 53.9974 9.86302 53.9657 9.75979C53.934 9.65656 53.8775 9.56267 53.8011 9.48631C53.7247 9.40994 53.6308 9.35343 53.5276 9.32169C53.4244 9.28996 53.315 9.28397 53.2089 9.30425C52.5074 9.30425 51.7993 9.30425 51.0912 9.30425C50.7074 9.30425 50.6876 9.51602 50.6545 9.78072C50.661 9.8843 50.661 9.98818 50.6545 10.0918C50.6545 12.6925 50.6545 15.2932 50.6545 17.894C50.6412 18.3837 50.8265 18.4895 51.2765 18.4895ZM52.2361 10.0851C52.4743 10.0851 52.6729 10.191 52.6729 10.4359C52.6729 11.5543 52.6729 12.6726 52.6729 13.791C52.6729 14.0888 52.4412 14.1682 52.1699 14.1484C51.8986 14.1285 51.8986 13.8903 51.8986 13.6851V10.4888C51.8986 10.2506 51.9449 10.0785 52.2361 10.0851Z" fill="#B3B3B3"/>
<path d="M66.4957 17.7617C66.1992 18.0482 65.9636 18.3917 65.8033 18.7715C65.6429 19.1514 65.5611 19.5597 65.5626 19.972C65.6155 23.3867 65.5626 26.8014 65.5626 30.2161C65.576 31.1027 65.5096 31.9886 65.3641 32.8632C65.3641 32.9889 65.0464 33.1875 65.3641 33.2867C65.6817 33.386 65.6685 33.1345 65.7479 32.9823C66.2092 32.1655 66.506 31.2662 66.6214 30.3352C66.7757 29.977 66.8305 29.5838 66.7803 29.197C66.7803 26.497 66.7803 23.7904 66.7803 21.0904C67.0516 20.9977 67.217 21.3419 67.5148 21.2558L66.4957 17.7617Z" fill="#B3B3B3"/>
<path d="M63.0021 30.2293C63.0641 30.5111 63.0193 30.8059 62.8764 31.0565C60.2112 32.6483 57.4383 34.0524 54.5779 35.2587C56.255 35.3554 57.9334 35.0937 59.5014 34.4911C61.2154 33.8293 62.7044 32.8565 63.472 31.083C63.8772 30.3189 64.0649 29.4582 64.0146 28.5947C63.9485 26.3249 63.8955 24.055 63.8227 21.7852C63.8227 21.3749 63.7764 21.0109 64.4382 21.3352L63.3992 17.4043C62.883 18.0661 62.4066 18.5293 62.4595 19.3896C62.6646 22.983 62.8235 26.6028 63.0021 30.2293Z" fill="#B3B3B3"/>
<path d="M56.7808 21.1767C56.5955 20.9848 56.0132 20.7201 56.7808 20.4223C57.0124 20.3297 56.7411 20.1708 56.6551 20.0914C56.1257 19.5885 55.583 19.1054 54.9147 18.4966C54.8352 19.1583 54.7691 19.6083 54.7029 20.0914C54.7029 20.2436 54.6433 20.3694 54.7955 20.5083C56.5227 22.1164 57.8661 24.062 59.4808 25.7628C60.7761 26.9776 61.6794 28.5514 62.0749 30.2826C62.0749 30.3422 62.161 30.3819 62.2801 30.5076C62.436 29.526 62.361 28.5215 62.0612 27.5739C61.7614 26.6262 61.245 25.7614 60.5529 25.0481C59.3088 23.7311 58.0316 22.4606 56.7808 21.1767Z" fill="#B3B3B3"/>
<path d="M44.3567 34.3059C44.0589 34.8022 43.8207 34.6037 43.4898 34.425C43.3045 34.3257 43.0994 34.0279 42.881 34.2596C42.6626 34.4912 42.2192 34.961 42.3185 35.325C42.4177 35.689 42.9802 35.8015 43.3244 36.0662C43.6023 36.0662 43.642 35.8809 43.7148 35.7287C43.867 35.4243 44.0788 35.3316 44.3302 35.5632C45.0516 36.225 45.2898 35.6625 45.6008 35.1331C45.7795 34.8221 45.8192 34.5838 45.4288 34.4713C45.0383 34.3588 44.7538 33.6507 44.3567 34.3059Z" fill="#B3B3B3"/>
<path d="M59.9654 20.25C59.8198 20.1441 59.5022 20.0978 59.7007 19.8066C59.8993 19.5154 59.9919 19.2639 60.3625 19.5022C60.475 19.575 60.5676 19.8 60.7265 19.5816C60.7928 19.4857 60.8326 19.374 60.8419 19.2578C60.8512 19.1416 60.8297 19.025 60.7794 18.9198C60.7531 18.8311 60.694 18.7557 60.6141 18.7089C60.5342 18.6622 60.4395 18.6477 60.3493 18.6683C59.8198 18.7478 58.8735 20.2566 59.2243 20.5875C59.7735 21.1036 59.5816 21.4875 59.2706 21.9573C59.2309 22.0301 59.2243 22.1625 59.4559 22.2154C60.0515 21.2625 61.4412 20.9581 61.8581 19.6411C61.499 19.7672 61.1731 19.9731 60.9051 20.2433C60.7724 20.3506 60.6071 20.4096 60.4364 20.4108C60.2658 20.412 60.0997 20.3553 59.9654 20.25Z" fill="#B3B3B3"/>
<path d="M47.3914 35.5037C47.3914 36.0132 48.0531 36.2184 48.4171 36.2449C48.9399 36.2846 48.9002 35.55 49.2575 35.2257C49.1447 35.0212 48.984 34.847 48.7893 34.7179C48.5945 34.5889 48.3715 34.5088 48.1392 34.4846C47.6494 34.4713 47.4046 35.1265 47.3914 35.5037Z" fill="#B3B3B3"/>
<path d="M35.2056 35.4704C35.2056 35.9469 35.8673 35.9668 36.2379 36.2844C36.4405 36.1768 36.6142 36.022 36.7444 35.8331C36.8745 35.6442 36.9573 35.4267 36.9857 35.1991C37.032 34.6763 36.3239 34.4844 35.9997 34.4513C35.4372 34.4116 35.232 35.1131 35.2056 35.4704Z" fill="#B3B3B3"/>
<path d="M55.2272 27.3836C55.5713 27.013 55.9551 26.5828 55.8889 26.199C55.8228 25.8152 55.1875 25.4711 54.8169 25.4975C54.4463 25.524 54.0823 26.1593 54.1088 26.5564C54.1353 26.9534 54.8433 27.0461 55.2272 27.3836Z" fill="#B3B3B3"/>
<path d="M42.1374 18.3373C43.0116 18.5991 43.9433 18.5991 44.8175 18.3373C45.4793 18.0594 45.0888 17.219 45.1749 16.63C45.2013 16.4235 45.2013 16.2144 45.1749 16.0079C45.1021 15.3859 45.3668 14.7241 44.9896 14.1285C44.8167 13.9364 44.6159 13.7713 44.394 13.6388C43.1697 13.1028 42.8521 12.1498 43.0704 10.9256C43.0738 10.8992 43.0738 10.8725 43.0704 10.8462C43.0704 10.5153 43.0704 10.1844 43.5403 10.1844C44.0101 10.1844 43.944 10.5219 43.9638 10.8131C44.0035 11.2962 43.8315 11.7925 44.0565 12.2623C44.3741 12.5072 44.7182 12.3087 45.0888 12.4079C45.2098 11.531 45.2364 10.6435 45.1682 9.76088C45.1797 9.66726 45.1543 9.57286 45.0976 9.49756C45.0408 9.42226 44.957 9.37194 44.8638 9.3572C43.8579 9.3572 42.819 9.03294 41.8462 9.58882V9.74102C41.8629 10.3152 41.843 10.8899 41.7866 11.4616C41.6334 12.0259 41.6956 12.6271 41.961 13.1481C42.2264 13.6691 42.6761 14.0728 43.2227 14.2807C43.4874 14.3998 43.8844 14.5587 43.8844 14.8896C43.9374 15.6373 43.8844 16.3984 43.8844 17.1528C43.8838 17.2128 43.8699 17.2719 43.8436 17.3258C43.8173 17.3797 43.7793 17.4271 43.7324 17.4645C43.6855 17.5019 43.6309 17.5283 43.5724 17.542C43.514 17.5556 43.4533 17.556 43.3947 17.5432C43.1432 17.5432 43.044 17.3447 43.0374 17.1131C43.0374 16.7226 43.0374 16.3322 43.0374 15.9418C43.0374 15.5513 43.0374 15.2072 42.4484 15.2072C41.8594 15.2072 41.7469 15.4388 41.7866 15.9418C41.8329 16.6035 41.7866 17.2653 41.8329 17.894C41.8203 17.9433 41.8184 17.9948 41.8273 18.0449C41.8362 18.0951 41.8557 18.1427 41.8846 18.1847C41.9134 18.2267 41.9509 18.262 41.9945 18.2884C42.0381 18.3147 42.0868 18.3314 42.1374 18.3373Z" fill="#B3B3B3"/>
<path d="M60.8711 17.292C59.1373 18.1721 58.7005 18.5361 58.5483 19.2243C60.0505 18.4898 60.752 17.8677 60.8711 17.292Z" fill="#B3B3B3"/>
<path d="M49.3816 14.0759C48.9022 13.643 48.3838 13.2553 47.8331 12.9178C47.6412 12.7656 47.4691 12.6465 47.4757 12.3686C47.4757 11.7995 47.4757 11.2237 47.4757 10.6546C47.4757 10.3767 47.5948 10.2046 47.886 10.198C47.951 10.1888 48.0173 10.1944 48.0799 10.2143C48.1425 10.2343 48.1997 10.2681 48.2474 10.3133C48.2951 10.3584 48.332 10.4138 48.3554 10.4751C48.3787 10.5365 48.388 10.6024 48.3823 10.6678C48.4086 10.9518 48.4086 11.2376 48.3823 11.5215C48.2698 12.3355 48.6272 12.5473 49.3551 12.3223C49.3856 12.3358 49.4192 12.3408 49.4523 12.3368C49.4854 12.3329 49.5168 12.3201 49.5432 12.2997C49.5696 12.2794 49.5901 12.2523 49.6024 12.2213C49.6147 12.1904 49.6185 12.1566 49.6132 12.1237C49.6721 11.2401 49.6366 10.3527 49.5073 9.47667C48.7926 9.11931 48.025 9.37078 47.2904 9.31784C46.9728 9.31784 46.6287 9.19211 46.3706 9.56269C46.1456 9.77446 46.2382 10.0524 46.2316 10.3039C46.2316 11.2634 46.2316 12.2296 46.2316 13.1958C46.8206 13.6259 47.4162 14.0561 47.9985 14.5193C48.1573 14.6384 48.3956 14.7178 48.4022 14.9627C48.4022 15.6906 48.4022 16.4186 48.4022 17.1465C48.4014 17.2065 48.3885 17.2657 48.3641 17.3205C48.3398 17.3753 48.3046 17.4246 48.2607 17.4654C48.2168 17.5063 48.165 17.5378 48.1086 17.558C48.0522 17.5783 47.9922 17.5869 47.9323 17.5833C47.6015 17.5833 47.4956 17.3583 47.5022 17.0605C47.5088 16.7627 47.5022 16.3259 47.5022 15.962C47.5022 15.598 47.4691 15.2208 46.8537 15.2208C46.2382 15.2208 46.1919 15.459 46.1919 15.962C46.1919 16.4649 46.1919 17.1068 46.1919 17.6759C46.1919 18.0068 46.2912 18.3377 46.5956 18.3377C47.5002 18.559 48.4496 18.5131 49.3287 18.2053C49.739 17.762 49.6 17.2193 49.5669 16.723C49.5603 15.8825 49.8779 14.9296 49.3816 14.0759Z" fill="#B3B3B3"/>
</svg>
