<svg width="109" height="45" viewBox="0 0 109 45" fill="none" xmlns="http://www.w3.org/2000/svg">
<g clip-path="url(#clip0_1_15457)">
<path d="M54.0283 44.9803C52.0716 44.9875 50.1421 44.5218 48.4041 43.6227C46.6661 42.7237 45.1712 41.418 44.0464 39.8168L26.6417 15.4189C25.858 14.372 25.3876 13.1243 25.285 11.8207C25.1824 10.5171 25.4519 9.21108 26.0622 8.05457C27.6184 5.0268 31.0238 3.13852 34.9827 3.13201L72.9958 3.08643C76.9026 3.08643 80.3471 4.96169 81.9163 7.98294C82.53 9.13782 82.8025 10.4434 82.7022 11.7473C82.6019 13.0513 82.1329 14.2998 81.3498 15.3472L64.0623 39.7908C62.938 41.405 61.4389 42.7223 59.6934 43.6296C57.948 44.5369 56.0085 45.0071 54.0413 44.9998L54.0283 44.9803ZM28.543 14.0645L45.9087 38.4625C46.8231 39.7645 48.0394 40.8255 49.4535 41.5546C50.8676 42.2838 52.4373 42.6594 54.0283 42.6492C55.6199 42.6561 57.1895 42.2771 58.6025 41.5445C60.0155 40.8119 61.2298 39.7476 62.1414 38.4429L79.4485 13.9994C79.9867 13.3032 80.3118 12.466 80.3846 11.589C80.4574 10.7121 80.2747 9.83276 79.8587 9.05731C78.7127 6.84346 76.0236 5.41748 73.0088 5.41748L35.0022 5.46957C31.981 5.46957 29.2918 6.90206 28.1458 9.12242C27.7298 9.89787 27.5472 10.7772 27.6199 11.6541C27.6927 12.5311 28.0178 13.3683 28.556 14.0645H28.543Z" fill="#CCCCCC"/>
<path d="M34.4371 6.77468H49.5229L49.6317 12.7275H48.8026C48.1321 9.34788 46.7414 7.65809 44.6302 7.65809H44.2089V24.103H46.9679V25H37.0058V24.103H39.7511V7.65809H39.3434C37.2323 7.65809 35.837 9.34788 35.1574 12.7275H34.3284L34.4371 6.77468Z" fill="#CCCCCC"/>
<path d="M71.2643 7.80311L71.4778 12.607H70.4103C69.8498 11.0235 69.2093 9.9204 68.4887 9.29767C67.777 8.66604 66.9141 8.35022 65.8999 8.35022C65.037 8.35022 64.3253 8.62156 63.7649 9.16422C63.2044 9.70689 62.9242 10.3341 62.9242 11.0458C62.9242 11.9265 63.2177 12.5314 63.8049 12.8606C64.392 13.1897 65.4018 13.5056 66.834 13.808C69.0314 14.2795 70.5037 14.9912 71.251 15.9431C72.0072 16.8861 72.3852 18.0871 72.3852 19.546C72.3852 21.263 71.8871 22.7442 70.8907 23.9897C69.9032 25.2351 68.5154 25.8579 66.7273 25.8579C65.4551 25.8579 64.3075 25.4575 63.2845 24.6569C62.7863 25.0483 62.337 25.4309 61.9367 25.8045H61.0426V20.5869H62.0835C62.8664 23.5226 64.3876 24.9905 66.6472 24.9905C67.8393 24.9905 68.7556 24.6391 69.3961 23.9363C70.0367 23.2335 70.3569 22.4462 70.3569 21.5744C70.3569 21.0851 70.2146 20.6447 69.9299 20.2533C69.6541 19.8619 69.3294 19.5505 68.9558 19.3192C68.5821 19.0879 67.5502 18.7988 65.8599 18.4518C64.1696 18.1049 62.9286 17.4554 62.1369 16.5036C61.354 15.5517 60.9626 14.364 60.9626 12.9406C60.9626 11.4105 61.443 10.1161 62.4038 9.05747C63.3734 7.99883 64.5789 7.4695 66.02 7.4695C67.1143 7.4695 68.204 7.85204 69.2894 8.61711C69.6363 8.4125 70.01 8.14116 70.4103 7.80311H71.2643Z" fill="#CCCCCC"/>
<path d="M61.1549 26.9336H56.1507L55.4329 25.7473C54.3696 26.6179 53.097 27.0532 51.615 27.0532C50.1994 27.0532 49.1261 26.7043 48.3951 26.0065C47.6707 25.3087 47.3085 24.468 47.3085 23.4845C47.3085 21.5971 48.7108 20.155 51.5153 19.1581C50.9172 18.0948 50.6181 17.2242 50.6181 16.5464C50.6181 15.5827 50.9836 14.8451 51.7147 14.3333C52.4523 13.8216 53.3329 13.5658 54.3563 13.5658C55.3332 13.5658 56.1839 13.7884 56.9083 14.2337C57.6393 14.6789 58.0048 15.3003 58.0048 16.0978C58.0048 17.2475 56.9083 18.1114 54.7152 18.6896L57.3569 23.0758C57.7888 22.4644 58.1477 21.8662 58.4335 21.2814C58.7192 20.69 58.8621 20.2746 58.8621 20.0354C58.8621 19.7496 58.6594 19.6067 58.254 19.6067H56.9481V18.9089H61.4938V19.6067H60.6365C60.2909 19.6067 60.0716 19.6399 59.9786 19.7064C59.8855 19.7662 59.6097 20.2779 59.1512 21.2416C58.6993 22.2052 58.2075 23.0126 57.6758 23.6639L59.2509 26.3454H61.1549V26.9336ZM53.6785 16.975L54.4161 18.1712C54.9611 18.0117 55.3233 17.7492 55.5027 17.3837C55.6888 17.0116 55.7818 16.5131 55.7818 15.8884C55.7818 15.2837 55.6423 14.8218 55.3631 14.5028C55.0907 14.1772 54.7318 14.0143 54.2865 14.0143C53.8811 14.0143 53.5555 14.1207 53.3096 14.3333C53.0637 14.546 52.9408 14.8118 52.9408 15.1308C52.9408 15.5562 53.1867 16.1709 53.6785 16.975ZM55.104 25.219L51.7745 19.6067C50.6912 20.0121 50.1496 20.6368 50.1496 21.4808C50.1496 22.2982 50.4918 23.2718 51.1763 24.4016C51.8675 25.5314 52.552 26.0962 53.2299 26.0962C53.6485 26.0962 54.2732 25.8038 55.104 25.219Z" fill="#CCCCCC"/>
</g>
<defs>
<clipPath id="clip0_1_15457">
<rect width="108.529" height="45" fill="white"/>
</clipPath>
</defs>
</svg>
