<svg width="110" height="45" viewBox="0 0 110 45" fill="none" xmlns="http://www.w3.org/2000/svg">
<path d="M12.0515 33.0879H9.79492V31.8901H15.989V33.0879H13.6795V38.66H12.0515V33.0879Z" fill="#CCCCCC"/>
<path d="M22.2558 35.735H18.6558V37.4556H22.6264L22.4345 38.66H17.0742V31.8901H22.4147V33.0879H18.6558V34.5438H22.2558V35.735Z" fill="#CCCCCC"/>
<path d="M23.7798 31.8901H25.3879V34.9144C25.8842 34.3916 27.4327 32.8629 28.3857 31.8901H30.3114L27.2871 34.7093L30.4239 38.6798H28.4386L26.129 35.6688L25.3349 36.3306V38.66H23.7798V31.8901Z" fill="#CCCCCC"/>
<path d="M31.2559 38.6666V31.8901H33.2412C34.1809 33.4122 35.8882 36.1519 36.2588 36.8931C36.2654 36.185 36.2654 35.0071 36.2654 33.8953V31.91H37.7412V38.6666H35.7956C34.9882 37.3431 33.0625 34.1931 32.6853 33.3725C32.7448 33.9681 32.7581 35.3578 32.7581 36.5688V38.6335L31.2559 38.6666Z" fill="#CCCCCC"/>
<path d="M41.2022 31.8901V38.6666H39.5742V31.8901H41.2022Z" fill="#CCCCCC"/>
<path d="M43.0693 31.8901H44.6774V34.9144C45.1671 34.3916 46.7223 32.8629 47.6686 31.8901H49.6539L46.6296 34.7093L49.7598 38.6798H47.7745L45.4649 35.6556L44.6774 36.3173V38.6468H43.0693V31.8901Z" fill="#CCCCCC"/>
<path d="M55.9272 31.8901H59.2361C61.0559 31.8901 61.7442 32.7438 61.7442 33.624C61.745 33.9376 61.6505 34.2442 61.4732 34.503C61.296 34.7618 61.0443 34.9606 60.7515 35.0732C61.085 35.1728 61.3783 35.3759 61.5888 35.653C61.7994 35.9302 61.9163 36.2671 61.9228 36.6151C61.9228 37.7732 60.9103 38.6468 59.2758 38.6468H55.9272V31.8901ZM59.0243 34.5372C59.7986 34.5372 60.1162 34.2262 60.1162 33.7497C60.1162 33.2732 59.6993 32.9953 59.0706 32.9953H57.5221V34.5372H59.0243ZM57.5221 37.5085H58.9912C59.8714 37.5085 60.2684 37.1776 60.2684 36.5622C60.2684 35.9468 59.878 35.6688 58.9449 35.6688H57.489L57.5221 37.5085Z" fill="#CCCCCC"/>
<path d="M70.2216 35.2521C70.2216 37.1382 68.9643 38.7661 66.5157 38.7661C64.0672 38.7661 62.9224 37.2176 62.9224 35.2786C62.9224 33.3396 64.2856 31.7646 66.6216 31.7646C68.8253 31.7646 70.2216 33.1808 70.2216 35.2521ZM64.6032 35.2521C64.6032 36.5757 65.265 37.5749 66.5885 37.5749C68.0312 37.5749 68.5738 36.4896 68.5738 35.2786C68.5738 34.0676 67.9915 32.9889 66.5885 32.9889C65.1856 32.9889 64.6032 33.9286 64.6032 35.2455V35.2521Z" fill="#CCCCCC"/>
<path d="M77.956 36.1254C77.956 34.9673 77.956 33.6703 78.009 32.9093H77.956C77.6053 34.2857 76.8509 36.5423 76.1296 38.6666H74.7465C74.1972 36.8137 73.4229 34.2394 73.0854 32.8894H73.0391C73.0987 33.6835 73.1318 35.0798 73.1318 36.2379V38.6666H71.6494V31.8901H74.0715C74.6538 33.6637 75.3156 35.8607 75.5406 36.8931C75.7259 35.9997 76.5531 33.624 77.1751 31.8901H79.5112V38.6666H77.956V36.1254Z" fill="#CCCCCC"/>
<path d="M81.3915 31.8901H84.7003C86.5135 31.8901 87.2084 32.7438 87.2084 33.624C87.2111 33.9363 87.119 34.2421 86.9441 34.5009C86.7692 34.7597 86.5198 34.9593 86.229 35.0732C86.563 35.1719 86.8568 35.3747 87.0675 35.6521C87.2782 35.9294 87.3948 36.2669 87.4003 36.6151C87.4003 37.7732 86.3878 38.6468 84.7532 38.6468H81.3584L81.3915 31.8901ZM84.4885 34.5372C85.2628 34.5372 85.5805 34.2262 85.5805 33.7497C85.5805 33.2732 85.1635 32.9953 84.5349 32.9953H82.9863V34.5372H84.4885ZM82.9863 37.5085H84.4555C85.3356 37.5085 85.7327 37.1776 85.7327 36.5622C85.7327 35.9468 85.3422 35.6688 84.4488 35.6688H82.9863V37.5085Z" fill="#CCCCCC"/>
<path d="M93.9384 35.735H90.3385V37.4556H94.309L94.1171 38.66H88.7568V31.8901H94.0973V33.0879H90.3385V34.5438H93.9384V35.735Z" fill="#CCCCCC"/>
<path d="M51.1163 29.6741C68.6265 29.6741 82.8214 23.8403 82.8214 16.6439C82.8214 9.44756 68.6265 3.61377 51.1163 3.61377C33.606 3.61377 19.4111 9.44756 19.4111 16.6439C19.4111 23.8403 33.606 29.6741 51.1163 29.6741Z" fill="#CCCCCC"/>
<path d="M75.9702 12.8257H26.9996C26.18 12.8257 25.3939 13.1513 24.8143 13.7309C24.2348 14.3104 23.9092 15.0965 23.9092 15.9161V16.3794C23.9092 17.1996 24.2346 17.9864 24.8139 18.567C25.3933 19.1476 26.1794 19.4747 26.9996 19.4764H47.8518V30.3558H55.1312V19.4764H75.9702C76.7905 19.4747 77.5765 19.1476 78.1559 18.567C78.7353 17.9864 79.0606 17.1996 79.0606 16.3794V15.9161C79.0606 15.0965 78.735 14.3104 78.1555 13.7309C77.5759 13.1513 76.7898 12.8257 75.9702 12.8257Z" fill="white"/>
<path d="M94.4773 30.7207V29.1662H95.0026C95.124 29.1662 95.2237 29.1869 95.3016 29.2284C95.3796 29.2694 95.4373 29.3258 95.4747 29.3977C95.5122 29.4695 95.5309 29.5513 95.5309 29.6428C95.5309 29.7344 95.5122 29.8157 95.4747 29.8865C95.4373 29.9573 95.3798 30.013 95.3024 30.0535C95.225 30.0935 95.126 30.1135 95.0056 30.1135H94.5805V29.9434H94.9995C95.0825 29.9434 95.1493 29.9313 95.1999 29.907C95.251 29.8827 95.288 29.8483 95.3108 29.8038C95.334 29.7587 95.3457 29.7051 95.3457 29.6428C95.3457 29.5806 95.334 29.5262 95.3108 29.4796C95.2875 29.4331 95.2503 29.3972 95.1992 29.3719C95.1481 29.3461 95.0805 29.3331 94.9965 29.3331H94.6656V30.7207H94.4773ZM95.209 30.0224L95.5916 30.7207H95.373L94.9965 30.0224H95.209Z" fill="#CCCCCC"/>
<path d="M94.9493 31.361C94.7223 31.3623 94.5001 31.2961 94.3108 31.1708C94.1215 31.0455 93.9737 30.8668 93.8863 30.6573C93.7988 30.4478 93.7756 30.2171 93.8195 29.9944C93.8635 29.7717 93.9727 29.5671 94.1332 29.4066C94.2937 29.2461 94.4983 29.1369 94.721 29.093C94.9437 29.049 95.1744 29.0722 95.3839 29.1597C95.5933 29.2472 95.7721 29.3949 95.8974 29.5842C96.0226 29.7735 96.0888 29.9958 96.0875 30.2227C96.0858 30.5241 95.9653 30.8126 95.7522 31.0257C95.5392 31.2388 95.2506 31.3592 94.9493 31.361ZM94.9493 29.2036C94.7477 29.2036 94.5507 29.2634 94.3831 29.3754C94.2155 29.4874 94.0849 29.6465 94.0078 29.8327C93.9306 30.019 93.9104 30.2239 93.9498 30.4216C93.9891 30.6193 94.0862 30.8008 94.2287 30.9434C94.3712 31.0859 94.5528 31.183 94.7505 31.2223C94.9482 31.2616 95.1531 31.2414 95.3393 31.1643C95.5255 31.0871 95.6847 30.9565 95.7967 30.7889C95.9087 30.6213 95.9684 30.4243 95.9684 30.2227C95.9684 29.9525 95.8611 29.6932 95.6699 29.5021C95.4788 29.311 95.2196 29.2036 94.9493 29.2036Z" fill="#CCCCCC"/>
</svg>
