<svg width="109" height="45" viewBox="0 0 109 45" fill="none" xmlns="http://www.w3.org/2000/svg">
<g clip-path="url(#clip0_1_14497)">
<path d="M67.8474 39.3086C63.2812 22.8836 52.8055 13.2417 37.4062 9.07256C55.2937 6.57109 69.932 20.5939 67.8474 39.3086Z" fill="#CCCCCC"/>
<path d="M76.5814 45.1788H31.502V0.522949H76.5814V45.1788ZM33.6725 43.0149H74.4174V2.68692H33.6725V43.0149Z" fill="#CCCCCC"/>
<path d="M44.3638 22.1408V24.4422H41.9054V31.3989H39.0024V24.4422H36.5702V22.1408H44.3638Z" fill="#B3B3B3"/>
<path d="M53.4397 26.0223V34.5669H50.7726V30.3067L49.4571 34.5669H47.164L45.8486 30.3067V34.5669H43.1693V26.0223H46.452L48.3347 31.1515L50.1691 26.0223H53.4397Z" fill="#B3B3B3"/>
<path d="M59.7375 40.5566L57.112 36.6438V40.5566H54.2825V31.5329H57.112V35.331L59.6993 31.5329H62.8984L59.7885 35.8536L63.1023 40.5566H59.7375Z" fill="#B3B3B3"/>
</g>
<defs>
<clipPath id="clip0_1_14497">
<rect width="108.529" height="45" fill="white"/>
</clipPath>
</defs>
</svg>
