<svg width="109" height="45" viewBox="0 0 109 45" fill="none" xmlns="http://www.w3.org/2000/svg">
<path d="M101.032 22.6452C101.032 23.6841 100.993 24.7297 101.032 25.7687C101.066 26.4305 100.649 26.3775 100.285 26.2915C99.9207 26.2055 99.1067 26.7349 99.1001 25.7952C99.1001 23.3863 99.1001 20.9775 99.1001 18.5687C99.1001 18.1981 99.2325 18.079 99.6097 18.0393C101.099 17.8937 101.218 17.9599 101.595 19.4025C101.797 20.2609 102.067 21.1019 102.402 21.9172C102.402 20.8518 102.455 19.7731 102.402 18.7077C102.349 17.9533 102.793 17.9996 103.249 18.0459C103.706 18.0922 104.374 17.6819 104.361 18.6481C104.361 20.9908 104.361 23.3334 104.361 25.6761C104.361 26.1393 104.229 26.2849 103.752 26.3378C102.277 26.3974 102.277 26.4238 101.886 25.0606L101.224 22.6518L101.032 22.6452Z" fill="#CCCCCC"/>
<path d="M47.8217 22.7782C47.8217 23.751 47.782 24.7304 47.8217 25.7032C47.8614 26.676 47.2328 26.2988 46.8291 26.2921C46.4254 26.2855 45.81 26.6098 45.8232 25.7098C45.8695 23.3671 45.8232 21.0245 45.8232 18.6752C45.8232 18.1392 46.0217 18.0796 46.485 18.0135C47.5438 17.901 48.1791 18.126 48.3114 19.337C48.4562 20.2305 48.7374 21.0965 49.1453 21.9046C49.1453 20.8193 49.1916 19.7341 49.1453 18.6488C49.0989 17.8546 49.6217 18.0201 50.032 18.0532C50.4423 18.0863 51.0578 17.7355 51.0445 18.6355C51.0048 20.9782 51.0445 23.3208 51.0445 25.6701C51.0445 26.1995 50.846 26.2591 50.3828 26.3319C49.3173 26.4708 48.7548 26.1399 48.596 25.0083C48.4267 24.2269 48.2056 23.4575 47.9342 22.7054L47.8217 22.7782Z" fill="#CCCCCC"/>
<path d="M82.2855 22.6652C82.2855 23.6777 82.2392 24.6902 82.2855 25.6961C82.3384 26.4836 81.8223 26.3579 81.3987 26.2983C80.9752 26.2388 80.3664 26.6358 80.3796 25.7292C80.3796 23.3535 80.3796 20.9777 80.3796 18.602C80.3796 18.1785 80.5053 18.0594 80.9355 18.0395C82.4576 17.9601 82.4509 17.9402 82.8281 19.363C83.0264 20.1837 83.2965 20.9854 83.6355 21.7586C83.6355 20.7329 83.6818 19.7138 83.6355 18.6947C83.5892 17.6755 84.2178 18.0329 84.6811 18.0329C85.1443 18.0329 85.6473 17.841 85.6274 18.6947C85.5678 21.0042 85.5877 23.327 85.6274 25.6299C85.6274 26.2189 85.4024 26.2917 84.8928 26.2917C83.834 26.4108 83.2781 26.1064 83.1326 24.9682C82.9752 24.1514 82.7539 23.3481 82.4708 22.566L82.2855 22.6652Z" fill="#CCCCCC"/>
<path d="M73.7144 22.1227C73.7144 20.9779 73.7144 19.833 73.7144 18.6948C73.7144 18.1786 73.86 18.033 74.3762 18.033C75.8056 18.033 75.799 17.9933 75.8056 19.3566C75.8056 19.7801 75.8056 20.2102 75.8056 20.6338C75.8056 21.0573 76.0438 20.958 76.2821 20.9646C76.5203 20.9713 76.7188 20.9249 76.7188 20.6007C76.7188 19.9389 76.7188 19.2771 76.7188 18.6154C76.6791 18.0727 76.9108 17.8544 77.3806 17.9933C77.8505 18.1323 78.81 17.4838 78.8431 18.4896C78.9291 20.8985 78.8431 23.3139 78.8431 25.7294C78.8431 26.1066 78.724 26.2654 78.3402 26.2455C78.012 26.2191 77.6823 26.2191 77.3541 26.2455C76.8512 26.2919 76.6394 26.1463 76.6924 25.5838C76.7387 24.922 76.6924 24.2139 76.6924 23.5323C76.6924 23.2146 76.6924 22.9632 76.2424 22.9698C75.7924 22.9764 75.7659 23.1948 75.7659 23.5257C75.7659 24.1874 75.7659 24.9021 75.7659 25.5838C75.7659 26.1132 75.5938 26.2455 75.1041 26.2455C73.6946 26.2455 73.6946 26.2852 73.6946 24.8757L73.7144 22.1227Z" fill="#CCCCCC"/>
<path d="M41.0318 26.2653C38.8613 26.391 38.8613 26.391 38.2789 24.4255C38.1612 23.9776 37.9736 23.5511 37.723 23.1616C37.723 23.9755 37.723 24.7961 37.723 25.6101C37.7561 26.1594 37.5841 26.3314 37.0149 26.3314C35.5591 26.3314 35.5657 26.3711 35.5657 24.9086C35.5657 22.8572 35.5657 20.7991 35.5657 18.7476C35.5657 18.1983 35.7179 18.0395 36.2738 18.0461C37.7296 18.0461 37.7296 18.0461 37.7296 19.4888V21.0042H37.8686C38.1399 20.2233 38.4113 19.4358 38.6892 18.6616C38.8613 18.1653 40.476 17.7351 40.8399 18.0858C40.8681 18.1207 40.8885 18.1612 40.8999 18.2045C40.9113 18.2478 40.9134 18.2931 40.9061 18.3373C40.8905 18.4322 40.8543 18.5225 40.8002 18.602C39.2186 20.9579 39.6421 23.2939 40.8532 25.63C40.9326 25.8356 40.9924 26.0483 41.0318 26.2653Z" fill="#CCCCCC"/>
<path d="M71.6979 19.1115C71.4874 18.7278 71.1776 18.4077 70.801 18.1848C70.4244 17.9619 69.9948 17.8442 69.5571 17.8442C69.1195 17.8442 68.6899 17.9619 68.3133 18.1848C67.9366 18.4077 67.6269 18.7278 67.4163 19.1115C66.9119 20.0335 66.6823 21.0807 66.7546 22.1291C66.6655 23.2105 66.8956 24.2942 67.4163 25.246C68.3627 26.8541 70.7979 26.9269 71.6516 25.2924C72.1713 24.3468 72.4477 23.2867 72.4558 22.2078C72.4639 21.1288 72.2034 20.0647 71.6979 19.1115ZM70.1494 23.8232C70.1343 23.9627 70.0682 24.0918 69.9637 24.1855C69.8593 24.2792 69.7239 24.3311 69.5836 24.3311C69.4433 24.3311 69.3079 24.2792 69.2035 24.1855C69.099 24.0918 69.0329 23.9627 69.0178 23.8232C68.773 22.6803 68.773 21.4985 69.0178 20.3556C69.0371 20.2241 69.1008 20.1032 69.1983 20.0129C69.2958 19.9226 69.4213 19.8684 69.5538 19.8593C69.7028 19.8622 69.8453 19.921 69.9531 20.0239C70.061 20.1268 70.1263 20.2664 70.1362 20.4151C70.2222 20.9909 70.2487 21.5732 70.3016 22.1424C70.2553 22.7313 70.2222 23.2806 70.1494 23.8232Z" fill="#CCCCCC"/>
<path d="M97.1559 19.1915C96.9743 18.7799 96.6722 18.433 96.2894 18.1967C95.9066 17.9604 95.4611 17.8458 95.0117 17.8679C94.5676 17.8529 94.1281 17.9627 93.7432 18.185C93.3583 18.4073 93.0435 18.733 92.8345 19.1253C92.3761 20.0603 92.134 21.0864 92.1259 22.1277C92.1179 23.169 92.3443 24.1988 92.7882 25.1407C92.9915 25.5553 93.3115 25.9015 93.7089 26.1366C94.1063 26.3717 94.5637 26.4856 95.025 26.4643C95.4732 26.4851 95.9172 26.3698 96.2987 26.1336C96.6802 25.8974 96.9813 25.5513 97.1625 25.1407C97.6107 24.213 97.8429 23.1957 97.8418 22.1653C97.8406 21.135 97.6061 20.1183 97.1559 19.1915ZM95.5345 23.8238C95.4816 24.0951 95.3492 24.3135 95.025 24.3268C94.7007 24.34 94.5286 24.0885 94.4228 23.7974C94.3048 23.2275 94.2625 22.6445 94.297 22.0635C94.2561 21.4804 94.312 20.8946 94.4625 20.3297C94.5684 20.0782 94.7139 19.8532 95.0051 19.8599C95.137 19.867 95.2621 19.9208 95.3579 20.0118C95.4537 20.1027 95.514 20.2248 95.5279 20.3562C95.7717 21.499 95.774 22.6801 95.5345 23.8238Z" fill="#CCCCCC"/>
<path d="M54.4988 22.1224C54.5385 22.6717 54.5518 23.2276 54.6312 23.7702C54.6361 23.9213 54.6984 24.0649 54.8053 24.1718C54.9122 24.2787 55.0558 24.341 55.2069 24.346C55.2643 24.3524 55.3224 24.3473 55.3779 24.3311C55.4333 24.3149 55.485 24.2879 55.53 24.2516C55.5749 24.2153 55.6122 24.1704 55.6396 24.1196C55.6671 24.0688 55.6842 24.013 55.69 23.9555C55.69 23.6908 55.9812 23.3533 55.4782 23.1548C54.8165 22.8835 55.2003 22.2548 55.1871 21.8313C55.1738 21.4077 55.6768 21.5268 55.9613 21.5202C58.0459 21.454 58.0525 21.4607 57.7547 23.5849C57.7094 24.0347 57.6162 24.4784 57.4768 24.9085C57.3402 25.3476 57.0709 25.7336 56.7059 26.0133C56.3408 26.293 55.8981 26.4526 55.4385 26.4702C54.9778 26.5386 54.5072 26.4627 54.0914 26.2529C53.6755 26.0432 53.3347 25.71 53.1157 25.2989C52.588 24.34 52.3113 23.2633 52.3113 22.1687C52.3113 21.0742 52.588 19.9975 53.1157 19.0386C53.345 18.6134 53.7024 18.2714 54.1373 18.0611C54.5721 17.8508 55.0622 17.783 55.5378 17.8673C55.9857 17.8931 56.4165 18.0481 56.7782 18.3135C57.1399 18.5789 57.417 18.9434 57.576 19.3629C57.7415 19.7401 57.7746 19.9783 57.2915 20.0246C56.8084 20.071 56.1665 20.8518 55.5378 19.9188C55.2334 19.4621 54.7304 19.8658 54.6444 20.3357C54.5575 20.9275 54.5088 21.5243 54.4988 22.1224Z" fill="#CCCCCC"/>
<path d="M86.8651 23.704C87.593 24.0018 88.1886 24.7893 88.7511 24.1408C89.3136 23.4922 88.4136 23.0356 88.0496 22.5856C87.4871 21.8908 86.9048 21.2621 86.918 20.2827C86.8902 19.8563 86.9852 19.4309 87.1916 19.0568C87.398 18.6827 87.7072 18.3755 88.0827 18.1716C88.4813 17.975 88.9212 17.8767 89.3655 17.8847C89.8099 17.8928 90.2459 18.007 90.6371 18.218C90.968 18.3569 90.9415 18.5952 90.9415 18.8797V20.3488C90.8489 20.3488 90.7761 20.3488 90.7298 20.3488C90.2599 20.0841 89.704 19.5349 89.254 20.0709C88.804 20.6069 89.4989 21.0437 89.8761 21.3944C90.313 21.7114 90.6611 22.1353 90.8871 22.6254C91.1131 23.1156 91.2093 23.6556 91.1665 24.1937C91.1374 24.6301 90.9959 25.0515 90.7557 25.417C90.5155 25.7825 90.1848 26.0796 89.7957 26.2795C89.4067 26.4793 88.9726 26.5751 88.5355 26.5575C88.0985 26.5399 87.6735 26.4095 87.3018 26.179C87.1661 26.1318 87.0494 26.0417 86.9694 25.9223C86.8894 25.8029 86.8505 25.6607 86.8584 25.5172C86.8849 24.8952 86.8651 24.3525 86.8651 23.704Z" fill="#CCCCCC"/>
<path d="M24.4863 24.062L25.3863 24.2473C25.5271 24.3023 25.6787 24.3239 25.8292 24.3101C25.9797 24.2964 26.125 24.2478 26.2534 24.1681C26.3819 24.0885 26.49 23.98 26.5692 23.8513C26.6485 23.7226 26.6966 23.5772 26.7099 23.4267C27.1003 21.9245 27.5635 20.4355 27.9275 18.9267C28.1062 18.159 28.4503 17.8083 29.251 17.9473C29.5457 17.9804 29.8431 17.9804 30.1378 17.9473C30.5679 17.9473 30.7135 18.0201 30.5746 18.5032C30.0121 20.4884 29.5025 22.4737 28.9532 24.4987C28.8896 24.8696 28.7421 25.221 28.5219 25.5261C28.3016 25.8312 28.0146 26.0819 27.6827 26.259C27.4347 26.3934 27.1604 26.4718 26.8789 26.4889C26.5975 26.5059 26.3157 26.4612 26.0533 26.3578C25.791 26.2544 25.5545 26.0948 25.3604 25.8902C25.1662 25.6857 25.0193 25.4411 24.9297 25.1737C24.7577 24.8561 24.6385 24.5252 24.4863 24.062Z" fill="#CCCCCC"/>
<path d="M65.4319 19.8532C65.4319 21.2253 65.4209 22.593 65.3988 23.9562C65.3392 25.4849 64.6709 26.3782 63.4995 26.4974C62.4738 26.6099 62.0635 26.2459 62.0569 25.2466V24.3202C62.4142 24.1944 62.7187 24.7371 63.0363 24.4194C63.3539 24.1018 63.3142 23.7047 63.3209 23.3341C63.3209 21.865 63.3209 20.4025 63.3209 18.94C63.3209 18.6687 63.1686 18.3577 63.4532 18.126C65.4319 17.9209 65.4385 17.9209 65.4319 19.8532Z" fill="#CCCCCC"/>
<path d="M33.9887 22.0895C33.9887 23.2608 33.9887 24.4388 33.9887 25.6101C33.9887 26.1528 33.8563 26.3314 33.2872 26.3248C31.8446 26.3248 31.8446 26.3248 31.8446 24.9682C31.8446 22.9101 31.8975 20.852 31.8446 18.8005C31.8115 17.841 32.4071 18.0461 32.9233 18.0594C33.4394 18.0726 34.088 17.7682 34.0152 18.7608C33.9291 19.8528 33.9887 20.9778 33.9887 22.0895Z" fill="#CCCCCC"/>
<path d="M44.2676 22.1887C44.2676 23.3269 44.2676 24.4651 44.2676 25.6034C44.2676 26.1262 44.1683 26.3247 43.6058 26.3313C42.1367 26.3313 42.1367 26.3644 42.1367 24.9085C42.1367 22.9232 42.1367 20.8784 42.1367 18.86C42.1367 18.2445 42.2691 18.0195 42.9441 18.0328C44.2676 18.0659 44.2676 18.0328 44.2676 19.3563V22.1887Z" fill="#CCCCCC"/>
<path d="M22.5474 18.0724C24.9628 17.907 24.9628 17.907 25.5319 20.0048C25.7238 20.7261 25.929 21.4408 26.1209 22.1555C26.2665 22.7114 26.1805 23.3202 25.6113 23.4327C25.0422 23.5452 24.2878 23.5518 23.9966 22.7312C23.5135 21.1761 23.0371 19.654 22.5474 18.0724Z" fill="#CCCCCC"/>
<path d="M106.362 19.7085V18.2695H106.849C106.961 18.2695 107.053 18.2887 107.126 18.3271C107.198 18.365 107.251 18.4173 107.286 18.4838C107.32 18.5503 107.338 18.6259 107.338 18.7107C107.338 18.7955 107.32 18.8707 107.286 18.9363C107.251 19.0019 107.198 19.0534 107.126 19.0909C107.055 19.1279 106.963 19.1464 106.852 19.1464H106.458V18.989H106.846C106.923 18.989 106.985 18.9777 107.031 18.9552C107.079 18.9328 107.113 18.9009 107.134 18.8597C107.156 18.818 107.166 18.7683 107.166 18.7107C107.166 18.6531 107.156 18.6028 107.134 18.5597C107.112 18.5166 107.078 18.4833 107.031 18.4599C106.983 18.436 106.921 18.424 106.843 18.424H106.537V19.7085H106.362ZM107.04 19.0621L107.394 19.7085H107.192L106.843 19.0621H107.04Z" fill="#CCCCCC"/>
<path d="M106.795 20.0977C107.347 20.0977 107.794 19.6503 107.794 19.0984C107.794 18.5465 107.347 18.0991 106.795 18.0991C106.243 18.0991 105.795 18.5465 105.795 19.0984C105.795 19.6503 106.243 20.0977 106.795 20.0977Z" stroke="#CCCCCC" stroke-width="0.165441" stroke-miterlimit="10"/>
<path d="M10.3323 31.1689C15.3357 31.1689 19.3918 27.1128 19.3918 22.1094C19.3918 17.1059 15.3357 13.0498 10.3323 13.0498C5.32881 13.0498 1.27271 17.1059 1.27271 22.1094C1.27271 27.1128 5.32881 31.1689 10.3323 31.1689Z" fill="#B3B3B3"/>
<path d="M10.3324 29.0183C14.148 29.0183 17.2412 25.9251 17.2412 22.1095C17.2412 18.2939 14.148 15.2007 10.3324 15.2007C6.51677 15.2007 3.42358 18.2939 3.42358 22.1095C3.42358 25.9251 6.51677 29.0183 10.3324 29.0183Z" fill="white"/>
<path d="M10.3326 28.3102C13.7571 28.3102 16.5333 25.534 16.5333 22.1094C16.5333 18.6849 13.7571 15.9087 10.3326 15.9087C6.908 15.9087 4.13184 18.6849 4.13184 22.1094C4.13184 25.534 6.908 28.3102 10.3326 28.3102Z" fill="#B3B3B3"/>
<path d="M17.2715 17.1988C18.3095 17.1988 19.1509 16.3573 19.1509 15.3194C19.1509 14.2814 18.3095 13.4399 17.2715 13.4399C16.2335 13.4399 15.3921 14.2814 15.3921 15.3194C15.3921 16.3573 16.2335 17.1988 17.2715 17.1988Z" fill="#B3B3B3"/>
<path d="M17.272 16.776C18.0761 16.776 18.7279 16.1242 18.7279 15.3201C18.7279 14.5161 18.0761 13.8643 17.272 13.8643C16.468 13.8643 15.8162 14.5161 15.8162 15.3201C15.8162 16.1242 16.468 16.776 17.272 16.776Z" fill="white"/>
<path d="M17.272 16.3981C17.8678 16.3981 18.3507 15.9151 18.3507 15.3194C18.3507 14.7237 17.8678 14.2407 17.272 14.2407C16.6763 14.2407 16.1934 14.7237 16.1934 15.3194C16.1934 15.9151 16.6763 16.3981 17.272 16.3981Z" fill="#B3B3B3"/>
<path d="M17.2723 16.0211C17.6597 16.0211 17.9737 15.707 17.9737 15.3196C17.9737 14.9322 17.6597 14.6182 17.2723 14.6182C16.8849 14.6182 16.5708 14.9322 16.5708 15.3196C16.5708 15.707 16.8849 16.0211 17.2723 16.0211Z" fill="white"/>
<path d="M3.40041 17.1988C4.43838 17.1988 5.27982 16.3573 5.27982 15.3194C5.27982 14.2814 4.43838 13.4399 3.40041 13.4399C2.36244 13.4399 1.521 14.2814 1.521 15.3194C1.521 16.3573 2.36244 17.1988 3.40041 17.1988Z" fill="#B3B3B3"/>
<path d="M3.40071 16.776C4.20477 16.776 4.85659 16.1242 4.85659 15.3201C4.85659 14.5161 4.20477 13.8643 3.40071 13.8643C2.59664 13.8643 1.94482 14.5161 1.94482 15.3201C1.94482 16.1242 2.59664 16.776 3.40071 16.776Z" fill="white"/>
<path d="M3.40094 16.3981C3.99668 16.3981 4.47962 15.9151 4.47962 15.3194C4.47962 14.7237 3.99668 14.2407 3.40094 14.2407C2.80521 14.2407 2.32227 14.7237 2.32227 15.3194C2.32227 15.9151 2.80521 16.3981 3.40094 16.3981Z" fill="#B3B3B3"/>
<path d="M3.40118 16.0211C3.78859 16.0211 4.10265 15.707 4.10265 15.3196C4.10265 14.9322 3.78859 14.6182 3.40118 14.6182C3.01377 14.6182 2.69971 14.9322 2.69971 15.3196C2.69971 15.707 3.01377 16.0211 3.40118 16.0211Z" fill="white"/>
<path d="M3.40041 31.0503C4.43838 31.0503 5.27982 30.2089 5.27982 29.1709C5.27982 28.1329 4.43838 27.2915 3.40041 27.2915C2.36244 27.2915 1.521 28.1329 1.521 29.1709C1.521 30.2089 2.36244 31.0503 3.40041 31.0503Z" fill="#B3B3B3"/>
<path d="M3.40071 30.6266C4.20477 30.6266 4.85659 29.9748 4.85659 29.1707C4.85659 28.3667 4.20477 27.7148 3.40071 27.7148C2.59664 27.7148 1.94482 28.3667 1.94482 29.1707C1.94482 29.9748 2.59664 30.6266 3.40071 30.6266Z" fill="white"/>
<path d="M3.40094 30.2491C3.99668 30.2491 4.47962 29.7662 4.47962 29.1705C4.47962 28.5747 3.99668 28.0918 3.40094 28.0918C2.80521 28.0918 2.32227 28.5747 2.32227 29.1705C2.32227 29.7662 2.80521 30.2491 3.40094 30.2491Z" fill="#B3B3B3"/>
<path d="M3.40118 29.8717C3.78859 29.8717 4.10265 29.5576 4.10265 29.1702C4.10265 28.7828 3.78859 28.4688 3.40118 28.4688C3.01377 28.4688 2.69971 28.7828 2.69971 29.1702C2.69971 29.5576 3.01377 29.8717 3.40118 29.8717Z" fill="white"/>
<path d="M17.3284 31.0503C18.3664 31.0503 19.2078 30.2089 19.2078 29.1709C19.2078 28.1329 18.3664 27.2915 17.3284 27.2915C16.2904 27.2915 15.449 28.1329 15.449 29.1709C15.449 30.2089 16.2904 31.0503 17.3284 31.0503Z" fill="#B3B3B3"/>
<path d="M17.3236 30.6266C18.1276 30.6266 18.7794 29.9748 18.7794 29.1707C18.7794 28.3667 18.1276 27.7148 17.3236 27.7148C16.5195 27.7148 15.8677 28.3667 15.8677 29.1707C15.8677 29.9748 16.5195 30.6266 17.3236 30.6266Z" fill="white"/>
<path d="M17.3238 30.2491C17.9195 30.2491 18.4025 29.7662 18.4025 29.1705C18.4025 28.5747 17.9195 28.0918 17.3238 28.0918C16.7281 28.0918 16.2451 28.5747 16.2451 29.1705C16.2451 29.7662 16.7281 30.2491 17.3238 30.2491Z" fill="#B3B3B3"/>
<path d="M17.324 29.8717C17.7114 29.8717 18.0255 29.5576 18.0255 29.1702C18.0255 28.7828 17.7114 28.4688 17.324 28.4688C16.9366 28.4688 16.6226 28.7828 16.6226 29.1702C16.6226 29.5576 16.9366 29.8717 17.324 29.8717Z" fill="white"/>
<path d="M8.24194 24.5978C10.075 24.9088 10.1214 24.8823 10.5912 23.175C10.9353 21.9176 11.3258 20.6801 11.6037 19.4162C11.6083 19.2716 11.6458 19.13 11.7133 19.002C11.7808 18.8741 11.8765 18.7632 11.9932 18.6777C12.1099 18.5923 12.2445 18.5345 12.3868 18.5088C12.5292 18.4831 12.6755 18.4902 12.8147 18.5294C13.3173 18.5566 13.821 18.5566 14.3236 18.5294C13.6618 20.9647 13.1919 23.3669 12.3383 25.6566C12.1847 26.0615 11.8979 26.402 11.5251 26.6221C11.1522 26.8423 10.7155 26.9288 10.2868 26.8676C9.89306 26.9019 9.50118 26.7837 9.19208 26.5374C8.88298 26.2912 8.68025 25.9356 8.62577 25.5441C8.5176 25.221 8.38941 24.905 8.24194 24.5978Z" fill="white"/>
<path d="M6.31348 18.6352C8.69583 18.4632 8.69583 18.4632 9.29142 20.5808C9.48995 21.3022 9.70833 22.0169 9.86054 22.7382C9.96642 23.2213 9.94656 23.8235 9.37083 23.9227C8.79509 24.022 8.0473 24.075 7.79583 23.3139C7.27965 21.7852 6.81642 20.2367 6.31348 18.6352Z" fill="white"/>
</svg>
