<svg width="109" height="45" viewBox="0 0 109 45" fill="none" xmlns="http://www.w3.org/2000/svg">
<path d="M82.45 2.94434H28.9066C24.1297 2.94434 20.2573 6.81526 20.2573 11.5903C20.2573 16.3653 24.1297 20.2362 28.9066 20.2362H82.45C87.2268 20.2362 91.0992 16.3653 91.0992 11.5903C91.0992 6.81526 87.2268 2.94434 82.45 2.94434Z" fill="#CCCCCC"/>
<path d="M82.409 4.14258H29.223C25.1734 4.14258 21.8906 7.42538 21.8906 11.4749C21.8906 15.5245 25.1734 18.8073 29.223 18.8073H82.409C86.4585 18.8073 89.7414 15.5245 89.7414 11.4749C89.7414 7.42538 86.4585 4.14258 82.409 4.14258Z" fill="white"/>
<path d="M80.8248 8.40674V6.26503H81.5484C81.7158 6.26503 81.8531 6.29361 81.9605 6.35078C82.0678 6.40725 82.1473 6.48498 82.1989 6.58398C82.2505 6.68298 82.2763 6.79557 82.2763 6.92176C82.2763 7.04795 82.2505 7.15985 82.1989 7.25745C82.1473 7.35505 82.0682 7.43174 81.9615 7.48752C81.8548 7.54259 81.7186 7.57013 81.5526 7.57013H80.967V7.33588H81.5443C81.6586 7.33588 81.7506 7.31915 81.8203 7.28569C81.8908 7.25222 81.9416 7.20481 81.973 7.14346C82.0051 7.08142 82.0211 7.00751 82.0211 6.92176C82.0211 6.83601 82.0051 6.76106 81.973 6.69693C81.9409 6.63279 81.8897 6.58329 81.8193 6.54843C81.7489 6.51287 81.6558 6.49509 81.5401 6.49509H81.0841V8.40674H80.8248ZM81.8329 7.44464L82.3599 8.40674H82.0588L81.5401 7.44464H81.8329Z" fill="#B3B3B3"/>
<path d="M81.4753 8.95987C82.2976 8.95987 82.9643 8.29324 82.9643 7.4709C82.9643 6.64857 82.2976 5.98193 81.4753 5.98193C80.653 5.98193 79.9863 6.64857 79.9863 7.4709C79.9863 8.29324 80.653 8.95987 81.4753 8.95987Z" stroke="#999999" stroke-width="0.165441" stroke-miterlimit="10"/>
<path d="M35.9072 7.88818L36.6219 6.45215H30.5667V7.88818H33.6969L30.0439 16.1735H31.6388H31.7976H79.4182V14.4992H32.6314L35.9072 7.88818Z" fill="#CCCCCC"/>
<path d="M41.2501 6.21436H39.5361V13.3283H41.2501V6.21436Z" fill="#CCCCCC"/>
<path d="M54.1249 9.22562L56.9109 10.9727L59.6969 9.219V13.3286H61.4109V6.37341C61.4122 6.3574 61.4091 6.34134 61.4017 6.32705C61.3944 6.31275 61.3832 6.3008 61.3694 6.29253C61.3557 6.28427 61.3399 6.28003 61.3238 6.28028C61.3077 6.28054 61.2921 6.28529 61.2786 6.294L59.6903 7.28003L56.9109 9.02047L54.0786 7.34621L52.755 6.45282C52.7213 6.43007 52.682 6.41691 52.6413 6.41473C52.6007 6.41256 52.5602 6.42145 52.5242 6.44047C52.4882 6.45948 52.458 6.48791 52.4369 6.52272C52.4158 6.55752 52.4045 6.59741 52.4043 6.63812V13.3286H54.1183L54.1249 9.22562Z" fill="#CCCCCC"/>
<path d="M46.7306 13.3283H49.7747V11.6607H46.7306V6.21436H45.0166V13.3283H45.7379H46.7306Z" fill="#CCCCCC"/>
<path d="M77.0954 6.21436H75.3814H73.0586V7.87538H75.3814V13.3283H77.0954V7.87538H79.4182V6.21436H77.0954Z" fill="#CCCCCC"/>
<path d="M64.457 10.807H65.5158V13.3283H70.9026V11.6607H67.2298V10.807H68.957C69.0711 10.807 69.1805 10.7617 69.2612 10.681C69.3418 10.6003 69.3871 10.4909 69.3871 10.3769V9.92686C69.3871 9.81277 69.3418 9.70336 69.2612 9.6227C69.1805 9.54203 69.0711 9.49671 68.957 9.49671H67.2298V7.87538H70.9026V6.21436H65.5158V9.48347H64.457C64.3429 9.48347 64.2335 9.52879 64.1528 9.60946C64.0722 9.69013 64.0269 9.79954 64.0269 9.91362V10.3769C64.0269 10.4909 64.0722 10.6003 64.1528 10.681C64.2335 10.7617 64.3429 10.807 64.457 10.807Z" fill="#CCCCCC"/>
<path d="M78.7488 31.6386C76.1969 35.1542 72.874 38.0389 69.0347 40.0715C65.1954 42.1042 60.9417 43.2308 56.5996 43.365C50.2655 43.4878 44.0696 41.5061 38.9825 37.7303C33.8954 33.9544 30.2044 28.5979 28.4878 22.4996L83.2224 22.4136C82.2964 25.7319 80.7811 28.8567 78.7488 31.6386Z" fill="white"/>
<path d="M28.7934 22.3416L33.5515 22.3747C35.1794 33.8762 45.2449 42.3534 56.5544 41.9696C61.8787 41.7516 66.9571 39.67 70.9028 36.0885C74.8484 32.5069 77.4103 27.6531 78.1412 22.3747H83.1574C79.8486 34.1607 69.5515 42.5784 57.7787 43.3659C44.689 44.2394 32.3339 35.5107 28.5552 22.3218L28.7934 22.3416Z" fill="#999999"/>
<path d="M77.0835 22.335H77.6262C76.0578 32.963 67.21 40.9637 56.8666 41.4402C45.8085 41.9431 35.7828 33.7505 34.082 22.3747C35.7629 22.3747 37.4438 22.3747 39.1313 22.3747C38.7806 32.5725 47.3173 40.7122 56.7012 40.1894C65.4431 39.6997 72.7489 31.8115 72.3651 22.3218L77.0835 22.335Z" fill="#999999"/>
<path d="M71.5561 22.4136H71.8473C72.0049 24.6232 71.7052 26.8415 70.967 28.9301C70.2287 31.0187 69.0678 32.9327 67.5566 34.5524C66.0455 36.1722 64.2166 37.463 62.1842 38.3442C60.1518 39.2254 57.9595 39.6781 55.7443 39.674C53.5291 39.6699 51.3385 39.2091 49.3093 38.3203C47.2802 37.4316 45.4561 36.134 43.951 34.5087C42.4458 32.8833 41.292 30.9651 40.5615 28.8738C39.831 26.7825 39.5396 24.563 39.7054 22.354L44.2451 22.4136C43.5461 25.2225 43.8118 28.1849 44.9995 30.8246C45.1451 31.129 48.3745 37.654 55.3164 37.879C61.8281 38.0908 65.4414 32.5849 65.6399 32.2606C66.5229 30.7975 67.1016 29.1714 67.3416 27.4794C67.5815 25.7874 67.4776 24.0645 67.0362 22.4136H71.5561Z" fill="#999999"/>
<path d="M46.7337 22.3345H49.8043C48.7039 23.5972 48.0093 25.1621 47.811 26.8252C47.6127 28.4884 47.9199 30.1727 48.6925 31.6587C49.4147 33.0364 50.5256 34.1716 51.8872 34.9234C53.2489 35.6753 54.8013 36.0108 56.352 35.8881C57.9026 35.7655 59.383 35.1902 60.6095 34.2336C61.8361 33.277 62.7547 31.9813 63.2513 30.5073C64.78 26.1727 61.7822 22.5661 61.6565 22.4139L66.5469 22.3742C67.3894 25.4564 66.9928 28.746 65.4418 31.5396C65.23 31.9102 61.9079 37.4293 55.5616 37.3631C53.4815 37.3106 51.4558 36.6879 49.7054 35.563C47.9549 34.438 46.547 32.854 45.6351 30.9837C44.3485 28.2817 44.1218 25.1955 44.9999 22.3345H46.7337Z" fill="#999999"/>
<path d="M59.0697 22.5H61.055C63.5499 25.5706 63.7021 29.7331 61.6109 32.5125C60.806 33.5617 59.7384 34.3798 58.516 34.8841C57.2936 35.3884 55.9597 35.561 54.6492 35.3845C53.4052 35.2032 52.2275 34.7092 51.2264 33.9488C50.2253 33.1884 49.4334 32.1865 48.9249 31.0368C48.3275 29.6074 48.1683 28.0328 48.4675 26.5128C48.7668 24.9929 49.5111 23.5961 50.6058 22.5L55.1984 22.4669C55.1084 23.0952 54.9185 23.7051 54.6359 24.2735C53.8881 25.7559 53.0014 25.875 52.2536 27.0132C51.7952 27.7037 51.5227 28.5007 51.4624 29.3273C51.4022 30.1538 51.5561 30.9819 51.9094 31.7316C52.2151 32.312 52.6497 32.8146 53.18 33.2006C53.7104 33.5867 54.3222 33.8459 54.9684 33.9584C55.6146 34.0709 56.278 34.0337 56.9076 33.8495C57.5372 33.6654 58.1161 33.3393 58.5999 32.8963C59.0323 32.497 59.3812 32.0159 59.6266 31.4809C59.8719 30.9459 60.0088 30.3676 60.0293 29.7794C60.0293 27.9463 58.7058 26.4706 58.2822 26.0338C57.6584 25.5147 57.1202 24.9005 56.6874 24.214C56.4005 23.6615 56.2209 23.0597 56.158 22.4404L59.0697 22.5Z" fill="#999999"/>
</svg>
