<svg width="61" height="52" viewBox="0 0 61 52" fill="none" xmlns="http://www.w3.org/2000/svg">
<path d="M44.1193 0.0697121C44.984 0.0491239 45.8487 0.0645656 46.7186 0.0491244C47.1509 0.0542714 47.5833 0.0285361 48.0156 0.0491244C48.6281 1.23295 49.1891 2.44251 49.7965 3.62633L49.8686 3.83736C49.8891 5.56162 49.9149 7.29104 49.9046 9.0153C49.9252 9.79765 49.9252 10.5749 49.9252 11.3572C49.9663 12.1396 49.9252 12.9168 49.9458 13.6991C49.5752 14.0182 49.1119 14.2756 48.6127 14.2602C48.17 14.2756 47.7428 14.1006 47.3825 13.8535C47.1097 14.0234 46.8421 14.2241 46.5127 14.291C46.1318 14.3528 45.7252 14.3528 45.37 14.1727L44.9531 13.9616C44.7421 14.0543 44.5619 14.2035 44.3406 14.2653C43.934 14.3528 43.4656 14.3477 43.1362 14.0543C43.1362 14.9035 43.3421 15.7837 43.8568 16.4682L44.1913 16.916C44.459 17.1682 44.7009 17.4565 45.0149 17.6572L45.5553 18.0535C46.2656 18.0535 46.9811 18.0535 47.6913 18.0432C48.3038 18.0329 48.9266 18.0741 49.5391 18.0278C50.2391 18.0432 50.9391 17.9815 51.6391 18.0227C52.4678 18.0124 53.2965 17.9712 54.1303 18.0021C54.6605 17.9763 55.1906 17.9815 55.7208 17.9815C55.7362 16.9469 55.6744 15.9227 55.6744 14.8881C55.6487 14.5432 55.7053 14.1984 55.6641 13.8587L55.5252 13.7918L55.6693 13.7763C55.659 12.5822 55.6024 11.3932 55.6127 10.1991C55.5612 9.79251 55.5869 9.38074 55.5818 8.97412C55.5663 8.34618 55.5509 7.7131 55.5509 7.08515C55.9575 7.08001 56.359 7.11604 56.7605 7.06457C57.0744 7.05427 57.3833 7.05942 57.7024 7.05942L57.7899 7.09545C58.3252 7.02339 58.8656 7.06971 59.4009 7.05427C59.7149 7.06456 60.0288 7.03368 60.3428 7.06457C60.3788 7.68221 60.3531 8.31015 60.3583 8.93295C60.384 9.48368 60.3583 10.0396 60.3686 10.5903C60.4097 11.1771 60.3994 11.769 60.3943 12.3557C60.4046 12.8293 60.4303 13.3028 60.4046 13.7712C60.3788 14.5227 60.4561 15.269 60.42 16.0153C60.4046 16.5454 60.4869 17.0859 60.4355 17.6212C60.4046 18.2594 60.4766 18.8925 60.4509 19.5256C60.4664 19.8962 60.4252 20.2771 60.4509 20.6477C60.4766 20.9771 60.4406 21.3065 60.4921 21.6307L60.4766 22.0631C60.4766 22.7168 60.523 23.3653 60.4921 24.019C60.4715 24.6212 60.5024 25.2234 60.5024 25.8256C60.5333 26.4381 60.4818 27.0506 60.5333 27.6579C60.4921 28.2962 60.5075 28.9396 60.5024 29.5829C60.4869 30.8852 60.5024 32.1874 60.5024 33.4947C60.5075 34.7815 60.5024 36.0631 60.5075 37.3499C60.5127 38.441 60.4869 39.5322 60.5333 40.6234C60.4972 41.5499 60.5538 42.4763 60.5075 43.4079C60.5333 44.1954 60.5178 44.9727 60.5178 45.755L60.5333 46.3469C60.4869 46.6815 60.5333 47.0263 60.5024 47.366C60.5178 48.1329 60.4972 48.8947 60.5127 49.6616C60.5024 50.0991 60.5333 50.5366 60.5178 50.9741C60.5075 51.2778 60.5435 51.5866 60.4921 51.8903C59.9877 51.9521 59.473 51.8852 58.9686 51.916C58.4899 51.9418 58.0112 51.9109 57.5325 51.916C56.9612 51.9315 56.3899 51.916 55.8186 51.9315L55.7722 51.9109C55.7568 50.9638 55.8134 50.0219 55.7825 49.0749C55.834 48.4109 55.7877 47.7418 55.798 47.0778C55.8083 46.7638 55.834 46.455 55.8134 46.1462C55.7928 45.4616 55.834 44.7822 55.8083 44.0977C55.7825 43.4079 55.8391 42.7285 55.8083 42.044C55.8186 41.5344 55.8237 41.0249 55.8237 40.5204C55.4943 40.5102 55.1597 40.5204 54.8303 40.5513C52.1641 40.5513 49.4928 40.5925 46.8266 40.6079L46.5641 40.6646C45.0972 41.7249 43.584 42.7182 41.9781 43.5521C41.4583 43.8352 40.923 44.0822 40.3877 44.3344C40.0686 44.458 39.7649 44.6227 39.4355 44.7205C38.6119 45.055 37.773 45.3638 36.9134 45.6057C36.5943 45.7087 36.2597 45.7704 35.9458 45.8682C35.6163 45.9352 35.2921 46.0227 34.973 46.1102C34.4788 46.1925 33.9847 46.2903 33.4906 46.3469L32.9553 46.4293L32.9244 46.5168L32.8833 46.4138L32.77 46.4241C32.523 46.5168 32.2347 46.4396 31.9928 46.5477C31.5811 46.5631 31.1744 46.5528 30.7678 46.5528L30.3252 46.594C30.0524 46.5271 29.7744 46.5631 29.4965 46.5425L29.2083 46.5168C28.9458 46.5168 28.6833 46.491 28.4208 46.491C27.9884 46.4087 27.5458 46.3984 27.1083 46.316C26.4597 46.2388 25.8215 46.105 25.1884 45.9609C23.809 45.6727 22.4708 45.2249 21.1531 44.7205C19.7686 44.1954 18.4303 43.5521 17.1333 42.8418C15.9237 42.1418 14.7193 41.4366 13.5869 40.6182C12.3465 40.6182 11.1061 40.6131 9.86561 40.6079C8.42958 40.6337 6.99355 40.5874 5.55752 40.6079C5.54723 41.1278 5.55752 41.6477 5.54208 42.1727H5.58841L5.55237 42.816C5.55752 43.2432 5.52664 43.6704 5.55237 44.0925C5.52664 44.7616 5.56782 45.4307 5.53179 46.105C5.56782 46.5682 5.53179 47.0366 5.53693 47.505C5.56267 48.0094 5.53693 48.519 5.55237 49.0234C5.59355 49.9756 5.5884 50.9329 5.59355 51.8903C4.28105 51.8903 2.96855 51.8903 1.6612 51.9006C1.27002 51.9109 0.883993 51.8697 0.492817 51.8749C0.482522 50.5212 0.50311 49.1572 0.477375 47.8035C0.472228 46.2028 0.492816 44.6072 0.50311 43.0116C0.518552 42.2293 0.549435 41.4521 0.528846 40.6697C0.559729 40.2322 0.53914 39.7947 0.549434 39.3521C0.544287 38.1477 0.580317 36.9432 0.564876 35.7388C0.564876 35.2344 0.580316 34.73 0.575169 34.2256C0.575169 33.9374 0.62664 33.644 0.575169 33.3609L0.559728 33.1704L0.642081 33.2013L0.53914 33.083H0.642081L0.564876 32.6866L0.611199 32.6969C0.590611 31.9557 0.636934 31.2094 0.636934 30.4682C0.662669 30.1182 0.606052 29.7631 0.647228 29.4131C0.688405 28.0028 0.662669 26.5925 0.703845 25.1822C0.755316 24.3587 0.703845 23.5249 0.745022 22.7013C0.734728 22.1352 0.760464 21.569 0.770758 20.9977C0.760464 19.7624 0.822228 18.5219 0.822228 17.2815C0.822228 16.4065 0.858258 15.5315 0.863405 14.6513C0.88914 12.1138 0.914875 9.57633 0.966345 7.03883C1.26487 7.03368 1.5634 7.00795 1.86193 7.03368C3.21561 7.04912 4.56414 7.06457 5.91782 7.08515L6.00532 7.21898C6.00532 7.80574 5.98988 8.38736 5.97443 8.96898C5.98988 9.29839 5.91782 9.6278 5.9384 9.95721C5.92811 11.419 5.90238 12.8859 5.88179 14.3477C5.86635 14.9293 5.84061 15.516 5.84061 16.1028C5.83546 16.6999 5.80458 17.2969 5.84061 17.894C6.05679 17.9557 6.28326 17.9249 6.50458 17.9249C7.46193 17.9454 8.41929 17.9403 9.37664 17.9506L9.72149 17.9609C9.98399 17.9197 10.2413 17.9969 10.5038 17.9815C11.8369 17.9815 13.1752 17.9918 14.5083 18.0124C14.7347 18.0484 14.9663 17.9866 15.1928 18.0227L15.4244 17.9969C15.6921 17.8271 15.9752 17.6829 16.248 17.5234C16.5362 17.369 16.8193 17.1837 17.0303 16.9263C17.2671 16.6638 17.4009 16.3293 17.5296 16.005C17.7972 15.3307 17.8744 14.605 17.8693 13.8844C17.5605 14.1057 17.195 14.291 16.8038 14.2756C16.4847 14.2447 16.2119 14.0285 16.0215 13.7866C15.6406 14.0543 15.1877 14.2704 14.7038 14.2344C14.4156 14.2756 14.1583 14.1366 13.9061 14.0285L13.7053 13.8999L13.5355 13.8432C13.2009 14.0749 12.7994 14.2087 12.3928 14.2138L11.7597 14.08C11.5075 13.9771 11.3068 13.7969 11.1009 13.6219L10.9619 13.3388C10.9825 12.5102 10.9671 11.6815 10.9774 10.8477C10.9877 9.05648 11.0597 7.2653 11.034 5.47412C11.0803 5.18589 10.998 4.89765 11.0186 4.60427L10.9619 4.63001V4.51677H11.0186V4.13074L11.0597 4.32633C11.07 4.04324 11.0443 3.75501 11.1061 3.47707C11.5281 2.35501 11.9399 1.23295 12.3619 0.110889C13.6127 0.141771 14.8634 0.141771 16.1193 0.157212C16.4281 0.172653 16.7421 0.136624 17.0509 0.172654C17.2568 0.77486 17.4472 1.38221 17.6325 1.99471C17.8281 2.58662 18.0237 3.17854 18.2141 3.77559C18.4921 3.79618 18.7649 3.72927 19.0428 3.72927L19.2899 3.64692C20.2421 3.16309 21.22 2.72559 22.2083 2.32927C22.8774 2.1028 23.5413 1.86604 24.2208 1.66015C24.9619 1.45427 25.7134 1.27927 26.4649 1.11971C27.2112 1.00648 27.9575 0.8778 28.7141 0.831477C29.2186 0.774859 29.7333 0.821183 30.2325 0.692507C31.5759 0.666771 32.9193 0.800595 34.2421 1.02707C35.6472 1.31015 37.0421 1.65501 38.3906 2.13883C39.4509 2.48368 40.4649 2.94177 41.4737 3.40501L41.9061 3.43589C42.1891 3.43589 42.4722 3.4256 42.7553 3.43074C43.1208 2.50942 43.4965 1.58295 43.8465 0.656476L44.0936 0.0800065M44.4436 0.934418L44.2943 1.43883C44.0987 2.19545 43.8825 2.94177 43.6921 3.69839C44.634 3.69839 45.5708 3.68809 46.5127 3.67265C47.2744 3.68809 48.0362 3.62633 48.7928 3.66751L48.6641 3.20942C48.5149 2.72045 48.3193 2.25206 48.1597 1.76824C48.0465 1.48515 47.9744 1.18662 47.8509 0.908683C46.7134 0.91383 45.5811 0.908683 44.4436 0.939565M12.9436 1.07339C12.8355 1.42339 12.7891 1.78883 12.6862 2.14398C12.5524 2.69471 12.4494 3.25574 12.3053 3.80133C12.6244 3.81677 12.9436 3.82707 13.2627 3.82192C14.3538 3.83221 15.445 3.84765 16.5362 3.85795L16.9016 3.82706L16.9531 3.86824H17.2671C17.0561 2.94692 16.809 2.03074 16.5825 1.11457C16.2583 1.08368 15.934 1.10427 15.6097 1.08883C14.7193 1.08883 13.8288 1.04251 12.9384 1.07854M28.7708 2.71015L28.2509 2.76162C27.7105 2.82854 27.1649 2.92118 26.6244 2.99324V3.02927C26.3311 3.04471 26.0531 3.15795 25.7649 3.20942L25.1833 3.36383C24.5347 3.52339 23.9016 3.74986 23.284 4.00206L22.6921 4.23883C22.2855 4.38295 21.9046 4.57854 21.5134 4.76383C21.1994 4.93883 20.8597 5.07265 20.5715 5.29398C20.5561 6.1278 20.5458 6.96162 20.4994 7.79545C20.4994 8.20721 20.4891 8.61383 20.4634 9.02045C20.448 10.1579 20.4274 11.2954 20.4119 12.4329C20.3965 12.8087 20.448 13.1947 20.3759 13.5653C20.345 14.116 20.3759 14.6668 20.3244 15.2175C20.309 15.48 20.3605 15.7425 20.3038 15.9999C20.1237 16.9212 19.8149 17.8271 19.3156 18.63C18.6619 19.6954 17.6891 20.5499 16.5928 21.1418C16.0112 21.4197 15.4193 21.6925 14.7862 21.8418C14.2663 21.9602 13.7516 22.1352 13.2163 22.0888C12.3362 22.0888 11.4561 22.0734 10.5811 22.0734C9.31488 22.094 8.04355 22.0579 6.77738 22.0734C5.7737 22.0631 4.77517 22.0322 3.77149 22.0374C3.73032 22.2844 3.74061 22.5366 3.77149 22.7837C3.74576 23.2057 3.78693 23.6278 3.74576 24.0499C3.73546 25.0947 3.72517 26.1344 3.70973 27.1793C3.73546 27.7609 3.72002 28.3477 3.69429 28.9344C3.69429 29.7013 3.68399 30.4631 3.67885 31.23C3.65826 32.1874 3.69429 33.1499 3.64796 34.1072C3.64796 34.7352 3.64796 35.3631 3.64796 35.991C4.49723 36.0013 5.34649 35.991 6.2009 36.0219C6.48914 35.9756 6.77738 36.0528 7.07076 36.0271C8.9134 36.0271 10.7509 36.0631 12.5884 36.0477L13.0671 36.3616C14.0656 37.2469 15.095 38.0962 16.1862 38.8631C17.0561 39.4807 17.9311 40.1035 18.8833 40.5977C20.1288 41.344 21.4722 41.9102 22.8208 42.4454C23.3818 42.6307 23.9377 42.8418 24.5141 42.9859L24.7458 43.0579C25.209 43.1918 25.6877 43.2947 26.1612 43.3874L26.3568 43.4388L26.6038 43.4697L26.9899 43.5469C27.3605 43.6035 27.7413 43.6293 28.1119 43.6962C28.4722 43.7168 28.8274 43.7682 29.1877 43.7991L29.5891 43.7785C29.8774 43.8249 30.1708 43.7785 30.459 43.7991C30.7266 43.8146 30.9994 43.7888 31.2619 43.7271C32.1061 43.6756 32.945 43.5675 33.7737 43.4079L34.0413 43.2793L34.2575 43.2999C34.6024 43.2329 34.9472 43.1455 35.2869 43.0631C36.8208 42.6822 38.2928 42.0852 39.7391 41.4521L40.3413 41.1741C41.9472 40.3454 43.5325 39.4653 45.0046 38.405C46.0906 37.6844 47.1046 36.866 48.1186 36.0579C49.395 36.0785 50.6663 35.991 51.9377 35.9962C53.77 35.9396 55.6024 35.9087 57.4399 35.8675C57.4605 35.1675 57.409 34.4675 57.4399 33.7727C57.4296 32.5837 57.4399 31.3947 57.4399 30.2109C57.4502 29.8506 57.4605 29.4954 57.4553 29.1403C57.445 28.4506 57.4811 27.7712 57.4708 27.0866C57.4708 26.3866 57.4605 25.6866 57.4759 24.9866C57.445 24.3021 57.4862 23.6175 57.4656 22.9381C57.4141 22.6859 57.4656 22.4285 57.445 22.1763C57.1105 22.1815 56.7708 22.1815 56.4311 22.1815C55.9369 22.2381 55.4325 22.2072 54.9333 22.2227C53.7083 22.2638 52.4833 22.2741 51.2583 22.3102C50.1156 22.305 48.9781 22.3565 47.8355 22.341C47.3053 22.305 46.7855 22.1866 46.2811 22.0322C45.0406 21.5844 43.8928 20.8844 42.9046 20.0146C42.6009 19.716 42.2612 19.4484 42.009 19.1035C41.6281 18.7021 41.3347 18.2234 41.098 17.7241C40.923 17.23 40.7222 16.7307 40.7222 16.1954C40.7222 15.7734 40.7222 15.3513 40.7222 14.9293C40.681 14.2293 40.7377 13.5293 40.7016 12.8293C40.6759 11.3315 40.6759 9.83368 40.6605 8.33589C40.6811 7.65133 40.6502 6.96677 40.6502 6.28221C40.6759 5.93736 40.6347 5.58736 40.6605 5.23736C40.1921 5.02118 39.7134 4.8153 39.2502 4.58883C38.7097 4.36236 38.1436 4.19765 37.598 4.00206L37.4538 3.9506L37.2068 3.8528C36.4141 3.56457 35.5958 3.35354 34.7722 3.16824C33.8149 2.98809 32.8575 2.77192 31.8847 2.74618C31.3083 2.64324 30.7163 2.74618 30.1399 2.66383C29.898 2.65868 29.6561 2.64839 29.4141 2.67927L28.8016 2.7153M11.8369 5.79839C11.8369 6.3028 11.8061 6.80721 11.8369 7.31162L12.0943 7.52265C12.398 7.54324 12.7016 7.55354 13.0053 7.53295L13.2112 7.20868C13.2009 6.71971 13.2369 6.23074 13.2215 5.74177L13.0362 5.48957C12.7634 5.40721 12.47 5.45354 12.1869 5.43809L11.8318 5.79839M14.2509 5.70574C14.2097 5.92707 14.2149 6.15354 14.2097 6.38001C14.2303 6.68883 14.1686 6.99765 14.22 7.30648L14.5752 7.56898H15.2186L15.6097 7.30648C15.62 6.81751 15.6252 6.33368 15.6355 5.83957L15.5686 5.58736C15.3163 5.41751 15.0075 5.46898 14.7193 5.45868L14.2458 5.70059M16.5465 5.79324C16.5208 6.26677 16.5413 6.7403 16.5208 7.21383L16.8244 7.57927C17.1024 7.58442 17.3803 7.64104 17.6531 7.58957L17.9413 7.26015C17.9413 6.78662 17.9671 6.31309 17.9619 5.83442L17.7766 5.52559C17.4936 5.47927 17.2105 5.46898 16.9325 5.47927L16.5516 5.78809M48.1803 5.62339L47.8663 5.79324L47.8561 6.19986H47.9538L47.8561 6.22045L47.9436 6.71971L47.8458 6.62192C47.8458 6.9153 47.8458 7.21383 47.8715 7.50721L48.2266 7.72339H48.8597L49.2561 7.40942C49.2715 7.01824 49.2303 6.62706 49.2406 6.23589L49.2097 5.80354L48.8649 5.60795C48.6384 5.61309 48.4068 5.61824 48.1803 5.62339ZM43.1259 5.93736C43.1002 6.23074 43.1362 6.52412 43.1362 6.81236C43.1413 7.06971 43.1156 7.33221 43.1362 7.58957C43.3472 7.83662 43.6869 7.73883 43.97 7.75427L44.4847 7.58957C44.5311 7.21898 44.5105 6.84324 44.5156 6.47265C44.5002 6.22559 44.5465 5.95795 44.4281 5.73148C44.1502 5.57706 43.8311 5.67486 43.5325 5.64912L43.1208 5.93736M45.5193 5.94765C45.4935 6.35427 45.5296 6.76604 45.5193 7.17265L45.5759 7.6153L45.9311 7.74398C46.1781 7.74398 46.4252 7.75942 46.6722 7.71824L46.9399 7.49177C46.9193 7.07486 46.9038 6.65795 46.9296 6.23589L46.8678 5.79324L46.5178 5.63368C46.2862 5.63368 46.0597 5.63368 45.8281 5.64398L45.5193 5.94765ZM11.945 10.1425L11.7494 10.6263C11.734 11.1977 11.7494 11.769 11.734 12.3403L11.873 12.9477C12.0891 13.1535 12.4083 13.1999 12.6913 13.1793L13.0774 12.891L13.1443 12.2888C13.1443 11.7021 13.1597 11.1153 13.1597 10.5285L13.0311 10.1734L12.4855 10.0704L11.945 10.1374M14.1428 10.58C14.1325 11.1822 14.1428 11.7896 14.1222 12.3918L14.3127 13.0043C14.5237 13.2153 14.8428 13.205 15.1208 13.1896C15.3163 13.1072 15.5068 12.9477 15.5377 12.7263C15.5583 12.0109 15.5531 11.2954 15.5583 10.58L15.3781 10.1631L15.0744 10.1116H14.4465L14.1428 10.58ZM16.5825 10.2557C16.3972 10.5079 16.4796 10.8271 16.4641 11.1153C16.4384 11.5734 16.4641 12.0263 16.4436 12.4844L16.6752 13.0712C16.9634 13.2462 17.3546 13.2925 17.6428 13.0969L17.8744 12.7778C17.8744 12.0624 17.9002 11.3418 17.8899 10.6263L17.7663 10.2249L17.1281 10.1219L16.5877 10.2506M43.1568 10.7241C43.1156 11.3109 43.1825 11.8977 43.1671 12.4896C43.1774 12.7109 43.1105 12.9682 43.2597 13.1535C43.4193 13.38 43.7127 13.4418 43.9752 13.4315C44.248 13.4109 44.5413 13.2204 44.5568 12.9271C44.5619 12.191 44.5568 11.4602 44.5413 10.7293L44.3561 10.3587C44.109 10.2763 43.8413 10.3278 43.584 10.3175C43.3575 10.3072 43.1516 10.4977 43.1516 10.7293M45.8384 10.3175L45.5399 10.7756C45.5347 11.2337 45.5399 11.6866 45.5553 12.1447C45.5553 12.3918 45.5862 12.6388 45.545 12.8859L45.7561 13.2565C46.0597 13.5035 46.5281 13.4727 46.8215 13.2307L46.9708 12.7315C46.9553 12.0315 46.9862 11.3366 46.9399 10.6366L46.8215 10.3896L46.523 10.2969C46.2965 10.3021 46.0649 10.2866 45.8436 10.3227M47.8715 10.7241C47.8818 11.4396 47.8715 12.1602 47.8972 12.8704L47.9693 13.0712C48.1958 13.4624 48.7928 13.4932 49.1274 13.2256C49.3487 13.0454 49.3178 12.7366 49.3075 12.4844C49.2766 11.8925 49.3178 11.3057 49.2818 10.7138L49.1119 10.3278C48.8597 10.2454 48.5869 10.2763 48.3296 10.2712C48.0825 10.2557 47.8612 10.4822 47.8766 10.7241" fill="#16498E"/>
<path d="M46.4208 23.8955C46.6782 23.8441 46.9407 23.8544 47.2032 23.8544L47.79 23.8801C48.0576 23.9419 48.3304 23.9058 48.5929 23.9933C49.1899 24.1014 49.7613 24.3588 50.2297 24.7396L50.7547 25.2801C51.1201 25.7485 51.3774 26.2889 51.5679 26.8448C51.0223 27.0044 50.4561 27.0816 49.9105 27.2411C49.5811 27.3132 49.2517 27.3955 48.9172 27.4522C48.8194 27.1691 48.7061 26.8808 48.4951 26.6647C47.8672 25.9441 46.6524 25.9492 45.9627 26.572C45.7466 26.7779 45.5664 27.0249 45.4635 27.3029C45.3554 27.5448 45.3554 27.8124 45.3039 28.0698C45.237 28.3889 45.2679 28.7132 45.2524 29.0374C45.2267 29.3926 45.2936 29.7374 45.3348 30.0926C45.3811 30.4271 45.5047 30.7514 45.6951 31.0345C46.0348 31.4463 46.5752 31.6676 47.1054 31.6367C47.5738 31.6676 48.0679 31.508 48.3922 31.158C48.6855 30.8286 48.8863 30.422 48.9738 29.9948L49.0458 29.7426C49.8591 29.9896 50.6723 30.2367 51.4907 30.4735L51.6399 30.6073C51.4444 31.3845 51.1098 32.1514 50.5436 32.7279C50.1988 33.0933 49.7767 33.4073 49.298 33.572C48.7885 33.8088 48.2223 33.8602 47.6664 33.9014C46.8892 33.9272 46.1017 33.9014 45.3502 33.7058C44.8098 33.572 44.3054 33.3095 43.8782 32.9544C43.4304 32.5426 43.0341 32.0742 42.7613 31.5286C42.4833 31.0036 42.3701 30.4117 42.2775 29.8301C42.1488 28.5588 42.2517 27.2154 42.8539 26.0676C43.1524 25.5014 43.5951 25.0124 44.1304 24.6624C44.7995 24.1889 45.6179 24.0036 46.4208 23.911" fill="#16498E"/>
<path d="M30.7216 24.3276C31.401 24.1732 32.101 24.096 32.801 24.1166C33.0944 24.1577 33.3929 24.1268 33.6812 24.2041C34.34 24.3121 34.9937 24.5746 35.4878 25.0276C35.7657 25.2386 35.9665 25.5217 36.1775 25.7893C36.3937 26.1702 36.5841 26.5717 36.7128 26.9886C36.1724 27.1379 35.6268 27.2768 35.0915 27.4313C34.7672 27.5136 34.4584 27.6423 34.1238 27.668C33.954 27.0813 33.4856 26.5408 32.8628 26.4276C32.6054 26.3864 32.3172 26.3401 32.0804 26.4688C31.8334 26.5974 31.5503 26.6695 31.3341 26.8496C31.1179 27.0246 30.9532 27.2563 30.8246 27.4982C30.7062 27.7864 30.6238 28.0952 30.5878 28.4041C30.6084 28.8416 30.5878 29.2842 30.5981 29.7217C30.6496 30.1592 30.6599 30.6224 30.876 31.0188C31.0613 31.4357 31.4525 31.7342 31.89 31.8526C32.1319 31.9246 32.3893 31.8783 32.6312 31.9041C33.0841 31.8629 33.5474 31.6518 33.8099 31.271C34.0929 30.8901 34.2268 30.4217 34.3143 29.9585C35.1944 30.1695 36.0694 30.4166 36.9341 30.6688C36.7643 31.5386 36.3988 32.3982 35.776 33.0416C35.3025 33.4688 34.7466 33.8342 34.1187 33.9835C33.1459 34.2254 32.1268 34.2254 31.1334 34.0916C30.7371 33.9629 30.3201 33.8702 29.9393 33.7004C29.5481 33.5511 29.2238 33.2783 28.915 33.0055L28.4518 32.4908C28.2253 32.1871 28.0194 31.8732 27.8804 31.518C27.5356 30.6894 27.4532 29.7732 27.479 28.8827C27.5253 27.807 27.7878 26.6952 28.4775 25.8408C28.6937 25.5217 28.9871 25.2695 29.3062 25.0585C29.5996 24.8371 29.9393 24.6724 30.2944 24.5644L30.3201 24.4769L30.7165 24.3276" fill="#16498E"/>
<path d="M10.5134 24.1475C11.8311 24.1475 13.1539 24.1475 14.4715 24.1732C14.8679 25.7585 15.2642 27.3438 15.6348 28.9342C15.7531 29.3151 15.8098 29.7166 15.9384 30.0975C16.1546 29.1607 16.4223 28.2394 16.6693 27.3129C16.8958 26.4328 17.148 25.568 17.3642 24.6879L17.4723 24.1989C18.1826 24.1989 18.898 24.1989 19.6083 24.2247C20.2259 24.2607 20.8487 24.2401 21.4664 24.2453C21.4252 24.7651 21.4767 25.2901 21.4355 25.81C21.4458 26.4945 21.4252 27.1739 21.4098 27.8636C21.3943 29.1144 21.3943 30.3651 21.3583 31.621C21.3583 32.3725 21.3326 33.1239 21.3531 33.8754C20.5193 33.8754 19.6906 33.8754 18.8517 33.8754C18.8774 33.5305 18.8774 33.1857 18.8568 32.846C18.898 32.5372 18.8723 32.2232 18.8774 31.9144C18.8362 31.4614 18.9237 31.0033 18.898 30.5504C18.9134 29.9122 18.898 29.2791 18.9134 28.646C18.9598 28.157 18.898 27.668 18.9495 27.1842V26.618C18.2804 29.0269 17.6267 31.4408 16.973 33.8497C16.237 33.8291 15.5061 33.8445 14.7701 33.8291C14.5848 33.232 14.4664 32.6195 14.2965 32.0173C13.8745 30.185 13.3701 28.3732 12.9686 26.5408C12.9171 26.9835 12.9583 27.4261 12.9274 27.8636C12.9171 29.8453 12.8811 31.8269 12.8605 33.8136C12.037 33.8342 11.2083 33.8033 10.3848 33.8136C10.4054 33.1651 10.4054 32.5217 10.4054 31.8732C10.4465 31.2864 10.4054 30.6945 10.4414 30.1078C10.4414 28.8673 10.462 27.6372 10.4568 26.4019C10.4929 25.6504 10.4877 24.9041 10.4929 24.1526" fill="#16498E"/>
</svg>
