<svg id="Layer_1" data-name="Layer 1" xmlns="http://www.w3.org/2000/svg" viewBox="0 0 164 68"><defs><style>.cls-1{fill:#010101;}</style></defs><path class="cls-1" d="M73.89,45.38l-2,4.48H66.1L76.47,28.25h7.34L85.9,49.86H80.28l-.36-4.48Zm6-4.47c-.26-3.29-.44-6.38-.5-8.38h-.08c-.9,2.37-2.17,5.26-3.56,8.38Z"/><path class="cls-1" d="M91.88,28.25h14.43l-.89,4.47H96.48l-.84,4.47H104l-.91,4.45H94.73l-1.6,8.22H87.61Z"/><path class="cls-1" d="M115.23,28.25,111,49.86h-5.62l4.27-21.61Z"/><path class="cls-1" d="M133.86,42.66c-1.41,5.22-4.91,7.61-9.87,7.61-5.37,0-8-3.44-8-8.86,0-5.73,3-13.56,11.25-13.56,5.2,0,8,3,7.94,7.57h-5.69c0-1.6-.45-3.21-2.69-3.21-3.37,0-4.92,5.81-4.92,9.5,0,2.35.66,4.15,2.74,4.15s2.91-1.42,3.58-3.2Z"/><path class="cls-1" d="M156.85,37c0,6.47-3.31,13.27-11.55,13.27-5.89,0-8.41-4-8.41-8.84,0-6.49,3.69-13.58,11.37-13.58C154.21,27.85,156.85,32,156.85,37Zm-14.17,4.54c0,2.58,1,4.35,3.24,4.35,3.86,0,5.24-5.72,5.24-9.26,0-2.41-.76-4.4-3.17-4.4C144.36,32.23,142.68,37.82,142.68,41.54Z"/><path class="cls-1" d="M38.84,47.74A16.47,16.47,0,0,1,33.11,43l29-15.2A16.58,16.58,0,0,1,38.84,47.74Z"/><path class="cls-1" d="M57.7,31a16.63,16.63,0,0,1-1.48,7.27l-27-18.49A16.59,16.59,0,0,1,57.7,31Z"/><path class="cls-1" d="M32.09,23.2a16.7,16.7,0,0,1,6.8-3q.2,16.38.38,32.76A16.59,16.59,0,0,1,32.09,23.2Z"/></svg>