<svg id="Layer_1" data-name="Layer 1" xmlns="http://www.w3.org/2000/svg" viewBox="0 0 164 68"><defs><style>.cls-1{fill:#010101;}</style></defs><path class="cls-1" d="M128.64,33.2c.06-2-.85-2.22-2.47-2.17s-2.46-.08-2.75,2.18a34,34,0,0,1-.66,4.86c-1-1.73-1.51-3.2-2.36-4.61-1.68-2.76-2.91-2.34-6.74-2.34-.12,5.27-.26,11,0,16.23.47.43,1.65.33,2.2.35,3.36.12,3,0,3.09-3.39,0-1.21,0-2,.1-4.08.71,0,1.17.71,1.36,1.06.9,1.68,1.77,3.38,2.66,5.07,1.11,2.12,2.46,1.53,4.08,1.53,1.89,0,1.44-.92,1.39-3Q128.45,39.07,128.64,33.2Z"/><path class="cls-1" d="M139.61,38.28c-.61,0-1.36-.12-1.52.75-.12.71.23,1.09.88,1.47,1.55.92,1.34,1.32,1,3.11l-4.21-.17c0-1.76-.06-3.51-.05-5.27,0-2.8.18-2.79,2.89-2.73.38,0,2,.28,2.36.32,1.55.19,2.46.77,4-.22.88-.57.54-2,.17-2.95a2.47,2.47,0,0,0-2.54-1.45c-3.11,0-6.22-.05-9.33,0a2.64,2.64,0,0,0-2.92,3c0,3.51,0,7,0,10.53,0,2.09,1,3.1,3.07,3.1,2.95,0,5.91,0,8.86,0,1.3,0,2.61-.19,2.92-1.85.24-2.38.08-5,.08-7.42A48.79,48.79,0,0,0,139.61,38.28Z"/><path class="cls-1" d="M64.3,32.25C63.81,30.66,63.15,31,61.92,31c-2,0-2.53-.32-3,1.05-1.51,4.78-3.12,9.53-4.68,14.29-.31.93,0,1.26,1,1.4,2.87.43,3.55,0,4.48-2.88C60.24,43.2,61,40.92,61.56,39c.74,2.13,1.25,4.31,1.75,6,.83,2.67,2.07,3,4.28,2.76,1.17-.11,1.61-.47,1.23-1.62C67.3,41.48,65.73,36.88,64.3,32.25Z"/><path class="cls-1" d="M107.67,32.25c-.49-1.59-1.15-1.27-2.38-1.27-2,0-2.52-.32-3,1.05-1.5,4.78-3.12,9.53-4.68,14.29-.31.93,0,1.26,1,1.4,2.87.43,3.55,0,4.48-2.88.52-1.64,1.25-3.92,1.84-5.84.74,2.13,1.25,4.31,1.76,6,.82,2.67,2.06,3,4.27,2.76,1.18-.11,1.61-.47,1.23-1.62C110.67,41.48,109.11,36.88,107.67,32.25Z"/><path class="cls-1" d="M86.75,43.72c-.8,0-1.6-.09-2.39,0-1.44.16-1.74-.48-1.7-1.8.1-2.88-.09-5.76.08-8.63.13-2.11-.91-2.27-2.58-2.27s-3,.12-2.75,2.38c.18,2,0,4,0,6s.09,4,0,6c-.1,1.73.45,2.48,2.29,2.38,2.31-.13,4.63-.08,7,0,1.52,0,2.52-.06,2.53-2.1S88.09,43.7,86.75,43.72Z"/><path class="cls-1" d="M74.71,31.12c-1.29,0-2.57.05-3.88.12,0,4.46,0,11.49.09,15.87,0,1.27,2.5.81,4.67.65,0-4.67.14-10.22.16-14.89C75.75,32.11,75.88,31.1,74.71,31.12Z"/><path class="cls-1" d="M94.91,31.12c-1.29,0-2.57.05-3.88.12,0,4.46,0,11.49.09,15.87,0,1.27,2.5.81,4.67.65,0-4.67.15-10.22.16-14.89C96,32.11,96.08,31.1,94.91,31.12Z"/><rect class="cls-1" x="37.83" y="28.32" width="11.36" height="7.78"/><rect class="cls-1" x="13.7" y="29.09" width="18" height="18"/><rect class="cls-1" x="37.83" y="40.07" width="11.36" height="7.02"/></svg>