<svg id="Layer_1" data-name="Layer 1" xmlns="http://www.w3.org/2000/svg" viewBox="0 0 164 68"><defs><style>.cls-1{fill:#020304;}</style></defs><path class="cls-1" d="M116.77,40.46a1.72,1.72,0,1,1,1.72,1.77,1.72,1.72,0,0,1-1.72-1.77m1.71,2.12a2.12,2.12,0,1,0-2.15-2.12,2.12,2.12,0,0,0,2.15,2.12M118,40.63h.43l.64,1.06h.42l-.69-1.08a.63.63,0,0,0,.63-.67c0-.48-.29-.69-.87-.69h-.92v2.43H118Zm0-.32v-.75h.51c.26,0,.54.06.54.36s-.28.39-.6.39Z"/><path d="M91.1,47c-.6-4.2-4-5.87-6.78-3.89v-.49H79v.49h1.41V58.62H79v.64H85.8v-.64H84V53c4,2.13,6.79.62,7.19-3.86A9.43,9.43,0,0,0,91.1,47Zm-5,5.74c-1.43.09-2.15-2-2.23-3.2s-.3-2.89,0-3.6a3.51,3.51,0,0,1,.57-.83,2,2,0,0,1,3,.06,1.25,1.25,0,0,1,.24.51C87.92,47.47,89,52.51,86.11,52.69Z"/><path d="M99.6,42.41a4.62,4.62,0,0,0-4.67,2.22,7.17,7.17,0,0,0-.61,6.17A4.19,4.19,0,0,0,98,54a4.31,4.31,0,0,0,4.59-2.44c-3.44,1.78-5.6.31-5.52-3.84h5.89C102.68,44.58,101.52,42.85,99.6,42.41Zm-.1,4.71c-1,.24-1.29.44-2.28-.48a3.48,3.48,0,0,1-.32-1.13c-.18-1.44.51-2.54,1.72-2.52,1.5,0,1.58,1.09,1.64,2.24C100.31,46.22,100,47,99.5,47.12Z"/><path d="M63.44,53.22l-7-15.91-7.64,16H47.34v.5h5.38v-.5H50.1L52,48.88H57.6l1.73,4.34H57.22V54h7.41v-.78Zm-11.2-4.83,2.7-6.19,2.46,6.19Z"/><polygon points="70.45 37.66 70.45 37.66 70.45 37.34 65.17 37.34 65.17 37.83 66.89 37.83 66.89 53.33 65.88 53.33 65.88 53.96 71.69 53.96 71.69 53.33 70.45 53.33 70.45 37.66"/><polygon points="77.48 37.66 77.47 37.66 77.47 37.34 72.14 37.34 72.14 37.83 73.91 37.83 73.91 53.33 72.69 53.33 72.69 53.96 78.5 53.96 78.5 53.33 77.48 53.33 77.48 37.66"/><polygon points="114.56 53.12 111.32 47.24 114.04 43.14 115.03 43.14 115.03 42.36 111.12 42.36 111.12 43.14 112.67 43.14 110.73 46.17 109.05 43.14 110.46 43.14 110.46 42.36 104.18 42.36 104.18 43.14 105.49 43.14 108.79 49.21 106.25 53.16 104.53 53.16 104.53 53.94 108.44 53.94 108.44 53.16 107.38 53.16 109.34 50.21 110.91 53.12 109.73 53.12 109.73 53.89 116.02 53.89 116.02 53.12 114.56 53.12"/><path d="M73.8,23.17c-2.73-4-1.87-9.85,1.83-13.33a11.37,11.37,0,0,1,15.05-.61,10.67,10.67,0,0,1,2.65,13.71L83.58,6.49Z"/><path d="M75.53,25.58c.93-.72,1.83-1.3,2.59-2s1.35-1.58,2-2.35c2-2.19,3.93-2.5,6.39-1.28,0,1.2-.41,2.55.08,3.19,1.35,1.72,3.36,2,5.49,1.39C90,29,80.69,31.26,75.53,25.58Z"/></svg>