<svg id="Layer_1" data-name="Layer 1" xmlns="http://www.w3.org/2000/svg" xmlns:xlink="http://www.w3.org/1999/xlink" viewBox="0 0 164 68"><defs><style>.cls-1{fill:#010101;}.cls-2{clip-path:url(#clip-path);}.cls-3{clip-path:url(#clip-path-2);}.cls-4{clip-path:url(#clip-path-3);}.cls-5{clip-path:url(#clip-path-4);}.cls-6{clip-path:url(#clip-path-5);}.cls-7{clip-path:url(#clip-path-6);}.cls-8{clip-path:url(#clip-path-7);}.cls-9{clip-path:url(#clip-path-8);}.cls-10{clip-path:url(#clip-path-9);}.cls-11{clip-path:url(#clip-path-10);}.cls-12{clip-path:url(#clip-path-11);}.cls-13{clip-path:url(#clip-path-12);}.cls-14{clip-path:url(#clip-path-13);}.cls-15{clip-path:url(#clip-path-14);}.cls-16{clip-path:url(#clip-path-15);}.cls-17{clip-path:url(#clip-path-16);}.cls-18{clip-path:url(#clip-path-17);}.cls-19{clip-path:url(#clip-path-18);}.cls-20{clip-path:url(#clip-path-19);}.cls-21{clip-path:url(#clip-path-20);}.cls-22{clip-path:url(#clip-path-21);}.cls-23{clip-path:url(#clip-path-22);}.cls-24{fill:#fff;}</style><clipPath id="clip-path"><path class="cls-1" d="M72.06,3.32V5.88h.51c.27,0,1.18.17,1.18.61,0,.26-6.11,12-8,15.61-1.56,3-3.21,6-4.78,9-.8,1.52-1.56,3.12-2.42,4.57a2.34,2.34,0,0,1-1.92,1v.69H71.49v-.69c-.66-.18-1.31-.18-1.54-.79v-.51c0-1.85,4.48-2.31,4.48-3.55v-.78a10.9,10.9,0,0,0-.77-1.15c1.27.28,2.85,1.06,2.85,1.66v1.1A3.31,3.31,0,0,0,77,33.83c.12.17.32.18.46.23l.13-.05,0,0a6.46,6.46,0,0,1,.81-2.66c.16-.28,1-.94,1-1.45a4.29,4.29,0,0,0-1-2l.2-.2c.92.55,3.14,2,3.14,3v.8c0,.1-.31.58-.31.67,0,.68,1.53,1.07,1.53,1.77v.45a1.1,1.1,0,0,1-.32.62h.17c.73-.26,1.91-1.29,1.91-2.23S84,31.66,84,31.17V30.6c0-1,2.33-2.51,3.71-2.73a5.93,5.93,0,0,0-.61,1v.75c1,1.1,3.45,1.41,3.45,3.27v.74c0,.13-.17.52-.25.83.62-.36,1.66-1,1.66-1.52v-.62a6.91,6.91,0,0,0-1-1.68l.21-.22A14.65,14.65,0,0,1,93,31.48c.24.18,2.75,2.1,2.75,3v1c0,.86-1.09,1.14-1.91,1.23v.68h16.56V36.7h-.51c-1.39,0-3.14-4.19-3.26-4.41-.93-1.72-2-3.37-2.87-5.15-1-1.66-2-3.46-2.91-5.09q-3.11-5.68-6.22-11.33c-.56-1-1.19-2.12-1.69-3.15-.12-.26-.43-.65-.43-.74V6.39c0-.24.71-.52.9-.54H94V3.32Z"/></clipPath><clipPath id="clip-path-2"><path class="cls-1" d="M49.71,44.45l2.17,4.43H47.72ZM47,42.69v.22c.2,0,.45.06.45.19s-3.77,8.31-4,8.73a.64.64,0,0,1-.57.44v.21h4v-.21c-.31,0-.41-.08-.41-.19a15.37,15.37,0,0,1,.72-1.72h5.29c.09.25.76,1.6.76,1.67s-.11.21-.42.22v.22h4.41v-.22c-.27,0-.41-.11-.62-.56-1.38-2.84-4.13-8.41-4.13-8.55s.15-.21.4-.25v-.21H47Z"/></clipPath><clipPath id="clip-path-3"><path class="cls-1" d="M74.75,42.69v.22c.36,0,.54.11.54.34s-1.21,2.16-2.23,4c-.22-.5-2.09-3.88-2.09-4s.17-.31.52-.34v-.22H65.66v.22c.56,0,.62.17.62.34v8.69c0,.17-.06.3-.62.34v.22h3.92v-.22c-.55,0-.62-.17-.62-.34V45H69l3.93,7.31,4-7.23,0,0v6.86c0,.17-.06.3-.62.34v.22H80.8v-.22c-.56,0-.62-.17-.62-.34V43.25c0-.17.06-.29.62-.34v-.22Z"/></clipPath><clipPath id="clip-path-4"><path class="cls-1" d="M101.74,42.18c-.07.44-.16.53-.41.53H90.19v.22c.56,0,.62.17.62.34V52c0,.17-.06.29-.62.34v.22h11.14c.25,0,.34.09.41.4H102V49.68h-.26c-.07.46-.16.55-.41.55H94.16V48.5h4.15c.45,0,.6.18.66.43h.27V46H99c-.06.25-.21.43-.66.43H94.15V44.91h7.17c.24,0,.34.1.4.53H102V42.18Z"/></clipPath><clipPath id="clip-path-5"><path class="cls-1" d="M110.6,45.73c0,3.6,9.2,2.07,9.2,3.45,0,.82-1,1.27-3.25,1.27s-4.71-.84-4.71-1.33a1.06,1.06,0,0,1,0-.39l-.21-.09L110,52l.26.06c.14-.11.26-.25.45-.25a21.77,21.77,0,0,0,5.9.85c4.84,0,6.3-1.76,6.3-3.36,0-4.29-9.25-2.25-9.25-3.91,0-.44.67-.87,2.61-.87,2.09,0,4.63.53,4.63,1v.2l.27.11,1.53-2.59-.24-.08a.77.77,0,0,1-.61.28,33.12,33.12,0,0,0-5.88-.77c-3.24,0-5.38,1.25-5.38,3.11"/></clipPath><clipPath id="clip-path-6"><path class="cls-1" d="M46.62,59.84c0,.11-.08.2-.3.2H42.69v.14c.14,0,.2,0,.2.14V64c0,.09-.07.14-.2.14v.14H44v-.14c-.14,0-.24,0-.24-.14V62.43h1.54c.2,0,.33,0,.33.3h.14V61.56h-.14c0,.14-.13.17-.33.17H43.79v-1h2.53c.22,0,.3.07.3.19h.14V59.84Z"/></clipPath><clipPath id="clip-path-7"><path class="cls-1" d="M47.44,60v.14c.14,0,.2,0,.2.14V64c0,.09-.07.14-.2.14v.14h1.3v-.14c-.13,0-.2,0-.2-.14V60.34c0-.1.08-.14.2-.14v-.14h-1.3Z"/></clipPath><clipPath id="clip-path-8"><path class="cls-1" d="M51,60.74h1.35c.74,0,1,.26,1,.6s-.22.61-1,.61H51ZM49.86,60v.14c.16,0,.23,0,.23.14V64c0,.09-.07.14-.23.14v.14h1.35v-.14c-.18,0-.23,0-.23-.14V62.56H52.1L53,63.83a.49.49,0,0,1,.12.23s-.07.09-.17.09v.14h1.46v-.14A.28.28,0,0,1,54.1,64l-1-1.53a1.18,1.18,0,0,0,1.12-1.2c0-.93-.66-1.27-1.66-1.27Z"/></clipPath><clipPath id="clip-path-9"><path class="cls-1" d="M59.25,59.84c0,.11-.08.2-.3.2H55.39v.14a.14.14,0,0,1,.14.14V64a.14.14,0,0,1-.14.14v.14H59c.16,0,.27,0,.27.17h.14V63.32H59.3c0,.12-.11.21-.27.21h-2.6V62.42H58c.2,0,.33,0,.33.29h.14V61.44h-.14c0,.25-.13.28-.33.28H56.43v-1H59c.22,0,.3.06.3.18h.14V59.82h-.14Z"/></clipPath><clipPath id="clip-path-10"><path class="cls-1" d="M62.49,63c0-.62.58-.84,1.07-.84.72,0,.59.54,1,1a1,1,0,0,1-1,.65c-.49,0-1.07-.22-1.07-.85m.41-2c0-.42.32-.62.73-.62s.72.2.72.62a.64.64,0,0,1-.72.62c-.41,0-.73-.2-.73-.62M62,60.85a1,1,0,0,0,.67.87h0a1.37,1.37,0,0,0-1.19,1.37c0,1,1,1.44,1.86,1.44A2.16,2.16,0,0,0,65,63.89a1.84,1.84,0,0,0,1.52.65V63.41h-.09c0,.14,0,.26-.19.26a1,1,0,0,1-.61-.43c.08-.23.33-.81.61-.81.12,0,.17.13.19.2h.09V61.24h-.09s-.07.07-.11.09a3,3,0,0,0-1.2,1.19c-.15-.17-.22-.6-.51-.8a1,1,0,0,0,.54-.86c0-.83-.84-1.19-1.58-1.19S62,60,62,60.85"/></clipPath><clipPath id="clip-path-11"><path class="cls-1" d="M74,60v.14a.15.15,0,0,1,.14.14.45.45,0,0,1-.06.22l-.84,2.33h0l-.84-2.29a1,1,0,0,1-.08-.27c0-.07,0-.13.11-.13V60H71.1v.14c.08,0,.11.08.11.16a.49.49,0,0,1-.06.24l-.82,2.29h0l-.83-2.25a.83.83,0,0,1-.08-.28c0-.1,0-.16.12-.16V60H68.31v.14c.11,0,.14.11.19.23l1.25,3.36a.77.77,0,0,1,.1.29c0,.08-.08.11-.14.11v.14h1.21v-.14c-.08,0-.09-.09-.09-.16a2.06,2.06,0,0,1,.1-.4l.86-2.34h0l.9,2.39a1,1,0,0,1,.11.37c0,.08-.08.12-.15.14v.14H73.9v-.14a.15.15,0,0,1-.16-.14,1.44,1.44,0,0,1,.13-.39L75,60.54c.08-.2.13-.34.24-.34v-.14H74Z"/></clipPath><clipPath id="clip-path-12"><path class="cls-1" d="M77.3,61.14,78,62.65h-1.4ZM76.69,60v.14c.08,0,.17.06.17.17a1.11,1.11,0,0,1-.14.34l-1.44,3.15c-.08.16-.14.3-.28.31v.14h1.12v-.14c-.08,0-.16,0-.16-.09a.76.76,0,0,1,.08-.25l.28-.57h1.91l.29.6a.48.48,0,0,1,.06.22c0,.06-.07.09-.12.09v.14h1.38v-.14a.39.39,0,0,1-.26-.21L78,60.65a.74.74,0,0,1-.11-.3c0-.11.1-.14.18-.17V60Z"/></clipPath><clipPath id="clip-path-13"><path class="cls-1" d="M83.64,59.84a.19.19,0,0,1-.2.2H80a.19.19,0,0,1-.21-.2h-.14V61h.14a.2.2,0,0,1,.21-.2h1.28V64a.14.14,0,0,1-.14.14v.14h1.21v-.14c-.1,0-.17,0-.17-.14V60.77h1.29a.19.19,0,0,1,.2.2h.14V59.84Z"/></clipPath><clipPath id="clip-path-14"><path class="cls-1" d="M88.47,59.84c0,.11-.08.2-.3.2H84.6v.14a.13.13,0,0,1,.14.14V64a.14.14,0,0,1-.14.14v.14h3.65c.16,0,.26,0,.26.17h.14V63.32h-.14c0,.12-.1.21-.26.21H85.64V62.42h1.54c.2,0,.33,0,.33.29h.14V61.44h-.14c0,.25-.13.28-.33.28H85.64v-1h2.53c.22,0,.3.06.3.18h.14V59.82h-.14Z"/></clipPath><clipPath id="clip-path-15"><path class="cls-1" d="M90.73,60.74h1.35c.75,0,1,.26,1,.6s-.22.61-1,.61H90.73ZM89.62,60v.14c.15,0,.23,0,.23.14V64c0,.09-.08.14-.23.14v.14H91v-.14c-.19,0-.24,0-.24-.14V62.56h1.12l.85,1.27c.08.11.13.18.13.23s-.08.09-.17.09v.14h1.46v-.14a.28.28,0,0,1-.27-.11l-1-1.53c.69-.13,1.14-.5,1.14-1.2,0-.93-.66-1.27-1.66-1.27Z"/></clipPath><clipPath id="clip-path-16"><path class="cls-1" d="M100.45,60v.14a.15.15,0,0,1,.14.14.82.82,0,0,1,0,.22l-.84,2.33h0l-.84-2.29a1,1,0,0,1-.08-.27c0-.07,0-.13.09-.13V60H97.53v.14c.08,0,.11.08.11.16a1,1,0,0,1-.06.24l-.83,2.29h0l-.84-2.25a1.25,1.25,0,0,1-.08-.28c0-.1.05-.16.13-.16V60H94.74v.14c.11,0,.14.11.18.23l1.26,3.36a.74.74,0,0,1,.09.29c0,.08-.07.11-.14.11v.14h1.21v-.14a.15.15,0,0,1-.1-.16,2.05,2.05,0,0,1,.12-.4l.85-2.34h0l.9,2.39a1.13,1.13,0,0,1,.12.37c0,.08-.07.12-.15.14v.14h1.24v-.14a.16.16,0,0,1-.16-.14,1.15,1.15,0,0,1,.13-.39l1.13-3.1c.08-.2.11-.34.23-.34v-.14h-1.22Z"/></clipPath><clipPath id="clip-path-17"><path class="cls-1" d="M103.07,62.17a1.68,1.68,0,1,1,1.66,1.44,1.56,1.56,0,0,1-1.66-1.44m-.87,0A2.56,2.56,0,1,0,104.73,60a2.36,2.36,0,0,0-2.53,2.19"/></clipPath><clipPath id="clip-path-18"><path class="cls-1" d="M109.35,60.74h1.35c.75,0,1,.26,1,.6s-.22.61-1,.61h-1.35Zm-1.11-.7v.14c.15,0,.23,0,.23.14V64c0,.09-.08.14-.23.14v.14h1.35v-.14c-.19,0-.24,0-.24-.14V62.56h1.12l.86,1.27a.62.62,0,0,1,.12.23s-.08.09-.17.09v.14h1.46v-.14a.29.29,0,0,1-.27-.11l-1-1.53a1.17,1.17,0,0,0,1.12-1.2c0-.93-.65-1.27-1.66-1.27Z"/></clipPath><clipPath id="clip-path-19"><path class="cls-1" d="M116.46,60v.14a.12.12,0,0,1,.13.11c0,.06-.08.12-.24.26l-1.61,1.32V60.34a.14.14,0,0,1,.15-.14v-.14h-1.22v.14c.11,0,.17,0,.17.14V64c0,.1-.06.14-.17.14v.14h1.22v-.14c-.09,0-.15,0-.15-.14V62.85l.65-.53,1.34,1.6c.07.09.1.14.1.19s0,.06-.1.06v.14h1.44v-.14a1.21,1.21,0,0,1-.51-.4l-1.65-2,1.8-1.48a.43.43,0,0,1,.28-.13V60Z"/></clipPath><clipPath id="clip-path-20"><path class="cls-1" d="M118.74,61.33c0,2,3.17.74,3.17,1.74,0,.49-.92.59-1.26.59a2.13,2.13,0,0,1-1.43-.52.42.42,0,0,1,0-.12l-.08-.05-.43,1,.11.06a.15.15,0,0,1,.11-.06,4.26,4.26,0,0,0,1.77.41c.83,0,2.14-.28,2.14-1.4,0-1.94-3.17-.75-3.17-1.77,0-.36.58-.5,1-.5a2,2,0,0,1,1.42.52.52.52,0,0,1,.07.18l.07,0,.55-1-.1-.06a.19.19,0,0,1-.15,0,6.41,6.41,0,0,0-1.88-.41c-1.3,0-1.91.67-1.91,1.34"/></clipPath><clipPath id="clip-path-21"><rect class="cls-1" x="42.85" y="55.2" width="79.76" height="2.19"/></clipPath><clipPath id="clip-path-22"><path class="cls-1" d="M124.1,55.87h.43a.57.57,0,0,1,.22,0,.19.19,0,0,1,0,.28.74.74,0,0,1-.22,0h-.43Zm-.39-.2h0s0,0,0,0v1.13a.06.06,0,0,1,0,0h0v0h.43v0h0s0,0,0,0v-.43h.34l.28.38,0,.08s0,0,0,0v0h.5v0a.11.11,0,0,1-.08,0,.33.33,0,0,1-.09-.12l-.25-.36a.37.37,0,0,0,.36-.39.33.33,0,0,0-.16-.32.59.59,0,0,0-.16-.07h-1.08v.05Zm-.13,1.3a.94.94,0,0,1-.28-.68,1,1,0,0,1,.28-.69,1.15,1.15,0,0,1,.84-.29,1.38,1.38,0,0,1,.48.08,1.1,1.1,0,0,1,.36.21,1,1,0,0,1,0,1.37,1.13,1.13,0,0,1-.84.29,1.15,1.15,0,0,1-.84-.29m.24-1.74a1.16,1.16,0,0,0-.75,1.07,1.27,1.27,0,0,0,.08.44.93.93,0,0,0,.31.42,1.47,1.47,0,0,0,1,.31,1.62,1.62,0,0,0,.61-.11,1.2,1.2,0,0,0,.56-.45,1.11,1.11,0,0,0,.18-.61,1.38,1.38,0,0,0-.08-.45.93.93,0,0,0-.31-.42,1.46,1.46,0,0,0-1-.31,1.78,1.78,0,0,0-.6.11"/></clipPath></defs><path class="cls-1" d="M72.06,3.32V5.88h.51c.27,0,1.18.17,1.18.61,0,.26-6.11,12-8,15.61-1.56,3-3.21,6-4.78,9-.8,1.52-1.56,3.12-2.42,4.57a2.34,2.34,0,0,1-1.92,1v.69H71.49v-.69c-.66-.18-1.31-.18-1.54-.79v-.51c0-1.85,4.48-2.31,4.48-3.55v-.78a10.9,10.9,0,0,0-.77-1.15c1.27.28,2.85,1.06,2.85,1.66v1.1A3.31,3.31,0,0,0,77,33.83c.12.17.32.18.46.23l.13-.05,0,0a6.46,6.46,0,0,1,.81-2.66c.16-.28,1-.94,1-1.45a4.29,4.29,0,0,0-1-2l.2-.2c.92.55,3.14,2,3.14,3v.8c0,.1-.31.58-.31.67,0,.68,1.53,1.07,1.53,1.77v.45a1.1,1.1,0,0,1-.32.62h.17c.73-.26,1.91-1.29,1.91-2.23S84,31.66,84,31.17V30.6c0-1,2.33-2.51,3.71-2.73a5.93,5.93,0,0,0-.61,1v.75c1,1.1,3.45,1.41,3.45,3.27v.74c0,.13-.17.52-.25.83.62-.36,1.66-1,1.66-1.52v-.62a6.91,6.91,0,0,0-1-1.68l.21-.22A14.65,14.65,0,0,1,93,31.48c.24.18,2.75,2.1,2.75,3v1c0,.86-1.09,1.14-1.91,1.23v.68h16.56V36.7h-.51c-1.39,0-3.14-4.19-3.26-4.41-.93-1.72-2-3.37-2.87-5.15-1-1.66-2-3.46-2.91-5.09q-3.11-5.68-6.22-11.33c-.56-1-1.19-2.12-1.69-3.15-.12-.26-.43-.65-.43-.74V6.39c0-.24.71-.52.9-.54H94V3.32Z"/><g class="cls-2"><rect class="cls-1" x="56.62" y="3.32" width="53.81" height="34.09"/></g><path class="cls-1" d="M49.71,44.45l2.17,4.43H47.72ZM47,42.69v.22c.2,0,.45.06.45.19s-3.77,8.31-4,8.73a.64.64,0,0,1-.57.44v.21h4v-.21c-.31,0-.41-.08-.41-.19a15.37,15.37,0,0,1,.72-1.72h5.29c.09.25.76,1.6.76,1.67s-.11.21-.42.22v.22h4.41v-.22c-.27,0-.41-.11-.62-.56-1.38-2.84-4.13-8.41-4.13-8.55s.15-.21.4-.25v-.21H47Z"/><g class="cls-3"><rect class="cls-1" x="42.89" y="42.69" width="14.29" height="9.81"/></g><path class="cls-1" d="M74.75,42.69v.22c.36,0,.54.11.54.34s-1.21,2.16-2.23,4c-.22-.5-2.09-3.88-2.09-4s.17-.31.52-.34v-.22H65.66v.22c.56,0,.62.17.62.34v8.69c0,.17-.06.3-.62.34v.22h3.92v-.22c-.55,0-.62-.17-.62-.34V45H69l3.93,7.31,4-7.23,0,0v6.86c0,.17-.06.3-.62.34v.22H80.8v-.22c-.56,0-.62-.17-.62-.34V43.25c0-.17.06-.29.62-.34v-.22Z"/><g class="cls-4"><rect class="cls-1" x="65.66" y="42.69" width="15.14" height="9.81"/></g><path class="cls-1" d="M101.74,42.18c-.07.44-.16.53-.41.53H90.19v.22c.56,0,.62.17.62.34V52c0,.17-.06.29-.62.34v.22h11.14c.25,0,.34.09.41.4H102V49.68h-.26c-.07.46-.16.55-.41.55H94.16V48.5h4.15c.45,0,.6.18.66.43h.27V46H99c-.06.25-.21.43-.66.43H94.15V44.91h7.17c.24,0,.34.1.4.53H102V42.18Z"/><g class="cls-5"><rect class="cls-1" x="90.18" y="42.18" width="11.81" height="10.74"/></g><path class="cls-1" d="M110.6,45.73c0,3.6,9.2,2.07,9.2,3.45,0,.82-1,1.27-3.25,1.27s-4.71-.84-4.71-1.33a1.06,1.06,0,0,1,0-.39l-.21-.09L110,52l.26.06c.14-.11.26-.25.45-.25a21.77,21.77,0,0,0,5.9.85c4.84,0,6.3-1.76,6.3-3.36,0-4.29-9.25-2.25-9.25-3.91,0-.44.67-.87,2.61-.87,2.09,0,4.63.53,4.63,1v.2l.27.11,1.53-2.59-.24-.08a.77.77,0,0,1-.61.28,33.12,33.12,0,0,0-5.88-.77c-3.24,0-5.38,1.25-5.38,3.11"/><g class="cls-6"><rect class="cls-1" x="110.02" y="42.58" width="12.91" height="10.02"/></g><path class="cls-1" d="M46.62,59.84c0,.11-.08.2-.3.2H42.69v.14c.14,0,.2,0,.2.14V64c0,.09-.07.14-.2.14v.14H44v-.14c-.14,0-.24,0-.24-.14V62.43h1.54c.2,0,.33,0,.33.3h.14V61.56h-.14c0,.14-.13.17-.33.17H43.79v-1h2.53c.22,0,.3.07.3.19h.14V59.84Z"/><g class="cls-7"><rect class="cls-1" x="42.69" y="59.84" width="4.07" height="4.47"/></g><path class="cls-1" d="M47.44,60v.14c.14,0,.2,0,.2.14V64c0,.09-.07.14-.2.14v.14h1.3v-.14c-.13,0-.2,0-.2-.14V60.34c0-.1.08-.14.2-.14v-.14h-1.3Z"/><g class="cls-8"><rect class="cls-1" x="47.44" y="60.04" width="1.3" height="4.27"/></g><path class="cls-1" d="M51,60.74h1.35c.74,0,1,.26,1,.6s-.22.61-1,.61H51ZM49.86,60v.14c.16,0,.23,0,.23.14V64c0,.09-.07.14-.23.14v.14h1.35v-.14c-.18,0-.23,0-.23-.14V62.56H52.1L53,63.83a.49.49,0,0,1,.12.23s-.07.09-.17.09v.14h1.46v-.14A.28.28,0,0,1,54.1,64l-1-1.53a1.18,1.18,0,0,0,1.12-1.2c0-.93-.66-1.27-1.66-1.27Z"/><g class="cls-9"><rect class="cls-1" x="49.86" y="60.04" width="4.52" height="4.27"/></g><path class="cls-1" d="M59.25,59.84c0,.11-.08.2-.3.2H55.39v.14a.14.14,0,0,1,.14.14V64a.14.14,0,0,1-.14.14v.14H59c.16,0,.27,0,.27.17h.14V63.32H59.3c0,.12-.11.21-.27.21h-2.6V62.42H58c.2,0,.33,0,.33.29h.14V61.44h-.14c0,.25-.13.28-.33.28H56.43v-1H59c.22,0,.3.06.3.18h.14V59.82h-.14Z"/><g class="cls-10"><rect class="cls-1" x="55.39" y="59.84" width="4.05" height="4.64"/></g><path class="cls-1" d="M62.49,63c0-.62.58-.84,1.07-.84.72,0,.59.54,1,1a1,1,0,0,1-1,.65c-.49,0-1.07-.22-1.07-.85m.41-2c0-.42.32-.62.73-.62s.72.2.72.62a.64.64,0,0,1-.72.62c-.41,0-.73-.2-.73-.62M62,60.85a1,1,0,0,0,.67.87h0a1.37,1.37,0,0,0-1.19,1.37c0,1,1,1.44,1.86,1.44A2.16,2.16,0,0,0,65,63.89a1.84,1.84,0,0,0,1.52.65V63.41h-.09c0,.14,0,.26-.19.26a1,1,0,0,1-.61-.43c.08-.23.33-.81.61-.81.12,0,.17.13.19.2h.09V61.24h-.09s-.07.07-.11.09a3,3,0,0,0-1.2,1.19c-.15-.17-.22-.6-.51-.8a1,1,0,0,0,.54-.86c0-.83-.84-1.19-1.58-1.19S62,60,62,60.85"/><g class="cls-11"><rect class="cls-1" x="61.53" y="59.65" width="5.04" height="4.89"/></g><path class="cls-1" d="M74,60v.14a.15.15,0,0,1,.14.14.45.45,0,0,1-.06.22l-.84,2.33h0l-.84-2.29a1,1,0,0,1-.08-.27c0-.07,0-.13.11-.13V60H71.1v.14c.08,0,.11.08.11.16a.49.49,0,0,1-.06.24l-.82,2.29h0l-.83-2.25a.83.83,0,0,1-.08-.28c0-.1,0-.16.12-.16V60H68.31v.14c.11,0,.14.11.19.23l1.25,3.36a.77.77,0,0,1,.1.29c0,.08-.08.11-.14.11v.14h1.21v-.14c-.08,0-.09-.09-.09-.16a2.06,2.06,0,0,1,.1-.4l.86-2.34h0l.9,2.39a1,1,0,0,1,.11.37c0,.08-.08.12-.15.14v.14H73.9v-.14a.15.15,0,0,1-.16-.14,1.44,1.44,0,0,1,.13-.39L75,60.54c.08-.2.13-.34.24-.34v-.14H74Z"/><g class="cls-12"><rect class="cls-1" x="68.3" y="60.04" width="6.89" height="4.27"/></g><path class="cls-1" d="M77.3,61.14,78,62.65h-1.4ZM76.69,60v.14c.08,0,.17.06.17.17a1.11,1.11,0,0,1-.14.34l-1.44,3.15c-.08.16-.14.3-.28.31v.14h1.12v-.14c-.08,0-.16,0-.16-.09a.76.76,0,0,1,.08-.25l.28-.57h1.91l.29.6a.48.48,0,0,1,.06.22c0,.06-.07.09-.12.09v.14h1.38v-.14a.39.39,0,0,1-.26-.21L78,60.65a.74.74,0,0,1-.11-.3c0-.11.1-.14.18-.17V60Z"/><g class="cls-13"><rect class="cls-1" x="75" y="60.04" width="4.84" height="4.27"/></g><path class="cls-1" d="M83.64,59.84a.19.19,0,0,1-.2.2H80a.19.19,0,0,1-.21-.2h-.14V61h.14a.2.2,0,0,1,.21-.2h1.28V64a.14.14,0,0,1-.14.14v.14h1.21v-.14c-.1,0-.17,0-.17-.14V60.77h1.29a.19.19,0,0,1,.2.2h.14V59.84Z"/><g class="cls-14"><rect class="cls-1" x="79.62" y="59.84" width="4.16" height="4.47"/></g><path class="cls-1" d="M88.47,59.84c0,.11-.08.2-.3.2H84.6v.14a.13.13,0,0,1,.14.14V64a.14.14,0,0,1-.14.14v.14h3.65c.16,0,.26,0,.26.17h.14V63.32h-.14c0,.12-.1.21-.26.21H85.64V62.42h1.54c.2,0,.33,0,.33.29h.14V61.44h-.14c0,.25-.13.28-.33.28H85.64v-1h2.53c.22,0,.3.06.3.18h.14V59.82h-.14Z"/><g class="cls-15"><rect class="cls-1" x="84.6" y="59.84" width="4.05" height="4.64"/></g><path class="cls-1" d="M90.73,60.74h1.35c.75,0,1,.26,1,.6s-.22.61-1,.61H90.73ZM89.62,60v.14c.15,0,.23,0,.23.14V64c0,.09-.08.14-.23.14v.14H91v-.14c-.19,0-.24,0-.24-.14V62.56h1.12l.85,1.27c.08.11.13.18.13.23s-.08.09-.17.09v.14h1.46v-.14a.28.28,0,0,1-.27-.11l-1-1.53c.69-.13,1.14-.5,1.14-1.2,0-.93-.66-1.27-1.66-1.27Z"/><g class="cls-16"><rect class="cls-1" x="89.62" y="60.04" width="4.52" height="4.27"/></g><path class="cls-1" d="M100.45,60v.14a.15.15,0,0,1,.14.14.82.82,0,0,1,0,.22l-.84,2.33h0l-.84-2.29a1,1,0,0,1-.08-.27c0-.07,0-.13.09-.13V60H97.53v.14c.08,0,.11.08.11.16a1,1,0,0,1-.06.24l-.83,2.29h0l-.84-2.25a1.25,1.25,0,0,1-.08-.28c0-.1.05-.16.13-.16V60H94.74v.14c.11,0,.14.11.18.23l1.26,3.36a.74.74,0,0,1,.09.29c0,.08-.07.11-.14.11v.14h1.21v-.14a.15.15,0,0,1-.1-.16,2.05,2.05,0,0,1,.12-.4l.85-2.34h0l.9,2.39a1.13,1.13,0,0,1,.12.37c0,.08-.07.12-.15.14v.14h1.24v-.14a.16.16,0,0,1-.16-.14,1.15,1.15,0,0,1,.13-.39l1.13-3.1c.08-.2.11-.34.23-.34v-.14h-1.22Z"/><g class="cls-17"><rect class="cls-1" x="94.71" y="60.04" width="6.89" height="4.27"/></g><path class="cls-1" d="M103.07,62.17a1.68,1.68,0,1,1,1.66,1.44,1.56,1.56,0,0,1-1.66-1.44m-.87,0A2.56,2.56,0,1,0,104.73,60a2.36,2.36,0,0,0-2.53,2.19"/><g class="cls-18"><rect class="cls-1" x="102.2" y="59.99" width="5.04" height="4.36"/></g><path class="cls-1" d="M109.35,60.74h1.35c.75,0,1,.26,1,.6s-.22.61-1,.61h-1.35Zm-1.11-.7v.14c.15,0,.23,0,.23.14V64c0,.09-.08.14-.23.14v.14h1.35v-.14c-.19,0-.24,0-.24-.14V62.56h1.12l.86,1.27a.62.62,0,0,1,.12.23s-.08.09-.17.09v.14h1.46v-.14a.29.29,0,0,1-.27-.11l-1-1.53a1.17,1.17,0,0,0,1.12-1.2c0-.93-.65-1.27-1.66-1.27Z"/><g class="cls-19"><rect class="cls-1" x="108.24" y="60.04" width="4.52" height="4.27"/></g><path class="cls-1" d="M116.46,60v.14a.12.12,0,0,1,.13.11c0,.06-.08.12-.24.26l-1.61,1.32V60.34a.14.14,0,0,1,.15-.14v-.14h-1.22v.14c.11,0,.17,0,.17.14V64c0,.1-.06.14-.17.14v.14h1.22v-.14c-.09,0-.15,0-.15-.14V62.85l.65-.53,1.34,1.6c.07.09.1.14.1.19s0,.06-.1.06v.14h1.44v-.14a1.21,1.21,0,0,1-.51-.4l-1.65-2,1.8-1.48a.43.43,0,0,1,.28-.13V60Z"/><g class="cls-20"><rect class="cls-1" x="113.67" y="60.04" width="4.52" height="4.27"/></g><path class="cls-1" d="M118.74,61.33c0,2,3.17.74,3.17,1.74,0,.49-.92.59-1.26.59a2.13,2.13,0,0,1-1.43-.52.42.42,0,0,1,0-.12l-.08-.05-.43,1,.11.06a.15.15,0,0,1,.11-.06,4.26,4.26,0,0,0,1.77.41c.83,0,2.14-.28,2.14-1.4,0-1.94-3.17-.75-3.17-1.77,0-.36.58-.5,1-.5a2,2,0,0,1,1.42.52.52.52,0,0,1,.07.18l.07,0,.55-1-.1-.06a.19.19,0,0,1-.15,0,6.41,6.41,0,0,0-1.88-.41c-1.3,0-1.91.67-1.91,1.34"/><g class="cls-21"><rect class="cls-1" x="118.7" y="59.99" width="4.11" height="4.36"/></g><rect class="cls-1" x="42.85" y="55.2" width="79.76" height="2.19"/><g class="cls-22"><rect class="cls-1" x="42.85" y="55.2" width="79.76" height="2.19"/></g><path class="cls-1" d="M124.1,55.87h.43a.57.57,0,0,1,.22,0,.19.19,0,0,1,0,.28.74.74,0,0,1-.22,0h-.43Zm-.39-.2h0s0,0,0,0v1.13a.06.06,0,0,1,0,0h0v0h.43v0h0s0,0,0,0v-.43h.34l.28.38,0,.08s0,0,0,0v0h.5v0a.11.11,0,0,1-.08,0,.33.33,0,0,1-.09-.12l-.25-.36a.37.37,0,0,0,.36-.39.33.33,0,0,0-.16-.32.59.59,0,0,0-.16-.07h-1.08v.05Zm-.13,1.3a.94.94,0,0,1-.28-.68,1,1,0,0,1,.28-.69,1.15,1.15,0,0,1,.84-.29,1.38,1.38,0,0,1,.48.08,1.1,1.1,0,0,1,.36.21,1,1,0,0,1,0,1.37,1.13,1.13,0,0,1-.84.29,1.15,1.15,0,0,1-.84-.29m.24-1.74a1.16,1.16,0,0,0-.75,1.07,1.27,1.27,0,0,0,.08.44.93.93,0,0,0,.31.42,1.47,1.47,0,0,0,1,.31,1.62,1.62,0,0,0,.61-.11,1.2,1.2,0,0,0,.56-.45,1.11,1.11,0,0,0,.18-.61,1.38,1.38,0,0,0-.08-.45.93.93,0,0,0-.31-.42,1.46,1.46,0,0,0-1-.31,1.78,1.78,0,0,0-.6.11"/><g class="cls-23"><rect class="cls-1" x="123.07" y="55.12" width="2.7" height="2.34"/></g><polygon class="cls-24" points="85.5 15.17 80.72 15.17 83.04 10.67 85.5 15.17"/><path class="cls-24" d="M82.15,10.67a.89.89,0,1,1,1.77,0,.88.88,0,0,1-.88.88.87.87,0,0,1-.89-.88"/><path class="cls-24" d="M82.76,11.77a.89.89,0,1,1,.88.88.88.88,0,0,1-.88-.88"/><path class="cls-24" d="M83.29,12.71a.88.88,0,1,1,.88.89.88.88,0,0,1-.88-.89"/><path class="cls-24" d="M83.88,13.82a.88.88,0,1,1,.88.88.86.86,0,0,1-.88-.88"/><path class="cls-24" d="M84.62,15.17a.89.89,0,1,1,.88.88.87.87,0,0,1-.88-.88"/><path class="cls-24" d="M85.5,16.81a.89.89,0,1,1,.89.89.91.91,0,0,1-.89-.89"/><path class="cls-24" d="M86.53,18.67a.89.89,0,0,1,1.77,0,.89.89,0,1,1-1.77,0"/><path class="cls-24" d="M87.94,21.26a.89.89,0,1,1,.89.89.88.88,0,0,1-.89-.89"/><path class="cls-24" d="M89.73,24.51a.88.88,0,1,1,.88.88.88.88,0,0,1-.88-.88"/><path class="cls-24" d="M81.58,11.77a.89.89,0,1,1,.88.88.88.88,0,0,1-.88-.88"/><path class="cls-24" d="M81.08,12.71a.89.89,0,1,1,.89.89.89.89,0,0,1-.89-.89"/><path class="cls-24" d="M80.52,13.82a.89.89,0,1,1,1.77,0,.89.89,0,0,1-1.77,0"/><path class="cls-24" d="M79.83,15.17a.88.88,0,1,1,.88.88.88.88,0,0,1-.88-.88"/><path class="cls-24" d="M79,16.8a.89.89,0,1,1,.88.88A.87.87,0,0,1,79,16.8"/><path class="cls-24" d="M78,18.67a.88.88,0,1,1,.88.89.9.9,0,0,1-.88-.89"/><path class="cls-24" d="M76.69,21.26a.89.89,0,1,1,.89.89.88.88,0,0,1-.89-.89"/><path class="cls-24" d="M75,24.51a.88.88,0,1,1,.88.88.87.87,0,0,1-.88-.88"/><path class="cls-24" d="M82.2,13.82a.89.89,0,1,1,.88.88.86.86,0,0,1-.88-.88"/><path class="cls-24" d="M83,15.17a.89.89,0,1,1,1.77,0,.88.88,0,0,1-.88.88.9.9,0,0,1-.89-.88"/><path class="cls-24" d="M81.42,15.17a.89.89,0,1,1,1.77,0,.88.88,0,0,1-.88.88.9.9,0,0,1-.89-.88"/><path class="cls-24" d="M81.18,16.8a.88.88,0,1,1,.88.88.87.87,0,0,1-.88-.88"/><path class="cls-24" d="M80.88,18.67a.89.89,0,1,1,.89.89.88.88,0,0,1-.89-.89"/><path class="cls-24" d="M80.45,21.26a.89.89,0,0,1,1.77,0,.89.89,0,0,1-.89.89.88.88,0,0,1-.88-.89"/><path class="cls-24" d="M83.35,16.81a.89.89,0,0,1,1.77,0,.89.89,0,1,1-1.77,0"/><path class="cls-24" d="M83.7,18.67a.89.89,0,0,1,.89-.88.89.89,0,0,1,0,1.77.91.91,0,0,1-.89-.89"/><path class="cls-24" d="M84.2,21.26a.89.89,0,1,1,.89.89.88.88,0,0,1-.89-.89"/><path class="cls-24" d="M84.85,24.54a.89.89,0,1,1,1.77,0,.89.89,0,0,1-1.77,0"/><path class="cls-24" d="M79.93,24.51a.89.89,0,1,1,1.77,0,.89.89,0,0,1-1.77,0"/><polygon class="cls-24" points="85.51 15.8 80.73 15.8 83.05 11.3 85.51 15.8"/><path class="cls-24" d="M82.16,11.3a.89.89,0,1,1,.89.88.87.87,0,0,1-.89-.88Z"/><path class="cls-24" d="M82.77,12.4a.89.89,0,1,1,.88.88.86.86,0,0,1-.88-.88Z"/><path class="cls-24" d="M83.29,13.35a.89.89,0,1,1,1.77,0,.89.89,0,0,1-1.77,0Z"/><path class="cls-24" d="M83.88,14.45a.89.89,0,1,1,1.77,0,.88.88,0,0,1-.88.88.87.87,0,0,1-.89-.88Z"/><path class="cls-24" d="M84.63,15.8a.89.89,0,1,1,.88.88.87.87,0,0,1-.88-.88Z"/><path class="cls-24" d="M85.51,17.44a.89.89,0,1,1,.89.89.91.91,0,0,1-.89-.89Z"/><path class="cls-24" d="M86.54,19.3a.89.89,0,0,1,1.77,0,.89.89,0,1,1-1.77,0Z"/><path class="cls-24" d="M88,21.9a.89.89,0,1,1,.88.88A.88.88,0,0,1,88,21.9Z"/><path class="cls-24" d="M89.73,25.14a.89.89,0,1,1,1.77,0,.89.89,0,0,1-1.77,0Z"/><path class="cls-24" d="M81.59,12.4a.89.89,0,1,1,.88.88.88.88,0,0,1-.88-.88Z"/><path class="cls-24" d="M81.09,13.35a.89.89,0,1,1,.89.88.87.87,0,0,1-.89-.88Z"/><path class="cls-24" d="M80.53,14.45a.89.89,0,1,1,1.77,0,.89.89,0,0,1-1.77,0Z"/><path class="cls-24" d="M79.83,15.8a.89.89,0,1,1,1.77,0,.88.88,0,0,1-.88.88.9.9,0,0,1-.89-.88Z"/><path class="cls-24" d="M79,17.43a.88.88,0,1,1,.88.88.87.87,0,0,1-.88-.88Z"/><path class="cls-24" d="M78,19.3a.89.89,0,1,1,.89.89A.91.91,0,0,1,78,19.3Z"/><path class="cls-24" d="M76.7,21.9a.89.89,0,1,1,.88.88.88.88,0,0,1-.88-.88Z"/><path class="cls-24" d="M75,25.14a.89.89,0,1,1,1.77,0,.89.89,0,0,1-1.77,0Z"/><path class="cls-24" d="M82.21,14.45a.89.89,0,1,1,.88.88.86.86,0,0,1-.88-.88Z"/><path class="cls-24" d="M83,15.8a.89.89,0,1,1,.88.88A.88.88,0,0,1,83,15.8Z"/><path class="cls-24" d="M81.43,15.8a.89.89,0,1,1,1.77,0,.88.88,0,0,1-.88.88.9.9,0,0,1-.89-.88Z"/><path class="cls-24" d="M81.18,17.43a.89.89,0,1,1,1.77,0,.89.89,0,0,1-1.77,0Z"/><path class="cls-24" d="M80.89,19.3a.89.89,0,0,1,1.77,0,.89.89,0,0,1-.89.89.88.88,0,0,1-.88-.89Z"/><path class="cls-24" d="M80.45,21.9a.89.89,0,0,1,.89-.89.89.89,0,1,1-.89.89Z"/><path class="cls-24" d="M83.36,17.44a.88.88,0,1,1,.88.89.88.88,0,0,1-.88-.89Z"/><path class="cls-24" d="M83.71,19.3a.89.89,0,1,1,.89.89.91.91,0,0,1-.89-.89Z"/><path class="cls-24" d="M84.21,21.9a.89.89,0,1,1,.88.88.88.88,0,0,1-.88-.88Z"/><path class="cls-24" d="M84.86,25.17a.89.89,0,1,1,1.77,0,.89.89,0,0,1-1.77,0Z"/><path class="cls-24" d="M79.94,25.14a.89.89,0,1,1,1.77,0,.89.89,0,0,1-1.77,0Z"/></svg>