<svg id="Layer_1" data-name="Layer 1" xmlns="http://www.w3.org/2000/svg" viewBox="0 0 164 68"><defs><style>.cls-1{font-size:3.93px;fill:#010101;font-family:AraESNawar-Regular, Nawar Font;}.cls-2{fill:none;stroke:#000;stroke-miterlimit:10;stroke-width:0.25px;}</style></defs><path d="M50.55,24.38a14.84,14.84,0,0,0-13-2.55,12.52,12.52,0,0,0-4.66,21.8c4.29,3.57,12.68,4.95,19.3-2.23A21.47,21.47,0,0,1,41.74,51.62Q26.47,58.72,12.62,49a2.4,2.4,0,0,1-1-3.46c1.67-3.86,1.56-3.9,5.8-3.9a10.09,10.09,0,0,0,1.65,0c2.94-.47,5.13.19,5.75,3.54a1.55,1.55,0,0,0,1.12.93c1.31.12,2.65,0,4.26,0-.91-2.18-1.69-4.09-2.49-6-2.4-5.62-4.82-11.23-7.19-16.87-.42-1-.86-1.56-2.1-1.56s-1.66.59-2.09,1.58C13.7,29.4,11,35.49,8.3,41.58c-.21.49-.47,1-.82,1.66C4.5,37.94,4,32.69,6.42,27.39c3.21-7,9.1-10.92,16.43-12.6,8.87-2,17-.31,24.1,5.55A26.51,26.51,0,0,1,49.52,23,14.7,14.7,0,0,1,50.55,24.38Z"/><path d="M98.3,46.82H94.17V35c0-3.17-.37-3.81-2.26-4-3.41-.29-5.68,1.06-5.87,3.81-.22,3.24-.12,6.49-.16,9.74,0,.72,0,1.44,0,2.26H81.7V26.92c3-.68,3.89-.43,4.42,1.16,3.79-2.36,7.41-1.89,11.08.73,2.65-2.26,5.83-2.65,9.21-1.88A5.56,5.56,0,0,1,111,32c.16,4.89,0,9.78,0,14.8h-4.15V44.9c0-3.74,0-7.48,0-11.22,0-2-.73-2.61-2.69-2.67-3.88-.1-5.64,1.59-5.66,5.5,0,3.31,0,6.62,0,9.93C98.49,46.54,98.39,46.65,98.3,46.82Z"/><path d="M77.88,24.51l-3.42,3c-2.74-2.46-5.74-3.71-9.34-2.79a3.59,3.59,0,0,0-1.81.8c-.66.79-1.52,1.86-1.42,2.71a3.29,3.29,0,0,0,2,2.23,58.77,58.77,0,0,0,6.66,1.23c1,.18,1.92.36,2.86.61,2.59.7,4.6,2.11,5.13,4.91a7.16,7.16,0,0,1-2.45,7.29c-4.28,3.48-9.17,3.9-14.19,2.08-2.11-.76-4-2.19-6.29-3.5L59.12,40c2.33,1.05,4.33,2.42,6.51,2.82a14.64,14.64,0,0,0,6-.71,2.81,2.81,0,0,0,2-3.16,2.69,2.69,0,0,0-2.46-2.38c-2.75-.56-5.54-.92-8.29-1.51-4.51-1-6.7-3.57-6-7.51a8.14,8.14,0,0,1,2.4-4.32C64,19,73.51,19.74,77.88,24.51Z"/><path d="M138.74,46.85H134.5V20c1.32.8,2.9,1.27,3.64,2.33s.53,2.63.78,4.25c1.67,0,3.49,0,5.3,0,5.83,0,8.05,2.19,8.05,7.94V46.8H148V36c0-5,0-5-5-5h-4.22Z"/><path d="M41.29,42.05a8.12,8.12,0,1,1,.17-16.23,8.12,8.12,0,1,1-.17,16.23Z"/><path d="M123.87,19.83c1.5.92,3.15,1.42,3.85,2.52s.32,2.68.42,4.16l2.31.19v4.23l-2.35.15c0,3.25-.14,6.48.1,9.69.06.86,1.26,1.63,2.27,2.2v3.78A5.65,5.65,0,0,1,123.91,41C123.78,34.07,123.87,27.14,123.87,19.83Z"/><path d="M115.48,26.66h3.94V46.77h-3.94Z"/><path d="M21.58,37.19H15l3.25-8Z"/><path d="M115.52,19.72c1.43,1.69,4.54,1.31,3.94,4.58h-3.94Z"/><text class="cls-1" transform="translate(155.91 45.47)">R</text><circle class="cls-2" cx="157.12" cy="44.3" r="1.99"/></svg>