<svg id="Layer_1" data-name="Layer 1" xmlns="http://www.w3.org/2000/svg" viewBox="0 0 164 68"><defs><style>.cls-1{fill:#010101;}</style></defs><path class="cls-1" d="M65.27,58l-3.51,7.2a.49.49,0,0,1-.21.24.6.6,0,0,1-.31.1.57.57,0,0,1-.42-.14.46.46,0,0,1-.15-.3.63.63,0,0,1,0-.19L64.57,57a.53.53,0,0,1,.25-.26.59.59,0,0,1,.35-.08.7.7,0,0,1,.35.09.47.47,0,0,1,.21.25l3.86,7.84a.51.51,0,0,1,0,.2.46.46,0,0,1-.18.37.65.65,0,0,1-.4.14.62.62,0,0,1-.34-.1.58.58,0,0,1-.23-.26L64.93,58Zm-2.76,5.14.51-1h4.43l.23,1Z"/><path class="cls-1" d="M75.36,56.66a3.12,3.12,0,0,1,1.47.34,2.57,2.57,0,0,1,1,.93,2.45,2.45,0,0,1,.38,1.35,2.49,2.49,0,0,1-.38,1.34,2.66,2.66,0,0,1-1,1,3.13,3.13,0,0,1-1.47.35h-3l.11-.16V65a.5.5,0,0,1-.17.37.59.59,0,0,1-.41.15.63.63,0,0,1-.44-.15.49.49,0,0,1-.16-.37V57.17a.45.45,0,0,1,.18-.36.64.64,0,0,1,.43-.15Zm0,4.3a1.64,1.64,0,0,0,.86-.22,1.78,1.78,0,0,0,.61-.61,1.66,1.66,0,0,0,.22-.85,1.6,1.6,0,0,0-.22-.84,1.65,1.65,0,0,0-.61-.59,1.74,1.74,0,0,0-.86-.21h-3l.11-.15v3.6L72.33,61Z"/><path class="cls-1" d="M86,64.47a.64.64,0,0,1,.43.15.43.43,0,0,1,.18.36.42.42,0,0,1-.18.35.69.69,0,0,1-.43.14H80.81a.65.65,0,0,1-.44-.15A.5.5,0,0,1,80.2,65V57.17a.45.45,0,0,1,.18-.36.69.69,0,0,1,.46-.15.67.67,0,0,1,.44.15.45.45,0,0,1,.18.36V64.7l-.3-.23Z"/><path class="cls-1" d="M95.67,57.24a.45.45,0,0,1,.16.76.44.44,0,0,1-.34.17.77.77,0,0,1-.42-.06,5.16,5.16,0,0,0-1.06-.4,4.62,4.62,0,0,0-1.19-.15,4.81,4.81,0,0,0-1.61.26,3.69,3.69,0,0,0-1.27.72,3.37,3.37,0,0,0-.84,1.11,3.3,3.3,0,0,0-.3,1.41,3.4,3.4,0,0,0,.32,1.49A3.2,3.2,0,0,0,90,63.66a3.83,3.83,0,0,0,1.27.7,5,5,0,0,0,1.58.24A5.08,5.08,0,0,0,94,64.46a4.64,4.64,0,0,0,1.06-.4.77.77,0,0,1,.42-.06.47.47,0,0,1,.35.17.47.47,0,0,1,.15.42.54.54,0,0,1-.29.34,6.42,6.42,0,0,1-.86.34,7.54,7.54,0,0,1-1,.24,7,7,0,0,1-1,.08,6.39,6.39,0,0,1-2-.31,5.53,5.53,0,0,1-1.7-.9A4.06,4.06,0,0,1,87.94,63a4.18,4.18,0,0,1-.42-1.9,4,4,0,0,1,.4-1.79A4.31,4.31,0,0,1,89,57.84a5.49,5.49,0,0,1,1.68-.94,6.42,6.42,0,0,1,2.1-.33,6.85,6.85,0,0,1,1.51.17A5.37,5.37,0,0,1,95.67,57.24Z"/><path class="cls-1" d="M107.2,61.06a4.3,4.3,0,0,1-.38,1.8,4.38,4.38,0,0,1-1,1.44,4.66,4.66,0,0,1-1.6,1,6.14,6.14,0,0,1-4,0,4.85,4.85,0,0,1-1.6-1,4.22,4.22,0,0,1-1-1.44,4.54,4.54,0,0,1,0-3.59,4.22,4.22,0,0,1,1-1.44,5.05,5.05,0,0,1,1.6-1,6.14,6.14,0,0,1,4,0,4.84,4.84,0,0,1,1.6,1,4.38,4.38,0,0,1,1,1.44A4.29,4.29,0,0,1,107.2,61.06Zm-1.3,0a3.42,3.42,0,0,0-.48-1.81A3.33,3.33,0,0,0,104.1,58a4.07,4.07,0,0,0-1.95-.45,4,4,0,0,0-1.93.45,3.25,3.25,0,0,0-1.32,1.25,3.69,3.69,0,0,0,0,3.64,3.19,3.19,0,0,0,1.32,1.25,3.91,3.91,0,0,0,1.93.46,4,4,0,0,0,1.95-.46,3.31,3.31,0,0,0,1.32-1.25A3.46,3.46,0,0,0,105.9,61.06Z"/><path d="M36.59,33.45a3.58,3.58,0,0,0,.37-.73c.53-2.41,2-4,4.44-4.09,3.59-.15,7.2,0,11,0v20H84.66c-.59-2.23-1.49-4.27-3.63-5.09a25,25,0,0,0-13.3-1.3,2.65,2.65,0,0,1-2.56-.88c-.92-.94-2-1.74-3-2.63.49-.59.69-.86.92-1.1q9.19-9.19,18.42-18.39c2.48-2.47,5.15-2.68,7.64-.49L70.52,37.21c4.6-.43,8.62-.56,12.38,1.44,3.95,2.11,5.68,5.66,6.48,9.92h12V14.92h5v33.6h11.8V38.84c3,.37,4.68,1.67,4.86,4.24.24,3.47.06,7,.06,10.61H52.4c0,2.93,0,5.71,0,8.5a5.1,5.1,0,0,1-3,4.82c-.45.23-.94.38-1.41.57h-.68V53.72c-1.77,0-3.37,0-5,0-3-.1-4.65-1.46-5.37-4.35a4.21,4.21,0,0,0-.36-.74Zm10.66.13c-1.23,0-2.36-.06-3.48,0a2.07,2.07,0,0,0-2.05,2.29c0,3.55-.1,7.1.07,10.64a2.76,2.76,0,0,0,1.59,2,15.08,15.08,0,0,0,3.87.09Z"/><path d="M132.78,53.79h-5v-39h5Z"/><path d="M132.78,10.69h-4.91c-.17-2.47.9-3.75,4.22-5.17.23.17.66.34.66.52C132.8,7.59,132.78,9.14,132.78,10.69Z"/><path d="M118.42,62.72V58.06h4.64C123.19,60.78,121.33,62.66,118.42,62.72Z"/></svg>