<svg id="Layer_1" data-name="Layer 1" xmlns="http://www.w3.org/2000/svg" viewBox="0 0 164 68"><defs><style>.cls-1{font-size:7.45px;font-family:AraESNawar-Regular, Nawar Font;}.cls-1,.cls-2{fill:#010101;}.cls-3,.cls-4{fill:#fff;}.cls-4{font-size:30.62px;font-family:ITCHandelGothicArabic-Bold;font-weight:700;}</style></defs><text class="cls-1" transform="translate(7.68 53.57) scale(1.14 1)">THERMOPLASTIC PIPEWORK SYSTEMS</text><path class="cls-2" d="M33,35a7.84,7.84,0,0,0-.51,3.77,7.84,7.84,0,0,0,1,2.64.56.56,0,0,1-.45.83,53.58,53.58,0,0,1-6.6,0c-4.12-.25-6.12-.87-9.53-.44a21.57,21.57,0,0,0-4,.92.6.6,0,0,1-.76-.75l6.87-21.76a7.7,7.7,0,0,1-3.13-2.94,6.73,6.73,0,0,1-1-3.07.3.3,0,0,1,.43-.3,20.22,20.22,0,0,0,4,1.39c3.4.76,5.77.34,9.75.11a86.54,86.54,0,0,1,8.69,0,2.4,2.4,0,0,1,1.38.77A3,3,0,0,1,39.67,18a5,5,0,0,1-.06,1.17l6.54.09a1.26,1.26,0,0,1,1.3.95,1.83,1.83,0,0,1-.22,1.5L45,26.33a.6.6,0,0,1-.9.22,6.61,6.61,0,0,0-3.65-1.28H40.4A4.91,4.91,0,0,0,35.94,28c-.28.57-.6,1.21-.93,1.92A40,40,0,0,0,33,35Z"/><path class="cls-3" d="M36.09,19.8v.48l-2.82,0a1.76,1.76,0,0,1-1.77,1.31,1.78,1.78,0,0,1-1.62-1.35l-5.43,0v-1.1l6.15,0c0,.89.52,1.48.92,1.47s.89-.61.83-1.47h3.72Z"/><circle class="cls-3" cx="45.6" cy="20.9" r="0.85"/><path class="cls-3" d="M28,35.11l-.79,1,1.28,0L24,37.74l2.49-3.33L25.77,34l2.43-3-1.36-.68L31,26.72l-2.13,3.22,1.13.3L27.9,33.67h1.18Z"/><rect class="cls-2" x="50.37" y="13.92" width="105.96" height="28.89" rx="7.15"/><path class="cls-3" d="M66.52,38.56h4.84l-8-19.77H61.17L53.05,38.56h2.79l2.26-5.92h6.25Zm-7.75-7.68,2.52-6.6,2.42,6.6Z"/><polygon class="cls-3" points="100.79 18.96 86.08 18.96 86.08 21.2 91.31 21.2 91.31 38.56 95.67 38.56 95.67 21.2 100.79 21.2 100.79 18.96"/><path class="cls-3" d="M138.17,38.56l-6-9.69a5,5,0,0,0-.43-9.91h-8.32v9.93h0v9.67h4.17V29L133,38.56Zm-9.36-17.89a3.41,3.41,0,0,1,3.41,3.41v.67a3.41,3.41,0,0,1-3.41,3.41h-1.23V20.67Z"/><polygon class="cls-3" points="149.95 21.2 149.95 18.96 143.46 18.96 142.44 18.96 139.34 18.96 139.34 38.56 142.44 38.56 143.46 38.56 149.95 38.56 149.95 36.31 143.46 36.31 143.46 29.28 149.95 29.28 149.95 27.04 143.46 27.04 143.46 21.2 149.95 21.2"/><text class="cls-4" transform="translate(98.45 38.84) scale(1.08 1)">O</text><path class="cls-3" d="M79.11,18.26a9.67,9.67,0,0,1,2.92.4A9.26,9.26,0,0,1,84,19.5a7.26,7.26,0,0,1,.84.58l-1.3,2.16a9.71,9.71,0,0,0-.79-.57A6.07,6.07,0,0,0,81.29,21a5.75,5.75,0,0,0-1.93-.3,4.5,4.5,0,0,0-2.65.69,2.29,2.29,0,0,0-1,2,2.38,2.38,0,0,0,.52,1.51,5,5,0,0,0,1.45,1.19c.62.35,1.35.72,2.18,1.1a18.12,18.12,0,0,1,2,1,9.53,9.53,0,0,1,1.8,1.33A5.85,5.85,0,0,1,85,31.28,5.76,5.76,0,0,1,85,36a5,5,0,0,1-1.44,1.76,6.46,6.46,0,0,1-2.17,1.11,8.77,8.77,0,0,1-2.66.39,11,11,0,0,1-3.25-.46,12.41,12.41,0,0,1-2.33-1,9.06,9.06,0,0,1-1-.62l1.38-2.26a5.12,5.12,0,0,0,.66.46A12.15,12.15,0,0,0,75.3,36a9.72,9.72,0,0,0,1.58.54,7.49,7.49,0,0,0,1.87.22,4.35,4.35,0,0,0,3-.92,3,3,0,0,0,1-2.35,2.87,2.87,0,0,0-.66-1.9,6.17,6.17,0,0,0-1.74-1.43c-.72-.41-1.52-.82-2.39-1.21a17.33,17.33,0,0,1-2.45-1.37,6.17,6.17,0,0,1-1.8-1.8,4.6,4.6,0,0,1-.67-2.54,4.26,4.26,0,0,1,.81-2.58,5.42,5.42,0,0,1,2.18-1.75A7.21,7.21,0,0,1,79.11,18.26Z"/></svg>