<svg id="Layer_1" data-name="Layer 1" xmlns="http://www.w3.org/2000/svg" viewBox="0 0 164 68"><defs><style>.cls-1{fill:#010101;}</style></defs><path class="cls-1" d="M39.44,50.81c1.14.19,2.07.74,2.07,1.89a2,2,0,0,1-1.15,1.83A4,4,0,0,1,38.3,55H35.38v-.33c1-.1,1.07-.2,1.07-1.14V48.76c0-1-.1-1.07-1.07-1.15v-.34h3.11a3.17,3.17,0,0,1,1.83.42A1.53,1.53,0,0,1,41,49,1.89,1.89,0,0,1,39.44,50.81Zm-1.36-.14c1.3,0,1.84-.52,1.84-1.5s-.51-1.47-1.65-1.47a1.3,1.3,0,0,0-.67.12c-.09.07-.13.2-.13.58v2.27Zm-.61,2.82c0,.86.2,1.07,1.05,1.07a1.67,1.67,0,0,0,1.83-1.74c0-1.21-.86-1.74-2.31-1.74h-.57Z"/><path class="cls-1" d="M48.58,53.1c-.07.31-.39,1.53-.51,1.89H42.31v-.33c1.1-.09,1.18-.19,1.18-1.17V48.8c0-1-.13-1.11-1-1.19v-.34H46.1c1.12,0,1.58,0,1.73,0,0,.3.05,1.19.1,1.82l-.35,0a4.19,4.19,0,0,0-.36-.9c-.19-.39-.46-.47-1.18-.47H44.92c-.37,0-.4,0-.4.38v2.62h1.32c.89,0,.95-.18,1.1-1h.36v2.44h-.36c-.16-.85-.25-1-1.11-1H44.52V53.6c0,.83.27.9.86.91h1.1c.73,0,.85-.1,1.11-.41A5.69,5.69,0,0,0,48.23,53Z"/><path class="cls-1" d="M57.62,47.61c-.76.08-1,.2-1,.74,0,.38,0,.88,0,2V55.1h-.45L51,48.89v3c0,1.07,0,1.61.06,1.95,0,.61.32.79,1.17.86V55H49.36v-.33c.73-.06,1-.24,1.07-.82,0-.38,0-.92,0-2v-3a1,1,0,0,0-.23-.79c-.23-.29-.48-.37-1.06-.42v-.34H51l5,6v-2.9c0-1.11,0-1.62,0-2,0-.54-.31-.71-1.26-.76v-.34h2.93Z"/><path class="cls-1" d="M58.57,47.27h3.17v.34c-.93.08-1.09.16-1.09,1.22v2a1.61,1.61,0,0,0,.85-.55c.67-.63,1.46-1.43,2-2,.35-.4.32-.56-.19-.63l-.34,0v-.34h2.89v.34a2.49,2.49,0,0,0-2,1l-2.05,2c.91,1.07,2.22,2.59,2.84,3.25a1.87,1.87,0,0,0,1.5.83V55h-1.9c-.92-1-1.88-2.18-3-3.44a.7.7,0,0,0-.66-.35v2.26c0,1,.1,1.11,1.09,1.2V55H58.57v-.33c1-.09,1.07-.17,1.07-1.2V48.83c0-1.07-.09-1.15-1.07-1.22Z"/><path class="cls-1" d="M71,55v-.33c.77-.1.86-.22.7-.67s-.39-1.05-.64-1.8H68.49L68,53.67c-.26.77-.1.87.88,1V55H66.1v-.33c.74-.1.93-.18,1.35-1.25l2.46-6.23.38-.07,2.31,6.32c.38,1,.49,1.13,1.33,1.23V55Zm-1.19-6.33c-.38,1-.78,2.1-1.14,3h2.22Z"/><path class="cls-1" d="M82.73,47.61c-.76.08-1,.2-1,.74,0,.38,0,.88,0,2V55.1H81.2l-5.08-6.21v3c0,1.07,0,1.61,0,1.95,0,.61.33.79,1.18.86V55H74.47v-.33c.73-.06,1-.24,1.06-.82,0-.38.06-.92.06-2v-3a1,1,0,0,0-.23-.79c-.23-.29-.48-.37-1.06-.42v-.34h1.78l5,6v-2.9a18.82,18.82,0,0,0-.06-2c0-.54-.3-.71-1.25-.76v-.34h2.93Z"/><path class="cls-1" d="M89.46,47.61c-.93.1-1,.17-1,1.17v4.39c0,1.57-.25,2.39-1,3.1a3.76,3.76,0,0,1-1.1.69l-.19-.36A2.08,2.08,0,0,0,87.29,55a13.87,13.87,0,0,0,.11-2.26v-4c0-1-.1-1.08-1.08-1.17v-.34h3.14Z"/><path class="cls-1" d="M94.39,55v-.33c.77-.1.86-.22.7-.67s-.4-1.05-.65-1.8H91.88c-.19.53-.37,1-.53,1.48-.26.77-.1.87.88,1V55H89.48v-.33c.75-.1.94-.18,1.36-1.25l2.45-6.23.38-.07c.75,2,1.57,4.27,2.32,6.32.38,1,.48,1.13,1.33,1.23V55ZM93.2,48.66l-1.14,3h2.22Z"/><path class="cls-1" d="M101,47.27a3.4,3.4,0,0,1,2,.51,2,2,0,0,1,.78,1.69,2.46,2.46,0,0,1-2.61,2.43l-.32,0-.82-.21v1.85c0,1,.09,1,1.18,1.14V55H97.91v-.33c1-.11,1.07-.18,1.07-1.17V48.78c0-1.06-.13-1.08-1.07-1.17v-.34Zm-1,4a2.22,2.22,0,0,0,.87.15,1.86,1.86,0,0,0-.07-3.72,1.09,1.09,0,0,0-.67.14c-.09.08-.13.22-.13.55Z"/><path class="cls-1" d="M108.1,55v-.33c.77-.1.86-.22.7-.67s-.39-1.05-.64-1.8h-2.57c-.19.53-.37,1-.53,1.48-.26.77-.1.87.88,1V55h-2.75v-.33c.75-.1.94-.18,1.36-1.25L107,47.18l.38-.07c.75,2,1.57,4.27,2.32,6.32.38,1,.49,1.13,1.33,1.23V55Zm-1.19-6.33c-.38,1-.78,2.1-1.14,3H108Z"/><path class="cls-1" d="M119.83,47.61c-.76.08-1,.2-1,.74,0,.38,0,.88,0,2V55.1h-.46l-5.08-6.21v3c0,1.07,0,1.61.06,1.95,0,.61.32.79,1.18.86V55h-2.89v-.33c.74-.06,1-.24,1.07-.82,0-.38.06-.92.06-2v-3a1,1,0,0,0-.24-.79c-.22-.29-.47-.37-1-.42v-.34h1.78l5,6v-2.9a18.82,18.82,0,0,0-.06-2c0-.54-.31-.71-1.26-.76v-.34h2.94Z"/><path class="cls-1" d="M123.44,47.27h3.16v.34c-.92.08-1.09.16-1.09,1.22v2a1.63,1.63,0,0,0,.86-.55c.66-.63,1.46-1.43,2-2,.36-.4.32-.56-.19-.63l-.33,0v-.34h2.89v.34a2.52,2.52,0,0,0-2,1l-2,2c.9,1.07,2.22,2.59,2.84,3.25a1.85,1.85,0,0,0,1.49.83V55h-1.9c-.91-1-1.87-2.18-2.95-3.44a.72.72,0,0,0-.67-.35v2.26c0,1,.11,1.11,1.09,1.2V55h-3.16v-.33c1-.09,1.06-.17,1.06-1.2V48.83c0-1.07-.08-1.15-1.06-1.22Z"/><path class="cls-1" d="M131.47,47.27h3.17v.34c-.92.08-1.09.16-1.09,1.22v2a1.58,1.58,0,0,0,.85-.55c.67-.63,1.46-1.43,2-2,.36-.4.32-.56-.19-.63l-.33,0v-.34h2.88v.34a2.49,2.49,0,0,0-2,1l-2,2c.9,1.07,2.22,2.59,2.83,3.25a1.87,1.87,0,0,0,1.5.83V55h-1.9c-.91-1-1.88-2.18-3-3.44a.7.7,0,0,0-.66-.35v2.26c0,1,.11,1.11,1.09,1.2V55h-3.17v-.33c1-.09,1.07-.17,1.07-1.2V48.83c0-1.07-.08-1.15-1.07-1.22Z"/><path class="cls-1" d="M145.35,32.79h-1.23v-.71h3.32v.71h-1.22v3.32h-.87Z"/><path class="cls-1" d="M151.36,34.6c0-.69,0-1.46,0-1.91h0c-.19.82-.59,2.16-1,3.42h-.74c-.3-1.1-.71-2.63-.89-3.44h0c0,.48.05,1.31.05,2v1.44H148v-4h1.3c.31,1.05.66,2.37.78,3h0c.1-.53.54-1.94.88-3h1.25v4h-.84Z"/><rect class="cls-1" x="78.41" y="32.83" width="63.89" height="2.73"/><path class="cls-1" d="M31.16,44.73A18.27,18.27,0,1,1,49.43,26.46,18.3,18.3,0,0,1,31.16,44.73Zm0-35.18A16.91,16.91,0,1,0,48.07,26.46,16.93,16.93,0,0,0,31.16,9.55Z"/><path class="cls-1" d="M24.56,36.25a10.91,10.91,0,0,1-6.25-7.63c-1-5.71,3.49-12.15,10.62-13.14,0,2.2,0,4.39-.05,6.59A5,5,0,0,0,25,27.7a4.82,4.82,0,0,0,3.88,3.53c0,2.07-.09,4.14-.13,6.2A12.87,12.87,0,0,1,24.56,36.25Z"/><path class="cls-1" d="M31.06,22.39a9.9,9.9,0,0,1,1.68-2.72,10.91,10.91,0,0,1,8.53-3.56c0,2.07,0,4.13.07,6.19a5.61,5.61,0,0,0-3.15,1.38,5.68,5.68,0,0,0-1.79,3.45l-6.15,0A10.91,10.91,0,0,1,31.06,22.39Z"/><path class="cls-1" d="M31.11,37.56H29.54A11.3,11.3,0,0,1,33,30.14a11.11,11.11,0,0,1,6.48-2.94l.47-.05v6.2a4.61,4.61,0,0,0-2.86,1.31,4.54,4.54,0,0,0-1.3,2.88Z"/><path class="cls-1" d="M80.86,23.25l.45-1.9h4.44c.18-.63.37-1.25.55-1.88l-7.92,0-.3-.3-2.25,2.16.48.07c-.76,3-1.51,6-2.27,9l9,.27c.24-.73.48-1.46.73-2.19l-4.46,0c.3-.91.59-1.83.89-2.74l4.31,0,.37-1.63-4.29.05Z"/><path class="cls-1" d="M71.09,29.39a8.25,8.25,0,0,0,2.33-6A7.61,7.61,0,0,0,72.36,20c-.14-.23-.26-.42-.37-.57l-9.82.06-.88-.92-3.78,3.36c.31.33.62.66.94,1q-2,7.92-4,15.84v.13h.33l13.8.11a7.78,7.78,0,0,0,2.2-2.8,8.09,8.09,0,0,0,.29-5.88C71.1,30,71.09,29.69,71.09,29.39Zm-4.44,3.69a14.05,14.05,0,0,1-1.05,2.74l-.12.21L62,36l1.21-5.42,3.91.11A13.24,13.24,0,0,1,66.65,33.08Zm2.56-8.44a14.05,14.05,0,0,1-1,2.74l-.11.21-3.53-.08c.39-1.71.83-3.71,1.21-5.42l3.92.11A14.25,14.25,0,0,1,69.21,24.64Z"/><path class="cls-1" d="M98.23,20.55l.32-1.16,2.11.06-2.82,11h-3.9l-3.28-6.07L88.9,30.64l-2.16,0c.8-3,1.61-6,2.42-9l-.76-.84,2-1.8,1,.73A3.06,3.06,0,0,1,93,20c1.08.62,1.26,1.76,2.14,3.74a24.21,24.21,0,0,0,1.47,2.75Z"/><path class="cls-1" d="M140,20.47c.1-.38.2-.77.29-1.15l2,.06q-1.31,5.46-2.62,10.91h-3.62l-3-6.05-1.63,6.3-2,0c.74-3,1.49-6,2.24-9l-.7-.84,1.85-1.79.9.73a2.68,2.68,0,0,1,1.5.37c1,.61,1.17,1.75,2,3.72a24.11,24.11,0,0,0,1.36,2.74Q139.27,23.44,140,20.47Z"/><path class="cls-1" d="M108.76,21.89l-1.28.88.72-3.38-2.38,0-.67-.76-2,1.91.62.6q-1.17,4.74-2.36,9.48l3.78,0q.89-2.8,1.76-5.61l2.39,5.65,3.86-.06-2.74-7.23,5.11-4-3.06-.08Z"/><path class="cls-1" d="M125.41,21.26c-.14-.65-.29-1.31-.43-2l-2.91.05-.79-.74-2,1.9.56.55c0,.36.07.72.1,1.08l-5,8.29h2.2c.39-.76.79-1.51,1.19-2.27l4.74.08c.18.73.37,1.46.56,2.19l3.78-.08Q126.41,25.81,125.41,21.26Zm-6,5.43,1.17-2.21.84-1.59,1.23,3.84Z"/></svg>