<svg id="Layer_1" data-name="Layer 1" xmlns="http://www.w3.org/2000/svg" viewBox="0 0 164 68"><defs><style>.cls-1{fill:#010101;}.cls-2{fill:#020304;}</style></defs><path class="cls-1" d="M32.57,17.21h7.24c4,0,5.53,2.49,5.53,5.06a4.67,4.67,0,0,1-2.11,4.29,4.72,4.72,0,0,1,2.59,4.51A5.57,5.57,0,0,1,40.06,37H32.57ZM39.4,25a2.1,2.1,0,0,0,2.41-2.3,2.06,2.06,0,0,0-2.3-2.2H36.09V25Zm-3.31,8.68h3.23c1.94,0,2.82-1,2.82-2.76,0-1.59-.86-2.61-2.84-2.61H36.09Z"/><path class="cls-1" d="M48.81,17.21H52.4V33.49h8.26L60.25,37H48.81Z"/><path class="cls-1" d="M66,17.21V29c0,3.8,1.63,4.92,3.42,4.92,2,0,3.34-1.33,3.34-4.92V17.21h3.59V28.79c0,6.76-3.32,8.49-7,8.49s-7-1.8-7-8.41V17.21Z"/><path class="cls-1" d="M94.17,30.9c-.66,3.69-3,6.38-7.15,6.38-5.26,0-7.75-4.44-7.75-10.07,0-5.43,2.57-10.29,7.92-10.29,4.42,0,6.56,3.09,7,6.4H90.57c-.35-1.52-1.24-3-3.49-3-3,0-4.1,3.17-4.1,6.77,0,3.35,1,6.87,4.19,6.87,2.34,0,3.08-1.87,3.39-3Z"/><path class="cls-1" d="M97.39,17.21H101v7.72h6.67V17.21h3.59V37h-3.59V28.43H101V37H97.39Z"/><path class="cls-1" d="M126.61,28.46h-7.93v5h8.75L127,37H115.2V17.21H127v3.51h-8.28V25h7.93Z"/><path class="cls-1" d="M133.57,29.08V37h-3.5V17.21h7.29a5.15,5.15,0,0,1,5.56,5.43c0,2.66-1.21,4.09-2.41,4.68.82.36,2.06,1.39,2.06,4.93v1a18.7,18.7,0,0,0,.24,3.78h-3.4a16.66,16.66,0,0,1-.34-4.45v-.29c0-2.16-.46-3.18-3.14-3.18Zm0-3.41h3c2,0,2.72-.89,2.72-2.55a2.3,2.3,0,0,0-2.63-2.51h-3.1Z"/><path class="cls-1" d="M83.67,58l-1.6-7h1.45c.59,3.22.86,4.65.93,5.42h0c.24-1.29.85-3.73,1.22-5.42H86.9c.32,1.34,1,4.06,1.16,5.35h0c.48-1.53,1.19-4.26,1.49-5.35h1.76l-2.21,7H87.33c-.33-1.55-.89-3.82-1.11-5h0c-.23,1.25-.79,3.61-1.13,5Z"/><path class="cls-1" d="M92,56.42,91.52,58h-1.7L92,51H94l2.23,7H94.83l-.52-1.62Zm2-1.24c-.45-1.48-.73-2.43-.88-3.06h0c-.16.69-.47,1.79-.83,3.06Z"/><polygon class="cls-1" points="106.2 51.02 106.2 52.27 104.13 52.27 104.13 58.03 102.64 58.03 102.64 52.27 98.88 52.27 98.88 58.03 97.51 58.03 97.51 52.27 95.61 52.27 95.61 51.02 106.2 51.02"/><path class="cls-1" d="M108.28,55.73a1.19,1.19,0,0,0,1.33,1c.72,0,1-.32,1-.83s-.31-.82-1.38-1.1c-1.72-.45-2.14-1.14-2.14-2.09a2,2,0,0,1,2.31-2,2.17,2.17,0,0,1,2.43,2H110.5a1,1,0,0,0-1.1-.9c-.55,0-.88.25-.88.75s.27.68,1.28,1c1.83.48,2.24,1.24,2.24,2.23,0,1.28-.87,2.15-2.54,2.15a2.33,2.33,0,0,1-2.59-2.15Z"/><path class="cls-1" d="M74.63,56,73.54,58h-1l3.69-7.14h1.16L78.65,58h-1L77.31,56ZM77.18,55c-.31-1.83-.47-2.81-.52-3.3h0c-.21.52-.78,1.68-1.6,3.3Z"/><path class="cls-1" d="M117.2,50.88h2.69a1.63,1.63,0,0,1,1.84,1.7,1.66,1.66,0,0,1-1.21,1.7,1.55,1.55,0,0,1,.92,1.49A2.22,2.22,0,0,1,118.91,58h-3ZM117,57.11h1.87c.8,0,1.54-.32,1.54-1.31,0-.69-.43-1.11-1.3-1.11h-1.67Zm2.32-3.32c.85,0,1.38-.26,1.38-1.08,0-.58-.34-.92-1.09-.92H118l-.36,2Z"/><path class="cls-1" d="M122.83,54.4c.09-.5.2-1,.26-1.51H124c0,.17-.09.69-.17,1.13a1.84,1.84,0,0,1,1.76-1.23l-.22,1.07c-1,0-1.62.71-1.89,2.18l-.35,2h-.92Z"/><path class="cls-1" d="M129.65,56.53c-.14.76-.22,1.25-.24,1.49h-.91a5.91,5.91,0,0,1,.11-.75,1.77,1.77,0,0,1-1.69.89,1.4,1.4,0,0,1-1.51-1.48c0-1.55,1.47-1.76,2.37-1.86.35,0,.94,0,1.27,0l0-.15c.1-.55-.06-1.07-1-1.07-.7,0-1,.27-1.18.78H126a1.89,1.89,0,0,1,2.15-1.58c1.66,0,2,1,1.8,2Zm-.73-1c-.46,0-.82,0-1.15.06-.68.07-1.41.24-1.41,1,0,.44.3.73.85.73,1,0,1.46-.58,1.69-1.68Z"/><path class="cls-1" d="M131.38,54.19c.08-.44.16-.92.22-1.3h.9c0,.26-.08.61-.13.88a1.82,1.82,0,0,1,1.64-1c1,0,1.61.63,1.32,2.25l-.55,3h-.92l.54-3c.14-.78,0-1.39-.78-1.39s-1.38.82-1.59,2L131.6,58h-.91Z"/><path class="cls-1" d="M141.73,50.46l-1.12,6.11c-.08.48-.17,1-.25,1.45h-.87a6.8,6.8,0,0,1,.09-.68,1.63,1.63,0,0,1-1.56.82c-1.15,0-1.8-.95-1.8-2.3,0-1.62,1-3.11,2.51-3.11a1.46,1.46,0,0,1,1.51.88l.57-3.17Zm-4.56,5.31c0,.9.4,1.5,1.15,1.5.94,0,1.44-.74,1.6-1.69.23-1.28-.18-1.94-1.16-1.94S137.17,54.66,137.17,55.77Z"/><path class="cls-2" d="M144.37,20.35a2.21,2.21,0,1,1,2.21,2.28,2.21,2.21,0,0,1-2.21-2.28m2.2,2.73a2.73,2.73,0,1,0-2.77-2.73,2.73,2.73,0,0,0,2.77,2.73M146,20.57h.55l.83,1.36h.54L147,20.54a.81.81,0,0,0,.81-.86c0-.62-.37-.9-1.11-.9h-1.2v3.14H146Zm0-.41v-1h.66c.33,0,.7.08.7.46s-.37.51-.78.51Z"/><circle class="cls-2" cx="68.36" cy="11.95" r="1.99"/><circle class="cls-2" cx="73.21" cy="11.95" r="1.99"/></svg>