<svg id="Layer_1" data-name="Layer 1" xmlns="http://www.w3.org/2000/svg" viewBox="0 0 164 68"><defs><style>.cls-1{fill:#020304;}.cls-2{fill:#fff;}.cls-3{fill:#010101;}</style></defs><path class="cls-1" d="M152.15,48.72a1,1,0,1,1,1,1.07,1,1,0,0,1-1-1.07m1,1.27a1.27,1.27,0,0,0,1.29-1.27A1.29,1.29,0,1,0,153.17,50m-.26-1.16h.25l.39.63h.25l-.42-.64a.38.38,0,0,0,.38-.41c0-.28-.17-.41-.52-.41h-.55v1.46h.22Zm0-.19v-.45h.3c.15,0,.32,0,.32.21s-.17.24-.36.24Z"/><path class="cls-1" d="M140,50.14A15.15,15.15,0,1,0,124.89,35,15.16,15.16,0,0,0,140,50.14"/><path class="cls-2" d="M140,50.26A15.28,15.28,0,1,1,155.32,35,15.29,15.29,0,0,1,140,50.26M140,20a15,15,0,1,0,15,15,15.05,15.05,0,0,0-15-15"/><path class="cls-2" d="M134.52,22.87a.61.61,0,0,0,.58-.64.62.62,0,0,0-.58-.65.61.61,0,0,0-.58.65.6.6,0,0,0,.58.64"/><path class="cls-2" d="M133.2,23.84a.61.61,0,0,0,.58-.64.58.58,0,1,0-1.16,0,.61.61,0,0,0,.58.64"/><path class="cls-2" d="M131.73,25a.65.65,0,0,0,0-1.3.65.65,0,0,0,0,1.3"/><path class="cls-2" d="M130.38,26.36a.65.65,0,0,0,0-1.3.65.65,0,0,0,0,1.3"/><path class="cls-2" d="M129.14,27.85a.61.61,0,0,0,.58-.64.58.58,0,1,0-.58.64"/><path class="cls-2" d="M128.05,29.5a.65.65,0,1,0-.58-.65.61.61,0,0,0,.58.65"/><path class="cls-2" d="M127.16,31.33a.62.62,0,0,0,.58-.65.62.62,0,0,0-.58-.65.62.62,0,0,0-.58.65.61.61,0,0,0,.58.65"/><path class="cls-2" d="M126.52,33.66a.65.65,0,1,0-.58-.64.61.61,0,0,0,.58.64"/><path class="cls-2" d="M135.52,23.82a.62.62,0,0,0,.58-.65.63.63,0,0,0-.58-.65.61.61,0,0,0-.58.65.62.62,0,0,0,.58.65"/><path class="cls-2" d="M134.06,25a.62.62,0,0,0,.58-.65.63.63,0,0,0-.58-.65.65.65,0,0,0,0,1.3"/><path class="cls-2" d="M135.22,26.11a.65.65,0,0,0,0-1.29.6.6,0,0,0-.58.64.62.62,0,0,0,.58.65"/><path class="cls-2" d="M136.88,26.78a.61.61,0,0,0,.58-.64.58.58,0,1,0-1.16,0,.6.6,0,0,0,.58.64"/><path class="cls-2" d="M138.57,27.6a.62.62,0,0,0,.58-.65A.59.59,0,1,0,138,27a.63.63,0,0,0,.59.65"/><path class="cls-2" d="M136.52,24.69a.61.61,0,0,0,.58-.64.58.58,0,1,0-1.16,0,.61.61,0,0,0,.58.64"/><path class="cls-2" d="M137.8,25.37a.62.62,0,0,0,.58-.65.59.59,0,1,0-1.17,0,.63.63,0,0,0,.59.65"/><path class="cls-2" d="M139.2,25.74a.61.61,0,0,0,.58-.64.58.58,0,1,0-1.16,0,.61.61,0,0,0,.58.64"/><path class="cls-2" d="M143.62,24.69a.61.61,0,0,0,.58-.64.58.58,0,1,0-1.16,0,.61.61,0,0,0,.58.64"/><path class="cls-2" d="M144.74,23.82a.65.65,0,0,0,0-1.3.65.65,0,0,0,0,1.3"/><path class="cls-2" d="M145.71,22.88a.62.62,0,0,0,.58-.65.62.62,0,0,0-.58-.65.61.61,0,0,0-.58.65.62.62,0,0,0,.58.65"/><path class="cls-2" d="M144.91,26.11a.65.65,0,0,0,0-1.29.6.6,0,0,0-.58.64.62.62,0,0,0,.58.65"/><path class="cls-2" d="M146.08,25a.65.65,0,0,0,0-1.29.61.61,0,0,0-.58.64.62.62,0,0,0,.58.65"/><path class="cls-2" d="M146.93,23.86a.65.65,0,1,0-.58-.64.61.61,0,0,0,.58.64"/><path class="cls-2" d="M146,27.71a.62.62,0,0,0,.58-.65.58.58,0,1,0-1.16,0,.62.62,0,0,0,.58.65"/><path class="cls-2" d="M147.38,26.4a.62.62,0,0,0,.58-.65.58.58,0,1,0-1.16,0,.61.61,0,0,0,.58.65"/><path class="cls-2" d="M148.4,25.05a.61.61,0,0,0,.58-.64.62.62,0,0,0-.58-.65.65.65,0,0,0,0,1.29"/><path class="cls-2" d="M146.86,29.44a.62.62,0,0,0,.58-.65.58.58,0,1,0-1.16,0,.62.62,0,0,0,.58.65"/><path class="cls-2" d="M148.52,27.94a.61.61,0,0,0,.58-.64.62.62,0,0,0-.58-.65.65.65,0,0,0,0,1.29"/><path class="cls-2" d="M149.73,26.39a.65.65,0,1,0-.58-.65.61.61,0,0,0,.58.65"/><path class="cls-2" d="M147.54,31.31a.65.65,0,0,0,0-1.29.61.61,0,0,0-.58.64.62.62,0,0,0,.58.65"/><path class="cls-2" d="M149.5,29.64a.62.62,0,0,0,.58-.65.61.61,0,0,0-.58-.65.62.62,0,0,0-.58.65.62.62,0,0,0,.58.65"/><path class="cls-2" d="M151,27.9a.62.62,0,0,0,.58-.65.58.58,0,1,0-1.16,0,.62.62,0,0,0,.58.65"/><path class="cls-2" d="M147.94,33.64a.61.61,0,0,0,.58-.64.62.62,0,0,0-.58-.65.65.65,0,0,0,0,1.29"/><path class="cls-2" d="M150.29,31.52a.61.61,0,0,0,.58-.64.58.58,0,1,0-1.16,0,.61.61,0,0,0,.58.64"/><path class="cls-2" d="M132.75,26.37a.62.62,0,0,0,.59-.64.63.63,0,0,0-.59-.65.65.65,0,0,0,0,1.29"/><path class="cls-2" d="M152.06,29.58a.62.62,0,0,0,.58-.65.61.61,0,0,0-.58-.65.65.65,0,0,0,0,1.3"/><path class="cls-2" d="M133.26,29.41a.62.62,0,0,0,.58-.65.58.58,0,1,0-.58.65"/><path class="cls-2" d="M153.49,33.66a.61.61,0,0,0,.58-.64.58.58,0,1,0-.58.64"/><path class="cls-2" d="M150.7,33.64a.61.61,0,0,0,.58-.64.58.58,0,1,0-1.16,0,.61.61,0,0,0,.58.64"/><path class="cls-2" d="M131.6,27.9a.65.65,0,0,0,0-1.29.61.61,0,0,0-.58.64.62.62,0,0,0,.58.65"/><path class="cls-2" d="M130.61,29.59a.62.62,0,0,0,.58-.65.62.62,0,0,0-.58-.65.65.65,0,0,0,0,1.3"/><path class="cls-2" d="M129.81,31.47a.62.62,0,0,0,.58-.65.62.62,0,0,0-.58-.65.65.65,0,0,0,0,1.3"/><path class="cls-2" d="M132.56,31.27a.61.61,0,0,0,.58-.64.58.58,0,1,0-1.16,0,.61.61,0,0,0,.58.64"/><path class="cls-2" d="M135.1,31.84a.65.65,0,1,0-.58-.65.61.61,0,0,0,.58.65"/><path class="cls-2" d="M137.7,33.66a.61.61,0,0,0,.58-.64.58.58,0,1,0-.58.64"/><path class="cls-2" d="M134.91,33.66a.65.65,0,1,0-.58-.65.62.62,0,0,0,.58.65"/><path class="cls-2" d="M132.15,33.65a.62.62,0,0,0,.58-.65.58.58,0,1,0-1.16,0,.62.62,0,0,0,.58.65"/><path class="cls-2" d="M129.39,33.64A.61.61,0,0,0,130,33a.62.62,0,0,0-.58-.65.62.62,0,0,0-.58.65.61.61,0,0,0,.58.64"/><path class="cls-2" d="M153,31.38a.65.65,0,1,0-.58-.64.61.61,0,0,0,.58.64"/><path class="cls-2" d="M134.14,27.7a.65.65,0,0,0,0-1.3.65.65,0,0,0,0,1.3"/><path class="cls-2" d="M135.55,30a.62.62,0,0,0,.58-.65.58.58,0,1,0-.58.65"/><path class="cls-2" d="M136.1,28.43a.62.62,0,0,0,.58-.65.61.61,0,0,0-.58-.65.65.65,0,0,0,0,1.3"/><path class="cls-2" d="M143.26,26.78a.65.65,0,0,1,0-1.3.65.65,0,0,1,0,1.3"/><path class="cls-2" d="M142.35,25.36a.61.61,0,0,1-.58-.65.58.58,0,1,1,.58.65"/><path class="cls-2" d="M145,31.84a.62.62,0,0,0,.58-.65.61.61,0,0,0-.58-.65.65.65,0,0,0,0,1.3"/><path class="cls-2" d="M145.23,33.65a.65.65,0,0,1,0-1.29.61.61,0,0,1,.58.64.62.62,0,0,1-.58.65"/><path class="cls-2" d="M144.59,30a.65.65,0,0,1,0-1.29.61.61,0,0,1,.58.64.62.62,0,0,1-.58.65"/><path class="cls-2" d="M144,28.42a.65.65,0,0,0,0-1.29.61.61,0,0,0-.58.64.62.62,0,0,0,.58.65"/><path class="cls-2" d="M138.09,29.73a.61.61,0,0,0,.58-.64.62.62,0,0,0-.58-.65.61.61,0,0,0-.58.65.6.6,0,0,0,.58.64"/><path class="cls-2" d="M137.8,31.72a.62.62,0,0,0,.58-.65.59.59,0,1,0-1.17,0,.62.62,0,0,0,.59.65"/><path class="cls-2" d="M141.6,27.6a.62.62,0,0,0,.58-.65.58.58,0,1,0-.58.65"/><path class="cls-2" d="M141,25.73a.65.65,0,0,1,0-1.29.65.65,0,0,1,0,1.29"/><path class="cls-2" d="M142.46,33.66a.61.61,0,0,1-.58-.65.62.62,0,0,1,.58-.65.65.65,0,0,1,0,1.3"/><path class="cls-2" d="M142.07,29.73a.65.65,0,1,1,.58-.65.62.62,0,0,1-.58.65"/><path class="cls-2" d="M142.37,31.71a.61.61,0,0,1-.58-.64.62.62,0,0,1,.58-.65.62.62,0,0,1,.58.65.61.61,0,0,1-.58.64"/><path class="cls-2" d="M127.52,35.78h3c1.43,0,1.74.8,1.74,1.36a1.11,1.11,0,0,1-.68,1.06,1.33,1.33,0,0,1,.94,1.36,1.73,1.73,0,0,1-1.9,1.65h-3.08V35.78Zm1.68,4.13h1c.35,0,.66-.09.66-.52s-.19-.49-.59-.49H129.2Zm0-2h.88c.35,0,.57-.1.57-.44s-.22-.38-.57-.38h-.88Z"/><path class="cls-2" d="M132.55,37.26H134v.63h0a1.17,1.17,0,0,1,1.12-.74,2.22,2.22,0,0,1,.44.06v1.24a2.33,2.33,0,0,0-.6,0c-.59,0-.91.35-.91,1.19V41.2h-1.51V37.26Z"/><path class="cls-2" d="M139.08,40.32a1.56,1.56,0,0,0,.19.88h-1.54a1.15,1.15,0,0,1-.06-.37h0a1.57,1.57,0,0,1-1.27.47c-.76,0-1.39-.37-1.39-1.2,0-1.24,1.46-1.2,2.23-1.34.21,0,.41-.1.41-.35s-.25-.37-.49-.37c-.47,0-.56.24-.57.41h-1.4c.05-1.11,1.1-1.3,2-1.3,1.89,0,1.87.78,1.87,1.55Zm-1.44-.88a3,3,0,0,1-.6.19c-.33.07-.5.16-.5.42a.43.43,0,0,0,.47.37.6.6,0,0,0,.63-.62Z"/><path class="cls-2" d="M143.4,41.21h-1.46v-.43h0a1.23,1.23,0,0,1-1.16.53c-1.12,0-1.66-1.11-1.66-2.1s.35-2.05,1.68-2.05a1.27,1.27,0,0,1,1.08.53h0V35.77h1.51v5.44Zm-2.12-3c-.55,0-.66.51-.66,1s.12,1,.66,1,.66-.5.66-1-.12-1-.66-1"/><rect class="cls-2" x="143.61" y="35.78" width="1.51" height="5.43"/><path class="cls-2" d="M146.56,39.57a.79.79,0,0,0,1.4.49h1.4a2.19,2.19,0,1,1-2.16-2.9c1.57,0,2.24.88,2.24,2.42h-2.88Zm1.44-.78a.65.65,0,0,0-.66-.66.72.72,0,0,0-.78.66Z"/><path class="cls-2" d="M152.11,40.9a4,4,0,0,1-.49,1.1,1.87,1.87,0,0,1-1.59.49h-.69V41.28h.35a1.35,1.35,0,0,0,.46,0,.3.3,0,0,0,.15-.3c0-.19-.58-1.65-.66-1.87L149,37.26h1.62l.63,2.26h0l.65-2.26h1.55Z"/><path class="cls-3" d="M7.05,20H17.57c5.1,0,7.35,2.75,7.35,6a5.14,5.14,0,0,1-2.88,5,5.37,5.37,0,0,1,3.46,5.2c0,3.77-2.58,6.85-7.86,6.85H7.05Zm9.47,8.86c1.71,0,2.4-.95,2.4-2.2,0-1.42-1-2.12-2.44-2.12H13.07v4.32Zm-3.45,9.6h3.16c2,0,2.91-1,2.91-2.6,0-1.45-.82-2.47-2.79-2.47H13.07Z"/><path class="cls-3" d="M28.52,30.48c0-1.67,0-3.46,0-5h5.85c.07.54.14,2.08.14,2.84a5,5,0,0,1,5-3.26V31c-3.39-.16-4.92.68-4.92,4.78V43h-6Z"/><path class="cls-3" d="M56.14,37.77c0,2,.09,4.6.19,5.19H50.81a7.52,7.52,0,0,1-.25-1.61c-.77,1.08-2,2-4.54,2a5.24,5.24,0,0,1-5.56-5.59c0-4.11,3-5.89,7.95-5.89h2V31c0-1.13-.37-1.95-1.81-1.95s-1.71.68-1.85,1.81H41.19C41.41,27.89,43,25,48.72,25c5.28,0,7.42,2.23,7.42,6.45Zm-5.76-2.58H49.06c-2.07,0-2.75.79-2.75,2.08a1.68,1.68,0,0,0,1.76,1.86c2,0,2.31-1.52,2.31-3.4Z"/><path class="cls-3" d="M75.6,18.78V37.67c0,1.76,0,3.78,0,5.29h-5.8c-.09-.51-.17-1.24-.2-1.67-.8,1.28-2.07,2.1-4.38,2.1-4.22,0-6.5-3.94-6.5-9.07C58.76,29,61.39,25,65.92,25c1.9,0,3.25.63,3.7,1.45V18.78ZM64.89,34.16c0,3.07.83,4.65,2.5,4.65,2.26,0,2.47-2.23,2.47-4.62,0-2.94-.25-4.63-2.4-4.63C65.78,29.56,64.89,31.05,64.89,34.16Z"/><path class="cls-3" d="M79,43V18.78h6V43Z"/><path class="cls-3" d="M93.66,35.5c0,1.76.62,3.53,2.39,3.53a1.91,1.91,0,0,0,2.12-1.58h5.88c-.58,2.33-2.41,5.94-8.1,5.94-6.08,0-8.32-4.46-8.32-9,0-5.27,2.57-9.32,8.43-9.32,6.23,0,8.14,4.59,8.14,9a11.69,11.69,0,0,1-.07,1.51Zm4.54-3.4c0-1.64-.45-3-2.17-3s-2.21,1.28-2.31,3Z"/><path class="cls-3" d="M111.38,25.46c1.05,4.44,2.22,10,2.44,11.9h.11c.33-2.29,1-6,2.32-11.9h5.9l-4.78,16.48c-1.64,5.63-2.92,7.77-8,7.77-.39,0-1.59-.06-2.47-.16V44.88c.21,0,.73.07,1.13.07a2.28,2.28,0,0,0,2.57-1.72l-5.72-17.77Z"/></svg>