<svg id="Layer_1" data-name="Layer 1" xmlns="http://www.w3.org/2000/svg" viewBox="0 0 164 68"><defs><style>.cls-1{fill:#010101;}</style></defs><polygon class="cls-1" points="43.55 26.69 38.09 26.69 38.09 22.65 34.07 22.65 34.07 33.42 38.09 33.42 38.09 29.22 43.55 29.22 43.55 33.42 47.57 33.42 47.57 22.65 43.55 22.65 43.55 26.69"/><path class="cls-1" d="M54.15,21.64,48.08,33.32h4L53.13,31h5.81L60,33.32h4L58,21.64Zm.12,7L56,24.88l1.76,3.74Z"/><path class="cls-1" d="M77.4,28.33A3.46,3.46,0,0,0,78.22,26a3.63,3.63,0,0,0-1.79-3.19,9.45,9.45,0,0,0-5.16-1.17H64.45V33.46h4.33V30.32h2.34l2.77,3.14h4.64l-3.31-3.72A5,5,0,0,0,77.4,28.33Zm-4.2-3.59a1.54,1.54,0,0,1,0,2.54,3.65,3.65,0,0,1-2,.46H68.78V24.28h2.38A3.65,3.65,0,0,1,73.2,24.74Z"/><polygon class="cls-1" points="83.26 22.36 79.13 22.36 79.13 33.42 90.21 33.42 90.21 30.94 83.26 30.94 83.26 22.36"/><path class="cls-1" d="M104.36,22A7.16,7.16,0,0,0,102,20.32a8.13,8.13,0,0,0-6.08,0A7.08,7.08,0,0,0,93.46,22a8.1,8.1,0,0,0-1.6,2.56,8.74,8.74,0,0,0-.57,3.19A8.91,8.91,0,0,0,91.86,31a8.14,8.14,0,0,0,1.6,2.57,7,7,0,0,0,2.42,1.69,8,8,0,0,0,6.07,0,7.27,7.27,0,0,0,2.42-1.68A7.79,7.79,0,0,0,106,31a9,9,0,0,0,.57-3.25,8.53,8.53,0,0,0-.58-3.21A7.75,7.75,0,0,0,104.36,22Zm-2,7.61a4.25,4.25,0,0,1-.79,1.4,3.41,3.41,0,0,1-1.17.9,3.49,3.49,0,0,1-4.11-.9,4.06,4.06,0,0,1-.78-1.4,5.77,5.77,0,0,1-.27-1.83A5.71,5.71,0,0,1,95.48,26a4.06,4.06,0,0,1,.78-1.4,3.57,3.57,0,0,1,1.19-.9,3.43,3.43,0,0,1,4.09.9,4.25,4.25,0,0,1,.79,1.4,5.43,5.43,0,0,1,.28,1.82A5.5,5.5,0,0,1,102.33,29.62Z"/><polygon class="cls-1" points="120.24 24.9 124.63 24.9 124.63 33.69 128.67 33.69 128.67 24.9 133.04 24.9 133.04 22.36 120.24 22.36 120.24 24.9"/><polygon class="cls-1" points="107.36 24.9 111.72 24.9 111.72 33.69 115.74 33.69 115.74 24.9 120.08 24.9 120.08 22.36 107.36 22.36 107.36 24.9"/><polygon class="cls-1" points="138.12 31.11 138.12 29 144.84 29 144.84 26.58 138.12 26.58 138.12 24.64 145.75 24.64 145.75 22.1 133.9 22.1 133.9 33.66 146.03 33.66 146.03 31.11 138.12 31.11"/><path class="cls-1" d="M20.9,37.93h2.38a1.81,1.81,0,0,1,2,1.78,1.83,1.83,0,0,1-2.08,1.83H22.14v2.15H20.9Zm1.24,2.62h.95c.58,0,1-.23,1-.81s-.43-.82-1-.82h-1Z"/><path class="cls-1" d="M27.52,37.93v5.76H26.28V37.93Z"/><path class="cls-1" d="M28.89,37.93h2.38a1.82,1.82,0,1,1,0,3.61H30.13v2.15H28.89Zm1.24,2.62h.95c.58,0,1-.23,1-.81s-.43-.82-1-.82h-1Z"/><path class="cls-1" d="M38.23,41.2H35.48v1.47h3l-.15,1H34.27V37.93h4.08v1H35.48v1.23h2.75Z"/><path class="cls-1" d="M42.52,42.36l-.45,1.33H40.85l1.95-5.76h1.57l2,5.76H45.1l-.48-1.33Zm1.83-1c-.4-1.22-.66-2-.8-2.51h0c-.14.57-.43,1.47-.76,2.51Z"/><path class="cls-1" d="M47.18,43.69V37.93h1.54c.72,1.29,2.05,3.62,2.31,4.25h0c-.06-.6-.06-1.6-.06-2.54V37.93h1.12v5.76H50.65c-.62-1.13-2.09-3.81-2.37-4.47h0c0,.5.06,1.68.06,2.72v1.75Z"/><path class="cls-1" d="M53.48,37.93h2.28a2.61,2.61,0,0,1,2.77,2.81,2.74,2.74,0,0,1-2.82,2.95H53.48Zm1.24,4.75h.94c1.1,0,1.59-.82,1.59-1.94a1.58,1.58,0,0,0-1.59-1.8h-.94Z"/><path class="cls-1" d="M61.63,37.93h4v1h-2.8v1.41h2.62v1H62.85v2.31H61.63Z"/><path class="cls-1" d="M71.9,40.79a2.75,2.75,0,0,1-2.83,3,2.69,2.69,0,0,1-2.75-3,2.74,2.74,0,0,1,2.83-3A2.67,2.67,0,0,1,71.9,40.79Zm-4.29,0c0,1.13.49,2,1.51,2s1.5-.93,1.5-2-.45-1.94-1.52-1.94S67.61,39.66,67.61,40.78Z"/><path class="cls-1" d="M74.22,37.93v3.43c0,1.1.57,1.43,1.19,1.43s1.16-.39,1.16-1.43V37.93h1.25V41.3a2.42,2.42,0,1,1-4.84,0V37.93Z"/><path class="cls-1" d="M79.1,43.69V37.93h1.54c.72,1.29,2,3.62,2.31,4.25h0c-.06-.6-.06-1.6-.06-2.54V37.93H84v5.76H82.57c-.62-1.13-2.09-3.81-2.37-4.47h0c0,.5.06,1.68.06,2.72v1.75Z"/><path class="cls-1" d="M85.4,37.93h2.28a2.61,2.61,0,0,1,2.77,2.81,2.74,2.74,0,0,1-2.82,2.95H85.4Zm1.24,4.75h.94c1.1,0,1.59-.82,1.59-1.94a1.58,1.58,0,0,0-1.59-1.8h-.94Z"/><path class="cls-1" d="M92.75,41.38v2.31H91.54V37.93h2.53c1.25,0,1.93.69,1.93,1.58a1.37,1.37,0,0,1-.84,1.36c.28.11.72.4.72,1.43v.29a4.57,4.57,0,0,0,.08,1.1H94.78a4.18,4.18,0,0,1-.12-1.3v-.08c0-.63-.16-.93-1.09-.93Zm0-1h1c.68,0,.94-.26.94-.74s-.31-.73-.91-.73H92.75Z"/><path class="cls-1" d="M98.35,43.69v-2a.31.31,0,0,0,0-.18l-2-3.54h1.4c.45.87,1,2,1.31,2.65.25-.6.88-1.82,1.32-2.65h1.3l-2,3.52a.3.3,0,0,0,0,.18v2.06Z"/><path class="cls-1" d="M109.15,41.91a2.31,2.31,0,0,1-2.48,1.86c-1.83,0-2.69-1.29-2.69-2.93a2.71,2.71,0,0,1,2.75-3,2.2,2.2,0,0,1,2.41,1.86H107.9a1.13,1.13,0,0,0-1.21-.89c-1,0-1.42.93-1.42,2s.34,2,1.45,2a1.15,1.15,0,0,0,1.18-.88Z"/><path class="cls-1" d="M115.68,40.79a2.75,2.75,0,0,1-2.83,3,2.69,2.69,0,0,1-2.75-3,2.74,2.74,0,0,1,2.83-3A2.67,2.67,0,0,1,115.68,40.79Zm-4.29,0c0,1.13.49,2,1.51,2s1.5-.93,1.5-2-.45-1.94-1.52-1.94S111.39,39.66,111.39,40.78Z"/><path class="cls-1" d="M121.59,41.53c0-1,0-2.09,0-2.74h0c-.27,1.18-.84,3.09-1.4,4.9h-1.06c-.42-1.58-1-3.76-1.26-4.91h0c0,.67.07,1.86.07,2.84v2.07h-1.13V37.93h1.85c.45,1.5.95,3.39,1.12,4.25h0c.14-.76.78-2.77,1.26-4.25h1.78v5.76h-1.2Z"/><path class="cls-1" d="M124.16,37.93h2.38a1.81,1.81,0,0,1,2,1.78,1.83,1.83,0,0,1-2.08,1.83H125.4v2.15h-1.24Zm1.24,2.62h.95c.58,0,1-.23,1-.81s-.42-.82-1-.82h-1Z"/><path class="cls-1" d="M130.23,42.36l-.45,1.33h-1.22l1.95-5.76h1.57l2,5.76h-1.31l-.48-1.33Zm1.84-1c-.41-1.22-.67-2-.81-2.51h0c-.14.57-.43,1.47-.76,2.51Z"/><path class="cls-1" d="M134.89,43.69V37.93h1.54c.72,1.29,2,3.62,2.32,4.25h0c-.06-.6-.06-1.6-.06-2.54V37.93h1.13v5.76h-1.47c-.61-1.13-2.09-3.81-2.37-4.47h0c0,.5.06,1.68.06,2.72v1.75Z"/><path class="cls-1" d="M142.54,43.69v-2a.31.31,0,0,0,0-.18l-2-3.54h1.4c.45.87,1,2,1.31,2.65.25-.6.88-1.82,1.32-2.65h1.3l-2,3.52a.3.3,0,0,0-.05.18v2.06Z"/><path class="cls-1" d="M29.47,30a2.57,2.57,0,0,1-1,1.26,3.59,3.59,0,0,1-1.83.38,4.8,4.8,0,0,1-1.6-.25,3.46,3.46,0,0,1-1.25-.74A3.38,3.38,0,0,1,23,29.51a3.9,3.9,0,0,1,0-3,3.28,3.28,0,0,1,.81-1.16,3.32,3.32,0,0,1,1.25-.74,4.79,4.79,0,0,1,1.6-.26,4.29,4.29,0,0,1,1.83.39l.27.13a1.43,1.43,0,0,1,.51,2.06h3.6l-.12-1.29A4.38,4.38,0,0,0,30.15,22L30,22a9.52,9.52,0,0,0-3.52-.62,9.39,9.39,0,0,0-3.11.49,7.5,7.5,0,0,0-2.47,1.37,6.24,6.24,0,0,0,0,9.6,7.69,7.69,0,0,0,2.47,1.37,9.66,9.66,0,0,0,3.11.48A9.52,9.52,0,0,0,30,34l.08,0a4.55,4.55,0,0,0,2.7-3.78l.07-.77H29.57Z"/></svg>