<svg id="Layer_1" data-name="Layer 1" xmlns="http://www.w3.org/2000/svg" viewBox="0 0 164 68"><defs><style>.cls-1{fill:#010101;}.cls-2{fill:#fff;}</style></defs><ellipse class="cls-1" cx="21.85" cy="37.31" rx="16.37" ry="13.24"/><path class="cls-2" d="M31.68,38H21.43l2.33-5.36h7.92a2.68,2.68,0,0,1,2.68,2.68h0A2.68,2.68,0,0,1,31.68,38Z"/><polygon class="cls-2" points="27.34 45.16 20.4 45.16 23.16 39.25 29.92 39.25 27.34 45.16"/><polygon class="cls-2" points="20.81 39.91 17.87 39.91 19.07 37.75 12 37.75 9.91 42.48 16.27 42.37 19.55 42.37 20.81 39.91"/><path class="cls-2" d="M24.28,28.62l-8-.19L15.15,31h0l-2.4,5.21h7.18l2.29-5h2.06a1.3,1.3,0,0,0,0-2.6Z"/><path class="cls-1" d="M48.63,43.44A6.8,6.8,0,0,1,46.21,43a5.65,5.65,0,0,1-1.93-1.17A5.28,5.28,0,0,1,43,40.07a6,6,0,0,1,0-4.59,5.42,5.42,0,0,1,1.26-1.8,6,6,0,0,1,1.93-1.17,7,7,0,0,1,2.42-.41,6.89,6.89,0,0,1,2.84.56,5.29,5.29,0,0,1,2,1.61l-2.32,2.06a3.68,3.68,0,0,0-1.06-.93,2.54,2.54,0,0,0-1.31-.34,2.73,2.73,0,0,0-1,.19,2.18,2.18,0,0,0-.8.54,2.64,2.64,0,0,0-.52.86,3.61,3.61,0,0,0,0,2.25,2.75,2.75,0,0,0,.52.86,2.46,2.46,0,0,0,.8.54,2.93,2.93,0,0,0,1,.19,2.64,2.64,0,0,0,1.31-.34,3.58,3.58,0,0,0,1.06-.94l2.32,2.07a5.45,5.45,0,0,1-2,1.6A6.73,6.73,0,0,1,48.63,43.44Z"/><path class="cls-1" d="M54.46,43.2V32.35h3.67V43.2Zm3.42-4v-3h3.89v3Zm3.64,4V32.35h3.67V43.2Z"/><path class="cls-1" d="M67,43.2V32.35h8.85v2.76H70.57v5.33H76V43.2ZM70.32,39V36.38h4.85V39Z"/><path class="cls-1" d="M77.43,43.2V32.35h5.08a5.79,5.79,0,0,1,3.81,1.1,3.87,3.87,0,0,1-1,6.54,6.6,6.6,0,0,1-2.63.48h-3.2L81.1,39V43.2Zm3.67-3.83-1.63-1.66h3a1.58,1.58,0,0,0,1.12-.34,1.35,1.35,0,0,0,0-1.86,1.58,1.58,0,0,0-1.12-.34h-3l1.63-1.66Zm2.84,3.83-2.67-4h3.89l2.7,4Z"/><path class="cls-1" d="M94.72,43.44A7.2,7.2,0,0,1,92.27,43a5.84,5.84,0,0,1-2-1.19A5.34,5.34,0,0,1,89,40a5.83,5.83,0,0,1,0-4.54,5.4,5.4,0,0,1,1.28-1.79,5.84,5.84,0,0,1,2-1.19,7.39,7.39,0,0,1,4.91,0,5.9,5.9,0,0,1,1.94,1.19,5.4,5.4,0,0,1,1.28,1.79,5.83,5.83,0,0,1,0,4.54,5.34,5.34,0,0,1-1.28,1.8A5.9,5.9,0,0,1,97.18,43,7.21,7.21,0,0,1,94.72,43.44Zm0-2.95a2.57,2.57,0,0,0,1-.19,2.29,2.29,0,0,0,.77-.54,2.22,2.22,0,0,0,.52-.85,3.1,3.1,0,0,0,.19-1.14A3.17,3.17,0,0,0,97,36.63a2.29,2.29,0,0,0-.52-.85,2.26,2.26,0,0,0-.77-.53,2.52,2.52,0,0,0-1.92,0,2.26,2.26,0,0,0-.77.53,2.29,2.29,0,0,0-.52.85,3.17,3.17,0,0,0-.19,1.14,3.1,3.1,0,0,0,.19,1.14,2.22,2.22,0,0,0,.52.85,2.29,2.29,0,0,0,.77.54A2.57,2.57,0,0,0,94.72,40.49Z"/><path class="cls-1" d="M106.86,43.2V32.35h5.24a6.44,6.44,0,0,1,2.64.5,3.7,3.7,0,0,1,2.32,3.59,3.86,3.86,0,0,1-.6,2.17A4,4,0,0,1,114.74,40a6.44,6.44,0,0,1-2.64.5h-3.2L110.53,39V43.2Zm3.67-3.83-1.63-1.66h3a1.59,1.59,0,0,0,1.13-.34,1.38,1.38,0,0,0,0-1.86,1.59,1.59,0,0,0-1.13-.34h-3l1.63-1.66Z"/><path class="cls-1" d="M118.26,43.2V32.35h3.67V43.2Z"/><path class="cls-1" d="M123.71,43.2V32.35H129a6.43,6.43,0,0,1,2.63.5,4,4,0,0,1,1.72,5.76A4,4,0,0,1,131.58,40a6.43,6.43,0,0,1-2.63.5h-3.21L127.38,39V43.2Zm3.67-3.83-1.64-1.66h3a1.59,1.59,0,0,0,1.13-.34,1.35,1.35,0,0,0,0-1.86,1.59,1.59,0,0,0-1.13-.34h-3l1.64-1.66Z"/><path class="cls-1" d="M135.1,43.2V32.35h3.67V43.2Z"/><path class="cls-1" d="M140.55,43.2V32.35h3L149.1,39h-1.4v-6.6h3.58V43.2h-3l-5.54-6.6h1.4v6.6Z"/><path class="cls-1" d="M158.69,43.44a6.81,6.81,0,0,1-2.43-.41,5.65,5.65,0,0,1-1.93-1.17,5.31,5.31,0,0,1-1.27-1.79,6.08,6.08,0,0,1,0-4.59,5.34,5.34,0,0,1,1.28-1.8,6,6,0,0,1,1.95-1.17,7.84,7.84,0,0,1,5.36.13,5.49,5.49,0,0,1,2.1,1.55l-2.35,2.06a3.82,3.82,0,0,0-1.11-.89,3.18,3.18,0,0,0-2.43-.11,2.14,2.14,0,0,0-.83.54,2.4,2.4,0,0,0-.53.85,3.3,3.3,0,0,0-.19,1.13,3.23,3.23,0,0,0,.19,1.11,2.35,2.35,0,0,0,.53.86,2.32,2.32,0,0,0,.82.55,2.74,2.74,0,0,0,1.06.2,3.58,3.58,0,0,0,1.21-.21,4.57,4.57,0,0,0,1.26-.72l2.06,2.51a8.1,8.1,0,0,1-2.27,1A9.16,9.16,0,0,1,158.69,43.44Zm4.75-1.37-3.19-.47V37.48h3.19Z"/></svg>