<svg id="Layer_1" data-name="Layer 1" xmlns="http://www.w3.org/2000/svg" viewBox="0 0 164 68"><defs><style>.cls-1{font-size:3.4px;font-family:AraESNawar-Regular, Nawar Font;}.cls-1,.cls-3{fill:#010101;}.cls-2,.cls-4,.cls-5{fill:none;stroke-miterlimit:10;}.cls-2{stroke:#000;stroke-width:0.25px;}.cls-4,.cls-5{stroke:#010101;}.cls-5{stroke-width:0.5px;}</style></defs><text class="cls-1" transform="translate(123.13 34.83)">R</text><circle class="cls-2" cx="124.18" cy="33.82" r="1.72"/><path class="cls-3" d="M22.06,27c-.63,3.1-3.26,5.16-7.95,5.16-5.6,0-8.31-3.28-8.31-7.58s2.67-7.8,8.55-7.8c5,0,7.32,2.53,7.65,5.1H17a2.5,2.5,0,0,0-2.79-2.05c-2.44,0-3.27,2-3.27,4.59,0,2.36.69,4.68,3.32,4.68A2.57,2.57,0,0,0,17.06,27Z"/><path class="cls-3" d="M24.8,17h5v5.55h5.22V17h5V31.85h-5V25.79H29.83v6.06h-5Z"/><path class="cls-3" d="M48.66,17V31.85h-5V17Z"/><path class="cls-3" d="M67.69,27c-.62,3.1-3.25,5.16-7.94,5.16-5.61,0-8.31-3.28-8.31-7.58s2.67-7.8,8.55-7.8c5,0,7.32,2.53,7.65,5.1h-5a2.51,2.51,0,0,0-2.8-2.05c-2.43,0-3.26,2-3.26,4.59,0,2.36.69,4.68,3.32,4.68A2.56,2.56,0,0,0,62.69,27Z"/><path class="cls-3" d="M74.69,29l-1,2.88H68.81L74.22,17h6.49l5.62,14.83H81.09l-1-2.88Zm4.49-3.22c-.81-2.33-1.47-4.4-1.85-5.85h-.07c-.4,1.6-1.05,3.71-1.74,5.85Z"/><path class="cls-3" d="M103.75,31.85h-3.36a10,10,0,0,1-.32-1.35c-1,1.11-2.63,1.66-5,1.66-5.24,0-7.88-3.44-7.88-7.55,0-4.55,3-7.86,8.76-7.86,5.16,0,7.54,2.56,7.85,4.83h-5c-.25-.78-.88-1.77-2.91-1.77-2.86,0-3.56,2.28-3.56,4.65s.81,4.61,3.58,4.61c2.52,0,3-1.61,3-2.59v-.1H95.77v-3h8Z"/><path class="cls-3" d="M123.75,24.42c0,4.2-2.92,7.71-8.78,7.71s-8.53-3.49-8.53-7.68,3-7.7,8.79-7.7C120.62,16.75,123.75,20,123.75,24.42Zm-12.14,0c0,2.72,1,4.62,3.52,4.62s3.47-2,3.47-4.54c0-2.71-.91-4.58-3.53-4.58C112.63,19.88,111.61,21.62,111.61,24.38Z"/><path class="cls-3" d="M6.76,36.36H19.91v3.22h-8.1v2.89h7.58V45.7H11.81v5.49H6.76Z"/><path class="cls-3" d="M26.09,48.31l-1,2.88h-5l5.56-14.83h6.68l5.77,14.83H32.68l-1.07-2.88Zm4.62-3.22c-.83-2.33-1.5-4.4-1.9-5.85h-.07c-.41,1.6-1.08,3.72-1.8,5.85Z"/><path class="cls-3" d="M44.77,36.36v9.12a2.53,2.53,0,0,0,2.8,2.85c1.69,0,2.67-.87,2.67-2.85V36.36h5.18V45c0,4.93-3.46,6.43-7.94,6.43-4.64,0-7.87-1.59-7.87-6.41v-8.7Z"/><path class="cls-3" d="M74.76,46.32c-.64,3.1-3.34,5.15-8.17,5.15-5.76,0-8.54-3.28-8.54-7.58s2.75-7.8,8.79-7.8c5.17,0,7.53,2.53,7.87,5.1H69.6c-.24-1.07-1-2-2.88-2-2.5,0-3.36,2-3.36,4.6,0,2.35.72,4.67,3.42,4.67a2.62,2.62,0,0,0,2.84-2.09Z"/><path class="cls-3" d="M90.56,45.19h-8V48h8.95l-.58,3.22H77.58V36.36H90.9v3.22H82.54V42h8Z"/><path class="cls-3" d="M97.62,39.58h-5V36.36h15.17v3.22h-5V51.19H97.62Z"/><path class="cls-3" d="M114,46.7c.29,1.29,1.36,1.84,3,1.84s2.28-.46,2.28-1.32-.78-1.35-3.56-1.91c-5.19-1.06-6.23-2.65-6.23-4.65,0-2.49,2.17-4.57,7.07-4.57,5.09,0,7.17,2.18,7.41,4.51h-5c-.13-.79-.62-1.6-2.44-1.6-1.19,0-1.91.37-1.91,1.18s.64,1.11,3.36,1.67c5.42,1.14,6.49,2.79,6.49,4.9,0,2.78-2.54,4.72-7.71,4.72-4.86,0-7.44-1.92-7.83-4.77Z"/><line class="cls-4" x1="159.86" y1="14.1" x2="3.58" y2="14.1"/><line class="cls-4" x1="159.86" y1="53.55" x2="3.58" y2="53.55"/><path class="cls-3" d="M131,26.21h-.58a8.32,8.32,0,0,1,2.85-4.4c2.78-2.1,7.11-2.07,11,.15a6.33,6.33,0,0,0,3.68.86l2.48-.23a7.14,7.14,0,0,1-2,4.51c-2.54,2.49-7.43,2.68-12.08.07a7.25,7.25,0,0,0-3.49-1Z"/><path class="cls-5" d="M139.41,35.38h-.58a8.26,8.26,0,0,1,2.84-4.4c2.79-2.1,7.11-2.07,11,.15a6.27,6.27,0,0,0,3.68.85l2.48-.22a7.06,7.06,0,0,1-2,4.51c-2.53,2.48-7.42,2.68-12.08.07a7.14,7.14,0,0,0-3.49-1Z"/><path class="cls-3" d="M130.64,44.44h-.57a8.23,8.23,0,0,1,2.84-4.4c2.78-2.1,7.11-2.06,11,.16a6.4,6.4,0,0,0,3.68.85l2.48-.23a7.21,7.21,0,0,1-2,4.52c-2.54,2.48-7.42,2.67-12.08.07a7.26,7.26,0,0,0-3.49-1Z"/></svg>