<svg id="Layer_1" data-name="Layer 1" xmlns="http://www.w3.org/2000/svg" viewBox="0 0 164 68"><defs><style>.cls-1{font-size:5.07px;}.cls-1,.cls-3,.cls-5,.cls-6{fill:#010101;}.cls-1,.cls-3{font-family:AraESNawar-Regular, Nawar Font;}.cls-2{fill:none;stroke:#000;stroke-miterlimit:10;stroke-width:0.25px;}.cls-3{font-size:1.34px;}.cls-4{fill:#050606;}.cls-5{font-size:14.1px;font-family:TrebuchetMS-Italic, Trebuchet MS;font-style:italic;}</style></defs><text class="cls-1" transform="translate(145.41 30.96)">R</text><circle class="cls-2" cx="146.97" cy="29.45" r="2.57"/><text class="cls-3" transform="translate(146.09 47.44)">TM</text><path d="M147,48.24A1.21,1.21,0,1,1,148.18,47,1.21,1.21,0,0,1,147,48.24Zm0-2.32A1.11,1.11,0,1,0,148.08,47,1.11,1.11,0,0,0,147,45.92Z"/><polygon class="cls-4" points="9.59 31.91 16.41 31.91 36.33 32.02 37.03 28.3 16.86 28.3 17.56 22.48 34.65 22.59 35.26 18.87 18 18.87 18.63 13.67 37.89 13.79 38.6 9.7 13.32 9.7 9.59 31.91"/><polygon class="cls-4" points="49.5 9.7 43.64 9.7 39.77 32.02 43.83 32.02 45.82 32.02 63.37 32.02 63.95 28.3 46.44 28.3 49.5 9.7"/><polygon class="cls-4" points="96.82 9.7 90.75 9.7 72.84 21.81 75.13 9.7 68.93 9.7 65.2 32.02 70.91 32.02 71.79 27.33 78.73 22.44 86.74 32.02 95.16 32.02 83.69 18.95 96.82 9.7"/><path class="cls-4" d="M116.52,9.7h-4.43L96.3,32h4.88l2.56-3.72h16.74L121.93,32h6.38L119.87,9.7Zm-9.34,13.59,7.26-10.56,4.1,10.56Z"/><polygon class="cls-4" points="150.92 9.7 140.09 20.56 132.79 9.7 125.71 9.7 135.68 24.16 134.25 32.02 140.29 32.02 141.28 24.34 155.32 9.7 150.92 9.7"/><text class="cls-5" transform="translate(8.68 54.66) scale(0.79 1)">Ingenuity for Everyday Life</text><circle class="cls-6" cx="147.59" cy="53.69" r="0.84"/></svg>