<svg id="Layer_1" data-name="Layer 1" xmlns="http://www.w3.org/2000/svg" viewBox="0 0 164 68"><defs><style>.cls-1{fill:#010101;}</style></defs><path class="cls-1" d="M62.91,37.73H54.53L53,44.89h9.6l-.56,1.49H51l3.75-17.74H65.33L65,30.13H56.17l-1.32,6.11h8.38Z"/><path class="cls-1" d="M66.32,42.58c.16,1.42,1,2.67,3.29,2.67,1.86,0,2.9-.94,2.9-2.31s-.9-1.95-2.8-2.67c-2.66-1-3.47-1.93-3.47-3.36,0-1.87,1.41-3.58,4.38-3.58,3.22,0,4.33,1.88,4.3,3.64H73.28c-.11-1-.55-2.28-2.86-2.28-1.53,0-2.54.8-2.54,2.05,0,1,.75,1.47,2.65,2.19,2.58,1,3.69,2,3.69,3.78,0,2.4-1.83,3.93-4.89,3.93s-4.61-1.77-4.64-4.06Z"/><path class="cls-1" d="M77.48,42.58c.16,1.42,1,2.67,3.28,2.67,1.87,0,2.91-.94,2.91-2.31s-.9-1.95-2.8-2.67c-2.66-1-3.48-1.93-3.48-3.36,0-1.87,1.42-3.58,4.39-3.58,3.22,0,4.33,1.88,4.3,3.64H84.44c-.11-1-.55-2.28-2.86-2.28-1.53,0-2.54.8-2.54,2.05,0,1,.75,1.47,2.65,2.19,2.57,1,3.69,2,3.69,3.78,0,2.4-1.83,3.93-4.89,3.93s-4.61-1.77-4.65-4.06Z"/><path class="cls-1" d="M89.45,40.13a10.59,10.59,0,0,0-.12,1.39c0,2.46,1.22,3.69,3.13,3.69a3.86,3.86,0,0,0,3.65-2.32h1.67a5.62,5.62,0,0,1-5.54,3.75c-3.12,0-4.54-2.11-4.54-5,0-3.69,2-8.29,6.6-8.29,3.31,0,4.39,2.22,4.39,4.44a8.56,8.56,0,0,1-.32,2.36ZM97,38.79a4.81,4.81,0,0,0,.1-1.06c0-2-1-3-2.93-3s-3.69,1.48-4.41,4.07Z"/><path class="cls-1" d="M101,33.59h2.21l.8-3.79h1.6l-.8,3.79h2.85L107.36,35h-2.84l-1.73,8.24c-.28,1.31-.22,1.89.92,1.89A7,7,0,0,0,105,45l-.33,1.35a4.65,4.65,0,0,1-1.59.21c-1.76,0-2.49-.76-2.05-2.85L102.91,35h-2.2Z"/><path class="cls-1" d="M110,33.59h1.6l-2.71,12.79h-1.6Zm1.24-5.91h1.61l-.54,2.61h-1.61Z"/><path class="cls-1" d="M120.59,42.58c.16,1.42,1,2.67,3.28,2.67,1.87,0,2.91-.94,2.91-2.31s-.9-1.95-2.8-2.67c-2.66-1-3.48-1.93-3.48-3.36,0-1.87,1.42-3.58,4.39-3.58,3.22,0,4.33,1.88,4.29,3.64h-1.63c-.11-1-.55-2.28-2.86-2.28-1.53,0-2.54.8-2.54,2.05,0,1,.75,1.47,2.65,2.19,2.57,1,3.68,2,3.68,3.78,0,2.4-1.82,3.93-4.89,3.93S119,44.87,119,42.58Z"/><path class="cls-1" d="M130.46,46.4l.75-3.49h1.68l-.75,3.49Z"/><path class="cls-1" d="M137.51,37.38c.26-1.26.53-2.61.74-3.79h1.54c0,.33-.25,1.74-.5,2.85a5.28,5.28,0,0,1,4.58-3.11l-.38,1.72c-2.47.23-4.38,2.28-5,5.18l-1.3,6.15h-1.61Z"/><path class="cls-1" d="M142.53,46.4l.76-3.49H145l-.75,3.49Z"/><path class="cls-1" d="M147.66,46.38l4-18.7h1.61l-4,18.7Z"/><path class="cls-1" d="M152.65,46.4l.75-3.49h1.68l-.75,3.49Z"/><path class="cls-1" d="M43.3,37.1a15.89,15.89,0,0,1-.42,3.74,2.31,2.31,0,0,1-1.83,1.78h0c-2.6.47-5.89-2.78-8.19-8.06a11.56,11.56,0,0,0-6.08-6.73,11.64,11.64,0,0,0-12.4,2.46l-1.08,1,.36-.69a15.77,15.77,0,0,1,16.22-8.45c.9.13,8.27,1.29,11.79,8.11A14.85,14.85,0,0,1,43.3,37.1Z"/><path class="cls-1" d="M12.9,32.94a12.08,12.08,0,0,1,3.19-2.58,11.43,11.43,0,0,1,6.57-1.51c6.87,1,7.52,15.34,14.12,16.29,1.75.26,5.15-1.32,5.15-1.32-1.48,1.22-3.72,2.66-6.12,2.26C29.38,45,29,31.89,22,30c-1.85-.49-4.75-.35-9.11,2.93Z"/><path class="cls-1" d="M41.47,45.46a12.17,12.17,0,0,1-3.18,2.59,11.46,11.46,0,0,1-6.57,1.53c-6.87-1-7.57-15.32-14.18-16.25-1.74-.25-5.13,1.34-5.13,1.34,1.47-1.22,3.71-2.67,6.11-2.28,6.43,1,6.85,14.17,13.85,16,1.86.49,4.76.34,9.11-3Z"/><path class="cls-1" d="M36.57,50.2A16,16,0,0,1,25.48,53,16.18,16.18,0,0,1,12.67,42.35a10.42,10.42,0,0,1-.78-2.86A10.78,10.78,0,0,1,12,36.08a5.21,5.21,0,0,1,3.5-.35,5.42,5.42,0,0,1,3.74,4.08c1.08,5.65,5,10,9.93,11a12.51,12.51,0,0,0,8.45-1.44C37.44,49.56,37.08,49.85,36.57,50.2Z"/></svg>