<svg id="Layer_1" data-name="Layer 1" xmlns="http://www.w3.org/2000/svg" viewBox="0 0 164 68"><defs><style>.cls-1{fill:#010101;}</style></defs><path class="cls-1" d="M139.19,42.8l-.23.46a17.55,17.55,0,0,1-1.53,2.39,13.86,13.86,0,0,1-2.16.17,31.54,31.54,0,0,1-9.72-2.14L120,41.56a29.79,29.79,0,0,0-9.68-2.24A28.49,28.49,0,0,0,102,41.06l-6.93,2.62a30.6,30.6,0,0,1-9.67,2.14,30.76,30.76,0,0,1-9.7-2.14l-6.92-2.62a28.49,28.49,0,0,0-8.32-1.74,30.06,30.06,0,0,0-9.7,2.24L45.2,43.68a31.53,31.53,0,0,1-9.73,2.14,13.08,13.08,0,0,1-2.13-.17,13.45,13.45,0,0,1-1.53-2.39l-.23-.46a22.41,22.41,0,0,0,4,.5A28.83,28.83,0,0,0,45.22,41l5.55-2.12a33.17,33.17,0,0,1,9.7-2,32.8,32.8,0,0,1,9.67,2L75.71,41a28.72,28.72,0,0,0,9.68,2.28A28.72,28.72,0,0,0,95.08,41l5.55-2.12a32.8,32.8,0,0,1,9.66-2,33,33,0,0,1,9.7,2L125.55,41a28.72,28.72,0,0,0,9.68,2.28,19.21,19.21,0,0,0,4-.5Zm-8.84,7.08a13.54,13.54,0,0,1-2,1.83l-4.43-1.55-5.13-1.72c-3.88-1.34-6.5-1.91-8.76-1.91a27.88,27.88,0,0,0-8.2,1.72L95,50.91A32,32,0,0,1,85.37,53a30.79,30.79,0,0,1-9.6-2.12l-6.85-2.66a27.75,27.75,0,0,0-8.21-1.72A27.07,27.07,0,0,0,52,48.44l-5.1,1.72-4.42,1.55a14.6,14.6,0,0,1-2-1.83l8-2.83a72,72,0,0,1,6.88-2.2A24.75,24.75,0,0,1,60.73,44a33.49,33.49,0,0,1,9.59,2l5.47,2.16a28,28,0,0,0,9.6,2.24A28.68,28.68,0,0,0,95,48.23l5.49-2.16A32.46,32.46,0,0,1,110,44a25.25,25.25,0,0,1,5.51.83,64,64,0,0,1,6.88,2.2l7.94,2.83ZM121.55,54l-2.75,1.66-.63-.21a25.82,25.82,0,0,0-8.09-1.74,25.91,25.91,0,0,0-8.23,1.74l-1.35.5-1.4.53L97.74,57l-1.37.54L95,58.1l-1.38.46a27.43,27.43,0,0,1-8.2,1.66c-2.45,0-5.49-.67-9.61-2.12l-1.37-.53L73.07,57l-1.38-.54L70.3,56l-1.36-.5L67.56,55a23.94,23.94,0,0,0-6.83-1.28,25.47,25.47,0,0,0-8.11,1.74l-.61.21L49.26,54c.69-.29.9-.35,1.85-.71l1.38-.46a29.27,29.27,0,0,1,8.22-1.62A31.06,31.06,0,0,1,70.3,53.3l1.39.54,1.38.53,1.38.54,1.37.53,1.38.48a27.45,27.45,0,0,0,8.21,1.74c2.46,0,5.45-.67,9.62-2.22l1.35-.53,1.38-.54,1.36-.53c.23-.1.69-.29,1.4-.54l1.35-.46a29.47,29.47,0,0,1,8.23-1.62,31.12,31.12,0,0,1,9.6,2.08l1.4.54.45.17Zm-77-33.64v6.31a11.31,11.31,0,0,1-4.21.9c-3.63,0-6.15-2.89-6.15-6.95a7.1,7.1,0,0,1,7.38-7.44,16.14,16.14,0,0,1,7.76,2.26V11.24c-3.73-1.55-5.56-2-8.34-2-7.63,0-12.5,4.42-12.5,11.35,0,6.58,4.74,10.94,11.83,10.94A20.22,20.22,0,0,0,50,28.84V20.35H44.57m8.55-11.1V31.54h5.64V13.46h2.43c3.2,0,4.63,1,4.63,3.37s-1.61,3.76-4.42,3.76l-1.22,0h-.63l7.86,11h7.23l-7.21-9a6.66,6.66,0,0,0,4.11-6.35c0-4.74-3-7-9.18-7l-9.24,0m49.17,0V31.54h5.17V22h9.12v9.55h5.17V9.25h-5.17v8.23h-9.12V9.23m19.43,0V31.54h16.39V27.17H132.57V21.86h7.88V17.67h-7.88V13.59H142V9.23M80.13,20.4c0-4.26,2.77-7.26,6.79-7.26s6.79,3,6.79,7.26-2.8,7.25-6.79,7.25-6.79-3-6.79-7.25m-5.49,0c0,6.43,5.18,11.15,12.3,11.15s12.29-4.7,12.29-11.15S94,9.25,86.94,9.25,74.64,14,74.64,20.4"/></svg>