<svg id="Layer_1" data-name="Layer 1" xmlns="http://www.w3.org/2000/svg" viewBox="0 0 164 68"><defs><style>.cls-1,.cls-3,.cls-4{fill:#010101;}.cls-2{fill:#fff;}.cls-3{font-size:17.11px;}.cls-3,.cls-4{font-family:AraESNawar-Regular, Nawar Font;}.cls-4{font-size:3.09px;}.cls-5{fill:none;stroke:#000;stroke-miterlimit:10;stroke-width:0.25px;}</style></defs><rect class="cls-1" x="19.73" y="5.42" width="57.17" height="57.17"/><rect class="cls-1" x="87.1" y="5.42" width="57.17" height="57.17"/><ellipse class="cls-2" cx="81.91" cy="34.64" rx="54.79" ry="23.54"/><text class="cls-3" transform="translate(48.21 39.2) scale(1.14 1)">HARRIS</text><path class="cls-1" d="M92.79,15.05c2.1.1,4.24.22,6.42.38-34.36,1.2-59,9.78-61.12,22.25-.4,2.32-.11,5.3,2,9.06-6.92-3.63-10.25-13-8.52-16.8C36.3,19.34,59.34,13.5,92.79,15.05Z"/><path class="cls-1" d="M68.94,54.11q-3.14-.18-6.41-.45c34.37-.82,59.07-9.13,61.36-21.57.43-2.32.17-5.31-1.86-9.09,6.88,3.71,10,12.93,8.33,16.9C125.45,51.55,102.38,56,68.94,54.11Z"/><text class="cls-4" transform="translate(115.35 38.32)">R</text><circle class="cls-5" cx="116.31" cy="37.4" r="1.56"/></svg>