<svg id="Layer_1" data-name="Layer 1" xmlns="http://www.w3.org/2000/svg" viewBox="0 0 164 68"><defs><style>.cls-1{fill:#020304;}.cls-2{fill:#f4f4f4;}.cls-3{fill:#010101;}.cls-4{fill:#faf8f8;}</style></defs><path class="cls-1" d="M157.92,18.18a1.5,1.5,0,1,1,1.5,1.54,1.49,1.49,0,0,1-1.5-1.54M159.41,20a1.84,1.84,0,1,0-1.87-1.84A1.84,1.84,0,0,0,159.41,20M159,18.33h.37l.56.92h.36l-.6-.94a.54.54,0,0,0,.55-.58c0-.42-.25-.6-.75-.6h-.81v2.11H159Zm0-.27V17.4h.44c.23,0,.47.05.47.31s-.24.35-.52.35Z"/><path d="M66.15,23c0-.57-.06-1.14-.11-2.11-1.42.28-2.65.54-3.9.75a1.55,1.55,0,0,1-.74-.23c-2.67-1.16-4.69,0-4.76,2.87-.14,6.38-.21,12.76-.14,19.14,0,3.73,2.14,4.77,6.22,2.86-.51,1.29-.65,2.76-1.27,3-1,.4-2.35,0-3.55-.06l-.06-.49c-.49.92-1,1.85-1.65,3.11l4,1.45H62c3.46-1.24,4.17-2.25,4.17-6Q66.16,35.14,66.15,23ZM62.06,42.7c0,.41-.48.81-.74,1.22-.25-.44-.71-.87-.72-1.31-.06-2.82,0-5.65,0-8.48s0-5.78,0-8.66c0-.45.5-.88.77-1.31.24.41.69.81.69,1.22Q62.14,34,62.06,42.7Z"/><path d="M49.55,48.62H45.68V32.83C44.19,32.3,44,33,44,34.13c0,4.78,0,9.56,0,14.46H40.09V16.14H44V22.6c0,1.65.05,3.31,0,5,0,1.14.38,1.54,1.63,1.15V16.14h3.95Z"/><path d="M111.38,16.13v5.56c-3.58-1.54-5.34-.53-5.51,3.12-.16,3.48-.13,7-.13,10.46s-.06,7.21.14,10.81c.15,2.57,2.27,3.62,4.58,2.52a2.09,2.09,0,0,1,1-.32c1.25.14,2.49.36,3.75.55V16.13Zm-.14,28.09c0,.52-.47,1-.72,1.56-.25-.5-.73-1-.73-1.49q-.08-9.28,0-18.57c0-.52.45-1,.7-1.58a5.23,5.23,0,0,1,.75,1.69c.07,3.07,0,6.13,0,9.2S111.31,41.16,111.24,44.22Z"/><path d="M67.58,48.57V16.11h3.77V21.9c.55-.3.83-.48,1.13-.61,2.38-1.07,4.41.14,4.48,2.91.13,5.19.07,10.4.08,15.6,0,2.89,0,5.77,0,8.78H73V45.91c0-6.73,0-13.47,0-20.21,0-.51-.46-1-.7-1.52-.24.51-.68,1-.68,1.54,0,7,0,14,0,20.92v1.93Z"/><path d="M151.75,16.1h3.89v12l.37.06q.84-3.49,1.69-7h3.67c-.62,2.59-1.05,5.09-1.83,7.47-.94,2.83-.45,5.55.08,8.33.73,3.81,1.44,7.62,2.16,11.43a3.06,3.06,0,0,1-.66.24c-3.3.19-3.28.19-3.76-3.09a74.51,74.51,0,0,0-1.6-8.3v11.3h-4Z"/><path d="M104.3,48.64h-4V26.49a6,6,0,0,0,0-1.41c-.08-.33-.41-.6-.63-.89-.28.31-.67.57-.79.93a4.65,4.65,0,0,0,0,1.4V48.59H95V21.14c1.43.22,2.91-.69,4.13.66,2.5-1.72,5.09-.85,5.15,2.11C104.42,32.1,104.3,40.3,104.3,48.64Z"/><path d="M144.72,48.62h-3.93V21.33c2.5-.46,3.28-.36,4,.5,2.8-1.77,5.37-.74,5.42,2.37.11,8.09,0,16.18,0,24.39h-4V46.72q0-10.2,0-20.39a4.39,4.39,0,0,0-.06-1.41,1.45,1.45,0,0,0-.81-.7c-.11,0-.54.41-.59.68a9.51,9.51,0,0,0-.09,1.77Z"/><path d="M139.2,24.5c0-2.27-1.78-3.45-4.3-3.55-2.85-.11-4.17.72-4.67,3.2a31.84,31.84,0,0,0-.31,4.22h4c0-1.23,0-2.28,0-3.34a1.2,1.2,0,0,1,.49-.79c.14-.09.59.07.74.25.7.89,0,4.75-1,5.38-2.14,1.38-4.39,2.74-4.42,5.71,0,3.36,0,6.72.11,10.08,0,1.32.33,2.81,1.84,3.09a11.53,11.53,0,0,0,3.4-.33l4.19.38C139.25,40.51,139.33,32.5,139.2,24.5Zm-4.1,21.64c-1.67-1.53-1.42-11.41.19-12.84C135.18,37.68,135.44,41.74,135.1,46.14Z"/><path d="M93.41,24.5c0-2.27-1.78-3.45-4.3-3.55-2.84-.11-4.17.72-4.67,3.2a31.84,31.84,0,0,0-.31,4.22h4c0-1.23,0-2.28,0-3.34a1.2,1.2,0,0,1,.49-.79c.14-.09.59.07.74.25.71.89,0,4.75-1,5.38-2.15,1.38-4.4,2.74-4.43,5.71,0,3.36,0,6.72.11,10.08,0,1.32.33,2.81,1.84,3.09a11.53,11.53,0,0,0,3.4-.33l4.19.38C93.46,40.51,93.55,32.5,93.41,24.5Zm-4.1,21.64c-1.67-1.53-1.42-11.41.19-12.84C89.39,37.68,89.65,41.74,89.31,46.14Z"/><path d="M130,16.14v3.15l-2.45.21V48.6h-4.1V19.51l-2.54-.22V16.14Z"/><path d="M82.44,16.1V48.62H78.56V16.1Z"/><path d="M55,48.65h-3.8V21.27H55Z"/><circle class="cls-2" cx="19.69" cy="33.41" r="10.2"/><path d="M19.7,51A17.48,17.48,0,1,1,37.18,33.48,17.5,17.5,0,0,1,19.7,51Zm0-34.69A17.21,17.21,0,1,0,36.91,33.48,17.23,17.23,0,0,0,19.7,16.27Z"/><path d="M19.7,43.88a10.4,10.4,0,1,1,10.4-10.4A10.41,10.41,0,0,1,19.7,43.88Zm0-20.53A10.14,10.14,0,1,0,29.83,33.48,10.14,10.14,0,0,0,19.7,23.35Z"/><path class="cls-3" d="M6.3,23.11l.5-.39.83,1.07,1.18-.92L8,21.8l.5-.38,2.07,2.67-.5.39-.92-1.19L8,24.21l.92,1.19-.5.39Z"/><path class="cls-3" d="M10.36,20.37l1.6,3-.56.3-1.59-3Z"/><path class="cls-3" d="M15.49,22l-.44.15a1.19,1.19,0,0,1-.17-.34,1.17,1.17,0,0,1-.82.73,1.52,1.52,0,0,1-2-1.12,1.61,1.61,0,0,1,1-2.21,1.31,1.31,0,0,1,1.7.54l-.6.2a.74.74,0,0,0-.94-.26c-.69.23-.72.87-.51,1.49s.63,1.07,1.3.85a.75.75,0,0,0,.49-1.07v0l-.77.26-.17-.5,1.36-.46Z"/><path class="cls-3" d="M16,18.45l.63-.07.14,1.34,1.49-.15-.14-1.34.63-.07.34,3.36-.63.07-.15-1.5-1.49.16.15,1.49-.63.07Z"/><path class="cls-3" d="M20.32,18.21l.63.06-.3,2.84,1.7.17-.13.52L20,21.57Z"/><path class="cls-3" d="M23.83,21.32l-.55.73-.6-.19L24.83,19l.75.25.13,3.59-.64-.2,0-.92Zm1.23-.15c0-.82,0-1.31,0-1.61h0c-.18.28-.51.74-.92,1.3Z"/><path class="cls-3" d="M26.21,23.08l1.71-2.92.69.41c0,.89,0,2.6-.05,3h0c.16-.35.45-.84.73-1.32l.57-1,.5.29-1.72,2.91L28,24.13c0-.79,0-2.69.07-3.12h0c-.14.29-.47.86-.77,1.38l-.58,1Z"/><path class="cls-3" d="M31.7,22.6l.94.89a1.54,1.54,0,0,1,0,2.31,1.61,1.61,0,0,1-2.38.13l-.92-.88Zm-1.51,2.51.43.42a1,1,0,0,0,1.57-.18,1,1,0,0,0,.05-1.52l-.44-.42Z"/><path class="cls-3" d="M10.28,43.94l-1.51.15c-.68.07-1.14.11-1.61-.42a1,1,0,0,1,0-1.4c.36-.31.78-.28,1.42,0,.37.18.71.28.95.07a.35.35,0,0,0,.06-.52.36.36,0,0,0-.54,0c-.16.14-.17.38-.19.67l-.15,2.89-.52-.6.14-2.51a1.15,1.15,0,0,1,.32-.84.85.85,0,0,1,1.26.12.81.81,0,0,1,0,1.2c-.32.28-.71.22-1.34,0s-.75-.15-.93,0a.48.48,0,0,0,0,.69c.25.27.49.28,1.2.21l1.08-.12Z"/><path class="cls-3" d="M14.37,47.3c.25-.54.54-1.12.71-1.45h0c-.41.51-1.32,1.45-2.09,2.26l-.49-.23c.15-.93.37-2.38.52-3h0c-.15.37-.44,1-.69,1.54l-.55,1.14-.52-.26,1.46-3,.85.41c-.13,1-.33,2.21-.44,2.69h0c.25-.33,1.19-1.3,1.88-2l.82.4-1.45,3-.56-.27Z"/><path class="cls-3" d="M16.53,45.83l2.26.39-.09.52-1.65-.29-.16.91,1.55.27-.09.52-1.55-.27-.24,1.39L16,49.16Z"/><path class="cls-3" d="M22.43,49.4l-.47,0a2.1,2.1,0,0,1-.08-.37,1.16,1.16,0,0,1-1,.51A1.53,1.53,0,0,1,19.26,48a1.6,1.6,0,0,1,1.48-1.9,1.32,1.32,0,0,1,1.52.94l-.63,0a.77.77,0,0,0-.86-.49c-.72.06-.91.68-.86,1.33s.35,1.19,1.06,1.14a.76.76,0,0,0,.74-.92v0l-.81.06,0-.52,1.43-.11Z"/><path class="cls-3" d="M23.71,49.06l-.22-.78.63-.18.21.79Z"/><path class="cls-3" d="M28.93,45.48a1.34,1.34,0,0,1-.64,1.65,1.54,1.54,0,0,1-2.24-.63,1.59,1.59,0,0,1,.42-2.33,1.27,1.27,0,0,1,1.74.17l-.53.34a.73.73,0,0,0-1-.07c-.55.35-.46,1-.12,1.52s.85.93,1.44.56a.75.75,0,0,0,.35-.87Z"/><path class="cls-3" d="M31.46,41.9a1.62,1.62,0,0,1,.21,2.4,1.57,1.57,0,0,1-2.36,0,1.59,1.59,0,0,1-.2-2.38A1.58,1.58,0,0,1,31.46,41.9Zm-1.73,1.92c.51.46,1.13.58,1.56.11s.21-1.1-.27-1.53-1.09-.59-1.54-.1S29.23,43.36,29.73,43.82Z"/><path class="cls-3" d="M33.28,42.09l-.69-.42.33-.56.7.42Z"/><rect x="9.86" y="26.54" width="5.84" height="0.09" transform="translate(-15.06 16.83) rotate(-45)"/><rect x="8.05" y="27.33" width="11.09" height="0.09" transform="translate(-15.37 17.63) rotate(-45)"/><rect x="7.45" y="28.03" width="13.67" height="0.09" transform="translate(-15.67 18.33) rotate(-45)"/><rect x="7.27" y="28.78" width="15.7" height="0.09" transform="translate(-15.95 19.13) rotate(-45)"/><rect x="7.26" y="29.6" width="17.38" height="0.09" transform="translate(-16.29 19.95) rotate(-45)"/><rect x="7.42" y="30.34" width="18.49" height="0.09" transform="translate(-16.6 20.68) rotate(-45)"/><rect x="7.72" y="31.16" width="19.41" height="0.09" transform="translate(-16.96 21.46) rotate(-45)"/><rect x="8.22" y="31.92" width="19.94" height="0.09" transform="translate(-17.28 22.22) rotate(-45)"/><rect x="8.66" y="32.73" width="20.39" height="0.09" transform="translate(-17.65 22.93) rotate(-45)"/><rect x="9.51" y="33.47" width="20.39" height="0.09" transform="translate(-17.92 23.75) rotate(-45)"/><rect x="10.28" y="34.23" width="20.39" height="0.09" transform="translate(-18.24 24.51) rotate(-45)"/><rect x="11.22" y="34.96" width="20.13" height="0.09" transform="translate(-18.52 25.3) rotate(-45)"/><rect x="12.35" y="35.71" width="19.38" height="0.09" transform="translate(-18.83 26.06) rotate(-45)"/><rect x="13.47" y="36.49" width="18.6" height="0.09" transform="translate(-19.17 26.8) rotate(-45)"/><rect x="14.86" y="37.26" width="17.39" height="0.09" transform="translate(-19.48 27.58) rotate(-45)"/><rect x="16.49" y="38.06" width="15.71" height="0.09" transform="translate(-19.81 28.38) rotate(-45)"/><rect x="18.28" y="38.83" width="13.67" height="0.09" transform="translate(-20.13 29.15) rotate(-45)"/><rect x="20.53" y="39.6" width="10.73" height="0.09" transform="translate(-20.45 29.92) rotate(-45)"/><rect x="23.63" y="40.34" width="6.05" height="0.09" transform="translate(-20.75 30.68) rotate(-45)"/><path class="cls-4" d="M27.9,37.34l-.13.14-16,.1a7.24,7.24,0,0,1-1.43-4.48c.08-2.69,1.14-3.82,1.3-3.94l16.11,0A6.49,6.49,0,0,1,29.33,34,6.37,6.37,0,0,1,27.9,37.34Z"/><path class="cls-3" d="M11.74,37.63v0a7.25,7.25,0,0,1-1.44-4.51c.07-2.59,1.06-3.79,1.32-4H27.76v0A6.51,6.51,0,0,1,29.37,34a6.3,6.3,0,0,1-1.44,3.33l-.13.14v0h0Zm-.09-8.42c-.11.1-1.19,1.14-1.27,3.89a7.12,7.12,0,0,0,1.41,4.44l16-.1.11-.13h0A6.08,6.08,0,0,0,29.28,34a6.45,6.45,0,0,0-1.56-4.81Z"/><path class="cls-4" d="M11.87,29.16a1.06,1.06,0,0,1,.44.07c1.16.31,1.53,2.82,1.39,4.54-.13,1.5-.76,3.79-1.6,3.81"/><path class="cls-3" d="M12.1,37.63v-.09c.77,0,1.43-2.21,1.55-3.77s-.2-4.19-1.35-4.5h0a1.19,1.19,0,0,0-.41-.05v-.09a1.25,1.25,0,0,1,.44.06h0c1.19.33,1.55,2.93,1.41,4.59C13.63,35.11,13,37.6,12.1,37.63Z"/><path class="cls-3" d="M15.48,31.65h-1v-.56h2.65v.56h-1v3h-.61Z"/><path class="cls-3" d="M18,33.77l-.28.92h-.61l1.13-3.6h.77l1.17,3.6h-.64l-.3-.92Zm1.1-.56c-.26-.82-.42-1.31-.49-1.62h0c-.08.34-.25.92-.46,1.62Z"/><path class="cls-3" d="M20.92,34.69v-3.6h.78c.43.82,1.27,2.39,1.43,2.78h0c0-.4,0-1,0-1.6V31.09h.56v3.6h-.73c-.38-.73-1.3-2.49-1.47-2.9h0c0,.35,0,1,0,1.69v1.21Z"/><path class="cls-3" d="M24.7,31.09h.61v1.66l1.4-1.66h.74L26.11,32.6l1.4,2.09h-.74L25.68,33l-.37.38v1.28H24.7Z"/><rect x="50.94" y="16.1" width="3.74" height="3.74"/></svg>