<svg id="Layer_1" data-name="Layer 1" xmlns="http://www.w3.org/2000/svg" viewBox="0 0 164 68"><defs><style>.cls-1,.cls-2{fill:#010101;}.cls-2{font-size:17.79px;font-family:Candara;}</style></defs><path class="cls-1" d="M33.34,19h4.17v6.28h7.76V19h4.17v16.1H45.27v-7H37.51v7H33.34Z"/><path class="cls-1" d="M58.21,19v16.1H54V19Z"/><path class="cls-1" d="M66.64,21.9H60.78V19H76.65V21.9H70.81V35.14H66.64Z"/><path class="cls-1" d="M81.09,31.42l-1.51,3.72h-4.1L82,19h5.24l6.83,16.1H89.72l-1.59-3.72Zm6.14-2.85c-1.37-3.4-2.24-5.57-2.7-7h0c-.48,1.58-1.44,4.11-2.54,7Z"/><path class="cls-1" d="M112.77,30.18c-.77,3-3.48,5.19-8.31,5.19-6.12,0-9-3.61-9-8.19,0-4.41,3-8.37,9.21-8.37,5.13,0,7.62,2.52,8.09,5.21h-4.17c-.4-1.24-1.43-2.48-4-2.48-3.44,0-4.77,2.58-4.77,5.51,0,2.72,1.15,5.59,4.88,5.59,2.72,0,3.58-1.52,3.94-2.46Z"/><path class="cls-1" d="M116.51,19h4.17v6.28h7.76V19h4.17v16.1h-4.17v-7h-7.76v7h-4.17Z"/><path class="cls-1" d="M141.38,19v16.1h-4.17V19Z"/><text class="cls-2" transform="translate(27.67 51.58)">Inspire the Next</text></svg>