<svg id="Layer_1" data-name="Layer 1" xmlns="http://www.w3.org/2000/svg" viewBox="0 0 164 68"><defs><style>.cls-1,.cls-3{fill:#010101;}.cls-2,.cls-4{fill:none;stroke-miterlimit:10;}.cls-2{stroke:#010101;stroke-width:0.5px;}.cls-3{font-size:2.79px;font-family:AraESNawar-Regular, Nawar Font;}.cls-4{stroke:#000;stroke-width:0.25px;}</style></defs><path class="cls-1" d="M79.21,12.57a1,1,0,0,1-.88.09c-.37-.22-.32-.76-.23-1.18a14.18,14.18,0,0,1,3.19-.85,4,4,0,0,0,1.09-.26A1.05,1.05,0,0,0,83,9.51a5.92,5.92,0,0,0-1.77.15c-.6,0-1.33-.35-1.26-.94S80.77,8,81.33,8c1,0,2.14.38,3-.15.44-.27.74-.72,1.19-1a3.33,3.33,0,0,1,1.57-.32,34.85,34.85,0,0,1,6.7.21A.56.56,0,0,1,93,6.32a5.63,5.63,0,0,1,2.85.78l-5.92,1Q93,7.88,96,7.45a1.76,1.76,0,0,1-.5,1l-1.69,2a4.29,4.29,0,0,1-1,1,1.56,1.56,0,0,1-1.32.22c-.5-.18-.83-.69-1.33-.84-.87-.26-1.64.63-2.51.9-.71.21-1.53,0-2.18.37-1.61.91-1-.86-2.27-1.14S80.29,12.06,79.21,12.57Z"/><path class="cls-1" d="M97,13.72A4.17,4.17,0,0,1,95,13.08,7.15,7.15,0,0,1,93.34,12a.33.33,0,0,1-.11-.16c0-.15.14-.26.27-.34.69-.42,1-1.27,1.6-1.82s1.23-.73,1.51-1.39a19.92,19.92,0,0,0,.09,2.56A8.2,8.2,0,0,1,97,13.72Z"/><path class="cls-1" d="M97.46,13.19c-.55-1.51.39-3.29-.25-4.76a33.5,33.5,0,0,1,5.8,5.1,14.26,14.26,0,0,0-4.17-4.89,3.11,3.11,0,0,1-1-1l2.3.66a4.84,4.84,0,0,1,1.38.54,7.44,7.44,0,0,0,1,.71c.41.16.88.14,1.27.33,1.07.52,1.14,2.26,2.26,2.64.29.1.61.08.89.2.86.35,1.07,1.73,2,1.83l-1.11.24a1.12,1.12,0,0,0,.76.54.54.54,0,0,0,.42.57,1.59,1.59,0,0,0,.78-.05c.18.15,0,.43-.13.58s-.37.35-.29.56c.25-.08.44.29.38.55s-.23.53-.18.79c.1.5.78.55,1.21.8A2.34,2.34,0,0,1,111.6,21a.48.48,0,0,1-.09.44c-.13.12-.35.07-.51.15a.48.48,0,0,0-.23.49,1.26,1.26,0,0,0,.22.52c.22.34.6.71,1,.51a9.4,9.4,0,0,1-.25,1.59c-.39,1.61-.11,3.35-.5,5l-.54,2.26a15.07,15.07,0,0,1-.45,1.59,13.32,13.32,0,0,1-.8,1.66l-1.71,3.21a14.68,14.68,0,0,1-1,1.62c-1.18,1.68-3,2.88-3.83,4.77a22.6,22.6,0,0,1,1.59-5.28,63.77,63.77,0,0,0,3.07-11.36,5.6,5.6,0,0,0,.11-1.82,8.06,8.06,0,0,0-.38-1.27c-.41-1.22-.63-2.51-1.09-3.71a19.27,19.27,0,0,0-2.48-4.19,5.53,5.53,0,0,0-1.67-1.73,6.46,6.46,0,0,1-1.16-.63,7,7,0,0,0-.73-.71,2.13,2.13,0,0,0-.59-.23C98.88,13.62,98.15,13.38,97.46,13.19Z"/><path class="cls-1" d="M98.4,49.23c-.47.44-1.2.57-1.63,1.05a2.09,2.09,0,0,1-.48.54c-.38.24-.92,0-1.3.27-.06.39.18.84,0,1.18a.89.89,0,0,1-.31.27l-1,.66a1.58,1.58,0,0,1-.68.32c-.44.06-.85-.24-1.29-.23a1.39,1.39,0,0,0-1,.62c-.24.33-.41.7-.66,1a2.54,2.54,0,0,1-.89.7,1.08,1.08,0,0,1-.91.07.5.5,0,0,1-.2-.76l-1.33.81c-.21.13-.52.24-.67,0s0-.7-.27-.73-.27.23-.42.35a.62.62,0,0,1-.32.11l-4,.57a2.57,2.57,0,0,1-.68,0,1.28,1.28,0,0,1-1-.84,5.55,5.55,0,0,0,2.8.18c.23,0,.46-.1.69-.16L84.18,55A27.39,27.39,0,0,0,88,53.79c.37-.15.74-.32,1.1-.49l1.42-.65a7,7,0,0,0,.77-.4c.21-.13.41-.29.61-.43A7.48,7.48,0,0,1,93,51.24a9.94,9.94,0,0,0,2.82-1.74c.57-.57,1-1.31,1.76-1.62a3.73,3.73,0,0,1,1.76-.13,5.67,5.67,0,0,1,.72.09c0,.34-.46.39-.71.52A4.69,4.69,0,0,0,98.4,49.23Z"/><path class="cls-1" d="M85.5,56.68c-.23.12-.47.23-.71.33a3.5,3.5,0,0,1-1.18.31.16.16,0,0,1-.12,0,.14.14,0,0,1,0-.1.78.78,0,0,1,.07-.64c.18-.21.49-.19.77-.2a8.37,8.37,0,0,0,1-.18c.14,0,.82-.13.9,0S85.63,56.62,85.5,56.68Z"/><path class="cls-1" d="M78.61,58.47c-.71,0-1.43-.46-2.1-.23a.59.59,0,0,1,0-.52,1,1,0,0,1,.31-.33,3.5,3.5,0,0,1,2.75-.63,1.47,1.47,0,0,1,.42.13,1.4,1.4,0,0,1,.54.59c.19.34.15.37-.2.54A3.59,3.59,0,0,1,78.61,58.47Z"/><path class="cls-1" d="M66.47,17.57a11.44,11.44,0,0,1,3.44-2l5.55-2.4a1.57,1.57,0,0,0,.94-.76c.21-.62-.51-1.23-1.17-1.2a3.42,3.42,0,0,0-1.73.88,19.82,19.82,0,0,1-5.16,2.79,6.11,6.11,0,0,0-1,.43,6.78,6.78,0,0,0-.81.6,16.67,16.67,0,0,1-2.33,1.57l.14-.25"/><path class="cls-1" d="M78.72,10.25a3.06,3.06,0,0,0-.35.37,1.9,1.9,0,0,1-.49.35,2.07,2.07,0,0,1-.54.26.77.77,0,0,1-.58,0,.49.49,0,0,1-.27-.5.61.61,0,0,1,.47-.42c.21-.06.44,0,.65-.12a2.88,2.88,0,0,0,.73-.4,1.23,1.23,0,0,1,.78-.25.9.9,0,0,1,.32.09C79.87,9.83,78.85,10.16,78.72,10.25Z"/><path class="cls-1" d="M59.63,24.85a3.39,3.39,0,0,0-2,2.29,11.81,11.81,0,0,1-1.17,2.92c-.55.78-1.44,1.39-1.6,2.34-.1.57.11,1.18-.08,1.72s-.62.85-.7,1.35.17.92.17,1.38c0,1-1.19,1.7-1.55,2.69a4.65,4.65,0,0,0,.07,2.28,2.3,2.3,0,0,1-.5,2.15c.27-.17.59.2.56.51a4.06,4.06,0,0,1-.37.86c-.37,1,.54,1.94,1,2.89a11.79,11.79,0,0,0,1,2.44c.87,1,2.65,1.22,3.19,2.48a23.55,23.55,0,0,0,10.45,1.91c-.21-.16-.09-.52.15-.62a1.09,1.09,0,0,1,.75.05q2.36.7,4.65,1.62a4.7,4.7,0,0,0-2.45,1.28l4.27.29c.19.51-.93.5-1.11,1-.13.37.32.67.69.82a3.14,3.14,0,0,1-2.63.42c-.8-.24-1.75-.77-2.36-.19a.9.9,0,0,0,.45,1.46c-1.63.19-3.26.31-4.9.34-.45,0-1.07-.22-.93-.64-1.21,0-2.41-.12-3.61-.22A8,8,0,0,1,56.9,59.5,15.55,15.55,0,0,0,55,57.9a5.75,5.75,0,0,1-1.64-.83,11.22,11.22,0,0,1-.79-1.34,7.1,7.1,0,0,0-1.85-1.38c-.63-.45-1.15-1.3-.77-2L48.78,52,47.86,49a10.27,10.27,0,0,1-.66-3.58c.09-1.46.81-2.9.53-4.34-.11-.54-.34-1.17,0-1.61.18-.23.48-.34.66-.56a1.7,1.7,0,0,0,.27-.8,12.63,12.63,0,0,1,1.16-3.36A23.54,23.54,0,0,1,51,32.66,52.46,52.46,0,0,1,56,26l3.93-4.63"/><path class="cls-1" d="M74.71,55.18a5.35,5.35,0,0,1,1.06,0,.42.42,0,0,1,.22,0,.26.26,0,0,1,.1.13.49.49,0,0,1-.14.54.87.87,0,0,1-.34.15,8.15,8.15,0,0,1-1.08.19.77.77,0,0,1-.34,0,1,1,0,0,1-.34-.32.43.43,0,0,0-.39-.19,1.06,1.06,0,0,0,.54-.24A2,2,0,0,1,74.71,55.18Z"/><path class="cls-1" d="M81.29,44.55a1.15,1.15,0,0,0,.14.17,1.37,1.37,0,0,0,.64.35l-1,4.17-3.21.07a3.61,3.61,0,0,1-2.64-1,3.43,3.43,0,0,1-.41-.49,4,4,0,0,1-.42-3.52c.11-.36.21-.72.29-1.08L76.64,34l-1.06-.05,1-4.72,1.27.09c.14-.88.29-1.76.44-2.64a7.56,7.56,0,0,0,7.54-3.3l-1.29,6,2.94.09-2,4.45-2.25,0c-.67,3.12-1.34,6.23-2,9.35A1.64,1.64,0,0,0,81.29,44.55Z"/><path class="cls-1" d="M73.86,32.84c-.78,4.73-1.78,9.16-2.67,13.74l-5.92.14,2.1-10.82a2.49,2.49,0,0,0-.13-1.43c-.11-.25-.26-.51-.5-.55a1.72,1.72,0,0,0-1.14.36,3.64,3.64,0,0,0-1.53,2.34L62,46.72h-7.1L60.79,18H67.9L65.22,31c2.74-2.65,6.44-2.65,7.85-1.34a2.77,2.77,0,0,1,.76,1.37A4.11,4.11,0,0,1,73.86,32.84Z"/><line class="cls-2" x1="68.66" y1="19.22" x2="66.58" y2="30.25"/><path class="cls-2" d="M74.47,31.05a7.29,7.29,0,0,1,.38,3c0,.8-2.73,13.73-2.73,13.73l-6-.09"/><path class="cls-2" d="M55.76,47.65l7,.06C63.9,43,64.71,39.5,65,37.56c.09-.56.3-2,1.27-2.41a2.42,2.42,0,0,1,1.18-.06"/><path class="cls-1" d="M104.07,32.84c-.78,4.73-1.79,9.16-2.68,13.74l-5.91.14,2.1-10.82a2.49,2.49,0,0,0-.13-1.43c-.11-.25-.26-.51-.5-.55a1.76,1.76,0,0,0-1.15.36,3.68,3.68,0,0,0-1.53,2.34l-2.08,10.1H85.08L91,18h7.11L95.42,31c2.74-2.65,6.45-2.65,7.86-1.34a2.77,2.77,0,0,1,.76,1.37A4.27,4.27,0,0,1,104.07,32.84Z"/><line class="cls-2" x1="98.87" y1="19.22" x2="96.79" y2="30.25"/><path class="cls-2" d="M104.68,31.05a7.16,7.16,0,0,1,.37,3c0,.8-2.72,13.73-2.72,13.73l-6-.09"/><path class="cls-2" d="M86,47.65l7,.06C94.1,43,94.91,39.5,95.23,37.56c.09-.56.31-2,1.27-2.41a2.42,2.42,0,0,1,1.18-.06"/><line class="cls-2" x1="86.67" y1="24.73" x2="85.6" y2="29.42"/><path class="cls-2" d="M81.93,45.11c.71-3.22,1.59-6.87,2.31-10.09l2.12,0c.63-1.41,1.68-3.61,2.32-5"/><path class="cls-2" d="M83,46.12l-1,4.13a10.51,10.51,0,0,1-3.53,0A8.19,8.19,0,0,1,76,49.51"/><text class="cls-3" transform="translate(104.2 47.19)">R</text><circle class="cls-4" cx="105.06" cy="46.36" r="1.41"/></svg>