<svg id="Layer_1" data-name="Layer 1" xmlns="http://www.w3.org/2000/svg" viewBox="0 0 164 68"><defs><style>.cls-1{font-size:5.01px;fill:#010101;font-family:AraESNawar-Regular, Nawar Font;}.cls-2{fill:none;stroke:#000;stroke-miterlimit:10;stroke-width:0.25px;}</style></defs><path d="M19.78,17.77H31.05V29.94h2.83V17.85H45.13V47.28H34V33.15L31.13,33v14.3H19.78Z"/><path d="M102.22,47.44h-9.4V42.53c0-3.74,0-7.49,0-11.23,0-2.23,0-2.23-2.34-2.9L102,17.59v8.67l3.83.26.11,2.17-3.72.17Z"/><path d="M114.12,25.92v19c4.66.43,8.06-2.14,11.64-4.18.41,3.48-3.84,6.67-9.53,7.15-6.35.54-12.23-4.13-12.63-10A11.26,11.26,0,0,1,114.12,25.92Z"/><path d="M70.28,26.44h9.43v21H70.28Z"/><path d="M136.34,47.27h-9V26.33h9Z"/><path d="M56.84,47.4a30.9,30.9,0,0,1-4,0,5.71,5.71,0,0,1-5.31-5.52c-.18-5.08,0-10.16,0-15.39h9.35Z"/><path d="M59.05,26.38h9.38V39.49c0,6.21-3,8.74-9.38,7.81Z"/><path d="M90.92,47.41H81.51V26.66c5.73-1.46,9.37,1.27,9.4,7.08C90.94,38.26,90.92,42.77,90.92,47.41Z"/><path d="M125.89,36.79H115.77c0-3.57,0-7.11,0-10.66C121.1,25.2,126.63,30.94,125.89,36.79Z"/><path d="M146.25,30.49a4.38,4.38,0,0,1-8.75.17,4.38,4.38,0,0,1,8.75-.17Z"/><text class="cls-1" transform="translate(149.55 25.56)">R</text><circle class="cls-2" cx="151.09" cy="24.07" r="2.53"/></svg>