<svg id="Layer_1" data-name="Layer 1" xmlns="http://www.w3.org/2000/svg" viewBox="0 0 164 68"><defs><style>.cls-1{fill:#010101;}</style></defs><path class="cls-1" d="M32.63,42.62l-1.26,1.27a.07.07,0,0,0-.08.07,12.64,12.64,0,0,1-4.57,2.59,12.71,12.71,0,0,1-13-3.55,1.8,1.8,0,0,1-.28-2.48A1.74,1.74,0,0,1,16,40.39a9.44,9.44,0,0,0,2.29,1.94,8.89,8.89,0,0,0,8.93.21,9,9,0,0,0,4.85-6.83,9.39,9.39,0,0,0-4.18-9.83,8.49,8.49,0,0,0-5.72-1.45,9.23,9.23,0,0,0-5.35,2.38,2.08,2.08,0,0,1-1.47.7,1.69,1.69,0,0,1-1.55-1,1.61,1.61,0,0,1,.3-1.9,12.59,12.59,0,0,1,3.38-2.4,12,12,0,0,1,8.53-.9,13,13,0,0,1,9.58,10.9,13.12,13.12,0,0,1-2.66,10c0,.06-.09.13-.15.2Z"/><path class="cls-1" d="M11.61,42.73a1.79,1.79,0,0,1,.61,2,2,2,0,0,1-1.33,1.16,2.22,2.22,0,0,1-1.54-.42,12.33,12.33,0,0,1-2.81-3.3A17.28,17.28,0,0,1,5,38.69c-.16-.81-.33-1.61-.49-2.43a.17.17,0,0,1,0-.07,24.53,24.53,0,0,1,0-4,.9.9,0,0,0,0-.16c.15-.72.29-1.43.44-2.15H5a1,1,0,0,1,0-.1.08.08,0,0,0,0-.08,8.48,8.48,0,0,0,.32-1A16.24,16.24,0,0,1,7,25.46a12.45,12.45,0,0,1,2.9-3.07,1.74,1.74,0,0,1,2.2,2.7A12,12,0,0,0,9.62,28a12.44,12.44,0,0,0-1.3,9.22A10.28,10.28,0,0,0,11.61,42.73Z"/><path class="cls-1" d="M31.3,44c0-.05,0-.07.08-.07Z"/><path class="cls-1" d="M94.55,28.93H95.9v1.32H94.55Zm0,2.36H95.9v5.58H94.55Z"/><path class="cls-1" d="M98,32.7c0-.48,0-1,0-1.41h1.3c0,.15,0,.61.06.78a1.71,1.71,0,0,1,1.66-.91c1.09,0,1.85.72,1.85,2.15v3.56h-1.35V33.46c0-.7-.25-1.19-1-1.19s-1.18.51-1.18,1.54v3.06H98Z"/><path class="cls-1" d="M104.22,31.29h.9V29.74h1.35v1.55h1.14v1h-1.14v2.92c0,.46.13.67.6.67a3,3,0,0,0,.4,0v1a3.17,3.17,0,0,1-1,.1c-1,0-1.38-.53-1.38-1.49V32.33h-.9Z"/><path class="cls-1" d="M110,34.36c0,.84.43,1.57,1.26,1.57a1,1,0,0,0,1.1-.69h1.35A2.39,2.39,0,0,1,111.18,37a2.56,2.56,0,0,1-2.58-2.85c0-1.72.88-3,2.64-3a2.44,2.44,0,0,1,2.51,2.73,3.54,3.54,0,0,1,0,.47Zm2.43-.86c0-.74-.34-1.35-1.16-1.35s-1.16.57-1.23,1.35Z"/><path class="cls-1" d="M115.43,32.8c0-.63,0-1.1,0-1.51h1.32c0,.14,0,.65,0,1a1.84,1.84,0,0,1,1.81-1.16v1.3c-1.12,0-1.81.39-1.81,1.88v2.53h-1.35Z"/><path class="cls-1" d="M120.14,32.7c0-.48,0-1,0-1.41h1.31a6.53,6.53,0,0,1,0,.78,1.71,1.71,0,0,1,1.66-.91c1.1,0,1.86.72,1.86,2.15v3.56h-1.35V33.46c0-.7-.25-1.19-1-1.19s-1.18.51-1.18,1.54v3.06h-1.35Z"/><path class="cls-1" d="M131.46,35.5a11.55,11.55,0,0,0,.08,1.37h-1.29a2.44,2.44,0,0,1-.08-.61,1.68,1.68,0,0,1-1.62.74,1.71,1.71,0,0,1-1.9-1.74c0-1.26,1-1.84,2.65-1.84h.84V33c0-.43-.14-.89-1-.89s-.89.34-1,.75h-1.29c.08-.92.65-1.75,2.31-1.74,1.45,0,2.24.58,2.24,1.89Zm-1.31-1.23h-.72c-1,0-1.42.29-1.42.91a.8.8,0,0,0,.89.83c1.11,0,1.25-.75,1.25-1.58Z"/><path class="cls-1" d="M132.83,31.29h.89V29.74h1.35v1.55h1.14v1h-1.14v2.92c0,.46.13.67.6.67a2.91,2.91,0,0,0,.4,0v1a3.14,3.14,0,0,1-1,.1c-1,0-1.38-.53-1.38-1.49V32.33h-.89Z"/><path class="cls-1" d="M137.63,28.93H139v1.32h-1.35Zm0,2.36H139v5.58h-1.35Z"/><path class="cls-1" d="M146,34.07a2.71,2.71,0,1,1-5.41,0,2.67,2.67,0,0,1,2.75-2.93A2.63,2.63,0,0,1,146,34.07Zm-4,0c0,1.12.51,1.85,1.34,1.85s1.32-.71,1.32-1.84-.48-1.86-1.34-1.86S142,32.87,142,34.08Z"/><path class="cls-1" d="M147.7,32.7c0-.48,0-1,0-1.41H149a6.53,6.53,0,0,1,.05.78,1.73,1.73,0,0,1,1.67-.91c1.09,0,1.85.72,1.85,2.15v3.56h-1.35V33.46c0-.7-.25-1.19-1-1.19s-1.18.51-1.18,1.54v3.06H147.7Z"/><path class="cls-1" d="M159,35.5a12.18,12.18,0,0,0,.07,1.37h-1.29a3,3,0,0,1-.08-.61,1.68,1.68,0,0,1-1.62.74,1.72,1.72,0,0,1-1.9-1.74c0-1.26,1-1.84,2.65-1.84h.85V33c0-.43-.15-.89-1-.89s-.89.34-1,.75h-1.29c.08-.92.65-1.75,2.31-1.74,1.45,0,2.25.58,2.25,1.89Zm-1.32-1.23H157c-1,0-1.42.29-1.42.91a.81.81,0,0,0,.9.83c1.1,0,1.24-.75,1.24-1.58Z"/><path class="cls-1" d="M161,36.87V28.93h1.35v7.94Z"/><path class="cls-1" d="M38.09,25h4.6v4.15h3V25h4.54V36.67H45.68V32.25h-3v4.42H38.09Z"/><path class="cls-1" d="M55.36,25.2v7.62a1.2,1.2,0,0,0,1.27,1.28c.62,0,1.13,0,1.25-1.31L58,25.2h2.76l1.6,7c0,4.11-2.62,5-6.05,5-3.59,0-5.31-1.64-5.31-5.12V25.2Z"/><path class="cls-1" d="M63.78,36.73,61.22,25.09l4-.14c.4,2.09.76,4,1.38,6.85h0c.88-2.91,1.26-4.25,2-6.73l4.08,0c.72,2.53,1.28,4,2.06,6.72h0c.48-2,1.2-4.86,1.52-6.89l3.9.14L76.75,36.73H72.42c-.67-2.11-1.28-4.72-1.88-7.08h0c-.55,2.14-1.46,4.91-2,7.08Z"/><path class="cls-1" d="M82.32,34.28l-.68,2.59H77.13l4.4-12h5.71l4.37,12H86.79l-.66-2.57Zm3.24-2.84c-.25-.9-.91-2.74-1.27-3.81h-.1c-.33,1.36-.84,2.73-1,3.81Z"/><path class="cls-1" d="M38.74,43.55V46h-.58V39.6h.56c0,.17,0,.44,0,.78a1.56,1.56,0,0,1,1.49-.89c1,0,1.74.9,1.74,2.28,0,1.64-.84,2.52-1.89,2.52A1.38,1.38,0,0,1,38.74,43.55Zm2.63-1.75c0-1-.46-1.76-1.27-1.76-1,0-1.39.65-1.39,1.84S39,43.75,40,43.75,41.37,43,41.37,41.8Z"/><path class="cls-1" d="M47.88,37.49h.58v.93h-.58Zm0,2.11h.58v4.58h-.58Z"/><path class="cls-1" d="M55.32,43.55V46h-.58V40.72c0-.37,0-.77,0-1.12h.57c0,.17,0,.44,0,.78a1.54,1.54,0,0,1,1.48-.89c1,0,1.75.9,1.75,2.28,0,1.64-.84,2.52-1.9,2.52A1.37,1.37,0,0,1,55.32,43.55Zm2.62-1.75c0-1-.46-1.76-1.27-1.76-1,0-1.38.65-1.38,1.84s.32,1.87,1.33,1.87C57.47,43.75,57.94,43,57.94,41.8Z"/><path class="cls-1" d="M64.45,44.18V37.49H65v6.69Z"/><path class="cls-1" d="M71.27,37.49h.58v.93h-.58Zm0,2.11h.58v4.58h-.58Z"/><path class="cls-1" d="M78.13,40.76V39.6h.56c0,.14,0,.69,0,.82a1.39,1.39,0,0,1,1.41-.93c.8,0,1.46.49,1.46,1.73v3H81V41.31c0-.76-.29-1.26-1-1.26-.94,0-1.28.79-1.28,1.75v2.38h-.59Z"/><path class="cls-1" d="M88.08,42c0,1.06.52,1.76,1.31,1.76A1.12,1.12,0,0,0,90.55,43h.59a1.73,1.73,0,0,1-1.77,1.33c-1.35,0-1.88-1.19-1.88-2.36,0-1.33.63-2.44,1.93-2.44a1.9,1.9,0,0,1,1.82,2.12c0,.13,0,.26,0,.38Zm2.56-.48c0-.83-.43-1.5-1.23-1.5s-1.22.62-1.3,1.5Z"/><path class="cls-1" d="M100.71,43.55V46h-.58V40.72c0-.37,0-.77,0-1.12h.57c0,.17,0,.44,0,.78a1.56,1.56,0,0,1,1.49-.89c1,0,1.74.9,1.74,2.28,0,1.64-.84,2.52-1.9,2.52A1.38,1.38,0,0,1,100.71,43.55Zm2.62-1.75c0-1-.45-1.76-1.26-1.76-1,0-1.39.65-1.39,1.84s.32,1.87,1.33,1.87C102.86,43.75,103.33,43,103.33,41.8Z"/><path class="cls-1" d="M109.39,40.85V39.6H110c0,.14,0,.46,0,1a1.62,1.62,0,0,1,1.5-1.1v.63a1.54,1.54,0,0,0-1.5,1.75v2.31h-.58Z"/><path class="cls-1" d="M120.4,41.88c0,1.3-.69,2.41-2,2.41s-2-1-2-2.4.71-2.4,2-2.4S120.4,40.45,120.4,41.88Zm-3.36,0c0,1,.52,1.86,1.38,1.86s1.37-.76,1.37-1.86S119.31,40,118.41,40,117,40.82,117,41.89Z"/><path class="cls-1" d="M129.33,37.49v5.38c0,.44,0,.86,0,1.31h-.56c0-.12,0-.51,0-.71a1.38,1.38,0,0,1-1.42.82c-1.13,0-1.81-1-1.81-2.35s.74-2.45,1.94-2.45a1.28,1.28,0,0,1,1.29.64V37.49Zm-3.2,4.43c0,1.19.56,1.83,1.28,1.83,1.09,0,1.37-.81,1.37-2s-.24-1.77-1.3-1.77C126.66,40,126.13,40.72,126.13,41.92Z"/><path class="cls-1" d="M138.48,42.84c0,.45,0,1.12,0,1.34h-.56a6.22,6.22,0,0,1,0-.75,1.32,1.32,0,0,1-1.37.86c-.67,0-1.43-.32-1.43-1.67v-3h.57v2.89c0,.63.19,1.24,1,1.24s1.24-.53,1.24-1.76V39.6h.58Z"/><path class="cls-1" d="M147.58,42.81a1.73,1.73,0,0,1-1.74,1.48c-1.15,0-1.91-.88-1.91-2.38,0-1.27.67-2.42,2-2.42a1.63,1.63,0,0,1,1.69,1.5H147a1.1,1.1,0,0,0-1.12-1c-.86,0-1.34.76-1.34,1.86s.46,1.87,1.3,1.87a1.15,1.15,0,0,0,1.15-.95Z"/><path class="cls-1" d="M152.35,39.6h.78V38.21h.59V39.6h1v.53h-1V43c0,.48.1.75.51.75a1.55,1.55,0,0,0,.42,0v.49a1.68,1.68,0,0,1-.6.08c-.61,0-.92-.32-.92-1.07v-3h-.78Z"/><path class="cls-1" d="M160.14,42.9a1.07,1.07,0,0,0,1.16.87c.71,0,1-.33,1-.8s-.21-.71-1.12-.94c-1.18-.3-1.45-.68-1.45-1.29s.45-1.25,1.5-1.25a1.44,1.44,0,0,1,1.58,1.3h-.57a1,1,0,0,0-1-.79c-.69,0-.9.36-.9.69s.2.58,1,.79c1.28.32,1.56.76,1.56,1.44s-.62,1.37-1.62,1.37a1.57,1.57,0,0,1-1.73-1.39Z"/></svg>