<svg id="Layer_1" data-name="Layer 1" xmlns="http://www.w3.org/2000/svg" viewBox="0 0 164 68"><defs><style>.cls-1{font-size:3.83px;}.cls-1,.cls-3,.cls-4{fill:#010101;}.cls-1,.cls-3{font-family:AraESNawar-Regular, Nawar Font;}.cls-2{fill:none;stroke:#000;stroke-miterlimit:10;stroke-width:0.25px;}.cls-3{font-size:23.22px;}</style></defs><text class="cls-1" transform="translate(155.35 21.91)">R</text><circle class="cls-2" cx="156.53" cy="20.77" r="1.94"/><text class="cls-3" transform="translate(38.37 38.46) scale(1.14 1)">LEONARD</text><path class="cls-4" d="M42.49,46.42l-1.55-4h.35l1.48,3.81h-.18l1.52-3.81h.32l1.5,3.81h-.17l1.48-3.81h.33l-1.54,4h-.35l-1.46-3.69h.08l-1.46,3.69Z"/><path class="cls-4" d="M47.63,46.42l2.1-4h.33l2.1,4H51.8l-2-3.81H50l-2,3.81Zm.77-1.13.11-.24h2.73l.11.24Z"/><path class="cls-4" d="M53.63,46.42V42.69H52v-.26H55.6v.26H54v3.73Z"/><path class="cls-4" d="M56.42,46.42v-4h3v.26H56.75v3.46h2.82v.27Zm.3-1.9v-.26h2.46v.26Z"/><path class="cls-4" d="M60.78,46.42v-4h1.63a2.33,2.33,0,0,1,1.35.35,1.18,1.18,0,0,1,.49,1,1.23,1.23,0,0,1-.22.72,1.41,1.41,0,0,1-.64.46,2.61,2.61,0,0,1-1,.16H61l.15-.13v1.44ZM61.11,45,61,44.85h1.45a1.87,1.87,0,0,0,1.12-.28,1,1,0,0,0,0-1.6,1.87,1.87,0,0,0-1.12-.28H61l.15-.14Zm2.83,1.43L62.76,45h.37l1.19,1.45Z"/><path class="cls-4" d="M68,46.42V42.69H66.37v-.26H70v.26H68.34v3.73Z"/><path class="cls-4" d="M70.8,46.42v-4h3v.26H71.13v3.46H74v.27Zm.29-1.9v-.26h2.47v.26Z"/><path class="cls-4" d="M75.16,46.42v-4h.28l2.11,3.19H77.4l2.11-3.19h.28v4h-.32V42.87h.09l-2,3h-.16l-2-3h.1v3.55Z"/><path class="cls-4" d="M81.38,46.42v-4H83a2.67,2.67,0,0,1,1,.16,1.37,1.37,0,0,1,.63.46,1.29,1.29,0,0,1,0,1.44A1.37,1.37,0,0,1,84,45a2.67,2.67,0,0,1-1,.16H81.56l.15-.13v1.44ZM81.71,45l-.15-.14H83a1.85,1.85,0,0,0,1.12-.28,1,1,0,0,0,0-1.6A1.85,1.85,0,0,0,83,42.69H81.56l.15-.14Z"/><path class="cls-4" d="M86,46.42v-4h3v.26H86.3v3.46h2.81v.27Zm.29-1.9v-.26h2.47v.26Z"/><path class="cls-4" d="M90.32,46.42v-4H92a2.33,2.33,0,0,1,1.35.35,1.27,1.27,0,0,1,.26,1.71,1.44,1.44,0,0,1-.63.46,2.61,2.61,0,0,1-1,.16H90.51l.15-.13v1.44ZM90.66,45l-.15-.14H92a1.87,1.87,0,0,0,1.12-.28,1,1,0,0,0,0-1.6A1.87,1.87,0,0,0,92,42.69H90.51l.15-.14Zm2.83,1.43L92.3,45h.38l1.19,1.45Z"/><path class="cls-4" d="M94.25,46.42l2.1-4h.33l2.09,4h-.35l-2-3.81h.14l-2,3.81ZM95,45.29l.11-.24h2.73l.11.24Z"/><path class="cls-4" d="M100.24,46.42V42.69H98.6v-.26h3.62v.26h-1.64v3.73Z"/><path class="cls-4" d="M104.72,46.44a1.92,1.92,0,0,1-1.33-.43,1.62,1.62,0,0,1-.49-1.29V42.43h.33v2.28a1.44,1.44,0,0,0,.39,1.11,1.88,1.88,0,0,0,2.21,0,1.44,1.44,0,0,0,.39-1.11V42.43h.33v2.29a1.62,1.62,0,0,1-.49,1.29A1.93,1.93,0,0,1,104.72,46.44Z"/><path class="cls-4" d="M108.1,46.42v-4h1.64a2.27,2.27,0,0,1,1.34.35,1.26,1.26,0,0,1,.27,1.71,1.44,1.44,0,0,1-.63.46,2.61,2.61,0,0,1-1,.16h-1.46l.15-.13v1.44Zm.33-1.43-.15-.14h1.46a1.82,1.82,0,0,0,1.11-.28,1,1,0,0,0,0-1.6,1.82,1.82,0,0,0-1.11-.28h-1.46l.15-.14Zm2.84,1.43L110.08,45h.38l1.18,1.45Z"/><path class="cls-4" d="M112.79,46.42v-4h3v.26h-2.71v3.46h2.81v.27Zm.29-1.9v-.26h2.47v.26Z"/><path class="cls-4" d="M120.74,46.44a2.65,2.65,0,0,1-.94-.15,2.28,2.28,0,0,1-.75-.42,1.89,1.89,0,0,1-.49-.64,1.85,1.85,0,0,1-.18-.81,1.77,1.77,0,0,1,.18-.8,1.8,1.8,0,0,1,.49-.64,2.27,2.27,0,0,1,.76-.43,2.79,2.79,0,0,1,.93-.15,2.71,2.71,0,0,1,.91.14,1.92,1.92,0,0,1,.71.41l-.2.19a1.74,1.74,0,0,0-.65-.36,2.6,2.6,0,0,0-1.56,0,2.13,2.13,0,0,0-.66.37,1.65,1.65,0,0,0-.42.56,1.46,1.46,0,0,0-.16.69,1.53,1.53,0,0,0,.16.7,1.76,1.76,0,0,0,.42.56,2.13,2.13,0,0,0,.66.37,2.6,2.6,0,0,0,1.56,0,1.92,1.92,0,0,0,.65-.37l.2.19a2.09,2.09,0,0,1-.71.42A3,3,0,0,1,120.74,46.44Z"/><path class="cls-4" d="M125.12,46.44a2.58,2.58,0,0,1-.94-.15,2.44,2.44,0,0,1-.76-.42,2.1,2.1,0,0,1-.5-.65,1.91,1.91,0,0,1-.17-.8,1.94,1.94,0,0,1,.17-.8,2.06,2.06,0,0,1,.5-.64,2.27,2.27,0,0,1,.76-.43,2.81,2.81,0,0,1,.94-.15,2.85,2.85,0,0,1,.94.15,2.13,2.13,0,0,1,.75.43,2,2,0,0,1,.5.64,1.77,1.77,0,0,1,.18.8,1.85,1.85,0,0,1-.18.81,2.06,2.06,0,0,1-.5.64,2.28,2.28,0,0,1-.75.42A2.61,2.61,0,0,1,125.12,46.44Zm0-.26a2.53,2.53,0,0,0,.8-.13,2,2,0,0,0,.65-.37,2,2,0,0,0,.43-.56,1.71,1.71,0,0,0,0-1.4,1.91,1.91,0,0,0-.43-.55,2,2,0,0,0-.65-.37,2.28,2.28,0,0,0-.8-.13,2.37,2.37,0,0,0-.81.13,2.08,2.08,0,0,0-.65.37,1.75,1.75,0,0,0-.43.55,1.71,1.71,0,0,0,0,1.4,1.79,1.79,0,0,0,.43.56,2.08,2.08,0,0,0,.65.37A2.64,2.64,0,0,0,125.12,46.18Z"/><path class="cls-4" d="M128.64,46.42v-4h.28l3.25,3.63H132V42.43h.33v4h-.27l-3.26-3.63H129v3.63Z"/><path class="cls-4" d="M134.81,46.42V42.69h-1.64v-.26h3.61v.26h-1.64v3.73Z"/><path class="cls-4" d="M137.6,46.42v-4h1.64a2.27,2.27,0,0,1,1.34.35,1.26,1.26,0,0,1,.27,1.71,1.44,1.44,0,0,1-.63.46,2.61,2.61,0,0,1-1,.16h-1.45l.14-.13v1.44Zm.33-1.43-.14-.14h1.45a1.82,1.82,0,0,0,1.11-.28,1,1,0,0,0,0-1.6,1.82,1.82,0,0,0-1.11-.28h-1.45l.14-.14Zm2.84,1.43L139.58,45H140l1.18,1.45Z"/><path class="cls-4" d="M144.22,46.44a2.61,2.61,0,0,1-.94-.15,2.28,2.28,0,0,1-.75-.42,2,2,0,0,1-.5-.65,1.77,1.77,0,0,1-.18-.8,1.8,1.8,0,0,1,.18-.8,1.92,1.92,0,0,1,.5-.64,2.13,2.13,0,0,1,.75-.43,2.85,2.85,0,0,1,.94-.15,2.81,2.81,0,0,1,.94.15,2.27,2.27,0,0,1,.76.43,1.92,1.92,0,0,1,.49.64,1.77,1.77,0,0,1,.18.8,1.85,1.85,0,0,1-.18.81,2,2,0,0,1-.49.64,2.44,2.44,0,0,1-.76.42A2.58,2.58,0,0,1,144.22,46.44Zm0-.26a2.64,2.64,0,0,0,.81-.13,1.92,1.92,0,0,0,.64-.37,1.67,1.67,0,0,0,.43-2,1.62,1.62,0,0,0-.43-.55,1.92,1.92,0,0,0-.64-.37,2.37,2.37,0,0,0-.81-.13,2.28,2.28,0,0,0-.8.13,2,2,0,0,0-.65.37,1.62,1.62,0,0,0-.43.55,1.65,1.65,0,0,0,.43,2,2,2,0,0,0,.65.37A2.53,2.53,0,0,0,144.22,46.18Z"/><path class="cls-4" d="M147.74,46.42v-4h.34v3.72h2.62v.27Z"/><path class="cls-4" d="M152.69,46.44a2.76,2.76,0,0,1-1-.15,1.71,1.71,0,0,1-.7-.39l.14-.21a1.81,1.81,0,0,0,.65.35,2.47,2.47,0,0,0,.86.15,2.18,2.18,0,0,0,.74-.11.87.87,0,0,0,.43-.28.59.59,0,0,0,.14-.39.56.56,0,0,0-.15-.41,1.19,1.19,0,0,0-.41-.25,4.14,4.14,0,0,0-.56-.15l-.6-.13a2.83,2.83,0,0,1-.56-.19,1.09,1.09,0,0,1-.41-.31.81.81,0,0,1-.15-.51.87.87,0,0,1,.17-.52,1.17,1.17,0,0,1,.53-.39,2.34,2.34,0,0,1,.91-.15,2.76,2.76,0,0,1,.75.1,2.25,2.25,0,0,1,.63.26L154,43a2.18,2.18,0,0,0-.61-.25,2.39,2.39,0,0,0-.64-.08,2.12,2.12,0,0,0-.72.1,1,1,0,0,0-.42.29.67.67,0,0,0-.14.4.56.56,0,0,0,.15.41,1.05,1.05,0,0,0,.41.25,4.14,4.14,0,0,0,.56.15l.61.14a3,3,0,0,1,.55.18,1.09,1.09,0,0,1,.41.31.81.81,0,0,1,.16.5.84.84,0,0,1-.18.52,1.26,1.26,0,0,1-.54.39A2.44,2.44,0,0,1,152.69,46.44Z"/><path class="cls-4" d="M35,26.37a13.77,13.77,0,0,1-7.55,2.12c-5.71-.21-8.09-4.49-14-4.91A15,15,0,0,0,5.53,25.4l.1,10a13.36,13.36,0,0,1,5.06-1.71c7.38-.89,11.39,5.29,18.49,4.58a13.19,13.19,0,0,0,6.27-2.44l-.09-9.62Z"/><path class="cls-4" d="M35,37.85A13.77,13.77,0,0,1,27.46,40c-5.71-.21-8.09-4.49-14-4.91a15,15,0,0,0-7.95,1.82l.1,10a13.36,13.36,0,0,1,5.06-1.71c7.38-.88,11.39,5.29,18.49,4.58a13.19,13.19,0,0,0,6.27-2.44l-.09-9.62Z"/></svg>