<svg id="Layer_1" data-name="Layer 1" xmlns="http://www.w3.org/2000/svg" viewBox="0 0 164 68"><defs><style>.cls-1{font-size:3.52px;font-family:AraESNawar-Regular, Nawar Font;}.cls-1,.cls-3{fill:#010101;}.cls-2{fill:none;stroke:#000;stroke-miterlimit:10;stroke-width:0.25px;}.cls-4{fill:#fff;}</style></defs><text class="cls-1" transform="translate(157.89 31.04)">R</text><circle class="cls-2" cx="158.98" cy="29.99" r="1.78"/><path class="cls-3" d="M37.4,33.44a4.9,4.9,0,0,1,3.92-2,3.83,3.83,0,0,1,3.53,2,4.86,4.86,0,0,1,3.82-2,3.7,3.7,0,0,1,3.74,2.23,6.71,6.71,0,0,1,.36,2.59v8H49.45V37.09c0-2.47-.5-3.12-1.75-3.12a2.31,2.31,0,0,0-2.2,1.68,8.48,8.48,0,0,0-.28,2.58v6h-3.3V37.39A9.73,9.73,0,0,0,41.75,35,1.45,1.45,0,0,0,40.19,34a2.33,2.33,0,0,0-2.27,1.62,9,9,0,0,0-.26,2.56v6.1h-3.3V31.73h3Z"/><path class="cls-3" d="M55.53,35c.68-2.42,2.17-3.58,5.42-3.58,3,0,4.25.79,4.84,1.86a6.91,6.91,0,0,1,.42,3v3.88a7.69,7.69,0,0,0,.75,4.1H63.67c-.08-.23-.19-.55-.32-1a3.27,3.27,0,0,0-.12-.39,5.38,5.38,0,0,1-3.86,1.65c-2.61,0-4.17-1.54-4.17-3.69a3.39,3.39,0,0,1,1.91-3.17,10.75,10.75,0,0,1,2.65-.76A18.71,18.71,0,0,0,63,36.07v-.33c0-1.25-.49-1.77-2.26-1.77a2,2,0,0,0-2.18,1.58ZM63,38.23a17.59,17.59,0,0,1-2,.51,6.49,6.49,0,0,0-1.8.58,1.41,1.41,0,0,0-.65,1.18,1.76,1.76,0,0,0,1.85,1.7,2.58,2.58,0,0,0,2.49-1.69A6.24,6.24,0,0,0,63,38.9Z"/><path class="cls-3" d="M77.89,44.25V42.4A4.79,4.79,0,0,1,74,44.52c-2.89,0-5.24-2.43-5.24-6.58S71,31.43,74,31.43a4.7,4.7,0,0,1,3.64,1.76V27H81v17.3Zm-5.76-6.53c0,2.68.89,4.2,2.79,4.2,1.52,0,2.75-1.32,2.75-3.88,0-2.89-1.18-4.07-2.76-4.07S72.13,35.25,72.13,37.72Z"/><path class="cls-3" d="M92.65,44.25V42.4a4.82,4.82,0,0,1-3.92,2.12c-2.88,0-5.24-2.43-5.24-6.58s2.24-6.51,5.28-6.51a4.7,4.7,0,0,1,3.64,1.76V27h3.32v17.3Zm-5.77-6.53c0,2.68.89,4.2,2.79,4.2,1.52,0,2.75-1.32,2.75-3.88,0-2.89-1.17-4.07-2.76-4.07S86.88,35.25,86.88,37.72Z"/><path class="cls-3" d="M98.45,35c.68-2.42,2.18-3.58,5.43-3.58,3,0,4.24.79,4.83,1.86a6.91,6.91,0,0,1,.42,3v3.88a7.69,7.69,0,0,0,.75,4.1h-3.29c-.08-.23-.19-.55-.32-1,0-.19-.09-.32-.11-.39a5.41,5.41,0,0,1-3.87,1.65c-2.61,0-4.17-1.54-4.17-3.69A3.38,3.38,0,0,1,100,37.66a10.52,10.52,0,0,1,2.64-.76,19.16,19.16,0,0,0,3.23-.83v-.33c0-1.25-.5-1.77-2.27-1.77a2,2,0,0,0-2.18,1.58Zm7.46,3.22a18.76,18.76,0,0,1-2,.51,6.59,6.59,0,0,0-1.81.58,1.41,1.41,0,0,0-.65,1.18,1.76,1.76,0,0,0,1.85,1.7,2.58,2.58,0,0,0,2.49-1.69,6.11,6.11,0,0,0,.15-1.61Z"/><path class="cls-3" d="M112.4,44.25V27h2.86v17.3Z"/><path class="cls-3" d="M135.58,33.55a5,5,0,0,1,4.13-2.12,4.34,4.34,0,0,1,3.37,1.42c.61.81.83,1.67.83,3.61v7.79h-3.32V37.87a10.88,10.88,0,0,0-.2-2.64A1.87,1.87,0,0,0,138.54,34a2.54,2.54,0,0,0-2.48,1.73,11,11,0,0,0-.24,2.87v5.68h-3.33V31.73h3.09Z"/><path class="cls-3" d="M146.73,35c.68-2.42,2.17-3.58,5.42-3.58,3,0,4.25.79,4.84,1.86a6.91,6.91,0,0,1,.42,3v3.88a7.69,7.69,0,0,0,.75,4.1h-3.29c-.08-.23-.19-.55-.32-1a3.27,3.27,0,0,0-.12-.39,5.38,5.38,0,0,1-3.86,1.65c-2.61,0-4.17-1.54-4.17-3.69a3.39,3.39,0,0,1,1.91-3.17A10.75,10.75,0,0,1,151,36.9a19.16,19.16,0,0,0,3.23-.83v-.33c0-1.25-.5-1.77-2.27-1.77a2,2,0,0,0-2.18,1.58Zm7.46,3.22a18.46,18.46,0,0,1-2,.51,6.49,6.49,0,0,0-1.8.58,1.41,1.41,0,0,0-.65,1.18,1.76,1.76,0,0,0,1.85,1.7A2.58,2.58,0,0,0,154,40.51a6.11,6.11,0,0,0,.15-1.61Z"/><path class="cls-3" d="M126.75,40.52a2.09,2.09,0,0,1-1.5-1.14c1.86-1.62,3.72-3.22,5.59-4.83a6.87,6.87,0,0,0-8.41-2.71A6.54,6.54,0,0,0,120,33.69a6.7,6.7,0,0,0-1.28,6.46c1,3,4.18,4.34,6.74,4.32a7.69,7.69,0,0,0,5-2.09c-.54-1.05-1.09-2.11-1.63-3.18A1.89,1.89,0,0,1,126.75,40.52Zm-3.07-6.32a2.76,2.76,0,0,1,3.88,0l-1.93,1.95-2,1.91A2.78,2.78,0,0,1,123.68,34.2Z"/><circle class="cls-3" cx="14.4" cy="38.1" r="11.95"/><path class="cls-4" d="M15.5,44.25H10.78L13,32.49l3,0a1.52,1.52,0,0,1,1.48,1.82Z"/><path class="cls-4" d="M22.31,40.75l1.3-6.41a1.52,1.52,0,0,0-1.47-1.82l-3,0L16.87,44.25h7.78l.61-1.18c.1-.19.45-1.12.53-1.33l.23-.88Z"/><path class="cls-4" d="M9.82,32.27l-3-.08H4l-.61,1.2c-.13.26-.4,1.13-.49,1.41l-.22.94,3.62,0L5.13,44.25H9.51l1.54-10.52A1.27,1.27,0,0,0,9.82,32.27Z"/></svg>