<svg id="Layer_1" data-name="Layer 1" xmlns="http://www.w3.org/2000/svg" viewBox="0 0 164 68"><defs><style>.cls-1{fill:#010101;}</style></defs><path class="cls-1" d="M32.9,54.71H29.71V46.85A5.53,5.53,0,0,0,29,43.67a2.35,2.35,0,0,0-2-1,3.48,3.48,0,0,0-1.39.28,3.28,3.28,0,0,0-1.09.79A3.57,3.57,0,0,0,23.76,45a5.47,5.47,0,0,0-.29,1.68v8.05h-3.2V46.85a5.53,5.53,0,0,0-.72-3.18,2.37,2.37,0,0,0-2-1A3.45,3.45,0,0,0,16.1,43a2.93,2.93,0,0,0-1.11.83,4,4,0,0,0-.71,1.33A5.8,5.8,0,0,0,14,46.89v7.82H10.85V40.11h2.59l.22,1.35a6,6,0,0,1,1.85-1.26,7.3,7.3,0,0,1,1.17-.39,6.16,6.16,0,0,1,1.3-.14,5.3,5.3,0,0,1,2.5.58,5,5,0,0,1,1.81,1.65A6.82,6.82,0,0,1,23.2,41a6.25,6.25,0,0,1,1.14-.71,7,7,0,0,1,1.38-.48,6.76,6.76,0,0,1,1.6-.18,5.57,5.57,0,0,1,2.37.48,4.59,4.59,0,0,1,1.75,1.37,6.23,6.23,0,0,1,1.09,2.22,11.43,11.43,0,0,1,.37,3Z"/><path class="cls-1" d="M34.65,47.29a8.46,8.46,0,0,1,.56-3.11,7.82,7.82,0,0,1,1.57-2.53,7.29,7.29,0,0,1,5.43-2.33,7.54,7.54,0,0,1,3.06.62,7.4,7.4,0,0,1,2.4,1.71,8,8,0,0,1,1.58,2.53,8.46,8.46,0,0,1,.57,3.11,4.51,4.51,0,0,1,0,.58c0,.15,0,.29,0,.42H37.84A5.24,5.24,0,0,0,38.42,50a4.86,4.86,0,0,0,1,1.26,4.32,4.32,0,0,0,1.31.8,4.07,4.07,0,0,0,1.49.29,3.91,3.91,0,0,0,3.53-2.12h3.51a7.65,7.65,0,0,1-1,1.91,7.87,7.87,0,0,1-1.55,1.61,7.19,7.19,0,0,1-4.55,1.53,7.39,7.39,0,0,1-5.43-2.33,7.82,7.82,0,0,1-1.57-2.53A8.31,8.31,0,0,1,34.65,47.29Zm7.59-5.13a4.19,4.19,0,0,0-2.79,1,4.78,4.78,0,0,0-.94,1.15,5.43,5.43,0,0,0-.58,1.45h8.46a5.39,5.39,0,0,0-.56-1.45,4.88,4.88,0,0,0-.9-1.15,4.09,4.09,0,0,0-1.21-.75A4,4,0,0,0,42.24,42.16Z"/><path class="cls-1" d="M51.29,47.54a8.27,8.27,0,0,1,.53-3,7.3,7.3,0,0,1,1.5-2.43,7,7,0,0,1,2.35-1.63,7.5,7.5,0,0,1,3-.6,6.64,6.64,0,0,1,2.68.51,7.54,7.54,0,0,1,2,1.31V35.07h3.3V54.71H63.89L63.69,53a6.35,6.35,0,0,1-.95.83,6.19,6.19,0,0,1-1.15.67,7.71,7.71,0,0,1-1.33.46,6.54,6.54,0,0,1-1.49.16,7.51,7.51,0,0,1-3.05-.6,7.07,7.07,0,0,1-2.36-1.63,7.39,7.39,0,0,1-1.53-2.42A8.06,8.06,0,0,1,51.29,47.54Zm3.3,0A4.82,4.82,0,0,0,55,49.42a4.44,4.44,0,0,0,1,1.49,4.5,4.5,0,0,0,1.43,1,4.44,4.44,0,0,0,1.75.34,4.39,4.39,0,0,0,1.74-.34,4.24,4.24,0,0,0,1.42-1,4.5,4.5,0,0,0,1-1.48,4.87,4.87,0,0,0,.36-1.9,4.81,4.81,0,0,0-.36-1.88,4.37,4.37,0,0,0-2.39-2.43,4.45,4.45,0,0,0-1.75-.35,4.68,4.68,0,0,0-1.76.34,4.22,4.22,0,0,0-1.42,1,4.49,4.49,0,0,0-1,1.47A5,5,0,0,0,54.59,47.53Z"/><path class="cls-1" d="M69.29,40h3V54.71h-3Z"/><path class="cls-1" d="M69.29,34.87h3v3h-3Z"/><path class="cls-1" d="M76.19,47.32a6.3,6.3,0,0,0,.48,2.5,5.66,5.66,0,0,0,1.27,1.9,5.4,5.4,0,0,0,1.84,1.21,5.69,5.69,0,0,0,2.16.42,5.58,5.58,0,0,0,1.58-.22,5.26,5.26,0,0,0,1.41-.62,5.1,5.1,0,0,0,1.18-1,6.27,6.27,0,0,0,.9-1.3h2.27A7.28,7.28,0,0,1,88.2,52.3a7.18,7.18,0,0,1-1.66,1.64A7.61,7.61,0,0,1,84.41,55a7.87,7.87,0,0,1-2.49.39,7.63,7.63,0,0,1-3.14-.64A7.78,7.78,0,0,1,76.26,53a7.93,7.93,0,0,1-1.67-2.56,8.49,8.49,0,0,1,0-6.32,8,8,0,0,1,1.67-2.56,7.81,7.81,0,0,1,5.66-2.36,8,8,0,0,1,2.48.37,7.42,7.42,0,0,1,2.12,1.07,7.87,7.87,0,0,1,1.66,1.65,8.12,8.12,0,0,1,1.11,2.1H87a5.77,5.77,0,0,0-.89-1.32,5.55,5.55,0,0,0-1.19-1,5.28,5.28,0,0,0-1.41-.63,6,6,0,0,0-1.58-.22,5.69,5.69,0,0,0-2.16.42,5.58,5.58,0,0,0-1.84,1.22,5.76,5.76,0,0,0-1.27,1.9A6.23,6.23,0,0,0,76.19,47.32Z"/><path class="cls-1" d="M91.09,34.62H93.3V55H91.09Z"/><path class="cls-1" d="M95.24,39.66h2.23V55H95.24Z"/><path class="cls-1" d="M95.24,34.74h2.23v2.89H95.24Z"/><path class="cls-1" d="M114.51,39.66h2.22V55h-2.22Z"/><path class="cls-1" d="M114.51,34.74h2.22v2.89h-2.22Z"/><path class="cls-1" d="M112.72,55h-2.09V46.7a9.19,9.19,0,0,0-.29-2.45,4.42,4.42,0,0,0-.86-1.69,3.4,3.4,0,0,0-1.39-1,5.39,5.39,0,0,0-1.87-.31,4.46,4.46,0,0,0-1.85.4,4.51,4.51,0,0,0-1.51,1.13,5.66,5.66,0,0,0-1,1.75,6.38,6.38,0,0,0-.37,2.24V55H99.4V39.66h1.73l.19,2.25a6.65,6.65,0,0,1,1-1,6.57,6.57,0,0,1,1.23-.85,6.71,6.71,0,0,1,1.41-.57,5.87,5.87,0,0,1,1.56-.21,5.77,5.77,0,0,1,4.69,1.86,8.58,8.58,0,0,1,1.55,5.57Z"/><path class="cls-1" d="M120.11,47.32a6.3,6.3,0,0,0,.48,2.5,5.66,5.66,0,0,0,1.27,1.9,5.4,5.4,0,0,0,1.84,1.21,5.69,5.69,0,0,0,2.16.42,5.58,5.58,0,0,0,1.58-.22,5.26,5.26,0,0,0,1.41-.62,5.1,5.1,0,0,0,1.18-1,6.27,6.27,0,0,0,.9-1.3h2.27a7.28,7.28,0,0,1-1.08,2.09,7.18,7.18,0,0,1-1.66,1.64A7.61,7.61,0,0,1,128.33,55a7.91,7.91,0,0,1-2.49.39,7.63,7.63,0,0,1-3.14-.64A7.78,7.78,0,0,1,120.18,53a7.93,7.93,0,0,1-1.67-2.56,8.49,8.49,0,0,1,0-6.32,8,8,0,0,1,1.67-2.56,7.81,7.81,0,0,1,5.66-2.36,8.09,8.09,0,0,1,2.48.37,7.42,7.42,0,0,1,2.12,1.07,7.87,7.87,0,0,1,1.66,1.65,8.12,8.12,0,0,1,1.11,2.1h-2.28a5.77,5.77,0,0,0-.89-1.32,5.55,5.55,0,0,0-1.19-1,5.28,5.28,0,0,0-1.41-.63,6,6,0,0,0-1.58-.22,5.69,5.69,0,0,0-2.16.42,5.58,5.58,0,0,0-1.84,1.22,5.76,5.76,0,0,0-1.27,1.9A6.23,6.23,0,0,0,120.11,47.32Z"/><path class="cls-1" d="M136,50.6a2.65,2.65,0,0,0,.23,1.08,3.08,3.08,0,0,0,.6.9,2.94,2.94,0,0,0,.88.63,2.52,2.52,0,0,0,1.06.23,3.42,3.42,0,0,0,2.39-.74,2.63,2.63,0,0,0,.79-2,2.28,2.28,0,0,0-.25-1.13,2.09,2.09,0,0,0-.67-.75,3.87,3.87,0,0,0-1.06-.5q-.62-.2-1.38-.36a10,10,0,0,1-1.29-.31,4,4,0,0,1-1.24-.64,3.3,3.3,0,0,1-.92-1.19,4.45,4.45,0,0,1-.37-2A6.74,6.74,0,0,1,135,42.1a4.18,4.18,0,0,1,.75-1.47,3.7,3.7,0,0,1,1.36-1,5,5,0,0,1,2-.37,3.74,3.74,0,0,1,1.63.34,3.59,3.59,0,0,1,1.25.93,4.08,4.08,0,0,1,.79,1.4,5.4,5.4,0,0,1,.28,1.78h-1.59a3,3,0,0,0-.2-1,2.61,2.61,0,0,0-.51-.8,2.35,2.35,0,0,0-.77-.51,2.64,2.64,0,0,0-1-.18,3.17,3.17,0,0,0-1.25.22A2.16,2.16,0,0,0,137,42a2.29,2.29,0,0,0-.47.85,3.45,3.45,0,0,0-.14,1,2.2,2.2,0,0,0,.19,1,1.91,1.91,0,0,0,.59.68,3.28,3.28,0,0,0,1,.44,9.9,9.9,0,0,0,1.36.27l.94.21a5.24,5.24,0,0,1,.94.33,5.41,5.41,0,0,1,.87.52,3.11,3.11,0,0,1,.72.77,3.82,3.82,0,0,1,.49,1.08,5.38,5.38,0,0,1,.18,1.47,6,6,0,0,1-.33,2.07,4,4,0,0,1-1,1.51,4.05,4.05,0,0,1-1.54.93,5.92,5.92,0,0,1-2.05.32,3.67,3.67,0,0,1-1.79-.43,4.28,4.28,0,0,1-1.35-1.11,5.27,5.27,0,0,1-.84-1.55,5.57,5.57,0,0,1-.29-1.74Z"/><polygon class="cls-1" points="10.3 28.35 143.51 28.35 146.62 25.16 13.62 25.16 10.3 28.35"/><polygon class="cls-1" points="16.15 21.54 149.03 21.54 152.19 18.5 19.45 18.5 16.15 21.54"/></svg>