<svg id="Layer_1" data-name="Layer 1" xmlns="http://www.w3.org/2000/svg" viewBox="0 0 164 68"><defs><style>.cls-1{fill:#010101;}.cls-2{fill:#fff;}</style></defs><rect class="cls-1" x="52.8" y="5.58" width="62.68" height="61.02"/><path class="cls-2" d="M101.66,19.26a1.21,1.21,0,1,1,1.21,1.24,1.2,1.2,0,0,1-1.21-1.24m1.2,1.48a1.48,1.48,0,1,0-1.5-1.48,1.47,1.47,0,0,0,1.5,1.48m-.31-1.36h.3l.45.74h.29l-.49-.75a.45.45,0,0,0,.45-.47c0-.34-.2-.49-.61-.49h-.65v1.71h.26Zm0-.22v-.53h.35c.18,0,.38,0,.38.25s-.2.28-.42.28Z"/><path class="cls-2" d="M105.15,46.6a1.2,1.2,0,1,1,2.4,0,1.2,1.2,0,1,1-2.4,0m1.2,1.48a1.49,1.49,0,1,0,0-3,1.49,1.49,0,1,0,0,3M106,46.72h.29l.45.74h.3l-.49-.76a.43.43,0,0,0,.44-.47c0-.33-.2-.48-.6-.48h-.65v1.7H106Zm0-.22V46h.35c.18,0,.38,0,.38.25s-.2.28-.42.28Z"/><path class="cls-2" d="M98.06,14.06l-15.4,10L63.45,12.42l37,.07Z"/><path class="cls-2" d="M60.89,27.25c0-1.67,0-3.34,0-5l14,.1,7.38,4.3,6.94-4.4,13.87,0q0,10.36,0,20.72l-12.36-.1,0-5L82.1,43l-8.74-5.52c0,1.79,0,3.59,0,5.38l-12.46-.1Q60.86,35,60.89,27.25Z"/><path class="cls-2" d="M65.57,45.75H67.3V52H66.11V47.14l0,.28-1.33,3.86H63.67L62.34,47.5l0-.36V52H61.19V45.75h1.73l1.33,4.19Z"/><path class="cls-2" d="M69.9,51.76A1.84,1.84,0,0,1,69,51a2.46,2.46,0,0,1-.3-1.25v-4h1.31v4a1.08,1.08,0,0,0,.32.83,1.29,1.29,0,0,0,.91.29,1.28,1.28,0,0,0,.91-.29,1,1,0,0,0,.32-.83v-4h1.32v4a2.46,2.46,0,0,1-.3,1.25,1.91,1.91,0,0,1-.87.79,3.27,3.27,0,0,1-1.38.27A3.2,3.2,0,0,1,69.9,51.76Z"/><path class="cls-2" d="M75.17,45.75h1.31V52H75.17Zm.47,0h4.19v1.13H75.64Zm0,2.57h3.67v1.13H75.64Zm0,2.52h4.19V52H75.64Z"/><path class="cls-2" d="M81,45.75h1.31V52H81Zm.58,5.09H85.7V52H81.61Z"/><path class="cls-2" d="M86.65,45.75H88V52H86.65Zm.59,5.09h4.08V52H87.24Z"/><path class="cls-2" d="M92.28,45.75h1.31V52H92.28Zm.47,0h4.19v1.13H92.75Zm0,2.57h3.66v1.13H92.75Zm0,2.52h4.19V52H92.75Z"/><path class="cls-2" d="M98.14,45.75h1.31V52H98.14Zm.52,2.59h2.42a.71.71,0,0,0,.36-.09.58.58,0,0,0,.23-.26.79.79,0,0,0,.09-.38.8.8,0,0,0-.08-.39.64.64,0,0,0-.24-.25.69.69,0,0,0-.36-.09H98.66V45.75h2.53a2.06,2.06,0,0,1,1,.23,1.61,1.61,0,0,1,.67.65,2,2,0,0,1,.24,1,1.91,1.91,0,0,1-.24,1,1.64,1.64,0,0,1-.67.66,2.21,2.21,0,0,1-1,.23H98.66Zm1.46.93,1.41-.19L103.41,52h-1.59Z"/><path class="cls-2" d="M62,53.83v4.31h-.55V53.83Z"/><path class="cls-2" d="M63.47,58.14V53.83h.76c.8,1,2.63,3.31,3,3.78h0c0-.59,0-1.25,0-2V53.83h.53v4.31H67l-3-3.86h0c0,.53,0,1.2,0,2v1.88Z"/><path class="cls-2" d="M69.14,53.83H71c1.49,0,2.51.82,2.51,2.12A2.25,2.25,0,0,1,71,58.14H69.14Zm.55,3.92h1.22a1.75,1.75,0,0,0,2-1.79c0-.9-.59-1.74-2-1.74H69.69Z"/><path class="cls-2" d="M75.21,53.83v2.6a1.3,1.3,0,0,0,1.48,1.38c.86,0,1.48-.3,1.48-1.38v-2.6h.55v2.58c0,1.37-.92,1.78-2,1.78s-2-.45-2-1.73V53.83Z"/><path class="cls-2" d="M80.31,57c.15.55.61.87,1.44.87S83,57.47,83,57s-.26-.74-1.39-1S80,55.51,80,54.89s.55-1.12,1.71-1.12,1.74.58,1.81,1.13h-.56c-.11-.43-.45-.76-1.27-.76s-1.11.27-1.11.72.33.62,1.29.81c1.52.3,1.76.78,1.76,1.31s-.6,1.21-1.87,1.21-1.88-.61-2-1.23Z"/><path class="cls-2" d="M85.71,54.22H84v-.39H88v.39H86.27v3.92h-.56Z"/><path class="cls-2" d="M89.39,56.18v2h-.55V53.83h2c1.08,0,1.65.47,1.65,1.14a1,1,0,0,1-1,1,1,1,0,0,1,.87,1.12v.18a2.25,2.25,0,0,0,.07.86h-.54a2.28,2.28,0,0,1-.09-.91v-.1c0-.67-.24-1-1.23-1Zm0-.39h1.24c.88,0,1.28-.26,1.28-.79s-.4-.79-1.19-.79H89.39Z"/><path class="cls-2" d="M94.23,53.83v4.31h-.55V53.83Z"/><path class="cls-2" d="M98.93,56.07h-2.7v1.68h3l-.08.39H95.69V53.83h3.38v.39H96.23v1.46h2.7Z"/><path class="cls-2" d="M100.54,57c.15.55.61.87,1.44.87s1.27-.36,1.27-.8-.26-.74-1.4-1-1.65-.55-1.65-1.17.54-1.12,1.71-1.12,1.73.58,1.8,1.13h-.56c-.11-.43-.45-.76-1.26-.76s-1.12.27-1.12.72.33.62,1.3.81c1.51.3,1.76.78,1.76,1.31s-.61,1.21-1.88,1.21-1.87-.61-2-1.23Z"/></svg>