<svg id="Layer_1" data-name="Layer 1" xmlns="http://www.w3.org/2000/svg" viewBox="0 0 164 68"><rect x="43.26" y="22.37" width="9.77" height="23.41"/><path d="M38,22.31H29.07V33c-3.27-4.16-8.52-10.66-8.52-10.66H7.83V45.8H18.58V34.72c3.3,4.17,8.94,11.08,8.94,11.08H39.57V22.31Z"/><path d="M113.23,37.3c0,2.31-1.14,3.31-3.72,3.31-.45,0-.92,0-1.45,0h-7.94c-.33,0-.64,0-.94,0h-.31c-2.61,0-3.72-1-3.72-3.33V30.61c0-2.36,1.11-3.33,3.72-3.33h10.58c2.47,0,3.56.86,3.72,2.92H119c0-2.78-.31-4.75-1.53-6-1.44-1.44-4.36-2.08-9.77-2.08H98.93c-6.25,0-10.13,1.36-10.13,8.22v7.21c0,6.86,3.85,8.22,10.13,8.22h11.94c7.36,0,8.38-3.25,8.38-6.74V37.28c-.75,0-4.69,0-6,0"/><path d="M147.43,37.72c0,3.44-2.08,4.22-4.63,4.22H130.72c-2.58,0-4.64-.75-4.64-4.22V30.28c0-3.44,2.09-4.22,4.64-4.22h12.11c2.58,0,4.63.75,4.63,4.22v7.44Zm-26.34-.53c0,5.89,2,8.69,8.27,8.69h14.8c6.3,0,8.27-2.8,8.27-8.69V30.81c0-5.89-2-8.69-8.27-8.69H129.33c-6.3,0-8.27,2.8-8.27,8.69v6.38Z"/><path d="M82.83,34v-.11c2-.56,3.44-1.36,3.44-5.39,0-4.58-2.78-6.13-8.53-6.13H56.62V45.8H79.94c4.11,0,7.16-1,7.16-6.22,0-3.5-1.11-5.16-4.27-5.58m-4.06-4.14c0,1.42-.83,1.95-2.25,1.95h-12V27.89h12c1.42,0,2.25.53,2.25,2M76.66,40.33H64.47V36.44H76.66c1.67,0,2.78.39,2.78,2.09,0,1.44-1.11,1.8-2.78,1.8"/><path d="M156.71,27.89a2.16,2.16,0,0,1-2.17-2.08,2.17,2.17,0,0,1,4.33,0,2.13,2.13,0,0,1-2.16,2.08m0,.39a2.5,2.5,0,1,0-2.5-2.5,2.51,2.51,0,0,0,2.5,2.5m.33-2.41a.72.72,0,0,0,.81-.73c0-.55-.48-.72-1-.72h-1.19v2.72h.39V25.87h.47l.81,1.27h.47Zm-.89-.39v-.73h.72c.25,0,.73.09.73.34s-.64.33-.89.33h-.56Z"/></svg>