<svg id="Layer_1" data-name="Layer 1" xmlns="http://www.w3.org/2000/svg" viewBox="0 0 164 68"><path d="M74.45,52c9.53,0,19.07.35,28.57-.09a79.55,79.55,0,0,0,28.44-6.36,39.22,39.22,0,0,0,9-5.41c5.22-4.26,5.49-9.72,1.2-14.94-.61-.75-1.25-1.47-2.08-2.44,8.38,2.84,10.75,11.33,4.55,16.8A40.22,40.22,0,0,1,132,46.78c-16.78,6.36-34.31,7.25-52,6.07-1.8-.12-3.6-.37-5.4-.56Z"/><path d="M28.92,21.35H19.27v2.44h2.46V39.55H19.27V42h9.11V39.55h-3V33.41h3.53a7.2,7.2,0,0,0,4.93-1.63,5.6,5.6,0,0,0,1.87-4.4A5.63,5.63,0,0,0,33.85,23,7.24,7.24,0,0,0,28.92,21.35Zm-3.53,2.44h2.9a3.38,3.38,0,0,1,2.55.89,3.76,3.76,0,0,1,.87,2.7,3.8,3.8,0,0,1-.87,2.69h0a3.4,3.4,0,0,1-2.55.9h-2.9Z"/><polygon points="51.72 39.32 43.68 39.32 43.68 32.16 48.97 32.16 48.97 34.62 51.6 34.62 51.6 27.07 48.97 27.07 48.97 29.52 43.68 29.52 43.68 24 51.51 24 51.51 26.74 54.14 26.74 54.14 21.35 37.56 21.35 37.56 23.79 40.02 23.79 40.02 39.55 37.56 39.55 37.56 41.98 54.35 41.98 54.35 36.58 51.72 36.58 51.72 39.32"/><path d="M68.71,34.43h3.63v4.24a9.23,9.23,0,0,1-2.15.9,10,10,0,0,1-2.65.35,5.31,5.31,0,0,1-4.56-2c-1.06-1.38-1.59-3.47-1.59-6.22s.52-4.92,1.54-6.27a5.29,5.29,0,0,1,4.56-2,5.68,5.68,0,0,1,3.66,1,5.4,5.4,0,0,1,1.71,3.32l.07.43h2.41V22.72L75,22.59a24.65,24.65,0,0,0-3.84-1.2,16.27,16.27,0,0,0-3.53-.4,9.89,9.89,0,0,0-7.47,2.92,10.87,10.87,0,0,0-2.78,7.77,10.82,10.82,0,0,0,2.77,7.74,9.75,9.75,0,0,0,7.38,2.94,17.7,17.7,0,0,0,4.38-.52,14.7,14.7,0,0,0,3.83-1.57l.26-.15V32h-7.3Z"/><polygon points="92.88 39.32 85.11 39.32 85.11 23.79 87.56 23.79 87.56 21.35 78.98 21.35 78.98 23.79 81.44 23.79 81.44 39.55 78.98 39.55 78.98 41.98 95.51 41.98 95.51 36.05 92.88 36.05 92.88 39.32"/><polygon points="111.2 39.32 103.16 39.32 103.16 32.16 108.44 32.16 108.44 34.62 111.08 34.62 111.08 27.07 108.44 27.07 108.44 29.52 103.16 29.52 103.16 24 110.99 24 110.99 26.74 113.62 26.74 113.62 21.35 97.04 21.35 97.04 23.79 99.5 23.79 99.5 39.55 97.04 39.55 97.04 41.98 113.83 41.98 113.83 36.58 111.2 36.58 111.2 39.32"/><path d="M134.44,39.55,131.78,34a6,6,0,0,0-1.29-1.83l-.33-.28a5,5,0,0,0,2.13-1.28,4.94,4.94,0,0,0,1.26-3.54,5.42,5.42,0,0,0-1.71-4.26,6.84,6.84,0,0,0-4.69-1.49H116.84v2.44h2.46V39.55h-2.46V42h8.85V39.55H123V32.87h2.36a2.89,2.89,0,0,1,1.69.43,5.91,5.91,0,0,1,1.43,2.15L131.59,42H137V39.55ZM123,23.79h3.3a3.45,3.45,0,0,1,2.51.78,3.48,3.48,0,0,1,.78,2.53,3.51,3.51,0,0,1-.78,2.54,3.45,3.45,0,0,1-2.51.79H123Z"/></svg>