<svg id="Layer_1" data-name="Layer 1" xmlns="http://www.w3.org/2000/svg" viewBox="0 0 164 68"><path d="M25.2,54c0-.46-.1-.79-.1-1.13,0-2.86,0-5.72,0-8.61,1.79,0,3.53.31,5.11-.06,3-.71,4.73-3.95,4.12-7.18a6.23,6.23,0,0,0-6.48-5.06,6.09,6.09,0,0,0-5.72,5.85c-.1,4.7-.05,9.41-.06,14.11v1.85c-7.17-.54-13-8.11-12.47-16C10.14,30,16,23.2,24.85,23.39s15,7.51,14.57,16.23C39.07,47.32,32.32,54.2,25.2,54Zm-5.24-3c0-.39.07-.78.07-1.16,0-3.9,0-7.8,0-11.7a8.23,8.23,0,0,1,6.19-7.95,8,8,0,0,1,9,4A8.52,8.52,0,0,1,33.9,44.25c-1.77,1.8-4,2.32-6.48,2.49v4.81c6.2-1.14,10.59-7.45,10-14.21A13.15,13.15,0,0,0,24.56,25.47a13.11,13.11,0,0,0-13,12.25C11,44.18,15.94,50.24,20,50.94Z"/><path d="M142.7,32.09a7.2,7.2,0,1,1-7.22-7.4A7.23,7.23,0,0,1,142.7,32.09Zm-3.25,0a3.94,3.94,0,1,0-7.87-.29,3.94,3.94,0,1,0,7.87.29Z"/><path d="M123.82,35.46l1.31,1.66-2.24,2c-1.37-1.85-2.73-3.7-4-5.39v5.09a6.76,6.76,0,0,1-.94.25c-2.52.14-2.52.14-2.51-2.44,0-2.35,0-4.7,0-7a4.79,4.79,0,0,1,3.42-4.67c2.33-.75,5.6.07,7,1.77A5.75,5.75,0,0,1,126.4,33,17.5,17.5,0,0,1,123.82,35.46Zm-.55-5.19c0-1.43-1.09-2.7-2.23-2.57A2.16,2.16,0,0,0,118.93,30a2,2,0,0,0,2.13,2.19A2,2,0,0,0,123.27,30.27Z"/><path d="M113.13,39H110V34.6h-3V39h-3.12c0-3.61-.22-7.2.07-10.76.2-2.42,2.17-3.6,4.76-3.52,2.44.08,4.24,1.44,4.42,4C113.32,32.06,113.13,35.5,113.13,39Zm-2.78-8.09A22.54,22.54,0,0,0,109,27.83a1.78,1.78,0,0,0-1.49.21,14.74,14.74,0,0,0-.74,2.88Z"/><path d="M46.91,33.21V39H43.65c0-3.47-.23-6.92.06-10.32.25-2.89,2.92-4.3,6.46-3.88,3,.36,4.92,2.42,4.85,5.26a5.12,5.12,0,0,1-6.34,5.21C48,35.11,47.54,34,46.91,33.21Zm2.39-1a2.16,2.16,0,0,0,2.34-2.14,2.31,2.31,0,0,0-2.23-2.36A2.18,2.18,0,0,0,47.29,30,2,2,0,0,0,49.3,32.22Z"/><path d="M101.53,39H98.19v-6c0-1,0-2.06,0-3.1s-.14-2-1.55-2-1.39,1-1.39,1.94v9H91.85c0-3.45-.15-6.83.05-10.18.15-2.63,2.15-4.12,4.86-4.11s4.6,1.55,4.73,4.23C101.65,32.23,101.53,35.55,101.53,39Z"/><path d="M64.26,25.05v3.44H60v1.8h3.4v3.38l-3.34.15c-.32,1.3,0,2,1.37,1.92.91,0,1.82,0,2.82,0V39c-2.08,0-4.19.11-6.26-.08-.5,0-1.27-1.11-1.29-1.73-.15-3.72-.14-7.45-.11-11.18a1.32,1.32,0,0,1,.93-.87C59.71,25,61.9,25.05,64.26,25.05Z"/><path d="M68.61,28.64l-2.37-.23V25.14h8.15v3.27l-2.34.22V39H68.61Z"/><path d="M78.69,39V28.65l-2.41-.26V25.17h8.18v3.21l-2.35.29V39Z"/><path d="M32.82,38.24a4.61,4.61,0,0,1-4.33,4.49,4.62,4.62,0,0,1-4.24-4.41,4.29,4.29,0,1,1,8.57-.08Z"/><path d="M144.45,25.12h3.2v10.6h4.09V39h-7.29Z"/><path d="M153.62,25.13h3.25V39h-3.25Z"/><path d="M89.81,25.17V39H86.62V25.17Z"/></svg>