<svg id="Layer_1" data-name="Layer 1" xmlns="http://www.w3.org/2000/svg" viewBox="0 0 164 68"><defs><style>.cls-1{fill:#010101;}.cls-2,.cls-3{fill:#fff;}.cls-3{font-size:13.7px;font-family:AraESNawar-Regular, Nawar Font;}</style></defs><rect class="cls-1" x="34.99" y="10.88" width="95.72" height="51.8"/><path class="cls-2" d="M61.23,15c-1.88-1.29-4-1.63-6.64-1.74-4.6-.06-17.05.07-17.05.07l.28,32.5,15.53-.21s.1-7.86.1-10.27a8.1,8.1,0,0,0,1.55.07c5.21-.16,11.31-4.34,11.68-9.7C67,21,65.43,17.86,61.23,15Zm3,10.55c-.27,4-5.23,7.29-9.3,7.41a6,6,0,0,1-1.83-.18V24.4a2,2,0,0,0-2-2h-.44V43.15l-10.38.15c-.05-4.57-.07-9.17-.1-13.77s-.06-9.23-.11-13.8c5.73-.09,10.26-.1,14.49,0a17.64,17.64,0,0,1,3.2.37,6.33,6.33,0,0,1,2.12.94C63.3,19.37,64.49,21.68,64.22,25.52Z"/><path class="cls-2" d="M93.81,13.44v0H69.52v0H69V44.76H93.83V13.44ZM91.72,23H82.24v2.22h9.48v6.85H82.24V34.3h9.48v8.24H71.07V15.64H91.72Z"/><path class="cls-2" d="M128.16,44.74l-.89-1.8h0l-.19-.36h0l-7.65-14.71,6.4-12.21,1-2.14-29.51,0,1,2.25h0L104.74,28,97.2,42.54h0l0,.06h0l-1,2.17Zm-20.92-17-6.2-12,9.76,0,3.72,7.36,1.37-2.53-2.41-4.84,9.64,0-6.19,12,7.5,14.9h-9.62l-5.06-9.8-1.32,2.53,3.63,7.27-12.22,0Z"/><text class="cls-3" transform="translate(37.78 58.38) scale(1.13 1)">PLUMBEX UK</text></svg>