<svg id="Layer_1" data-name="Layer 1" xmlns="http://www.w3.org/2000/svg" viewBox="0 0 164 68"><defs><style>.cls-1{fill:#010202;}</style></defs><rect class="cls-1" x="143.27" y="25.95" width="16.11" height="18.44"/><path class="cls-1" d="M132.06,26H95.48v7.38H69.17V30.11H92.62V26H53.06V44.38H92.62V40.22H69.17V37.49H95.48v6.9h36.58a9.22,9.22,0,1,0,0-18.44Zm-9.48,13.39-.36.14H112.15V30l9.32.08a5,5,0,0,1,4.17,5A4.9,4.9,0,0,1,122.58,39.34Z"/><path class="cls-1" d="M49.39,38.41A8.79,8.79,0,0,0,47,35.19a5.49,5.49,0,0,0-.39-9.8l-42-.21V44.32l16.91.07q0-3.77-.07-7.52L34.08,37c.1,2.63.18,5.28.28,7.92,2.77-.06,5.55-.13,8.33-.18l7-.16A9.17,9.17,0,0,0,49.39,38.41Zm-15.17-5.7h-14V29.57h14Z"/></svg>