<svg id="Layer_1" data-name="Layer 1" xmlns="http://www.w3.org/2000/svg" viewBox="0 0 164 68"><defs><style>.cls-1{fill:#202020;}.cls-2{fill:#fff;}</style></defs><rect class="cls-1" x="28.37" y="16.4" width="105.57" height="44.87" rx="4.2"/><rect class="cls-2" x="31.56" y="21.57" width="83.78" height="34.51" rx="4.2"/><path class="cls-1" d="M97.67,48.32h-3l0-5.12a3.59,3.59,0,0,1,.29-1.39,4,4,0,0,1,2-2,5,5,0,0,1-1.39-1.29,5.15,5.15,0,0,1-1-3.11l0-4.31c1.13.05,2.34-.1,3.47-.05.07,1.5,0,3.19.12,4.69a2.89,2.89,0,0,0,5.56,0l0-4.58,3.45-.06,0,5a4.14,4.14,0,0,1-1.87,4.26,3.32,3.32,0,0,1,1.39,1.15,3.37,3.37,0,0,1,.57,2.1v4.84l-3.4,0,0-4.74a3,3,0,0,0-5.6,0v4.74Z"/><path class="cls-1" d="M84.35,43.56a3.85,3.85,0,0,1-.74-2.36l0-.42h9.14L92.71,36a6.41,6.41,0,0,0-12.64.55c0,.56,0,1.12,0,1.68,0,1.75,0,3.49,0,5.24a5.08,5.08,0,0,0,1.73,3.67,4.64,4.64,0,0,0,2.2,1l7.82.1c0-1.15,0-2.26,0-3.41l-6.22,0A3.67,3.67,0,0,1,84.35,43.56Zm1.8-9.33a2.67,2.67,0,0,1,2.16,1.29A4.06,4.06,0,0,1,89,38.2l-5.36,0C83.38,36,84.87,34.28,86.15,34.23Z"/><path class="cls-1" d="M53.26,43.56a3.85,3.85,0,0,1-.74-2.36l0-.42h9.14L61.62,36A6.41,6.41,0,0,0,49,36.54c0,.56,0,1.12,0,1.68,0,1.75,0,3.49,0,5.24a5.08,5.08,0,0,0,1.73,3.67,4.64,4.64,0,0,0,2.2,1l7.82.1c0-1.15,0-2.26,0-3.41l-6.22,0A3.67,3.67,0,0,1,53.26,43.56Zm1.8-9.33a2.67,2.67,0,0,1,2.16,1.29,4.06,4.06,0,0,1,.67,2.68l-5.36,0C52.29,36,53.78,34.28,55.06,34.23Z"/><rect class="cls-1" x="73.46" y="24.19" width="3.7" height="24.18"/><path class="cls-1" d="M71.68,27.58V24.19H68a3.38,3.38,0,0,0-3.38,3.39v3.33H62.1v3.32h2.56v14h3.7v-14h2.81V30.91H68.36V27.58Z"/><path class="cls-1" d="M47.36,31H43A3.64,3.64,0,0,0,39.45,34h-.07V48.37h3.38V34.66h4.6Z"/></svg>