<?xml version="1.0" encoding="utf-8"?>
<!-- Generator: Adobe Illustrator 24.3.0, SVG Export Plug-In . SVG Version: 6.00 Build 0)  -->
<svg version="1.1" id="Layer_1" xmlns="http://www.w3.org/2000/svg" xmlns:xlink="http://www.w3.org/1999/xlink" x="0px" y="0px"
	 viewBox="0 0 164 68" style="enable-background:new 0 0 164 68;" xml:space="preserve">
<style type="text/css">
	.st0{fill:#060607;}
	.st1{fill:#010202;}
	.st2{fill:none;stroke:#000000;stroke-width:0.25;stroke-miterlimit:10;}
	.st3{fill:#020203;}
	.st4{fill:#202020;}
	.st5{fill:none;stroke:#F8F9FA;stroke-width:0.5;stroke-miterlimit:10;}
	.st6{fill:#020304;}
	.st7{fill:#030304;}
	.st8{fill:#FFFFFF;}
	.st9{fill:#020303;}
	.st10{fill:none;stroke:#020203;stroke-width:0.5;stroke-miterlimit:10;}
	.st11{fill:#030405;}
	.st12{fill:#F4F4F4;}
	.st13{fill:#FAF8F8;}
	.st14{fill:none;stroke:#020203;stroke-miterlimit:10;}
	.st15{fill:#010101;}
</style>
<g>
	<path class="st1" d="M12.6,45.3c-1.2,0-2.2-1-2.2-2.2c0-1.2,1-2.2,2.2-2.2h20.2c1.2,0,2.2-1,2.2-2.2c0-1.2-1-2.2-2.2-2.2H17
		c-3.7,0-6.7-3-6.7-6.7c0-3.7,3-6.7,6.7-6.7h19.1c1.2,0,2.2,1,2.2,2.2c0,1.2-1,2.2-2.2,2.2H17c-1.2,0-2.2,1-2.2,2.2
		c0,1.2,1,2.2,2.2,2.2h15.7c3.7,0,6.7,3,6.7,6.7c0,3.7-3,6.7-6.7,6.7H12.6z"/>
	<path class="st1" d="M62,40.8c1.2,0,2.2,1,2.2,2.2c0,1.2-1,2.2-2.2,2.2H45.1c-2.5,0-4.5-2-4.5-4.5V25.1c0-1.2,1-2.2,2.2-2.2
		c1.2,0,2.2,1,2.2,2.2v15.7H62z"/>
	<path class="st1" d="M90,22.8H67.6c-1.2,0-2.2,1-2.2,2.2v18c0,1.2,1,2.2,2.2,2.2H90c1.2,0,2.2-1,2.2-2.2v-18
		C92.3,23.9,91.3,22.8,90,22.8 M87.8,40.8h-18V27.3h18V40.8z"/>
	<path class="st1" d="M113.6,43.1c1.2,0,2.2-1,2.2-2.2c0-1.2-1-2.2-2.2-2.2h-9c-1.2,0-2.2,1-2.2,2.2c0,1.2,1,2.2,2.2,2.2H113.6z"/>
	<path class="st1" d="M157.7,39.7c-1.6,0-2.8,1.3-2.8,2.8v0c0,1.5,1.2,2.8,2.8,2.8c1.6,0,2.8-1.3,2.8-2.8v0
		C160.5,40.9,159.2,39.7,157.7,39.7 M157.6,44.9c-1.3,0-2.4-1-2.4-2.4c0-1.3,1.1-2.4,2.4-2.4s2.4,1.1,2.4,2.4
		C160,43.8,159,44.9,157.6,44.9"/>
	<path class="st1" d="M159,41.9L159,41.9c0-0.3-0.1-0.5-0.2-0.7c-0.2-0.2-0.5-0.3-0.9-0.3h-1.3v3h0.6v-1h0.5l0.7,1h0.7l-0.7-1.1
		C158.7,42.7,159,42.4,159,41.9 M157.8,42.4h-0.7v-0.9h0.7c0.3,0,0.5,0.2,0.5,0.4v0C158.3,42.2,158.2,42.4,157.8,42.4"/>
	<path class="st1" d="M153.7,25.1c0-1.2-1-2.2-2.2-2.2c-1.2,0-2.2,1-2.2,2.2v13.4l-19.8-15.2v0c-0.4-0.3-0.9-0.5-1.4-0.5
		c-1.2,0-2.2,1-2.2,2.2v18c0,1.2,1,2.2,2.2,2.2c1.2,0,2.2-1,2.2-2.2V29.7l19.8,15.2v0c0.4,0.3,0.8,0.5,1.4,0.5c1.2,0,2.2-1,2.2-2.2
		L153.7,25.1L153.7,25.1z"/>
	<path class="st1" d="M124.2,41.7l-13.4-18l0,0c-0.4-0.5-1.1-0.9-1.8-0.9c-0.7,0-1.4,0.4-1.8,0.9l0,0l-13.4,18h0
		c-0.3,0.4-0.5,0.8-0.5,1.3c0,1.2,1,2.2,2.2,2.2c0.7,0,1.4-0.4,1.8-0.9h0l11.6-15.5l11.6,15.6h0c0.4,0.5,1.1,0.9,1.8,0.9
		c1.2,0,2.2-1,2.2-2.2C124.7,42.6,124.5,42.1,124.2,41.7"/>
</g>
</svg>
