<svg id="Layer_1" data-name="Layer 1" xmlns="http://www.w3.org/2000/svg" viewBox="0 0 164 68"><defs><style>.cls-1{fill:#020303;}.cls-2{fill:#fff;}.cls-3{font-size:12.76px;}.cls-3,.cls-4,.cls-5{fill:#010101;font-family:AraESNawar-Regular, Nawar Font;}.cls-4{font-size:5.15px;}.cls-5{font-size:2.87px;}.cls-6{fill:none;stroke:#000;stroke-miterlimit:10;stroke-width:0.25px;}</style></defs><rect class="cls-1" x="67.05" y="15.2" width="39.39" height="39.39"/><path class="cls-2" d="M70.7,52.88c9.08-3.64,11.12-6.15,11-7.87-.11-1.09-2.59-2.92-7.56-6.52-4.08-3-5.77-4-6.42-6.21a7.85,7.85,0,0,1,.62-5.38c2-4,7-5.55,12.63-6.77,11.32-2.41,16.24-2.85,24.57-4.55,0,0-10.48,2.75-11.32,7.11-.41,2.14,6.48,7.45,7.46,8.14,2.74,2,4.09,3.19,4.34,5.73.36,3.63-.83,4.9-2.58,6.07-7.15,4.76-10.76,6.21-20,9.32-5.85,2-11.3,2-15.43,2C69,53.56,69.86,53.21,70.7,52.88Z"/><text class="cls-3" transform="translate(67.05 13.95) scale(1.14 1)">SMITH</text><text class="cls-4" transform="translate(71.5 59.26) scale(1.14 1)">CUSTOMER<tspan x="4.53" y="6.18">DRIVEN</tspan></text><text class="cls-5" transform="translate(108.21 5.81)">R</text><circle class="cls-6" cx="109.1" cy="4.96" r="1.45"/></svg>