<svg id="Layer_1" data-name="Layer 1" xmlns="http://www.w3.org/2000/svg" viewBox="0 0 164 68"><defs><style>.cls-1{fill:#020304;}</style></defs><path class="cls-1" d="M56.8,33.93a1.43,1.43,0,1,1,1.44,1.48,1.43,1.43,0,0,1-1.44-1.48m1.43,1.77a1.77,1.77,0,1,0-1.8-1.77,1.76,1.76,0,0,0,1.8,1.77m-.38-1.63h.36l.54.89h.34l-.57-.91a.52.52,0,0,0,.52-.56c0-.4-.23-.57-.72-.57h-.77v2h.3Zm0-.26v-.63h.43c.21,0,.45,0,.45.3s-.24.33-.5.33Z"/><path d="M73.13,35.4c1,0,.82-.66.87-1.27s-.14-1-.91-.93a15.87,15.87,0,0,1-4-.22c-8.48-1.63-12.92-11.8-8.15-18.72a21.45,21.45,0,0,0,2.32-2.35c3.94-4,10.75-4,14.68-1.51a20.52,20.52,0,0,1,4.9,5.07,11.61,11.61,0,0,1,0,10.58c-.6,1.26.42,1.41,1,1.76s.66-.47.92-.78a2.88,2.88,0,0,0,.4-.85A15.19,15.19,0,0,0,85,14.56c-1.21-2-2.38-4-4.39-5.33-1-.66-2-1.27-3-1.87A15.39,15.39,0,0,0,67.46,6.7,16.08,16.08,0,0,0,60.53,11a3,3,0,0,1-.19.3c-4,5.1-4.73,10.63-1.69,16.35S66.77,35.63,73.13,35.4Z"/><path d="M98.22,55.35a1.82,1.82,0,0,0-.87,1.8c.08.82.1,1.65.17,2.48.06.59-.1.86-.76.84-1.58,0-3.16,0-4.75,0-.51,0-.84-.08-.8-.7a5.2,5.2,0,0,0-.12-.9c-.54.27-.88.52-.83,1.11s-.29.8-.83.7-.35-.46-.25-.81a.83.83,0,0,0,0-.79,1.29,1.29,0,0,0-.92,1c-.24.79-1,.72-1.59.66-.79-.08-.63-.64-.52-1.16.06-.31,0-.56-.41-.43-.5,1.34-1.56,1.5-2.81,1.37a19.43,19.43,0,0,0-2,0H76.25c.44-1,1-1.87-.38-2.39-1.64-.64-2.45-.33-3.2,1.38l.31.12c.36.08.92,0,.84.57s-.57.31-.91.31H67c-.39,0-.81.09-.89-.5-.1-.79-.25-1.75-1.19-1.81s-1.16,1-1.52,1.73l-.06.11c-.33,1.43.85,1.42,1.72,1.71-.46,1.57-1.85,1.4-3,1.67,1.87.79,3,.42,3.83-1.29.26-.56.63-.49,1-.49,3.4,0,6.8-.07,10.2,0,3.13.08,6.28-.44,9.39.29a2,2,0,0,0,1.06,0c1.22-.43,2.48-.14,3.72-.25,2.24-.21,4.5.25,6.73-.28C98.51,59.41,98,57.5,98.22,55.35ZM64.77,60.47c-.34,0-.62-.15-.63-.52a.55.55,0,0,1,.47-.57c.42,0,.37.39.45.53C65.17,60.3,65.09,60.48,64.77,60.47Z"/><path d="M57,58.44a.77.77,0,0,0-.39,1.29c.34.49,0,.76-.56.74-1.14,0-2.28,0-3.42,0-3.28,0-3.28,0-3.55-3.28a24.89,24.89,0,0,0-3.23,2.16c-.89.83-.54,1.54.64,1.79a1.49,1.49,0,0,0,1.87-.74c.74,1.21.74,1.21,2.12,1.22h5c2.33,0,2.33,0,2.22-2.33C57.44,59,57.66,58.22,57,58.44Zm-8.68,1.4a1.86,1.86,0,0,1-1.86-.11c.63-.19.88-1.17,1.66-.82C48.45,59.05,48.56,59.7,48.35,59.84Z"/><path d="M61.19,57.64c-1.16.08-.95.62-.48,1.32.28.43.79,1,.38,1.44a1.26,1.26,0,0,1-1.52.07c-.27.17-.88-.42-.86.35,0,.44.17.84.76.83s1.18,0,1.76,0c.73,0,.94-.31,1-1A5.13,5.13,0,0,0,61.19,57.64Z"/><path d="M99.72,55.46a1.71,1.71,0,0,0-.49.95c.39,1.69.12,3.41.26,5.34a6.46,6.46,0,0,0,.71-3.42C99.94,57.41,100.47,56.35,99.72,55.46Z"/><path d="M46.67,57.05c.9.71,1,0,1.24-.6-.45-.63-1.18-.08-1.5-.26-.66-.36-1-.15-1.2.32s.15.76.58.92S46.28,56.74,46.67,57.05Z"/><path d="M56.82,62.26a7.75,7.75,0,0,1-1.8,0c-.16,0-.46.3-.43.62,0,.06.08.12.11.19.41.94,1.31-.32,1.83.41.14.18.42-.25.62-.41a1,1,0,0,0,.11-.21C57.25,62.57,57,62.24,56.82,62.26Z"/><path d="M49,50.26a15.8,15.8,0,0,0,2.47.26c3.84.12,7.52-.85,11.2-1.75a1.11,1.11,0,0,1,1.45.52C65.25,51,67,51,68.39,49.5c.21-.25.41-.51.68-.85a4.12,4.12,0,0,0,1.39,1.59c.92.54,1.82.8,2.71-.07a5.54,5.54,0,0,0,.24-6.89c-.63,1-1.33,2-.45,3.33.38.54.72,1.17-.16,1.68a1.48,1.48,0,0,1-2.09-.41,5.25,5.25,0,0,1-.91-2.16,36.41,36.41,0,0,1-.55-4.47c-1,1.21-2.06,2.13-1.16,3.72a3.3,3.3,0,0,1,.24,1.27A1.7,1.7,0,0,1,67,48.3a1.9,1.9,0,0,1-2.14-1.45c-.16-1-.58-1-1.32-.69a7.19,7.19,0,0,1-.79.24c-3.76,1.08-7.53,2.15-11.51,2C48,48.21,46.88,47.11,46.79,44l.47-2.31L47,41.59l-.7,1.57h0a18.46,18.46,0,0,0-.67,1.89C45,47.79,46.21,49.73,49,50.26Z"/><path d="M76.83,48.09a4,4,0,0,0,3.82,2.85,4.57,4.57,0,0,0,4.6-2.07,5,5,0,0,0-.32-5.07c-1,.94-1.54,2-.75,3.33a.66.66,0,0,1-.19.94,4.74,4.74,0,0,1-4,.69c-1.14-.34-1.36-1.45-1.51-2.48a16.68,16.68,0,0,1-.16-2c-.2-4.73-.38-9.46-.57-14.19,0-.51-.11-1-.19-1.87-.66,1-1.77,1.18-1.74,2.1.1,3.3.34,6.6.52,9.91a22.94,22.94,0,0,0,.25,4.46h0A11.06,11.06,0,0,0,76.83,48.09Z"/><path d="M76.68,27.94c.67,0,1-.1,1-.89-.06-1.22,0-2.44,0-3.66,0-.61.17-.82.8-.81s1.6.21,2.21-.5c0-2.28,0-4.57.08-6.85a1,1,0,0,0-1.17-1.17c-1.06,0-2.13,0-3.2,0-.58,0-.61.32-.66.72a3.75,3.75,0,0,1,0,.47c0,3.93,0,7.86,0,11.79C75.72,27.78,76,27.94,76.68,27.94Zm1.45-12.7c.36,0,.66.16.66.53,0,1.69,0,3.38,0,5.07,0,.45-.35.57-.76.54s-.41-.39-.41-.7V15.85C77.62,15.49,77.69,15.23,78.13,15.24Z"/><path d="M99.68,26.84a4.62,4.62,0,0,0-1.41,3.34c.08,5.16,0,10.32,0,15.48a22.32,22.32,0,0,1-.3,4c0,.19-.48.49,0,.64s.46-.23.58-.46a10.85,10.85,0,0,0,1.32-4,3.28,3.28,0,0,0,.24-1.72c0-4.08,0-8.17,0-12.25.41-.14.66.38,1.11.25Z"/><path d="M94.4,45.68a1.76,1.76,0,0,1-.19,1.25,101,101,0,0,1-12.54,6.35,17.87,17.87,0,0,0,7.44-1.16c2.59-1,4.84-2.47,6-5.15a7.14,7.14,0,0,0,.82-3.76c-.1-3.43-.18-6.86-.29-10.29,0-.62-.07-1.17.93-.68L95,26.3c-.78,1-1.5,1.7-1.42,3C93.89,34.73,94.13,40.2,94.4,45.68Z"/><path d="M85,32c-.28-.29-1.16-.69,0-1.14.35-.14-.06-.38-.19-.5-.8-.76-1.62-1.49-2.63-2.41-.12,1-.22,1.68-.32,2.41,0,.23-.09.42.14.63,2.61,2.43,4.64,5.37,7.08,7.94A13.48,13.48,0,0,1,93,45.76c0,.09.13.15.31.34a9.67,9.67,0,0,0-2.61-8.25C88.82,35.86,86.89,33.94,85,32Z"/><path d="M66.23,51.84c-.45.75-.81.45-1.31.18-.28-.15-.59-.6-.92-.25s-1,1.06-.85,1.61,1,.72,1.52,1.12c.42,0,.48-.28.59-.51.23-.46.55-.6.93-.25,1.09,1,1.45.15,1.92-.65.27-.47.33-.83-.26-1S66.83,50.85,66.23,51.84Z"/><path d="M89.81,30.6c-.22-.16-.7-.23-.4-.67s.44-.82,1-.46c.17.11.31.45.55.12a1,1,0,0,0,.08-1,.55.55,0,0,0-.65-.38c-.8.12-2.23,2.4-1.7,2.9.83.78.54,1.36.07,2.07-.06.11-.07.31.28.39.9-1.44,3-1.9,3.63-3.89a3.8,3.8,0,0,0-1.44.91A1.14,1.14,0,0,1,89.81,30.6Z"/><path d="M70.81,53.65c0,.77,1,1.08,1.55,1.12.79.06.73-1.05,1.27-1.54a2.19,2.19,0,0,0-1.69-1.12C71.2,52.09,70.83,53.08,70.81,53.65Z"/><path d="M52.4,53.6c0,.72,1,.75,1.56,1.23a2.16,2.16,0,0,0,1.13-1.64c.07-.79-1-1.08-1.49-1.13C52.75,52,52.44,53.06,52.4,53.6Z"/><path d="M82.65,41.38c.52-.56,1.1-1.21,1-1.79s-1.06-1.1-1.62-1.06-1.11,1-1.07,1.6S82.07,40.87,82.65,41.38Z"/><path d="M62.87,27.71a7.06,7.06,0,0,0,4.05,0c1-.42.41-1.69.54-2.58a3.7,3.7,0,0,0,0-.94c-.11-.94.29-1.94-.28-2.84h0a3.9,3.9,0,0,0-.9-.74c-1.85-.81-2.33-2.25-2-4.1a.48.48,0,0,0,0-.12c0-.5,0-1,.71-1s.61.51.64.95c.06.73-.2,1.48.14,2.19.48.37,1,.07,1.56.22a18.73,18.73,0,0,0,.12-4,.55.55,0,0,0-.46-.61c-1.52,0-3.09-.49-4.56.35l0,.23h0a20.41,20.41,0,0,1-.09,2.6,3.56,3.56,0,0,0,2.17,4.26c.4.18,1,.42,1,.92.08,1.13,0,2.28,0,3.42a.61.61,0,0,1-.74.59c-.38,0-.53-.3-.54-.65,0-.59,0-1.18,0-1.77s0-1.11-.89-1.11-1.06.35-1,1.11c.07,1,0,2,.07,2.95A.54.54,0,0,0,62.87,27.71Z"/><path d="M91.18,26.13c-2.62,1.33-3.28,1.88-3.51,2.92C89.94,27.94,91,27,91.18,26.13Z"/><path d="M73.82,21.27h0a15.84,15.84,0,0,0-2.34-1.75c-.29-.23-.55-.41-.54-.83,0-.86,0-1.73,0-2.59,0-.42.18-.68.62-.69a.66.66,0,0,1,.75.71,7,7,0,0,1,0,1.29c-.17,1.23.37,1.55,1.47,1.21a.28.28,0,0,0,.39-.3,18.83,18.83,0,0,0-.16-4c-1.08-.54-2.24-.16-3.35-.24-.48,0-1-.19-1.39.37h0c-.34.32-.2.74-.21,1.12,0,1.45,0,2.91,0,4.37.89.65,1.79,1.3,2.67,2,.24.18.6.3.61.67,0,1.1,0,2.2,0,3.3a.67.67,0,0,1-.71.66c-.5,0-.66-.34-.65-.79s0-1.11,0-1.66S70.93,23,70,23s-1,.36-1,1.12,0,1.73,0,2.59c0,.5.15,1,.61,1a7.27,7.27,0,0,0,4.13-.2c.62-.67.41-1.49.36-2.24C74.09,24,74.57,22.56,73.82,21.27Z"/></svg>