<svg id="Layer_1" data-name="Layer 1" xmlns="http://www.w3.org/2000/svg" viewBox="0 0 164 68"><path d="M9.65,38.17,12,36.39l.72.53,1.27-1-.72-.56,2.36-1.8.72.52.71-.52,2.36,1.8-.71.56,1.26,1,.74-.53,2.36,1.79-.71.56.71.57-2.36,1.8L20,40.57l-1.26,1,.71.56-2.36,1.81H17l-.62-.56-.71.56H15.6a4,4,0,0,0-.3-.28l-2-1.52.71-.57-1.26-1L12,41.1,9.65,39.33v-.07l.77-.52-.77-.5Zm6.73,1.56,1.27-1-1.27-1-1.28,1Z"/><path d="M112,39.37c.61-1.23,1.19-2.37,1.74-3.53a.56.56,0,0,1,.62-.38c1,0,2,0,3,0h.45V42H115.7V36.71l-.08,0-.19.35c-.8,1.55-1.61,3.09-2.4,4.64a.51.51,0,0,1-.56.35c-.45,0-1,.12-1.34-.08s-.47-.75-.67-1.15l-2-3.8a.62.62,0,0,0-.25-.29V42h-2.09V35.47h3.52a.5.5,0,0,1,.54.33c.5,1.05,1,2.09,1.54,3.14Z"/><path d="M87.89,36.69c-.06.12-.13.23-.2.35l-2.41,4.67a.47.47,0,0,1-.5.32,8.08,8.08,0,0,0-1.1,0,.45.45,0,0,1-.48-.3c-.8-1.57-1.62-3.13-2.43-4.7a.7.7,0,0,0-.28-.32V42H78.41V35.5a3.16,3.16,0,0,1,.32,0H82a.44.44,0,0,1,.47.3c.51,1.07,1,2.12,1.56,3.18.06.12.13.24.23.42l.62-1.23c.39-.8.78-1.61,1.19-2.4a.48.48,0,0,1,.33-.25c1.21,0,2.42,0,3.67,0V42H88V36.72Z"/><path d="M44.77,35.47c1.27,0,2.51,0,3.74,0,.1,0,.23.15.29.26L50.38,39l.23.43c.24-.5.45-.94.67-1.38.37-.75.74-1.51,1.13-2.26a.5.5,0,0,1,.35-.26c1.16,0,2.32,0,3.49,0l.17,0V42H54.33V36.71h-.08l-.18.32c-.8,1.55-1.62,3.1-2.41,4.66a.52.52,0,0,1-.57.35,5.68,5.68,0,0,0-1,0,.5.5,0,0,1-.54-.34l-2.39-4.63a1.09,1.09,0,0,0-.27-.37V42H44.77Z"/><path d="M95.34,42h-3a1.52,1.52,0,0,1-1.58-1.49q0-1.77,0-3.54a1.53,1.53,0,0,1,1.59-1.52h6A1.56,1.56,0,0,1,100,37c0,1.14,0,2.28,0,3.42A1.55,1.55,0,0,1,98.31,42Zm0-1.54h1.53a.93.93,0,0,0,1-.92,14.77,14.77,0,0,0,0-1.63.9.9,0,0,0-.94-.91c-1,0-2.08,0-3.13,0a.91.91,0,0,0-.94.94c0,.49,0,1,0,1.47a1,1,0,0,0,1.07,1C94.38,40.49,94.85,40.48,95.32,40.48Z"/><path d="M73.1,42H70.16a1.57,1.57,0,0,1-1.66-1.59c0-1.13,0-2.26,0-3.38a1.58,1.58,0,0,1,1.67-1.58h5.92a1.55,1.55,0,0,1,1.65,1.59c0,1.13,0,2.25,0,3.38A1.55,1.55,0,0,1,76.12,42Zm.07-5H71.6a.93.93,0,0,0-1,.94,14.23,14.23,0,0,0,0,1.6.9.9,0,0,0,1,.92q1.55,0,3.09,0a.91.91,0,0,0,1-1c0-.5,0-1,0-1.51a.94.94,0,0,0-1-1Z"/><path d="M26.6,40h2c.24.65.32.71,1.07.71s1.59,0,2.39,0c.48,0,.62-.18.62-.64s-.24-.52-.58-.53l-3.2-.16-1.18-.07a1.09,1.09,0,0,1-1.08-.94,10.52,10.52,0,0,1,0-1.86c.05-.55.51-.79,1-.92a2.69,2.69,0,0,1,.7-.07c1.68,0,3.36,0,5,0,1.14,0,1.51.54,1.47,1.66,0,.09-.16.23-.25.23-.59,0-1.17,0-1.77,0-.23-.56-.26-.58-.93-.58H29.38c-.47,0-.66.15-.68.51s.15.57.64.59c1.11.06,2.22.09,3.33.14a9.1,9.1,0,0,1,1,.08,1.32,1.32,0,0,1,1.22,1.41c0,.31,0,.62,0,.93A1.56,1.56,0,0,1,33.55,42a4.21,4.21,0,0,1-.62,0h-4.7A1.52,1.52,0,0,1,26.6,40Z"/><path d="M151.66,39.94h2.1c.17.61.3.71,1,.72.82,0,1.64,0,2.47,0,.46,0,.63-.15.64-.54s-.13-.61-.62-.64L153,39.27a1.16,1.16,0,0,1-1.22-1.2,12.68,12.68,0,0,1,0-1.51,1.17,1.17,0,0,1,1-1,4,4,0,0,1,.7-.06h4.85c1.34,0,1.77.47,1.64,1.88h-2c-.18-.53-.24-.57-.88-.57h-2.55c-.48,0-.66.14-.66.52s.13.55.6.58c1.11.06,2.22.09,3.33.14.32,0,.65,0,1,.06a1.35,1.35,0,0,1,1.32,1.48c0,.3,0,.6,0,.89A1.54,1.54,0,0,1,158.72,42a8,8,0,0,1-1.1,0c-1.45,0-2.89,0-4.34,0a1.47,1.47,0,0,1-1.55-1A6.81,6.81,0,0,1,151.66,39.94Z"/><path d="M120.69,39.24v1.23h5.47V42h-7.58V35.5h7.57v1.41h-5.46V38h5.07v1.28Z"/><path d="M143.7,42c-.73,0-1.44,0-2.15,0a.4.4,0,0,1-.25-.26c-.24-.83-.8-1-1.62-1-1,.08-2,0-3,0a.41.41,0,0,0-.45.28,1.22,1.22,0,0,1-1.57.94,8.32,8.32,0,0,0-1.23,0c.08-.16.13-.28.19-.38l3.24-5.86a.51.51,0,0,1,.54-.32c.81,0,1.62,0,2.43,0a.61.61,0,0,1,.41.19c1.16,2.06,2.3,4.13,3.44,6.19A.52.52,0,0,1,143.7,42Zm-6.62-2.54h3l-1.51-2.76Z"/><path d="M35.36,35.49h2.09c0,.13,0,.27,0,.41,0,1.11,0,2.22,0,3.34,0,.91.33,1.24,1.25,1.24h2.12c.75,0,1.1-.34,1.11-1.1,0-1.14,0-2.28,0-3.42v-.47h2.08c0,.11,0,.22,0,.33v4.44a1.82,1.82,0,0,1-.48,1.31,1.44,1.44,0,0,1-1.09.45H37a1.51,1.51,0,0,1-1.56-1.52c0-1.53,0-3,0-4.58Z"/><path d="M129.71,42V37.17h-3V35.49H135v1.67h-3V42Z"/><path d="M65.06,42H62.77V37.16h-3V35.49h8.32v1.65h-3Z"/><path d="M144.29,42v-6.5h2.07c0,.14,0,.28,0,.42,0,1.37,0,2.74,0,4.12,0,.31.09.39.4.39,1.34,0,2.68,0,4,0h.45V42Z"/><path d="M57.23,35.48h1.9V42h-1.9Z"/></svg>