<svg id="Layer_1" data-name="Layer 1" xmlns="http://www.w3.org/2000/svg" viewBox="0 0 164 68"><defs><style>.cls-1{fill:#060606;}.cls-2{fill:#fff;}.cls-3{font-size:4.45px;fill:#010101;font-family:AraESNawar-Regular, Nawar Font;}.cls-4{fill:none;stroke:#000;stroke-miterlimit:10;stroke-width:0.25px;}.cls-5{fill:#010202;}</style></defs><rect class="cls-1" x="30.61" y="4.45" width="107.05" height="26.13" rx="13.07"/><rect class="cls-2" x="33.08" y="6.26" width="102.53" height="22.16" rx="11.08"/><text class="cls-3" transform="translate(121.74 12.62)">R</text><circle class="cls-4" cx="123.12" cy="11.29" r="2.25"/><polygon class="cls-1" points="54.26 11.92 55.34 9.75 46.19 9.75 46.19 11.92 50.92 11.92 45.4 24.44 47.81 24.44 48.05 24.44 120.01 24.44 120.01 21.91 49.31 21.91 54.26 11.92"/><rect class="cls-1" x="59.74" y="9.39" width="2.59" height="10.75"/><path class="cls-1" d="M81.79,13.94,86,16.58l4.21-2.65v6.21h2.59V9.63a.13.13,0,0,0-.2-.12L90.2,11,86,13.63,81.72,11.1l-2-1.35a.34.34,0,0,0-.53.28V20.14h2.59Z"/><polygon class="cls-1" points="70.61 20.14 75.21 20.14 75.21 17.62 70.61 17.62 70.61 9.39 68.02 9.39 68.02 20.14 69.11 20.14 70.61 20.14"/><polygon class="cls-1" points="116.5 9.39 113.91 9.39 110.4 9.39 110.4 11.9 113.91 11.9 113.91 20.14 116.5 20.14 116.5 11.9 120.01 11.9 120.01 9.39 116.5 9.39"/><path class="cls-1" d="M97.4,16.33H99v3.81h8.14V17.62h-5.55V16.33h2.61a.65.65,0,0,0,.65-.65V15a.65.65,0,0,0-.65-.65h-2.61V11.9h5.55V9.39H99v4.94H97.4a.65.65,0,0,0-.65.65v.7A.65.65,0,0,0,97.4,16.33Z"/><path class="cls-2" d="M119,47.81A43,43,0,0,1,85.53,65.53,43.26,43.26,0,0,1,43.05,34l82.71-.13A43.41,43.41,0,0,1,119,47.81Z"/><path class="cls-5" d="M43.51,33.76l7.19.05C53.16,51.19,68.37,64,85.46,63.42a34.35,34.35,0,0,0,32.62-29.61l7.58,0c-5,17.81-20.56,30.53-38.35,31.72-19.78,1.32-38.45-11.87-44.16-31.8Z"/><path class="cls-5" d="M116.48,33.75h.82c-2.37,16.06-15.74,28.15-31.37,28.87C69.22,63.38,54.07,51,51.5,33.81c2.54,0,5.08,0,7.63,0C58.6,49.22,71.5,61.52,85.68,60.73c13.21-.74,24.25-12.66,23.67-27Z"/><path class="cls-5" d="M108.13,33.87h.44A24.35,24.35,0,1,1,60,33.78l6.86.09A19.5,19.5,0,0,0,68,46.58c.22.46,5.1,10.32,15.59,10.66,9.84.32,15.3-8,15.6-8.49a19.2,19.2,0,0,0,2.11-14.88Z"/><path class="cls-5" d="M70.62,33.75h4.64a12.6,12.6,0,0,0-1.68,14.09,12,12,0,0,0,22-1.74c2.31-6.55-2.22-12-2.41-12.23l7.39-.06a18.49,18.49,0,0,1-1.67,13.85c-.32.56-5.34,8.9-14.93,8.8a17.17,17.17,0,0,1-15-9.64A18.07,18.07,0,0,1,68,33.75Z"/><path class="cls-5" d="M89.26,34h3c3.77,4.64,4,10.93.84,15.13a11.35,11.35,0,0,1-10.52,4.34,11.23,11.23,0,0,1-8.65-6.57A11.81,11.81,0,0,1,76.47,34l6.94-.05a9,9,0,0,1-.85,2.73c-1.13,2.24-2.47,2.42-3.6,4.14a7.28,7.28,0,0,0-.52,7.13,6.48,6.48,0,0,0,10.11,1.76A6.73,6.73,0,0,0,90.71,45c0-2.77-2-5-2.64-5.66a11.68,11.68,0,0,1-2.41-2.75,7.45,7.45,0,0,1-.8-2.68Z"/></svg>