<svg width="160" height="530" viewBox="0 0 160 530" fill="none" xmlns="http://www.w3.org/2000/svg">
<path opacity="0.08" d="M92.2383 430.798L92.0527 430.616L112 410.247L112 333.978L92.0527 313.608L92.251 313.414H92V273.733H92.2402L92.0527 273.55L112 253.181L112 176.907L92.0527 156.538L92.251 156.344H92V116.663H92.2363L92.0527 116.483L112 96.1142L112 19.8369L92.0527 -0.53229L92.249 -0.724673H92L92 -40.4053H92.2402L92.0527 -40.5889L112 -60.9581L112 -137.235L92.0527 -157.605L92.251 -157.799H92L92 -197.48H92.2402L92.0527 -197.663L112 -218.032L112 -256.999H160V-217.318H159.784L159.945 -217.163L140 -196.55V-158.718L159.945 -138.105L159.793 -137.958H160V-60.2462H159.78L159.945 -60.087L140 -39.4737V-1.64362L159.945 18.9697L159.793 19.1162H160V96.8222H159.778L159.945 96.9833L140 117.597V155.427L159.945 176.04L159.793 176.186H160V253.891H159.78L159.945 254.05L140 274.663L140 312.495L159.945 333.108L159.796 333.253H160V410.959H159.782L159.945 411.116L140 431.729L140 469.562L159.945 490.175L159.796 490.319H160V530H112V491.044L92.0527 470.675L92.2529 470.479H92V430.798H92.2383ZM158 528V492.319H114V528H158ZM158 408.959V373.278H114L114 408.959H158ZM158 370.934V335.253H114V370.934H158ZM158 251.891V216.21H114L114 251.891H158ZM158 213.867V178.186H114V213.867H158ZM158 94.8222V59.1415H114L114 94.8222H158ZM158 56.7968V21.1162H114V56.7968H158ZM158 -62.2462V-97.9268H114L114 -62.2462H158ZM158 -100.277V-135.958H114V-100.277H158ZM158 -219.318V-254.999H114L114 -219.318H158ZM138.12 116.663L157.317 96.8222H114.105L94.6748 116.663H138.12ZM138.116 273.733L157.315 253.891H114.103L94.6709 273.733H138.116ZM138.118 -40.4053L157.315 -60.2462H114.102L94.6709 -40.4053H138.118ZM138.118 430.798L157.313 410.959H114.102L94.6729 430.798H138.118ZM138.116 -197.48L157.313 -217.318H114.1L94.6709 -197.48H138.116ZM114.093 176.186H157.304L138.104 156.344H94.6602L114.093 176.186ZM114.093 19.1162H157.304L138.105 -0.724673H94.6621L114.093 19.1162ZM114.091 -137.958H157.304L138.105 -157.799H94.6602L114.091 -137.958ZM114.089 490.319H157.302L138.104 470.479H94.6582L114.089 490.319ZM114.089 333.253H157.302L138.105 313.414H94.6602L114.089 333.253ZM138 468.479L138 432.798H94V468.479H138ZM138 311.414L138 275.733H94V311.414H138ZM138 154.344V118.663H94V154.344H138ZM138 -2.72467V-38.4053H94L94 -2.72467H138ZM138 -159.799V-195.48H94L94 -159.799H138ZM0.238281 430.798L0.0527344 430.616L20 410.247L20 333.978L0.0527344 313.608L0.250977 313.414H0L0 273.733H0.240234L0.0527344 273.55L20 253.181L20 176.907L0.0527344 156.538L0.250977 156.344H0L0 116.663H0.236328L0.0527344 116.483L20 96.1142L20 19.8369L0.0527344 -0.53229L0.249023 -0.724673H0L0 -40.4053H0.240234L0.0527344 -40.5889L20 -60.9581L20 -137.235L0.0527344 -157.605L0.250977 -157.799H0L0 -197.48H0.240234L0.0527344 -197.663L20 -218.032L20 -256.999H68L68 -217.318H67.7842L67.9453 -217.163L48 -196.55L48 -158.718L67.9453 -138.105L67.793 -137.958H68L68 -60.2462H67.7803L67.9453 -60.087L48 -39.4737L48 -1.64362L67.9453 18.9697L67.793 19.1162H68L68 96.8222H67.7783L67.9453 96.9833L48 117.597L48 155.427L67.9453 176.04L67.793 176.186H68L68 253.891H67.7803L67.9453 254.05L48 274.663L48 312.495L67.9453 333.108L67.7959 333.253H68L68 410.959H67.7822L67.9453 411.116L48 431.729L48 469.562L67.9453 490.175L67.7959 490.319H68V530H20L20 491.044L0.0527344 470.675L0.25293 470.479H0L0 430.798H0.238281ZM66 528V492.319H22L22 528H66ZM66 408.959L66 373.278H22L22 408.959H66ZM66 370.934V335.253H22L22 370.934H66ZM66 251.891L66 216.21H22L22 251.891H66ZM66 213.867V178.186H22L22 213.867H66ZM66 94.8222L66 59.1415H22L22 94.8222H66ZM66 56.7968V21.1162H22L22 56.7968H66ZM66 -62.2462L66 -97.9268H22L22 -62.2462H66ZM66 -100.277V-135.958H22L22 -100.277H66ZM66 -219.318L66 -254.999H22L22 -219.318H66ZM46.1201 116.663L65.3174 96.8222H22.1045L2.67481 116.663H46.1201ZM46.1162 273.733L65.3154 253.891H22.1025L2.6709 273.733H46.1162ZM46.1182 -40.4053L65.3154 -60.2462H22.1016L2.6709 -40.4053H46.1182ZM46.1182 430.798L65.3135 410.959H22.1016L2.67285 430.798H46.1182ZM46.1162 -197.48L65.3125 -217.318H22.0996L2.6709 -197.48H46.1162ZM22.0928 176.186H65.3037L46.1035 156.344H2.66016L22.0928 176.186ZM22.0928 19.1162H65.3037L46.1055 -0.724673H2.66211L22.0928 19.1162ZM22.0908 -137.958H65.3037L46.1055 -157.799H2.66016L22.0908 -137.958ZM22.0889 490.319H65.3018L46.1035 470.479H2.6582L22.0889 490.319ZM22.0889 333.253H65.3018L46.1055 313.414H2.66016L22.0889 333.253ZM46 468.479L46 432.798H2L2 468.479H46ZM46 311.414L46 275.733H2L2 311.414H46ZM46 154.344L46 118.663H2L2 154.344H46ZM46 -2.72467L46 -38.4053H2L2 -2.72467H46ZM46 -159.799L46 -195.48H2L2 -159.799H46Z" fill="#E9F1FC"/>
</svg>
