<svg width="954" height="740" viewBox="0 0 954 740" fill="none" xmlns="http://www.w3.org/2000/svg">
<path opacity="0.3" d="M-876.664 777.038L-876.498 776.869L-857.333 795.637H-785.901L-766.736 776.869L-766.551 777.058V776.82H-729.219V777.042L-729.049 776.869L-709.884 795.637H-638.456L-619.291 776.869L-619.105 777.058V776.82H-581.773V777.042L-581.604 776.869L-562.438 795.637H-491.011L-471.846 776.869L-471.656 777.062V776.82H-434.324V777.042L-434.154 776.869L-414.989 795.637H-343.562L-324.396 776.869L-324.215 777.054V776.82H-286.883V777.046L-286.709 776.869L-267.544 795.637H-196.116L-176.951 776.869L-176.766 777.058V776.82H-139.434V777.038L-139.268 776.869L-120.103 795.637H-48.6631L-29.498 776.869L-29.3203 777.05V776.82H8.01172V777.05L8.18945 776.869L27.3545 795.637H98.7822L117.947 776.869L118.129 777.054V776.82H155.461V777.046L155.635 776.869L174.8 795.637H246.228L265.393 776.869L265.582 777.062V776.82H302.914V777.038L303.08 776.869L322.245 795.637H394.001L413.166 776.869L413.348 777.054V776.82H450.68V777.046L450.854 776.869L470.019 795.637H541.774L560.939 776.869L561.121 777.054V776.82H598.453V777.042L598.623 776.869L617.788 795.637H689.548L708.713 776.869L708.891 777.05V776.82H746.223V777.05L746.4 776.869L765.565 795.637H837.325L856.49 776.869L856.672 777.054V776.82H894.004V777.046L894.178 776.869L913.343 795.637H950V840.796H912.668V840.592L912.521 840.743L893.13 821.979H857.534L838.143 840.743L838.004 840.6V840.796H764.891V840.587L764.74 840.743L745.349 821.979H709.757L690.365 840.743L690.227 840.6V840.796H617.121V840.583L616.967 840.743L597.575 821.979H561.983L542.592 840.743L542.457 840.604V840.796H469.348V840.587L469.197 840.743L449.806 821.979H414.21L394.818 840.743L394.684 840.604V840.796H321.578V840.587L321.428 840.743L302.036 821.979H266.44L247.049 840.743L246.914 840.604V840.796H174.125V840.596L173.982 840.743L154.591 821.979H118.991L99.5996 840.743L99.4609 840.6V840.796H26.6797V840.587L26.5293 840.743L7.1377 821.979H-28.4541L-47.8457 840.743L-47.9844 840.6V840.796H-120.766V840.583L-120.92 840.743L-140.312 821.979H-175.903L-195.295 840.743L-195.434 840.6V840.796H-268.215V840.587L-268.365 840.743L-287.757 821.979H-323.353L-342.744 840.743L-342.879 840.604V840.796H-415.66V840.587L-415.811 840.743L-435.202 821.979H-470.798L-490.189 840.743L-490.324 840.604V840.796H-563.105V840.587L-563.256 840.743L-582.647 821.979H-618.243L-637.635 840.743L-637.773 840.6V840.796H-710.555V840.587L-710.705 840.743L-730.097 821.979H-765.692L-785.084 840.743L-785.219 840.604V840.796H-858V840.587L-858.15 840.743L-877.542 821.979H-913.138L-932.529 840.743L-932.668 840.6V840.796H-970V795.637H-933.351L-914.186 776.869L-913.996 777.062V776.82H-876.664V777.038ZM-968.118 838.914H-934.55V797.519H-968.118V838.914ZM-856.118 838.914H-822.551V797.519H-856.118V838.914ZM-820.668 838.914H-787.101V797.519H-820.668V838.914ZM-708.673 838.914H-675.105V797.519H-708.673V838.914ZM-673.223 838.914H-639.655V797.519H-673.223V838.914ZM-561.224 838.914H-527.656V797.519H-561.224V838.914ZM-525.773 838.914H-492.206V797.519H-525.773V838.914ZM-413.778 838.914H-380.211V797.519H-413.778V838.914ZM-378.328 838.914H-344.761V797.519H-378.328V838.914ZM-266.333 838.914H-232.766V797.519H-266.333V838.914ZM-230.883 838.914H-197.315V797.519H-230.883V838.914ZM-118.884 838.914H-85.3164V797.519H-118.884V838.914ZM-83.4336 838.914H-49.8662V797.519H-83.4336V838.914ZM28.5615 838.914H62.1289V797.519H28.5615V838.914ZM64.0117 838.914H97.5791V797.519H64.0117V838.914ZM176.007 838.914H209.575V797.519H176.007V838.914ZM211.464 838.914H245.032V797.519H211.464V838.914ZM323.46 838.914H357.028V797.519H323.46V838.914ZM359.233 838.914H392.802V797.519H359.233V838.914ZM471.229 838.914H504.798V797.519H471.229V838.914ZM507.007 838.914H540.575V797.519H507.007V838.914ZM619.003 838.914H652.571V797.519H619.003V838.914ZM654.776 838.914H688.345V797.519H654.776V838.914ZM766.772 838.914H800.341V797.519H766.772V838.914ZM802.554 838.914H836.122V797.519H802.554V838.914ZM914.55 838.914H948.118V797.519H914.55V838.914ZM-139.434 820.211L-120.766 838.274V797.62L-139.434 779.339V820.211ZM598.453 820.211L617.121 838.274V797.616L598.453 779.335V820.211ZM-876.664 820.211L-858 838.271V797.616L-876.664 779.339V820.211ZM-729.219 820.211L-710.555 838.271V797.612L-729.219 779.335V820.211ZM-581.773 820.207L-563.105 838.271V797.616L-581.773 779.335V820.207ZM-434.324 820.211L-415.66 838.271V797.612L-434.324 779.335V820.211ZM-286.883 820.207L-268.215 838.271V797.612L-286.883 779.331V820.207ZM8.01172 820.207L26.6797 838.271V797.608L8.01172 779.327V820.207ZM302.914 820.211L321.578 838.271V797.616L302.914 779.339V820.211ZM450.68 820.207L469.348 838.271V797.612L450.68 779.331V820.207ZM746.223 820.207L764.891 838.271V797.608L746.223 779.327V820.207ZM894.004 820.207L912.668 838.267V797.608L894.004 779.331V820.207ZM155.461 820.203L174.125 838.263V797.608L155.461 779.331V820.203ZM-932.668 797.601V838.259L-913.996 820.192V779.316L-932.668 797.601ZM-637.773 797.601V838.259L-619.105 820.196V779.32L-637.773 797.601ZM-195.434 797.601V838.259L-176.766 820.196V779.32L-195.434 797.601ZM-47.9844 797.604V838.259L-29.3203 820.199V779.327L-47.9844 797.604ZM99.4609 797.604V838.259L118.129 820.196V779.323L99.4609 797.604ZM690.227 797.604V838.259L708.891 820.199V779.327L690.227 797.604ZM838.004 797.604V838.259L856.672 820.196V779.323L838.004 797.604ZM-785.219 797.601V838.255L-766.551 820.192V779.32L-785.219 797.601ZM-490.324 797.597V838.255L-471.656 820.192V779.316L-490.324 797.597ZM-342.879 797.601V838.255L-324.215 820.196V779.323L-342.879 797.601ZM246.914 797.597V838.255L265.582 820.192V779.316L246.914 797.597ZM394.684 797.601V838.255L413.348 820.196V779.323L394.684 797.601ZM542.457 797.601V838.255L561.121 820.196V779.323L542.457 797.601ZM-912.114 820.098H-878.546V778.702H-912.114V820.098ZM-764.669 820.098H-731.101V778.702H-764.669V820.098ZM-617.224 820.098H-583.655V778.702H-617.224V820.098ZM-469.774 820.098H-436.206V778.702H-469.774V820.098ZM-322.333 820.098H-288.765V778.702H-322.333V820.098ZM-174.884 820.098H-141.315V778.702H-174.884V820.098ZM-27.4385 820.098H6.12988V778.702H-27.4385V820.098ZM120.011 820.098H153.579V778.702H120.011V820.098ZM267.464 820.098H301.032V778.702H267.464V820.098ZM415.229 820.098H448.798V778.702H415.229V820.098ZM563.003 820.098H596.571V778.702H563.003V820.098ZM710.772 820.098H744.341V778.702H710.772V820.098ZM858.554 820.098H892.122V778.702H858.554V820.098ZM-876.664 690.483L-876.498 690.314L-857.333 709.082H-785.901L-766.736 690.314L-766.551 690.503V690.266H-729.219V690.487L-729.049 690.314L-709.884 709.082H-638.456L-619.291 690.314L-619.105 690.503V690.266H-581.773V690.487L-581.604 690.314L-562.438 709.082H-491.011L-471.846 690.314L-471.656 690.508V690.266H-434.324V690.487L-434.154 690.314L-414.989 709.082H-343.562L-324.396 690.314L-324.215 690.499V690.266H-286.883V690.491L-286.709 690.314L-267.544 709.082H-196.116L-176.951 690.314L-176.766 690.503V690.266H-139.434V690.483L-139.268 690.314L-120.103 709.082H-48.6631L-29.498 690.314L-29.3203 690.495V690.266H8.01172V690.495L8.18945 690.314L27.3545 709.082H98.7822L117.947 690.314L118.129 690.499V690.266H155.461V690.491L155.635 690.314L174.8 709.082H246.228L265.393 690.314L265.582 690.508V690.266H302.914V690.483L303.08 690.314L322.245 709.082H394.001L413.166 690.314L413.348 690.499V690.266H450.68V690.491L450.854 690.314L470.019 709.082H541.774L560.939 690.314L561.121 690.499V690.266H598.453V690.487L598.623 690.314L617.788 709.082H689.548L708.713 690.314L708.891 690.495V690.266H746.223V690.495L746.4 690.314L765.565 709.082H837.325L856.49 690.314L856.672 690.499V690.266H894.004V690.491L894.178 690.314L913.343 709.082H950V754.241H912.668V754.037L912.521 754.188L893.13 735.425H857.534L838.143 754.188L838.004 754.045V754.241H764.891V754.032L764.74 754.188L745.349 735.425H709.757L690.365 754.188L690.227 754.045V754.241H617.121V754.028L616.967 754.188L597.575 735.425H561.983L542.592 754.188L542.457 754.049V754.241H469.348V754.032L469.197 754.188L449.806 735.425H414.21L394.818 754.188L394.684 754.049V754.241H321.578V754.032L321.428 754.188L302.036 735.425H266.44L247.049 754.188L246.914 754.049V754.241H174.125V754.041L173.982 754.188L154.591 735.425H118.991L99.5996 754.188L99.4609 754.045V754.241H26.6797V754.032L26.5293 754.188L7.1377 735.425H-28.4541L-47.8457 754.188L-47.9844 754.045V754.241H-120.766V754.028L-120.92 754.188L-140.312 735.425H-175.903L-195.295 754.188L-195.434 754.045V754.241H-268.215V754.032L-268.365 754.188L-287.757 735.425H-323.353L-342.744 754.188L-342.879 754.049V754.241H-415.66V754.032L-415.811 754.188L-435.202 735.425H-470.798L-490.189 754.188L-490.324 754.049V754.241H-563.105V754.032L-563.256 754.188L-582.647 735.425H-618.243L-637.635 754.188L-637.773 754.045V754.241H-710.555V754.032L-710.705 754.188L-730.097 735.425H-765.692L-785.084 754.188L-785.219 754.049V754.241H-858V754.032L-858.15 754.188L-877.542 735.425H-913.138L-932.529 754.188L-932.668 754.045V754.241H-970V709.082H-933.351L-914.186 690.314L-913.996 690.508V690.266H-876.664V690.483ZM-968.118 752.359H-934.55V710.964H-968.118V752.359ZM-856.118 752.359H-822.551V710.964H-856.118V752.359ZM-820.668 752.359H-787.101V710.964H-820.668V752.359ZM-708.673 752.359H-675.105V710.964H-708.673V752.359ZM-673.223 752.359H-639.655V710.964H-673.223V752.359ZM-561.224 752.359H-527.656V710.964H-561.224V752.359ZM-525.773 752.359H-492.206V710.964H-525.773V752.359ZM-413.778 752.359H-380.211V710.964H-413.778V752.359ZM-378.328 752.359H-344.761V710.964H-378.328V752.359ZM-266.333 752.359H-232.766V710.964H-266.333V752.359ZM-230.883 752.359H-197.315V710.964H-230.883V752.359ZM-118.884 752.359H-85.3164V710.964H-118.884V752.359ZM-83.4336 752.359H-49.8662V710.964H-83.4336V752.359ZM28.5615 752.359H62.1289V710.964H28.5615V752.359ZM64.0117 752.359H97.5791V710.964H64.0117V752.359ZM176.007 752.359H209.575V710.964H176.007V752.359ZM211.464 752.359H245.032V710.964H211.464V752.359ZM323.46 752.359H357.028V710.964H323.46V752.359ZM359.233 752.359H392.802V710.964H359.233V752.359ZM471.229 752.359H504.798V710.964H471.229V752.359ZM507.007 752.359H540.575V710.964H507.007V752.359ZM619.003 752.359H652.571V710.964H619.003V752.359ZM654.776 752.359H688.345V710.964H654.776V752.359ZM766.772 752.359H800.341V710.964H766.772V752.359ZM802.554 752.359H836.122V710.964H802.554V752.359ZM914.55 752.359H948.118V710.964H914.55V752.359ZM-139.434 733.656L-120.766 751.72V711.065L-139.434 692.784V733.656ZM598.453 733.656L617.121 751.72V711.062L598.453 692.78V733.656ZM-876.664 733.656L-858 751.716V711.062L-876.664 692.784V733.656ZM-729.219 733.656L-710.555 751.716V711.058L-729.219 692.78V733.656ZM-581.773 733.652L-563.105 751.716V711.062L-581.773 692.78V733.652ZM-434.324 733.656L-415.66 751.716V711.058L-434.324 692.78V733.656ZM-286.883 733.652L-268.215 751.716V711.058L-286.883 692.776V733.652ZM8.01172 733.652L26.6797 751.716V711.054L8.01172 692.772V733.652ZM302.914 733.656L321.578 751.716V711.062L302.914 692.784V733.656ZM450.68 733.652L469.348 751.716V711.058L450.68 692.776V733.652ZM746.223 733.652L764.891 751.716V711.054L746.223 692.772V733.652ZM894.004 733.652L912.668 751.712V711.054L894.004 692.776V733.652ZM155.461 733.648L174.125 751.708V711.054L155.461 692.776V733.648ZM-932.668 711.046V751.704L-913.996 733.638V692.762L-932.668 711.046ZM-637.773 711.046V751.704L-619.105 733.642V692.766L-637.773 711.046ZM-195.434 711.046V751.704L-176.766 733.642V692.766L-195.434 711.046ZM-47.9844 711.05V751.704L-29.3203 733.645V692.772L-47.9844 711.05ZM99.4609 711.05V751.704L118.129 733.642V692.769L99.4609 711.05ZM690.227 711.05V751.704L708.891 733.645V692.772L690.227 711.05ZM838.004 711.05V751.704L856.672 733.642V692.769L838.004 711.05ZM-785.219 711.046V751.7L-766.551 733.638V692.766L-785.219 711.046ZM-490.324 711.042V751.7L-471.656 733.638V692.762L-490.324 711.042ZM-342.879 711.046V751.7L-324.215 733.642V692.769L-342.879 711.046ZM246.914 711.042V751.7L265.582 733.638V692.762L246.914 711.042ZM394.684 711.046V751.7L413.348 733.642V692.769L394.684 711.046ZM542.457 711.046V751.7L561.121 733.642V692.769L542.457 711.046ZM-912.114 733.543H-878.546V692.147H-912.114V733.543ZM-764.669 733.543H-731.101V692.147H-764.669V733.543ZM-617.224 733.543H-583.655V692.147H-617.224V733.543ZM-469.774 733.543H-436.206V692.147H-469.774V733.543ZM-322.333 733.543H-288.765V692.147H-322.333V733.543ZM-174.884 733.543H-141.315V692.147H-174.884V733.543ZM-27.4385 733.543H6.12988V692.147H-27.4385V733.543ZM120.011 733.543H153.579V692.147H120.011V733.543ZM267.464 733.543H301.032V692.147H267.464V733.543ZM415.229 733.543H448.798V692.147H415.229V733.543ZM563.003 733.543H596.571V692.147H563.003V733.543ZM710.772 733.543H744.341V692.147H710.772V733.543ZM858.554 733.543H892.122V692.147H858.554V733.543ZM-876.664 604.366L-876.498 604.197L-857.333 622.965H-785.901L-766.736 604.197L-766.551 604.386V604.148H-729.219V604.37L-729.049 604.197L-709.884 622.965H-638.456L-619.291 604.197L-619.105 604.386V604.148H-581.773V604.37L-581.604 604.197L-562.438 622.965H-491.011L-471.846 604.197L-471.656 604.391V604.148H-434.324V604.37L-434.154 604.197L-414.989 622.965H-343.562L-324.396 604.197L-324.215 604.382V604.148H-286.883V604.374L-286.709 604.197L-267.544 622.965H-196.116L-176.951 604.197L-176.766 604.386V604.148H-139.434V604.366L-139.268 604.197L-120.103 622.965H-48.6631L-29.498 604.197L-29.3203 604.378V604.148H8.01172V604.378L8.18945 604.197L27.3545 622.965H98.7822L117.947 604.197L118.129 604.382V604.148H155.461V604.374L155.635 604.197L174.8 622.965H246.228L265.393 604.197L265.582 604.391V604.148H302.914V604.366L303.08 604.197L322.245 622.965H394.001L413.166 604.197L413.348 604.382V604.148H450.68V604.374L450.854 604.197L470.019 622.965H541.774L560.939 604.197L561.121 604.382V604.148H598.453V604.37L598.623 604.197L617.788 622.965H689.548L708.713 604.197L708.891 604.378V604.148H746.223V604.378L746.4 604.197L765.565 622.965H837.325L856.49 604.197L856.672 604.382V604.148H894.004V604.374L894.178 604.197L913.343 622.965H950V668.124H912.668V667.92L912.521 668.071L893.13 649.308H857.534L838.143 668.071L838.004 667.928V668.124H764.891V667.915L764.74 668.071L745.349 649.308H709.757L690.365 668.071L690.227 667.928V668.124H617.121V667.911L616.967 668.071L597.575 649.308H561.983L542.592 668.071L542.457 667.932V668.124H469.348V667.915L469.197 668.071L449.806 649.308H414.21L394.818 668.071L394.684 667.932V668.124H321.578V667.915L321.428 668.071L302.036 649.308H266.44L247.049 668.071L246.914 667.932V668.124H174.125V667.924L173.982 668.071L154.591 649.308H118.991L99.5996 668.071L99.4609 667.928V668.124H26.6797V667.915L26.5293 668.071L7.1377 649.308H-28.4541L-47.8457 668.071L-47.9844 667.928V668.124H-120.766V667.911L-120.92 668.071L-140.312 649.308H-175.903L-195.295 668.071L-195.434 667.928V668.124H-268.215V667.915L-268.365 668.071L-287.757 649.308H-323.353L-342.744 668.071L-342.879 667.932V668.124H-415.66V667.915L-415.811 668.071L-435.202 649.308H-470.798L-490.189 668.071L-490.324 667.932V668.124H-563.105V667.915L-563.256 668.071L-582.647 649.308H-618.243L-637.635 668.071L-637.773 667.928V668.124H-710.555V667.915L-710.705 668.071L-730.097 649.308H-765.692L-785.084 668.071L-785.219 667.932V668.124H-858V667.915L-858.15 668.071L-877.542 649.308H-913.138L-932.529 668.071L-932.668 667.928V668.124H-970V622.965H-933.351L-914.186 604.197L-913.996 604.391V604.148H-876.664V604.366ZM-968.118 666.242H-934.55V624.847H-968.118V666.242ZM-856.118 666.242H-822.551V624.847H-856.118V666.242ZM-820.668 666.242H-787.101V624.847H-820.668V666.242ZM-708.673 666.242H-675.105V624.847H-708.673V666.242ZM-673.223 666.242H-639.655V624.847H-673.223V666.242ZM-561.224 666.242H-527.656V624.847H-561.224V666.242ZM-525.773 666.242H-492.206V624.847H-525.773V666.242ZM-413.778 666.242H-380.211V624.847H-413.778V666.242ZM-378.328 666.242H-344.761V624.847H-378.328V666.242ZM-266.333 666.242H-232.766V624.847H-266.333V666.242ZM-230.883 666.242H-197.315V624.847H-230.883V666.242ZM-118.884 666.242H-85.3164V624.847H-118.884V666.242ZM-83.4336 666.242H-49.8662V624.847H-83.4336V666.242ZM28.5615 666.242H62.1289V624.847H28.5615V666.242ZM64.0117 666.242H97.5791V624.847H64.0117V666.242ZM176.007 666.242H209.575V624.847H176.007V666.242ZM211.464 666.242H245.032V624.847H211.464V666.242ZM323.46 666.242H357.028V624.847H323.46V666.242ZM359.233 666.242H392.802V624.847H359.233V666.242ZM471.229 666.242H504.798V624.847H471.229V666.242ZM507.007 666.242H540.575V624.847H507.007V666.242ZM619.003 666.242H652.571V624.847H619.003V666.242ZM654.776 666.242H688.345V624.847H654.776V666.242ZM766.772 666.242H800.341V624.847H766.772V666.242ZM802.554 666.242H836.122V624.847H802.554V666.242ZM914.55 666.242H948.118V624.847H914.55V666.242ZM-139.434 647.539L-120.766 665.603V624.948L-139.434 606.667V647.539ZM598.453 647.539L617.121 665.603V624.944L598.453 606.663V647.539ZM-876.664 647.539L-858 665.599V624.944L-876.664 606.667V647.539ZM-729.219 647.539L-710.555 665.599V624.94L-729.219 606.663V647.539ZM-581.773 647.535L-563.105 665.599V624.944L-581.773 606.663V647.535ZM-434.324 647.539L-415.66 665.599V624.94L-434.324 606.663V647.539ZM-286.883 647.535L-268.215 665.599V624.94L-286.883 606.659V647.535ZM8.01172 647.535L26.6797 665.599V624.937L8.01172 606.655V647.535ZM302.914 647.539L321.578 665.599V624.944L302.914 606.667V647.539ZM450.68 647.535L469.348 665.599V624.94L450.68 606.659V647.535ZM746.223 647.535L764.891 665.599V624.937L746.223 606.655V647.535ZM894.004 647.535L912.668 665.595V624.937L894.004 606.659V647.535ZM155.461 647.531L174.125 665.591V624.937L155.461 606.659V647.531ZM-932.668 624.929V665.587L-913.996 647.521V606.645L-932.668 624.929ZM-637.773 624.929V665.587L-619.105 647.524V606.648L-637.773 624.929ZM-195.434 624.929V665.587L-176.766 647.524V606.648L-195.434 624.929ZM-47.9844 624.933V665.587L-29.3203 647.527V606.655L-47.9844 624.933ZM99.4609 624.933V665.587L118.129 647.524V606.651L99.4609 624.933ZM690.227 624.933V665.587L708.891 647.527V606.655L690.227 624.933ZM838.004 624.933V665.587L856.672 647.524V606.651L838.004 624.933ZM-785.219 624.929V665.583L-766.551 647.521V606.648L-785.219 624.929ZM-490.324 624.925V665.583L-471.656 647.521V606.645L-490.324 624.925ZM-342.879 624.929V665.583L-324.215 647.524V606.651L-342.879 624.929ZM246.914 624.925V665.583L265.582 647.521V606.645L246.914 624.925ZM394.684 624.929V665.583L413.348 647.524V606.651L394.684 624.929ZM542.457 624.929V665.583L561.121 647.524V606.651L542.457 624.929ZM-912.114 647.426H-878.546V606.03H-912.114V647.426ZM-764.669 647.426H-731.101V606.03H-764.669V647.426ZM-617.224 647.426H-583.655V606.03H-617.224V647.426ZM-469.774 647.426H-436.206V606.03H-469.774V647.426ZM-322.333 647.426H-288.765V606.03H-322.333V647.426ZM-174.884 647.426H-141.315V606.03H-174.884V647.426ZM-27.4385 647.426H6.12988V606.03H-27.4385V647.426ZM120.011 647.426H153.579V606.03H120.011V647.426ZM267.464 647.426H301.032V606.03H267.464V647.426ZM415.229 647.426H448.798V606.03H415.229V647.426ZM563.003 647.426H596.571V606.03H563.003V647.426ZM710.772 647.426H744.341V606.03H710.772V647.426ZM858.554 647.426H892.122V606.03H858.554V647.426ZM-876.664 517.812L-876.498 517.643L-857.333 536.41H-785.901L-766.736 517.643L-766.551 517.831V517.594H-729.219V517.815L-729.049 517.643L-709.884 536.41H-638.456L-619.291 517.643L-619.105 517.831V517.594H-581.773V517.815L-581.604 517.643L-562.438 536.41H-491.011L-471.846 517.643L-471.656 517.836V517.594H-434.324V517.815L-434.154 517.643L-414.989 536.41H-343.562L-324.396 517.643L-324.215 517.827V517.594H-286.883V517.819L-286.709 517.643L-267.544 536.41H-196.116L-176.951 517.643L-176.766 517.831V517.594H-139.434V517.812L-139.268 517.643L-120.103 536.41H-48.6631L-29.498 517.643L-29.3203 517.823V517.594H8.01172V517.823L8.18945 517.643L27.3545 536.41H98.7822L117.947 517.643L118.129 517.827V517.594H155.461V517.819L155.635 517.643L174.8 536.41H246.228L265.393 517.643L265.582 517.836V517.594H302.914V517.812L303.08 517.643L322.245 536.41H394.001L413.166 517.643L413.348 517.827V517.594H450.68V517.819L450.854 517.643L470.019 536.41H541.774L560.939 517.643L561.121 517.827V517.594H598.453V517.815L598.623 517.643L617.788 536.41H689.548L708.713 517.643L708.891 517.823V517.594H746.223V517.823L746.4 517.643L765.565 536.41H837.325L856.49 517.643L856.672 517.827V517.594H894.004V517.819L894.178 517.643L913.343 536.41H950V581.569H912.668V581.365L912.521 581.517L893.13 562.753H857.534L838.143 581.517L838.004 581.373V581.569H764.891V581.36L764.74 581.517L745.349 562.753H709.757L690.365 581.517L690.227 581.373V581.569H617.121V581.356L616.967 581.517L597.575 562.753H561.983L542.592 581.517L542.457 581.377V581.569H469.348V581.36L469.197 581.517L449.806 562.753H414.21L394.818 581.517L394.684 581.377V581.569H321.578V581.36L321.428 581.517L302.036 562.753H266.44L247.049 581.517L246.914 581.377V581.569H174.125V581.369L173.982 581.517L154.591 562.753H118.991L99.5996 581.517L99.4609 581.373V581.569H26.6797V581.36L26.5293 581.517L7.1377 562.753H-28.4541L-47.8457 581.517L-47.9844 581.373V581.569H-120.766V581.356L-120.92 581.517L-140.312 562.753H-175.903L-195.295 581.517L-195.434 581.373V581.569H-268.215V581.36L-268.365 581.517L-287.757 562.753H-323.353L-342.744 581.517L-342.879 581.377V581.569H-415.66V581.36L-415.811 581.517L-435.202 562.753H-470.798L-490.189 581.517L-490.324 581.377V581.569H-563.105V581.36L-563.256 581.517L-582.647 562.753H-618.243L-637.635 581.517L-637.773 581.373V581.569H-710.555V581.36L-710.705 581.517L-730.097 562.753H-765.692L-785.084 581.517L-785.219 581.377V581.569H-858V581.36L-858.15 581.517L-877.542 562.753H-913.138L-932.529 581.517L-932.668 581.373V581.569H-970V536.41H-933.351L-914.186 517.643L-913.996 517.836V517.594H-876.664V517.812ZM-968.118 579.688H-934.55V538.292H-968.118V579.688ZM-856.118 579.688H-822.551V538.292H-856.118V579.688ZM-820.668 579.688H-787.101V538.292H-820.668V579.688ZM-708.673 579.688H-675.105V538.292H-708.673V579.688ZM-673.223 579.688H-639.655V538.292H-673.223V579.688ZM-561.224 579.688H-527.656V538.292H-561.224V579.688ZM-525.773 579.688H-492.206V538.292H-525.773V579.688ZM-413.778 579.688H-380.211V538.292H-413.778V579.688ZM-378.328 579.688H-344.761V538.292H-378.328V579.688ZM-266.333 579.688H-232.766V538.292H-266.333V579.688ZM-230.883 579.688H-197.315V538.292H-230.883V579.688ZM-118.884 579.688H-85.3164V538.292H-118.884V579.688ZM-83.4336 579.688H-49.8662V538.292H-83.4336V579.688ZM28.5615 579.688H62.1289V538.292H28.5615V579.688ZM64.0117 579.688H97.5791V538.292H64.0117V579.688ZM176.007 579.688H209.575V538.292H176.007V579.688ZM211.464 579.688H245.032V538.292H211.464V579.688ZM323.46 579.688H357.028V538.292H323.46V579.688ZM359.233 579.688H392.802V538.292H359.233V579.688ZM471.229 579.688H504.798V538.292H471.229V579.688ZM507.007 579.688H540.575V538.292H507.007V579.688ZM619.003 579.688H652.571V538.292H619.003V579.688ZM654.776 579.688H688.345V538.292H654.776V579.688ZM766.772 579.688H800.341V538.292H766.772V579.688ZM802.554 579.688H836.122V538.292H802.554V579.688ZM914.55 579.688H948.118V538.292H914.55V579.688ZM-139.434 560.984L-120.766 579.048V538.394L-139.434 520.112V560.984ZM598.453 560.984L617.121 579.048V538.39L598.453 520.108V560.984ZM-876.664 560.984L-858 579.044V538.39L-876.664 520.112V560.984ZM-729.219 560.984L-710.555 579.044V538.386L-729.219 520.108V560.984ZM-581.773 560.98L-563.105 579.044V538.39L-581.773 520.108V560.98ZM-434.324 560.984L-415.66 579.044V538.386L-434.324 520.108V560.984ZM-286.883 560.98L-268.215 579.044V538.386L-286.883 520.104V560.98ZM8.01172 560.98L26.6797 579.044V538.382L8.01172 520.101V560.98ZM302.914 560.984L321.578 579.044V538.39L302.914 520.112V560.984ZM450.68 560.98L469.348 579.044V538.386L450.68 520.104V560.98ZM746.223 560.98L764.891 579.044V538.382L746.223 520.101V560.98ZM894.004 560.98L912.668 579.04V538.382L894.004 520.104V560.98ZM155.461 560.977L174.125 579.036V538.382L155.461 520.104V560.977ZM-932.668 538.374V579.032L-913.996 560.966V520.09L-932.668 538.374ZM-637.773 538.374V579.032L-619.105 560.97V520.094L-637.773 538.374ZM-195.434 538.374V579.032L-176.766 560.97V520.094L-195.434 538.374ZM-47.9844 538.378V579.032L-29.3203 560.973V520.101L-47.9844 538.378ZM99.4609 538.378V579.032L118.129 560.97V520.097L99.4609 538.378ZM690.227 538.378V579.032L708.891 560.973V520.101L690.227 538.378ZM838.004 538.378V579.032L856.672 560.97V520.097L838.004 538.378ZM-785.219 538.374V579.028L-766.551 560.966V520.094L-785.219 538.374ZM-490.324 538.37V579.028L-471.656 560.966V520.09L-490.324 538.37ZM-342.879 538.374V579.028L-324.215 560.97V520.097L-342.879 538.374ZM246.914 538.37V579.028L265.582 560.966V520.09L246.914 538.37ZM394.684 538.374V579.028L413.348 560.97V520.097L394.684 538.374ZM542.457 538.374V579.028L561.121 560.97V520.097L542.457 538.374ZM-912.114 560.871H-878.546V519.476H-912.114V560.871ZM-764.669 560.871H-731.101V519.476H-764.669V560.871ZM-617.224 560.871H-583.655V519.476H-617.224V560.871ZM-469.774 560.871H-436.206V519.476H-469.774V560.871ZM-322.333 560.871H-288.765V519.476H-322.333V560.871ZM-174.884 560.871H-141.315V519.476H-174.884V560.871ZM-27.4385 560.871H6.12988V519.476H-27.4385V560.871ZM120.011 560.871H153.579V519.476H120.011V560.871ZM267.464 560.871H301.032V519.476H267.464V560.871ZM415.229 560.871H448.798V519.476H415.229V560.871ZM563.003 560.871H596.571V519.476H563.003V560.871ZM710.772 560.871H744.341V519.476H710.772V560.871ZM858.554 560.871H892.122V519.476H858.554V560.871ZM-876.664 431.835L-876.498 431.666L-857.333 450.434H-785.901L-766.736 431.666L-766.551 431.854V431.617H-729.219V431.839L-729.049 431.666L-709.884 450.434H-638.456L-619.291 431.666L-619.105 431.854V431.617H-581.773V431.839L-581.604 431.666L-562.438 450.434H-491.011L-471.846 431.666L-471.656 431.859V431.617H-434.324V431.839L-434.154 431.666L-414.989 450.434H-343.562L-324.396 431.666L-324.215 431.851V431.617H-286.883V431.843L-286.709 431.666L-267.544 450.434H-196.116L-176.951 431.666L-176.766 431.854V431.617H-139.434V431.835L-139.268 431.666L-120.103 450.434H-48.6631L-29.498 431.666L-29.3203 431.847V431.617H8.01172V431.847L8.18945 431.666L27.3545 450.434H98.7822L117.947 431.666L118.129 431.851V431.617H155.461V431.843L155.635 431.666L174.8 450.434H246.228L265.393 431.666L265.582 431.859V431.617H302.914V431.835L303.08 431.666L322.245 450.434H394.001L413.166 431.666L413.348 431.851V431.617H450.68V431.843L450.854 431.666L470.019 450.434H541.774L560.939 431.666L561.121 431.851V431.617H598.453V431.839L598.623 431.666L617.788 450.434H689.548L708.713 431.666L708.891 431.847V431.617H746.223V431.847L746.4 431.666L765.565 450.434H837.325L856.49 431.666L856.672 431.851V431.617H894.004V431.843L894.178 431.666L913.343 450.434H950V495.593H912.668V495.389L912.521 495.54L893.13 476.776H857.534L838.143 495.54L838.004 495.396V495.593H764.891V495.384L764.74 495.54L745.349 476.776H709.757L690.365 495.54L690.227 495.396V495.593H617.121V495.38L616.967 495.54L597.575 476.776H561.983L542.592 495.54L542.457 495.4V495.593H469.348V495.384L469.197 495.54L449.806 476.776H414.21L394.818 495.54L394.684 495.4V495.593H321.578V495.384L321.428 495.54L302.036 476.776H266.44L247.049 495.54L246.914 495.4V495.593H174.125V495.393L173.982 495.54L154.591 476.776H118.991L99.5996 495.54L99.4609 495.396V495.593H26.6797V495.384L26.5293 495.54L7.1377 476.776H-28.4541L-47.8457 495.54L-47.9844 495.396V495.593H-120.766V495.38L-120.92 495.54L-140.312 476.776H-175.903L-195.295 495.54L-195.434 495.396V495.593H-268.215V495.384L-268.365 495.54L-287.757 476.776H-323.353L-342.744 495.54L-342.879 495.4V495.593H-415.66V495.384L-415.811 495.54L-435.202 476.776H-470.798L-490.189 495.54L-490.324 495.4V495.593H-563.105V495.384L-563.256 495.54L-582.647 476.776H-618.243L-637.635 495.54L-637.773 495.396V495.593H-710.555V495.384L-710.705 495.54L-730.097 476.776H-765.692L-785.084 495.54L-785.219 495.4V495.593H-858V495.384L-858.15 495.54L-877.542 476.776H-913.138L-932.529 495.54L-932.668 495.396V495.593H-970V450.434H-933.351L-914.186 431.666L-913.996 431.859V431.617H-876.664V431.835ZM-968.118 493.711H-934.55V452.315H-968.118V493.711ZM-856.118 493.711H-822.551V452.315H-856.118V493.711ZM-820.668 493.711H-787.101V452.315H-820.668V493.711ZM-708.673 493.711H-675.105V452.315H-708.673V493.711ZM-673.223 493.711H-639.655V452.315H-673.223V493.711ZM-561.224 493.711H-527.656V452.315H-561.224V493.711ZM-525.773 493.711H-492.206V452.315H-525.773V493.711ZM-413.778 493.711H-380.211V452.315H-413.778V493.711ZM-378.328 493.711H-344.761V452.315H-378.328V493.711ZM-266.333 493.711H-232.766V452.315H-266.333V493.711ZM-230.883 493.711H-197.315V452.315H-230.883V493.711ZM-118.884 493.711H-85.3164V452.315H-118.884V493.711ZM-83.4336 493.711H-49.8662V452.315H-83.4336V493.711ZM28.5615 493.711H62.1289V452.315H28.5615V493.711ZM64.0117 493.711H97.5791V452.315H64.0117V493.711ZM176.007 493.711H209.575V452.315H176.007V493.711ZM211.464 493.711H245.032V452.315H211.464V493.711ZM323.46 493.711H357.028V452.315H323.46V493.711ZM359.233 493.711H392.802V452.315H359.233V493.711ZM471.229 493.711H504.798V452.315H471.229V493.711ZM507.007 493.711H540.575V452.315H507.007V493.711ZM619.003 493.711H652.571V452.315H619.003V493.711ZM654.776 493.711H688.345V452.315H654.776V493.711ZM766.772 493.711H800.341V452.315H766.772V493.711ZM802.554 493.711H836.122V452.315H802.554V493.711ZM914.55 493.711H948.118V452.315H914.55V493.711ZM-139.434 475.008L-120.766 493.071V452.417L-139.434 434.136V475.008ZM598.453 475.008L617.121 493.071V452.413L598.453 434.132V475.008ZM-876.664 475.008L-858 493.067V452.413L-876.664 434.136V475.008ZM-729.219 475.008L-710.555 493.067V452.409L-729.219 434.132V475.008ZM-581.773 475.004L-563.105 493.067V452.413L-581.773 434.132V475.004ZM-434.324 475.008L-415.66 493.067V452.409L-434.324 434.132V475.008ZM-286.883 475.004L-268.215 493.067V452.409L-286.883 434.128V475.004ZM8.01172 475.004L26.6797 493.067V452.405L8.01172 434.124V475.004ZM302.914 475.008L321.578 493.067V452.413L302.914 434.136V475.008ZM450.68 475.004L469.348 493.067V452.409L450.68 434.128V475.004ZM746.223 475.004L764.891 493.067V452.405L746.223 434.124V475.004ZM894.004 475.004L912.668 493.063V452.405L894.004 434.128V475.004ZM155.461 475L174.125 493.06V452.405L155.461 434.128V475ZM-932.668 452.397V493.056L-913.996 474.989V434.113L-932.668 452.397ZM-637.773 452.397V493.056L-619.105 474.993V434.117L-637.773 452.397ZM-195.434 452.397V493.056L-176.766 474.993V434.117L-195.434 452.397ZM-47.9844 452.401V493.056L-29.3203 474.996V434.124L-47.9844 452.401ZM99.4609 452.401V493.056L118.129 474.993V434.12L99.4609 452.401ZM690.227 452.401V493.056L708.891 474.996V434.124L690.227 452.401ZM838.004 452.401V493.056L856.672 474.993V434.12L838.004 452.401ZM-785.219 452.397V493.052L-766.551 474.989V434.117L-785.219 452.397ZM-490.324 452.394V493.052L-471.656 474.989V434.113L-490.324 452.394ZM-342.879 452.397V493.052L-324.215 474.993V434.12L-342.879 452.397ZM246.914 452.394V493.052L265.582 474.989V434.113L246.914 452.394ZM394.684 452.397V493.052L413.348 474.993V434.12L394.684 452.397ZM542.457 452.397V493.052L561.121 474.993V434.12L542.457 452.397ZM-912.114 474.895H-878.546V433.499H-912.114V474.895ZM-764.669 474.895H-731.101V433.499H-764.669V474.895ZM-617.224 474.895H-583.655V433.499H-617.224V474.895ZM-469.774 474.895H-436.206V433.499H-469.774V474.895ZM-322.333 474.895H-288.765V433.499H-322.333V474.895ZM-174.884 474.895H-141.315V433.499H-174.884V474.895ZM-27.4385 474.895H6.12988V433.499H-27.4385V474.895ZM120.011 474.895H153.579V433.499H120.011V474.895ZM267.464 474.895H301.032V433.499H267.464V474.895ZM415.229 474.895H448.798V433.499H415.229V474.895ZM563.003 474.895H596.571V433.499H563.003V474.895ZM710.772 474.895H744.341V433.499H710.772V474.895ZM858.554 474.895H892.122V433.499H858.554V474.895ZM-876.664 345.28L-876.498 345.111L-857.333 363.879H-785.901L-766.736 345.111L-766.551 345.3V345.062H-729.219V345.284L-729.049 345.111L-709.884 363.879H-638.456L-619.291 345.111L-619.105 345.3V345.062H-581.773V345.284L-581.604 345.111L-562.438 363.879H-491.011L-471.846 345.111L-471.656 345.305V345.062H-434.324V345.284L-434.154 345.111L-414.989 363.879H-343.562L-324.396 345.111L-324.215 345.296V345.062H-286.883V345.288L-286.709 345.111L-267.544 363.879H-196.116L-176.951 345.111L-176.766 345.3V345.062H-139.434V345.28L-139.268 345.111L-120.103 363.879H-48.6631L-29.498 345.111L-29.3203 345.292V345.062H8.01172V345.292L8.18945 345.111L27.3545 363.879H98.7822L117.947 345.111L118.129 345.296V345.062H155.461V345.288L155.635 345.111L174.8 363.879H246.228L265.393 345.111L265.582 345.305V345.062H302.914V345.28L303.08 345.111L322.245 363.879H394.001L413.166 345.111L413.348 345.296V345.062H450.68V345.288L450.854 345.111L470.019 363.879H541.774L560.939 345.111L561.121 345.296V345.062H598.453V345.284L598.623 345.111L617.788 363.879H689.548L708.713 345.111L708.891 345.292V345.062H746.223V345.292L746.4 345.111L765.565 363.879H837.325L856.49 345.111L856.672 345.296V345.062H894.004V345.288L894.178 345.111L913.343 363.879H950V409.038H912.668V408.834L912.521 408.985L893.13 390.222H857.534L838.143 408.985L838.004 408.842V409.038H764.891V408.829L764.74 408.985L745.349 390.222H709.757L690.365 408.985L690.227 408.842V409.038H617.121V408.825L616.967 408.985L597.575 390.222H561.983L542.592 408.985L542.457 408.846V409.038H469.348V408.829L469.197 408.985L449.806 390.222H414.21L394.818 408.985L394.684 408.846V409.038H321.578V408.829L321.428 408.985L302.036 390.222H266.44L247.049 408.985L246.914 408.846V409.038H174.125V408.838L173.982 408.985L154.591 390.222H118.991L99.5996 408.985L99.4609 408.842V409.038H26.6797V408.829L26.5293 408.985L7.1377 390.222H-28.4541L-47.8457 408.985L-47.9844 408.842V409.038H-120.766V408.825L-120.92 408.985L-140.312 390.222H-175.903L-195.295 408.985L-195.434 408.842V409.038H-268.215V408.829L-268.365 408.985L-287.757 390.222H-323.353L-342.744 408.985L-342.879 408.846V409.038H-415.66V408.829L-415.811 408.985L-435.202 390.222H-470.798L-490.189 408.985L-490.324 408.846V409.038H-563.105V408.829L-563.256 408.985L-582.647 390.222H-618.243L-637.635 408.985L-637.773 408.842V409.038H-710.555V408.829L-710.705 408.985L-730.097 390.222H-765.692L-785.084 408.985L-785.219 408.846V409.038H-858V408.829L-858.15 408.985L-877.542 390.222H-913.138L-932.529 408.985L-932.668 408.842V409.038H-970V363.879H-933.351L-914.186 345.111L-913.996 345.305V345.062H-876.664V345.28ZM-968.118 407.156H-934.55V365.761H-968.118V407.156ZM-856.118 407.156H-822.551V365.761H-856.118V407.156ZM-820.668 407.156H-787.101V365.761H-820.668V407.156ZM-708.673 407.156H-675.105V365.761H-708.673V407.156ZM-673.223 407.156H-639.655V365.761H-673.223V407.156ZM-561.224 407.156H-527.656V365.761H-561.224V407.156ZM-525.773 407.156H-492.206V365.761H-525.773V407.156ZM-413.778 407.156H-380.211V365.761H-413.778V407.156ZM-378.328 407.156H-344.761V365.761H-378.328V407.156ZM-266.333 407.156H-232.766V365.761H-266.333V407.156ZM-230.883 407.156H-197.315V365.761H-230.883V407.156ZM-118.884 407.156H-85.3164V365.761H-118.884V407.156ZM-83.4336 407.156H-49.8662V365.761H-83.4336V407.156ZM28.5615 407.156H62.1289V365.761H28.5615V407.156ZM64.0117 407.156H97.5791V365.761H64.0117V407.156ZM176.007 407.156H209.575V365.761H176.007V407.156ZM211.464 407.156H245.032V365.761H211.464V407.156ZM323.46 407.156H357.028V365.761H323.46V407.156ZM359.233 407.156H392.802V365.761H359.233V407.156ZM471.229 407.156H504.798V365.761H471.229V407.156ZM507.007 407.156H540.575V365.761H507.007V407.156ZM619.003 407.156H652.571V365.761H619.003V407.156ZM654.776 407.156H688.345V365.761H654.776V407.156ZM766.772 407.156H800.341V365.761H766.772V407.156ZM802.554 407.156H836.122V365.761H802.554V407.156ZM914.55 407.156H948.118V365.761H914.55V407.156ZM-139.434 388.453L-120.766 406.517V365.862L-139.434 347.581V388.453ZM598.453 388.453L617.121 406.517V365.858L598.453 347.577V388.453ZM-876.664 388.453L-858 406.513V365.858L-876.664 347.581V388.453ZM-729.219 388.453L-710.555 406.513V365.854L-729.219 347.577V388.453ZM-581.773 388.449L-563.105 406.513V365.858L-581.773 347.577V388.449ZM-434.324 388.453L-415.66 406.513V365.854L-434.324 347.577V388.453ZM-286.883 388.449L-268.215 406.513V365.854L-286.883 347.573V388.449ZM8.01172 388.449L26.6797 406.513V365.851L8.01172 347.569V388.449ZM302.914 388.453L321.578 406.513V365.858L302.914 347.581V388.453ZM450.68 388.449L469.348 406.513V365.854L450.68 347.573V388.449ZM746.223 388.449L764.891 406.513V365.851L746.223 347.569V388.449ZM894.004 388.449L912.668 406.509V365.851L894.004 347.573V388.449ZM155.461 388.445L174.125 406.505V365.851L155.461 347.573V388.445ZM-932.668 365.843V406.501L-913.996 388.435V347.559L-932.668 365.843ZM-637.773 365.843V406.501L-619.105 388.438V347.562L-637.773 365.843ZM-195.434 365.843V406.501L-176.766 388.438V347.562L-195.434 365.843ZM-47.9844 365.847V406.501L-29.3203 388.441V347.569L-47.9844 365.847ZM99.4609 365.847V406.501L118.129 388.438V347.565L99.4609 365.847ZM690.227 365.847V406.501L708.891 388.441V347.569L690.227 365.847ZM838.004 365.847V406.501L856.672 388.438V347.565L838.004 365.847ZM-785.219 365.843V406.497L-766.551 388.435V347.562L-785.219 365.843ZM-490.324 365.839V406.497L-471.656 388.435V347.559L-490.324 365.839ZM-342.879 365.843V406.497L-324.215 388.438V347.565L-342.879 365.843ZM246.914 365.839V406.497L265.582 388.435V347.559L246.914 365.839ZM394.684 365.843V406.497L413.348 388.438V347.565L394.684 365.843ZM542.457 365.843V406.497L561.121 388.438V347.565L542.457 365.843ZM-912.114 388.34H-878.546V346.944H-912.114V388.34ZM-764.669 388.34H-731.101V346.944H-764.669V388.34ZM-617.224 388.34H-583.655V346.944H-617.224V388.34ZM-469.774 388.34H-436.206V346.944H-469.774V388.34ZM-322.333 388.34H-288.765V346.944H-322.333V388.34ZM-174.884 388.34H-141.315V346.944H-174.884V388.34ZM-27.4385 388.34H6.12988V346.944H-27.4385V388.34ZM120.011 388.34H153.579V346.944H120.011V388.34ZM267.464 388.34H301.032V346.944H267.464V388.34ZM415.229 388.34H448.798V346.944H415.229V388.34ZM563.003 388.34H596.571V346.944H563.003V388.34ZM710.772 388.34H744.341V346.944H710.772V388.34ZM858.554 388.34H892.122V346.944H858.554V388.34ZM-876.664 259.304L-876.498 259.135L-857.333 277.902H-785.901L-766.736 259.135L-766.551 259.323V259.086H-729.219V259.308L-729.049 259.135L-709.884 277.902H-638.456L-619.291 259.135L-619.105 259.323V259.086H-581.773V259.308L-581.604 259.135L-562.438 277.902H-491.011L-471.846 259.135L-471.656 259.328V259.086H-434.324V259.308L-434.154 259.135L-414.989 277.902H-343.562L-324.396 259.135L-324.215 259.319V259.086H-286.883V259.312L-286.709 259.135L-267.544 277.902H-196.116L-176.951 259.135L-176.766 259.323V259.086H-139.434V259.304L-139.268 259.135L-120.103 277.902H-48.6631L-29.498 259.135L-29.3203 259.315V259.086H8.01172V259.315L8.18945 259.135L27.3545 277.902H98.7822L117.947 259.135L118.129 259.319V259.086H155.461V259.312L155.635 259.135L174.8 277.902H246.228L265.393 259.135L265.582 259.328V259.086H302.914V259.304L303.08 259.135L322.245 277.902H394.001L413.166 259.135L413.348 259.319V259.086H450.68V259.312L450.854 259.135L470.019 277.902H541.774L560.939 259.135L561.121 259.319V259.086H598.453V259.308L598.623 259.135L617.788 277.902H689.548L708.713 259.135L708.891 259.315V259.086H746.223V259.315L746.4 259.135L765.565 277.902H837.325L856.49 259.135L856.672 259.319V259.086H894.004V259.312L894.178 259.135L913.343 277.902H950V323.062H912.668V322.857L912.521 323.009L893.13 304.245H857.534L838.143 323.009L838.004 322.865V323.062H764.891V322.853L764.74 323.009L745.349 304.245H709.757L690.365 323.009L690.227 322.865V323.062H617.121V322.849L616.967 323.009L597.575 304.245H561.983L542.592 323.009L542.457 322.869V323.062H469.348V322.853L469.197 323.009L449.806 304.245H414.21L394.818 323.009L394.684 322.869V323.062H321.578V322.853L321.428 323.009L302.036 304.245H266.44L247.049 323.009L246.914 322.869V323.062H174.125V322.861L173.982 323.009L154.591 304.245H118.991L99.5996 323.009L99.4609 322.865V323.062H26.6797V322.853L26.5293 323.009L7.1377 304.245H-28.4541L-47.8457 323.009L-47.9844 322.865V323.062H-120.766V322.849L-120.92 323.009L-140.312 304.245H-175.903L-195.295 323.009L-195.434 322.865V323.062H-268.215V322.853L-268.365 323.009L-287.757 304.245H-323.353L-342.744 323.009L-342.879 322.869V323.062H-415.66V322.853L-415.811 323.009L-435.202 304.245H-470.798L-490.189 323.009L-490.324 322.869V323.062H-563.105V322.853L-563.256 323.009L-582.647 304.245H-618.243L-637.635 323.009L-637.773 322.865V323.062H-710.555V322.853L-710.705 323.009L-730.097 304.245H-765.692L-785.084 323.009L-785.219 322.869V323.062H-858V322.853L-858.15 323.009L-877.542 304.245H-913.138L-932.529 323.009L-932.668 322.865V323.062H-970V277.902H-933.351L-914.186 259.135L-913.996 259.328V259.086H-876.664V259.304ZM-968.118 321.18H-934.55V279.784H-968.118V321.18ZM-856.118 321.18H-822.551V279.784H-856.118V321.18ZM-820.668 321.18H-787.101V279.784H-820.668V321.18ZM-708.673 321.18H-675.105V279.784H-708.673V321.18ZM-673.223 321.18H-639.655V279.784H-673.223V321.18ZM-561.224 321.18H-527.656V279.784H-561.224V321.18ZM-525.773 321.18H-492.206V279.784H-525.773V321.18ZM-413.778 321.18H-380.211V279.784H-413.778V321.18ZM-378.328 321.18H-344.761V279.784H-378.328V321.18ZM-266.333 321.18H-232.766V279.784H-266.333V321.18ZM-230.883 321.18H-197.315V279.784H-230.883V321.18ZM-118.884 321.18H-85.3164V279.784H-118.884V321.18ZM-83.4336 321.18H-49.8662V279.784H-83.4336V321.18ZM28.5615 321.18H62.1289V279.784H28.5615V321.18ZM64.0117 321.18H97.5791V279.784H64.0117V321.18ZM176.007 321.18H209.575V279.784H176.007V321.18ZM211.464 321.18H245.032V279.784H211.464V321.18ZM323.46 321.18H357.028V279.784H323.46V321.18ZM359.233 321.18H392.802V279.784H359.233V321.18ZM471.229 321.18H504.798V279.784H471.229V321.18ZM507.007 321.18H540.575V279.784H507.007V321.18ZM619.003 321.18H652.571V279.784H619.003V321.18ZM654.776 321.18H688.345V279.784H654.776V321.18ZM766.772 321.18H800.341V279.784H766.772V321.18ZM802.554 321.18H836.122V279.784H802.554V321.18ZM914.55 321.18H948.118V279.784H914.55V321.18ZM-139.434 302.477L-120.766 320.54V279.886L-139.434 261.604V302.477ZM598.453 302.477L617.121 320.54V279.882L598.453 261.601V302.477ZM-876.664 302.477L-858 320.536V279.882L-876.664 261.604V302.477ZM-729.219 302.477L-710.555 320.536V279.878L-729.219 261.601V302.477ZM-581.773 302.473L-563.105 320.536V279.882L-581.773 261.601V302.473ZM-434.324 302.477L-415.66 320.536V279.878L-434.324 261.601V302.477ZM-286.883 302.473L-268.215 320.536V279.878L-286.883 261.597V302.473ZM8.01172 302.473L26.6797 320.536V279.874L8.01172 261.593V302.473ZM302.914 302.477L321.578 320.536V279.882L302.914 261.604V302.477ZM450.68 302.473L469.348 320.536V279.878L450.68 261.597V302.473ZM746.223 302.473L764.891 320.536V279.874L746.223 261.593V302.473ZM894.004 302.473L912.668 320.532V279.874L894.004 261.597V302.473ZM155.461 302.469L174.125 320.528V279.874L155.461 261.597V302.469ZM-932.668 279.866V320.524L-913.996 302.458V261.582L-932.668 279.866ZM-637.773 279.866V320.524L-619.105 302.462V261.586L-637.773 279.866ZM-195.434 279.866V320.524L-176.766 302.462V261.586L-195.434 279.866ZM-47.9844 279.87V320.524L-29.3203 302.465V261.593L-47.9844 279.87ZM99.4609 279.87V320.524L118.129 302.462V261.589L99.4609 279.87ZM690.227 279.87V320.524L708.891 302.465V261.593L690.227 279.87ZM838.004 279.87V320.524L856.672 302.462V261.589L838.004 279.87ZM-785.219 279.866V320.521L-766.551 302.458V261.586L-785.219 279.866ZM-490.324 279.862V320.521L-471.656 302.458V261.582L-490.324 279.862ZM-342.879 279.866V320.521L-324.215 302.462V261.589L-342.879 279.866ZM246.914 279.862V320.521L265.582 302.458V261.582L246.914 279.862ZM394.684 279.866V320.521L413.348 302.462V261.589L394.684 279.866ZM542.457 279.866V320.521L561.121 302.462V261.589L542.457 279.866ZM-912.114 302.363H-878.546V260.968H-912.114V302.363ZM-764.669 302.363H-731.101V260.968H-764.669V302.363ZM-617.224 302.363H-583.655V260.968H-617.224V302.363ZM-469.774 302.363H-436.206V260.968H-469.774V302.363ZM-322.333 302.363H-288.765V260.968H-322.333V302.363ZM-174.884 302.363H-141.315V260.968H-174.884V302.363ZM-27.4385 302.363H6.12988V260.968H-27.4385V302.363ZM120.011 302.363H153.579V260.968H120.011V302.363ZM267.464 302.363H301.032V260.968H267.464V302.363ZM415.229 302.363H448.798V260.968H415.229V302.363ZM563.003 302.363H596.571V260.968H563.003V302.363ZM710.772 302.363H744.341V260.968H710.772V302.363ZM858.554 302.363H892.122V260.968H858.554V302.363ZM-876.664 172.749L-876.498 172.58L-857.333 191.348H-785.901L-766.736 172.58L-766.551 172.769V172.531H-729.219V172.753L-729.049 172.58L-709.884 191.348H-638.456L-619.291 172.58L-619.105 172.769V172.531H-581.773V172.753L-581.604 172.58L-562.438 191.348H-491.011L-471.846 172.58L-471.656 172.773V172.531H-434.324V172.753L-434.154 172.58L-414.989 191.348H-343.562L-324.396 172.58L-324.215 172.765V172.531H-286.883V172.757L-286.709 172.58L-267.544 191.348H-196.116L-176.951 172.58L-176.766 172.769V172.531H-139.434V172.749L-139.268 172.58L-120.103 191.348H-48.6631L-29.498 172.58L-29.3203 172.761V172.531H8.01172V172.761L8.18945 172.58L27.3545 191.348H98.7822L117.947 172.58L118.129 172.765V172.531H155.461V172.757L155.635 172.58L174.8 191.348H246.228L265.393 172.58L265.582 172.773V172.531H302.914V172.749L303.08 172.58L322.245 191.348H394.001L413.166 172.58L413.348 172.765V172.531H450.68V172.757L450.854 172.58L470.019 191.348H541.774L560.939 172.58L561.121 172.765V172.531H598.453V172.753L598.623 172.58L617.788 191.348H689.548L708.713 172.58L708.891 172.761V172.531H746.223V172.761L746.4 172.58L765.565 191.348H837.325L856.49 172.58L856.672 172.765V172.531H894.004V172.757L894.178 172.58L913.343 191.348H950V236.507H912.668V236.303L912.521 236.454L893.13 217.69H857.534L838.143 236.454L838.004 236.311V236.507H764.891V236.298L764.74 236.454L745.349 217.69H709.757L690.365 236.454L690.227 236.311V236.507H617.121V236.294L616.967 236.454L597.575 217.69H561.983L542.592 236.454L542.457 236.314V236.507H469.348V236.298L469.197 236.454L449.806 217.69H414.21L394.818 236.454L394.684 236.314V236.507H321.578V236.298L321.428 236.454L302.036 217.69H266.44L247.049 236.454L246.914 236.314V236.507H174.125V236.307L173.982 236.454L154.591 217.69H118.991L99.5996 236.454L99.4609 236.311V236.507H26.6797V236.298L26.5293 236.454L7.1377 217.69H-28.4541L-47.8457 236.454L-47.9844 236.311V236.507H-120.766V236.294L-120.92 236.454L-140.312 217.69H-175.903L-195.295 236.454L-195.434 236.311V236.507H-268.215V236.298L-268.365 236.454L-287.757 217.69H-323.353L-342.744 236.454L-342.879 236.314V236.507H-415.66V236.298L-415.811 236.454L-435.202 217.69H-470.798L-490.189 236.454L-490.324 236.314V236.507H-563.105V236.298L-563.256 236.454L-582.647 217.69H-618.243L-637.635 236.454L-637.773 236.311V236.507H-710.555V236.298L-710.705 236.454L-730.097 217.69H-765.692L-785.084 236.454L-785.219 236.314V236.507H-858V236.298L-858.15 236.454L-877.542 217.69H-913.138L-932.529 236.454L-932.668 236.311V236.507H-970V191.348H-933.351L-914.186 172.58L-913.996 172.773V172.531H-876.664V172.749ZM-968.118 234.625H-934.55V193.229H-968.118V234.625ZM-856.118 234.625H-822.551V193.229H-856.118V234.625ZM-820.668 234.625H-787.101V193.229H-820.668V234.625ZM-708.673 234.625H-675.105V193.229H-708.673V234.625ZM-673.223 234.625H-639.655V193.229H-673.223V234.625ZM-561.224 234.625H-527.656V193.229H-561.224V234.625ZM-525.773 234.625H-492.206V193.229H-525.773V234.625ZM-413.778 234.625H-380.211V193.229H-413.778V234.625ZM-378.328 234.625H-344.761V193.229H-378.328V234.625ZM-266.333 234.625H-232.766V193.229H-266.333V234.625ZM-230.883 234.625H-197.315V193.229H-230.883V234.625ZM-118.884 234.625H-85.3164V193.229H-118.884V234.625ZM-83.4336 234.625H-49.8662V193.229H-83.4336V234.625ZM28.5615 234.625H62.1289V193.229H28.5615V234.625ZM64.0117 234.625H97.5791V193.229H64.0117V234.625ZM176.007 234.625H209.575V193.229H176.007V234.625ZM211.464 234.625H245.032V193.229H211.464V234.625ZM323.46 234.625H357.028V193.229H323.46V234.625ZM359.233 234.625H392.802V193.229H359.233V234.625ZM471.229 234.625H504.798V193.229H471.229V234.625ZM507.007 234.625H540.575V193.229H507.007V234.625ZM619.003 234.625H652.571V193.229H619.003V234.625ZM654.776 234.625H688.345V193.229H654.776V234.625ZM766.772 234.625H800.341V193.229H766.772V234.625ZM802.554 234.625H836.122V193.229H802.554V234.625ZM914.55 234.625H948.118V193.229H914.55V234.625ZM-139.434 215.922L-120.766 233.985V193.331L-139.434 175.05V215.922ZM598.453 215.922L617.121 233.985V193.327L598.453 175.046V215.922ZM-876.664 215.922L-858 233.981V193.327L-876.664 175.05V215.922ZM-729.219 215.922L-710.555 233.981V193.323L-729.219 175.046V215.922ZM-581.773 215.918L-563.105 233.981V193.327L-581.773 175.046V215.918ZM-434.324 215.922L-415.66 233.981V193.323L-434.324 175.046V215.922ZM-286.883 215.918L-268.215 233.981V193.323L-286.883 175.042V215.918ZM8.01172 215.918L26.6797 233.981V193.319L8.01172 175.038V215.918ZM302.914 215.922L321.578 233.981V193.327L302.914 175.05V215.922ZM450.68 215.918L469.348 233.981V193.323L450.68 175.042V215.918ZM746.223 215.918L764.891 233.981V193.319L746.223 175.038V215.918ZM894.004 215.918L912.668 233.978V193.319L894.004 175.042V215.918ZM155.461 215.914L174.125 233.974V193.319L155.461 175.042V215.914ZM-932.668 193.312V233.97L-913.996 215.903V175.027L-932.668 193.312ZM-637.773 193.312V233.97L-619.105 215.907V175.031L-637.773 193.312ZM-195.434 193.312V233.97L-176.766 215.907V175.031L-195.434 193.312ZM-47.9844 193.315V233.97L-29.3203 215.91V175.038L-47.9844 193.315ZM99.4609 193.315V233.97L118.129 215.907V175.034L99.4609 193.315ZM690.227 193.315V233.97L708.891 215.91V175.038L690.227 193.315ZM838.004 193.315V233.97L856.672 215.907V175.034L838.004 193.315ZM-785.219 193.312V233.966L-766.551 215.903V175.031L-785.219 193.312ZM-490.324 193.308V233.966L-471.656 215.903V175.027L-490.324 193.308ZM-342.879 193.312V233.966L-324.215 215.907V175.034L-342.879 193.312ZM246.914 193.308V233.966L265.582 215.903V175.027L246.914 193.308ZM394.684 193.312V233.966L413.348 215.907V175.034L394.684 193.312ZM542.457 193.312V233.966L561.121 215.907V175.034L542.457 193.312ZM-912.114 215.809H-878.546V174.413H-912.114V215.809ZM-764.669 215.809H-731.101V174.413H-764.669V215.809ZM-617.224 215.809H-583.655V174.413H-617.224V215.809ZM-469.774 215.809H-436.206V174.413H-469.774V215.809ZM-322.333 215.809H-288.765V174.413H-322.333V215.809ZM-174.884 215.809H-141.315V174.413H-174.884V215.809ZM-27.4385 215.809H6.12988V174.413H-27.4385V215.809ZM120.011 215.809H153.579V174.413H120.011V215.809ZM267.464 215.809H301.032V174.413H267.464V215.809ZM415.229 215.809H448.798V174.413H415.229V215.809ZM563.003 215.809H596.571V174.413H563.003V215.809ZM710.772 215.809H744.341V174.413H710.772V215.809ZM858.554 215.809H892.122V174.413H858.554V215.809ZM-872.664 86.7725L-872.498 86.6035L-853.333 105.371H-781.901L-762.736 86.6035L-762.551 86.792V86.5547H-725.219V86.7764L-725.049 86.6035L-705.884 105.371H-634.456L-615.291 86.6035L-615.105 86.792V86.5547H-577.773V86.7764L-577.604 86.6035L-558.438 105.371H-487.011L-467.846 86.6035L-467.656 86.7969V86.5547H-430.324V86.7764L-430.154 86.6035L-410.989 105.371H-339.562L-320.396 86.6035L-320.215 86.7881V86.5547H-282.883V86.7803L-282.709 86.6035L-263.544 105.371H-192.116L-172.951 86.6035L-172.766 86.792V86.5547H-135.434V86.7725L-135.268 86.6035L-116.103 105.371H-44.6631L-25.498 86.6035L-25.3203 86.7842V86.5547H12.0117V86.7842L12.1895 86.6035L31.3545 105.371H102.782L121.947 86.6035L122.129 86.7881V86.5547H159.461V86.7803L159.635 86.6035L178.8 105.371H250.228L269.393 86.6035L269.582 86.7969V86.5547H306.914V86.7725L307.08 86.6035L326.245 105.371H398.001L417.166 86.6035L417.348 86.7881V86.5547H454.68V86.7803L454.854 86.6035L474.019 105.371H545.774L564.939 86.6035L565.121 86.7881V86.5547H602.453V86.7764L602.623 86.6035L621.788 105.371H693.548L712.713 86.6035L712.891 86.7842V86.5547H750.223V86.7842L750.4 86.6035L769.565 105.371H841.325L860.49 86.6035L860.672 86.7881V86.5547H898.004V86.7803L898.178 86.6035L917.343 105.371H954V150.53H916.668V150.326L916.521 150.478L897.13 131.714H861.534L842.143 150.478L842.004 150.334V150.53H768.891V150.321L768.74 150.478L749.349 131.714H713.757L694.365 150.478L694.227 150.334V150.53H621.121V150.317L620.967 150.478L601.575 131.714H565.983L546.592 150.478L546.457 150.338V150.53H473.348V150.321L473.197 150.478L453.806 131.714H418.21L398.818 150.478L398.684 150.338V150.53H325.578V150.321L325.428 150.478L306.036 131.714H270.44L251.049 150.478L250.914 150.338V150.53H178.125V150.33L177.982 150.478L158.591 131.714H122.991L103.6 150.478L103.461 150.334V150.53H30.6797V150.321L30.5293 150.478L11.1377 131.714H-24.4541L-43.8457 150.478L-43.9844 150.334V150.53H-116.766V150.317L-116.92 150.478L-136.312 131.714H-171.903L-191.295 150.478L-191.434 150.334V150.53H-264.215V150.321L-264.365 150.478L-283.757 131.714H-319.353L-338.744 150.478L-338.879 150.338V150.53H-411.66V150.321L-411.811 150.478L-431.202 131.714H-466.798L-486.189 150.478L-486.324 150.338V150.53H-559.105V150.321L-559.256 150.478L-578.647 131.714H-614.243L-633.635 150.478L-633.773 150.334V150.53H-706.555V150.321L-706.705 150.478L-726.097 131.714H-761.692L-781.084 150.478L-781.219 150.338V150.53H-854V150.321L-854.15 150.478L-873.542 131.714H-909.138L-928.529 150.478L-928.668 150.334V150.53H-966V105.371H-929.351L-910.186 86.6035L-909.996 86.7969V86.5547H-872.664V86.7725ZM-964.118 148.648H-930.55V107.253H-964.118V148.648ZM-852.118 148.648H-818.551V107.253H-852.118V148.648ZM-816.668 148.648H-783.101V107.253H-816.668V148.648ZM-704.673 148.648H-671.105V107.253H-704.673V148.648ZM-669.223 148.648H-635.655V107.253H-669.223V148.648ZM-557.224 148.648H-523.656V107.253H-557.224V148.648ZM-521.773 148.648H-488.206V107.253H-521.773V148.648ZM-409.778 148.648H-376.211V107.253H-409.778V148.648ZM-374.328 148.648H-340.761V107.253H-374.328V148.648ZM-262.333 148.648H-228.766V107.253H-262.333V148.648ZM-226.883 148.648H-193.315V107.253H-226.883V148.648ZM-114.884 148.648H-81.3164V107.253H-114.884V148.648ZM-79.4336 148.648H-45.8662V107.253H-79.4336V148.648ZM32.5615 148.648H66.1289V107.253H32.5615V148.648ZM68.0117 148.648H101.579V107.253H68.0117V148.648ZM180.007 148.648H213.575V107.253H180.007V148.648ZM215.464 148.648H249.032V107.253H215.464V148.648ZM327.46 148.648H361.028V107.253H327.46V148.648ZM363.233 148.648H396.802V107.253H363.233V148.648ZM475.229 148.648H508.798V107.253H475.229V148.648ZM511.007 148.648H544.575V107.253H511.007V148.648ZM623.003 148.648H656.571V107.253H623.003V148.648ZM658.776 148.648H692.345V107.253H658.776V148.648ZM770.772 148.648H804.341V107.253H770.772V148.648ZM806.554 148.648H840.122V107.253H806.554V148.648ZM918.55 148.648H952.118V107.253H918.55V148.648ZM-135.434 129.945L-116.766 148.009V107.354L-135.434 89.0732V129.945ZM602.453 129.945L621.121 148.009V107.351L602.453 89.0693V129.945ZM-872.664 129.945L-854 148.005V107.351L-872.664 89.0732V129.945ZM-725.219 129.945L-706.555 148.005V107.347L-725.219 89.0693V129.945ZM-577.773 129.941L-559.105 148.005V107.351L-577.773 89.0693V129.941ZM-430.324 129.945L-411.66 148.005V107.347L-430.324 89.0693V129.945ZM-282.883 129.941L-264.215 148.005V107.347L-282.883 89.0654V129.941ZM12.0117 129.941L30.6797 148.005V107.343L12.0117 89.0615V129.941ZM306.914 129.945L325.578 148.005V107.351L306.914 89.0732V129.945ZM454.68 129.941L473.348 148.005V107.347L454.68 89.0654V129.941ZM750.223 129.941L768.891 148.005V107.343L750.223 89.0615V129.941ZM898.004 129.941L916.668 148.001V107.343L898.004 89.0654V129.941ZM159.461 129.938L178.125 147.997V107.343L159.461 89.0654V129.938ZM-928.668 107.335V147.993L-909.996 129.927V89.0508L-928.668 107.335ZM-633.773 107.335V147.993L-615.105 129.931V89.0547L-633.773 107.335ZM-191.434 107.335V147.993L-172.766 129.931V89.0547L-191.434 107.335ZM-43.9844 107.339V147.993L-25.3203 129.934V89.0615L-43.9844 107.339ZM103.461 107.339V147.993L122.129 129.931V89.0576L103.461 107.339ZM694.227 107.339V147.993L712.891 129.934V89.0615L694.227 107.339ZM842.004 107.339V147.993L860.672 129.931V89.0576L842.004 107.339ZM-781.219 107.335V147.989L-762.551 129.927V89.0547L-781.219 107.335ZM-486.324 107.331V147.989L-467.656 129.927V89.0508L-486.324 107.331ZM-338.879 107.335V147.989L-320.215 129.931V89.0576L-338.879 107.335ZM250.914 107.331V147.989L269.582 129.927V89.0508L250.914 107.331ZM398.684 107.335V147.989L417.348 129.931V89.0576L398.684 107.335ZM546.457 107.335V147.989L565.121 129.931V89.0576L546.457 107.335ZM-908.114 129.832H-874.546V88.4365H-908.114V129.832ZM-760.669 129.832H-727.101V88.4365H-760.669V129.832ZM-613.224 129.832H-579.655V88.4365H-613.224V129.832ZM-465.774 129.832H-432.206V88.4365H-465.774V129.832ZM-318.333 129.832H-284.765V88.4365H-318.333V129.832ZM-170.884 129.832H-137.315V88.4365H-170.884V129.832ZM-23.4385 129.832H10.1299V88.4365H-23.4385V129.832ZM124.011 129.832H157.579V88.4365H124.011V129.832ZM271.464 129.832H305.032V88.4365H271.464V129.832ZM419.229 129.832H452.798V88.4365H419.229V129.832ZM567.003 129.832H600.571V88.4365H567.003V129.832ZM714.772 129.832H748.341V88.4365H714.772V129.832ZM862.554 129.832H896.122V88.4365H862.554V129.832ZM-872.664 0.217773L-872.498 0.0488281L-853.333 18.8164H-781.901L-762.736 0.0488281L-762.551 0.237305V0H-725.219V0.22168L-725.049 0.0488281L-705.884 18.8164H-634.456L-615.291 0.0488281L-615.105 0.237305V0H-577.773V0.22168L-577.604 0.0488281L-558.438 18.8164H-487.011L-467.846 0.0488281L-467.656 0.242188V0H-430.324V0.22168L-430.154 0.0488281L-410.989 18.8164H-339.562L-320.396 0.0488281L-320.215 0.233398V0H-282.883V0.225586L-282.709 0.0488281L-263.544 18.8164H-192.116L-172.951 0.0488281L-172.766 0.237305V0H-135.434V0.217773L-135.268 0.0488281L-116.103 18.8164H-44.6631L-25.498 0.0488281L-25.3203 0.229492V0H12.0117V0.229492L12.1895 0.0488281L31.3545 18.8164H102.782L121.947 0.0488281L122.129 0.233398V0H159.461V0.225586L159.635 0.0488281L178.8 18.8164H250.228L269.393 0.0488281L269.582 0.242188V0H306.914V0.217773L307.08 0.0488281L326.245 18.8164H398.001L417.166 0.0488281L417.348 0.233398V0H454.68V0.225586L454.854 0.0488281L474.019 18.8164H545.774L564.939 0.0488281L565.121 0.233398V0H602.453V0.22168L602.623 0.0488281L621.788 18.8164H693.548L712.713 0.0488281L712.891 0.229492V0H750.223V0.229492L750.4 0.0488281L769.565 18.8164H841.325L860.49 0.0488281L860.672 0.233398V0H898.004V0.225586L898.178 0.0488281L917.343 18.8164H954V63.9756H916.668V63.7715L916.521 63.9229L897.13 45.1592H861.534L842.143 63.9229L842.004 63.7793V63.9756H768.891V63.7666L768.74 63.9229L749.349 45.1592H713.757L694.365 63.9229L694.227 63.7793V63.9756H621.121V63.7627L620.967 63.9229L601.575 45.1592H565.983L546.592 63.9229L546.457 63.7832V63.9756H473.348V63.7666L473.197 63.9229L453.806 45.1592H418.21L398.818 63.9229L398.684 63.7832V63.9756H325.578V63.7666L325.428 63.9229L306.036 45.1592H270.44L251.049 63.9229L250.914 63.7832V63.9756H178.125V63.7754L177.982 63.9229L158.591 45.1592H122.991L103.6 63.9229L103.461 63.7793V63.9756H30.6797V63.7666L30.5293 63.9229L11.1377 45.1592H-24.4541L-43.8457 63.9229L-43.9844 63.7793V63.9756H-116.766V63.7627L-116.92 63.9229L-136.312 45.1592H-171.903L-191.295 63.9229L-191.434 63.7793V63.9756H-264.215V63.7666L-264.365 63.9229L-283.757 45.1592H-319.353L-338.744 63.9229L-338.879 63.7832V63.9756H-411.66V63.7666L-411.811 63.9229L-431.202 45.1592H-466.798L-486.189 63.9229L-486.324 63.7832V63.9756H-559.105V63.7666L-559.256 63.9229L-578.647 45.1592H-614.243L-633.635 63.9229L-633.773 63.7793V63.9756H-706.555V63.7666L-706.705 63.9229L-726.097 45.1592H-761.692L-781.084 63.9229L-781.219 63.7832V63.9756H-854V63.7666L-854.15 63.9229L-873.542 45.1592H-909.138L-928.529 63.9229L-928.668 63.7793V63.9756H-966V18.8164H-929.351L-910.186 0.0488281L-909.996 0.242188V0H-872.664V0.217773ZM-964.118 62.0938H-930.55V20.6982H-964.118V62.0938ZM-852.118 62.0938H-818.551V20.6982H-852.118V62.0938ZM-816.668 62.0938H-783.101V20.6982H-816.668V62.0938ZM-704.673 62.0938H-671.105V20.6982H-704.673V62.0938ZM-669.223 62.0938H-635.655V20.6982H-669.223V62.0938ZM-557.224 62.0938H-523.656V20.6982H-557.224V62.0938ZM-521.773 62.0938H-488.206V20.6982H-521.773V62.0938ZM-409.778 62.0938H-376.211V20.6982H-409.778V62.0938ZM-374.328 62.0938H-340.761V20.6982H-374.328V62.0938ZM-262.333 62.0938H-228.766V20.6982H-262.333V62.0938ZM-226.883 62.0938H-193.315V20.6982H-226.883V62.0938ZM-114.884 62.0938H-81.3164V20.6982H-114.884V62.0938ZM-79.4336 62.0938H-45.8662V20.6982H-79.4336V62.0938ZM32.5615 62.0938H66.1289V20.6982H32.5615V62.0938ZM68.0117 62.0938H101.579V20.6982H68.0117V62.0938ZM180.007 62.0938H213.575V20.6982H180.007V62.0938ZM215.464 62.0938H249.032V20.6982H215.464V62.0938ZM327.46 62.0938H361.028V20.6982H327.46V62.0938ZM363.233 62.0938H396.802V20.6982H363.233V62.0938ZM475.229 62.0938H508.798V20.6982H475.229V62.0938ZM511.007 62.0938H544.575V20.6982H511.007V62.0938ZM623.003 62.0938H656.571V20.6982H623.003V62.0938ZM658.776 62.0938H692.345V20.6982H658.776V62.0938ZM770.772 62.0938H804.341V20.6982H770.772V62.0938ZM806.554 62.0938H840.122V20.6982H806.554V62.0938ZM918.55 62.0938H952.118V20.6982H918.55V62.0938ZM-135.434 43.3906L-116.766 61.4541V20.7998L-135.434 2.51855V43.3906ZM602.453 43.3906L621.121 61.4541V20.7959L602.453 2.51465V43.3906ZM-872.664 43.3906L-854 61.4502V20.7959L-872.664 2.51855V43.3906ZM-725.219 43.3906L-706.555 61.4502V20.792L-725.219 2.51465V43.3906ZM-577.773 43.3867L-559.105 61.4502V20.7959L-577.773 2.51465V43.3867ZM-430.324 43.3906L-411.66 61.4502V20.792L-430.324 2.51465V43.3906ZM-282.883 43.3867L-264.215 61.4502V20.792L-282.883 2.51074V43.3867ZM12.0117 43.3867L30.6797 61.4502V20.7881L12.0117 2.50684V43.3867ZM306.914 43.3906L325.578 61.4502V20.7959L306.914 2.51855V43.3906ZM454.68 43.3867L473.348 61.4502V20.792L454.68 2.51074V43.3867ZM750.223 43.3867L768.891 61.4502V20.7881L750.223 2.50684V43.3867ZM898.004 43.3867L916.668 61.4463V20.7881L898.004 2.51074V43.3867ZM159.461 43.3828L178.125 61.4424V20.7881L159.461 2.51074V43.3828ZM-928.668 20.7803V61.4385L-909.996 43.3721V2.49609L-928.668 20.7803ZM-633.773 20.7803V61.4385L-615.105 43.376V2.5L-633.773 20.7803ZM-191.434 20.7803V61.4385L-172.766 43.376V2.5L-191.434 20.7803ZM-43.9844 20.7842V61.4385L-25.3203 43.3789V2.50684L-43.9844 20.7842ZM103.461 20.7842V61.4385L122.129 43.376V2.50293L103.461 20.7842ZM694.227 20.7842V61.4385L712.891 43.3789V2.50684L694.227 20.7842ZM842.004 20.7842V61.4385L860.672 43.376V2.50293L842.004 20.7842ZM-781.219 20.7803V61.4346L-762.551 43.3721V2.5L-781.219 20.7803ZM-486.324 20.7764V61.4346L-467.656 43.3721V2.49609L-486.324 20.7764ZM-338.879 20.7803V61.4346L-320.215 43.376V2.50293L-338.879 20.7803ZM250.914 20.7764V61.4346L269.582 43.3721V2.49609L250.914 20.7764ZM398.684 20.7803V61.4346L417.348 43.376V2.50293L398.684 20.7803ZM546.457 20.7803V61.4346L565.121 43.376V2.50293L546.457 20.7803ZM-908.114 43.2773H-874.546V1.88184H-908.114V43.2773ZM-760.669 43.2773H-727.101V1.88184H-760.669V43.2773ZM-613.224 43.2773H-579.655V1.88184H-613.224V43.2773ZM-465.774 43.2773H-432.206V1.88184H-465.774V43.2773ZM-318.333 43.2773H-284.765V1.88184H-318.333V43.2773ZM-170.884 43.2773H-137.315V1.88184H-170.884V43.2773ZM-23.4385 43.2773H10.1299V1.88184H-23.4385V43.2773ZM124.011 43.2773H157.579V1.88184H124.011V43.2773ZM271.464 43.2773H305.032V1.88184H271.464V43.2773ZM419.229 43.2773H452.798V1.88184H419.229V43.2773ZM567.003 43.2773H600.571V1.88184H567.003V43.2773ZM714.772 43.2773H748.341V1.88184H714.772V43.2773ZM862.554 43.2773H896.122V1.88184H862.554V43.2773Z" fill="white"/>
</svg>
