<svg width="262" height="48" viewBox="0 0 262 48" fill="none" xmlns="http://www.w3.org/2000/svg">
<path d="M1.57324 29.6279V36.3721H2.99331V31.802L4.79267 35.6968H5.76868L7.56342 31.802V36.3721H8.91411V29.6279H7.18875L5.24136 33.7494L3.29398 29.6279H1.57324Z" fill="white"/>
<path d="M10.4131 29.6279V36.3721H15.5845V35.1H11.9118V33.5967H15.1358V32.3247H11.9118V30.9046H15.5059V29.6279H10.4131Z" fill="white"/>
<path d="M21.6535 31.7278L22.5508 30.6777C22.2502 30.3031 21.8015 30.0764 21.3528 29.8544C20.9041 29.7064 20.3814 29.5537 19.9327 29.5537C19.2574 29.5537 18.582 29.7017 18.0593 30.0024C17.5367 30.3031 17.0833 30.7518 16.7827 31.2004C16.482 31.7231 16.334 32.3245 16.334 32.9998C16.334 33.5965 16.482 34.1978 16.7827 34.7205C17.0833 35.2479 17.532 35.6225 18.0593 35.9186C18.582 36.2192 19.1834 36.3673 19.8587 36.4413C20.3814 36.3673 20.8347 36.2886 21.3574 36.0666C21.8061 35.8399 22.1808 35.5393 22.5555 35.1692L21.6581 34.2719C21.4361 34.4985 21.1354 34.6419 20.8347 34.7945C20.5341 34.9472 20.2334 35.0212 19.9374 35.0212C19.5627 35.0212 19.188 34.9472 18.8873 34.7205C18.5867 34.5725 18.3646 34.3459 18.138 34.0452C17.99 33.6705 17.916 33.3745 17.916 32.9212C17.916 32.5465 17.99 32.1718 18.138 31.8712C18.3646 31.5705 18.5867 31.3485 18.8873 31.1218C19.188 30.9738 19.5627 30.8998 19.9374 30.8998C20.238 30.8998 20.5341 30.9738 20.9087 31.1218C21.2094 31.2698 21.4361 31.4965 21.6581 31.7185" fill="white"/>
<path d="M23.4473 29.6279V36.3721H25.0246V33.6754H28.022V36.3721H29.5947V29.6279H28.022V32.4033H25.0246V29.6279H23.4473Z" fill="white"/>
<path d="M36.0387 36.3721H37.6114L34.7666 29.6279H33.1939L30.2705 36.3721H31.8432L32.3659 35.0214H35.5113L36.034 36.3721H36.0387ZM32.8932 33.8234L33.9433 31.2006L34.9933 33.8234H32.8932Z" fill="white"/>
<path d="M38.3613 29.6279V36.3721H39.786V32.0286L43.0055 36.3721H44.4301V29.6279H43.0055V33.976L39.712 29.6279H38.3613Z" fill="white"/>
<path d="M47.4274 29.6279H45.9287V36.3721H47.4274V29.6279Z" fill="white"/>
<path d="M53.7975 31.7278L54.6949 30.6777C54.3202 30.3031 53.9455 30.0764 53.4228 29.8544C52.9742 29.7064 52.5255 29.5537 51.9982 29.5537C51.3228 29.5537 50.7261 29.7017 50.1988 30.0024C49.6761 30.3031 49.2228 30.7518 48.9221 31.2004C48.6214 31.7231 48.4734 32.3245 48.3994 32.9998C48.4734 33.5965 48.6261 34.1978 48.9221 34.7205C49.2228 35.2479 49.5974 35.6225 50.1201 35.9186C50.6428 36.2192 51.3182 36.3673 51.9195 36.4413C52.4468 36.3673 52.9695 36.2886 53.4182 36.0666C53.8669 35.8399 54.3156 35.5393 54.6903 35.1692L53.7929 34.2719C53.5709 34.4985 53.2702 34.6419 52.9695 34.7945C52.6689 34.9472 52.3682 35.0212 52.0722 35.0212C51.6235 35.0212 51.3228 34.9472 51.0221 34.7205C50.6475 34.5725 50.4254 34.3459 50.2728 34.0452C50.1248 33.6705 49.9721 33.3745 49.9721 32.9212C49.9721 32.5465 50.1201 32.1718 50.2728 31.8712C50.4208 31.5705 50.6475 31.3485 51.0221 31.1218C51.3228 30.9738 51.6235 30.8998 52.0722 30.8998C52.3728 30.8998 52.6689 30.9738 52.9695 31.1218C53.2702 31.2698 53.5709 31.4965 53.7929 31.7185" fill="white"/>
<path d="M60.4676 36.3721H62.1143L59.2695 29.6279H57.6968L54.7734 36.3721H56.3461L56.8688 35.0214H59.9403L60.463 36.3721H60.4676ZM57.3175 33.8234L58.4416 31.2006L59.4916 33.8234H57.3175Z" fill="white"/>
<path d="M62.7891 29.6279V36.3721H67.2112V35.0214H64.3618V29.6279H62.7891Z" fill="white"/>
<path d="M83.318 31.7278L84.1414 30.6777C83.8407 30.3031 83.392 30.0764 82.9434 29.8544C82.4947 29.7064 82.046 29.5537 81.5187 29.5537C80.8433 29.5537 80.242 29.7017 79.6453 30.0024C79.118 30.3031 78.7479 30.7518 78.3686 31.2004C78.0679 31.7231 77.9199 32.3245 77.9199 32.9998C77.9199 33.5965 78.0679 34.1978 78.3686 34.7205C78.6693 35.2479 79.118 35.6225 79.6453 35.9186C80.168 36.2192 80.7693 36.3673 81.4446 36.4413C81.9673 36.3673 82.4207 36.2886 82.9434 36.0666C83.392 35.8399 83.8407 35.5393 84.2154 35.1692L83.318 34.2719C83.0174 34.4985 82.7953 34.6419 82.4947 34.7945C82.12 34.9472 81.8193 35.0212 81.5233 35.0212C81.1486 35.0212 80.7739 34.9472 80.4733 34.7205C80.1726 34.5725 79.9459 34.3459 79.7979 34.0452C79.5713 33.6705 79.4973 33.3745 79.4973 32.9212C79.4973 32.5465 79.5713 32.1718 79.7979 31.8712C79.9459 31.5705 80.1726 31.3485 80.4733 31.1218C80.7693 30.9738 81.1486 30.8998 81.5233 30.8998C81.898 30.8998 82.194 30.9738 82.4947 31.1218C82.7953 31.2698 83.0174 31.4965 83.318 31.7185" fill="white"/>
<path d="M85.1133 29.6279V36.3721H86.612V33.6754H89.6094V36.3721H91.1821V29.6279H89.6094V32.4033H86.612V29.6279H85.1133Z" fill="white"/>
<path d="M92.6064 29.6279V36.3721H97.8519V35.1H94.1838V33.5967H97.4032V32.3247H94.1838V30.9046H97.7779V29.6279H92.6064Z" fill="white"/>
<path d="M99.0498 29.6279V36.3721H100.475V31.802L102.2 35.6968H103.25L104.971 31.802V36.3721H106.395V29.6279H104.67L102.723 33.7494L100.775 29.6279H99.0498Z" fill="white"/>
<path d="M109.393 29.6279H107.895V36.3721H109.393V29.6279Z" fill="white"/>
<path d="M115.762 31.7278L116.585 30.6777C116.284 30.3031 115.91 30.0764 115.387 29.8544C114.938 29.7064 114.49 29.5537 113.962 29.5537C113.287 29.5537 112.686 29.7017 112.163 30.0024C111.566 30.3031 111.192 30.7518 110.891 31.2004C110.516 31.7231 110.368 32.3245 110.368 32.9998C110.368 33.5965 110.516 34.1978 110.817 34.7205C111.192 35.2479 111.566 35.6225 112.094 35.9186C112.616 36.2192 113.218 36.3673 113.893 36.4413C114.416 36.3673 114.869 36.2886 115.392 36.0666C115.84 35.8399 116.289 35.5393 116.664 35.1692L115.766 34.2719C115.466 34.4985 115.244 34.6419 114.943 34.7945C114.642 34.9472 114.268 35.0212 113.972 35.0212C113.597 35.0212 113.222 34.9472 112.922 34.7205C112.621 34.5725 112.394 34.3459 112.246 34.0452C112.02 33.6705 111.946 33.3745 111.946 32.9212C111.946 32.5465 112.02 32.1718 112.246 31.8712C112.394 31.5705 112.621 31.3485 112.922 31.1218C113.218 30.9738 113.592 30.8998 113.972 30.8998C114.351 30.8998 114.647 30.9738 114.943 31.1218C115.244 31.2698 115.544 31.4965 115.766 31.7185" fill="white"/>
<path d="M122.427 36.3721H124.079L121.155 29.6279H119.583L116.659 36.3721H118.232L118.755 35.0214H121.9L122.423 36.3721H122.427ZM119.282 33.8234L120.332 31.2006L121.382 33.8234H119.282Z" fill="white"/>
<path d="M124.754 29.6279V36.3721H129.171V35.0214H126.253V29.6279H124.754Z" fill="white"/>
<path d="M137.34 31.5011L137.937 30.3031C137.636 30.0764 137.266 29.8544 136.813 29.7757C136.364 29.6277 135.915 29.5537 135.388 29.5537C134.639 29.5537 133.963 29.7017 133.515 30.0764C133.066 30.4511 132.839 30.9044 132.765 31.5011C132.839 32.0238 132.913 32.3985 133.14 32.6251C133.441 32.9258 133.741 33.0738 134.037 33.2218C134.412 33.3699 134.787 33.4485 135.087 33.5965C135.462 33.6705 135.763 33.7445 135.985 33.8972C136.285 34.0452 136.359 34.1978 136.359 34.4199C136.359 34.6419 136.285 34.7945 136.133 34.9426C135.906 35.0212 135.684 35.0906 135.383 35.0906C135.009 35.0906 134.634 35.0166 134.185 34.7899C133.737 34.6373 133.362 34.4152 132.987 34.0406L132.391 35.3172C132.765 35.6179 133.214 35.9139 133.737 36.0666C134.259 36.2932 134.787 36.3673 135.388 36.3673C135.837 36.3673 136.285 36.2886 136.739 36.1406C137.113 35.9926 137.409 35.7659 137.636 35.4653C137.863 35.1646 138.011 34.7899 138.011 34.3412C138.011 33.8925 137.863 33.5179 137.636 33.2172C137.409 32.9952 137.113 32.7685 136.739 32.6205C136.364 32.4725 136.063 32.3985 135.689 32.2458C135.314 32.1718 135.013 32.0978 134.791 31.9452C134.569 31.7971 134.417 31.6445 134.417 31.4178C134.417 31.1912 134.491 31.0432 134.639 30.9692C134.787 30.8951 135.013 30.8211 135.314 30.8211C135.541 30.8211 135.915 30.8951 136.29 31.0478C136.665 31.1218 137.039 31.3485 137.34 31.4965" fill="white"/>
<path d="M140.486 33.5273V29.6279H138.913V33.5273C138.987 34.4247 139.214 35.1 139.736 35.6274C140.333 36.1501 141.082 36.3767 141.984 36.4507C142.96 36.3767 143.636 36.1501 144.233 35.6274C144.755 35.1047 144.982 34.4293 144.982 33.5273V29.6279H143.483V33.5273C143.483 34.05 143.335 34.4247 143.109 34.6514C142.808 34.952 142.433 35.1 141.984 35.1C141.536 35.1 141.161 34.9474 140.86 34.6514C140.634 34.4293 140.486 34.0547 140.486 33.5273Z" fill="white"/>
<path d="M149.256 29.6279H146.411V36.3721H147.91V34.4247H149.256C150.079 34.4247 150.755 34.198 151.203 33.7494C151.652 33.3747 151.879 32.778 151.953 31.9546C151.879 31.2053 151.652 30.6039 151.203 30.2293C150.755 29.8546 150.079 29.6279 149.256 29.6279ZM149.182 33.1527H147.91V30.9046H149.182C149.557 30.9046 149.931 30.9786 150.153 31.1313C150.38 31.3579 150.454 31.654 150.454 32.0286C150.454 32.4033 150.375 32.704 150.153 32.852C149.931 33.0786 149.557 33.1527 149.182 33.1527Z" fill="white"/>
<path d="M155.773 29.6279H152.85V36.3721H154.422V34.4247H155.773C156.596 34.4247 157.272 34.198 157.72 33.7494C158.169 33.3747 158.396 32.778 158.396 31.9546C158.396 31.2053 158.169 30.6039 157.72 30.2293C157.272 29.8546 156.596 29.6279 155.773 29.6279ZM155.699 33.1527H154.427V30.9046H155.699C156.074 30.9046 156.448 30.9786 156.675 31.1313C156.902 31.3579 156.976 31.654 156.976 32.0286C156.976 32.4033 156.897 32.704 156.675 32.852C156.448 33.0786 156.078 33.1527 155.699 33.1527Z" fill="white"/>
<path d="M159.372 29.6279V36.3721H163.79V35.0214H160.945V29.6279H159.372Z" fill="white"/>
<path d="M166.19 29.6279H164.691V36.3721H166.19V29.6279Z" fill="white"/>
<path d="M167.689 29.6279V36.3721H172.93V35.1H169.262V33.5967H172.482V32.3247H169.262V30.9046H172.856V29.6279H167.689Z" fill="white"/>
<path d="M178.55 31.5011L179.146 30.3031C178.772 30.0764 178.397 29.8544 177.948 29.7757C177.5 29.6277 177.046 29.5537 176.598 29.5537C175.77 29.5537 175.173 29.7017 174.724 30.0764C174.202 30.4511 173.975 30.9044 173.975 31.5011C173.975 32.0238 174.123 32.3985 174.35 32.6251C174.576 32.9258 174.872 33.0738 175.247 33.2218C175.622 33.3699 175.922 33.4485 176.297 33.5965C176.672 33.6705 176.968 33.7445 177.194 33.8972C177.421 34.0452 177.569 34.1978 177.569 34.4199C177.569 34.6419 177.495 34.7945 177.268 34.9426C177.116 35.0212 176.894 35.0906 176.593 35.0906C176.218 35.0906 175.765 35.0166 175.395 34.7899C174.946 34.6373 174.572 34.4152 174.197 34.0406L173.596 35.3172C173.97 35.6179 174.419 35.9139 174.946 36.0666C175.469 36.2932 175.996 36.3673 176.519 36.3673C177.042 36.3673 177.495 36.2886 177.87 36.1406C178.318 35.9926 178.619 35.7659 178.841 35.4653C179.068 35.1646 179.142 34.7899 179.142 34.3412C179.142 33.8925 179.068 33.5179 178.841 33.2172C178.54 32.9952 178.318 32.7685 177.944 32.6205C177.569 32.4725 177.194 32.3985 176.894 32.2458C176.519 32.1718 176.218 32.0978 175.996 31.9452C175.77 31.7971 175.622 31.6445 175.622 31.4178C175.622 31.1912 175.696 31.0432 175.844 30.9692C175.992 30.8951 176.218 30.8211 176.445 30.8211C176.746 30.8211 177.042 30.8951 177.416 31.0478C177.791 31.1218 178.166 31.3485 178.54 31.4965" fill="white"/>
<path d="M187.995 31.7278L188.893 30.6777C188.592 30.3031 188.143 30.0764 187.695 29.8544C187.246 29.7064 186.719 29.5537 186.27 29.5537C185.521 29.5537 184.924 29.7017 184.397 30.0024C183.874 30.3031 183.425 30.7518 183.124 31.2004C182.828 31.7231 182.676 32.3245 182.676 32.9998C182.676 33.5965 182.828 34.1978 183.124 34.7205C183.425 35.2479 183.874 35.6225 184.397 35.9186C184.924 36.2192 185.521 36.3673 186.196 36.4413C186.719 36.3673 187.167 36.2886 187.616 36.0666C188.143 35.8399 188.518 35.5393 188.893 35.1692L187.995 34.2719C187.769 34.4985 187.468 34.6419 187.172 34.7945C186.871 34.9472 186.571 35.0212 186.275 35.0212C185.9 35.0212 185.525 34.9472 185.224 34.7205C184.924 34.5725 184.702 34.3459 184.475 34.0452C184.327 33.6705 184.248 33.3745 184.248 32.9212C184.248 32.5465 184.327 32.1718 184.475 31.8712C184.702 31.5705 184.924 31.3485 185.224 31.1218C185.525 30.9738 185.9 30.8998 186.275 30.8998C186.575 30.8998 186.871 30.9738 187.172 31.1218C187.473 31.2698 187.769 31.4965 187.995 31.7185" fill="white"/>
<path d="M192.792 29.5537C192.117 29.5537 191.516 29.7017 190.993 30.0024C190.392 30.3031 190.017 30.6777 189.721 31.2004C189.346 31.7231 189.198 32.3245 189.198 32.9998C189.198 33.5965 189.346 34.1978 189.721 34.7252C190.022 35.2479 190.396 35.6225 190.993 35.9232C191.516 36.2192 192.117 36.3719 192.792 36.4459C193.542 36.3719 194.143 36.2192 194.666 35.9232C195.188 35.6225 195.642 35.2479 195.938 34.7252C196.238 34.1978 196.386 33.6011 196.465 32.9998C196.391 32.3245 196.238 31.7231 195.938 31.2004C195.637 30.7518 195.188 30.3031 194.666 30.0024C194.143 29.7017 193.542 29.5537 192.792 29.5537ZM192.866 30.9044C193.241 30.9044 193.542 30.9784 193.842 31.2051C194.143 31.3531 194.439 31.5751 194.592 31.8804C194.74 32.2551 194.892 32.5557 194.892 33.0044C194.892 33.3791 194.744 33.7538 194.592 34.0498C194.444 34.3505 194.143 34.6512 193.842 34.7992C193.542 34.9472 193.246 35.0998 192.866 35.0998C192.487 35.0998 192.117 34.9518 191.816 34.7992C191.516 34.6512 191.215 34.3505 191.067 34.0498C190.84 33.7492 190.766 33.3791 190.766 33.0044C190.766 32.5557 190.845 32.2551 191.067 31.8804C191.215 31.5797 191.516 31.3577 191.816 31.2051C192.117 30.9784 192.413 30.9044 192.866 30.9044Z" fill="white"/>
<path d="M197.584 34.873C197.358 34.873 197.21 34.9471 197.062 35.0951C196.914 35.2431 196.835 35.3957 196.835 35.6918C196.835 35.9184 196.914 36.0665 197.062 36.2191C197.21 36.3671 197.362 36.4458 197.584 36.4458C197.806 36.4458 197.959 36.3718 198.112 36.2191C198.26 36.0665 198.334 35.9184 198.334 35.6918C198.334 35.3911 198.26 35.2431 198.112 35.0951C197.964 34.9471 197.811 34.873 197.584 34.873Z" fill="white"/>
<path d="M69.5515 34.5218C69.5515 34.3229 69.5793 34.1379 69.6394 33.9667C69.6995 33.7956 69.7828 33.6291 69.8984 33.4764C70.0141 33.3238 70.1575 33.1757 70.324 33.0323C70.4951 32.8936 70.6894 32.7548 70.9161 32.6207C70.7912 32.4588 70.6802 32.3061 70.5876 32.1627C70.4951 32.0193 70.4165 31.8852 70.3564 31.7557C70.2962 31.6262 70.25 31.5013 70.2176 31.3856C70.1898 31.27 70.1713 31.1543 70.1713 31.0341C70.1713 30.7889 70.2176 30.5576 70.3055 30.3402C70.3934 30.1228 70.5275 29.9378 70.7125 29.7805C70.8976 29.6233 71.1335 29.4984 71.4203 29.4059C71.7071 29.3133 72.0493 29.2671 72.4564 29.2671C72.8218 29.2671 73.141 29.2995 73.4093 29.3735C73.6776 29.4429 73.895 29.5446 74.0661 29.6695C74.2373 29.799 74.3668 29.9563 74.45 30.1413C74.5333 30.331 74.5749 30.5391 74.5749 30.775C74.5749 30.9878 74.5379 31.1821 74.4685 31.3579C74.3945 31.5383 74.2881 31.7048 74.1447 31.8667C73.9967 32.0286 73.8163 32.1859 73.5989 32.3339C73.3815 32.4819 73.1271 32.6345 72.8357 32.7826C72.9328 32.8936 73.0346 33.0092 73.1549 33.1295C73.2705 33.2498 73.3908 33.37 73.5157 33.4903C73.6406 33.6106 73.7655 33.7308 73.8903 33.8511C74.0152 33.9713 74.1401 34.0824 74.2604 34.1841C74.3066 34.1147 74.3483 34.0315 74.3807 33.9436C74.4177 33.8511 74.45 33.7539 74.4778 33.6568C74.5055 33.555 74.5241 33.4487 74.5426 33.3469C74.5611 33.2405 74.5657 33.1387 74.5657 33.037V32.8751C74.5657 32.8381 74.5749 32.8057 74.5888 32.7779C74.6027 32.7502 74.6304 32.7271 74.6767 32.7086C74.7183 32.6901 74.7831 32.6762 74.8663 32.6669C74.9496 32.6577 75.056 32.653 75.1855 32.653C75.315 32.653 75.4122 32.653 75.4908 32.6623C75.5694 32.6623 75.6342 32.6808 75.6805 32.6947C75.7267 32.7132 75.7591 32.7363 75.7822 32.7641C75.8007 32.7918 75.81 32.8334 75.81 32.8751V33.0416C75.81 33.2081 75.7961 33.3793 75.773 33.5504C75.7498 33.7216 75.7128 33.8881 75.6666 34.0546C75.6203 34.2165 75.5602 34.3738 75.4908 34.5218C75.4214 34.6698 75.3428 34.8086 75.2595 34.9427C75.3798 35.0399 75.4862 35.1139 75.5787 35.1786C75.6666 35.2434 75.7452 35.2897 75.8053 35.3267C75.8701 35.3637 75.921 35.3868 75.9626 35.4053C76.0043 35.4192 76.0413 35.4284 76.069 35.4284H76.1754C76.2078 35.4284 76.2355 35.4423 76.2587 35.4654C76.2772 35.4932 76.2957 35.5348 76.3049 35.5996C76.3142 35.6643 76.3234 35.7568 76.3234 35.8771C76.3234 36.0066 76.3234 36.1084 76.3142 36.1824C76.3095 36.2564 76.3003 36.3119 76.2864 36.3443C76.2725 36.3767 76.254 36.4091 76.2217 36.4322C76.1939 36.4553 76.143 36.4738 76.0736 36.4969C76.0043 36.5154 75.921 36.5247 75.8239 36.5247C75.7452 36.5247 75.6666 36.5154 75.5833 36.4969C75.5001 36.4784 75.4076 36.4414 75.2965 36.3859C75.1855 36.3304 75.0606 36.261 74.9172 36.1685C74.7738 36.0806 74.6073 35.965 74.4177 35.8216C74.2558 35.9326 74.0846 36.0344 73.9089 36.1223C73.7331 36.2102 73.5527 36.2842 73.3584 36.3443C73.1687 36.4044 72.9698 36.4507 72.7663 36.4831C72.5628 36.5154 72.3454 36.5293 72.1141 36.5293C71.8828 36.5293 71.6654 36.5108 71.448 36.4784C71.2306 36.4414 71.0271 36.3906 70.8374 36.3165C70.6478 36.2472 70.472 36.1546 70.3147 36.0436C70.1575 35.9326 70.0233 35.8077 69.9077 35.6551C69.7967 35.5071 69.7088 35.3359 69.644 35.1463C69.5793 34.9566 69.5469 34.7438 69.5469 34.5125M70.9808 34.4478C70.9808 34.6004 71.0086 34.7392 71.0641 34.8641C71.1196 34.989 71.2029 35.1 71.3046 35.1925C71.411 35.285 71.5405 35.3544 71.6978 35.4053C71.8551 35.4562 72.0308 35.4839 72.2344 35.4839C72.3408 35.4839 72.4425 35.4747 72.5489 35.4562C72.6507 35.4377 72.7524 35.4099 72.8542 35.3775C72.956 35.3452 73.0485 35.3035 73.1364 35.2573C73.2243 35.211 73.3075 35.1601 73.3862 35.1C73.2289 34.9751 73.0716 34.841 72.9097 34.6976C72.7524 34.5542 72.5952 34.4108 72.4425 34.2674C72.2899 34.124 72.1465 33.9806 72.0077 33.8372C71.8689 33.6938 71.7441 33.5597 71.6377 33.4348C71.5174 33.5134 71.411 33.592 71.3324 33.6753C71.2491 33.7586 71.1844 33.8418 71.1288 33.9251C71.078 34.0084 71.0363 34.0962 71.0132 34.1841C70.9901 34.272 70.9762 34.3599 70.9762 34.4524M71.5683 30.9693C71.5683 31.0433 71.5822 31.1173 71.6053 31.196C71.6284 31.2746 71.6654 31.3579 71.707 31.4458C71.7533 31.5336 71.8088 31.6215 71.8736 31.7187C71.9383 31.8158 72.017 31.9176 72.1002 32.0332C72.3084 31.9222 72.4795 31.8158 72.6183 31.7233C72.7571 31.6308 72.8681 31.5383 72.9513 31.4458C73.0346 31.3579 73.0947 31.2654 73.1317 31.1775C73.1641 31.0896 73.1826 30.9971 73.1826 30.8999C73.1826 30.8167 73.1687 30.738 73.1364 30.664C73.104 30.59 73.0577 30.5253 72.9883 30.4744C72.9236 30.4189 72.8403 30.3772 72.7432 30.3449C72.646 30.3125 72.5304 30.2986 72.3963 30.2986C72.2482 30.2986 72.1234 30.3171 72.0216 30.3495C71.9198 30.3819 71.8319 30.4281 71.7672 30.4929C71.7024 30.553 71.6515 30.627 71.6192 30.7103C71.5868 30.7935 71.5729 30.8814 71.5729 30.9739" fill="white"/>
<path d="M8.3817 15.5907V19.1616L8.22443 19.3189H2.75231L2.35451 19.1616C2.19724 19.0044 2.1186 18.8425 2.1186 18.6066V16.3863H1.24436L0.370117 17.0986V18.6066C0.370117 19.2403 0.61065 19.7953 1.16573 20.2718C1.56353 20.591 1.95671 20.7482 2.51178 20.7482H8.69624C9.17268 20.7482 9.49185 20.591 9.72775 20.2718C9.96366 20.0359 10.1256 19.7167 10.1256 19.3189V15.5907H8.3817ZM5.60633 15.512C5.44906 15.6693 5.37042 15.9098 5.37042 16.1457C5.37042 16.3816 5.44906 16.6222 5.60633 16.7794C5.7636 16.9367 6.00413 17.0153 6.24004 17.0153C6.47594 17.0153 6.71647 16.9367 6.87374 16.7794C7.03102 16.6222 7.11428 16.3816 7.11428 16.1457C7.11428 15.9098 7.03564 15.6693 6.87374 15.512C6.71647 15.3547 6.47594 15.2715 6.24004 15.2715C6.00413 15.2715 5.7636 15.3501 5.60633 15.512ZM3.62193 15.512C3.46466 15.6693 3.38603 15.9098 3.38603 16.1457C3.38603 16.3816 3.46466 16.6222 3.62193 16.7794C3.7792 16.9367 4.01973 17.0153 4.25564 17.0153C4.49155 17.0153 4.65345 16.9367 4.81072 16.7794C5.04663 16.6222 5.12526 16.3816 5.12526 16.1457C5.12526 15.9098 5.04663 15.6693 4.81072 15.512C4.65345 15.3547 4.49155 15.2715 4.25564 15.2715C4.01973 15.2715 3.7792 15.3501 3.62193 15.512Z" fill="white"/>
<path d="M11.7119 12.6575V19.3184C11.7119 19.7162 11.7905 20.0353 12.1097 20.3499C12.4289 20.5858 12.7434 20.7431 13.0626 20.7431H14.0155V19.3137H13.539L13.4604 19.2351L13.3818 19.1565V12.6528H11.7165L11.7119 12.6575Z" fill="white"/>
<path d="M16.2316 21.4603C16.0743 21.6176 15.991 21.8581 15.991 22.094C15.991 22.3299 16.0697 22.5704 16.2316 22.7277C16.3888 22.885 16.5461 22.9636 16.8653 22.9636C17.1058 22.9636 17.2631 22.885 17.4203 22.7277C17.6609 22.5704 17.7395 22.3299 17.7395 22.094C17.7395 21.8581 17.6609 21.6176 17.4203 21.4603C17.2631 21.303 17.1058 21.2198 16.8653 21.2198C16.5461 21.2198 16.3888 21.2984 16.2316 21.4603ZM14.1685 21.4603C14.0113 21.6176 13.9326 21.8581 13.9326 22.094C13.9326 22.3299 14.0113 22.5704 14.1685 22.7277C14.3258 22.885 14.5663 22.9636 14.8069 22.9636C15.0474 22.9636 15.2833 22.885 15.4406 22.7277C15.5978 22.5704 15.6811 22.3299 15.6811 22.094C15.6811 21.8581 15.6025 21.6176 15.4406 21.4603C15.2833 21.303 15.0428 21.2198 14.8069 21.2198C14.571 21.2198 14.3304 21.2984 14.1685 21.4603ZM15.917 15.4331V19.24H13.9326V20.6693H16.2316C16.708 20.6693 17.0225 20.512 17.3417 20.1929C17.5776 19.8737 17.6609 19.5592 17.6609 19.24V15.4331H15.917Z" fill="white"/>
<path d="M22.3417 19.2398L21.8652 19.3184C21.5461 19.3184 21.3101 19.1611 21.0696 18.9206C20.9123 18.6801 20.8337 18.3655 20.8337 17.9677C20.8337 17.5699 20.9123 17.2508 21.0696 17.0935C21.2269 16.8576 21.4674 16.779 21.7033 16.779C21.9392 16.779 22.0179 16.8576 22.1798 16.9362L22.337 17.408V19.2352L22.3417 19.2398ZM21.9439 21.3814C21.6247 21.7006 21.1529 21.8579 20.5145 21.8579L20.0381 21.7793H19.8808V22.413L20.5978 23.2826H20.9123C21.7866 23.2826 22.4989 23.0467 23.054 22.5702C23.7664 22.0152 24.0855 21.2196 24.0855 20.1927V17.4173C24.0855 16.7049 23.8496 16.1499 23.2945 15.8353C22.8967 15.5162 22.3417 15.3589 21.7079 15.3589C20.9123 15.3589 20.2786 15.5948 19.8022 16.1499C19.3257 16.6263 19.0898 17.26 19.0898 17.9724C19.0898 18.6847 19.3304 19.2398 19.7236 19.7949C20.2 20.4286 20.8337 20.7477 21.6247 20.7477C21.8652 20.7477 22.1011 20.7477 22.337 20.6691C22.2538 20.9836 22.0965 21.2242 21.9392 21.3814" fill="white"/>
<path d="M25.5146 12.6575V19.3184C25.5146 19.7162 25.6719 20.0353 25.9911 20.3499C26.227 20.5858 26.5462 20.7431 26.944 20.7431H27.8182V19.3137H27.4204L27.2631 19.2351V12.6528H25.5193L25.5146 12.6575Z" fill="white"/>
<path d="M32.731 19.3186C32.4951 19.5592 32.2546 19.6378 32.0187 19.6378C31.4636 19.6378 31.2277 19.1614 31.2277 18.1298C31.2277 17.732 31.3063 17.4175 31.4636 17.177C31.6209 16.9411 31.7828 16.8578 32.0973 16.8578C32.3378 16.8578 32.4951 16.9364 32.5738 17.0937C32.731 17.177 32.731 17.3342 32.731 17.5701V19.314V19.3186ZM27.7354 19.3186V20.7479H29.877L30.1916 20.3501C30.668 20.8266 31.1444 21.0625 31.7781 21.0625C32.4119 21.0625 32.8883 20.8266 33.2861 20.4242C33.522 20.6647 33.8412 20.7433 34.1603 20.7433H34.8727V19.314H34.7154L34.5581 19.2354L34.4795 19.1567V17.5701C34.4795 16.8578 34.2436 16.3814 33.7672 15.9882C33.3694 15.5904 32.8143 15.4331 32.0233 15.4331C31.385 15.4331 30.8299 15.5904 30.3581 15.9882C29.803 16.5433 29.4885 17.177 29.4885 18.0466C29.4885 18.523 29.4885 18.9995 29.5671 19.314H27.7446L27.7354 19.3186Z" fill="white"/>
<path d="M37.0152 21.46C36.858 21.6173 36.7793 21.8578 36.7793 22.0937C36.7793 22.3297 36.858 22.5702 37.0152 22.7275C37.2511 22.8847 37.413 22.9634 37.6489 22.9634C37.8848 22.9634 38.1254 22.8847 38.2873 22.7275C38.4445 22.5702 38.5232 22.3297 38.5232 22.0937C38.5232 21.8578 38.4445 21.6173 38.2873 21.46C38.13 21.3028 37.8895 21.2195 37.6489 21.2195C37.4084 21.2195 37.2511 21.2981 37.0152 21.46ZM35.0308 21.46C34.8736 21.6173 34.7949 21.8578 34.7949 22.0937C34.7949 22.3297 34.8736 22.5702 35.0308 22.7275C35.1881 22.8847 35.4286 22.9634 35.6645 22.9634C35.9004 22.9634 36.141 22.8847 36.2982 22.7275C36.4555 22.5702 36.5342 22.3297 36.5342 22.0937C36.5342 21.8578 36.4555 21.6173 36.2982 21.46C36.141 21.3028 35.9004 21.2195 35.6645 21.2195C35.4286 21.2195 35.1881 21.2981 35.0308 21.46ZM36.858 15.4328V18.9992L36.7793 19.1565L36.622 19.2351H34.7996V20.6644H37.1771C37.6536 20.6644 37.9681 20.5072 38.2873 20.188L38.7637 20.6644H39.1615V19.2351H38.6064L38.5278 19.1565V15.4282H36.8626L36.858 15.4328Z" fill="white"/>
<path d="M40.4239 15.0353V16.3814L40.5026 16.5386C41.4554 16.5386 42.2464 16.9364 42.8801 17.6488C43.3566 18.2039 43.5925 18.6803 43.5925 19.1567L43.4352 19.314H39.0732V20.7433H43.9116C44.3881 20.7433 44.7026 20.5861 45.0218 20.2669L45.4982 20.7433H45.7341V19.314H45.3363V19.0781C45.2577 18.2825 44.9385 17.4915 44.4621 16.8578C44.0643 16.2241 43.4306 15.7477 42.7182 15.4331L44.6194 14.1657V12.5791L40.4147 15.0399L40.4239 15.0353Z" fill="white"/>
<path d="M47.6445 12.6577V19.3186H45.6602V20.7479H47.9591C48.4355 20.7479 48.8333 20.5907 49.0692 20.2715C49.3098 19.9523 49.3884 19.6378 49.3884 19.3186V12.6577H47.6445Z" fill="white"/>
<path d="M50.9697 12.6577V20.9838H51.844L52.7182 20.2669V12.6577H50.9697Z" fill="white"/>
<path d="M57.3952 19.2398C57.1546 19.3184 56.9974 19.3184 56.8401 19.3184C56.5209 19.3184 56.285 19.1611 56.1277 18.9206C55.8918 18.6801 55.8086 18.3655 55.8086 17.9677C55.8086 17.5699 55.8872 17.2508 56.0491 17.0935C56.2064 16.8576 56.4423 16.779 56.7615 16.779L57.1592 16.9362L57.3998 17.408V19.2352L57.3952 19.2398ZM56.9187 21.3814C56.5996 21.7006 56.2064 21.8579 55.494 21.8579L55.0176 21.7793H54.8603V22.413L55.5727 23.2826H55.8918C56.7615 23.2826 57.4784 23.0467 58.1121 22.5702C58.7458 22.0152 59.1436 21.2196 59.1436 20.1927V17.4173C59.1436 16.7049 58.8245 16.1499 58.2694 15.8353C57.8716 15.5162 57.3165 15.3589 56.7615 15.3589C55.9705 15.3589 55.2535 15.5948 54.7817 16.1499C54.3052 16.6263 54.0693 17.26 54.0693 17.9724C54.0693 18.6847 54.3052 19.2398 54.703 19.7949C55.2581 20.4286 55.8965 20.7477 56.6042 20.7477C56.8447 20.7477 57.0806 20.7477 57.3211 20.6691C57.2425 20.9836 57.0852 21.2242 56.9234 21.3814" fill="white"/>
<path d="M65.7264 19.3183H65.25C64.9354 19.3183 64.6949 19.161 64.459 18.9205C64.3017 18.68 64.1398 18.4441 64.1398 18.0462C64.1398 17.6484 64.2185 17.3339 64.459 17.0934C64.6163 16.8575 64.8568 16.7742 65.25 16.7742L65.7264 16.8528V19.309V19.3183ZM66.596 15.1136L66.1196 15.5114C65.8004 15.3541 65.4072 15.2709 65.0094 15.2709C64.2971 15.2709 63.742 15.5114 63.2656 15.9878C62.7105 16.5429 62.4746 17.2553 62.4746 18.0462C62.4746 18.7586 62.6319 19.3137 62.951 19.7901C63.4275 20.4238 63.9826 20.743 64.7735 20.743C65.3286 20.743 65.7264 20.5857 66.1196 20.2665C66.4388 20.5857 66.7533 20.743 67.1511 20.743H68.0254V19.3137H67.6275L67.5489 19.235L67.4703 19.1564V15.109H66.596V15.1136ZM65.9623 13.2125C65.805 13.3697 65.7264 13.6103 65.7264 13.8462C65.7264 14.0821 65.805 14.3226 65.9623 14.4799C66.1196 14.6372 66.3601 14.7204 66.596 14.7204C66.8319 14.7204 67.0725 14.6418 67.2298 14.4799C67.387 14.3226 67.4703 14.0821 67.4703 13.8462C67.4703 13.6103 67.3916 13.3697 67.2298 13.2125C67.0725 13.0552 66.8319 12.9766 66.596 12.9766C66.3601 12.9766 66.1196 13.0552 65.9623 13.2125ZM63.9826 13.2125C63.7466 13.3697 63.6634 13.6103 63.6634 13.8462C63.6634 14.0821 63.742 14.3226 63.9826 14.4799C64.1398 14.6372 64.3017 14.7204 64.5376 14.7204C64.8568 14.7204 65.0141 14.6418 65.1713 14.4799C65.4072 14.3226 65.4905 14.0821 65.4905 13.8462C65.4905 13.6103 65.4119 13.3697 65.1713 13.2125C65.0141 13.0552 64.8568 12.9766 64.5376 12.9766C64.3017 12.9766 64.1398 13.0552 63.9826 13.2125Z" fill="white"/>
<path d="M70.2452 21.46C70.088 21.6173 70.0093 21.8578 70.0093 22.0937C70.0093 22.3297 70.088 22.5702 70.2452 22.7275C70.4025 22.8847 70.5644 22.9634 70.8789 22.9634C71.1148 22.9634 71.2767 22.8847 71.434 22.7275C71.6699 22.5702 71.7532 22.3297 71.7532 22.0937C71.7532 21.8578 71.6745 21.6173 71.434 21.46C71.2767 21.3028 71.1148 21.2195 70.8789 21.2195C70.5598 21.2195 70.4025 21.2981 70.2452 21.46ZM68.1822 21.46C68.0249 21.6173 67.9463 21.8578 67.9463 22.0937C67.9463 22.3297 68.0249 22.5702 68.1822 22.7275C68.3395 22.8847 68.58 22.9634 68.8159 22.9634C69.0518 22.9634 69.2923 22.8847 69.4496 22.7275C69.6069 22.5702 69.6855 22.3297 69.6855 22.0937C69.6855 21.8578 69.6069 21.6173 69.4496 21.46C69.2923 21.3028 69.0518 21.2195 68.8159 21.2195C68.58 21.2195 68.3395 21.2981 68.1822 21.46ZM70.0047 15.4328V18.9992L69.9261 19.1565L69.7688 19.2351H67.9463V20.6644H70.3239C70.8003 20.6644 71.1148 20.5072 71.434 20.188L71.9891 20.6644H72.3082V19.2351H71.7532V15.4282H70.0093L70.0047 15.4328Z" fill="white"/>
<path d="M73.5753 15.0353V16.3814L73.7326 16.5386C74.6068 16.5386 75.3978 16.9364 76.1101 17.6488C76.5079 18.2039 76.7439 18.6803 76.7439 19.1567L76.5866 19.314H72.2246V20.7433H77.1417C77.5395 20.7433 77.9326 20.5861 78.1732 20.2669H78.2518L78.6496 20.7433H78.8901V19.314H78.4923V19.0781C78.4137 18.2825 78.1778 17.4915 77.7013 16.8578C77.2249 16.2241 76.6698 15.7477 75.8788 15.4331L77.8632 14.1657V12.5791L73.5799 15.0399L73.5753 15.0353Z" fill="white"/>
<path d="M81.1095 21.46C80.8736 21.6173 80.7949 21.8578 80.7949 22.0937C80.7949 22.3297 80.8736 22.5702 81.1095 22.7275C81.2668 22.8847 81.4287 22.9634 81.6646 22.9634C81.9005 22.9634 82.141 22.8847 82.2983 22.7275C82.4555 22.5702 82.5388 22.3297 82.5388 22.0937C82.5388 21.8578 82.4602 21.6173 82.2983 21.46C82.141 21.3028 81.9051 21.2195 81.6646 21.2195C81.424 21.2195 81.2668 21.2981 81.1095 21.46ZM79.0465 21.46C78.8892 21.6173 78.8105 21.8578 78.8105 22.0937C78.8105 22.3297 78.8892 22.5702 79.0465 22.7275C79.2037 22.8847 79.4443 22.9634 79.6802 22.9634C79.9161 22.9634 80.1566 22.8847 80.3139 22.7275C80.4711 22.5702 80.5498 22.3297 80.5498 22.0937C80.5498 21.8578 80.4711 21.6173 80.3139 21.46C80.1566 21.3028 79.9161 21.2195 79.6802 21.2195C79.4443 21.2195 79.2037 21.2981 79.0465 21.46ZM80.8736 15.4328V18.9992L80.7949 19.1565L80.6377 19.2351H78.8152V20.6644H81.1928C81.6692 20.6644 81.9837 20.5072 82.3029 20.188L82.7793 20.6644H83.1771V19.2351H82.6221L82.5434 19.1565V15.4282H80.8782L80.8736 15.4328Z" fill="white"/>
<path d="M85.0733 15.59V19.3182H83.0889V20.7476H85.3878C85.8642 20.7476 86.1834 20.5903 86.5026 20.2711C86.7385 19.9566 86.8171 19.7161 86.8171 19.3182V15.59H85.0733ZM85.3138 13.3697C85.1565 13.527 85.0779 13.7675 85.0779 14.0034C85.0779 14.2393 85.1565 14.4798 85.3138 14.6371C85.4711 14.7944 85.7116 14.8776 85.9475 14.8776C86.1834 14.8776 86.424 14.799 86.5812 14.6371C86.7385 14.4798 86.8171 14.2393 86.8171 14.0034C86.8171 13.7675 86.7385 13.527 86.5812 13.3697C86.424 13.2124 86.1834 13.1338 85.9475 13.1338C85.7116 13.1338 85.4711 13.2124 85.3138 13.3697Z" fill="white"/>
<path d="M88.4092 12.6575V19.3184C88.4092 19.7162 88.5665 20.0353 88.807 20.3499C89.1262 20.5858 89.4407 20.7431 89.7599 20.7431H90.7127V19.3137H90.3149L90.1577 19.2351V12.6528H88.4138L88.4092 12.6575Z" fill="white"/>
<path d="M91.9767 15.0353V16.3814L92.0553 16.5386C93.0082 16.5386 93.7992 16.9364 94.4329 17.6488C94.9093 18.2039 95.1452 18.6803 95.1452 19.1567L94.9879 19.314H90.626V20.7433H95.543C95.9408 20.7433 96.334 20.5861 96.5745 20.2669H96.6532L97.051 20.7433H97.2869V19.314H96.8891V19.0781C96.8104 18.2825 96.5699 17.4915 96.0148 16.8578C95.617 16.2241 94.9833 15.7477 94.271 15.4331L96.2507 14.1657V12.5791L91.9674 15.0399L91.9767 15.0353Z" fill="white"/>
<path d="M99.4322 21.46C99.2749 21.6173 99.1963 21.8578 99.1963 22.0937C99.1963 22.3297 99.2749 22.5702 99.4322 22.7275C99.6727 22.8847 99.83 22.9634 100.066 22.9634C100.302 22.9634 100.542 22.8847 100.7 22.7275C100.857 22.5702 100.94 22.3297 100.94 22.0937C100.94 21.8578 100.862 21.6173 100.7 21.46C100.538 21.3028 100.302 21.2195 100.066 21.2195C99.83 21.2195 99.6681 21.2981 99.4322 21.46ZM97.4478 21.46C97.2905 21.6173 97.2119 21.8578 97.2119 22.0937C97.2119 22.3297 97.2905 22.5702 97.4478 22.7275C97.6051 22.8847 97.8456 22.9634 98.0815 22.9634C98.3174 22.9634 98.558 22.8847 98.7152 22.7275C98.8725 22.5702 98.9511 22.3297 98.9511 22.0937C98.9511 21.8578 98.8725 21.6173 98.7152 21.46C98.558 21.3028 98.3174 21.2195 98.0815 21.2195C97.8456 21.2195 97.6051 21.2981 97.4478 21.46ZM99.2749 15.4328V18.9992L99.1963 19.1565L99.039 19.2351H97.2165V20.6644H99.5941C99.9919 20.6644 100.39 20.5072 100.704 20.188L101.181 20.6644H101.578V19.2351H101.023L100.945 19.1565V15.4282H99.2796L99.2749 15.4328Z" fill="white"/>
<path d="M106.492 19.3184C106.256 19.5589 105.937 19.6375 105.696 19.6375C105.141 19.6375 104.905 19.1611 104.905 18.1296C104.905 17.7318 104.984 17.4172 105.141 17.1767C105.298 16.9408 105.539 16.8575 105.775 16.8575C106.011 16.8575 106.173 16.9362 106.33 17.0934C106.409 17.1767 106.487 17.334 106.487 17.5699V19.3137L106.492 19.3184ZM101.496 19.3184V20.7477H103.559L103.878 20.3499H103.957C104.355 20.8263 104.91 21.0622 105.465 21.0622C106.099 21.0622 106.575 20.8263 106.973 20.4239C107.209 20.6644 107.528 20.7431 107.926 20.7431H108.559V19.3137H108.402L108.245 19.2351V17.5653C108.245 16.8529 108.009 16.3765 107.533 15.9833C107.056 15.5855 106.501 15.4282 105.789 15.4282C105.076 15.4282 104.517 15.5855 104.045 15.9833C103.49 16.5384 103.171 17.1721 103.171 18.0417C103.171 18.5181 103.249 18.9946 103.328 19.3091H101.505L101.496 19.3184Z" fill="white"/>
<path d="M110.534 12.6577V19.1613L110.455 19.3186H108.471V20.7479H110.848C111.325 20.7479 111.639 20.5907 111.958 20.2715C112.116 19.9523 112.278 19.6378 112.278 19.3186V12.6577H110.534Z" fill="white"/>
<path d="M113.864 12.6577V20.9838H114.66L115.534 20.2669V12.6577H113.864Z" fill="white"/>
<path d="M127.191 15.5907V19.1616L127.034 19.3189H121.641L121.164 19.1616C121.007 19.0044 120.928 18.8425 120.928 18.6066V16.3863H120.054L119.18 17.0986V18.6066C119.18 19.2403 119.42 19.7953 119.975 20.2718C120.373 20.591 120.845 20.7482 121.326 20.7482H127.51C127.987 20.7482 128.306 20.591 128.621 20.2718C128.861 20.0359 128.94 19.7167 128.94 19.3189V15.5907H127.196H127.191ZM124.495 15.512C124.259 15.6693 124.18 15.9098 124.18 16.1457C124.18 16.3816 124.259 16.6222 124.495 16.7794C124.652 16.9367 124.814 17.0153 125.05 17.0153C125.286 17.0153 125.526 16.9367 125.683 16.7794C125.841 16.6222 125.924 16.3816 125.924 16.1457C125.924 15.9098 125.845 15.6693 125.683 15.512C125.526 15.3547 125.286 15.2715 125.05 15.2715C124.814 15.2715 124.652 15.3501 124.495 15.512ZM122.432 15.512C122.274 15.6693 122.196 15.9098 122.196 16.1457C122.196 16.3816 122.274 16.6222 122.432 16.7794C122.589 16.9367 122.829 17.0153 123.065 17.0153C123.301 17.0153 123.542 16.9367 123.699 16.7794C123.856 16.6222 123.935 16.3816 123.935 16.1457C123.935 15.9098 123.856 15.6693 123.699 15.512C123.542 15.3547 123.301 15.2715 123.065 15.2715C122.829 15.2715 122.589 15.3501 122.432 15.512Z" fill="white"/>
<path d="M130.521 12.6577V20.9838H131.396L132.265 20.2669V12.6577H130.521Z" fill="white"/>
<path d="M134.648 16.9411C134.727 16.8624 134.884 16.8624 135.124 16.8624C135.601 16.8624 135.994 17.0197 136.235 17.3389C136.549 17.5748 136.711 17.9726 136.711 18.449V19.1614L136.554 19.3186H133.464V20.7479H137.03C137.349 20.7479 137.664 20.6693 137.904 20.4288L138.14 20.2715L138.538 20.7479H138.695V19.3186H138.46C138.381 19.24 138.381 19.0827 138.381 18.8422V18.2871C138.381 17.4961 138.145 16.8578 137.669 16.3073C137.113 15.7523 136.322 15.4331 135.448 15.4331C135.05 15.4331 134.815 15.4331 134.657 15.5117V16.9411H134.648Z" fill="white"/>
<path d="M140.91 21.4603C140.753 21.6176 140.674 21.8581 140.674 22.094C140.674 22.3299 140.753 22.5704 140.91 22.7277C141.068 22.885 141.308 22.9636 141.544 22.9636C141.78 22.9636 142.02 22.885 142.178 22.7277C142.335 22.5704 142.414 22.3299 142.414 22.094C142.414 21.8581 142.335 21.6176 142.178 21.4603C142.02 21.303 141.78 21.2198 141.544 21.2198C141.308 21.2198 141.068 21.2984 140.91 21.4603ZM138.926 21.4603C138.769 21.6176 138.69 21.8581 138.69 22.094C138.69 22.3299 138.769 22.5704 138.926 22.7277C139.083 22.885 139.324 22.9636 139.564 22.9636C139.805 22.9636 139.962 22.885 140.119 22.7277C140.355 22.5704 140.438 22.3299 140.438 22.094C140.438 21.8581 140.36 21.6176 140.119 21.4603C139.962 21.303 139.8 21.2198 139.564 21.2198C139.328 21.2198 139.088 21.2984 138.926 21.4603ZM140.674 15.4331V19.0827L140.596 19.24H138.611V20.6693H140.989C141.387 20.6693 141.78 20.512 142.02 20.1929C142.256 19.8737 142.418 19.5592 142.418 19.24V15.4331H140.674Z" fill="white"/>
<path d="M145.514 15.5903V20.1096C145.514 20.8265 145.356 21.2984 145.116 21.5389C144.797 21.8581 144.32 22.0153 143.686 22.0153L143.21 21.9367H143.053V22.5704L143.765 23.44H144.084C144.403 23.44 144.639 23.44 144.958 23.3614C145.435 23.2041 145.911 22.9636 146.305 22.649C146.943 22.1726 147.257 21.377 147.257 20.3501V15.5903H145.514Z" fill="white"/>
<path d="M151.932 19.3186H151.613C150.822 19.3186 150.425 18.9255 150.425 18.0512C150.425 17.658 150.503 17.4175 150.66 17.1816C150.818 16.9457 151.058 16.8624 151.294 16.8624L151.692 17.0197C151.849 17.0983 151.928 17.3389 151.928 17.5748V19.3186H151.932ZM151.932 20.7433C151.697 21.6176 151.058 22.0107 150.031 22.0107C149.712 22.0107 149.398 21.9321 149.078 21.9321V22.4872L149.791 23.4401H150.346C150.739 23.4401 151.058 23.3614 151.456 23.2828C151.932 23.2042 152.33 22.9636 152.723 22.6491C153.279 22.1726 153.598 21.5389 153.676 20.7479H154.074V19.3186H153.676V17.5748C153.676 16.7838 153.436 16.2241 152.802 15.8309C152.404 15.5904 151.928 15.4331 151.373 15.4331C150.503 15.4331 149.865 15.6736 149.393 16.2287C148.917 16.7052 148.681 17.3389 148.681 18.2085C148.681 18.8468 148.917 19.4019 149.314 19.8783C149.791 20.4334 150.425 20.7479 151.216 20.7479H151.928L151.932 20.7433Z" fill="white"/>
<path d="M156.059 15.59V19.0777L155.981 19.235L155.823 19.3136H154.001V20.7429H156.379C156.776 20.7429 157.17 20.5857 157.489 20.2665L157.965 20.7429H158.358V19.3136H157.803L157.725 19.235V15.5854H156.059V15.59ZM156.457 13.3697C156.3 13.527 156.143 13.7675 156.143 14.0034C156.143 14.2393 156.3 14.4798 156.457 14.6371C156.614 14.7944 156.776 14.8776 157.091 14.8776C157.331 14.8776 157.489 14.799 157.646 14.6371C157.882 14.4798 157.965 14.2393 157.965 14.0034C157.965 13.7675 157.887 13.527 157.646 13.3697C157.489 13.2124 157.327 13.1338 157.091 13.1338C156.772 13.1338 156.614 13.2124 156.457 13.3697ZM154.394 13.3697C154.237 13.527 154.158 13.7675 154.158 14.0034C154.158 14.2393 154.237 14.4798 154.394 14.6371C154.551 14.7944 154.792 14.8776 155.028 14.8776C155.264 14.8776 155.504 14.799 155.662 14.6371C155.819 14.4798 155.897 14.2393 155.897 14.0034C155.897 13.7675 155.819 13.527 155.662 13.3697C155.504 13.2124 155.264 13.1338 155.028 13.1338C154.792 13.1338 154.551 13.2124 154.394 13.3697Z" fill="white"/>
<path d="M160.264 12.6577V19.3186H158.284V20.7479H160.583C161.06 20.7479 161.457 20.5907 161.693 20.2715C161.934 19.9523 162.012 19.6378 162.012 19.3186V12.6577H160.269H160.264Z" fill="white"/>
<path d="M163.595 12.6577V20.9838H164.464L165.339 20.2669V12.6577H163.595Z" fill="white"/>
<path d="M172.078 19.3183H171.602C171.282 19.3183 171.046 19.161 170.811 18.9205C170.575 18.68 170.491 18.4441 170.491 18.0462C170.491 17.6484 170.57 17.3339 170.811 17.0934C170.968 16.8575 171.208 16.7742 171.523 16.7742L172.078 16.8528V19.309V19.3183ZM172.952 15.1136L172.476 15.5114C172.078 15.3541 171.763 15.2709 171.366 15.2709C170.653 15.2709 170.015 15.5114 169.622 15.9878C169.067 16.5429 168.826 17.2553 168.826 18.0462C168.826 18.7586 168.983 19.3137 169.303 19.7901C169.696 20.4238 170.334 20.743 171.046 20.743H171.125C171.602 20.743 172.078 20.5857 172.471 20.2665C172.79 20.5857 173.105 20.743 173.503 20.743H174.377V19.3137H173.979L173.822 19.235V15.109H172.948L172.952 15.1136ZM172.319 13.2125C172.161 13.3697 172.083 13.6103 172.083 13.8462C172.083 14.0821 172.161 14.3226 172.319 14.4799C172.476 14.6372 172.716 14.7204 172.957 14.7204C173.197 14.7204 173.355 14.6418 173.591 14.4799C173.748 14.3226 173.831 14.0821 173.831 13.8462C173.831 13.6103 173.752 13.3697 173.591 13.2125C173.355 13.0552 173.197 12.9766 172.957 12.9766C172.716 12.9766 172.48 13.0552 172.319 13.2125ZM170.255 13.2125C170.098 13.3697 170.015 13.6103 170.015 13.8462C170.015 14.0821 170.094 14.3226 170.255 14.4799C170.491 14.6372 170.653 14.7204 170.889 14.7204C171.125 14.7204 171.366 14.6418 171.523 14.4799C171.68 14.3226 171.759 14.0821 171.759 13.8462C171.759 13.6103 171.68 13.3697 171.523 13.2125C171.366 13.0552 171.125 12.9766 170.889 12.9766C170.653 12.9766 170.491 13.0552 170.255 13.2125Z" fill="white"/>
<path d="M175.65 14.9567V16.386L175.807 16.5433C176.598 16.5433 177.315 16.9411 178.027 17.4962C178.582 17.9726 178.818 18.5277 178.818 19.1614L178.661 19.3187H174.299V20.748H179.216C179.614 20.748 179.928 20.5907 180.247 20.3502C180.488 20.0356 180.645 19.6378 180.645 19.24C180.645 18.5277 180.405 17.8153 179.928 17.0984C179.452 16.3074 178.739 15.7523 177.948 15.3545L179.928 14.1657V12.5005L175.645 14.9567H175.65Z" fill="white"/>
<path d="M183.105 15.4331V20.031C183.105 20.6647 182.948 21.1411 182.629 21.4603C182.314 21.7795 181.838 21.9367 181.204 21.9367L180.728 21.8581H180.57V22.4918L181.283 23.3661H181.68C182.476 23.3661 183.11 23.1301 183.665 22.7323C184.377 22.2559 184.696 21.5436 184.854 20.6693H185.409V19.24H184.854V15.4331H183.11H183.105Z" fill="white"/>
<path d="M196.667 15.5904V19.1568L196.51 19.314H194.211V16.2195H192.467V19.1568L192.31 19.314H190.09V16.8578H188.346V19.1568L188.189 19.314H185.33V20.7387H188.739C189.137 20.7387 189.535 20.5815 189.771 20.1837H189.849L190.326 20.7387H192.865C193.263 20.7387 193.656 20.5815 193.975 20.1837L194.452 20.7387H196.991C197.384 20.7387 197.704 20.5815 197.94 20.3456C198.259 20.0264 198.337 19.7118 198.337 19.314V15.5858H196.672L196.667 15.5904ZM193.73 13.3701C193.573 13.5274 193.494 13.7679 193.494 14.0038C193.494 14.2397 193.573 14.4803 193.73 14.6375C193.971 14.7948 194.128 14.8734 194.364 14.8734C194.6 14.8734 194.84 14.7948 194.998 14.6375C195.155 14.4803 195.238 14.2397 195.238 14.0038C195.238 13.7679 195.16 13.5274 194.998 13.3701C194.84 13.2128 194.604 13.1342 194.364 13.1342C194.123 13.1342 193.966 13.2128 193.73 13.3701ZM191.75 13.3701C191.593 13.5274 191.51 13.7679 191.51 14.0038C191.51 14.2397 191.589 14.4803 191.75 14.6375C191.908 14.7948 192.148 14.8734 192.384 14.8734C192.62 14.8734 192.861 14.7948 193.018 14.6375C193.175 14.4803 193.254 14.2397 193.254 14.0038C193.254 13.7679 193.175 13.5274 193.018 13.3701C192.861 13.2128 192.62 13.1342 192.384 13.1342C192.148 13.1342 191.908 13.2128 191.75 13.3701ZM192.861 11.7049C192.703 11.8622 192.62 12.0241 192.62 12.26C192.62 12.4959 192.699 12.6578 192.861 12.815C192.939 12.9723 193.18 13.0509 193.416 13.0509L193.971 12.815C194.128 12.6578 194.207 12.4959 194.207 12.26C194.207 12.0241 194.128 11.8622 193.971 11.7049L193.416 11.4644C193.18 11.4644 192.939 11.543 192.861 11.7049Z" fill="white"/>
<path d="M246.54 0.705965C247.317 0.687463 248.094 0.70134 248.876 0.687463C249.264 0.692089 249.653 0.668961 250.041 0.687463C250.592 1.75136 251.096 2.83838 251.642 3.90227L251.707 4.09192C251.725 5.64151 251.748 7.19572 251.739 8.7453C251.757 9.4484 251.757 10.1469 251.757 10.85C251.794 11.5531 251.757 12.2515 251.776 12.9546C251.443 13.2414 251.027 13.4727 250.578 13.4588C250.18 13.4727 249.796 13.3154 249.472 13.0934C249.227 13.246 248.987 13.4264 248.691 13.4866C248.348 13.5421 247.983 13.5421 247.664 13.3802L247.289 13.1905C247.099 13.2738 246.938 13.4079 246.739 13.4634C246.373 13.5421 245.952 13.5374 245.656 13.2738C245.656 14.037 245.841 14.828 246.304 15.4432L246.605 15.8456C246.845 16.0723 247.062 16.3313 247.345 16.5117L247.83 16.8679C248.469 16.8679 249.112 16.8679 249.75 16.8586C250.3 16.8494 250.86 16.8864 251.411 16.8448C252.04 16.8586 252.669 16.8031 253.298 16.8401C254.043 16.8309 254.787 16.7939 255.537 16.8216C256.013 16.7985 256.489 16.8031 256.966 16.8031C256.98 15.8734 256.924 14.9529 256.924 14.0231C256.901 13.7132 256.952 13.4033 256.915 13.098L256.79 13.0379L256.92 13.024C256.91 11.9509 256.86 10.8823 256.869 9.80919C256.823 9.44377 256.846 9.07372 256.841 8.7083C256.827 8.14397 256.813 7.57502 256.813 7.01069C257.179 7.00607 257.539 7.03844 257.9 6.99219C258.182 6.98294 258.46 6.98756 258.747 6.98756L258.825 7.01994C259.306 6.95518 259.792 6.99681 260.273 6.98294C260.555 6.99219 260.838 6.96444 261.12 6.99219C261.152 7.54726 261.129 8.11159 261.134 8.67129C261.157 9.16623 261.134 9.6658 261.143 10.1607C261.18 10.6881 261.171 11.22 261.166 11.7473C261.175 12.1729 261.198 12.5984 261.175 13.0194C261.152 13.6947 261.221 14.3654 261.189 15.0362C261.175 15.5126 261.249 15.9983 261.203 16.4793C261.175 17.0529 261.24 17.6219 261.217 18.1908C261.231 18.5239 261.194 18.8662 261.217 19.1992C261.24 19.4953 261.208 19.7913 261.254 20.0827L261.24 20.4713C261.24 21.0587 261.282 21.6415 261.254 22.229C261.235 22.7702 261.263 23.3114 261.263 23.8526C261.291 24.403 261.245 24.9535 261.291 25.4993C261.254 26.0729 261.268 26.6511 261.263 27.2293C261.249 28.3996 261.263 29.5699 261.263 30.7448C261.268 31.9012 261.263 33.053 261.268 34.2094C261.272 35.19 261.249 36.1706 261.291 37.1513C261.258 37.9839 261.309 38.8165 261.268 39.6537C261.291 40.3614 261.277 41.0599 261.277 41.763L261.291 42.295C261.249 42.5956 261.291 42.9055 261.263 43.2108C261.277 43.9001 261.258 44.5846 261.272 45.2739C261.263 45.667 261.291 46.0602 261.277 46.4534C261.268 46.7263 261.3 47.0038 261.254 47.2768C260.801 47.3323 260.338 47.2721 259.885 47.2999C259.455 47.323 259.024 47.2953 258.594 47.2999C258.081 47.3138 257.567 47.2999 257.054 47.3138L257.012 47.2953C256.998 46.4441 257.049 45.5977 257.021 44.7465C257.068 44.1498 257.026 43.5485 257.035 42.9518C257.045 42.6696 257.068 42.3921 257.049 42.1146C257.031 41.4993 257.068 40.8888 257.045 40.2736C257.021 39.6537 257.072 39.0431 257.045 38.4279C257.054 37.97 257.058 37.5121 257.058 37.0588C256.762 37.0495 256.462 37.0587 256.166 37.0865C253.77 37.0865 251.369 37.1235 248.973 37.1374L248.737 37.1883C247.419 38.1411 246.059 39.0339 244.616 39.7832C244.148 40.0377 243.667 40.2597 243.186 40.4863C242.899 40.5974 242.626 40.7454 242.33 40.8333C241.59 41.1339 240.836 41.4115 240.064 41.6289C239.777 41.7214 239.476 41.7769 239.194 41.8648C238.898 41.9249 238.607 42.0035 238.32 42.0822C237.876 42.1562 237.432 42.2441 236.988 42.295L236.507 42.369L236.479 42.4476L236.442 42.3551L236.34 42.3643C236.118 42.4476 235.859 42.3782 235.642 42.4754C235.272 42.4892 234.906 42.48 234.541 42.48L234.143 42.517C233.898 42.4569 233.648 42.4892 233.398 42.4707L233.139 42.4476C232.903 42.4476 232.668 42.4245 232.432 42.4245C232.043 42.3505 231.645 42.3412 231.252 42.2672C230.669 42.1978 230.096 42.0776 229.527 41.948C228.287 41.689 227.084 41.2866 225.9 40.8333C224.656 40.3614 223.453 39.7832 222.288 39.1449C221.201 38.5158 220.118 37.8821 219.101 37.1466C217.986 37.1466 216.871 37.142 215.756 37.1374C214.466 37.1605 213.175 37.1189 211.885 37.1374C211.875 37.6046 211.885 38.0718 211.871 38.5436H211.912L211.88 39.1218C211.885 39.5057 211.857 39.8896 211.88 40.2689C211.857 40.8703 211.894 41.4716 211.861 42.0776C211.894 42.4939 211.861 42.9148 211.866 43.3357C211.889 43.789 211.866 44.247 211.88 44.7003C211.917 45.556 211.912 46.4164 211.917 47.2768C210.737 47.2768 209.558 47.2768 208.383 47.286C208.031 47.2953 207.685 47.2583 207.333 47.2629C207.324 46.0463 207.342 44.8205 207.319 43.604C207.314 42.1654 207.333 40.7315 207.342 39.2976C207.356 38.5945 207.384 37.896 207.365 37.1929C207.393 36.7997 207.375 36.4065 207.384 36.0087C207.379 34.9263 207.412 33.8439 207.398 32.7615C207.398 32.3082 207.412 31.8549 207.407 31.4016C207.407 31.1426 207.453 30.8789 207.407 30.6245L207.393 30.4534L207.467 30.4811L207.375 30.3747H207.467L207.398 30.0185L207.439 30.0278C207.421 29.3617 207.462 28.691 207.462 28.0249C207.486 27.7104 207.435 27.3912 207.472 27.0767C207.509 25.8092 207.486 24.5418 207.523 23.2744C207.569 22.5343 207.523 21.7849 207.56 21.0448C207.55 20.536 207.573 20.0272 207.583 19.5138C207.573 18.4036 207.629 17.2888 207.629 16.1741C207.629 15.3877 207.661 14.6013 207.666 13.8104C207.689 11.5299 207.712 9.24949 207.759 6.96906C208.027 6.96444 208.295 6.94131 208.563 6.96444C209.78 6.97831 210.992 6.99219 212.208 7.01069L212.287 7.13096C212.287 7.65828 212.273 8.18098 212.259 8.70367C212.273 8.99971 212.208 9.29575 212.227 9.59179C212.218 10.9055 212.194 12.2238 212.176 13.5374C212.162 14.0601 212.139 14.5875 212.139 15.1148C212.134 15.6514 212.107 16.1879 212.139 16.7245C212.333 16.78 212.537 16.7523 212.736 16.7523C213.596 16.7708 214.456 16.7661 215.317 16.7754L215.627 16.7846C215.863 16.7476 216.094 16.817 216.33 16.8031C217.528 16.8031 218.731 16.8124 219.929 16.8309C220.132 16.8633 220.34 16.8078 220.544 16.8401L220.752 16.817C220.992 16.6644 221.247 16.5349 221.492 16.3915C221.751 16.2527 222.005 16.0862 222.195 15.8549C222.408 15.619 222.528 15.3183 222.644 15.0269C222.884 14.4209 222.954 13.7687 222.949 13.1211C222.672 13.32 222.343 13.4866 221.992 13.4727C221.705 13.4449 221.46 13.2507 221.288 13.0333C220.946 13.2738 220.539 13.4681 220.104 13.4357C219.845 13.4727 219.614 13.3478 219.387 13.2507L219.207 13.135L219.054 13.0841C218.754 13.2923 218.393 13.4126 218.027 13.4172L217.458 13.2969C217.232 13.2044 217.051 13.0425 216.866 12.8852L216.741 12.6308C216.76 11.8861 216.746 11.1414 216.755 10.392C216.765 8.78231 216.829 7.17259 216.806 5.56287C216.848 5.30384 216.774 5.0448 216.792 4.78114L216.741 4.80427V4.7025H216.792V4.35558L216.829 4.53136C216.839 4.27695 216.815 4.01791 216.871 3.76813C217.25 2.75974 217.62 1.75136 218 0.74297C219.124 0.770724 220.248 0.770724 221.376 0.784601C221.654 0.798478 221.936 0.766099 222.214 0.798478C222.399 1.33968 222.57 1.8855 222.736 2.43595C222.912 2.9679 223.088 3.49984 223.259 4.03642C223.509 4.05492 223.754 3.99478 224.004 3.99478L224.226 3.92077C225.081 3.48597 225.96 3.09279 226.848 2.73661C227.45 2.53309 228.047 2.32031 228.657 2.13528C229.323 1.95026 229.999 1.79299 230.674 1.64959C231.345 1.54783 232.015 1.43219 232.695 1.39056C233.149 1.33968 233.611 1.38131 234.06 1.26567C235.267 1.24254 236.474 1.3628 237.663 1.56633C238.926 1.82074 240.18 2.13066 241.391 2.56547C242.344 2.87538 243.256 3.28706 244.162 3.70337L244.551 3.73112C244.805 3.73112 245.06 3.72187 245.314 3.7265C245.642 2.89851 245.98 2.0659 246.295 1.23329L246.517 0.715217M246.831 1.48307L246.697 1.93638C246.521 2.61635 246.327 3.28706 246.156 3.96703C247.002 3.96703 247.844 3.95778 248.691 3.9439C249.375 3.95778 250.06 3.90227 250.74 3.93928L250.624 3.5276C250.49 3.08816 250.314 2.66723 250.171 2.23242C250.069 1.97801 250.004 1.70973 249.893 1.45994C248.871 1.46457 247.853 1.45994 246.831 1.4877M218.522 1.60796C218.425 1.9225 218.384 2.25092 218.291 2.57009C218.171 3.06503 218.078 3.56923 217.949 4.05954C218.236 4.07342 218.522 4.08267 218.809 4.07805C219.79 4.0873 220.77 4.10117 221.751 4.11043L222.079 4.08267L222.126 4.11968H222.408C222.218 3.29169 221.996 2.46833 221.793 1.64497C221.501 1.61721 221.21 1.63572 220.918 1.62184C220.118 1.62184 219.318 1.58021 218.518 1.61259M232.746 3.07891L232.279 3.12517C231.793 3.1853 231.303 3.26856 230.817 3.33332V3.3657C230.554 3.37958 230.304 3.48134 230.045 3.5276L229.522 3.66636C228.939 3.80976 228.37 4.01329 227.815 4.23994L227.283 4.45272C226.918 4.58224 226.576 4.75801 226.224 4.92454C225.942 5.08181 225.637 5.20207 225.378 5.40097C225.364 6.15032 225.354 6.89968 225.313 7.64903C225.313 8.01908 225.304 8.3845 225.28 8.74993C225.267 9.77219 225.248 10.7945 225.234 11.8167C225.22 12.1544 225.267 12.5013 225.202 12.8344C225.174 13.3293 225.202 13.8242 225.155 14.3192C225.142 14.5551 225.188 14.791 225.137 15.0223C224.975 15.8503 224.698 16.6644 224.249 17.386C223.661 18.3435 222.787 19.1113 221.802 19.6433C221.279 19.8931 220.747 20.1382 220.178 20.2724C219.711 20.3787 219.249 20.536 218.768 20.4944C217.977 20.4944 217.186 20.4805 216.399 20.4805C215.261 20.499 214.119 20.4666 212.981 20.4805C212.079 20.4713 211.181 20.4435 210.279 20.4481C210.242 20.6702 210.252 20.8968 210.279 21.1188C210.256 21.4981 210.293 21.8774 210.256 22.2568C210.247 23.1958 210.238 24.1301 210.224 25.0691C210.247 25.5918 210.233 26.1191 210.21 26.6465C210.21 27.3357 210.201 28.0203 210.196 28.7095C210.178 29.5699 210.21 30.4349 210.168 31.2952C210.168 31.8595 210.168 32.4239 210.168 32.9882C210.932 32.9974 211.695 32.9882 212.463 33.016C212.722 32.9743 212.981 33.0437 213.245 33.0206C214.9 33.0206 216.552 33.053 218.203 33.0391L218.633 33.3212C219.531 34.1169 220.456 34.8801 221.436 35.5693C222.218 36.1244 223.005 36.6841 223.86 37.1281C224.98 37.7989 226.187 38.3077 227.399 38.7887C227.903 38.9553 228.403 39.1449 228.921 39.2744L229.129 39.3392C229.545 39.4594 229.975 39.552 230.401 39.6352L230.577 39.6815L230.799 39.7092L231.146 39.7786C231.479 39.8295 231.821 39.8526 232.154 39.9128C232.478 39.9313 232.797 39.9775 233.121 40.0053L233.482 39.9868C233.741 40.0284 234.004 39.9868 234.263 40.0053C234.504 40.0191 234.749 39.996 234.985 39.9405C235.744 39.8943 236.498 39.7971 237.242 39.6537L237.483 39.5381L237.677 39.5566C237.987 39.4965 238.297 39.4178 238.602 39.3438C239.981 39.0015 241.304 38.4649 242.603 37.896L243.145 37.6462C244.588 36.9015 246.012 36.1105 247.335 35.1576C248.311 34.51 249.223 33.7746 250.134 33.0483C251.281 33.0668 252.424 32.9882 253.566 32.9928C255.213 32.9419 256.86 32.9142 258.511 32.8772C258.529 32.2481 258.483 31.619 258.511 30.9946C258.502 29.926 258.511 28.8575 258.511 27.7936C258.52 27.4698 258.529 27.1507 258.525 26.8315C258.516 26.2117 258.548 25.6011 258.539 24.9859C258.539 24.3568 258.529 23.7277 258.543 23.0986C258.516 22.4834 258.553 21.8682 258.534 21.2576C258.488 21.031 258.534 20.7997 258.516 20.573C258.215 20.5776 257.91 20.5776 257.604 20.5776C257.16 20.6285 256.707 20.6008 256.258 20.6147C255.157 20.6517 254.056 20.6609 252.956 20.6933C251.929 20.6887 250.906 20.7349 249.879 20.721C249.403 20.6887 248.936 20.5823 248.483 20.4435C247.368 20.0411 246.336 19.412 245.448 18.6303C245.175 18.362 244.87 18.1214 244.643 17.8115C244.301 17.4507 244.037 17.0205 243.825 16.5719C243.667 16.1278 243.487 15.6791 243.487 15.198C243.487 14.8187 243.487 14.4394 243.487 14.0601C243.45 13.4311 243.501 12.802 243.468 12.1729C243.445 10.8268 243.445 9.48078 243.431 8.13472C243.45 7.51951 243.422 6.9043 243.422 6.28909C243.445 5.97918 243.408 5.66464 243.431 5.35009C243.01 5.15582 242.58 4.97079 242.164 4.76726C241.678 4.56374 241.169 4.41572 240.679 4.23994L240.55 4.19369L240.328 4.1058C239.615 3.84676 238.88 3.65711 238.14 3.49059C237.279 3.32869 236.419 3.13442 235.545 3.11129C235.027 3.01878 234.495 3.11129 233.977 3.03728C233.759 3.03265 233.542 3.0234 233.324 3.05116L232.774 3.08354M217.528 5.85429C217.528 6.3076 217.5 6.76091 217.528 7.21422L217.759 7.40387C218.032 7.42237 218.305 7.43162 218.578 7.41312L218.763 7.12171C218.754 6.68227 218.786 6.24284 218.772 5.8034L218.606 5.57675C218.36 5.50274 218.097 5.54437 217.842 5.53049L217.523 5.85429M219.697 5.77102C219.66 5.96993 219.665 6.17345 219.66 6.37698C219.679 6.65452 219.623 6.93206 219.67 7.20959L219.989 7.4455H220.567L220.918 7.20959C220.928 6.77016 220.932 6.33535 220.942 5.89129L220.881 5.66463C220.655 5.51199 220.377 5.55824 220.118 5.54899L219.693 5.7664M221.76 5.84966C221.737 6.27522 221.756 6.70078 221.737 7.12633L222.01 7.45475C222.26 7.45938 222.51 7.51026 222.755 7.464L223.014 7.16796C223.014 6.7424 223.037 6.31685 223.032 5.88666L222.866 5.60913C222.611 5.5675 222.357 5.55825 222.107 5.5675L221.765 5.84503M250.189 5.69701L249.907 5.84966L249.898 6.21508H249.986L249.898 6.23359L249.977 6.68227L249.889 6.59439C249.889 6.85805 249.889 7.12633 249.912 7.38999L250.231 7.58427H250.8L251.156 7.30211C251.17 6.95056 251.133 6.59901 251.142 6.24746L251.115 5.85891L250.805 5.68314C250.601 5.68776 250.393 5.69239 250.189 5.69701ZM245.647 5.97918C245.624 6.24284 245.656 6.5065 245.656 6.76553C245.661 6.99681 245.638 7.23272 245.656 7.464C245.846 7.68603 246.151 7.59815 246.406 7.61202L246.868 7.464C246.91 7.13096 246.891 6.79329 246.896 6.46024C246.882 6.23821 246.924 5.99768 246.817 5.79415C246.568 5.65538 246.281 5.74327 246.012 5.72014L245.642 5.97918M247.798 5.98843C247.775 6.35385 247.807 6.7239 247.798 7.08933L247.849 7.48713L248.168 7.60277C248.39 7.60277 248.612 7.61665 248.834 7.57964L249.075 7.37612C249.056 7.00144 249.042 6.62676 249.065 6.24746L249.01 5.84966L248.695 5.70626C248.487 5.70626 248.284 5.70626 248.075 5.71552L247.798 5.98843ZM217.625 9.75831L217.449 10.1931C217.435 10.7066 217.449 11.22 217.435 11.7335L217.56 12.2793C217.754 12.4643 218.041 12.5059 218.296 12.4874L218.643 12.2284L218.703 11.6872C218.703 11.1599 218.717 10.6326 218.717 10.1052L218.601 9.78607L218.111 9.69355L217.625 9.75369M219.6 10.1515C219.591 10.6927 219.6 11.2385 219.582 11.7797L219.753 12.3302C219.942 12.5198 220.229 12.5106 220.479 12.4967C220.655 12.4227 220.826 12.2793 220.854 12.0804C220.872 11.4374 220.868 10.7945 220.872 10.1515L220.71 9.77682L220.437 9.73056H219.873L219.6 10.1515ZM221.793 9.86008C221.626 10.0867 221.7 10.3735 221.686 10.6326C221.663 11.0442 221.686 11.4513 221.668 11.863L221.876 12.3903C222.135 12.5476 222.487 12.5892 222.746 12.4134L222.954 12.1266C222.954 11.4837 222.977 10.8361 222.968 10.1931L222.857 9.83232L222.283 9.73981L221.797 9.85545M245.675 10.281C245.638 10.8083 245.698 11.3357 245.684 11.8676C245.693 12.0665 245.633 12.2978 245.767 12.4643C245.911 12.6678 246.174 12.7233 246.41 12.7141C246.655 12.6956 246.919 12.5244 246.933 12.2608C246.938 11.5993 246.933 10.9425 246.919 10.2856L246.753 9.95259C246.531 9.87858 246.29 9.92484 246.059 9.91558C245.855 9.90633 245.67 10.0775 245.67 10.2856M248.085 9.91558L247.816 10.3273C247.812 10.7389 247.816 11.146 247.83 11.5577C247.83 11.7797 247.858 12.0017 247.821 12.2238L248.011 12.5568C248.284 12.7788 248.705 12.7511 248.968 12.5337L249.102 12.085C249.088 11.4559 249.116 10.8315 249.075 10.2024L248.968 9.98034L248.7 9.89708C248.496 9.90171 248.288 9.88783 248.089 9.92021M249.912 10.281C249.921 10.924 249.912 11.5716 249.935 12.2099L250 12.3903C250.203 12.7418 250.74 12.7696 251.04 12.5291C251.239 12.3672 251.212 12.0896 251.202 11.863C251.175 11.331 251.212 10.8037 251.179 10.2718L251.027 9.92484C250.8 9.85083 250.555 9.87858 250.324 9.87395C250.101 9.86008 249.903 10.0636 249.916 10.281" fill="white"/>
<path d="M248.607 22.1178C248.839 22.0716 249.075 22.0808 249.311 22.0808L249.838 22.104C250.078 22.1595 250.324 22.1271 250.559 22.2057C251.096 22.3029 251.609 22.5341 252.03 22.8764L252.502 23.3621C252.831 23.7831 253.062 24.2688 253.233 24.7683C252.743 24.9117 252.234 24.9811 251.744 25.1245C251.448 25.1893 251.152 25.2633 250.851 25.3141C250.763 25.0597 250.661 24.8007 250.472 24.6064C249.907 23.9588 248.816 23.9635 248.196 24.5232C248.001 24.7082 247.84 24.9302 247.747 25.18C247.65 25.3974 247.65 25.6379 247.604 25.8692C247.544 26.156 247.571 26.4474 247.557 26.7388C247.534 27.058 247.594 27.3679 247.631 27.6871C247.673 27.9878 247.784 28.2792 247.955 28.5336C248.261 28.9036 248.746 29.1025 249.223 29.0748C249.644 29.1025 250.088 28.9591 250.379 28.6446C250.643 28.3486 250.823 27.9831 250.902 27.5992L250.967 27.3725C251.697 27.5946 252.428 27.8166 253.164 28.0294L253.298 28.1497C253.122 28.8481 252.821 29.5373 252.313 30.0554C252.003 30.3838 251.623 30.666 251.193 30.814C250.735 31.0268 250.226 31.073 249.727 31.1101C249.028 31.1332 248.321 31.1101 247.645 30.9343C247.16 30.814 246.706 30.5781 246.322 30.2589C245.92 29.8889 245.564 29.468 245.319 28.9776C245.069 28.5058 244.967 27.9739 244.884 27.4512C244.768 26.3087 244.861 25.1014 245.402 24.0699C245.67 23.561 246.068 23.1216 246.549 22.8071C247.15 22.3815 247.886 22.215 248.607 22.1317" fill="white"/>
<path d="M234.499 22.5066C235.11 22.3678 235.739 22.2984 236.368 22.3169C236.632 22.3539 236.9 22.3262 237.159 22.3955C237.751 22.4927 238.338 22.7286 238.782 23.1356C239.032 23.3253 239.213 23.5797 239.402 23.8202C239.597 24.1625 239.768 24.5233 239.883 24.898C239.398 25.0321 238.907 25.157 238.426 25.2958C238.135 25.3698 237.857 25.4855 237.557 25.5086C237.404 24.9813 236.983 24.4956 236.423 24.3938C236.192 24.3568 235.933 24.3152 235.72 24.4308C235.498 24.5465 235.244 24.6112 235.05 24.7731C234.855 24.9304 234.707 25.1385 234.592 25.3559C234.485 25.615 234.411 25.8925 234.379 26.1701C234.397 26.5632 234.379 26.961 234.388 27.3542C234.434 27.7474 234.444 28.1637 234.638 28.5199C234.804 28.8945 235.156 29.1628 235.549 29.2692C235.767 29.334 235.998 29.2924 236.215 29.3155C236.622 29.2785 237.039 29.0888 237.274 28.7465C237.529 28.4042 237.649 27.9833 237.728 27.567C238.519 27.7566 239.305 27.9787 240.082 28.2053C239.93 28.9871 239.601 29.7595 239.041 30.3377C238.616 30.7217 238.116 31.0501 237.552 31.1842C236.678 31.4016 235.762 31.4016 234.869 31.2814C234.513 31.1657 234.138 31.0825 233.796 30.9298C233.444 30.7957 233.153 30.5505 232.876 30.3054L232.459 29.8428C232.256 29.5699 232.071 29.2877 231.946 28.9686C231.636 28.2238 231.562 27.4005 231.585 26.6002C231.627 25.6335 231.863 24.6343 232.482 23.8665C232.677 23.5797 232.94 23.353 233.227 23.1634C233.491 22.9645 233.796 22.8165 234.115 22.7193L234.138 22.6407L234.494 22.5066" fill="white"/>
<path d="M216.338 22.3447C217.522 22.3447 218.711 22.3447 219.895 22.3679C220.252 23.7925 220.608 25.2172 220.941 26.6466C221.047 26.9889 221.098 27.3497 221.214 27.6919C221.408 26.8501 221.649 26.0221 221.871 25.1895C222.074 24.3985 222.301 23.6214 222.495 22.8304L222.592 22.391C223.23 22.391 223.873 22.391 224.512 22.4141C225.067 22.4465 225.627 22.428 226.182 22.4326C226.145 22.8998 226.191 23.3716 226.154 23.8388C226.163 24.454 226.145 25.0646 226.131 25.6844C226.117 26.8085 226.117 27.9325 226.084 29.0611C226.084 29.7365 226.061 30.4118 226.08 31.0872C225.331 31.0872 224.586 31.0872 223.832 31.0872C223.855 30.7772 223.855 30.4673 223.836 30.162C223.873 29.8845 223.85 29.6023 223.855 29.3248C223.818 28.9177 223.897 28.5061 223.873 28.099C223.887 27.5254 223.873 26.9565 223.887 26.3875C223.929 25.9481 223.873 25.5087 223.92 25.0738V24.565C223.318 26.7298 222.731 28.8992 222.143 31.064C221.482 31.0455 220.825 31.0594 220.164 31.0455C219.997 30.509 219.891 29.9585 219.738 29.4173C219.359 27.7706 218.906 26.1424 218.545 24.4956C218.498 24.8934 218.535 25.2913 218.508 25.6844C218.498 27.4653 218.466 29.2462 218.448 31.0317C217.707 31.0502 216.963 31.0224 216.223 31.0317C216.241 30.4488 216.241 29.8706 216.241 29.2878C216.278 28.7605 216.241 28.2285 216.274 27.7012C216.274 26.5864 216.292 25.4809 216.287 24.3708C216.32 23.6954 216.315 23.0247 216.32 22.3494" fill="white"/>
</svg>
