<?xml version="1.0" encoding="UTF-8"?>
<svg id="Layer_1" xmlns="http://www.w3.org/2000/svg" version="1.1" viewBox="0 0 307 71">
  <!-- Generator: Adobe Illustrator 29.7.1, SVG Export Plug-In . SVG Version: 2.1.1 Build 8)  -->
  <defs>
    <style>
      .st0 {
        fill: #16498e;
      }
    </style>
  </defs>
  <g>
    <path class="st0" d="M78.83,41.25v7.5h1.58v-5.09l2,4.33h1.09l2-4.33v5.09h1.5v-7.5h-1.92l-2.17,4.59-2.17-4.59h-1.91Z"/>
    <path class="st0" d="M88.66,41.25v7.5h5.75v-1.42h-4.09v-1.67h3.59v-1.42h-3.59v-1.58h4v-1.42h-5.67Z"/>
    <path class="st0" d="M101.17,43.59l1-1.17c-.33-.42-.83-.67-1.33-.92-.5-.16-1.08-.33-1.58-.33-.75,0-1.5.16-2.08.5-.58.33-1.09.83-1.42,1.33-.33.58-.5,1.25-.5,2,0,.66.16,1.33.5,1.91.33.59.83,1,1.42,1.33.58.33,1.25.5,2,.58.58-.08,1.09-.17,1.67-.42.5-.25.92-.59,1.33-1l-1-1c-.25.25-.58.41-.92.58-.33.17-.67.25-1,.25-.42,0-.83-.08-1.17-.33-.33-.16-.58-.42-.83-.75-.16-.42-.25-.75-.25-1.25,0-.42.08-.83.25-1.17.25-.33.5-.58.83-.83.33-.16.75-.25,1.17-.25.33,0,.66.08,1.08.25.33.16.59.42.83.66"/>
    <path class="st0" d="M103.17,41.25v7.5h1.76v-3h3.34v3h1.75v-7.5h-1.75v3.09h-3.34v-3.09h-1.76Z"/>
    <path class="st0" d="M117.18,48.76h1.75l-3.17-7.5h-1.75l-3.25,7.5h1.75l.58-1.5h3.5l.58,1.5h0ZM113.68,45.92l1.17-2.92,1.17,2.92h-2.34Z"/>
    <path class="st0" d="M119.76,41.25v7.5h1.59v-4.83l3.58,4.83h1.59v-7.5h-1.59v4.84l-3.66-4.84h-1.5Z"/>
    <path class="st0" d="M129.85,41.25h-1.67v7.5h1.67v-7.5Z"/>
    <path class="st0" d="M136.94,43.59l1-1.17c-.42-.42-.83-.67-1.42-.92-.5-.16-1-.33-1.59-.33-.75,0-1.42.16-2,.5-.58.33-1.09.83-1.42,1.33-.33.58-.5,1.25-.58,2,.08.66.25,1.33.58,1.91.33.59.75,1,1.33,1.33.58.33,1.33.5,2,.58.59-.08,1.17-.17,1.67-.42.5-.25,1-.59,1.42-1l-1-1c-.25.25-.58.41-.92.58-.33.17-.67.25-1,.25-.5,0-.83-.08-1.17-.33-.42-.16-.66-.42-.83-.75-.16-.42-.33-.75-.33-1.25,0-.42.16-.83.33-1.17.16-.33.42-.58.83-.83.33-.16.67-.25,1.17-.25.33,0,.66.08,1,.25.33.16.67.42.92.66"/>
    <path class="st0" d="M144.36,48.76h1.83l-3.17-7.5h-1.75l-3.25,7.5h1.75l.58-1.5h3.42l.58,1.5h0ZM140.85,45.92l1.25-2.92,1.17,2.92h-2.42Z"/>
    <path class="st0" d="M146.94,41.25v7.5h4.92v-1.5h-3.17v-6h-1.75Z"/>
    <path class="st0" d="M169.79,43.59l.92-1.17c-.33-.42-.83-.67-1.33-.92-.5-.16-1-.33-1.59-.33-.75,0-1.42.16-2.08.5-.59.33-1,.83-1.42,1.33-.33.58-.5,1.25-.5,2,0,.66.16,1.33.5,1.91.33.59.83,1,1.42,1.33.58.33,1.25.5,2,.58.58-.08,1.09-.17,1.67-.42.5-.25,1-.59,1.42-1l-1-1c-.33.25-.58.41-.92.58-.42.17-.75.25-1.08.25-.42,0-.83-.08-1.17-.33-.33-.16-.59-.42-.75-.75-.25-.42-.33-.75-.33-1.25,0-.42.08-.83.33-1.17.16-.33.42-.58.75-.83.33-.16.75-.25,1.17-.25s.75.08,1.08.25c.33.16.58.42.92.66"/>
    <path class="st0" d="M171.78,41.25v7.5h1.67v-3h3.33v3h1.75v-7.5h-1.75v3.09h-3.33v-3.09h-1.67Z"/>
    <path class="st0" d="M180.12,41.25v7.5h5.84v-1.42h-4.08v-1.67h3.58v-1.42h-3.58v-1.58h4v-1.42h-5.75Z"/>
    <path class="st0" d="M187.29,41.25v7.5h1.59v-5.09l1.92,4.33h1.17l1.92-4.33v5.09h1.58v-7.5h-1.92l-2.17,4.59-2.17-4.59h-1.92Z"/>
    <path class="st0" d="M198.8,41.25h-1.67v7.5h1.67v-7.5Z"/>
    <path class="st0" d="M205.89,43.59l.92-1.17c-.33-.42-.75-.67-1.33-.92-.5-.16-1-.33-1.59-.33-.75,0-1.42.16-2,.5-.66.33-1.08.83-1.42,1.33-.42.58-.58,1.25-.58,2,0,.66.16,1.33.5,1.91.42.59.83,1,1.42,1.33.58.33,1.25.5,2,.58.58-.08,1.09-.17,1.67-.42.5-.25,1-.59,1.42-1l-1-1c-.33.25-.58.41-.92.58-.34.17-.75.25-1.08.25-.42,0-.83-.08-1.17-.33-.33-.16-.59-.42-.75-.75-.25-.42-.33-.75-.33-1.25,0-.42.08-.83.33-1.17.17-.33.42-.58.75-.83.33-.16.75-.25,1.17-.25s.75.08,1.08.25c.33.16.67.42.92.66"/>
    <path class="st0" d="M213.3,48.76h1.84l-3.25-7.5h-1.75l-3.25,7.5h1.75l.58-1.5h3.5l.58,1.5h0ZM209.8,45.92l1.17-2.92,1.17,2.92h-2.34Z"/>
    <path class="st0" d="M215.89,41.25v7.5h4.92v-1.5h-3.25v-6h-1.67Z"/>
    <path class="st0" d="M229.9,43.34l.66-1.33c-.34-.25-.75-.5-1.25-.59-.5-.16-1-.25-1.58-.25-.83,0-1.59.16-2.09.58-.5.42-.75.92-.83,1.59.08.58.17,1,.42,1.25.33.33.67.5,1,.66.42.16.83.25,1.17.42.42.08.75.16,1,.33.33.16.42.33.42.58s-.08.42-.25.58c-.25.09-.5.16-.83.16-.42,0-.83-.08-1.33-.33-.5-.17-.92-.42-1.33-.83l-.66,1.42c.42.33.92.66,1.5.83.58.25,1.17.33,1.84.33.5,0,1-.09,1.5-.25.42-.16.75-.42,1-.75.25-.33.42-.75.42-1.25s-.17-.92-.42-1.25c-.25-.25-.58-.5-1-.66-.42-.16-.75-.25-1.17-.42-.42-.08-.75-.16-1-.33-.25-.16-.42-.33-.42-.59s.08-.42.25-.5c.16-.08.42-.16.75-.16.25,0,.67.08,1.09.25.42.08.83.33,1.17.5"/>
    <path class="st0" d="M233.4,45.59v-4.34h-1.75v4.34c.08,1,.34,1.75.92,2.34.66.58,1.5.83,2.5.92,1.09-.08,1.84-.33,2.5-.92.58-.58.83-1.33.83-2.34v-4.34h-1.67v4.34c0,.58-.16,1-.42,1.25-.34.33-.75.5-1.25.5s-.92-.17-1.25-.5c-.25-.25-.42-.66-.42-1.25Z"/>
    <path class="st0" d="M243.16,41.25h-3.17v7.5h1.67v-2.17h1.5c.92,0,1.67-.25,2.17-.75.5-.42.75-1.08.83-2-.08-.83-.33-1.5-.83-1.92-.5-.42-1.25-.67-2.17-.67ZM243.07,45.17h-1.42v-2.5h1.42c.42,0,.83.08,1.08.25.25.25.34.58.34,1s-.09.75-.34.92c-.25.25-.66.33-1.08.33Z"/>
    <path class="st0" d="M250.41,41.25h-3.25v7.5h1.75v-2.17h1.5c.92,0,1.67-.25,2.17-.75.5-.42.75-1.08.75-2,0-.83-.25-1.5-.75-1.92-.5-.42-1.25-.67-2.17-.67ZM250.33,45.17h-1.42v-2.5h1.42c.42,0,.83.08,1.09.25.25.25.33.58.33,1s-.09.75-.33.92c-.25.25-.66.33-1.09.33Z"/>
    <path class="st0" d="M254.41,41.25v7.5h4.91v-1.5h-3.16v-6h-1.75Z"/>
    <path class="st0" d="M262,41.25h-1.67v7.5h1.67v-7.5Z"/>
    <path class="st0" d="M263.67,41.25v7.5h5.83v-1.42h-4.08v-1.67h3.58v-1.42h-3.58v-1.58h4v-1.42h-5.75Z"/>
    <path class="st0" d="M275.75,43.34l.66-1.33c-.42-.25-.83-.5-1.33-.59-.5-.16-1-.25-1.5-.25-.92,0-1.59.16-2.09.58-.58.42-.83.92-.83,1.59,0,.58.17,1,.42,1.25.25.33.58.5,1,.66.42.16.75.25,1.17.42.42.08.75.16,1,.33.25.16.42.33.42.58s-.08.42-.33.58c-.17.09-.42.16-.75.16-.42,0-.92-.08-1.33-.33-.5-.17-.92-.42-1.33-.83l-.67,1.42c.42.33.92.66,1.5.83.58.25,1.17.33,1.75.33s1.09-.09,1.5-.25c.5-.16.83-.42,1.08-.75.25-.33.33-.75.33-1.25s-.08-.92-.33-1.25c-.34-.25-.58-.5-1-.66-.42-.16-.83-.25-1.17-.42-.42-.08-.75-.16-1-.33-.25-.16-.42-.33-.42-.59s.08-.42.25-.5c.16-.08.42-.16.67-.16.33,0,.66.08,1.08.25.42.08.83.33,1.25.5"/>
    <path class="st0" d="M286.26,43.59l1-1.17c-.33-.42-.83-.67-1.33-.92-.5-.16-1.09-.33-1.59-.33-.83,0-1.5.16-2.08.5-.58.33-1.08.83-1.42,1.33-.33.58-.5,1.25-.5,2,0,.66.17,1.33.5,1.91.33.59.83,1,1.42,1.33.59.33,1.25.5,2,.58.58-.08,1.08-.17,1.58-.42.59-.25,1-.59,1.42-1l-1-1c-.25.25-.59.41-.92.58-.33.17-.67.25-1,.25-.42,0-.83-.08-1.17-.33-.34-.16-.58-.42-.83-.75-.17-.42-.25-.75-.25-1.25,0-.42.09-.83.25-1.17.25-.33.5-.58.83-.83.33-.16.75-.25,1.17-.25.33,0,.66.08,1,.25.33.16.66.42.92.66"/>
    <path class="st0" d="M291.6,41.17c-.75,0-1.42.16-2,.5-.67.33-1.09.75-1.42,1.33-.42.58-.58,1.25-.58,2,0,.66.17,1.33.58,1.92.34.58.75,1,1.42,1.33.58.33,1.25.5,2,.58.83-.08,1.5-.25,2.08-.58.58-.33,1.09-.75,1.42-1.33.33-.59.5-1.25.59-1.92-.08-.75-.25-1.42-.59-2-.33-.5-.83-1-1.42-1.33-.58-.33-1.25-.5-2.08-.5ZM291.68,42.67c.42,0,.75.08,1.09.33.34.16.66.41.83.75.17.42.33.75.33,1.25,0,.42-.16.83-.33,1.16-.16.33-.5.67-.83.83-.33.16-.66.33-1.09.33s-.83-.16-1.17-.33c-.33-.16-.67-.5-.83-.83-.25-.33-.33-.75-.33-1.16,0-.5.09-.83.33-1.25.17-.33.5-.58.83-.75.33-.25.66-.33,1.17-.33Z"/>
    <path class="st0" d="M296.93,47.09c-.25,0-.42.08-.58.25-.16.16-.25.33-.25.66,0,.25.09.42.25.59.16.16.33.25.58.25s.42-.08.59-.25c.17-.17.25-.33.25-.59,0-.33-.08-.5-.25-.66-.16-.16-.33-.25-.59-.25Z"/>
    <path class="st0" d="M154.47,46.7c0-.22.03-.43.1-.62.07-.19.16-.38.29-.55.13-.17.29-.33.47-.49.19-.15.41-.31.66-.46-.14-.18-.26-.35-.37-.51-.1-.16-.19-.31-.26-.45s-.12-.28-.15-.41c-.03-.13-.05-.26-.05-.39,0-.27.05-.53.15-.77.1-.24.25-.45.45-.62.21-.18.47-.31.79-.42.32-.1.7-.15,1.15-.15.41,0,.76.04,1.06.12.3.08.54.19.73.33.19.14.33.32.43.53.09.21.14.44.14.71,0,.24-.04.45-.12.65-.08.2-.2.39-.36.57-.16.18-.37.36-.61.52s-.53.33-.85.5c.11.12.22.25.36.39.13.13.26.27.4.4.14.13.28.27.42.4.14.13.28.26.41.37.05-.08.1-.17.13-.27.04-.1.08-.21.11-.32.03-.11.05-.23.07-.34.02-.12.03-.23.03-.34v-.18s.01-.08.03-.11c.02-.03.05-.06.1-.08.05-.02.12-.04.21-.05.09-.01.21-.02.36-.02s.25,0,.34.01c.09,0,.16.02.21.04.05.02.09.05.11.08.02.03.03.08.03.12v.19c0,.19-.02.38-.04.57-.03.19-.07.38-.12.56-.05.18-.12.36-.2.52-.08.16-.16.32-.26.47.13.11.25.19.36.26.1.07.19.12.25.16.07.04.13.07.17.09.05.02.09.03.12.03h.12s.07.02.09.04c.02.03.04.08.05.15.01.07.02.17.02.31,0,.14,0,.26-.01.34,0,.08-.02.14-.03.18-.02.04-.04.07-.07.1-.03.03-.09.05-.16.07-.08.02-.17.03-.28.03-.09,0-.18-.01-.27-.03-.09-.02-.2-.06-.32-.12-.12-.06-.26-.14-.42-.24-.16-.1-.34-.23-.56-.39-.18.12-.37.24-.57.33-.2.1-.4.18-.61.25-.21.07-.43.12-.66.15-.23.04-.47.05-.73.05s-.5-.02-.74-.06c-.24-.04-.47-.1-.68-.18-.21-.08-.41-.18-.58-.3-.17-.12-.32-.26-.45-.43-.12-.16-.22-.36-.29-.57-.07-.21-.11-.45-.11-.71M156.06,46.62c0,.17.03.32.09.46.06.14.15.26.27.37.12.1.26.18.44.24.18.06.37.09.6.09.12,0,.23-.01.35-.03.11-.02.23-.05.34-.09.11-.04.22-.08.31-.13.1-.05.19-.11.28-.17-.17-.14-.35-.29-.53-.45-.18-.16-.35-.32-.52-.48-.17-.16-.33-.32-.48-.48-.15-.16-.29-.31-.41-.45-.13.09-.25.17-.34.27-.09.09-.16.19-.23.28-.06.09-.1.19-.13.29-.03.1-.04.2-.04.3M156.71,42.75c0,.08.02.16.04.25.03.09.07.18.11.28.05.1.11.2.19.3.07.11.16.22.25.35.23-.12.42-.24.58-.34.15-.1.28-.21.37-.31.09-.1.16-.2.2-.3.04-.1.06-.2.06-.31,0-.09-.02-.18-.05-.26-.04-.08-.09-.15-.16-.21-.07-.06-.16-.11-.27-.14-.11-.04-.24-.05-.39-.05-.16,0-.3.02-.42.06-.11.04-.21.09-.28.16-.07.07-.13.15-.16.24-.04.09-.05.19-.05.29"/>
    <path class="st0" d="M86.4,25.63v3.97l-.17.17h-6.09l-.44-.17c-.17-.18-.26-.36-.26-.62v-2.47h-.97l-.97.79v1.68c0,.71.27,1.32.89,1.85.44.36.88.53,1.5.53h6.88c.53,0,.89-.17,1.15-.53.26-.26.44-.62.44-1.06v-4.15h-1.94ZM83.31,25.55c-.18.17-.26.44-.26.71s.09.53.26.71c.18.18.44.26.71.26s.53-.09.71-.26c.17-.17.27-.44.27-.71s-.09-.53-.27-.71c-.18-.17-.44-.27-.71-.27s-.53.09-.71.27ZM81.11,25.55c-.18.17-.26.44-.26.71s.09.53.26.71c.18.18.44.26.71.26s.44-.09.62-.26c.26-.17.35-.44.35-.71s-.09-.53-.35-.71c-.18-.17-.36-.27-.62-.27s-.53.09-.71.27Z"/>
    <path class="st0" d="M90.11,22.37v7.41c0,.44.09.8.44,1.15.36.26.71.44,1.06.44h1.06v-1.59h-.53l-.09-.09-.09-.09v-7.24h-1.86Z"/>
    <path class="st0" d="M95.14,32.16c-.18.17-.27.44-.27.71s.09.53.27.71c.17.18.35.26.71.26.27,0,.44-.09.62-.26.27-.17.36-.44.36-.71s-.09-.53-.36-.71c-.18-.18-.35-.27-.62-.27-.36,0-.53.09-.71.27ZM92.84,32.16c-.17.17-.26.44-.26.71s.09.53.26.71c.18.18.44.26.71.26s.53-.09.71-.26c.17-.17.27-.44.27-.71s-.09-.53-.27-.71c-.18-.18-.44-.27-.71-.27s-.53.09-.71.27ZM94.79,25.46v4.24h-2.21v1.59h2.56c.53,0,.88-.18,1.24-.53.26-.36.36-.71.36-1.06v-4.24h-1.94Z"/>
    <path class="st0" d="M101.94,29.69l-.53.09c-.36,0-.62-.17-.89-.44-.18-.27-.26-.62-.26-1.06s.09-.8.26-.97c.17-.26.44-.35.71-.35s.35.09.53.18l.17.52v2.03h0ZM101.49,32.08c-.36.36-.88.53-1.59.53l-.53-.09h-.18v.71l.8.97h.35c.97,0,1.77-.26,2.38-.79.79-.62,1.15-1.5,1.15-2.65v-3.09c0-.79-.26-1.41-.88-1.76-.44-.36-1.06-.53-1.77-.53-.89,0-1.59.26-2.12.88-.53.53-.79,1.24-.79,2.03s.27,1.41.71,2.03c.53.71,1.24,1.06,2.12,1.06.27,0,.53,0,.79-.09-.09.35-.27.62-.44.79"/>
    <path class="st0" d="M105.47,22.37v7.41c0,.44.18.8.53,1.15.26.26.62.44,1.06.44h.97v-1.59h-.44l-.17-.09v-7.32h-1.95Z"/>
    <path class="st0" d="M113.5,29.78c-.26.27-.53.36-.79.36-.62,0-.88-.53-.88-1.68,0-.44.09-.79.26-1.06.17-.26.36-.36.71-.36.27,0,.44.09.53.26.17.09.17.27.17.53v1.94h0ZM107.94,29.78v1.59h2.38l.35-.44c.53.53,1.06.79,1.77.79s1.24-.26,1.68-.71c.26.27.62.36.97.36h.79v-1.59h-.17l-.17-.09-.09-.09v-1.77c0-.79-.26-1.32-.79-1.76-.44-.44-1.06-.62-1.94-.62-.71,0-1.33.17-1.85.62-.62.62-.97,1.32-.97,2.29,0,.53,0,1.06.09,1.41h-2.04Z"/>
    <path class="st0" d="M118.26,32.16c-.17.18-.26.44-.26.71s.09.53.26.71c.26.17.44.26.71.26s.53-.09.71-.26c.18-.17.26-.44.26-.71s-.09-.53-.26-.71-.44-.27-.71-.27-.44.09-.71.27ZM116.06,32.16c-.18.18-.26.44-.26.71s.09.53.26.71c.17.17.44.26.71.26s.53-.09.71-.26c.18-.17.26-.44.26-.71s-.09-.53-.26-.71-.44-.27-.71-.27-.53.09-.71.27ZM118.09,25.46v3.97l-.09.18-.17.09h-2.03v1.59h2.65c.53,0,.88-.18,1.24-.53l.53.53h.44v-1.59h-.62l-.09-.09v-4.15h-1.86Z"/>
    <path class="st0" d="M122.06,25.01v1.5l.09.17c1.06,0,1.94.44,2.65,1.24.53.62.79,1.15.79,1.68l-.17.17h-4.85v1.59h5.38c.53,0,.88-.18,1.24-.53l.53.53h.26v-1.59h-.44v-.26c-.09-.89-.44-1.77-.97-2.47-.44-.71-1.15-1.24-1.94-1.59l2.12-1.41v-1.77l-4.68,2.74h.01Z"/>
    <path class="st0" d="M130.09,22.37v7.41h-2.21v1.59h2.56c.53,0,.97-.17,1.24-.53.27-.36.36-.71.36-1.06v-7.41h-1.94Z"/>
    <path class="st0" d="M133.79,22.37v9.26h.97l.97-.8v-8.47h-1.95Z"/>
    <path class="st0" d="M140.94,29.69c-.27.09-.44.09-.62.09-.36,0-.62-.17-.79-.44-.26-.27-.36-.62-.36-1.06s.09-.8.27-.97c.18-.26.44-.35.79-.35l.44.18.27.52v2.03h0ZM140.41,32.08c-.36.36-.79.53-1.59.53l-.53-.09h-.18v.71l.79.97h.36c.97,0,1.77-.26,2.47-.79.71-.62,1.15-1.5,1.15-2.65v-3.09c0-.79-.36-1.41-.97-1.76-.44-.36-1.06-.53-1.68-.53-.88,0-1.68.26-2.2.88-.53.53-.79,1.24-.79,2.03s.26,1.41.71,2.03c.62.71,1.33,1.06,2.12,1.06.27,0,.53,0,.8-.09-.09.35-.26.62-.44.79"/>
    <path class="st0" d="M150.21,29.78h-.53c-.35,0-.62-.18-.88-.44-.18-.27-.36-.53-.36-.97s.09-.79.36-1.06c.18-.26.44-.36.88-.36l.53.09v2.73h0ZM151.18,25.1l-.53.44c-.36-.18-.79-.27-1.24-.27-.79,0-1.41.27-1.94.8-.62.62-.88,1.41-.88,2.29,0,.79.17,1.41.53,1.94.53.71,1.15,1.06,2.03,1.06.62,0,1.06-.17,1.5-.53.36.36.71.53,1.15.53h.97v-1.59h-.44l-.09-.09-.09-.09v-4.5h-.97ZM150.47,22.99c-.17.18-.26.44-.26.71s.09.53.26.71c.18.17.44.27.71.27s.53-.09.71-.27c.18-.18.27-.44.27-.71s-.09-.53-.27-.71c-.18-.17-.44-.26-.71-.26s-.53.09-.71.26ZM148.27,22.99c-.26.18-.36.44-.36.71s.09.53.36.71c.17.17.36.27.62.27.36,0,.53-.09.71-.27.26-.18.36-.44.36-.71s-.09-.53-.36-.71c-.18-.17-.35-.26-.71-.26-.26,0-.44.09-.62.26Z"/>
    <path class="st0" d="M155.24,32.16c-.17.18-.26.44-.26.71s.09.53.26.71c.18.17.36.26.71.26.26,0,.44-.09.62-.26.26-.17.36-.44.36-.71s-.09-.53-.36-.71c-.17-.17-.36-.27-.62-.27-.36,0-.53.09-.71.27ZM152.94,32.16c-.17.18-.26.44-.26.71s.09.53.26.71c.18.17.44.26.71.26s.53-.09.71-.26c.18-.17.26-.44.26-.71s-.09-.53-.26-.71c-.17-.17-.44-.27-.71-.27s-.53.09-.71.27ZM154.97,25.46v3.97l-.09.18-.18.09h-2.03v1.59h2.65c.53,0,.88-.18,1.24-.53l.62.53h.36v-1.59h-.62v-4.24h-1.95Z"/>
    <path class="st0" d="M158.95,25.01v1.5l.17.17c.97,0,1.85.44,2.65,1.24.44.62.71,1.15.71,1.68l-.17.17h-4.85v1.59h5.47c.44,0,.88-.18,1.15-.53h.09l.44.53h.27v-1.59h-.44v-.26c-.09-.89-.35-1.77-.88-2.47-.53-.71-1.15-1.24-2.03-1.59l2.21-1.41v-1.77l-4.77,2.74h0Z"/>
    <path class="st0" d="M167.33,32.16c-.26.18-.35.44-.35.71s.09.53.35.71c.17.17.36.26.62.26s.53-.09.71-.26c.17-.17.27-.44.27-.71s-.09-.53-.27-.71c-.18-.17-.44-.27-.71-.27s-.44.09-.62.27ZM165.03,32.16c-.18.18-.26.44-.26.71s.09.53.26.71c.17.17.44.26.71.26s.53-.09.71-.26c.17-.17.26-.44.26-.71s-.09-.53-.26-.71c-.18-.17-.44-.27-.71-.27s-.53.09-.71.27ZM167.07,25.46v3.97l-.09.18-.17.09h-2.03v1.59h2.65c.53,0,.88-.18,1.24-.53l.53.53h.44v-1.59h-.62l-.09-.09v-4.15h-1.86Z"/>
    <path class="st0" d="M171.74,25.63v4.15h-2.21v1.59h2.56c.53,0,.89-.17,1.24-.53.26-.35.35-.62.35-1.06v-4.15h-1.94ZM172.01,23.16c-.18.18-.26.44-.26.71s.09.53.26.71c.18.17.44.27.71.27s.53-.09.71-.27c.17-.18.26-.44.26-.71s-.09-.53-.26-.71c-.18-.17-.44-.26-.71-.26s-.53.09-.71.26Z"/>
    <path class="st0" d="M175.45,22.37v7.41c0,.44.18.8.44,1.15.35.26.71.44,1.06.44h1.06v-1.59h-.44l-.18-.09v-7.32h-1.95Z"/>
    <path class="st0" d="M179.42,25.01v1.5l.09.17c1.06,0,1.94.44,2.65,1.24.53.62.79,1.15.79,1.68l-.18.17h-4.85v1.59h5.47c.44,0,.88-.18,1.15-.53h.09l.44.53h.26v-1.59h-.44v-.26c-.09-.89-.35-1.77-.97-2.47-.44-.71-1.15-1.24-1.94-1.59l2.2-1.41v-1.77l-4.77,2.74h.01Z"/>
    <path class="st0" d="M187.72,32.16c-.17.18-.26.44-.26.71s.09.53.26.71c.27.17.44.26.71.26s.53-.09.71-.26c.17-.17.27-.44.27-.71s-.09-.53-.27-.71c-.18-.17-.44-.27-.71-.27s-.44.09-.71.27ZM185.51,32.16c-.17.18-.26.44-.26.71s.09.53.26.71c.18.17.44.26.71.26s.53-.09.71-.26c.17-.17.26-.44.26-.71s-.09-.53-.26-.71c-.18-.17-.44-.27-.71-.27s-.53.09-.71.27ZM187.54,25.46v3.97l-.09.18-.17.09h-2.03v1.59h2.65c.44,0,.89-.18,1.24-.53l.53.53h.44v-1.59h-.62l-.09-.09v-4.15h-1.86Z"/>
    <path class="st0" d="M195.57,29.78c-.26.27-.62.36-.89.36-.62,0-.88-.53-.88-1.68,0-.44.09-.79.26-1.06.18-.26.44-.36.71-.36s.44.09.62.26c.09.09.17.27.17.53v1.94h0ZM190.01,29.78v1.59h2.3l.35-.44h.09c.44.53,1.06.79,1.68.79.71,0,1.24-.26,1.68-.71.26.27.62.36,1.06.36h.7v-1.59h-.18l-.17-.09v-1.86c0-.79-.26-1.32-.79-1.76-.53-.44-1.15-.62-1.94-.62s-1.42.17-1.94.62c-.62.62-.97,1.32-.97,2.29,0,.53.09,1.06.17,1.41h-2.04Z"/>
    <path class="st0" d="M200.07,22.37v7.24l-.09.17h-2.21v1.59h2.65c.53,0,.88-.17,1.24-.53.18-.36.36-.71.36-1.06v-7.41h-1.94Z"/>
    <path class="st0" d="M203.78,22.37v9.26h.89l.97-.8v-8.47h-1.86Z"/>
    <path class="st0" d="M218.61,25.63v3.97l-.18.17h-6l-.53-.17c-.18-.18-.26-.36-.26-.62v-2.47h-.97l-.97.79v1.68c0,.71.27,1.32.89,1.85.44.36.97.53,1.5.53h6.88c.53,0,.89-.17,1.24-.53.27-.26.36-.62.36-1.06v-4.15h-1.95ZM215.61,25.55c-.26.17-.35.44-.35.71s.09.53.35.71c.17.18.35.26.62.26s.53-.09.71-.26c.17-.17.27-.44.27-.71s-.09-.53-.27-.71c-.18-.17-.44-.27-.71-.27s-.44.09-.62.27ZM213.31,25.55c-.17.17-.26.44-.26.71s.09.53.26.71c.18.18.44.26.71.26s.53-.09.71-.26c.18-.17.26-.44.26-.71s-.09-.53-.26-.71-.44-.27-.71-.27-.53.09-.71.27Z"/>
    <path class="st0" d="M222.31,22.37v9.26h.97l.97-.8v-8.47h-1.94Z"/>
    <path class="st0" d="M226.9,27.14c.09-.09.26-.09.53-.09.53,0,.97.17,1.24.53.35.26.53.71.53,1.24v.79l-.17.17h-3.44v1.59h3.97c.35,0,.71-.09.97-.36l.26-.17.44.53h.18v-1.59h-.26c-.09-.09-.09-.26-.09-.53v-.62c0-.88-.26-1.59-.79-2.2-.62-.62-1.5-.97-2.47-.97-.44,0-.71,0-.88.09v1.59h-.01Z"/>
    <path class="st0" d="M233.87,32.16c-.18.17-.26.44-.26.71s.09.53.26.71c.17.18.44.26.71.26s.53-.09.71-.26c.18-.17.26-.44.26-.71s-.09-.53-.26-.71c-.18-.18-.44-.27-.71-.27s-.53.09-.71.27ZM231.66,32.16c-.18.17-.26.44-.26.71s.09.53.26.71c.18.18.44.26.71.26s.44-.09.62-.26c.26-.17.35-.44.35-.71s-.09-.53-.35-.71c-.18-.18-.35-.27-.62-.27s-.53.09-.71.27ZM233.61,25.46v4.06l-.09.17h-2.21v1.59h2.65c.44,0,.88-.18,1.15-.53.26-.36.44-.71.44-1.06v-4.24h-1.94Z"/>
    <path class="st0" d="M238.99,25.63v5.03c0,.8-.17,1.32-.44,1.59-.35.36-.88.53-1.59.53l-.53-.09h-.18v.71l.79.97h.36c.36,0,.62,0,.97-.09.53-.17,1.06-.44,1.5-.79.71-.53,1.06-1.42,1.06-2.56v-5.3h-1.94Z"/>
    <path class="st0" d="M246.14,29.78h-.35c-.88,0-1.32-.44-1.32-1.41,0-.44.09-.71.26-.97.18-.26.44-.36.71-.36l.44.17c.18.09.26.36.26.62v1.94h0ZM246.14,31.37c-.26.97-.97,1.41-2.12,1.41-.35,0-.71-.09-1.06-.09v.62l.79,1.06h.62c.44,0,.79-.09,1.24-.17.53-.09.97-.36,1.41-.71.62-.53.97-1.24,1.06-2.12h.44v-1.59h-.44v-1.94c0-.88-.27-1.5-.97-1.94-.44-.27-.97-.44-1.59-.44-.97,0-1.68.27-2.2.89-.53.53-.79,1.24-.79,2.2,0,.71.26,1.33.71,1.86.53.62,1.24.97,2.11.97h.8Z"/>
    <path class="st0" d="M250.73,25.63v3.88l-.09.18-.18.09h-2.03v1.59h2.65c.44,0,.88-.18,1.24-.53l.53.53h.44v-1.59h-.62l-.09-.09v-4.06h-1.85ZM251.17,23.16c-.18.18-.35.44-.35.71s.18.53.35.71c.18.17.36.27.71.27.27,0,.44-.09.62-.27.26-.18.35-.44.35-.71s-.09-.53-.35-.71c-.18-.17-.35-.26-.62-.26-.36,0-.53.09-.71.26ZM248.87,23.16c-.18.18-.26.44-.26.71s.09.53.26.71c.18.17.44.27.71.27s.53-.09.7-.27c.18-.18.26-.44.26-.71s-.09-.53-.26-.71c-.17-.17-.44-.26-.7-.26s-.53.09-.71.26Z"/>
    <path class="st0" d="M255.41,22.37v7.41h-2.2v1.59h2.56c.53,0,.97-.17,1.24-.53.27-.36.35-.71.35-1.06v-7.41h-1.95Z"/>
    <path class="st0" d="M259.11,22.37v9.26h.97l.97-.8v-8.47h-1.94Z"/>
    <path class="st0" d="M268.55,29.78h-.53c-.35,0-.62-.18-.88-.44-.26-.27-.36-.53-.36-.97s.09-.79.36-1.06c.18-.26.44-.36.79-.36l.62.09v2.73h0ZM269.53,25.1l-.53.44c-.44-.18-.79-.27-1.24-.27-.79,0-1.5.27-1.94.8-.62.62-.89,1.41-.89,2.29,0,.79.18,1.41.53,1.94.44.71,1.15,1.06,1.94,1.06h.09c.53,0,1.06-.17,1.5-.53.36.36.71.53,1.15.53h.97v-1.59h-.44l-.18-.09v-4.59h-.97,0ZM268.82,22.99c-.18.18-.26.44-.26.71s.09.53.26.71c.18.17.44.27.71.27s.44-.09.71-.27c.18-.18.27-.44.27-.71s-.09-.53-.27-.71c-.26-.17-.44-.26-.71-.26s-.53.09-.71.26ZM266.52,22.99c-.18.18-.27.44-.27.71s.09.53.27.71c.26.17.44.27.71.27s.53-.09.71-.27c.18-.18.26-.44.26-.71s-.09-.53-.26-.71c-.18-.17-.44-.26-.71-.26s-.44.09-.71.26Z"/>
    <path class="st0" d="M272.53,24.93v1.59l.18.17c.88,0,1.68.44,2.47,1.06.62.53.88,1.15.88,1.85l-.18.17h-4.85v1.59h5.47c.44,0,.79-.17,1.15-.44.27-.35.44-.79.44-1.24,0-.79-.27-1.59-.8-2.38-.53-.88-1.32-1.5-2.2-1.94l2.2-1.32v-1.85l-4.77,2.73h0Z"/>
    <path class="st0" d="M280.82,25.46v5.12c0,.71-.18,1.24-.53,1.59-.35.36-.88.53-1.59.53l-.53-.09h-.18v.71l.79.97h.44c.89,0,1.59-.26,2.21-.71.79-.53,1.15-1.32,1.32-2.3h.62v-1.59h-.62v-4.24h-1.95Z"/>
    <path class="st0" d="M295.91,25.63v3.97l-.18.18h-2.56v-3.44h-1.94v3.27l-.18.18h-2.47v-2.73h-1.94v2.56l-.18.18h-3.18v1.59h3.79c.44,0,.88-.18,1.15-.62h.09l.53.62h2.82c.44,0,.88-.18,1.24-.62l.53.62h2.83c.44,0,.79-.18,1.06-.44.35-.36.44-.71.44-1.15v-4.15h-1.86ZM292.65,23.16c-.18.17-.26.44-.26.71s.09.53.26.71c.27.18.44.26.71.26s.53-.09.71-.26c.18-.17.27-.44.27-.71s-.09-.53-.27-.71c-.18-.17-.44-.26-.71-.26s-.44.09-.71.26ZM290.44,23.16c-.18.17-.27.44-.27.71s.09.53.27.71c.18.18.44.26.71.26s.53-.09.71-.26c.18-.17.26-.44.26-.71s-.09-.53-.26-.71-.44-.26-.71-.26-.53.09-.71.26ZM291.68,21.31c-.18.17-.27.36-.27.62s.09.44.27.62c.09.17.35.26.62.26l.62-.26c.18-.18.26-.36.26-.62s-.09-.44-.26-.62l-.62-.27c-.26,0-.53.09-.62.27Z"/>
  </g>
  <g>
    <path class="st0" d="M52.87,9.07c.87-.02,1.73,0,2.6-.02.43,0,.86-.02,1.3,0,.61,1.18,1.17,2.39,1.78,3.58l.07.21c.02,1.72.05,3.45.04,5.18.02.78.02,1.56.02,2.34.04.78,0,1.56.02,2.34-.37.32-.83.58-1.33.56-.44.02-.87-.16-1.23-.41-.27.17-.54.37-.87.44-.38.06-.79.06-1.14-.12l-.42-.21c-.21.09-.39.24-.61.3-.41.09-.88.08-1.21-.21,0,.85.21,1.73.72,2.41l.33.45c.27.25.51.54.82.74l.54.4c.71,0,1.43,0,2.14-.01.61-.01,1.24.03,1.85-.02.7.02,1.4-.05,2.1,0,.83-.01,1.66-.05,2.49-.02.53-.03,1.06-.02,1.59-.02.01-1.03-.05-2.06-.05-3.09-.03-.34.03-.69-.01-1.03l-.14-.07.14-.02c-.01-1.19-.07-2.38-.06-3.58-.05-.41-.03-.82-.03-1.23-.02-.63-.03-1.26-.03-1.89.41,0,.81.03,1.21-.02.31-.01.62,0,.94,0l.09.04c.54-.07,1.08-.03,1.61-.04.31.01.63-.02.94.01.04.62.01,1.25.02,1.87.03.55,0,1.11.01,1.66.04.59.03,1.18.03,1.77.01.47.04.95.01,1.42-.03.75.05,1.5.02,2.24-.02.53.07,1.07.01,1.61-.03.64.04,1.27.02,1.9.02.37-.03.75,0,1.12.03.33,0,.66.04.98l-.02.43c0,.65.05,1.3.02,1.96-.02.6.01,1.2.01,1.81.03.61-.02,1.22.03,1.83-.04.64-.02,1.28-.03,1.92-.02,1.3,0,2.6,0,3.91,0,1.29,0,2.57,0,3.86,0,1.09-.02,2.18.02,3.27-.04.93.02,1.85-.02,2.78.02.79.01,1.56.01,2.35v.59c-.03.33.01.68-.02,1.02.02.77,0,1.53.01,2.3-.01.44.02.88,0,1.31-.01.3.03.61-.03.92-.5.06-1.02,0-1.52.03-.48.03-.96,0-1.44,0-.57.02-1.14,0-1.71.02l-.05-.02c-.02-.95.04-1.89.01-2.84.05-.66,0-1.33.02-2,.01-.31.04-.62.01-.93-.02-.68.02-1.36,0-2.05-.03-.69.03-1.37,0-2.05.01-.51.02-1.02.02-1.52-.33-.01-.66,0-.99.03-2.67,0-5.34.04-8,.06l-.26.06c-1.47,1.06-2.98,2.05-4.59,2.89-.52.28-1.05.53-1.59.78-.32.12-.62.29-.95.39-.82.33-1.66.64-2.52.89-.32.1-.65.16-.97.26-.33.07-.65.15-.97.24-.49.08-.99.18-1.48.24l-.54.08-.03.09-.04-.1h-.11c-.25.1-.54.03-.78.13-.41.02-.82,0-1.23,0l-.44.04c-.27-.07-.55-.03-.83-.05l-.29-.03c-.26,0-.52-.03-.79-.03-.43-.08-.88-.09-1.31-.17-.65-.08-1.29-.21-1.92-.36-1.38-.29-2.72-.74-4.03-1.24-1.38-.53-2.72-1.17-4.02-1.88-1.21-.7-2.41-1.41-3.55-2.22-1.24,0-2.48,0-3.72-.01-1.44.03-2.87-.02-4.31,0-.01.52,0,1.04-.02,1.56h.05l-.04.64c0,.43-.03.85,0,1.28-.03.67.02,1.34-.02,2.01.04.46,0,.93,0,1.4.03.5,0,1.01.01,1.52.04.95.04,1.91.04,2.87-1.31,0-2.62,0-3.93.01-.39.01-.78-.03-1.17-.03,0-1.35.01-2.72-.02-4.07,0-1.6.02-3.2.03-4.79.02-.78.05-1.56.03-2.34.03-.44,0-.88.02-1.32,0-1.2.03-2.41.02-3.61,0-.5.01-1.01,0-1.51,0-.29.05-.58,0-.86v-.19s.07.03.07.03l-.1-.12h.1l-.08-.4h.05c-.02-.73.03-1.48.03-2.22.03-.35-.03-.71.01-1.06.04-1.41.02-2.82.06-4.23.05-.82,0-1.66.04-2.48,0-.57.01-1.13.03-1.7-.01-1.24.05-2.48.05-3.72,0-.88.04-1.75.04-2.63.03-2.54.05-5.08.1-7.61.3,0,.6-.03.9,0,1.35.02,2.7.03,4.06.05l.09.13c0,.59-.01,1.17-.03,1.75.02.33-.06.66-.04.99-.01,1.46-.04,2.93-.06,4.39-.02.58-.04,1.17-.04,1.76,0,.6-.04,1.19,0,1.79.22.06.44.03.66.03.96.02,1.91.02,2.87.03h.34c.26-.03.52.05.78.03,1.33,0,2.67.01,4,.03.23.04.46-.03.68.01l.23-.03c.27-.17.55-.31.82-.47.29-.15.57-.34.78-.6.24-.26.37-.6.5-.92.27-.67.34-1.4.34-2.12-.31.22-.67.41-1.07.39-.32-.03-.59-.25-.78-.49-.38.27-.83.48-1.32.45-.29.04-.55-.1-.8-.21l-.2-.13-.17-.06c-.33.23-.74.37-1.14.37l-.63-.13c-.25-.1-.45-.28-.66-.46l-.14-.28c.02-.83,0-1.66.01-2.49.01-1.79.08-3.58.06-5.37.05-.29-.04-.58-.01-.87l-.06.03v-.11h.06v-.39l.04.2c.01-.28-.02-.57.05-.85.42-1.12.83-2.24,1.26-3.37,1.25.03,2.5.03,3.76.05.31.02.62-.02.93.02.21.6.4,1.21.58,1.82.2.59.39,1.18.58,1.78.28.02.55-.05.83-.05l.25-.08c.95-.48,1.93-.92,2.92-1.32.67-.23,1.33-.46,2.01-.67.74-.21,1.49-.38,2.24-.54.75-.11,1.49-.24,2.25-.29.51-.06,1.02-.01,1.52-.14,1.34-.03,2.69.11,4.01.33,1.4.28,2.8.63,4.15,1.11,1.06.34,2.07.8,3.08,1.27l.43.03c.28,0,.57-.01.85,0,.37-.92.74-1.85,1.09-2.77l.25-.58M53.2,9.93l-.15.5c-.2.76-.41,1.5-.6,2.26.94,0,1.88-.01,2.82-.03.76.02,1.52-.05,2.28,0l-.13-.46c-.15-.49-.35-.96-.5-1.44-.11-.28-.19-.58-.31-.86-1.14,0-2.27,0-3.41.03M21.7,10.07c-.11.35-.15.72-.26,1.07-.13.55-.24,1.11-.38,1.66.32.02.64.03.96.02,1.09.01,2.18.03,3.27.04l.37-.03.05.04h.31c-.21-.92-.46-1.84-.68-2.75-.32-.03-.65-.01-.97-.03-.89,0-1.78-.05-2.67-.01M37.52,11.71l-.52.05c-.54.07-1.09.16-1.63.23v.04c-.29.02-.57.13-.86.18l-.58.15c-.65.16-1.28.39-1.9.64l-.59.24c-.41.14-.79.34-1.18.52-.31.18-.65.31-.94.53-.02.83-.03,1.67-.07,2.5,0,.41,0,.82-.04,1.22-.02,1.14-.04,2.28-.05,3.41-.02.38.04.76-.04,1.13-.03.55,0,1.1-.05,1.65-.02.26.04.52-.02.78-.18.92-.49,1.83-.99,2.63-.65,1.07-1.63,1.92-2.72,2.51-.58.28-1.17.55-1.81.7-.52.12-1.03.29-1.57.25-.88,0-1.76-.02-2.64-.02-1.27.02-2.54-.02-3.8,0-1-.01-2-.04-3.01-.04-.04.25-.03.5,0,.75-.02.42.02.84-.02,1.27-.01,1.04-.02,2.08-.04,3.13.02.58,0,1.17-.02,1.76,0,.77,0,1.53-.01,2.3-.02.96.01,1.92-.03,2.88v1.88c.85.01,1.7,0,2.55.03.29-.05.58.03.87,0,1.84,0,3.68.04,5.52.02l.48.31c1,.89,2.03,1.73,3.12,2.5.87.62,1.74,1.24,2.7,1.73,1.25.75,2.59,1.31,3.94,1.85.56.19,1.12.4,1.69.54l.23.07c.46.13.94.24,1.42.33l.2.05.25.03.39.08c.37.06.75.08,1.12.15.36.02.71.07,1.08.1l.4-.02c.29.05.58,0,.87.02.27.02.54-.01.8-.07.84-.05,1.68-.16,2.51-.32l.27-.13.22.02c.34-.07.69-.15,1.03-.24,1.53-.38,3.01-.98,4.45-1.61l.6-.28c1.61-.83,3.19-1.71,4.66-2.77,1.09-.72,2.1-1.54,3.11-2.35,1.28.02,2.55-.07,3.82-.06,1.83-.06,3.66-.09,5.5-.13.02-.7-.03-1.4,0-2.09-.01-1.19,0-2.38,0-3.56.01-.36.02-.72.01-1.07,0-.69.03-1.37.02-2.05,0-.7-.01-1.4,0-2.1-.03-.68,0-1.37-.01-2.05-.05-.25,0-.51-.02-.76-.34,0-.67,0-1.01,0-.49.06-1,.03-1.5.04-1.23.04-2.45.05-3.68.09-1.14,0-2.28.05-3.42.03-.53-.04-1.05-.15-1.55-.31-1.24-.45-2.39-1.15-3.38-2.02-.3-.3-.64-.57-.9-.91-.38-.4-.67-.88-.91-1.38-.17-.49-.38-.99-.38-1.53v-1.27c-.04-.7.02-1.4-.02-2.1-.03-1.5-.03-3-.04-4.49.02-.68-.01-1.37-.01-2.05.03-.34-.01-.69.01-1.04-.47-.22-.95-.42-1.41-.65-.54-.23-1.11-.39-1.65-.59l-.14-.05-.25-.1c-.79-.29-1.61-.5-2.43-.68-.96-.18-1.91-.4-2.89-.42-.58-.1-1.17,0-1.74-.08-.24,0-.48-.02-.73.02l-.61.04M20.59,14.8c0,.5-.03,1.01,0,1.51l.26.21c.3.02.61.03.91.01l.21-.32c0-.49.03-.98,0-1.47l-.18-.25c-.27-.08-.57-.04-.85-.05l-.35.36M23,14.71c-.04.22-.04.45-.04.67.02.31-.04.62,0,.93l.35.26h.64l.39-.26c0-.49.01-.97.02-1.47l-.07-.25c-.25-.17-.56-.12-.85-.13l-.47.24M25.3,14.79c-.03.47,0,.95-.03,1.42l.3.37c.28,0,.56.06.83.01l.29-.33c0-.47.03-.95.02-1.43l-.19-.31c-.28-.05-.57-.06-.84-.05l-.38.31M56.93,14.62l-.31.17v.41s.09,0,.09,0l-.1.02.09.5-.1-.1c0,.29,0,.59.02.89l.36.22h.63l.4-.31c.01-.39-.03-.78-.02-1.17l-.03-.43-.35-.2c-.23,0-.46.01-.68.02ZM51.88,14.94c-.03.29,0,.59,0,.88,0,.26-.02.52,0,.78.21.25.55.15.83.16l.51-.16c.05-.37.03-.75.03-1.12-.02-.25.03-.51-.09-.74-.28-.15-.6-.06-.9-.08l-.41.29M54.27,14.95c-.03.41.01.82,0,1.23l.06.44.36.13c.25,0,.49.02.74-.03l.27-.23c-.02-.42-.04-.83-.01-1.26l-.06-.44-.35-.16c-.23,0-.46,0-.69.01l-.31.3ZM20.7,19.14l-.2.48c-.01.57,0,1.14-.01,1.71l.14.61c.22.21.54.25.82.23l.39-.29.07-.6c0-.59.02-1.17.02-1.76l-.13-.36-.55-.1-.54.07M22.9,19.58c-.01.6,0,1.21-.02,1.81l.19.61c.21.21.53.2.81.19.19-.08.39-.24.42-.46.02-.72.01-1.43.02-2.15l-.18-.42-.3-.05h-.63l-.3.47ZM25.34,19.26c-.19.25-.1.57-.12.86-.03.46,0,.91-.02,1.37l.23.59c.29.18.68.22.97.03l.23-.32c0-.72.03-1.44.02-2.15l-.12-.4-.64-.1-.54.13M51.91,19.72c-.04.59.03,1.17,0,1.77.01.22-.06.48.09.66.16.23.45.29.71.28.27-.02.57-.21.58-.5,0-.74,0-1.47-.02-2.2l-.18-.37c-.25-.08-.51-.03-.77-.04-.23-.01-.43.18-.43.41M54.59,19.32l-.3.46c0,.46,0,.91.01,1.37,0,.25.03.49,0,.74l.21.37c.3.25.77.22,1.07-.03l.15-.5c-.02-.7.01-1.39-.03-2.09l-.12-.25-.3-.09c-.23,0-.46-.01-.68.03M56.62,19.72c.01.72,0,1.44.03,2.15l.07.2c.23.39.82.42,1.16.15.22-.18.19-.49.18-.74-.03-.59,0-1.18-.03-1.77l-.17-.39c-.25-.08-.52-.05-.78-.06-.25-.02-.47.21-.45.45"/>
    <path class="st0" d="M55.17,32.9c.26-.05.52-.04.78-.04l.59.03c.27.06.54.03.8.11.6.11,1.17.37,1.64.75l.52.54c.36.47.62,1.01.81,1.56-.55.16-1.11.24-1.66.4-.33.07-.66.15-.99.21-.1-.28-.21-.57-.42-.79-.63-.72-1.84-.72-2.53-.09-.22.21-.4.45-.5.73-.11.24-.11.51-.16.77-.07.32-.04.64-.05.97-.03.36.04.7.08,1.06.05.33.17.66.36.94.34.41.88.63,1.41.6.47.03.96-.13,1.29-.48.29-.33.49-.74.58-1.16l.07-.25c.81.25,1.63.49,2.45.73l.15.13c-.2.78-.53,1.54-1.1,2.12-.35.37-.77.68-1.25.84-.51.24-1.08.29-1.63.33-.78.03-1.56,0-2.32-.2-.54-.13-1.05-.4-1.47-.75-.45-.41-.84-.88-1.12-1.43-.28-.52-.39-1.12-.48-1.7-.13-1.27-.02-2.61.58-3.76.3-.57.74-1.06,1.28-1.41.67-.47,1.49-.66,2.29-.75"/>
    <path class="st0" d="M39.47,33.33c.68-.15,1.38-.23,2.08-.21.29.04.59.01.88.09.66.11,1.31.37,1.81.82.28.21.48.49.69.76.22.38.41.78.54,1.2-.54.15-1.09.29-1.62.44-.32.08-.63.21-.97.24-.17-.59-.64-1.13-1.26-1.24-.26-.04-.55-.09-.78.04-.25.13-.53.2-.75.38-.22.17-.38.41-.51.65-.12.29-.2.6-.24.91.02.44,0,.88,0,1.32.05.44.06.9.28,1.3.18.42.58.72,1.01.83.24.07.5.03.74.05.45-.04.92-.25,1.18-.63.28-.38.42-.85.5-1.31.88.21,1.76.46,2.62.71-.17.87-.54,1.73-1.16,2.37-.47.43-1.03.79-1.66.94-.97.24-1.99.24-2.99.11-.4-.13-.81-.22-1.19-.39-.39-.15-.71-.42-1.02-.69l-.46-.51c-.23-.3-.43-.62-.57-.97-.34-.83-.43-1.74-.4-2.64.05-1.08.31-2.19,1-3.04.22-.32.51-.57.83-.78.29-.22.63-.39.99-.49l.03-.09.4-.15"/>
    <path class="st0" d="M19.27,33.15c1.32,0,2.64,0,3.96.03.4,1.59.79,3.17,1.16,4.76.12.38.18.78.3,1.16.22-.94.48-1.86.73-2.78.23-.88.48-1.74.69-2.62l.11-.49c.71,0,1.43,0,2.14.03.62.04,1.24.02,1.86.02-.04.52.01,1.04-.03,1.56.01.68-.01,1.36-.03,2.05-.02,1.25-.02,2.5-.05,3.76,0,.75-.02,1.5,0,2.25h-2.5c.03-.34.03-.69,0-1.03.04-.31.02-.62.02-.93-.04-.45.05-.91.02-1.36.01-.64,0-1.27.01-1.9.05-.49-.01-.98.04-1.46v-.57c-.67,2.41-1.32,4.82-1.98,7.23-.74-.02-1.47,0-2.2-.02-.18-.6-.3-1.21-.47-1.81-.42-1.83-.93-3.64-1.33-5.48-.05.44-.01.89-.04,1.32,0,1.98-.05,3.96-.07,5.95-.82.02-1.65-.01-2.48,0,.02-.65.02-1.29.02-1.94.04-.59,0-1.18.04-1.77,0-1.24.02-2.47.02-3.71.04-.75.03-1.5.04-2.25"/>
  </g>
</svg>